<svg xmlns="http://www.w3.org/2000/svg" xmlns:xlink="http://www.w3.org/1999/xlink" width="50" zoomAndPan="magnify" viewBox="0 0 37.5 37.499999" height="50" preserveAspectRatio="xMidYMid meet" version="1.0"><defs><clipPath id="4dcd6cc7ae"><path d="M 8.269531 3.75 L 29.269531 3.75 L 29.269531 33.75 L 8.269531 33.75 Z M 8.269531 3.75 " clip-rule="nonzero"/></clipPath><clipPath id="8717e99355"><path d="M 20 29 L 25 29 L 25 33.75 L 20 33.75 Z M 20 29 " clip-rule="nonzero"/></clipPath><clipPath id="0cf21c286e"><path d="M 8.269531 9 L 18 9 L 18 20 L 8.269531 20 Z M 8.269531 9 " clip-rule="nonzero"/></clipPath><clipPath id="cc52dc159b"><path d="M 8.269531 15 L 12 15 L 12 25 L 8.269531 25 Z M 8.269531 15 " clip-rule="nonzero"/></clipPath><clipPath id="acba69ee08"><path d="M 10 24 L 25 24 L 25 33.75 L 10 33.75 Z M 10 24 " clip-rule="nonzero"/></clipPath><clipPath id="8fb33fce25"><path d="M 10 3.75 L 15 3.75 L 15 11 L 10 11 Z M 10 3.75 " clip-rule="nonzero"/></clipPath><clipPath id="042b5280f9"><path d="M 25 20 L 29.269531 20 L 29.269531 24 L 25 24 Z M 25 20 " clip-rule="nonzero"/></clipPath><clipPath id="5ac7ccd5d4"><path d="M 8.269531 17 L 10 17 L 10 19 L 8.269531 19 Z M 8.269531 17 " clip-rule="nonzero"/></clipPath><clipPath id="8dbc9dddf5"><path d="M 8.269531 17 L 10 17 L 10 18 L 8.269531 18 Z M 8.269531 17 " clip-rule="nonzero"/></clipPath></defs><g clip-path="url(#4dcd6cc7ae)"><path fill="#ffffff" d="M 29.136719 21.175781 C 29.121094 21.136719 29.09375 21.074219 29.070312 21.039062 C 29.0625 21.03125 29.074219 21.050781 29.070312 21.039062 C 29.058594 21.023438 29.050781 21.015625 29.039062 21 C 28.964844 20.910156 28.9375 20.824219 28.828125 20.792969 C 28.761719 20.773438 28.675781 20.78125 28.609375 20.777344 C 28.496094 20.769531 28.382812 20.800781 28.273438 20.816406 C 28.132812 20.839844 28.003906 20.878906 27.867188 20.914062 C 27.703125 20.957031 27.578125 21.023438 27.417969 21.074219 C 27.25 21.128906 27.050781 21.195312 26.882812 21.257812 C 26.714844 21.316406 26.601562 21.324219 26.4375 21.386719 C 26.285156 21.445312 26.097656 21.550781 25.949219 21.613281 C 25.832031 21.660156 25.703125 21.710938 25.582031 21.761719 C 25.503906 21.792969 25.390625 21.792969 25.3125 21.828125 C 25.292969 20.769531 25.136719 19.648438 25.019531 18.597656 C 25 18.429688 25.011719 18.269531 24.992188 18.101562 C 24.984375 18.066406 24.902344 18.074219 24.996094 18.023438 C 24.996094 18.023438 24.996094 18.027344 24.996094 18.023438 C 24.996094 18.023438 24.945312 18 24.945312 18 C 24.945312 17.992188 24.945312 18.003906 24.945312 18 C 24.941406 17.960938 24.933594 17.914062 24.929688 17.878906 C 24.882812 17.5 24.859375 17.085938 24.789062 16.707031 C 24.566406 15.546875 24.195312 14.449219 23.683594 13.382812 C 23.03125 12.03125 22.109375 10.832031 20.917969 9.894531 C 19.992188 9.167969 19.039062 8.589844 17.90625 8.234375 C 17.121094 7.984375 16.316406 7.851562 15.492188 7.898438 C 14.632812 7.949219 13.753906 8.207031 12.980469 8.574219 C 12.898438 8.613281 12.734375 8.710938 12.652344 8.753906 C 12.796875 8.382812 12.921875 7.832031 13.0625 7.460938 C 13.230469 7.007812 13.386719 6.578125 13.539062 6.121094 C 13.664062 5.738281 13.804688 5.289062 13.90625 4.902344 C 13.949219 4.730469 13.984375 4.589844 14 4.414062 C 14.015625 4.265625 14.0625 4.183594 14 4.042969 C 13.976562 3.984375 13.925781 3.957031 13.878906 3.917969 C 13.804688 3.859375 13.742188 3.851562 13.644531 3.851562 C 13.546875 3.855469 13.535156 3.871094 13.445312 3.914062 C 13.371094 3.953125 13.316406 4.007812 13.257812 4.066406 C 13.101562 4.207031 12.964844 4.34375 12.832031 4.507812 C 12.699219 4.675781 12.582031 4.847656 12.46875 5.027344 C 12.238281 5.386719 12.046875 5.753906 11.839844 6.128906 C 11.609375 6.53125 11.402344 6.921875 11.210938 7.34375 C 11.011719 7.777344 10.839844 8.210938 10.667969 8.65625 C 10.503906 9.070312 10.242188 9.558594 10.113281 9.984375 C 10.113281 9.976562 10.132812 9.859375 10.128906 9.851562 C 10.113281 9.78125 10 9.753906 9.972656 9.6875 C 9.9375 9.589844 9.902344 9.492188 9.851562 9.40625 C 9.800781 9.316406 9.8125 9.269531 9.699219 9.277344 C 9.601562 9.289062 9.601562 9.324219 9.550781 9.40625 C 9.503906 9.480469 9.492188 9.519531 9.464844 9.601562 C 9.445312 9.65625 9.332031 9.6875 9.320312 9.742188 C 9.320312 9.746094 9.414062 9.773438 9.414062 9.777344 C 9.296875 10.257812 9.132812 10.761719 9.015625 11.246094 C 8.902344 11.710938 8.824219 12.175781 8.722656 12.648438 C 8.558594 13.449219 8.4375 14.234375 8.476562 15.058594 C 8.492188 15.394531 8.546875 15.722656 8.617188 16.050781 C 8.511719 16.523438 8.429688 16.941406 8.402344 17.421875 C 8.359375 18.148438 8.425781 18.9375 8.558594 19.65625 C 8.707031 20.453125 8.964844 21.207031 9.324219 21.941406 C 9.609375 22.523438 9.953125 23.046875 10.359375 23.558594 C 10.636719 23.910156 10.898438 24.191406 11.226562 24.5 C 11.246094 24.515625 11.3125 24.578125 11.332031 24.59375 C 11.058594 25.242188 10.808594 25.980469 10.785156 26.683594 C 10.761719 27.441406 10.882812 28.199219 11.121094 28.917969 C 11.363281 29.640625 11.769531 30.207031 12.246094 30.808594 C 12.722656 31.414062 13.359375 31.972656 14.011719 32.390625 C 14.664062 32.808594 15.351562 33.101562 16.101562 33.316406 C 16.855469 33.535156 17.621094 33.683594 18.402344 33.691406 C 19.148438 33.695312 19.878906 33.589844 20.59375 33.390625 C 21.300781 33.191406 21.851562 32.90625 22.457031 32.496094 C 23.054688 32.089844 23.621094 31.546875 24.007812 30.9375 C 24.21875 30.605469 24.417969 30.355469 24.390625 29.949219 C 24.378906 29.765625 24.371094 29.621094 24.234375 29.492188 C 24.121094 29.378906 23.988281 29.308594 23.828125 29.289062 C 23.679688 29.277344 23.632812 29.296875 23.527344 29.40625 C 23.523438 29.410156 23.53125 29.433594 23.527344 29.441406 C 23.480469 29.480469 23.417969 29.496094 23.367188 29.539062 C 23.335938 29.5625 23.316406 29.578125 23.285156 29.605469 C 23.265625 29.617188 23.242188 29.636719 23.222656 29.648438 C 23.222656 29.652344 23.226562 29.648438 23.222656 29.648438 C 23.222656 29.648438 23.226562 29.648438 23.222656 29.648438 C 23.222656 29.648438 23.226562 29.648438 23.222656 29.648438 C 23.222656 29.648438 23.226562 29.648438 23.222656 29.648438 C 23.320312 29.699219 23.226562 29.648438 23.222656 29.648438 C 23.222656 29.648438 23.226562 29.648438 23.222656 29.648438 C 23.222656 29.648438 23.226562 29.648438 23.222656 29.648438 C 23.222656 29.652344 23.226562 29.648438 23.222656 29.648438 C 23.214844 29.65625 23.234375 29.640625 23.222656 29.648438 C 23.054688 29.777344 22.746094 29.878906 22.566406 29.996094 C 22.109375 30.292969 21.640625 30.648438 21.132812 30.855469 C 20.503906 31.113281 19.800781 31.300781 19.121094 31.398438 C 18.613281 31.472656 18.128906 31.5 17.617188 31.507812 C 17.074219 31.515625 16.484375 31.425781 15.953125 31.316406 C 15.355469 31.191406 14.757812 31.003906 14.25 30.664062 C 13.699219 30.296875 13.195312 29.730469 12.871094 29.160156 C 12.582031 28.652344 12.410156 28.085938 12.316406 27.511719 C 12.242188 27.039062 12.230469 26.519531 12.261719 26.042969 C 12.269531 25.949219 12.375 25.804688 12.289062 25.757812 C 12.21875 25.71875 12.222656 25.730469 12.292969 25.695312 C 12.300781 25.695312 12.253906 25.628906 12.351562 25.636719 C 12.351562 25.636719 12.371094 25.636719 12.371094 25.636719 L 12.292969 25.695312 C 12.292969 25.695312 12.304688 25.625 12.304688 25.625 C 12.304688 25.625 12.40625 25.625 12.40625 25.625 C 12.363281 25.625 12.242188 25.644531 12.246094 25.640625 C 12.246094 25.621094 12.300781 25.644531 12.304688 25.625 C 12.320312 25.519531 12.375 25.214844 12.398438 25.109375 C 12.703125 25.199219 13.097656 25.296875 13.414062 25.34375 C 13.773438 25.398438 14.171875 25.4375 14.535156 25.453125 C 14.894531 25.464844 15.238281 25.472656 15.597656 25.453125 C 15.960938 25.433594 16.296875 25.324219 16.65625 25.28125 C 17.019531 25.234375 17.367188 25.230469 17.726562 25.171875 C 17.769531 25.164062 17.890625 25.1875 17.929688 25.179688 C 17.976562 25.332031 18.054688 25.585938 18.101562 25.738281 C 18.246094 26.214844 18.351562 26.601562 18.664062 27 C 18.738281 27.09375 18.804688 27.179688 18.910156 27.238281 C 19.023438 27.300781 19.035156 27.351562 19.132812 27.269531 C 19.203125 27.207031 19.214844 27.132812 19.230469 27.042969 C 19.246094 26.933594 19.246094 26.835938 19.230469 26.730469 C 19.136719 26.175781 19.035156 25.660156 18.910156 25.109375 C 18.90625 25.078125 18.917969 24.988281 18.910156 24.957031 C 19.226562 24.871094 19.582031 24.703125 19.894531 24.617188 C 20.226562 24.527344 20.550781 24.4375 20.878906 24.34375 C 21.210938 24.253906 21.601562 24.191406 21.933594 24.101562 C 22.261719 24.011719 22.519531 23.890625 22.851562 23.796875 C 23.175781 23.707031 23.578125 23.597656 23.902344 23.507812 C 23.941406 23.496094 24.03125 23.503906 24.066406 23.496094 C 24.074219 23.867188 24.078125 24.304688 24.046875 24.679688 C 24.035156 24.820312 24.019531 24.964844 24 25.089844 C 23.953125 25.351562 23.914062 25.589844 23.949219 25.859375 C 23.992188 26.183594 24.117188 26.40625 24.492188 26.351562 C 24.765625 26.3125 24.804688 26.09375 24.890625 25.867188 C 25.019531 25.53125 25.054688 25.242188 25.097656 24.890625 C 25.148438 24.460938 25.207031 23.976562 25.226562 23.546875 C 25.230469 23.445312 25.269531 23.261719 25.273438 23.160156 C 25.332031 23.140625 25.421875 23.128906 25.480469 23.109375 C 25.597656 23.070312 25.769531 23.011719 25.886719 22.972656 C 26.035156 22.921875 26.121094 22.933594 26.269531 22.882812 C 26.433594 22.828125 26.558594 22.738281 26.722656 22.675781 C 26.894531 22.613281 27.105469 22.53125 27.273438 22.464844 C 27.453125 22.394531 27.640625 22.375 27.816406 22.296875 C 27.972656 22.230469 28.066406 22.085938 28.222656 22.011719 C 28.359375 21.941406 28.539062 21.949219 28.671875 21.871094 C 28.785156 21.804688 28.851562 21.707031 28.953125 21.621094 C 29.023438 21.5625 29.101562 21.558594 29.144531 21.472656 C 29.203125 21.367188 29.175781 21.289062 29.136719 21.175781 Z M 23.875 22.121094 C 23.679688 22.191406 23.476562 22.25 23.269531 22.292969 C 23.210938 22.304688 23.148438 22.316406 23.089844 22.324219 C 23.058594 22.332031 23.027344 22.335938 22.996094 22.339844 C 22.992188 22.339844 22.992188 22.339844 22.992188 22.339844 C 22.988281 22.339844 22.988281 22.339844 22.988281 22.339844 C 22.988281 22.339844 22.984375 22.339844 22.984375 22.339844 C 22.980469 22.339844 22.980469 22.339844 22.980469 22.339844 C 22.976562 22.339844 22.972656 22.34375 22.96875 22.34375 C 22.953125 22.34375 22.933594 22.347656 22.914062 22.347656 C 22.789062 22.363281 22.660156 22.371094 22.53125 22.375 C 22.484375 22.375 22.4375 22.375 22.390625 22.375 C 22.394531 22.371094 22.398438 22.371094 22.402344 22.367188 C 22.472656 22.289062 22.53125 22.207031 22.59375 22.121094 C 22.738281 21.933594 22.875 21.738281 23.007812 21.539062 C 23.136719 21.34375 23.257812 21.144531 23.367188 20.9375 C 23.480469 20.722656 23.578125 20.5 23.65625 20.269531 C 23.683594 20.195312 23.707031 20.117188 23.730469 20.039062 C 23.800781 20.730469 23.859375 21.421875 23.90625 22.117188 C 23.894531 22.117188 23.886719 22.117188 23.875 22.121094 Z M 23.875 22.121094 " fill-opacity="1" fill-rule="nonzero"/></g><path fill="#4e4e4e" d="M 14.824219 15.75 C 14.777344 15.484375 14.613281 15.234375 14.359375 15.128906 C 14.160156 15.042969 13.933594 15.042969 13.71875 15.085938 C 13.273438 15.089844 12.8125 15.269531 12.617188 15.695312 C 12.507812 15.929688 12.503906 16.179688 12.617188 16.414062 C 12.71875 16.621094 12.890625 16.789062 13.089844 16.902344 C 13.46875 17.121094 13.976562 17.140625 14.34375 16.882812 C 14.703125 16.628906 14.898438 16.179688 14.824219 15.75 Z M 14.824219 15.75 " fill-opacity="1" fill-rule="nonzero"/><path fill="#4e4e4e" d="M 12.945312 11.609375 C 12.824219 11.445312 12.648438 11.332031 12.472656 11.230469 C 12.300781 11.132812 12.101562 11.066406 11.90625 11.132812 C 11.730469 11.191406 11.597656 11.324219 11.496094 11.472656 C 11.390625 11.628906 11.332031 11.808594 11.257812 11.980469 C 11.21875 12.0625 11.175781 12.148438 11.121094 12.222656 C 11.066406 12.296875 11 12.355469 10.933594 12.414062 C 10.796875 12.527344 10.652344 12.632812 10.542969 12.773438 C 10.320312 12.992188 10.179688 13.292969 10.191406 13.609375 C 10.207031 13.953125 10.40625 14.289062 10.71875 14.449219 C 11.074219 14.636719 11.492188 14.550781 11.835938 14.371094 C 12.160156 14.199219 12.4375 13.941406 12.652344 13.652344 C 12.863281 13.367188 13.015625 13.03125 13.085938 12.6875 C 13.15625 12.335938 13.167969 11.910156 12.945312 11.609375 Z M 12.945312 11.609375 " fill-opacity="1" fill-rule="nonzero"/><path fill="#4e4e4e" d="M 19.171875 26.957031 C 19.164062 26.15625 18.753906 25.28125 18.808594 24.507812 C 18.664062 23.84375 17.699219 23.617188 17.320312 23.160156 C 17.179688 23.292969 17.429688 23.5 17.515625 23.59375 C 17.605469 23.917969 17.695312 24.246094 17.785156 24.574219 C 17.875 24.910156 17.964844 25.246094 18.054688 25.582031 C 18.175781 26.101562 18.375 26.46875 18.527344 26.707031 C 18.636719 26.875 18.875 27.242188 19.035156 27.195312 C 19.113281 27.171875 19.152344 27.058594 19.171875 26.957031 Z M 19.171875 26.957031 " fill-opacity="1" fill-rule="nonzero"/><g clip-path="url(#8717e99355)"><path fill="#4e4e4e" d="M 24.316406 29.996094 C 24.421875 29.539062 23.996094 29.203125 23.558594 29.40625 C 23.082031 29.960938 22.191406 30.34375 21.503906 30.738281 C 20.949219 31.066406 21.078125 31.886719 21.128906 32.4375 C 21.105469 32.695312 20.820312 32.886719 20.90625 33.160156 C 21.089844 33.359375 22.902344 32.25 23.035156 32.082031 C 23.160156 31.929688 23.332031 31.824219 23.445312 31.660156 C 23.839844 31.191406 24.308594 30.640625 24.316406 29.996094 Z M 24.316406 29.996094 " fill-opacity="1" fill-rule="nonzero"/></g><path fill="#b1b1b1" d="M 13.316406 18.273438 C 13.242188 18.132812 13.128906 18.015625 13 17.921875 C 12.75 17.738281 12.371094 17.644531 12.078125 17.773438 C 11.953125 17.832031 11.875 17.945312 11.855469 18.070312 C 11.832031 18.09375 11.820312 18.128906 11.832031 18.160156 C 11.847656 18.203125 11.867188 18.242188 11.886719 18.277344 C 11.910156 18.332031 11.941406 18.375 11.976562 18.414062 C 12.070312 18.535156 12.1875 18.632812 12.320312 18.714844 C 12.332031 18.738281 12.359375 18.753906 12.386719 18.757812 C 12.433594 18.78125 12.476562 18.804688 12.523438 18.828125 C 12.78125 18.949219 13.257812 19.128906 13.390625 18.746094 C 13.445312 18.589844 13.390625 18.414062 13.316406 18.273438 Z M 13.316406 18.273438 " fill-opacity="1" fill-rule="nonzero"/><path fill="#b1b1b1" d="M 11.832031 17.914062 C 11.78125 17.871094 11.722656 17.839844 11.65625 17.820312 C 11.40625 17.738281 11.144531 17.835938 10.921875 17.953125 C 10.808594 18.007812 10.699219 18.078125 10.625 18.183594 C 10.554688 18.285156 10.53125 18.417969 10.585938 18.535156 C 10.632812 18.628906 10.734375 18.695312 10.835938 18.71875 C 10.96875 18.746094 11.101562 18.710938 11.222656 18.65625 C 11.390625 18.582031 11.566406 18.488281 11.703125 18.355469 C 11.792969 18.289062 11.859375 18.191406 11.878906 18.082031 C 11.890625 18.015625 11.890625 17.957031 11.832031 17.914062 Z M 11.832031 17.914062 " fill-opacity="1" fill-rule="nonzero"/><path fill="#b1b1b1" d="M 19.339844 11.867188 C 19.316406 11.773438 19.257812 11.699219 19.183594 11.640625 C 19.128906 11.566406 19.050781 11.503906 18.957031 11.460938 C 18.75 11.375 18.5 11.390625 18.335938 11.550781 C 18.167969 11.714844 18.128906 11.953125 18.128906 12.171875 C 18.128906 12.390625 18.132812 12.652344 18.320312 12.800781 C 18.332031 12.8125 18.347656 12.820312 18.363281 12.832031 C 18.394531 12.855469 18.429688 12.875 18.472656 12.886719 C 18.664062 12.949219 18.847656 12.84375 18.96875 12.699219 C 19.121094 12.570312 19.234375 12.398438 19.304688 12.214844 C 19.34375 12.105469 19.371094 11.980469 19.339844 11.867188 Z M 19.339844 11.867188 " fill-opacity="1" fill-rule="nonzero"/><path fill="#b1b1b1" d="M 20.671875 12.597656 C 20.664062 12.515625 20.621094 12.460938 20.542969 12.429688 C 20.5 12.414062 20.453125 12.40625 20.40625 12.402344 C 20.3125 12.402344 20.21875 12.433594 20.140625 12.484375 C 20.121094 12.5 20.097656 12.519531 20.078125 12.535156 C 19.992188 12.59375 19.917969 12.675781 19.902344 12.78125 C 19.886719 12.886719 19.933594 12.992188 20.015625 13.0625 C 20.105469 13.136719 20.226562 13.15625 20.339844 13.125 C 20.449219 13.09375 20.542969 13.015625 20.597656 12.917969 C 20.652344 12.824219 20.683594 12.703125 20.671875 12.597656 Z M 20.671875 12.597656 " fill-opacity="1" fill-rule="nonzero"/><path fill="#b1b1b1" d="M 20.265625 9.390625 C 17.367188 7.410156 14.726562 7.878906 14.726562 8.109375 C 15.214844 10.316406 18.90625 10.988281 20.265625 9.390625 Z M 20.265625 9.390625 " fill-opacity="1" fill-rule="nonzero"/><path fill="#b1b1b1" d="M 24.710938 16.613281 C 24.648438 16.578125 24.609375 16.511719 24.609375 16.441406 C 24.609375 16.425781 24.605469 16.410156 24.601562 16.394531 C 24.496094 16.003906 24.390625 15.617188 24.289062 15.226562 C 24.234375 15.035156 24.183594 14.84375 24.132812 14.652344 C 24.082031 14.46875 24.039062 14.28125 23.964844 14.105469 C 23.898438 13.941406 23.808594 13.785156 23.695312 13.648438 C 23.660156 13.605469 23.652344 13.546875 23.683594 13.496094 C 23.734375 13.410156 23.707031 13.28125 23.613281 13.234375 C 23.519531 13.183594 23.398438 13.207031 23.347656 13.300781 C 23.050781 13.8125 22.945312 14.40625 23.03125 14.984375 C 23.105469 15.503906 23.363281 15.992188 23.726562 16.367188 C 23.957031 16.601562 24.234375 16.777344 24.515625 16.949219 C 24.601562 17 24.734375 16.96875 24.78125 16.878906 C 24.832031 16.785156 24.804688 16.671875 24.710938 16.613281 Z M 24.710938 16.613281 " fill-opacity="1" fill-rule="nonzero"/><path fill="#b1b1b1" d="M 23.507812 17.789062 C 23.5 17.773438 23.488281 17.761719 23.480469 17.746094 C 23.414062 17.617188 23.316406 17.5 23.195312 17.417969 C 23.179688 17.402344 23.15625 17.390625 23.136719 17.378906 C 22.984375 17.253906 22.757812 17.171875 22.601562 17.34375 C 22.582031 17.363281 22.5625 17.390625 22.550781 17.414062 C 22.535156 17.429688 22.519531 17.449219 22.503906 17.464844 C 22.4375 17.550781 22.417969 17.652344 22.40625 17.761719 C 22.398438 17.882812 22.390625 18.015625 22.402344 18.148438 C 22.386719 18.265625 22.414062 18.386719 22.472656 18.488281 C 22.515625 18.59375 22.574219 18.691406 22.664062 18.773438 C 22.800781 18.898438 22.980469 18.972656 23.167969 18.949219 C 23.339844 18.925781 23.476562 18.828125 23.570312 18.6875 C 23.753906 18.410156 23.695312 18.050781 23.507812 17.789062 Z M 23.507812 17.789062 " fill-opacity="1" fill-rule="nonzero"/><path fill="#ff7900" d="M 12.234375 18.898438 C 12.277344 18.863281 12.292969 18.800781 12.246094 18.757812 C 12.179688 18.699219 12.113281 18.644531 12.046875 18.585938 C 12.042969 18.582031 12.039062 18.578125 12.03125 18.574219 C 11.996094 18.542969 11.957031 18.511719 11.917969 18.480469 C 11.910156 18.46875 11.902344 18.457031 11.890625 18.445312 C 11.835938 18.390625 11.75 18.371094 11.679688 18.410156 C 11.609375 18.449219 11.589844 18.53125 11.609375 18.601562 C 11.617188 18.632812 11.632812 18.664062 11.648438 18.691406 C 11.605469 18.835938 11.609375 18.996094 11.667969 19.136719 C 11.675781 19.160156 11.691406 19.179688 11.710938 19.191406 C 11.695312 19.207031 11.6875 19.226562 11.6875 19.253906 C 11.695312 19.4375 11.777344 19.613281 11.921875 19.726562 C 11.921875 19.730469 11.921875 19.730469 11.925781 19.730469 C 11.960938 19.785156 12.046875 19.792969 12.089844 19.726562 C 12.105469 19.703125 12.121094 19.675781 12.132812 19.644531 C 12.164062 19.636719 12.191406 19.613281 12.199219 19.582031 C 12.21875 19.515625 12.234375 19.445312 12.246094 19.375 C 12.347656 19.226562 12.3125 19.058594 12.234375 18.898438 Z M 12.234375 18.898438 " fill-opacity="1" fill-rule="nonzero"/><g clip-path="url(#0cf21c286e)"><path fill="#000000" d="M 9.316406 9.753906 C 9.199219 10.234375 9.078125 10.714844 8.960938 11.195312 C 8.847656 11.664062 8.726562 12.128906 8.628906 12.601562 C 8.464844 13.40625 8.34375 14.226562 8.382812 15.046875 C 8.414062 15.714844 8.566406 16.367188 8.785156 17 C 8.972656 17.546875 9.230469 18.136719 9.695312 18.511719 C 9.960938 18.722656 10.28125 18.847656 10.625 18.835938 C 11.007812 18.828125 11.375 18.664062 11.691406 18.453125 C 11.75 18.410156 11.808594 18.367188 11.867188 18.324219 C 11.820312 18.324219 11.769531 18.324219 11.722656 18.324219 C 11.960938 18.554688 12.222656 18.765625 12.507812 18.9375 C 12.910156 19.179688 13.367188 19.347656 13.84375 19.363281 C 14.242188 19.378906 14.636719 19.28125 14.988281 19.097656 C 15.304688 18.929688 15.585938 18.691406 15.824219 18.425781 C 16.0625 18.160156 16.269531 17.867188 16.445312 17.554688 C 16.609375 17.277344 16.746094 16.988281 16.871094 16.691406 C 16.957031 16.488281 17.035156 16.28125 17.109375 16.070312 C 17.28125 15.570312 17.394531 15.058594 17.441406 14.53125 C 17.488281 14.027344 17.46875 13.515625 17.402344 13.011719 C 17.347656 12.628906 17.265625 12.25 17.15625 11.878906 C 17.136719 11.808594 17.113281 11.742188 17.089844 11.675781 C 17.066406 11.601562 16.945312 11.566406 16.90625 11.652344 C 16.722656 12.058594 16.535156 12.464844 16.351562 12.871094 C 16.328125 12.917969 16.335938 12.976562 16.386719 13.007812 C 16.429688 13.03125 16.503906 13.019531 16.527344 12.972656 C 16.710938 12.566406 16.894531 12.15625 17.082031 11.75 C 17.019531 11.742188 16.957031 11.734375 16.894531 11.726562 C 17.148438 12.496094 17.28125 13.304688 17.261719 14.113281 C 17.25 14.671875 17.160156 15.226562 16.996094 15.761719 C 16.929688 15.988281 16.847656 16.210938 16.761719 16.433594 C 16.734375 16.492188 16.710938 16.554688 16.6875 16.617188 C 16.679688 16.628906 16.675781 16.644531 16.667969 16.65625 C 16.667969 16.664062 16.660156 16.679688 16.667969 16.660156 C 16.664062 16.667969 16.660156 16.675781 16.65625 16.683594 C 16.640625 16.71875 16.625 16.753906 16.609375 16.789062 C 16.546875 16.929688 16.480469 17.066406 16.410156 17.203125 C 16.253906 17.503906 16.074219 17.792969 15.867188 18.0625 C 15.851562 18.082031 15.820312 18.121094 15.796875 18.152344 C 15.765625 18.1875 15.734375 18.222656 15.707031 18.257812 C 15.648438 18.320312 15.589844 18.382812 15.53125 18.441406 C 15.402344 18.566406 15.273438 18.675781 15.136719 18.769531 C 15.066406 18.820312 14.992188 18.867188 14.917969 18.90625 C 14.878906 18.925781 14.84375 18.945312 14.804688 18.964844 C 14.765625 18.984375 14.71875 19.003906 14.691406 19.015625 C 14.613281 19.046875 14.53125 19.074219 14.449219 19.097656 C 14.40625 19.109375 14.363281 19.117188 14.320312 19.125 C 14.300781 19.128906 14.277344 19.136719 14.257812 19.136719 C 14.246094 19.140625 14.234375 19.140625 14.222656 19.144531 C 14.21875 19.144531 14.183594 19.148438 14.195312 19.148438 C 13.363281 19.257812 12.578125 18.832031 11.992188 18.300781 C 11.949219 18.261719 11.90625 18.222656 11.867188 18.183594 C 11.824219 18.140625 11.765625 18.148438 11.722656 18.183594 C 11.699219 18.199219 11.734375 18.175781 11.71875 18.1875 C 11.710938 18.191406 11.703125 18.195312 11.699219 18.203125 C 11.6875 18.210938 11.671875 18.21875 11.660156 18.230469 C 11.628906 18.25 11.597656 18.273438 11.566406 18.292969 C 11.5 18.339844 11.429688 18.382812 11.355469 18.421875 C 11.195312 18.507812 11.027344 18.574219 10.851562 18.609375 C 10.667969 18.648438 10.472656 18.648438 10.292969 18.601562 C 10.15625 18.5625 10.042969 18.511719 9.925781 18.429688 C 9.699219 18.277344 9.515625 18.050781 9.375 17.816406 C 9.222656 17.570312 9.113281 17.320312 9.015625 17.054688 C 8.804688 16.464844 8.644531 15.855469 8.597656 15.234375 C 8.539062 14.453125 8.628906 13.671875 8.777344 12.90625 C 8.863281 12.453125 8.96875 12.003906 9.082031 11.558594 C 9.195312 11.089844 9.3125 10.621094 9.425781 10.152344 C 9.457031 10.035156 9.484375 9.921875 9.511719 9.804688 C 9.542969 9.679688 9.347656 9.625 9.316406 9.753906 Z M 9.316406 9.753906 " fill-opacity="1" fill-rule="nonzero"/></g><path fill="#000000" d="M 9.511719 9.804688 C 9.519531 9.765625 9.53125 9.726562 9.542969 9.6875 C 9.554688 9.652344 9.566406 9.617188 9.578125 9.585938 C 9.585938 9.566406 9.59375 9.546875 9.601562 9.53125 C 9.585938 9.566406 9.597656 9.535156 9.601562 9.523438 C 9.605469 9.515625 9.613281 9.507812 9.617188 9.496094 C 9.625 9.480469 9.632812 9.464844 9.644531 9.445312 C 9.652344 9.433594 9.667969 9.417969 9.671875 9.402344 C 9.671875 9.402344 9.65625 9.425781 9.664062 9.417969 C 9.664062 9.414062 9.664062 9.414062 9.667969 9.410156 C 9.667969 9.410156 9.671875 9.40625 9.675781 9.402344 C 9.679688 9.398438 9.683594 9.390625 9.691406 9.386719 C 9.695312 9.382812 9.695312 9.382812 9.699219 9.378906 C 9.707031 9.371094 9.675781 9.394531 9.6875 9.386719 C 9.695312 9.382812 9.699219 9.378906 9.707031 9.375 C 9.722656 9.367188 9.695312 9.382812 9.691406 9.382812 C 9.695312 9.382812 9.699219 9.378906 9.703125 9.378906 C 9.703125 9.378906 9.707031 9.378906 9.710938 9.375 C 9.707031 9.378906 9.679688 9.378906 9.695312 9.378906 C 9.699219 9.378906 9.703125 9.378906 9.707031 9.378906 C 9.714844 9.378906 9.675781 9.371094 9.695312 9.378906 C 9.699219 9.378906 9.703125 9.378906 9.707031 9.382812 C 9.71875 9.386719 9.679688 9.367188 9.695312 9.378906 C 9.699219 9.378906 9.703125 9.382812 9.707031 9.382812 C 9.710938 9.386719 9.726562 9.398438 9.710938 9.386719 C 9.695312 9.371094 9.707031 9.382812 9.710938 9.386719 C 9.714844 9.390625 9.71875 9.394531 9.722656 9.398438 C 9.726562 9.402344 9.734375 9.417969 9.742188 9.421875 C 9.742188 9.421875 9.726562 9.402344 9.734375 9.410156 C 9.734375 9.410156 9.738281 9.414062 9.738281 9.414062 C 9.742188 9.421875 9.746094 9.425781 9.75 9.433594 C 9.777344 9.472656 9.796875 9.515625 9.816406 9.558594 C 9.820312 9.5625 9.820312 9.566406 9.824219 9.574219 C 9.824219 9.574219 9.8125 9.546875 9.820312 9.5625 C 9.820312 9.566406 9.820312 9.570312 9.824219 9.570312 C 9.828125 9.582031 9.832031 9.59375 9.835938 9.605469 C 9.84375 9.625 9.851562 9.644531 9.859375 9.667969 C 9.882812 9.734375 9.90625 9.800781 9.925781 9.867188 C 9.945312 9.945312 9.964844 10.027344 9.976562 10.109375 C 9.980469 10.121094 9.980469 10.128906 9.980469 10.140625 C 9.984375 10.148438 9.984375 10.152344 9.984375 10.160156 C 9.984375 10.160156 9.984375 10.164062 9.984375 10.164062 C 9.988281 10.183594 9.984375 10.144531 9.984375 10.15625 C 9.988281 10.179688 9.988281 10.203125 9.992188 10.226562 C 9.996094 10.277344 10 10.332031 10.003906 10.382812 C 10.007812 10.496094 10.007812 10.613281 10 10.726562 C 9.996094 10.792969 9.988281 10.855469 9.980469 10.921875 C 9.980469 10.921875 9.976562 10.929688 9.976562 10.933594 C 9.976562 10.933594 9.980469 10.910156 9.980469 10.925781 C 9.976562 10.933594 9.976562 10.941406 9.976562 10.949219 C 9.972656 10.96875 9.96875 10.984375 9.96875 11.003906 C 9.960938 11.039062 9.957031 11.074219 9.949219 11.109375 C 9.941406 11.148438 9.933594 11.183594 9.925781 11.21875 C 9.914062 11.269531 9.941406 11.328125 9.996094 11.339844 C 10.050781 11.351562 10.109375 11.324219 10.121094 11.269531 C 10.183594 11 10.214844 10.722656 10.210938 10.449219 C 10.203125 10.246094 10.179688 10.042969 10.128906 9.847656 C 10.109375 9.777344 10.089844 9.707031 10.0625 9.640625 C 10.03125 9.542969 9.992188 9.445312 9.941406 9.359375 C 9.890625 9.269531 9.804688 9.167969 9.691406 9.179688 C 9.589844 9.1875 9.523438 9.257812 9.472656 9.335938 C 9.425781 9.410156 9.394531 9.496094 9.367188 9.578125 C 9.347656 9.628906 9.332031 9.683594 9.320312 9.738281 C 9.320312 9.742188 9.316406 9.746094 9.316406 9.753906 C 9.304688 9.804688 9.332031 9.863281 9.386719 9.875 C 9.4375 9.886719 9.5 9.859375 9.511719 9.804688 Z M 9.511719 9.804688 " fill-opacity="1" fill-rule="nonzero"/><g clip-path="url(#cc52dc159b)"><path fill="#000000" d="M 8.519531 16.023438 C 8.410156 16.5 8.34375 16.988281 8.316406 17.476562 C 8.273438 18.199219 8.320312 18.929688 8.453125 19.648438 C 8.601562 20.445312 8.859375 21.222656 9.21875 21.953125 C 9.503906 22.535156 9.855469 23.085938 10.257812 23.59375 C 10.539062 23.949219 10.84375 24.28125 11.171875 24.585938 C 11.203125 24.613281 11.230469 24.640625 11.257812 24.664062 C 11.355469 24.753906 11.5 24.613281 11.402344 24.523438 C 11.09375 24.242188 10.804688 23.9375 10.535156 23.617188 C 10.355469 23.402344 10.191406 23.183594 10.027344 22.941406 C 9.84375 22.667969 9.671875 22.386719 9.515625 22.09375 C 9.152344 21.402344 8.882812 20.664062 8.710938 19.902344 C 8.550781 19.183594 8.484375 18.449219 8.507812 17.710938 C 8.515625 17.421875 8.539062 17.132812 8.578125 16.84375 C 8.578125 16.835938 8.578125 16.832031 8.578125 16.824219 C 8.582031 16.824219 8.585938 16.789062 8.582031 16.8125 C 8.582031 16.796875 8.585938 16.785156 8.585938 16.769531 C 8.59375 16.738281 8.597656 16.707031 8.601562 16.671875 C 8.609375 16.617188 8.621094 16.5625 8.628906 16.507812 C 8.644531 16.40625 8.664062 16.300781 8.6875 16.199219 C 8.695312 16.160156 8.703125 16.117188 8.714844 16.078125 C 8.726562 16.023438 8.699219 15.96875 8.644531 15.953125 C 8.59375 15.941406 8.53125 15.96875 8.519531 16.023438 Z M 8.519531 16.023438 " fill-opacity="1" fill-rule="nonzero"/></g><g clip-path="url(#acba69ee08)"><path fill="#000000" d="M 11.230469 24.628906 C 10.910156 25.328125 10.746094 26.085938 10.738281 26.851562 C 10.734375 27.609375 10.878906 28.367188 11.148438 29.074219 C 11.421875 29.796875 11.820312 30.46875 12.320312 31.0625 C 12.816406 31.648438 13.414062 32.148438 14.074219 32.546875 C 14.730469 32.945312 15.449219 33.246094 16.195312 33.449219 C 16.945312 33.648438 17.726562 33.75 18.503906 33.742188 C 19.234375 33.738281 19.96875 33.628906 20.667969 33.421875 C 21.363281 33.21875 22.035156 32.914062 22.628906 32.5 C 23.210938 32.09375 23.722656 31.585938 24.097656 30.984375 C 24.304688 30.652344 24.53125 30.25 24.488281 29.847656 C 24.46875 29.667969 24.402344 29.5 24.265625 29.378906 C 24.152344 29.273438 24.003906 29.207031 23.847656 29.191406 C 23.699219 29.175781 23.550781 29.230469 23.445312 29.335938 C 23.355469 29.429688 23.5 29.574219 23.589844 29.480469 C 23.777344 29.285156 24.105469 29.441406 24.222656 29.640625 C 24.316406 29.800781 24.300781 30.007812 24.253906 30.179688 C 24.207031 30.371094 24.117188 30.542969 24.023438 30.714844 C 23.691406 31.300781 23.226562 31.808594 22.683594 32.210938 C 22.136719 32.621094 21.515625 32.933594 20.863281 33.152344 C 20.203125 33.375 19.507812 33.5 18.8125 33.535156 C 18.074219 33.566406 17.335938 33.503906 16.617188 33.34375 C 15.890625 33.183594 15.1875 32.929688 14.535156 32.582031 C 13.890625 32.234375 13.296875 31.796875 12.785156 31.273438 C 12.265625 30.742188 11.839844 30.121094 11.523438 29.449219 C 11.21875 28.796875 11.019531 28.085938 10.960938 27.367188 C 10.902344 26.644531 10.980469 25.914062 11.210938 25.226562 C 11.265625 25.058594 11.332031 24.890625 11.40625 24.730469 C 11.429688 24.679688 11.417969 24.621094 11.367188 24.59375 C 11.324219 24.566406 11.253906 24.578125 11.230469 24.628906 Z M 11.230469 24.628906 " fill-opacity="1" fill-rule="nonzero"/></g><path fill="#000000" d="M 12.300781 25.082031 C 12.246094 25.316406 12.210938 25.550781 12.183594 25.789062 C 12.132812 26.238281 12.128906 26.695312 12.171875 27.148438 C 12.226562 27.730469 12.363281 28.304688 12.597656 28.839844 C 12.867188 29.449219 13.269531 30 13.78125 30.433594 C 14.273438 30.855469 14.855469 31.160156 15.480469 31.347656 C 16.035156 31.511719 16.617188 31.585938 17.195312 31.605469 C 17.664062 31.617188 18.128906 31.589844 18.59375 31.554688 C 19.324219 31.5 20.042969 31.355469 20.730469 31.113281 C 21.296875 30.917969 21.84375 30.664062 22.359375 30.359375 C 22.734375 30.136719 23.09375 29.886719 23.433594 29.613281 C 23.488281 29.566406 23.546875 29.523438 23.601562 29.476562 C 23.640625 29.441406 23.636719 29.371094 23.601562 29.332031 C 23.558594 29.292969 23.5 29.296875 23.457031 29.332031 C 23.402344 29.382812 23.34375 29.429688 23.285156 29.472656 C 23.253906 29.5 23.21875 29.527344 23.183594 29.554688 C 23.167969 29.566406 23.152344 29.578125 23.136719 29.59375 C 23.132812 29.59375 23.128906 29.597656 23.125 29.601562 C 23.136719 29.589844 23.125 29.601562 23.121094 29.601562 C 23.113281 29.609375 23.101562 29.617188 23.09375 29.625 C 22.921875 29.753906 22.746094 29.875 22.566406 29.992188 C 22.109375 30.289062 21.621094 30.546875 21.117188 30.753906 C 20.484375 31.015625 19.820312 31.199219 19.144531 31.296875 C 18.636719 31.371094 18.113281 31.398438 17.601562 31.40625 C 17.058594 31.414062 16.515625 31.378906 15.984375 31.269531 C 15.386719 31.144531 14.8125 30.921875 14.304688 30.582031 C 13.753906 30.214844 13.300781 29.714844 12.976562 29.144531 C 12.691406 28.636719 12.511719 28.074219 12.417969 27.5 C 12.34375 27.027344 12.328125 26.542969 12.363281 26.070312 C 12.367188 25.972656 12.375 25.878906 12.386719 25.78125 C 12.390625 25.738281 12.398438 25.695312 12.402344 25.652344 C 12.40625 25.644531 12.40625 25.632812 12.40625 25.625 C 12.402344 25.644531 12.40625 25.625 12.40625 25.613281 C 12.410156 25.597656 12.414062 25.578125 12.417969 25.558594 C 12.433594 25.445312 12.453125 25.332031 12.476562 25.21875 C 12.484375 25.191406 12.488281 25.164062 12.496094 25.136719 C 12.527344 25.011719 12.332031 24.957031 12.300781 25.082031 Z M 12.300781 25.082031 " fill-opacity="1" fill-rule="nonzero"/><path fill="#000000" d="M 15.5625 19.707031 C 15.847656 20.167969 16.105469 20.644531 16.335938 21.132812 C 16.566406 21.621094 16.773438 22.117188 16.964844 22.617188 C 17.15625 23.125 17.332031 23.636719 17.5 24.148438 C 17.667969 24.667969 17.828125 25.1875 17.984375 25.707031 C 18.128906 26.179688 18.277344 26.667969 18.589844 27.066406 C 18.664062 27.160156 18.75 27.265625 18.859375 27.324219 C 18.96875 27.386719 19.105469 27.382812 19.203125 27.300781 C 19.273438 27.238281 19.308594 27.140625 19.320312 27.050781 C 19.335938 26.941406 19.328125 26.839844 19.308594 26.730469 C 19.21875 26.175781 19.109375 25.621094 18.988281 25.074219 C 18.863281 24.527344 18.726562 23.984375 18.574219 23.441406 C 18.421875 22.902344 18.257812 22.363281 18.074219 21.828125 C 17.894531 21.296875 17.699219 20.765625 17.488281 20.246094 C 17.4375 20.117188 17.382812 19.992188 17.332031 19.863281 C 17.3125 19.816406 17.265625 19.777344 17.207031 19.792969 C 17.160156 19.808594 17.113281 19.867188 17.136719 19.917969 C 17.347656 20.425781 17.546875 20.941406 17.734375 21.460938 C 17.917969 21.984375 18.089844 22.507812 18.25 23.039062 C 18.40625 23.570312 18.550781 24.101562 18.679688 24.636719 C 18.808594 25.175781 18.921875 25.714844 19.023438 26.261719 C 19.046875 26.394531 19.070312 26.527344 19.09375 26.664062 C 19.101562 26.695312 19.105469 26.730469 19.109375 26.761719 C 19.113281 26.777344 19.117188 26.796875 19.121094 26.8125 C 19.121094 26.820312 19.121094 26.824219 19.121094 26.832031 C 19.125 26.84375 19.121094 26.816406 19.125 26.835938 C 19.128906 26.878906 19.128906 26.925781 19.128906 26.972656 C 19.125 26.980469 19.125 26.992188 19.125 27.003906 C 19.125 27.003906 19.121094 27.019531 19.125 27.007812 C 19.125 26.996094 19.121094 27.015625 19.121094 27.019531 C 19.117188 27.039062 19.113281 27.0625 19.105469 27.085938 C 19.101562 27.09375 19.101562 27.101562 19.097656 27.109375 C 19.105469 27.089844 19.09375 27.113281 19.089844 27.117188 C 19.085938 27.125 19.082031 27.132812 19.074219 27.140625 C 19.089844 27.121094 19.070312 27.144531 19.066406 27.152344 C 19.058594 27.164062 19.078125 27.144531 19.058594 27.15625 C 19.050781 27.160156 19.035156 27.167969 19.054688 27.160156 C 19.042969 27.164062 19.035156 27.167969 19.027344 27.167969 C 19.015625 27.171875 19.03125 27.167969 19.03125 27.167969 C 19.023438 27.167969 19.015625 27.167969 19.003906 27.167969 C 19 27.167969 18.992188 27.164062 18.980469 27.160156 C 18.980469 27.160156 18.960938 27.152344 18.953125 27.148438 C 18.929688 27.132812 18.914062 27.117188 18.890625 27.097656 C 18.546875 26.777344 18.382812 26.308594 18.246094 25.867188 C 18.089844 25.363281 17.941406 24.855469 17.78125 24.355469 C 17.617188 23.847656 17.449219 23.34375 17.265625 22.84375 C 17.082031 22.34375 16.882812 21.847656 16.664062 21.359375 C 16.445312 20.875 16.203125 20.398438 15.9375 19.9375 C 15.875 19.824219 15.808594 19.714844 15.738281 19.605469 C 15.671875 19.492188 15.496094 19.59375 15.5625 19.707031 Z M 15.5625 19.707031 " fill-opacity="1" fill-rule="nonzero"/><path fill="#000000" d="M 12.371094 25.207031 C 12.707031 25.3125 13.054688 25.390625 13.402344 25.445312 C 13.761719 25.5 14.125 25.53125 14.488281 25.546875 C 14.847656 25.558594 15.207031 25.550781 15.5625 25.53125 C 15.925781 25.511719 16.285156 25.476562 16.644531 25.433594 C 17.007812 25.386719 17.367188 25.332031 17.726562 25.273438 C 17.769531 25.265625 17.8125 25.257812 17.855469 25.25 C 17.90625 25.242188 17.941406 25.175781 17.925781 25.125 C 17.90625 25.070312 17.855469 25.046875 17.800781 25.058594 C 17.628906 25.085938 17.453125 25.117188 17.28125 25.144531 C 17.191406 25.15625 17.105469 25.171875 17.015625 25.183594 C 16.972656 25.1875 16.929688 25.195312 16.882812 25.203125 C 16.863281 25.203125 16.839844 25.207031 16.820312 25.210938 C 16.8125 25.210938 16.808594 25.210938 16.800781 25.210938 C 16.800781 25.210938 16.816406 25.210938 16.804688 25.210938 C 16.792969 25.214844 16.78125 25.214844 16.769531 25.21875 C 16.414062 25.261719 16.054688 25.300781 15.699219 25.324219 C 15.339844 25.347656 14.980469 25.355469 14.621094 25.347656 C 14.441406 25.34375 14.265625 25.335938 14.089844 25.324219 C 14 25.316406 13.910156 25.308594 13.824219 25.296875 C 13.78125 25.292969 13.738281 25.289062 13.691406 25.285156 C 13.671875 25.28125 13.652344 25.277344 13.628906 25.277344 C 13.625 25.273438 13.621094 25.273438 13.613281 25.273438 C 13.617188 25.273438 13.628906 25.277344 13.617188 25.273438 C 13.605469 25.273438 13.589844 25.269531 13.578125 25.269531 C 13.230469 25.21875 12.886719 25.148438 12.550781 25.050781 C 12.507812 25.039062 12.46875 25.027344 12.425781 25.011719 C 12.375 24.996094 12.3125 25.03125 12.300781 25.082031 C 12.289062 25.136719 12.316406 25.191406 12.371094 25.207031 Z M 12.371094 25.207031 " fill-opacity="1" fill-rule="nonzero"/><path fill="#000000" d="M 12.109375 22.375 C 12.207031 22.574219 12.355469 22.746094 12.539062 22.878906 C 12.585938 22.910156 12.636719 22.941406 12.691406 22.96875 C 12.738281 22.996094 12.804688 22.984375 12.832031 22.933594 C 12.855469 22.890625 12.84375 22.824219 12.792969 22.796875 C 12.75 22.773438 12.703125 22.746094 12.660156 22.71875 C 12.652344 22.710938 12.640625 22.707031 12.632812 22.699219 C 12.628906 22.695312 12.621094 22.691406 12.617188 22.6875 C 12.601562 22.675781 12.632812 22.699219 12.617188 22.6875 C 12.597656 22.671875 12.578125 22.65625 12.558594 22.636719 C 12.519531 22.605469 12.484375 22.566406 12.449219 22.527344 C 12.441406 22.519531 12.433594 22.511719 12.425781 22.5 C 12.421875 22.496094 12.417969 22.492188 12.414062 22.484375 C 12.40625 22.476562 12.421875 22.496094 12.421875 22.496094 C 12.417969 22.492188 12.417969 22.488281 12.414062 22.484375 C 12.398438 22.464844 12.382812 22.445312 12.371094 22.425781 C 12.339844 22.375 12.308594 22.324219 12.285156 22.273438 C 12.277344 22.25 12.246094 22.234375 12.226562 22.226562 C 12.199219 22.21875 12.167969 22.222656 12.148438 22.238281 C 12.097656 22.269531 12.085938 22.324219 12.109375 22.375 Z M 12.109375 22.375 " fill-opacity="1" fill-rule="nonzero"/><path fill="#000000" d="M 12.3125 22.992188 C 12.523438 22.773438 12.730469 22.550781 12.9375 22.328125 C 12.972656 22.292969 12.980469 22.226562 12.9375 22.1875 C 12.898438 22.152344 12.832031 22.148438 12.792969 22.1875 C 12.585938 22.410156 12.378906 22.628906 12.171875 22.851562 C 12.136719 22.890625 12.128906 22.957031 12.171875 22.992188 C 12.210938 23.03125 12.277344 23.035156 12.3125 22.992188 Z M 12.3125 22.992188 " fill-opacity="1" fill-rule="nonzero"/><g clip-path="url(#8fb33fce25)"><path fill="#000000" d="M 10.210938 10.339844 C 10.332031 9.890625 10.476562 9.453125 10.636719 9.019531 C 10.796875 8.585938 10.972656 8.15625 11.152344 7.730469 C 11.324219 7.320312 11.523438 6.914062 11.738281 6.519531 C 11.84375 6.320312 11.957031 6.125 12.066406 5.929688 C 12.167969 5.75 12.265625 5.566406 12.371094 5.386719 C 12.472656 5.210938 12.578125 5.035156 12.691406 4.867188 C 12.808594 4.691406 12.921875 4.546875 13.066406 4.390625 C 13.136719 4.316406 13.210938 4.242188 13.285156 4.171875 C 13.320312 4.144531 13.351562 4.113281 13.382812 4.082031 C 13.398438 4.070312 13.410156 4.0625 13.421875 4.050781 C 13.441406 4.035156 13.414062 4.054688 13.429688 4.042969 C 13.4375 4.039062 13.449219 4.03125 13.457031 4.027344 C 13.472656 4.015625 13.488281 4.007812 13.503906 4 C 13.511719 3.992188 13.523438 3.988281 13.53125 3.984375 C 13.535156 3.984375 13.550781 3.976562 13.535156 3.984375 C 13.542969 3.980469 13.550781 3.976562 13.554688 3.976562 C 13.574219 3.96875 13.589844 3.964844 13.609375 3.960938 C 13.617188 3.957031 13.625 3.957031 13.632812 3.953125 C 13.613281 3.957031 13.644531 3.953125 13.652344 3.953125 C 13.671875 3.953125 13.691406 3.953125 13.714844 3.953125 C 13.722656 3.953125 13.730469 3.953125 13.742188 3.953125 C 13.71875 3.953125 13.75 3.957031 13.753906 3.957031 C 13.757812 3.960938 13.78125 3.96875 13.769531 3.960938 C 13.757812 3.957031 13.777344 3.96875 13.78125 3.96875 C 13.785156 3.972656 13.796875 3.976562 13.796875 3.980469 C 13.796875 3.980469 13.777344 3.964844 13.789062 3.976562 C 13.792969 3.976562 13.796875 3.980469 13.800781 3.984375 C 13.808594 3.992188 13.816406 4.003906 13.828125 4.011719 C 13.839844 4.023438 13.816406 3.996094 13.828125 4.011719 C 13.832031 4.015625 13.835938 4.023438 13.839844 4.03125 C 13.847656 4.042969 13.855469 4.054688 13.859375 4.066406 C 13.863281 4.070312 13.863281 4.074219 13.863281 4.074219 C 13.871094 4.085938 13.859375 4.054688 13.863281 4.070312 C 13.863281 4.074219 13.867188 4.082031 13.867188 4.089844 C 13.878906 4.117188 13.886719 4.148438 13.890625 4.179688 C 13.890625 4.179688 13.894531 4.191406 13.894531 4.191406 C 13.894531 4.191406 13.890625 4.171875 13.890625 4.183594 C 13.894531 4.191406 13.894531 4.199219 13.894531 4.207031 C 13.898438 4.226562 13.898438 4.242188 13.898438 4.261719 C 13.902344 4.335938 13.894531 4.410156 13.886719 4.484375 C 13.886719 4.492188 13.882812 4.519531 13.886719 4.496094 C 13.882812 4.503906 13.882812 4.511719 13.882812 4.523438 C 13.878906 4.542969 13.875 4.566406 13.871094 4.585938 C 13.863281 4.628906 13.855469 4.667969 13.847656 4.707031 C 13.8125 4.871094 13.765625 5.035156 13.71875 5.195312 C 13.664062 5.386719 13.609375 5.582031 13.546875 5.773438 C 13.402344 6.222656 13.246094 6.667969 13.085938 7.109375 C 12.921875 7.550781 12.753906 7.988281 12.585938 8.429688 C 12.542969 8.535156 12.503906 8.640625 12.464844 8.746094 C 12.445312 8.796875 12.484375 8.859375 12.535156 8.871094 C 12.59375 8.882812 12.640625 8.851562 12.660156 8.800781 C 12.832031 8.351562 13.003906 7.90625 13.171875 7.457031 C 13.339844 7.007812 13.503906 6.554688 13.652344 6.097656 C 13.78125 5.714844 13.898438 5.332031 14 4.941406 C 14.042969 4.773438 14.082031 4.601562 14.097656 4.425781 C 14.109375 4.277344 14.105469 4.121094 14.042969 3.984375 C 14.019531 3.925781 13.980469 3.871094 13.929688 3.832031 C 13.859375 3.773438 13.773438 3.75 13.679688 3.75 C 13.578125 3.753906 13.484375 3.78125 13.398438 3.828125 C 13.324219 3.867188 13.261719 3.921875 13.199219 3.980469 C 13.042969 4.125 12.898438 4.269531 12.765625 4.433594 C 12.628906 4.597656 12.507812 4.773438 12.394531 4.953125 C 12.167969 5.3125 11.96875 5.691406 11.757812 6.0625 C 11.53125 6.464844 11.3125 6.875 11.121094 7.296875 C 10.925781 7.730469 10.746094 8.171875 10.574219 8.617188 C 10.402344 9.054688 10.242188 9.5 10.109375 9.953125 C 10.078125 10.0625 10.046875 10.171875 10.015625 10.285156 C 10.003906 10.335938 10.035156 10.394531 10.085938 10.40625 C 10.140625 10.421875 10.199219 10.390625 10.210938 10.339844 Z M 10.210938 10.339844 " fill-opacity="1" fill-rule="nonzero"/></g><path fill="#000000" d="M 23.617188 18.949219 C 23.78125 20.480469 23.933594 22.019531 23.964844 23.5625 C 23.972656 23.949219 23.976562 24.339844 23.941406 24.726562 C 23.9375 24.792969 23.929688 24.859375 23.921875 24.925781 C 23.917969 24.964844 23.917969 24.945312 23.914062 24.988281 C 23.910156 25.019531 23.902344 25.050781 23.898438 25.082031 C 23.851562 25.347656 23.8125 25.625 23.851562 25.894531 C 23.871094 26.039062 23.921875 26.183594 24.019531 26.296875 C 24.140625 26.425781 24.34375 26.492188 24.519531 26.449219 C 24.78125 26.386719 24.914062 26.101562 24.996094 25.875 C 25.117188 25.53125 25.167969 25.167969 25.207031 24.8125 C 25.257812 24.375 25.28125 23.9375 25.300781 23.5 C 25.371094 21.855469 25.300781 20.199219 25.117188 18.5625 C 25.097656 18.402344 25.078125 18.238281 25.058594 18.078125 C 25.054688 18.042969 25.046875 18.007812 25.042969 17.972656 C 25.050781 18.011719 25.039062 17.945312 25.039062 17.929688 C 25.035156 17.894531 25.03125 17.863281 25.027344 17.828125 C 24.976562 17.4375 24.914062 17.050781 24.839844 16.667969 C 24.613281 15.496094 24.25 14.34375 23.722656 13.269531 C 23.058594 11.914062 22.117188 10.6875 20.910156 9.761719 C 19.96875 9.039062 18.925781 8.429688 17.78125 8.089844 C 16.160156 7.609375 14.402344 7.738281 12.894531 8.507812 C 11.816406 9.054688 10.898438 9.890625 10.183594 10.847656 C 10.097656 10.960938 10.015625 11.078125 9.9375 11.195312 C 9.863281 11.300781 10.039062 11.402344 10.113281 11.292969 C 10.644531 10.507812 11.308594 9.796875 12.085938 9.238281 C 12.6875 8.804688 13.359375 8.460938 14.078125 8.25 C 14.902344 8.007812 15.78125 7.941406 16.636719 8.050781 C 17.941406 8.214844 19.15625 8.78125 20.230469 9.515625 C 20.75 9.875 21.246094 10.269531 21.691406 10.71875 C 22.210938 11.242188 22.660156 11.828125 23.046875 12.453125 C 23.707031 13.53125 24.167969 14.71875 24.472656 15.9375 C 24.648438 16.644531 24.757812 17.367188 24.855469 18.074219 C 24.851562 18.039062 24.859375 18.105469 24.859375 18.117188 C 24.863281 18.152344 24.871094 18.183594 24.875 18.214844 C 24.882812 18.304688 24.894531 18.398438 24.90625 18.488281 C 24.9375 18.753906 24.964844 19.019531 24.988281 19.289062 C 25.058594 20.09375 25.101562 20.898438 25.117188 21.707031 C 25.132812 22.652344 25.117188 23.601562 25.03125 24.546875 C 25 24.90625 24.957031 25.265625 24.863281 25.617188 C 24.808594 25.816406 24.722656 26.160156 24.5 26.246094 C 24.351562 26.304688 24.1875 26.214844 24.117188 26.082031 C 24.050781 25.957031 24.039062 25.808594 24.039062 25.667969 C 24.035156 25.457031 24.078125 25.253906 24.109375 25.050781 C 24.15625 24.746094 24.167969 24.433594 24.171875 24.128906 C 24.191406 22.875 24.078125 21.613281 23.960938 20.367188 C 23.917969 19.894531 23.871094 19.421875 23.820312 18.949219 C 23.808594 18.824219 23.605469 18.820312 23.617188 18.949219 Z M 23.617188 18.949219 " fill-opacity="1" fill-rule="nonzero"/><path fill="#000000" d="M 18.9375 24.984375 C 19.265625 24.894531 19.589844 24.804688 19.914062 24.714844 C 20.242188 24.625 20.570312 24.535156 20.898438 24.441406 C 21.230469 24.351562 21.5625 24.261719 21.890625 24.167969 C 22.21875 24.078125 22.550781 23.984375 22.878906 23.894531 C 23.203125 23.804688 23.53125 23.714844 23.855469 23.625 C 23.894531 23.613281 23.933594 23.601562 23.976562 23.589844 C 24.027344 23.578125 24.0625 23.519531 24.046875 23.46875 C 24.027344 23.417969 23.976562 23.382812 23.921875 23.398438 C 23.597656 23.488281 23.273438 23.578125 22.945312 23.667969 C 22.617188 23.757812 22.289062 23.851562 21.960938 23.941406 C 21.628906 24.03125 21.300781 24.125 20.96875 24.214844 C 20.640625 24.308594 20.308594 24.398438 19.980469 24.488281 C 19.65625 24.578125 19.332031 24.667969 19.003906 24.761719 C 18.964844 24.769531 18.925781 24.78125 18.886719 24.792969 C 18.832031 24.808594 18.796875 24.863281 18.8125 24.917969 C 18.832031 24.96875 18.882812 25 18.9375 24.984375 Z M 18.9375 24.984375 " fill-opacity="1" fill-rule="nonzero"/><g clip-path="url(#042b5280f9)"><path fill="#000000" d="M 25.25 23.289062 C 25.328125 23.261719 25.40625 23.238281 25.484375 23.210938 C 25.601562 23.171875 25.71875 23.136719 25.835938 23.09375 C 25.980469 23.046875 26.128906 22.996094 26.273438 22.945312 C 26.4375 22.886719 26.601562 22.828125 26.761719 22.769531 C 26.933594 22.703125 27.109375 22.636719 27.277344 22.570312 C 27.457031 22.5 27.632812 22.425781 27.808594 22.351562 C 27.964844 22.28125 28.125 22.210938 28.277344 22.132812 C 28.414062 22.066406 28.550781 21.996094 28.679688 21.917969 C 28.792969 21.847656 28.902344 21.773438 29.003906 21.691406 C 29.074219 21.628906 29.148438 21.558594 29.191406 21.472656 C 29.246094 21.367188 29.265625 21.238281 29.226562 21.125 C 29.214844 21.085938 29.195312 21.042969 29.171875 21.011719 C 29.164062 20.996094 29.152344 20.984375 29.140625 20.972656 C 29.132812 20.960938 29.15625 20.992188 29.152344 20.984375 C 29.140625 20.964844 29.125 20.949219 29.113281 20.933594 C 29.039062 20.84375 28.929688 20.789062 28.820312 20.757812 C 28.753906 20.738281 28.683594 20.726562 28.613281 20.71875 C 28.503906 20.710938 28.386719 20.726562 28.277344 20.746094 C 28.136719 20.769531 27.996094 20.800781 27.859375 20.839844 C 27.695312 20.882812 27.535156 20.929688 27.375 20.980469 C 27.203125 21.039062 27.035156 21.09375 26.867188 21.15625 C 26.699219 21.214844 26.535156 21.277344 26.367188 21.339844 C 26.21875 21.398438 26.070312 21.457031 25.921875 21.515625 C 25.804688 21.5625 25.6875 21.609375 25.566406 21.660156 C 25.484375 21.691406 25.402344 21.726562 25.320312 21.761719 C 25.304688 21.769531 25.289062 21.777344 25.273438 21.78125 C 25.25 21.792969 25.230469 21.820312 25.226562 21.84375 C 25.21875 21.867188 25.222656 21.898438 25.234375 21.921875 C 25.25 21.941406 25.269531 21.960938 25.296875 21.964844 C 25.324219 21.972656 25.347656 21.96875 25.375 21.957031 C 25.421875 21.933594 25.472656 21.914062 25.519531 21.894531 C 25.527344 21.890625 25.539062 21.886719 25.550781 21.882812 C 25.550781 21.882812 25.554688 21.878906 25.554688 21.878906 C 25.570312 21.875 25.542969 21.886719 25.539062 21.886719 C 25.546875 21.882812 25.550781 21.878906 25.558594 21.878906 C 25.582031 21.867188 25.605469 21.859375 25.628906 21.847656 C 25.679688 21.828125 25.734375 21.804688 25.789062 21.785156 C 25.921875 21.730469 26.054688 21.675781 26.191406 21.621094 C 26.347656 21.5625 26.503906 21.5 26.664062 21.441406 C 26.828125 21.382812 26.996094 21.320312 27.164062 21.261719 C 27.332031 21.207031 27.496094 21.152344 27.664062 21.101562 C 27.8125 21.058594 27.964844 21.015625 28.117188 20.980469 C 28.183594 20.964844 28.25 20.953125 28.316406 20.941406 C 28.332031 20.9375 28.34375 20.9375 28.359375 20.933594 C 28.367188 20.933594 28.375 20.933594 28.382812 20.929688 C 28.386719 20.929688 28.390625 20.929688 28.390625 20.929688 C 28.410156 20.925781 28.359375 20.933594 28.382812 20.929688 C 28.40625 20.929688 28.433594 20.925781 28.460938 20.921875 C 28.507812 20.917969 28.558594 20.917969 28.605469 20.921875 C 28.613281 20.921875 28.625 20.921875 28.632812 20.921875 C 28.65625 20.925781 28.601562 20.917969 28.625 20.921875 C 28.628906 20.921875 28.636719 20.921875 28.640625 20.925781 C 28.679688 20.929688 28.714844 20.9375 28.75 20.949219 C 28.773438 20.953125 28.796875 20.960938 28.820312 20.96875 C 28.824219 20.972656 28.828125 20.972656 28.832031 20.976562 C 28.84375 20.980469 28.820312 20.96875 28.820312 20.96875 C 28.824219 20.96875 28.828125 20.972656 28.828125 20.972656 C 28.839844 20.980469 28.851562 20.984375 28.863281 20.992188 C 28.875 20.996094 28.886719 21.003906 28.898438 21.007812 C 28.902344 21.011719 28.90625 21.015625 28.910156 21.019531 C 28.914062 21.019531 28.917969 21.023438 28.921875 21.023438 C 28.929688 21.03125 28.914062 21.019531 28.910156 21.019531 C 28.933594 21.03125 28.953125 21.054688 28.96875 21.074219 C 28.984375 21.089844 28.957031 21.058594 28.96875 21.074219 C 28.972656 21.078125 28.976562 21.082031 28.980469 21.089844 C 28.984375 21.097656 28.992188 21.105469 29 21.113281 C 29.007812 21.125 28.980469 21.089844 28.988281 21.101562 C 28.992188 21.105469 28.996094 21.109375 29 21.113281 C 29.007812 21.128906 29.015625 21.140625 29.019531 21.15625 C 29.023438 21.15625 29.023438 21.160156 29.027344 21.164062 C 29.035156 21.183594 29.019531 21.144531 29.023438 21.15625 C 29.027344 21.167969 29.03125 21.179688 29.035156 21.191406 C 29.039062 21.199219 29.039062 21.210938 29.042969 21.222656 C 29.042969 21.226562 29.042969 21.226562 29.042969 21.230469 C 29.046875 21.246094 29.042969 21.21875 29.042969 21.21875 C 29.042969 21.222656 29.042969 21.234375 29.042969 21.242188 C 29.042969 21.253906 29.042969 21.265625 29.042969 21.277344 C 29.042969 21.285156 29.042969 21.292969 29.042969 21.296875 C 29.042969 21.265625 29.042969 21.292969 29.039062 21.304688 C 29.035156 21.320312 29.03125 21.332031 29.027344 21.347656 C 29.027344 21.351562 29.023438 21.355469 29.023438 21.359375 C 29.019531 21.371094 29.03125 21.339844 29.027344 21.351562 C 29.023438 21.355469 29.023438 21.359375 29.019531 21.363281 C 29.015625 21.371094 29.011719 21.378906 29.007812 21.386719 C 29 21.402344 28.988281 21.417969 28.976562 21.433594 C 28.96875 21.445312 28.996094 21.410156 28.988281 21.421875 C 28.984375 21.421875 28.984375 21.425781 28.980469 21.425781 C 28.980469 21.429688 28.976562 21.433594 28.972656 21.4375 C 28.964844 21.449219 28.957031 21.457031 28.949219 21.464844 C 28.914062 21.5 28.878906 21.53125 28.839844 21.566406 C 28.828125 21.574219 28.820312 21.582031 28.808594 21.589844 C 28.804688 21.59375 28.800781 21.59375 28.800781 21.597656 C 28.832031 21.574219 28.816406 21.582031 28.808594 21.589844 C 28.804688 21.59375 28.796875 21.597656 28.789062 21.601562 C 28.765625 21.621094 28.742188 21.636719 28.71875 21.652344 C 28.601562 21.734375 28.480469 21.800781 28.355469 21.867188 C 28.210938 21.945312 28.066406 22.015625 27.914062 22.085938 C 27.835938 22.121094 27.753906 22.15625 27.671875 22.191406 C 27.632812 22.210938 27.59375 22.226562 27.550781 22.242188 C 27.539062 22.25 27.53125 22.253906 27.519531 22.257812 C 27.515625 22.257812 27.511719 22.261719 27.503906 22.261719 C 27.484375 22.273438 27.527344 22.253906 27.507812 22.261719 C 27.488281 22.269531 27.464844 22.28125 27.445312 22.289062 C 27.277344 22.359375 27.105469 22.425781 26.933594 22.492188 C 26.769531 22.554688 26.601562 22.613281 26.433594 22.675781 C 26.28125 22.730469 26.128906 22.785156 25.972656 22.835938 C 25.84375 22.882812 25.714844 22.925781 25.582031 22.96875 C 25.488281 23 25.390625 23.03125 25.292969 23.0625 C 25.261719 23.074219 25.230469 23.085938 25.199219 23.09375 C 25.148438 23.113281 25.109375 23.164062 25.125 23.21875 C 25.144531 23.269531 25.199219 23.304688 25.25 23.289062 Z M 25.25 23.289062 " fill-opacity="1" fill-rule="nonzero"/></g><path fill="#000000" d="M 11.441406 18.484375 C 11.425781 18.679688 11.441406 18.875 11.472656 19.066406 C 11.503906 19.261719 11.558594 19.453125 11.636719 19.632812 C 11.675781 19.71875 11.71875 19.804688 11.785156 19.875 C 11.859375 19.953125 11.972656 20 12.082031 19.96875 C 12.179688 19.941406 12.25 19.867188 12.296875 19.78125 C 12.34375 19.695312 12.371094 19.601562 12.390625 19.503906 C 12.441406 19.25 12.457031 18.984375 12.433594 18.726562 C 12.429688 18.699219 12.425781 18.675781 12.402344 18.65625 C 12.386719 18.636719 12.359375 18.625 12.332031 18.625 C 12.28125 18.628906 12.226562 18.671875 12.230469 18.726562 C 12.242188 18.832031 12.246094 18.941406 12.242188 19.050781 C 12.238281 19.105469 12.234375 19.160156 12.230469 19.210938 C 12.226562 19.238281 12.226562 19.265625 12.222656 19.289062 C 12.21875 19.3125 12.226562 19.265625 12.222656 19.289062 C 12.222656 19.296875 12.21875 19.300781 12.21875 19.304688 C 12.21875 19.320312 12.214844 19.335938 12.210938 19.355469 C 12.195312 19.449219 12.179688 19.546875 12.144531 19.636719 C 12.144531 19.640625 12.140625 19.640625 12.140625 19.644531 C 12.132812 19.664062 12.152344 19.621094 12.140625 19.640625 C 12.136719 19.648438 12.132812 19.65625 12.128906 19.664062 C 12.121094 19.683594 12.113281 19.699219 12.101562 19.714844 C 12.097656 19.71875 12.09375 19.722656 12.09375 19.726562 C 12.082031 19.742188 12.109375 19.710938 12.097656 19.722656 C 12.089844 19.730469 12.085938 19.734375 12.078125 19.742188 C 12.074219 19.75 12.066406 19.753906 12.058594 19.761719 C 12.050781 19.765625 12.039062 19.769531 12.066406 19.757812 C 12.0625 19.757812 12.058594 19.761719 12.054688 19.765625 C 12.046875 19.769531 12.039062 19.773438 12.03125 19.777344 C 12.058594 19.761719 12.039062 19.773438 12.027344 19.777344 C 12.023438 19.777344 12.019531 19.777344 12.015625 19.777344 C 11.996094 19.78125 12.042969 19.777344 12.023438 19.777344 C 12.015625 19.777344 12.003906 19.777344 11.996094 19.777344 C 11.976562 19.777344 12.019531 19.785156 12 19.777344 C 11.996094 19.777344 11.992188 19.777344 11.988281 19.773438 C 11.984375 19.773438 11.980469 19.773438 11.976562 19.773438 C 11.957031 19.765625 12 19.78125 11.980469 19.773438 C 11.972656 19.769531 11.964844 19.765625 11.957031 19.757812 C 11.953125 19.757812 11.949219 19.753906 11.945312 19.753906 C 11.972656 19.769531 11.953125 19.757812 11.945312 19.75 C 11.933594 19.738281 11.921875 19.722656 11.90625 19.707031 C 11.929688 19.730469 11.90625 19.707031 11.902344 19.699219 C 11.894531 19.691406 11.886719 19.679688 11.882812 19.667969 C 11.859375 19.632812 11.839844 19.59375 11.824219 19.558594 C 11.820312 19.550781 11.816406 19.539062 11.8125 19.53125 C 11.808594 19.527344 11.808594 19.523438 11.804688 19.515625 C 11.820312 19.542969 11.808594 19.527344 11.808594 19.519531 C 11.796875 19.5 11.789062 19.480469 11.78125 19.457031 C 11.765625 19.417969 11.753906 19.375 11.742188 19.332031 C 11.714844 19.246094 11.691406 19.152344 11.675781 19.0625 C 11.671875 19.035156 11.667969 19.011719 11.664062 18.984375 C 11.660156 18.972656 11.660156 18.960938 11.65625 18.949219 C 11.660156 18.980469 11.65625 18.957031 11.65625 18.953125 C 11.65625 18.941406 11.65625 18.933594 11.65625 18.925781 C 11.648438 18.878906 11.644531 18.828125 11.640625 18.777344 C 11.636719 18.679688 11.636719 18.582031 11.644531 18.484375 C 11.648438 18.433594 11.59375 18.382812 11.542969 18.382812 C 11.484375 18.386719 11.445312 18.429688 11.441406 18.484375 Z M 11.441406 18.484375 " fill-opacity="1" fill-rule="nonzero"/><path fill="#000000" d="M 11.476562 17.425781 C 11.488281 17.480469 11.496094 17.53125 11.507812 17.585938 C 11.515625 17.625 11.523438 17.664062 11.53125 17.699219 C 11.558594 17.785156 11.601562 17.867188 11.675781 17.917969 C 11.714844 17.945312 11.765625 17.957031 11.8125 17.957031 C 11.871094 17.953125 11.917969 17.929688 11.964844 17.894531 C 12.03125 17.84375 12.074219 17.757812 12.097656 17.679688 C 12.109375 17.628906 12.117188 17.574219 12.125 17.523438 C 12.132812 17.46875 12.136719 17.414062 12.136719 17.359375 C 12.132812 17.304688 12.089844 17.257812 12.035156 17.257812 C 11.980469 17.261719 11.929688 17.300781 11.933594 17.359375 C 11.933594 17.402344 11.929688 17.445312 11.925781 17.492188 C 11.925781 17.5 11.925781 17.511719 11.921875 17.519531 C 11.925781 17.488281 11.921875 17.523438 11.921875 17.53125 C 11.917969 17.550781 11.914062 17.570312 11.910156 17.589844 C 11.90625 17.601562 11.902344 17.617188 11.898438 17.632812 C 11.894531 17.640625 11.894531 17.648438 11.890625 17.65625 C 11.890625 17.660156 11.886719 17.664062 11.886719 17.667969 C 11.878906 17.683594 11.898438 17.644531 11.886719 17.660156 C 11.882812 17.675781 11.875 17.691406 11.867188 17.703125 C 11.863281 17.710938 11.855469 17.71875 11.851562 17.722656 C 11.84375 17.738281 11.859375 17.714844 11.859375 17.714844 C 11.855469 17.71875 11.851562 17.722656 11.847656 17.726562 C 11.84375 17.734375 11.835938 17.738281 11.832031 17.742188 C 11.828125 17.746094 11.824219 17.746094 11.824219 17.75 C 11.84375 17.730469 11.839844 17.738281 11.832031 17.746094 C 11.824219 17.746094 11.820312 17.75 11.8125 17.753906 C 11.796875 17.761719 11.835938 17.746094 11.824219 17.75 C 11.816406 17.75 11.8125 17.753906 11.808594 17.753906 C 11.804688 17.753906 11.800781 17.757812 11.796875 17.757812 C 11.824219 17.75 11.820312 17.753906 11.8125 17.753906 C 11.808594 17.753906 11.804688 17.753906 11.800781 17.753906 C 11.789062 17.753906 11.78125 17.75 11.808594 17.757812 C 11.800781 17.753906 11.796875 17.753906 11.789062 17.753906 C 11.78125 17.75 11.773438 17.742188 11.796875 17.757812 C 11.792969 17.753906 11.789062 17.753906 11.785156 17.75 C 11.785156 17.75 11.78125 17.746094 11.777344 17.746094 C 11.765625 17.738281 11.796875 17.761719 11.789062 17.753906 C 11.78125 17.75 11.777344 17.742188 11.773438 17.738281 C 11.769531 17.738281 11.765625 17.734375 11.765625 17.730469 C 11.757812 17.722656 11.757812 17.714844 11.769531 17.738281 C 11.765625 17.730469 11.761719 17.726562 11.757812 17.71875 C 11.753906 17.710938 11.75 17.707031 11.746094 17.699219 C 11.746094 17.695312 11.742188 17.691406 11.742188 17.6875 C 11.734375 17.675781 11.746094 17.699219 11.746094 17.699219 C 11.738281 17.6875 11.734375 17.667969 11.730469 17.652344 C 11.71875 17.613281 11.710938 17.574219 11.703125 17.53125 C 11.695312 17.480469 11.683594 17.425781 11.675781 17.371094 C 11.664062 17.320312 11.597656 17.289062 11.550781 17.304688 C 11.492188 17.320312 11.46875 17.371094 11.476562 17.425781 Z M 11.476562 17.425781 " fill-opacity="1" fill-rule="nonzero"/><path fill="#000000" d="M 11.707031 17.929688 C 11.707031 18.03125 11.707031 18.132812 11.707031 18.234375 C 11.707031 18.285156 11.753906 18.335938 11.808594 18.332031 C 11.863281 18.332031 11.910156 18.289062 11.910156 18.234375 C 11.910156 18.132812 11.910156 18.03125 11.910156 17.929688 C 11.910156 17.875 11.863281 17.824219 11.808594 17.828125 C 11.753906 17.832031 11.707031 17.871094 11.707031 17.929688 Z M 11.707031 17.929688 " fill-opacity="1" fill-rule="nonzero"/><path fill="#000000" d="M 13.160156 16.269531 C 13.308594 16.367188 13.503906 16.417969 13.683594 16.398438 C 13.867188 16.382812 14.03125 16.308594 14.167969 16.1875 C 14.238281 16.125 14.296875 16.046875 14.339844 15.964844 C 14.363281 15.917969 14.355469 15.855469 14.304688 15.828125 C 14.257812 15.804688 14.191406 15.8125 14.164062 15.863281 C 14.148438 15.894531 14.128906 15.929688 14.105469 15.957031 C 14.105469 15.960938 14.101562 15.964844 14.101562 15.96875 C 14.113281 15.945312 14.109375 15.957031 14.101562 15.960938 C 14.097656 15.96875 14.09375 15.976562 14.085938 15.980469 C 14.074219 15.996094 14.0625 16.007812 14.050781 16.023438 C 14.035156 16.035156 14.023438 16.046875 14.007812 16.058594 C 14 16.066406 13.996094 16.070312 13.988281 16.074219 C 13.980469 16.082031 13.96875 16.085938 13.992188 16.074219 C 13.988281 16.074219 13.984375 16.078125 13.980469 16.082031 C 13.949219 16.101562 13.917969 16.121094 13.886719 16.140625 C 13.878906 16.144531 13.871094 16.148438 13.863281 16.148438 C 13.855469 16.152344 13.824219 16.164062 13.855469 16.152344 C 13.839844 16.160156 13.820312 16.167969 13.804688 16.171875 C 13.765625 16.183594 13.730469 16.191406 13.691406 16.199219 C 13.675781 16.199219 13.71875 16.195312 13.695312 16.199219 C 13.691406 16.199219 13.6875 16.199219 13.683594 16.199219 C 13.671875 16.199219 13.664062 16.199219 13.652344 16.199219 C 13.632812 16.203125 13.613281 16.203125 13.589844 16.203125 C 13.570312 16.199219 13.550781 16.199219 13.535156 16.199219 C 13.527344 16.195312 13.511719 16.195312 13.539062 16.199219 C 13.535156 16.199219 13.53125 16.199219 13.527344 16.195312 C 13.515625 16.195312 13.503906 16.191406 13.492188 16.191406 C 13.445312 16.179688 13.40625 16.167969 13.363281 16.152344 C 13.351562 16.148438 13.386719 16.164062 13.367188 16.152344 C 13.363281 16.152344 13.355469 16.148438 13.351562 16.144531 C 13.339844 16.140625 13.332031 16.136719 13.320312 16.132812 C 13.300781 16.121094 13.28125 16.109375 13.261719 16.09375 C 13.21875 16.066406 13.148438 16.085938 13.121094 16.132812 C 13.09375 16.179688 13.113281 16.238281 13.160156 16.269531 Z M 13.160156 16.269531 " fill-opacity="1" fill-rule="nonzero"/><path fill="#000000" d="M 9.371094 16.113281 C 9.484375 16.253906 9.652344 16.351562 9.828125 16.390625 C 10.015625 16.429688 10.210938 16.402344 10.382812 16.316406 C 10.472656 16.269531 10.558594 16.203125 10.625 16.125 C 10.640625 16.105469 10.652344 16.082031 10.652344 16.054688 C 10.652344 16.03125 10.640625 16 10.625 15.984375 C 10.585938 15.949219 10.515625 15.941406 10.480469 15.984375 C 10.453125 16.015625 10.425781 16.042969 10.394531 16.070312 C 10.386719 16.074219 10.367188 16.089844 10.378906 16.082031 C 10.394531 16.070312 10.371094 16.085938 10.367188 16.089844 C 10.347656 16.101562 10.332031 16.113281 10.3125 16.125 C 10.292969 16.136719 10.277344 16.144531 10.257812 16.152344 C 10.25 16.15625 10.242188 16.160156 10.230469 16.164062 C 10.234375 16.164062 10.253906 16.15625 10.238281 16.160156 C 10.234375 16.164062 10.230469 16.164062 10.222656 16.167969 C 10.183594 16.183594 10.144531 16.191406 10.101562 16.199219 C 10.09375 16.203125 10.085938 16.203125 10.078125 16.203125 C 10.0625 16.207031 10.105469 16.203125 10.082031 16.203125 C 10.078125 16.203125 10.074219 16.203125 10.070312 16.207031 C 10.050781 16.207031 10.027344 16.207031 10.007812 16.207031 C 9.988281 16.207031 9.96875 16.207031 9.949219 16.207031 C 9.9375 16.207031 9.929688 16.207031 9.917969 16.203125 C 9.917969 16.203125 9.945312 16.207031 9.929688 16.203125 C 9.921875 16.203125 9.917969 16.203125 9.910156 16.203125 C 9.871094 16.195312 9.832031 16.183594 9.792969 16.171875 C 9.785156 16.167969 9.773438 16.164062 9.765625 16.160156 C 9.761719 16.160156 9.746094 16.152344 9.773438 16.164062 C 9.769531 16.164062 9.765625 16.160156 9.761719 16.160156 C 9.742188 16.152344 9.722656 16.140625 9.703125 16.132812 C 9.683594 16.121094 9.667969 16.109375 9.648438 16.097656 C 9.640625 16.089844 9.628906 16.082031 9.621094 16.078125 C 9.644531 16.09375 9.628906 16.085938 9.625 16.082031 C 9.617188 16.074219 9.613281 16.070312 9.609375 16.066406 C 9.574219 16.039062 9.542969 16.007812 9.515625 15.972656 C 9.5 15.953125 9.464844 15.941406 9.441406 15.941406 C 9.417969 15.941406 9.386719 15.953125 9.371094 15.972656 C 9.351562 15.992188 9.339844 16.015625 9.339844 16.042969 C 9.34375 16.070312 9.351562 16.089844 9.371094 16.113281 Z M 9.371094 16.113281 " fill-opacity="1" fill-rule="nonzero"/><path fill="#000000" d="M 22.152344 22.566406 C 22.390625 22.582031 22.632812 22.578125 22.871094 22.550781 C 23.121094 22.527344 23.367188 22.480469 23.609375 22.414062 C 23.71875 22.386719 23.824219 22.351562 23.929688 22.3125 C 23.957031 22.304688 23.976562 22.289062 23.992188 22.265625 C 24.003906 22.246094 24.007812 22.210938 24 22.1875 C 23.984375 22.140625 23.929688 22.097656 23.875 22.117188 C 23.679688 22.191406 23.476562 22.246094 23.269531 22.289062 C 23.210938 22.300781 23.148438 22.3125 23.089844 22.324219 C 23.058594 22.328125 23.027344 22.332031 22.996094 22.335938 C 22.992188 22.339844 22.984375 22.339844 22.980469 22.339844 C 22.980469 22.339844 23.003906 22.335938 22.992188 22.339844 C 22.984375 22.339844 22.976562 22.339844 22.96875 22.339844 C 22.953125 22.34375 22.933594 22.34375 22.914062 22.347656 C 22.789062 22.363281 22.660156 22.371094 22.53125 22.371094 C 22.40625 22.375 22.277344 22.371094 22.152344 22.363281 C 22.097656 22.359375 22.046875 22.414062 22.050781 22.464844 C 22.054688 22.523438 22.09375 22.5625 22.152344 22.566406 Z M 22.152344 22.566406 " fill-opacity="1" fill-rule="nonzero"/><path fill="#000000" d="M 23.65625 19.40625 C 23.621094 19.648438 23.566406 19.890625 23.492188 20.125 C 23.457031 20.238281 23.414062 20.347656 23.371094 20.457031 C 23.363281 20.472656 23.359375 20.484375 23.351562 20.496094 C 23.347656 20.511719 23.363281 20.476562 23.351562 20.496094 C 23.351562 20.503906 23.347656 20.511719 23.34375 20.519531 C 23.332031 20.546875 23.320312 20.574219 23.308594 20.601562 C 23.285156 20.652344 23.257812 20.703125 23.234375 20.757812 C 23.128906 20.964844 23.011719 21.164062 22.882812 21.359375 C 22.757812 21.554688 22.621094 21.746094 22.480469 21.9375 C 22.445312 21.984375 22.410156 22.03125 22.371094 22.078125 C 22.355469 22.101562 22.335938 22.125 22.320312 22.148438 C 22.316406 22.15625 22.3125 22.160156 22.308594 22.167969 C 22.308594 22.164062 22.328125 22.140625 22.316406 22.15625 C 22.308594 22.160156 22.304688 22.167969 22.300781 22.175781 C 22.242188 22.238281 22.183594 22.304688 22.117188 22.363281 C 22.113281 22.367188 22.105469 22.375 22.097656 22.378906 C 22.097656 22.382812 22.09375 22.382812 22.089844 22.386719 C 22.078125 22.398438 22.109375 22.371094 22.101562 22.378906 C 22.078125 22.394531 22.0625 22.410156 22.054688 22.4375 C 22.046875 22.460938 22.050781 22.492188 22.0625 22.515625 C 22.089844 22.558594 22.15625 22.585938 22.203125 22.550781 C 22.277344 22.496094 22.339844 22.429688 22.398438 22.363281 C 22.46875 22.289062 22.53125 22.203125 22.59375 22.121094 C 22.734375 21.929688 22.875 21.738281 23.007812 21.539062 C 23.136719 21.34375 23.257812 21.144531 23.367188 20.9375 C 23.480469 20.722656 23.578125 20.5 23.65625 20.269531 C 23.738281 20.035156 23.796875 19.796875 23.835938 19.554688 C 23.84375 19.523438 23.847656 19.492188 23.851562 19.457031 C 23.855469 19.429688 23.855469 19.40625 23.839844 19.382812 C 23.828125 19.359375 23.804688 19.339844 23.78125 19.335938 C 23.753906 19.328125 23.726562 19.332031 23.703125 19.34375 C 23.679688 19.359375 23.660156 19.378906 23.65625 19.40625 Z M 23.65625 19.40625 " fill-opacity="1" fill-rule="nonzero"/><path fill="#000000" d="M 13.109375 4.851562 C 13.160156 4.851562 13.210938 4.808594 13.207031 4.753906 C 13.207031 4.699219 13.164062 4.652344 13.109375 4.652344 C 13.054688 4.652344 13.003906 4.699219 13.007812 4.753906 C 13.007812 4.808594 13.050781 4.851562 13.109375 4.851562 Z M 13.109375 4.851562 " fill-opacity="1" fill-rule="nonzero"/><path fill="#000000" d="M 13.445312 4.824219 C 13.5 4.824219 13.550781 4.777344 13.546875 4.722656 C 13.546875 4.667969 13.503906 4.621094 13.445312 4.621094 C 13.394531 4.621094 13.34375 4.667969 13.34375 4.722656 C 13.347656 4.777344 13.390625 4.824219 13.445312 4.824219 Z M 13.445312 4.824219 " fill-opacity="1" fill-rule="nonzero"/><path fill="#000000" d="M 13.539062 5.128906 C 13.59375 5.128906 13.644531 5.082031 13.640625 5.027344 C 13.636719 4.972656 13.597656 4.925781 13.539062 4.925781 C 13.484375 4.925781 13.433594 4.972656 13.4375 5.027344 C 13.441406 5.082031 13.480469 5.128906 13.539062 5.128906 Z M 13.539062 5.128906 " fill-opacity="1" fill-rule="nonzero"/><path fill="#000000" d="M 28.023438 21.464844 C 28.003906 21.390625 27.933594 21.339844 27.859375 21.328125 C 27.800781 21.320312 27.738281 21.320312 27.675781 21.324219 C 27.605469 21.335938 27.53125 21.355469 27.480469 21.40625 C 27.441406 21.445312 27.417969 21.496094 27.410156 21.546875 C 27.394531 21.558594 27.378906 21.578125 27.375 21.601562 C 27.359375 21.675781 27.382812 21.75 27.4375 21.800781 C 27.492188 21.847656 27.558594 21.875 27.628906 21.871094 C 27.703125 21.863281 27.769531 21.835938 27.828125 21.792969 C 27.886719 21.753906 27.9375 21.714844 27.976562 21.660156 C 28.019531 21.605469 28.042969 21.53125 28.023438 21.464844 Z M 28.023438 21.464844 " fill-opacity="1" fill-rule="nonzero"/><path fill="#000000" d="M 28.222656 21.273438 C 28.273438 21.273438 28.324219 21.230469 28.324219 21.175781 C 28.320312 21.121094 28.277344 21.074219 28.222656 21.074219 C 28.167969 21.074219 28.117188 21.121094 28.121094 21.175781 C 28.121094 21.230469 28.164062 21.273438 28.222656 21.273438 Z M 28.222656 21.273438 " fill-opacity="1" fill-rule="nonzero"/><path fill="#000000" d="M 28.445312 21.449219 C 28.496094 21.449219 28.546875 21.402344 28.546875 21.347656 C 28.542969 21.292969 28.5 21.25 28.445312 21.25 C 28.390625 21.25 28.339844 21.292969 28.34375 21.347656 C 28.34375 21.402344 28.386719 21.449219 28.445312 21.449219 Z M 28.445312 21.449219 " fill-opacity="1" fill-rule="nonzero"/><path fill="#000000" d="M 28.464844 21.699219 C 28.472656 21.699219 28.476562 21.699219 28.484375 21.699219 C 28.5 21.699219 28.511719 21.695312 28.523438 21.6875 C 28.535156 21.683594 28.546875 21.679688 28.558594 21.667969 C 28.566406 21.660156 28.574219 21.648438 28.578125 21.636719 C 28.585938 21.625 28.585938 21.613281 28.585938 21.597656 C 28.585938 21.589844 28.585938 21.578125 28.582031 21.570312 C 28.578125 21.554688 28.570312 21.539062 28.558594 21.527344 C 28.550781 21.523438 28.542969 21.515625 28.535156 21.511719 C 28.519531 21.503906 28.503906 21.496094 28.484375 21.496094 C 28.476562 21.496094 28.472656 21.496094 28.464844 21.496094 C 28.449219 21.496094 28.4375 21.5 28.425781 21.507812 C 28.414062 21.511719 28.402344 21.515625 28.394531 21.527344 C 28.382812 21.535156 28.375 21.546875 28.371094 21.558594 C 28.367188 21.570312 28.363281 21.582031 28.363281 21.597656 C 28.363281 21.605469 28.367188 21.617188 28.367188 21.625 C 28.371094 21.640625 28.378906 21.65625 28.394531 21.667969 C 28.398438 21.675781 28.40625 21.679688 28.414062 21.683594 C 28.429688 21.695312 28.445312 21.699219 28.464844 21.699219 Z M 28.464844 21.699219 " fill-opacity="1" fill-rule="nonzero"/><path fill="#000000" d="M 19.796875 17.394531 C 19.78125 17.453125 19.765625 17.511719 19.746094 17.566406 C 19.734375 17.59375 19.722656 17.621094 19.710938 17.652344 C 19.703125 17.671875 19.722656 17.628906 19.710938 17.652344 C 19.707031 17.660156 19.703125 17.667969 19.699219 17.675781 C 19.695312 17.6875 19.6875 17.703125 19.683594 17.714844 C 19.667969 17.738281 19.664062 17.765625 19.671875 17.792969 C 19.679688 17.816406 19.695312 17.839844 19.71875 17.851562 C 19.761719 17.875 19.832031 17.867188 19.855469 17.816406 C 19.914062 17.699219 19.960938 17.574219 19.996094 17.449219 C 20.007812 17.398438 19.976562 17.335938 19.921875 17.324219 C 19.871094 17.3125 19.8125 17.339844 19.796875 17.394531 Z M 19.796875 17.394531 " fill-opacity="1" fill-rule="nonzero"/><path fill="#000000" d="M 20.335938 16.847656 C 20.320312 16.925781 20.308594 17.007812 20.296875 17.089844 C 20.292969 17.117188 20.292969 17.140625 20.304688 17.167969 C 20.316406 17.1875 20.34375 17.207031 20.367188 17.214844 C 20.390625 17.21875 20.421875 17.21875 20.445312 17.203125 C 20.464844 17.191406 20.488281 17.167969 20.492188 17.144531 C 20.503906 17.0625 20.515625 16.980469 20.53125 16.898438 C 20.535156 16.871094 20.535156 16.847656 20.519531 16.820312 C 20.507812 16.800781 20.484375 16.78125 20.460938 16.777344 C 20.433594 16.769531 20.40625 16.769531 20.382812 16.785156 C 20.359375 16.800781 20.339844 16.820312 20.335938 16.847656 Z M 20.335938 16.847656 " fill-opacity="1" fill-rule="nonzero"/><path fill="#000000" d="M 20.921875 15.976562 C 20.921875 16.050781 20.921875 16.125 20.921875 16.203125 C 20.921875 16.226562 20.933594 16.253906 20.953125 16.273438 C 20.96875 16.289062 20.996094 16.300781 21.023438 16.300781 C 21.078125 16.300781 21.125 16.257812 21.125 16.203125 C 21.125 16.125 21.125 16.050781 21.125 15.976562 C 21.125 15.953125 21.113281 15.925781 21.09375 15.90625 C 21.078125 15.890625 21.046875 15.875 21.023438 15.878906 C 20.96875 15.878906 20.921875 15.921875 20.921875 15.976562 Z M 20.921875 15.976562 " fill-opacity="1" fill-rule="nonzero"/><path fill="#000000" d="M 21.269531 17.136719 C 21.269531 17.195312 21.269531 17.257812 21.269531 17.320312 C 21.269531 17.34375 21.28125 17.371094 21.300781 17.390625 C 21.320312 17.40625 21.347656 17.421875 21.371094 17.417969 C 21.398438 17.417969 21.425781 17.410156 21.445312 17.390625 C 21.460938 17.371094 21.472656 17.347656 21.472656 17.320312 C 21.472656 17.257812 21.472656 17.195312 21.472656 17.136719 C 21.472656 17.109375 21.460938 17.082031 21.445312 17.066406 C 21.425781 17.046875 21.398438 17.035156 21.371094 17.035156 C 21.347656 17.035156 21.320312 17.046875 21.300781 17.066406 C 21.28125 17.085938 21.269531 17.109375 21.269531 17.136719 Z M 21.269531 17.136719 " fill-opacity="1" fill-rule="nonzero"/><path fill="#000000" d="M 20.820312 18.253906 C 20.820312 18.277344 20.816406 18.304688 20.8125 18.328125 C 20.816406 18.320312 20.816406 18.3125 20.816406 18.304688 C 20.8125 18.347656 20.800781 18.394531 20.789062 18.4375 C 20.785156 18.457031 20.777344 18.480469 20.769531 18.5 C 20.765625 18.511719 20.761719 18.519531 20.757812 18.53125 C 20.757812 18.535156 20.753906 18.535156 20.753906 18.539062 C 20.75 18.546875 20.753906 18.542969 20.757812 18.53125 C 20.753906 18.53125 20.75 18.542969 20.75 18.546875 C 20.738281 18.574219 20.730469 18.597656 20.738281 18.625 C 20.746094 18.648438 20.765625 18.671875 20.785156 18.683594 C 20.832031 18.707031 20.902344 18.699219 20.925781 18.648438 C 20.984375 18.523438 21.015625 18.390625 21.023438 18.253906 C 21.027344 18.199219 20.976562 18.152344 20.921875 18.152344 C 20.867188 18.15625 20.824219 18.195312 20.820312 18.253906 Z M 20.820312 18.253906 " fill-opacity="1" fill-rule="nonzero"/><path fill="#000000" d="M 20.289062 18.390625 C 20.273438 18.46875 20.261719 18.550781 20.25 18.632812 C 20.246094 18.660156 20.246094 18.683594 20.257812 18.710938 C 20.273438 18.730469 20.296875 18.75 20.320312 18.757812 C 20.347656 18.761719 20.375 18.761719 20.398438 18.746094 C 20.417969 18.734375 20.441406 18.710938 20.445312 18.6875 C 20.457031 18.605469 20.46875 18.523438 20.484375 18.441406 C 20.488281 18.414062 20.488281 18.390625 20.472656 18.363281 C 20.460938 18.34375 20.4375 18.324219 20.414062 18.320312 C 20.386719 18.3125 20.355469 18.3125 20.335938 18.328125 C 20.3125 18.34375 20.292969 18.363281 20.289062 18.390625 Z M 20.289062 18.390625 " fill-opacity="1" fill-rule="nonzero"/><path fill="#000000" d="M 18.703125 19.507812 C 18.699219 19.519531 18.691406 19.535156 18.6875 19.550781 C 18.683594 19.5625 18.683594 19.558594 18.6875 19.542969 C 18.6875 19.546875 18.6875 19.550781 18.683594 19.554688 C 18.679688 19.5625 18.675781 19.570312 18.671875 19.578125 C 18.660156 19.605469 18.644531 19.636719 18.628906 19.664062 C 18.597656 19.71875 18.5625 19.773438 18.523438 19.824219 C 18.511719 19.84375 18.507812 19.878906 18.515625 19.902344 C 18.519531 19.925781 18.539062 19.949219 18.5625 19.960938 C 18.585938 19.972656 18.613281 19.980469 18.640625 19.972656 C 18.664062 19.960938 18.683594 19.945312 18.699219 19.925781 C 18.785156 19.8125 18.851562 19.691406 18.898438 19.558594 C 18.910156 19.535156 18.902344 19.503906 18.890625 19.480469 C 18.878906 19.460938 18.851562 19.441406 18.828125 19.4375 C 18.769531 19.421875 18.722656 19.453125 18.703125 19.507812 Z M 18.703125 19.507812 " fill-opacity="1" fill-rule="nonzero"/><path fill="#000000" d="M 19.046875 20.234375 C 19 20.324219 18.953125 20.410156 18.902344 20.5 C 18.890625 20.523438 18.886719 20.550781 18.894531 20.578125 C 18.902344 20.601562 18.917969 20.625 18.941406 20.636719 C 18.988281 20.660156 19.054688 20.652344 19.078125 20.601562 C 19.125 20.511719 19.171875 20.425781 19.21875 20.335938 C 19.234375 20.3125 19.238281 20.285156 19.230469 20.257812 C 19.222656 20.234375 19.207031 20.210938 19.183594 20.199219 C 19.136719 20.175781 19.070312 20.183594 19.046875 20.234375 Z M 19.046875 20.234375 " fill-opacity="1" fill-rule="nonzero"/><path fill="#000000" d="M 17.917969 18.660156 C 17.894531 18.679688 17.871094 18.699219 17.847656 18.722656 C 17.824219 18.742188 17.804688 18.769531 17.785156 18.792969 C 17.75 18.839844 17.726562 18.886719 17.703125 18.941406 C 17.695312 18.964844 17.703125 18.996094 17.714844 19.015625 C 17.726562 19.039062 17.75 19.058594 17.773438 19.0625 C 17.800781 19.070312 17.832031 19.066406 17.855469 19.054688 C 17.859375 19.046875 17.867188 19.042969 17.875 19.039062 C 17.886719 19.023438 17.894531 19.011719 17.898438 18.992188 C 17.902344 18.992188 17.902344 18.988281 17.902344 18.984375 C 17.902344 18.992188 17.898438 19 17.894531 19.007812 C 17.910156 18.96875 17.933594 18.929688 17.960938 18.894531 C 17.957031 18.902344 17.949219 18.90625 17.945312 18.914062 C 17.972656 18.878906 18.003906 18.847656 18.039062 18.820312 C 18.03125 18.828125 18.023438 18.832031 18.019531 18.835938 C 18.03125 18.828125 18.042969 18.820312 18.050781 18.808594 C 18.058594 18.800781 18.066406 18.789062 18.066406 18.773438 C 18.074219 18.75 18.070312 18.71875 18.058594 18.699219 C 18.042969 18.675781 18.023438 18.65625 17.996094 18.652344 C 17.972656 18.644531 17.941406 18.644531 17.917969 18.660156 Z M 17.917969 18.660156 " fill-opacity="1" fill-rule="nonzero"/><path fill="#000000" d="M 20.492188 20.195312 C 20.480469 20.242188 20.464844 20.285156 20.445312 20.328125 C 20.449219 20.320312 20.453125 20.3125 20.453125 20.304688 C 20.433594 20.351562 20.410156 20.398438 20.386719 20.441406 C 20.359375 20.484375 20.375 20.550781 20.421875 20.578125 C 20.472656 20.601562 20.53125 20.589844 20.5625 20.542969 C 20.617188 20.449219 20.660156 20.351562 20.6875 20.25 C 20.703125 20.199219 20.667969 20.136719 20.617188 20.125 C 20.5625 20.113281 20.507812 20.140625 20.492188 20.195312 Z M 20.492188 20.195312 " fill-opacity="1" fill-rule="nonzero"/><path fill="#000000" d="M 15.417969 22.105469 C 15.53125 22.058594 15.648438 22.011719 15.765625 21.964844 C 15.792969 21.957031 15.8125 21.945312 15.828125 21.917969 C 15.839844 21.898438 15.84375 21.867188 15.835938 21.84375 C 15.828125 21.816406 15.8125 21.792969 15.789062 21.78125 C 15.769531 21.769531 15.738281 21.761719 15.710938 21.773438 C 15.59375 21.820312 15.480469 21.867188 15.363281 21.914062 C 15.335938 21.921875 15.316406 21.933594 15.300781 21.960938 C 15.289062 21.980469 15.285156 22.011719 15.292969 22.035156 C 15.300781 22.0625 15.3125 22.085938 15.335938 22.097656 C 15.359375 22.109375 15.390625 22.117188 15.417969 22.105469 Z M 15.417969 22.105469 " fill-opacity="1" fill-rule="nonzero"/><path fill="#000000" d="M 15.890625 22.535156 C 16 22.5 16.097656 22.441406 16.183594 22.371094 C 16.203125 22.351562 16.214844 22.324219 16.214844 22.296875 C 16.214844 22.273438 16.203125 22.246094 16.183594 22.226562 C 16.164062 22.210938 16.136719 22.195312 16.113281 22.199219 C 16.082031 22.199219 16.0625 22.210938 16.039062 22.226562 C 16.03125 22.234375 16.019531 22.242188 16.011719 22.25 C 16.015625 22.246094 16.023438 22.242188 16.03125 22.234375 C 15.980469 22.273438 15.929688 22.304688 15.871094 22.328125 C 15.878906 22.324219 15.886719 22.320312 15.894531 22.316406 C 15.875 22.328125 15.855469 22.332031 15.835938 22.339844 C 15.808594 22.347656 15.789062 22.363281 15.773438 22.386719 C 15.761719 22.40625 15.757812 22.4375 15.765625 22.464844 C 15.78125 22.511719 15.835938 22.550781 15.890625 22.535156 Z M 15.890625 22.535156 " fill-opacity="1" fill-rule="nonzero"/><path fill="#000000" d="M 16.945312 22.859375 C 16.953125 22.851562 16.964844 22.84375 16.972656 22.835938 C 16.964844 22.84375 16.957031 22.847656 16.953125 22.851562 C 16.988281 22.824219 17.03125 22.800781 17.078125 22.78125 C 17.070312 22.785156 17.0625 22.789062 17.054688 22.789062 C 17.070312 22.785156 17.085938 22.777344 17.101562 22.773438 C 17.125 22.765625 17.148438 22.75 17.160156 22.726562 C 17.175781 22.707031 17.179688 22.675781 17.171875 22.648438 C 17.164062 22.625 17.148438 22.601562 17.125 22.589844 C 17.101562 22.578125 17.074219 22.570312 17.046875 22.582031 C 16.957031 22.609375 16.875 22.65625 16.800781 22.71875 C 16.785156 22.734375 16.773438 22.765625 16.773438 22.789062 C 16.773438 22.8125 16.785156 22.84375 16.800781 22.859375 C 16.820312 22.875 16.847656 22.890625 16.875 22.886719 C 16.902344 22.886719 16.925781 22.878906 16.945312 22.859375 Z M 16.945312 22.859375 " fill-opacity="1" fill-rule="nonzero"/><path fill="#000000" d="M 18.457031 22.972656 C 18.550781 22.851562 18.644531 22.734375 18.738281 22.613281 C 18.753906 22.59375 18.765625 22.574219 18.765625 22.542969 C 18.765625 22.519531 18.753906 22.492188 18.738281 22.472656 C 18.71875 22.457031 18.691406 22.441406 18.664062 22.445312 C 18.640625 22.445312 18.609375 22.453125 18.59375 22.472656 C 18.5 22.59375 18.40625 22.710938 18.3125 22.828125 C 18.296875 22.851562 18.285156 22.871094 18.285156 22.902344 C 18.285156 22.925781 18.292969 22.953125 18.3125 22.972656 C 18.332031 22.988281 18.359375 23.003906 18.386719 23 C 18.410156 23 18.441406 22.992188 18.457031 22.972656 Z M 18.457031 22.972656 " fill-opacity="1" fill-rule="nonzero"/><path fill="#000000" d="M 18.460938 21.574219 C 18.515625 21.511719 18.570312 21.449219 18.625 21.390625 C 18.644531 21.371094 18.65625 21.347656 18.65625 21.320312 C 18.65625 21.292969 18.644531 21.265625 18.625 21.246094 C 18.605469 21.230469 18.582031 21.21875 18.554688 21.21875 C 18.527344 21.21875 18.5 21.226562 18.480469 21.246094 C 18.425781 21.308594 18.371094 21.371094 18.320312 21.433594 C 18.300781 21.453125 18.289062 21.476562 18.289062 21.503906 C 18.289062 21.527344 18.300781 21.554688 18.320312 21.574219 C 18.339844 21.589844 18.363281 21.605469 18.390625 21.601562 C 18.417969 21.601562 18.445312 21.59375 18.460938 21.574219 Z M 18.460938 21.574219 " fill-opacity="1" fill-rule="nonzero"/><g clip-path="url(#5ac7ccd5d4)"><path fill="#000000" d="M 9.15625 18.449219 C 9.226562 18.367188 9.304688 18.289062 9.386719 18.214844 C 9.425781 18.179688 9.464844 18.144531 9.507812 18.109375 C 9.519531 18.101562 9.53125 18.09375 9.539062 18.085938 C 9.546875 18.082031 9.550781 18.074219 9.554688 18.070312 C 9.574219 18.058594 9.539062 18.082031 9.554688 18.070312 C 9.578125 18.054688 9.601562 18.035156 9.625 18.019531 C 9.648438 18.003906 9.664062 17.988281 9.671875 17.960938 C 9.679688 17.9375 9.675781 17.90625 9.664062 17.882812 C 9.636719 17.839844 9.570312 17.816406 9.523438 17.847656 C 9.335938 17.980469 9.164062 18.132812 9.011719 18.308594 C 8.976562 18.347656 8.96875 18.410156 9.011719 18.449219 C 9.050781 18.484375 9.117188 18.492188 9.15625 18.449219 Z M 9.15625 18.449219 " fill-opacity="1" fill-rule="nonzero"/><path fill="#000000" d="M 8.921875 17.996094 C 8.992188 17.929688 9.066406 17.863281 9.140625 17.800781 C 9.175781 17.769531 9.214844 17.742188 9.253906 17.710938 C 9.261719 17.703125 9.273438 17.695312 9.28125 17.6875 C 9.289062 17.683594 9.292969 17.679688 9.296875 17.675781 C 9.308594 17.667969 9.304688 17.671875 9.296875 17.675781 C 9.316406 17.664062 9.335938 17.644531 9.355469 17.632812 C 9.378906 17.613281 9.394531 17.597656 9.402344 17.570312 C 9.410156 17.546875 9.40625 17.515625 9.394531 17.492188 C 9.367188 17.453125 9.300781 17.425781 9.253906 17.457031 C 9.085938 17.582031 8.929688 17.714844 8.777344 17.855469 C 8.738281 17.890625 8.738281 17.960938 8.777344 17.996094 C 8.820312 18.035156 8.882812 18.035156 8.921875 17.996094 Z M 8.921875 17.996094 " fill-opacity="1" fill-rule="nonzero"/></g><g clip-path="url(#8dbc9dddf5)"><path fill="#000000" d="M 8.792969 17.484375 C 8.808594 17.472656 8.824219 17.457031 8.84375 17.445312 C 8.835938 17.449219 8.828125 17.457031 8.820312 17.460938 C 8.871094 17.421875 8.925781 17.390625 8.984375 17.367188 C 9.007812 17.359375 9.027344 17.328125 9.03125 17.308594 C 9.039062 17.28125 9.035156 17.25 9.023438 17.230469 C 9.007812 17.207031 8.988281 17.1875 8.960938 17.183594 C 8.953125 17.183594 8.945312 17.179688 8.933594 17.179688 C 8.917969 17.179688 8.898438 17.183594 8.882812 17.195312 C 8.796875 17.230469 8.71875 17.28125 8.652344 17.34375 C 8.632812 17.359375 8.621094 17.390625 8.621094 17.414062 C 8.621094 17.4375 8.632812 17.46875 8.652344 17.484375 C 8.671875 17.503906 8.695312 17.515625 8.722656 17.515625 C 8.75 17.511719 8.773438 17.503906 8.792969 17.484375 Z M 8.792969 17.484375 " fill-opacity="1" fill-rule="nonzero"/></g><path fill="#000000" d="M 14.730469 18.445312 C 14.777344 18.480469 14.824219 18.511719 14.871094 18.546875 C 14.894531 18.5625 14.917969 18.578125 14.941406 18.597656 C 14.945312 18.601562 14.953125 18.605469 14.957031 18.609375 C 14.960938 18.609375 14.964844 18.613281 14.964844 18.613281 C 14.964844 18.613281 14.949219 18.601562 14.957031 18.609375 C 14.972656 18.617188 14.984375 18.628906 14.996094 18.636719 C 15.085938 18.707031 15.175781 18.78125 15.261719 18.859375 C 15.308594 18.902344 15.355469 18.945312 15.402344 18.992188 C 15.441406 19.027344 15.507812 19.03125 15.546875 18.992188 C 15.582031 18.953125 15.585938 18.890625 15.546875 18.851562 C 15.375 18.683594 15.191406 18.53125 14.996094 18.386719 C 14.945312 18.347656 14.890625 18.3125 14.835938 18.273438 C 14.789062 18.242188 14.71875 18.265625 14.695312 18.308594 C 14.667969 18.359375 14.683594 18.414062 14.730469 18.445312 Z M 14.730469 18.445312 " fill-opacity="1" fill-rule="nonzero"/><path fill="#000000" d="M 15.300781 18.292969 C 15.464844 18.417969 15.628906 18.539062 15.792969 18.664062 C 15.8125 18.675781 15.847656 18.679688 15.871094 18.671875 C 15.894531 18.664062 15.921875 18.648438 15.929688 18.625 C 15.945312 18.601562 15.949219 18.574219 15.941406 18.550781 C 15.933594 18.523438 15.917969 18.503906 15.894531 18.488281 C 15.730469 18.367188 15.566406 18.242188 15.402344 18.121094 C 15.382812 18.105469 15.347656 18.105469 15.324219 18.109375 C 15.300781 18.117188 15.277344 18.132812 15.265625 18.15625 C 15.253906 18.179688 15.246094 18.207031 15.253906 18.234375 C 15.265625 18.261719 15.28125 18.277344 15.300781 18.292969 Z M 15.300781 18.292969 " fill-opacity="1" fill-rule="nonzero"/><path fill="#000000" d="M 15.609375 17.980469 C 15.714844 18.007812 15.816406 18.042969 15.917969 18.082031 C 15.933594 18.085938 15.945312 18.089844 15.957031 18.097656 C 15.964844 18.097656 15.96875 18.101562 15.972656 18.101562 C 15.976562 18.101562 15.980469 18.105469 15.984375 18.105469 C 15.972656 18.101562 15.96875 18.101562 15.976562 18.101562 C 16 18.113281 16.023438 18.125 16.046875 18.132812 C 16.097656 18.15625 16.148438 18.183594 16.195312 18.207031 C 16.242188 18.230469 16.308594 18.21875 16.335938 18.171875 C 16.359375 18.125 16.347656 18.058594 16.300781 18.035156 C 16.097656 17.929688 15.882812 17.84375 15.664062 17.789062 C 15.613281 17.773438 15.550781 17.804688 15.539062 17.859375 C 15.527344 17.910156 15.554688 17.964844 15.609375 17.980469 Z M 15.609375 17.980469 " fill-opacity="1" fill-rule="nonzero"/><path fill="#000000" d="M 13.292969 5.496094 C 13.269531 5.421875 13.214844 5.371094 13.144531 5.34375 C 13.089844 5.328125 13.027344 5.332031 12.972656 5.351562 C 12.957031 5.34375 12.941406 5.34375 12.921875 5.351562 C 12.859375 5.375 12.800781 5.410156 12.753906 5.464844 C 12.710938 5.515625 12.675781 5.574219 12.664062 5.640625 C 12.644531 5.71875 12.652344 5.792969 12.683594 5.863281 C 12.710938 5.929688 12.777344 5.988281 12.851562 6 C 13 6.027344 13.136719 5.933594 13.21875 5.820312 C 13.253906 5.777344 13.28125 5.722656 13.292969 5.671875 C 13.308594 5.613281 13.316406 5.550781 13.292969 5.496094 Z M 13.292969 5.496094 " fill-opacity="1" fill-rule="nonzero"/></svg>