<svg xmlns="http://www.w3.org/2000/svg" xmlns:xlink="http://www.w3.org/1999/xlink" width="250" zoomAndPan="magnify" viewBox="0 0 187.5 187.499992" height="250" preserveAspectRatio="xMidYMid meet" version="1.0"><defs><clipPath id="d596fd25ec"><path d="M 50 26.230469 L 149.25 26.230469 L 149.25 161.230469 L 50 161.230469 Z M 50 26.230469 " clip-rule="nonzero"/></clipPath><clipPath id="2426f3bfc0"><path d="M 121 26.230469 L 125 26.230469 L 125 37 L 121 37 Z M 121 26.230469 " clip-rule="nonzero"/></clipPath></defs><path fill="#ffffff" d="M 81.957031 33.972656 C 81.957031 33.972656 89.085938 38.828125 90.375 40.539062 C 93.738281 39.390625 99.710938 37.015625 106.582031 36.453125 C 113.453125 35.886719 121.476562 36.226562 121.476562 36.226562 L 123.878906 27.84375 C 123.878906 27.84375 128.296875 34.554688 129.90625 36.871094 C 131.511719 39.1875 138.027344 48.785156 139.742188 54.378906 C 141.457031 59.972656 145.878906 78.207031 147.0625 88.429688 C 148.246094 98.65625 148.714844 110.914062 148.105469 117.964844 C 147.5 125.015625 143.59375 157.425781 142.308594 160.570312 C 137.453125 160.285156 135.183594 160.441406 135.183594 160.441406 C 135.183594 160.441406 135.882812 144.277344 135.882812 139.277344 C 135.882812 134.273438 134.699219 129.34375 134.699219 129.34375 C 134.699219 129.34375 130.644531 142.433594 129.621094 147.144531 C 128.601562 151.851562 122.847656 160.0625 122.847656 160.0625 L 102.511719 158.722656 C 102.511719 158.722656 70.046875 157.421875 61.769531 156.679688 C 53.488281 155.9375 51.253906 155.609375 51.253906 155.609375 C 51.253906 155.609375 51.015625 136.707031 52.335938 130.734375 C 53.652344 124.765625 58.195312 113.976562 58.195312 113.976562 C 58.195312 113.976562 58.984375 97.386719 58.132812 91.125 C 57.277344 84.863281 55.175781 73.078125 51.851562 69.136719 C 48.523438 65.195312 44.742188 60.992188 37.1875 60.042969 C 29.632812 59.09375 29.320312 62.085938 25.921875 61.363281 C 22.519531 60.636719 18.796875 59.851562 19.644531 55.753906 C 20.492188 51.660156 24.894531 49.097656 28.347656 48.515625 C 31.804688 47.933594 39.917969 47.371094 45.484375 49.660156 C 51.054688 51.945312 56.859375 56.804688 59.027344 60.734375 C 61.195312 64.667969 64.195312 69.8125 64.90625 76.671875 C 65.621094 83.53125 65.375 90.015625 65.214844 94.207031 C 65.050781 98.398438 64.480469 105.113281 64.480469 105.113281 L 73.042969 93.9375 C 73.042969 93.9375 79.4375 84.082031 80.882812 77.660156 C 82.332031 71.242188 83.949219 60.207031 83.636719 51.234375 C 83.351562 42.90625 81.957031 33.972656 81.957031 33.972656 Z M 81.957031 33.972656 " fill-opacity="1" fill-rule="nonzero"/><path fill="#4e4e4e" d="M 125.144531 47.585938 C 127.460938 46.402344 130.140625 45.671875 132.667969 46.273438 C 135.195312 46.878906 137.449219 49.109375 137.4375 51.710938 C 137.425781 53.511719 136.378906 55.175781 135.03125 56.367188 C 132.515625 58.589844 128.984375 59.417969 125.636719 59.15625 C 124.164062 59.042969 122.675781 58.722656 121.410156 57.957031 C 116.003906 54.691406 121.492188 49.453125 125.144531 47.585938 Z M 125.144531 47.585938 " fill-opacity="1" fill-rule="nonzero"/><path fill="#4e4e4e" d="M 98.378906 38.054688 C 99.691406 40.816406 101.378906 43.519531 103.910156 45.230469 C 106.441406 46.945312 109.976562 47.449219 112.542969 45.789062 C 113.0625 45.453125 113.539062 45.03125 113.851562 44.496094 C 114.304688 43.722656 114.382812 42.25 114.378906 41.355469 C 114.371094 39.585938 114.09375 38.351562 113.554688 36.667969 C 113.515625 36.511719 113.445312 36.371094 113.347656 36.242188 C 113.152344 36.019531 112.824219 35.972656 112.53125 35.941406 C 110.472656 35.730469 107.652344 36.378906 105.535156 36.726562 C 103.917969 36.988281 98.496094 38.300781 98.378906 38.054688 Z M 98.378906 38.054688 " fill-opacity="1" fill-rule="nonzero"/><path fill="#ffffff" d="M 124.449219 50.890625 C 125.195312 50.492188 126.054688 50.375 126.890625 50.261719 C 127.941406 50.125 129.027344 49.988281 130.039062 50.296875 C 130.785156 50.527344 131.4375 50.984375 132.058594 51.453125 C 132.554688 51.828125 133.089844 52.324219 133.027344 52.941406 C 132.96875 53.503906 132.441406 53.875 131.984375 54.199219 C 131.023438 54.871094 130.136719 55.65625 129.113281 56.226562 C 128.089844 56.796875 126.871094 57.140625 125.738281 56.835938 C 125.070312 56.65625 121.882812 55.226562 121.734375 54.742188 C 121.398438 53.652344 123.621094 51.328125 124.449219 50.890625 Z M 124.449219 50.890625 " fill-opacity="1" fill-rule="nonzero"/><path fill="#b1b1b1" d="M 114.804688 60.746094 C 113.828125 60.289062 112.617188 60.433594 111.730469 61.046875 C 110.839844 61.660156 110.28125 62.699219 110.1875 63.773438 C 110.164062 63.960938 110.171875 64.144531 110.21875 64.328125 C 110.292969 64.554688 110.417969 64.75 110.589844 64.914062 C 111.496094 65.851562 113.027344 66.113281 114.191406 65.53125 C 115.789062 64.734375 116.835938 61.6875 114.804688 60.746094 Z M 114.804688 60.746094 " fill-opacity="1" fill-rule="nonzero"/><path fill="#b1b1b1" d="M 120.398438 60.890625 C 121.28125 61.390625 121.925781 62.34375 121.941406 63.359375 C 121.960938 64.378906 121.289062 65.402344 120.3125 65.6875 C 119.859375 65.804688 119.402344 65.820312 118.945312 65.726562 C 117.898438 65.554688 116.871094 65.027344 116.304688 64.128906 C 114.550781 61.34375 118.179688 59.636719 120.398438 60.890625 Z M 120.398438 60.890625 " fill-opacity="1" fill-rule="nonzero"/><path fill="#b1b1b1" d="M 82.773438 102.75 C 86.59375 100.875 89.605469 97.089844 89.863281 92.839844 C 89.910156 92.050781 89.863281 91.242188 89.597656 90.5 C 89.335938 89.777344 88.886719 89.148438 88.4375 88.53125 C 86.375 85.671875 83.71875 82.511719 80.203125 82.660156 C 79.9375 82.667969 79.664062 82.703125 79.445312 82.851562 C 79.144531 83.050781 79.007812 83.410156 78.878906 83.75 C 77.777344 86.703125 76.34375 89.488281 74.582031 92.105469 C 73.125 94.273438 69.875 96.730469 69.453125 99.363281 C 68.320312 106.453125 79.316406 104.449219 82.773438 102.75 Z M 82.773438 102.75 " fill-opacity="1" fill-rule="nonzero"/><path fill="#b1b1b1" d="M 84.039062 78.964844 C 85.707031 79.121094 86.789062 79.015625 88.457031 79.171875 C 89.28125 79.25 90.167969 79.316406 90.890625 78.914062 C 91.914062 78.34375 92.257812 77.0625 92.503906 75.917969 C 92.632812 75.320312 92.730469 74.601562 92.285156 74.179688 C 92.082031 73.988281 91.800781 73.902344 91.523438 73.839844 C 89.640625 73.402344 87.664062 73.75 85.8125 74.296875 C 84.65625 74.640625 83.425781 75.140625 82.839844 76.199219 C 82.253906 77.257812 82.832031 78.945312 84.039062 78.964844 " fill-opacity="1" fill-rule="nonzero"/><path fill="#b1b1b1" d="M 74.929688 110.53125 C 74.363281 110.976562 74.390625 111.9375 74.898438 112.453125 C 75.40625 112.96875 76.242188 113.0625 76.917969 112.808594 C 78.113281 112.359375 78.773438 110.722656 78.023438 109.691406 C 77.277344 108.65625 75.269531 109.011719 75.105469 110.277344 " fill-opacity="1" fill-rule="nonzero"/><path fill="#626262" d="M 41.316406 51.152344 C 41.214844 50.367188 40.976562 49.546875 40.371094 49.035156 C 39.757812 48.515625 38.898438 48.425781 38.097656 48.359375 C 35.234375 48.132812 32.34375 47.9375 29.503906 48.34375 C 26.660156 48.746094 23.839844 49.792969 21.742188 51.753906 C 20.820312 52.621094 20.039062 53.675781 19.691406 54.890625 C 19.402344 55.890625 20.035156 56.941406 20.066406 57.980469 C 20.074219 58.332031 20.617188 58.789062 20.75 59.113281 C 21.015625 59.78125 21.230469 59.9375 21.882812 60.238281 C 24.492188 61.4375 26.816406 62.289062 29.570312 61.46875 C 35.351562 59.753906 42.40625 59.308594 41.316406 51.152344 Z M 41.316406 51.152344 " fill-opacity="1" fill-rule="nonzero"/><path fill="#626262" d="M 77.042969 139.757812 C 76.25 141.210938 75.851562 142.84375 75.542969 144.46875 C 74.738281 148.722656 74.671875 153.636719 77.644531 156.78125 C 78.523438 157.703125 79.957031 158.429688 81.027344 157.738281 C 81.542969 157.40625 81.832031 156.824219 82.078125 156.257812 C 84.039062 151.757812 84.769531 146.457031 83.800781 141.617188 C 83.019531 137.71875 79.59375 135.101562 77.042969 139.757812 Z M 77.042969 139.757812 " fill-opacity="1" fill-rule="nonzero"/><g clip-path="url(#d596fd25ec)"><path fill="#000000" d="M 80.828125 33.828125 C 82.246094 38.472656 82.582031 43.453125 82.882812 48.273438 C 83.105469 51.890625 83.113281 55.515625 82.984375 59.132812 C 82.816406 63.792969 82.445312 68.488281 81.472656 73.058594 C 80.386719 78.175781 78.4375 83.15625 76.003906 87.777344 C 73.917969 91.742188 71.371094 95.347656 68.574219 98.832031 C 65.785156 102.304688 63.039062 105.808594 60.5625 109.507812 C 57.75 113.714844 55.230469 118.1875 53.574219 122.984375 C 52.140625 127.136719 51.472656 131.53125 51.074219 135.894531 C 50.496094 142.363281 50.453125 148.835938 50.953125 155.3125 C 50.960938 155.421875 50.96875 155.53125 50.976562 155.640625 C 50.984375 155.808594 51.046875 155.953125 51.164062 156.074219 C 51.285156 156.191406 51.425781 156.253906 51.59375 156.261719 C 55.78125 156.644531 59.972656 157.015625 64.164062 157.363281 C 71.941406 158.023438 79.726562 158.652344 87.515625 159.136719 C 96.574219 159.703125 105.652344 159.972656 114.714844 160.34375 C 117.363281 160.453125 120.035156 160.667969 122.683594 160.671875 C 123.285156 160.675781 123.542969 160.164062 123.855469 159.714844 C 124.703125 158.5 125.480469 157.230469 126.210938 155.941406 C 130.789062 147.847656 132.917969 138.820312 135.195312 129.886719 C 135.332031 129.355469 135.46875 128.820312 135.621094 128.289062 L 134.429688 128.289062 C 135.089844 132.855469 135.140625 137.535156 135.183594 142.140625 C 135.226562 146.867188 135.171875 151.601562 134.882812 156.324219 C 134.800781 157.695312 134.710938 159.070312 134.5625 160.4375 C 134.527344 160.777344 134.875 161.050781 135.183594 161.058594 L 142.308594 161.1875 C 142.5625 161.195312 142.855469 160.996094 142.90625 160.734375 C 144.007812 154.835938 145.007812 148.917969 145.910156 142.980469 C 147.347656 133.574219 148.417969 124.089844 148.945312 114.585938 C 149.242188 109.167969 149.246094 103.738281 148.839844 98.324219 C 148.386719 92.296875 147.390625 86.328125 146.40625 80.367188 C 145.097656 72.410156 143.53125 64.519531 141.171875 56.800781 C 139.855469 52.5 138.15625 48.445312 135.792969 44.613281 C 132.871094 39.878906 129.421875 35.488281 126.574219 30.714844 C 125.847656 29.511719 125.199219 28.269531 124.621094 26.992188 C 124.296875 26.265625 123.230469 26.894531 123.554688 27.617188 C 125.878906 32.847656 129.605469 37.351562 132.722656 42.113281 C 135.132812 45.789062 137.339844 49.507812 138.835938 53.660156 C 141.550781 61.207031 143.21875 69.144531 144.59375 77.03125 C 145.589844 82.730469 146.585938 88.460938 147.222656 94.210938 C 147.832031 99.777344 148.042969 105.363281 147.867188 110.960938 C 147.710938 115.96875 147.265625 120.960938 146.792969 125.945312 C 146.367188 130.464844 145.84375 134.964844 145.195312 139.460938 C 144.195312 146.34375 143.042969 153.207031 141.78125 160.046875 C 141.757812 160.167969 141.734375 160.285156 141.714844 160.40625 L 142.308594 159.953125 L 135.183594 159.820312 L 135.800781 160.4375 C 136.183594 156.832031 136.3125 153.183594 136.382812 149.558594 C 136.472656 144.800781 136.457031 140.03125 136.242188 135.277344 C 136.132812 132.832031 135.972656 130.386719 135.621094 127.960938 C 135.53125 127.324219 134.585938 127.425781 134.429688 127.960938 C 133.179688 132.257812 132.257812 136.648438 130.992188 140.945312 C 129.390625 146.410156 127.347656 151.691406 124.402344 156.582031 C 123.753906 157.664062 123.078125 158.746094 122.3125 159.75 L 122.847656 159.441406 C 112.273438 159.007812 101.691406 158.671875 91.125 158.109375 C 80.640625 157.554688 70.175781 156.65625 59.722656 155.746094 C 57.011719 155.511719 54.304688 155.269531 51.59375 155.023438 L 52.214844 155.640625 C 51.75 150.167969 51.75 144.609375 52.066406 139.132812 C 52.324219 134.703125 52.824219 130.25 53.960938 125.953125 C 55.25 121.09375 57.554688 116.570312 60.210938 112.324219 C 62.691406 108.359375 65.515625 104.628906 68.429688 100.976562 C 71.074219 97.664062 73.667969 94.375 75.800781 90.695312 C 78.523438 86.011719 80.613281 81.058594 82.070312 75.835938 C 83.304688 71.378906 83.796875 66.707031 84.078125 62.097656 C 84.324219 58.140625 84.375 54.175781 84.21875 50.214844 C 84.039062 45.710938 83.671875 41.152344 82.808594 36.726562 C 82.601562 35.636719 82.339844 34.558594 82.019531 33.496094 C 81.789062 32.738281 80.597656 33.0625 80.828125 33.828125 Z M 80.828125 33.828125 " fill-opacity="1" fill-rule="nonzero"/></g><path fill="#000000" d="M 81.648438 34.507812 C 82.851562 35.179688 84.007812 35.921875 85.117188 36.738281 C 85.265625 36.84375 85.410156 36.949219 85.554688 37.058594 C 85.621094 37.109375 85.6875 37.160156 85.753906 37.210938 C 85.785156 37.234375 85.816406 37.261719 85.851562 37.285156 L 85.902344 37.324219 C 85.964844 37.371094 85.902344 37.324219 85.875 37.304688 C 86.15625 37.53125 86.441406 37.75 86.722656 37.976562 C 87.261719 38.421875 87.789062 38.882812 88.304688 39.355469 C 88.867188 39.878906 89.410156 40.417969 89.9375 40.976562 C 90.058594 41.09375 90.203125 41.15625 90.375 41.15625 C 90.542969 41.15625 90.6875 41.09375 90.808594 40.976562 C 90.925781 40.855469 90.984375 40.707031 90.984375 40.539062 C 90.984375 40.371094 90.925781 40.222656 90.808594 40.101562 C 89.855469 39.085938 88.84375 38.136719 87.769531 37.25 C 86.648438 36.3125 85.476562 35.441406 84.253906 34.640625 C 83.609375 34.214844 82.945312 33.816406 82.269531 33.441406 C 81.988281 33.285156 81.582031 33.363281 81.425781 33.664062 C 81.34375 33.808594 81.320312 33.964844 81.363281 34.128906 C 81.40625 34.292969 81.503906 34.421875 81.648438 34.507812 Z M 81.648438 34.507812 " fill-opacity="1" fill-rule="nonzero"/><path fill="#000000" d="M 90.683594 41.074219 C 90.925781 40.964844 91.164062 40.859375 91.402344 40.757812 C 91.457031 40.734375 91.507812 40.714844 91.558594 40.691406 C 91.578125 40.683594 91.667969 40.644531 91.566406 40.6875 L 91.644531 40.65625 C 91.765625 40.605469 91.882812 40.554688 92.003906 40.503906 C 92.480469 40.308594 92.957031 40.121094 93.4375 39.941406 C 94.40625 39.574219 95.386719 39.238281 96.375 38.929688 C 98.339844 38.316406 100.328125 37.8125 102.347656 37.417969 C 103.355469 37.222656 104.371094 37.050781 105.386719 36.90625 C 105.453125 36.898438 105.515625 36.886719 105.582031 36.878906 L 105.664062 36.867188 C 105.761719 36.855469 105.570312 36.878906 105.667969 36.867188 C 105.796875 36.851562 105.925781 36.835938 106.058594 36.816406 C 106.308594 36.785156 106.558594 36.753906 106.808594 36.726562 C 107.328125 36.667969 107.851562 36.617188 108.371094 36.570312 C 110.425781 36.390625 112.480469 36.320312 114.542969 36.351562 C 116.597656 36.378906 118.652344 36.511719 120.699219 36.75 C 120.960938 36.777344 121.21875 36.808594 121.476562 36.84375 C 121.800781 36.882812 122.109375 36.53125 122.097656 36.222656 C 122.078125 35.855469 121.824219 35.648438 121.476562 35.605469 C 119.417969 35.34375 117.351562 35.183594 115.269531 35.128906 C 111.070312 35.015625 106.898438 35.332031 102.761719 36.085938 C 100.722656 36.457031 98.707031 36.9375 96.71875 37.53125 C 94.695312 38.136719 92.71875 38.855469 90.78125 39.691406 C 90.539062 39.792969 90.300781 39.898438 90.0625 40.003906 C 89.765625 40.136719 89.671875 40.589844 89.839844 40.851562 C 90.039062 41.15625 90.367188 41.214844 90.683594 41.074219 Z M 90.683594 41.074219 " fill-opacity="1" fill-rule="nonzero"/><g clip-path="url(#2426f3bfc0)"><path fill="#000000" d="M 123.492188 27.136719 C 122.617188 29.332031 122.0625 31.625 121.613281 33.9375 C 121.476562 34.644531 121.347656 35.351562 121.222656 36.058594 C 121.179688 36.226562 121.203125 36.386719 121.285156 36.535156 C 121.371094 36.679688 121.492188 36.773438 121.652344 36.820312 C 121.953125 36.890625 122.351562 36.730469 122.414062 36.390625 C 122.839844 34.015625 123.28125 31.636719 124.015625 29.335938 C 124.214844 28.707031 124.4375 28.082031 124.683594 27.46875 C 124.730469 27.300781 124.707031 27.140625 124.621094 26.992188 C 124.535156 26.84375 124.410156 26.75 124.246094 26.703125 C 124.078125 26.660156 123.921875 26.683594 123.777344 26.769531 C 123.640625 26.859375 123.542969 26.984375 123.492188 27.136719 Z M 123.492188 27.136719 " fill-opacity="1" fill-rule="nonzero"/></g><path fill="#000000" d="M 114 59.5 C 114.195312 59.816406 114.453125 60.070312 114.777344 60.257812 C 115.101562 60.441406 115.449219 60.542969 115.820312 60.550781 C 116.574219 60.574219 117.269531 60.148438 117.65625 59.515625 C 117.878906 59.152344 117.984375 58.757812 117.96875 58.335938 C 117.953125 58.011719 117.695312 57.699219 117.351562 57.714844 C 117.027344 57.730469 116.714844 57.988281 116.730469 58.335938 C 116.734375 58.378906 116.734375 58.421875 116.734375 58.464844 C 116.734375 58.488281 116.71875 58.632812 116.734375 58.511719 C 116.75 58.390625 116.726562 58.535156 116.722656 58.558594 C 116.714844 58.601562 116.703125 58.640625 116.691406 58.683594 C 116.679688 58.714844 116.667969 58.746094 116.65625 58.773438 C 116.621094 58.875 116.730469 58.628906 116.652344 58.777344 C 116.617188 58.84375 116.578125 58.910156 116.539062 58.972656 C 116.476562 59.070312 116.636719 58.851562 116.546875 58.960938 C 116.519531 58.992188 116.496094 59.019531 116.46875 59.046875 C 116.4375 59.078125 116.40625 59.109375 116.375 59.136719 C 116.332031 59.175781 116.253906 59.195312 116.398438 59.121094 C 116.332031 59.15625 116.273438 59.207031 116.207031 59.242188 C 116.1875 59.25 116.167969 59.261719 116.148438 59.269531 C 116.089844 59.296875 116.109375 59.289062 116.207031 59.246094 C 116.167969 59.253906 116.132812 59.269531 116.097656 59.28125 C 116.0625 59.292969 116.027344 59.300781 115.988281 59.308594 C 115.828125 59.339844 116.105469 59.304688 115.996094 59.308594 C 115.921875 59.3125 115.847656 59.316406 115.773438 59.3125 C 115.71875 59.308594 115.628906 59.28125 115.808594 59.320312 C 115.769531 59.3125 115.726562 59.308594 115.683594 59.296875 C 115.613281 59.28125 115.539062 59.257812 115.46875 59.230469 C 115.359375 59.195312 115.613281 59.300781 115.484375 59.238281 C 115.453125 59.222656 115.417969 59.203125 115.386719 59.183594 C 115.351562 59.164062 115.3125 59.140625 115.277344 59.117188 C 115.222656 59.078125 115.207031 59.027344 115.300781 59.136719 C 115.253906 59.082031 115.191406 59.039062 115.140625 58.980469 C 115.03125 58.863281 115.195312 59.070312 115.136719 58.984375 C 115.113281 58.949219 115.089844 58.914062 115.066406 58.875 C 114.902344 58.597656 114.503906 58.472656 114.222656 58.652344 C 114.078125 58.742188 113.984375 58.867188 113.9375 59.03125 C 113.894531 59.195312 113.917969 59.351562 114 59.5 Z M 114 59.5 " fill-opacity="1" fill-rule="nonzero"/><path fill="#000000" d="M 109.828125 65.371094 C 110.273438 66.089844 110.90625 66.542969 111.730469 66.726562 C 112.578125 66.921875 113.386719 66.816406 114.15625 66.414062 C 114.894531 66.039062 115.507812 65.410156 115.941406 64.707031 C 116.320312 64.089844 116.523438 63.390625 116.65625 62.679688 C 116.804688 61.859375 116.898438 61.03125 116.945312 60.195312 C 116.941406 60.027344 116.882812 59.882812 116.761719 59.761719 C 116.640625 59.640625 116.496094 59.578125 116.328125 59.578125 C 116.15625 59.582031 116.011719 59.644531 115.894531 59.765625 C 115.773438 59.882812 115.710938 60.027344 115.707031 60.195312 C 115.691406 60.5 115.667969 60.804688 115.636719 61.105469 C 115.621094 61.273438 115.601562 61.441406 115.582031 61.609375 C 115.578125 61.648438 115.570312 61.6875 115.566406 61.726562 C 115.554688 61.828125 115.574219 61.671875 115.574219 61.664062 C 115.574219 61.6875 115.570312 61.710938 115.566406 61.734375 C 115.554688 61.824219 115.539062 61.917969 115.523438 62.007812 C 115.472656 62.34375 115.40625 62.679688 115.320312 63.007812 C 115.28125 63.160156 115.234375 63.308594 115.183594 63.457031 C 115.160156 63.527344 115.132812 63.59375 115.105469 63.660156 C 115.082031 63.722656 115.140625 63.566406 115.140625 63.578125 C 115.136719 63.597656 115.128906 63.613281 115.117188 63.628906 C 115.101562 63.667969 115.085938 63.703125 115.066406 63.738281 C 114.988281 63.894531 114.902344 64.042969 114.808594 64.1875 C 114.757812 64.261719 114.710938 64.332031 114.65625 64.402344 C 114.648438 64.414062 114.636719 64.429688 114.625 64.441406 C 114.582031 64.507812 114.707031 64.339844 114.660156 64.402344 C 114.628906 64.4375 114.601562 64.472656 114.570312 64.507812 C 114.453125 64.644531 114.328125 64.773438 114.195312 64.894531 C 114.136719 64.949219 114.074219 65 114.011719 65.054688 C 113.933594 65.117188 114.046875 65.023438 114.054688 65.019531 C 114.035156 65.03125 114.019531 65.046875 114 65.0625 C 113.960938 65.085938 113.925781 65.113281 113.886719 65.140625 C 113.746094 65.234375 113.59375 65.320312 113.441406 65.394531 C 113.394531 65.414062 113.25 65.460938 113.429688 65.398438 C 113.394531 65.410156 113.355469 65.429688 113.316406 65.441406 C 113.238281 65.472656 113.15625 65.496094 113.070312 65.519531 C 112.996094 65.539062 112.917969 65.558594 112.835938 65.570312 C 112.816406 65.574219 112.796875 65.578125 112.773438 65.582031 C 112.710938 65.589844 112.867188 65.570312 112.859375 65.570312 C 112.8125 65.566406 112.765625 65.570312 112.71875 65.582031 C 112.558594 65.589844 112.398438 65.589844 112.242188 65.570312 C 112.214844 65.570312 112.136719 65.558594 112.246094 65.574219 C 112.363281 65.589844 112.253906 65.574219 112.234375 65.570312 C 112.191406 65.5625 112.148438 65.554688 112.109375 65.546875 C 112.019531 65.527344 111.933594 65.503906 111.847656 65.476562 C 111.804688 65.460938 111.757812 65.445312 111.714844 65.429688 C 111.699219 65.425781 111.683594 65.417969 111.671875 65.414062 C 111.601562 65.386719 111.808594 65.476562 111.714844 65.433594 C 111.636719 65.394531 111.554688 65.355469 111.480469 65.3125 C 111.402344 65.265625 111.328125 65.214844 111.257812 65.164062 C 111.222656 65.140625 111.183594 65.09375 111.308594 65.207031 C 111.292969 65.191406 111.277344 65.179688 111.261719 65.164062 C 111.226562 65.136719 111.191406 65.105469 111.15625 65.074219 C 111.09375 65.011719 111.035156 64.945312 110.976562 64.878906 C 110.949219 64.84375 110.925781 64.789062 111.019531 64.929688 C 111.007812 64.910156 110.992188 64.894531 110.980469 64.878906 C 110.953125 64.835938 110.921875 64.789062 110.898438 64.746094 C 110.730469 64.46875 110.332031 64.34375 110.050781 64.523438 C 109.90625 64.613281 109.8125 64.738281 109.769531 64.902344 C 109.726562 65.066406 109.746094 65.222656 109.828125 65.371094 Z M 109.828125 65.371094 " fill-opacity="1" fill-rule="nonzero"/><path fill="#000000" d="M 115.355469 63.898438 C 116.027344 65.011719 117.085938 65.898438 118.335938 66.285156 C 118.949219 66.472656 119.570312 66.523438 120.203125 66.4375 C 120.839844 66.351562 121.425781 66.132812 121.960938 65.789062 C 122.578125 65.398438 123.042969 64.875 123.359375 64.222656 C 123.441406 64.070312 123.460938 63.910156 123.421875 63.746094 C 123.375 63.585938 123.28125 63.460938 123.136719 63.375 C 122.867188 63.230469 122.4375 63.285156 122.292969 63.597656 C 122.238281 63.714844 122.175781 63.828125 122.109375 63.941406 C 122.074219 63.996094 122.039062 64.046875 122 64.101562 C 121.976562 64.136719 121.898438 64.222656 122.019531 64.078125 C 121.996094 64.105469 121.972656 64.136719 121.949219 64.167969 C 121.871094 64.261719 121.785156 64.351562 121.695312 64.4375 C 121.648438 64.480469 121.601562 64.523438 121.550781 64.566406 C 121.527344 64.585938 121.5 64.605469 121.476562 64.625 C 121.386719 64.699219 121.601562 64.53125 121.484375 64.617188 C 121.269531 64.773438 121.039062 64.90625 120.796875 65.015625 C 120.753906 65.03125 120.695312 65.039062 120.851562 64.988281 C 120.820312 65 120.792969 65.015625 120.761719 65.023438 C 120.699219 65.046875 120.636719 65.070312 120.574219 65.089844 C 120.441406 65.132812 120.304688 65.167969 120.164062 65.195312 C 120.109375 65.207031 120.058594 65.214844 120.003906 65.222656 C 119.878906 65.246094 120.164062 65.207031 120.039062 65.21875 C 120.003906 65.222656 119.972656 65.226562 119.941406 65.230469 C 119.800781 65.242188 119.660156 65.246094 119.515625 65.242188 C 119.460938 65.242188 119.410156 65.238281 119.355469 65.234375 C 119.300781 65.230469 119.066406 65.191406 119.28125 65.230469 C 119.136719 65.203125 118.988281 65.179688 118.84375 65.144531 C 118.722656 65.113281 118.605469 65.074219 118.484375 65.03125 C 118.421875 65.007812 118.359375 64.980469 118.292969 64.957031 C 118.472656 65.023438 118.355469 64.984375 118.316406 64.964844 C 118.273438 64.949219 118.234375 64.929688 118.191406 64.90625 C 117.945312 64.785156 117.710938 64.640625 117.492188 64.476562 C 117.457031 64.453125 117.363281 64.371094 117.503906 64.492188 C 117.480469 64.46875 117.453125 64.449219 117.425781 64.425781 C 117.363281 64.375 117.300781 64.320312 117.242188 64.265625 C 117.125 64.160156 117.007812 64.042969 116.902344 63.925781 C 116.855469 63.875 116.808594 63.820312 116.765625 63.769531 C 116.742188 63.742188 116.722656 63.714844 116.699219 63.6875 C 116.660156 63.636719 116.671875 63.652344 116.730469 63.730469 C 116.71875 63.710938 116.703125 63.695312 116.691406 63.675781 C 116.59375 63.546875 116.507812 63.410156 116.421875 63.273438 C 116.257812 62.996094 115.859375 62.867188 115.578125 63.050781 C 115.433594 63.140625 115.339844 63.265625 115.296875 63.429688 C 115.253906 63.59375 115.273438 63.75 115.355469 63.898438 Z M 115.355469 63.898438 " fill-opacity="1" fill-rule="nonzero"/><path fill="#000000" d="M 122.097656 55.023438 C 122.140625 54.898438 122.183594 54.777344 122.230469 54.65625 C 122.253906 54.601562 122.277344 54.546875 122.296875 54.492188 C 122.226562 54.683594 122.3125 54.460938 122.335938 54.410156 C 122.441406 54.175781 122.5625 53.945312 122.691406 53.71875 C 122.824219 53.496094 122.964844 53.277344 123.117188 53.066406 C 123.152344 53.019531 123.1875 52.972656 123.222656 52.925781 C 123.296875 52.824219 123.128906 53.042969 123.210938 52.941406 C 123.226562 52.917969 123.246094 52.894531 123.265625 52.871094 C 123.347656 52.769531 123.433594 52.664062 123.523438 52.566406 C 123.691406 52.375 123.871094 52.195312 124.058594 52.023438 C 124.140625 51.945312 124.226562 51.871094 124.316406 51.796875 C 124.363281 51.757812 124.410156 51.71875 124.460938 51.679688 C 124.492188 51.652344 124.570312 51.601562 124.429688 51.703125 C 124.464844 51.675781 124.5 51.648438 124.535156 51.621094 C 124.917969 51.34375 125.324219 51.105469 125.757812 50.914062 C 125.871094 50.863281 125.613281 50.96875 125.730469 50.925781 C 125.757812 50.914062 125.789062 50.902344 125.820312 50.890625 C 125.867188 50.871094 125.917969 50.851562 125.96875 50.835938 C 126.078125 50.796875 126.1875 50.761719 126.300781 50.730469 C 126.410156 50.699219 126.523438 50.671875 126.636719 50.648438 C 126.6875 50.636719 126.738281 50.628906 126.789062 50.621094 C 126.84375 50.609375 127.066406 50.585938 126.828125 50.613281 C 127.269531 50.5625 127.710938 50.558594 128.152344 50.59375 C 128.203125 50.601562 128.253906 50.605469 128.308594 50.609375 C 128.339844 50.613281 128.371094 50.617188 128.402344 50.621094 C 128.519531 50.636719 128.265625 50.601562 128.347656 50.613281 C 128.46875 50.632812 128.589844 50.652344 128.710938 50.675781 C 128.945312 50.71875 129.179688 50.773438 129.410156 50.835938 C 129.640625 50.898438 129.871094 50.972656 130.101562 51.058594 C 130.203125 51.097656 130.304688 51.136719 130.410156 51.179688 C 130.523438 51.226562 130.269531 51.117188 130.382812 51.167969 C 130.402344 51.175781 130.421875 51.183594 130.445312 51.195312 C 130.507812 51.222656 130.574219 51.253906 130.640625 51.28125 C 131.121094 51.507812 131.578125 51.78125 132.003906 52.097656 C 132.039062 52.125 132.109375 52.183594 131.96875 52.070312 C 132 52.097656 132.035156 52.121094 132.066406 52.148438 C 132.117188 52.1875 132.164062 52.230469 132.214844 52.269531 C 132.308594 52.351562 132.398438 52.433594 132.488281 52.523438 C 132.574219 52.609375 132.660156 52.695312 132.742188 52.785156 C 132.78125 52.832031 132.820312 52.878906 132.859375 52.925781 C 132.878906 52.945312 132.898438 52.96875 132.917969 52.992188 C 133.015625 53.117188 132.847656 52.902344 132.914062 52.984375 C 133 53.125 133.125 53.222656 133.28125 53.269531 C 133.449219 53.316406 133.609375 53.292969 133.757812 53.207031 C 133.902344 53.125 133.996094 53 134.042969 52.839844 C 134.078125 52.6875 134.078125 52.492188 133.980469 52.363281 C 133.335938 51.527344 132.542969 50.867188 131.601562 50.382812 C 130.671875 49.890625 129.6875 49.566406 128.644531 49.417969 C 127.632812 49.277344 126.597656 49.300781 125.625 49.648438 C 124.582031 50.03125 123.671875 50.621094 122.898438 51.425781 C 121.984375 52.359375 121.320312 53.449219 120.90625 54.695312 C 120.863281 54.859375 120.882812 55.015625 120.96875 55.164062 C 121.050781 55.3125 121.175781 55.410156 121.339844 55.457031 C 121.503906 55.496094 121.660156 55.476562 121.804688 55.390625 C 121.953125 55.308594 122.050781 55.183594 122.097656 55.023438 Z M 122.097656 55.023438 " fill-opacity="1" fill-rule="nonzero"/><path fill="#000000" d="M 121.191406 55.394531 C 121.984375 55.925781 122.828125 56.363281 123.71875 56.703125 C 124.644531 57.078125 125.601562 57.316406 126.59375 57.421875 C 127.472656 57.503906 128.320312 57.375 129.132812 57.03125 C 130.074219 56.621094 130.9375 56.085938 131.722656 55.425781 C 132.589844 54.71875 133.34375 53.90625 133.980469 52.984375 C 134.164062 52.71875 134.039062 52.289062 133.757812 52.140625 C 133.609375 52.058594 133.453125 52.039062 133.292969 52.082031 C 133.128906 52.125 133 52.21875 132.914062 52.363281 C 132.851562 52.453125 132.785156 52.542969 132.71875 52.632812 C 132.691406 52.671875 132.664062 52.707031 132.636719 52.742188 C 132.5625 52.84375 132.730469 52.625 132.652344 52.726562 C 132.628906 52.753906 132.609375 52.78125 132.585938 52.808594 C 132.445312 52.980469 132.300781 53.152344 132.148438 53.316406 C 131.828125 53.667969 131.488281 54 131.128906 54.3125 C 131.042969 54.390625 130.953125 54.464844 130.863281 54.539062 C 130.820312 54.574219 130.777344 54.609375 130.734375 54.640625 C 130.710938 54.660156 130.683594 54.679688 130.660156 54.699219 C 130.550781 54.785156 130.71875 54.65625 130.671875 54.691406 C 130.480469 54.835938 130.292969 54.976562 130.09375 55.105469 C 129.722656 55.359375 129.332031 55.582031 128.925781 55.777344 C 128.882812 55.800781 128.835938 55.820312 128.792969 55.839844 C 128.765625 55.851562 128.742188 55.863281 128.71875 55.875 C 128.628906 55.914062 128.773438 55.851562 128.777344 55.851562 C 128.679688 55.894531 128.582031 55.929688 128.480469 55.964844 C 128.292969 56.03125 128.101562 56.089844 127.90625 56.132812 C 127.824219 56.152344 127.742188 56.167969 127.65625 56.183594 C 127.5 56.207031 127.816406 56.164062 127.652344 56.183594 C 127.601562 56.1875 127.550781 56.191406 127.5 56.195312 C 127.292969 56.210938 127.082031 56.214844 126.875 56.203125 C 126.773438 56.199219 126.675781 56.191406 126.578125 56.179688 C 126.523438 56.175781 126.46875 56.171875 126.414062 56.164062 C 126.390625 56.160156 126.367188 56.15625 126.34375 56.15625 C 126.546875 56.179688 126.417969 56.164062 126.375 56.15625 C 126.148438 56.125 125.925781 56.082031 125.707031 56.03125 C 125.246094 55.921875 124.796875 55.789062 124.355469 55.625 C 124.234375 55.582031 124.117188 55.535156 123.996094 55.488281 C 123.929688 55.460938 123.863281 55.429688 123.796875 55.40625 C 123.804688 55.410156 123.9375 55.46875 123.84375 55.425781 C 123.8125 55.410156 123.777344 55.398438 123.746094 55.382812 C 123.507812 55.277344 123.273438 55.167969 123.039062 55.050781 C 122.617188 54.835938 122.207031 54.59375 121.816406 54.324219 C 121.546875 54.140625 121.117188 54.265625 120.96875 54.546875 C 120.886719 54.695312 120.867188 54.851562 120.910156 55.015625 C 120.953125 55.175781 121.046875 55.304688 121.191406 55.394531 Z M 121.191406 55.394531 " fill-opacity="1" fill-rule="nonzero"/><path fill="#000000" d="M 96.808594 57.355469 C 96.988281 56.945312 97.210938 56.558594 97.472656 56.195312 C 97.5 56.152344 97.53125 56.109375 97.5625 56.070312 C 97.585938 56.035156 97.667969 55.941406 97.550781 56.085938 C 97.5625 56.066406 97.578125 56.050781 97.589844 56.03125 C 97.667969 55.9375 97.746094 55.84375 97.824219 55.75 C 97.984375 55.570312 98.148438 55.394531 98.320312 55.226562 C 98.492188 55.0625 98.671875 54.90625 98.855469 54.757812 C 98.894531 54.722656 98.9375 54.691406 98.980469 54.65625 C 99.046875 54.605469 98.851562 54.753906 98.953125 54.679688 C 98.972656 54.664062 98.992188 54.648438 99.011719 54.636719 C 99.113281 54.558594 99.222656 54.480469 99.328125 54.410156 C 99.71875 54.144531 100.125 53.917969 100.554688 53.726562 C 100.578125 53.71875 100.597656 53.710938 100.621094 53.699219 C 100.449219 53.78125 100.558594 53.726562 100.597656 53.707031 C 100.648438 53.691406 100.695312 53.671875 100.742188 53.652344 C 100.855469 53.609375 100.964844 53.570312 101.078125 53.535156 C 101.289062 53.46875 101.503906 53.414062 101.722656 53.371094 C 101.777344 53.359375 101.832031 53.347656 101.882812 53.339844 C 101.9375 53.332031 102.132812 53.316406 101.914062 53.335938 C 102.019531 53.324219 102.128906 53.3125 102.238281 53.304688 C 102.480469 53.289062 102.726562 53.289062 102.96875 53.300781 C 103.089844 53.304688 103.210938 53.3125 103.332031 53.324219 C 103.394531 53.332031 103.453125 53.339844 103.515625 53.34375 C 103.539062 53.347656 103.5625 53.351562 103.585938 53.355469 C 103.398438 53.332031 103.523438 53.347656 103.566406 53.351562 C 103.808594 53.390625 104.046875 53.4375 104.28125 53.496094 C 104.523438 53.558594 104.765625 53.628906 105 53.714844 C 105.109375 53.753906 105.21875 53.792969 105.324219 53.835938 C 105.355469 53.847656 105.382812 53.859375 105.410156 53.871094 C 105.492188 53.90625 105.261719 53.808594 105.382812 53.859375 C 105.441406 53.886719 105.503906 53.914062 105.566406 53.941406 C 106.066406 54.175781 106.542969 54.457031 106.988281 54.78125 C 107.042969 54.820312 107.097656 54.863281 107.152344 54.902344 C 107.015625 54.804688 107.09375 54.859375 107.128906 54.882812 C 107.160156 54.910156 107.195312 54.9375 107.226562 54.964844 C 107.332031 55.050781 107.4375 55.136719 107.535156 55.226562 C 107.746094 55.414062 107.945312 55.613281 108.136719 55.820312 C 108.257812 55.941406 108.402344 56 108.574219 56 C 108.746094 56 108.890625 55.941406 109.011719 55.820312 C 109.128906 55.699219 109.1875 55.554688 109.1875 55.382812 C 109.1875 55.214844 109.128906 55.070312 109.011719 54.945312 C 108.277344 54.144531 107.421875 53.496094 106.449219 53.003906 C 105.480469 52.511719 104.453125 52.207031 103.367188 52.089844 C 102.355469 51.980469 101.371094 52.105469 100.414062 52.460938 C 99.417969 52.84375 98.519531 53.390625 97.722656 54.101562 C 96.902344 54.824219 96.179688 55.722656 95.742188 56.730469 C 95.660156 56.882812 95.640625 57.039062 95.679688 57.207031 C 95.726562 57.367188 95.820312 57.492188 95.964844 57.578125 C 96.113281 57.664062 96.273438 57.683594 96.441406 57.640625 C 96.605469 57.597656 96.726562 57.503906 96.808594 57.355469 Z M 96.808594 57.355469 " fill-opacity="1" fill-rule="nonzero"/><path fill="#000000" d="M 95.742188 57.355469 C 96.34375 58.152344 97.1875 58.722656 98.074219 59.167969 C 98.832031 59.5625 99.625 59.859375 100.453125 60.0625 C 101.101562 60.214844 101.753906 60.296875 102.417969 60.304688 C 103.03125 60.300781 103.632812 60.203125 104.21875 60.011719 C 105.308594 59.636719 106.28125 59.0625 107.136719 58.289062 C 107.996094 57.535156 108.734375 56.613281 109.167969 55.546875 C 109.214844 55.378906 109.195312 55.222656 109.105469 55.070312 C 109.019531 54.925781 108.894531 54.828125 108.730469 54.785156 C 108.566406 54.742188 108.410156 54.761719 108.261719 54.851562 C 108.125 54.941406 108.03125 55.0625 107.976562 55.21875 C 107.9375 55.320312 108.042969 55.070312 108 55.171875 C 107.988281 55.191406 107.980469 55.214844 107.96875 55.234375 C 107.949219 55.28125 107.925781 55.328125 107.90625 55.371094 C 107.859375 55.46875 107.808594 55.5625 107.753906 55.652344 C 107.648438 55.839844 107.53125 56.019531 107.402344 56.195312 C 107.371094 56.238281 107.339844 56.28125 107.308594 56.324219 C 107.234375 56.421875 107.402344 56.203125 107.324219 56.300781 C 107.3125 56.316406 107.296875 56.335938 107.285156 56.351562 C 107.207031 56.449219 107.128906 56.542969 107.050781 56.632812 C 106.886719 56.816406 106.714844 56.996094 106.535156 57.167969 C 106.351562 57.339844 106.164062 57.507812 105.964844 57.667969 C 105.945312 57.683594 105.925781 57.699219 105.90625 57.714844 C 105.804688 57.796875 106.023438 57.625 105.917969 57.703125 C 105.871094 57.742188 105.824219 57.777344 105.777344 57.8125 C 105.667969 57.890625 105.5625 57.964844 105.449219 58.039062 C 105.234375 58.179688 105.011719 58.3125 104.785156 58.433594 C 104.675781 58.492188 104.5625 58.546875 104.449219 58.601562 C 104.394531 58.625 104.339844 58.648438 104.285156 58.671875 C 104.191406 58.714844 104.328125 58.65625 104.335938 58.652344 C 104.289062 58.667969 104.246094 58.6875 104.203125 58.707031 C 103.972656 58.796875 103.742188 58.871094 103.503906 58.933594 C 103.390625 58.960938 103.277344 58.984375 103.164062 59.007812 C 103.105469 59.011719 103.046875 59.019531 102.988281 59.035156 L 103.066406 59.027344 C 103.035156 59.03125 103.007812 59.03125 102.980469 59.035156 C 102.9375 59.039062 102.894531 59.046875 102.851562 59.046875 C 102.535156 59.074219 102.214844 59.074219 101.898438 59.046875 C 101.828125 59.039062 101.753906 59.035156 101.683594 59.027344 C 101.65625 59.023438 101.625 59.019531 101.597656 59.015625 C 101.558594 59.011719 101.417969 58.976562 101.589844 59.015625 C 101.433594 58.980469 101.273438 58.964844 101.117188 58.9375 C 100.753906 58.867188 100.398438 58.773438 100.046875 58.65625 C 99.855469 58.59375 99.667969 58.527344 99.480469 58.453125 C 99.433594 58.433594 99.390625 58.414062 99.34375 58.398438 C 99.300781 58.378906 99.121094 58.300781 99.324219 58.390625 C 99.21875 58.34375 99.113281 58.300781 99.011719 58.25 C 98.546875 58.039062 98.101562 57.792969 97.675781 57.503906 C 97.625 57.46875 97.574219 57.433594 97.523438 57.398438 C 97.480469 57.363281 97.308594 57.226562 97.476562 57.363281 C 97.382812 57.285156 97.289062 57.210938 97.199219 57.128906 C 97.109375 57.050781 97.027344 56.96875 96.945312 56.882812 C 96.910156 56.847656 96.875 56.808594 96.84375 56.769531 C 96.828125 56.75 96.8125 56.730469 96.796875 56.714844 C 96.699219 56.59375 96.871094 56.8125 96.808594 56.730469 C 96.722656 56.589844 96.597656 56.496094 96.441406 56.445312 C 96.273438 56.402344 96.113281 56.421875 95.964844 56.507812 C 95.710938 56.671875 95.535156 57.078125 95.742188 57.355469 Z M 95.742188 57.355469 " fill-opacity="1" fill-rule="nonzero"/><path fill="#000000" d="M 101.730469 54.53125 C 101.785156 54.761719 101.832031 54.992188 101.867188 55.226562 C 101.882812 55.285156 101.890625 55.34375 101.894531 55.402344 L 101.882812 55.324219 C 101.886719 55.355469 101.890625 55.382812 101.894531 55.414062 C 101.910156 55.53125 101.921875 55.648438 101.933594 55.765625 C 101.96875 56.222656 101.976562 56.679688 101.953125 57.136719 C 101.953125 57.304688 102.015625 57.449219 102.136719 57.570312 C 102.257812 57.691406 102.402344 57.753906 102.570312 57.753906 C 102.742188 57.75 102.886719 57.6875 103.003906 57.570312 C 103.125 57.449219 103.1875 57.304688 103.191406 57.136719 C 103.238281 56.144531 103.148438 55.167969 102.925781 54.203125 C 102.878906 54.039062 102.78125 53.914062 102.632812 53.832031 C 102.484375 53.746094 102.328125 53.726562 102.164062 53.769531 C 102 53.820312 101.878906 53.917969 101.796875 54.0625 C 101.710938 54.210938 101.691406 54.367188 101.730469 54.53125 Z M 101.730469 54.53125 " fill-opacity="1" fill-rule="nonzero"/><path fill="#000000" d="M 126.910156 51.910156 C 126.914062 51.925781 126.96875 52.058594 126.976562 52.058594 C 126.9375 51.96875 126.933594 51.957031 126.957031 52.019531 C 126.96875 52.042969 126.976562 52.070312 126.988281 52.09375 C 127.019531 52.183594 127.050781 52.269531 127.074219 52.359375 C 127.105469 52.460938 127.128906 52.566406 127.152344 52.667969 C 127.160156 52.707031 127.167969 52.75 127.175781 52.789062 C 127.179688 52.8125 127.183594 52.839844 127.1875 52.867188 C 127.195312 52.933594 127.195312 52.917969 127.179688 52.820312 C 127.179688 52.875 127.183594 52.925781 127.195312 52.980469 C 127.199219 53.019531 127.203125 53.058594 127.203125 53.097656 C 127.210938 53.207031 127.210938 53.3125 127.207031 53.417969 C 127.203125 53.511719 127.195312 53.605469 127.1875 53.699219 C 127.183594 53.722656 127.179688 53.75 127.175781 53.777344 C 127.191406 53.679688 127.191406 53.664062 127.183594 53.730469 C 127.171875 53.785156 127.164062 53.835938 127.152344 53.886719 C 127.089844 54.203125 127.242188 54.570312 127.585938 54.648438 C 127.890625 54.71875 128.277344 54.554688 128.34375 54.21875 C 128.550781 53.199219 128.429688 52.222656 127.976562 51.289062 C 127.835938 50.996094 127.394531 50.894531 127.128906 51.066406 C 126.832031 51.261719 126.757812 51.597656 126.910156 51.914062 Z M 126.910156 51.910156 " fill-opacity="1" fill-rule="nonzero"/><path fill="#000000" d="M 76.503906 131.171875 C 76.726562 131.390625 76.9375 131.621094 77.148438 131.847656 C 77.699219 132.449219 78.226562 133.070312 78.734375 133.707031 C 78.8125 133.8125 78.894531 133.914062 78.976562 134.019531 C 78.996094 134.042969 79.015625 134.070312 79.039062 134.097656 C 79.046875 134.109375 78.945312 133.976562 78.984375 134.03125 L 79.011719 134.066406 C 79.054688 134.121094 79.097656 134.175781 79.136719 134.230469 C 79.3125 134.457031 79.480469 134.6875 79.648438 134.921875 C 80.007812 135.414062 80.351562 135.917969 80.683594 136.433594 C 81.414062 137.558594 82.058594 138.730469 82.621094 139.953125 C 82.695312 140.113281 82.765625 140.277344 82.835938 140.4375 C 82.84375 140.457031 82.851562 140.472656 82.859375 140.492188 C 82.890625 140.566406 82.808594 140.375 82.839844 140.449219 C 82.855469 140.484375 82.871094 140.519531 82.882812 140.554688 C 82.921875 140.644531 82.957031 140.730469 82.992188 140.820312 C 83.121094 141.148438 83.242188 141.476562 83.355469 141.808594 C 83.585938 142.476562 83.773438 143.15625 83.917969 143.847656 C 83.992188 144.195312 84.054688 144.542969 84.101562 144.890625 C 84.117188 145.003906 84.085938 144.757812 84.101562 144.898438 C 84.109375 144.941406 84.113281 144.988281 84.121094 145.03125 C 84.128906 145.121094 84.140625 145.210938 84.148438 145.300781 C 84.164062 145.472656 84.179688 145.644531 84.1875 145.816406 C 84.222656 146.609375 84.207031 147.402344 84.132812 148.191406 C 84.097656 148.605469 84.054688 149.015625 84.003906 149.425781 C 84 149.449219 83.996094 149.46875 83.992188 149.492188 C 83.992188 149.492188 84.011719 149.363281 84 149.433594 C 83.996094 149.484375 83.988281 149.535156 83.980469 149.582031 C 83.964844 149.679688 83.953125 149.777344 83.9375 149.875 C 83.90625 150.0625 83.875 150.253906 83.839844 150.441406 C 83.71875 151.113281 83.5625 151.777344 83.371094 152.433594 C 83.207031 152.992188 83.015625 153.542969 82.792969 154.085938 C 82.785156 154.109375 82.742188 154.210938 82.785156 154.101562 C 82.832031 153.996094 82.785156 154.105469 82.773438 154.132812 C 82.746094 154.191406 82.722656 154.253906 82.695312 154.3125 C 82.644531 154.425781 82.589844 154.539062 82.539062 154.652344 C 82.4375 154.859375 82.335938 155.0625 82.226562 155.265625 C 82.039062 155.605469 81.835938 155.9375 81.617188 156.261719 C 81.523438 156.394531 81.429688 156.523438 81.332031 156.652344 C 81.28125 156.71875 81.445312 156.507812 81.386719 156.582031 C 81.375 156.597656 81.363281 156.613281 81.351562 156.625 C 81.328125 156.65625 81.304688 156.683594 81.285156 156.710938 C 81.242188 156.761719 81.199219 156.8125 81.15625 156.863281 C 80.957031 157.105469 80.738281 157.324219 80.503906 157.527344 C 80.425781 157.59375 80.546875 157.492188 80.59375 157.457031 C 80.457031 157.546875 80.359375 157.667969 80.3125 157.828125 C 80.265625 157.996094 80.289062 158.152344 80.375 158.304688 C 80.539062 158.558594 80.941406 158.734375 81.21875 158.527344 C 81.429688 158.363281 81.625 158.1875 81.804688 157.992188 C 82.25 157.511719 82.640625 156.992188 82.976562 156.433594 C 83.507812 155.554688 83.9375 154.636719 84.273438 153.667969 C 84.734375 152.316406 85.054688 150.929688 85.226562 149.511719 C 85.4375 147.921875 85.53125 146.316406 85.316406 144.722656 C 85.113281 143.277344 84.742188 141.878906 84.199219 140.527344 C 83.667969 139.199219 83.035156 137.917969 82.296875 136.691406 C 81.660156 135.628906 80.964844 134.605469 80.214844 133.617188 C 79.625 132.839844 79.011719 132.082031 78.363281 131.351562 C 78.058594 131.007812 77.746094 130.667969 77.421875 130.339844 C 77.40625 130.328125 77.390625 130.3125 77.375 130.296875 C 77.144531 130.070312 76.730469 130.050781 76.503906 130.296875 C 76.386719 130.417969 76.324219 130.566406 76.324219 130.734375 C 76.324219 130.902344 76.386719 131.050781 76.503906 131.171875 Z M 76.503906 131.171875 " fill-opacity="1" fill-rule="nonzero"/><path fill="#000000" d="M 108.296875 129.339844 C 108.296875 130.285156 108.246094 131.226562 108.171875 132.167969 C 108.128906 132.6875 108.078125 133.207031 108.019531 133.726562 C 107.992188 134 107.957031 134.269531 107.925781 134.539062 C 107.910156 134.671875 107.890625 134.804688 107.875 134.9375 C 107.867188 135 107.859375 135.066406 107.851562 135.128906 L 107.835938 135.222656 C 107.820312 135.367188 107.851562 135.117188 107.835938 135.25 C 107.511719 137.597656 107.09375 139.933594 106.609375 142.253906 C 106.121094 144.601562 105.566406 146.9375 104.949219 149.253906 C 104.347656 151.507812 103.660156 153.734375 102.886719 155.933594 C 102.527344 156.960938 102.125 157.96875 101.746094 158.988281 C 101.742188 159 101.734375 159.015625 101.730469 159.027344 C 101.605469 159.328125 101.863281 159.71875 102.164062 159.789062 C 102.523438 159.871094 102.789062 159.675781 102.921875 159.355469 C 103.261719 158.527344 103.570312 157.6875 103.871094 156.84375 C 104.621094 154.746094 105.296875 152.625 105.898438 150.476562 C 106.550781 148.136719 107.117188 145.773438 107.628906 143.402344 C 108.132812 141.058594 108.574219 138.699219 108.921875 136.324219 C 109.226562 134.226562 109.476562 132.109375 109.523438 129.984375 C 109.53125 129.769531 109.53125 129.554688 109.53125 129.339844 C 109.53125 129.015625 109.25 128.707031 108.914062 128.722656 C 108.746094 128.726562 108.601562 128.785156 108.480469 128.90625 C 108.359375 129.027344 108.300781 129.171875 108.296875 129.339844 Z M 108.296875 129.339844 " fill-opacity="1" fill-rule="nonzero"/><path fill="#000000" d="M 96.121094 129.339844 C 96.289062 131.195312 96.300781 133.066406 96.292969 134.925781 C 96.285156 137.332031 96.207031 139.738281 96.058594 142.144531 C 95.988281 143.339844 95.898438 144.535156 95.78125 145.726562 C 95.730469 146.246094 95.675781 146.761719 95.613281 147.28125 C 95.582031 147.535156 95.550781 147.792969 95.519531 148.046875 C 95.511719 148.109375 95.503906 148.167969 95.496094 148.230469 C 95.488281 148.28125 95.4375 148.496094 95.484375 148.308594 C 95.453125 148.441406 95.445312 148.585938 95.429688 148.71875 C 95.136719 150.816406 94.792969 152.90625 94.425781 154.992188 C 94.21875 156.164062 94.003906 157.335938 93.785156 158.503906 C 93.78125 158.523438 93.777344 158.539062 93.773438 158.558594 C 93.714844 158.875 93.863281 159.242188 94.207031 159.320312 C 94.511719 159.386719 94.902344 159.226562 94.964844 158.886719 C 95.15625 157.910156 95.332031 156.929688 95.507812 155.949219 C 95.871094 153.902344 96.214844 151.855469 96.511719 149.800781 C 96.839844 147.5625 97.078125 145.320312 97.238281 143.066406 C 97.402344 140.636719 97.5 138.207031 97.523438 135.769531 C 97.542969 133.800781 97.539062 131.828125 97.398438 129.867188 C 97.386719 129.691406 97.371094 129.515625 97.355469 129.339844 C 97.328125 129.019531 97.09375 128.707031 96.738281 128.722656 C 96.429688 128.738281 96.089844 128.996094 96.121094 129.339844 Z M 96.121094 129.339844 " fill-opacity="1" fill-rule="nonzero"/><path fill="#000000" d="M 58.371094 115.269531 C 58.660156 112.128906 58.824219 108.96875 58.9375 105.8125 C 59.148438 99.964844 59.195312 94.039062 58.453125 88.222656 C 58.0625 85.191406 57.421875 82.167969 56.652344 79.210938 C 55.859375 76.179688 54.835938 73.171875 53.328125 70.414062 C 51.859375 67.71875 49.894531 65.3125 47.410156 63.5 C 45.980469 62.453125 44.398438 61.675781 42.765625 61 C 41.152344 60.320312 39.484375 59.824219 37.761719 59.511719 C 35.222656 59.0625 32.710938 59.167969 30.222656 59.828125 C 29.074219 60.140625 27.964844 60.554688 26.773438 60.6875 C 25.519531 60.824219 24.195312 60.765625 23.046875 60.210938 C 22.4375 59.917969 21.90625 59.519531 21.457031 59.011719 C 21.007812 58.507812 20.671875 57.933594 20.449219 57.296875 C 20.070312 56.152344 20.3125 55.003906 20.941406 53.957031 C 21.691406 52.714844 22.851562 51.742188 24.074219 50.984375 C 25.519531 50.097656 27.066406 49.453125 28.71875 49.0625 C 31.390625 48.410156 34.203125 48.3125 36.945312 48.523438 C 40.308594 48.78125 43.667969 49.570312 46.761719 50.921875 C 49.964844 52.3125 52.769531 54.273438 55.179688 56.804688 C 57.378906 59.121094 59.140625 61.824219 60.53125 64.695312 C 63.382812 70.582031 64.625 77.199219 64.84375 83.703125 C 64.957031 87.015625 64.769531 90.328125 64.621094 93.636719 C 64.46875 96.972656 64.179688 100.296875 63.75 103.601562 C 63.671875 104.210938 63.597656 104.746094 63.5 105.414062 C 63.449219 105.742188 63.582031 106.078125 63.929688 106.175781 C 64.222656 106.253906 64.640625 106.074219 64.691406 105.742188 C 65.546875 100.023438 65.902344 94.257812 66.074219 88.484375 C 66.277344 81.679688 65.625 74.75 63.355469 68.300781 C 61.175781 62.101562 57.507812 56.324219 52.082031 52.492188 C 46.523438 48.566406 39.382812 46.820312 32.625 47.25 C 29.578125 47.445312 26.554688 48.121094 23.886719 49.65625 C 21.488281 51.03125 18.75 53.503906 19.046875 56.5625 C 19.1875 58.015625 19.988281 59.421875 21.078125 60.378906 C 22.171875 61.339844 23.535156 61.824219 24.96875 61.953125 C 26.359375 62.074219 27.789062 61.847656 29.125 61.453125 C 30.148438 61.152344 31.152344 60.835938 32.207031 60.660156 C 32.773438 60.566406 33.339844 60.507812 33.910156 60.484375 C 34.578125 60.453125 35.25 60.464844 35.917969 60.515625 C 37.507812 60.636719 39.074219 61.003906 40.585938 61.503906 C 43.789062 62.5625 46.777344 64.164062 49.113281 66.632812 C 53.449219 71.210938 55.175781 77.65625 56.410156 83.671875 C 57.007812 86.53125 57.40625 89.421875 57.601562 92.335938 C 57.800781 95.375 57.84375 98.425781 57.808594 101.46875 C 57.757812 105.847656 57.550781 110.21875 57.195312 114.589844 C 57.175781 114.816406 57.15625 115.042969 57.136719 115.269531 C 57.105469 115.601562 57.441406 115.890625 57.753906 115.890625 C 58.113281 115.890625 58.339844 115.605469 58.371094 115.269531 Z M 58.371094 115.269531 " fill-opacity="1" fill-rule="nonzero"/><path fill="#000000" d="M 101.304688 63.578125 L 97.640625 64.789062 C 97.332031 64.890625 97.101562 65.222656 97.207031 65.550781 C 97.304688 65.855469 97.640625 66.089844 97.96875 65.984375 L 101.632812 64.769531 C 101.941406 64.667969 102.171875 64.339844 102.066406 64.007812 C 101.964844 63.703125 101.632812 63.46875 101.304688 63.578125 Z M 101.304688 63.578125 " fill-opacity="1" fill-rule="nonzero"/><path fill="#000000" d="M 101.269531 66.121094 L 97.199219 69.332031 C 97.078125 69.453125 97.015625 69.601562 97.015625 69.769531 C 97.019531 69.941406 97.078125 70.085938 97.199219 70.207031 C 97.320312 70.328125 97.464844 70.386719 97.632812 70.390625 C 97.800781 70.378906 97.945312 70.320312 98.070312 70.207031 L 102.144531 66.996094 C 102.265625 66.875 102.324219 66.726562 102.324219 66.558594 C 102.324219 66.386719 102.261719 66.242188 102.144531 66.121094 C 102.023438 66 101.878906 65.9375 101.707031 65.9375 C 101.539062 65.949219 101.394531 66.007812 101.269531 66.121094 Z M 101.269531 66.121094 " fill-opacity="1" fill-rule="nonzero"/><path fill="#000000" d="M 103.507812 68.578125 C 102.429688 69.800781 101.441406 71.09375 100.542969 72.457031 C 100.460938 72.601562 100.4375 72.757812 100.480469 72.925781 C 100.523438 73.089844 100.621094 73.214844 100.765625 73.300781 C 100.914062 73.382812 101.070312 73.402344 101.234375 73.359375 C 101.398438 73.316406 101.523438 73.222656 101.609375 73.078125 C 102.039062 72.425781 102.492188 71.789062 102.964844 71.167969 C 102.992188 71.136719 103.015625 71.101562 103.042969 71.066406 C 103.082031 71.015625 103.078125 71.023438 103.023438 71.09375 L 103.078125 71.023438 C 103.132812 70.953125 103.191406 70.878906 103.246094 70.808594 C 103.367188 70.65625 103.488281 70.507812 103.609375 70.359375 C 103.859375 70.050781 104.117188 69.75 104.382812 69.453125 C 104.59375 69.210938 104.636719 68.8125 104.382812 68.578125 C 104.148438 68.363281 103.734375 68.316406 103.507812 68.578125 Z M 103.507812 68.578125 " fill-opacity="1" fill-rule="nonzero"/><path fill="#000000" d="M 128.40625 65.28125 C 129.3125 66.4375 130.433594 67.3125 131.773438 67.910156 C 132.179688 68.089844 132.59375 68.242188 133.015625 68.367188 C 133.183594 68.414062 133.339844 68.394531 133.488281 68.308594 C 133.632812 68.226562 133.730469 68.101562 133.777344 67.9375 C 133.820312 67.773438 133.800781 67.613281 133.71875 67.464844 C 133.632812 67.316406 133.511719 67.222656 133.347656 67.175781 C 133.183594 67.128906 133.019531 67.078125 132.859375 67.019531 C 132.78125 66.992188 132.699219 66.964844 132.621094 66.933594 C 132.585938 66.917969 132.550781 66.90625 132.519531 66.890625 L 132.453125 66.863281 C 132.375 66.832031 132.476562 66.875 132.496094 66.886719 C 132.347656 66.804688 132.1875 66.746094 132.035156 66.671875 C 131.882812 66.59375 131.734375 66.511719 131.585938 66.425781 C 131.292969 66.257812 131.007812 66.070312 130.734375 65.863281 C 130.714844 65.851562 130.695312 65.835938 130.675781 65.820312 C 130.671875 65.816406 130.78125 65.902344 130.730469 65.859375 C 130.695312 65.835938 130.664062 65.808594 130.628906 65.78125 C 130.5625 65.726562 130.5 65.675781 130.433594 65.617188 C 130.304688 65.507812 130.179688 65.394531 130.058594 65.273438 C 129.777344 65.003906 129.515625 64.714844 129.277344 64.40625 C 129.15625 64.285156 129.011719 64.226562 128.839844 64.226562 C 128.671875 64.226562 128.523438 64.289062 128.402344 64.40625 C 128.285156 64.527344 128.222656 64.675781 128.222656 64.84375 C 128.234375 65.011719 128.292969 65.15625 128.402344 65.28125 Z M 128.40625 65.28125 " fill-opacity="1" fill-rule="nonzero"/><path fill="#000000" d="M 131.179688 64.417969 C 132.523438 65.144531 133.925781 65.738281 135.382812 66.199219 C 135.546875 66.242188 135.703125 66.222656 135.851562 66.140625 C 136 66.054688 136.097656 65.929688 136.144531 65.769531 C 136.183594 65.605469 136.164062 65.449219 136.078125 65.300781 C 135.996094 65.152344 135.875 65.054688 135.710938 65.007812 C 135.359375 64.894531 135.011719 64.777344 134.667969 64.652344 C 134.496094 64.585938 134.324219 64.523438 134.152344 64.453125 C 134.074219 64.421875 133.996094 64.390625 133.917969 64.359375 C 133.878906 64.34375 133.839844 64.328125 133.800781 64.3125 L 133.722656 64.277344 L 133.769531 64.300781 C 133.101562 64.011719 132.445312 63.695312 131.804688 63.351562 C 131.519531 63.199219 131.117188 63.269531 130.960938 63.574219 C 130.808594 63.863281 130.878906 64.253906 131.179688 64.417969 Z M 131.179688 64.417969 " fill-opacity="1" fill-rule="nonzero"/><path fill="#000000" d="M 132.527344 61.996094 L 134.457031 61.996094 C 134.777344 61.996094 135.089844 61.714844 135.074219 61.378906 C 135.070312 61.210938 135.007812 61.066406 134.890625 60.945312 C 134.769531 60.824219 134.625 60.765625 134.457031 60.761719 L 132.527344 60.761719 C 132.203125 60.761719 131.894531 61.046875 131.910156 61.378906 C 131.914062 61.550781 131.972656 61.695312 132.09375 61.8125 C 132.214844 61.933594 132.359375 61.996094 132.527344 61.996094 Z M 132.527344 61.996094 " fill-opacity="1" fill-rule="nonzero"/><path fill="#000000" d="M 122.382812 90.246094 L 123.875 95.175781 C 123.96875 95.488281 124.3125 95.714844 124.636719 95.609375 C 124.949219 95.507812 125.167969 95.179688 125.066406 94.847656 L 123.574219 89.914062 C 123.480469 89.605469 123.136719 89.378906 122.8125 89.484375 C 122.503906 89.585938 122.28125 89.914062 122.382812 90.246094 Z M 122.382812 90.246094 " fill-opacity="1" fill-rule="nonzero"/><path fill="#000000" d="M 119.265625 95.683594 C 119.308594 96.140625 119.3125 96.601562 119.277344 97.0625 C 119.269531 97.175781 119.257812 97.292969 119.242188 97.40625 C 119.242188 97.433594 119.238281 97.464844 119.234375 97.492188 C 119.246094 97.398438 119.246094 97.386719 119.238281 97.453125 C 119.226562 97.511719 119.21875 97.570312 119.210938 97.625 C 119.171875 97.851562 119.125 98.078125 119.066406 98.300781 C 118.988281 98.613281 119.167969 98.988281 119.5 99.0625 C 119.664062 99.105469 119.820312 99.082031 119.964844 99 C 120.113281 98.917969 120.210938 98.792969 120.257812 98.628906 C 120.507812 97.660156 120.589844 96.679688 120.5 95.683594 C 120.496094 95.511719 120.4375 95.367188 120.320312 95.246094 C 120.199219 95.125 120.054688 95.066406 119.882812 95.0625 C 119.574219 95.078125 119.234375 95.335938 119.265625 95.683594 Z M 119.265625 95.683594 " fill-opacity="1" fill-rule="nonzero"/><path fill="#000000" d="M 115.433594 104.636719 L 115.4375 104.667969 L 115.414062 104.503906 C 115.453125 104.792969 115.453125 105.082031 115.414062 105.375 L 115.4375 105.210938 C 115.398438 105.488281 115.324219 105.757812 115.21875 106.019531 C 115.175781 106.1875 115.195312 106.347656 115.28125 106.496094 C 115.367188 106.644531 115.496094 106.742188 115.660156 106.785156 C 115.824219 106.828125 115.980469 106.804688 116.128906 106.71875 L 116.253906 106.621094 C 116.328125 106.546875 116.382812 106.453125 116.410156 106.351562 C 116.539062 106.023438 116.617188 105.691406 116.652344 105.34375 C 116.6875 104.996094 116.679688 104.652344 116.625 104.308594 C 116.578125 104.144531 116.484375 104.023438 116.339844 103.9375 C 116.191406 103.851562 116.03125 103.832031 115.863281 103.875 C 115.703125 103.921875 115.578125 104.015625 115.496094 104.160156 L 115.433594 104.308594 C 115.402344 104.417969 115.402344 104.527344 115.433594 104.636719 Z M 115.433594 104.636719 " fill-opacity="1" fill-rule="nonzero"/><path fill="#000000" d="M 124.449219 104.902344 L 124.402344 108.117188 C 124.402344 108.285156 124.464844 108.429688 124.585938 108.550781 C 124.707031 108.667969 124.851562 108.726562 125.019531 108.726562 C 125.1875 108.726562 125.335938 108.667969 125.453125 108.550781 C 125.574219 108.429688 125.636719 108.285156 125.636719 108.117188 L 125.683594 104.902344 C 125.683594 104.730469 125.625 104.582031 125.503906 104.460938 C 125.382812 104.335938 125.238281 104.273438 125.066406 104.273438 C 124.894531 104.273438 124.746094 104.335938 124.625 104.460938 C 124.503906 104.582031 124.445312 104.730469 124.449219 104.902344 Z M 124.449219 104.902344 " fill-opacity="1" fill-rule="nonzero"/><path fill="#000000" d="M 113.238281 94.621094 C 113.277344 94.664062 113.316406 94.707031 113.351562 94.753906 L 113.253906 94.628906 C 113.335938 94.734375 113.402344 94.847656 113.457031 94.972656 L 113.394531 94.824219 C 113.449219 94.953125 113.484375 95.085938 113.503906 95.226562 L 113.484375 95.0625 C 113.492188 95.125 113.496094 95.1875 113.496094 95.253906 C 113.5 95.421875 113.558594 95.570312 113.679688 95.691406 C 113.875 95.886719 114.097656 95.929688 114.351562 95.824219 C 114.605469 95.71875 114.734375 95.527344 114.734375 95.253906 C 114.722656 94.667969 114.515625 94.167969 114.109375 93.746094 C 113.988281 93.625 113.84375 93.566406 113.671875 93.566406 C 113.503906 93.566406 113.355469 93.625 113.238281 93.746094 C 113.117188 93.867188 113.054688 94.015625 113.054688 94.183594 C 113.058594 94.355469 113.121094 94.5 113.238281 94.621094 Z M 113.238281 94.621094 " fill-opacity="1" fill-rule="nonzero"/><path fill="#000000" d="M 118.03125 124.140625 C 118.074219 124.339844 118.117188 124.539062 118.148438 124.738281 C 118.152344 124.765625 118.15625 124.792969 118.160156 124.820312 C 118.167969 124.886719 118.167969 124.875 118.152344 124.777344 C 118.152344 124.832031 118.160156 124.886719 118.171875 124.9375 C 118.183594 125.03125 118.191406 125.128906 118.199219 125.222656 C 118.226562 125.636719 118.222656 126.050781 118.1875 126.460938 C 118.179688 126.5625 118.167969 126.664062 118.15625 126.765625 C 118.148438 126.832031 118.148438 126.820312 118.164062 126.722656 C 118.160156 126.75 118.15625 126.777344 118.152344 126.800781 C 118.144531 126.851562 118.136719 126.898438 118.128906 126.945312 C 118.09375 127.144531 118.054688 127.34375 118.003906 127.539062 C 117.953125 127.738281 117.898438 127.933594 117.832031 128.125 C 117.800781 128.222656 117.769531 128.320312 117.730469 128.414062 C 117.710938 128.464844 117.691406 128.515625 117.671875 128.566406 C 117.664062 128.589844 117.652344 128.617188 117.640625 128.640625 C 117.679688 128.554688 117.683594 128.542969 117.65625 128.605469 C 117.574219 128.757812 117.554688 128.914062 117.59375 129.082031 C 117.640625 129.242188 117.734375 129.367188 117.878906 129.453125 C 118.027344 129.539062 118.1875 129.558594 118.355469 129.515625 C 118.496094 129.46875 118.660156 129.375 118.722656 129.230469 C 119.101562 128.359375 119.335938 127.449219 119.421875 126.503906 C 119.5 125.59375 119.433594 124.699219 119.222656 123.8125 C 119.175781 123.648438 119.078125 123.523438 118.929688 123.441406 C 118.78125 123.355469 118.625 123.335938 118.460938 123.378906 C 118.300781 123.429688 118.175781 123.527344 118.09375 123.671875 C 118.007812 123.820312 117.988281 123.976562 118.03125 124.140625 Z M 118.03125 124.140625 " fill-opacity="1" fill-rule="nonzero"/><path fill="#000000" d="M 120.539062 114.074219 L 120.757812 115.363281 C 120.800781 115.523438 120.898438 115.644531 121.042969 115.730469 C 121.1875 115.816406 121.34375 115.839844 121.511719 115.796875 C 121.675781 115.753906 121.800781 115.65625 121.886719 115.507812 L 121.949219 115.363281 C 121.980469 115.253906 121.980469 115.140625 121.949219 115.03125 L 121.730469 113.746094 C 121.6875 113.585938 121.59375 113.460938 121.449219 113.378906 C 121.296875 113.292969 121.136719 113.269531 120.972656 113.316406 C 120.808594 113.359375 120.6875 113.457031 120.601562 113.597656 L 120.539062 113.746094 C 120.511719 113.855469 120.511719 113.964844 120.539062 114.074219 Z M 120.539062 114.074219 " fill-opacity="1" fill-rule="nonzero"/><path fill="#000000" d="M 123.820312 130.679688 C 123.746094 131.207031 123.621094 131.722656 123.453125 132.226562 C 123.410156 132.351562 123.367188 132.472656 123.320312 132.59375 C 123.308594 132.625 123.292969 132.65625 123.28125 132.6875 C 123.273438 132.707031 123.226562 132.816406 123.265625 132.726562 C 123.304688 132.628906 123.253906 132.753906 123.246094 132.765625 C 123.238281 132.789062 123.226562 132.8125 123.214844 132.839844 C 123.101562 133.085938 122.980469 133.328125 122.84375 133.566406 C 122.683594 133.847656 122.769531 134.253906 123.066406 134.410156 C 123.210938 134.496094 123.367188 134.515625 123.53125 134.472656 C 123.695312 134.429688 123.820312 134.335938 123.910156 134.191406 C 124.480469 133.199219 124.847656 132.140625 125.011719 131.011719 C 125.050781 130.84375 125.03125 130.683594 124.949219 130.535156 C 124.863281 130.386719 124.738281 130.289062 124.574219 130.246094 C 124.40625 130.203125 124.25 130.226562 124.105469 130.3125 C 123.980469 130.390625 123.84375 130.527344 123.820312 130.679688 Z M 123.820312 130.679688 " fill-opacity="1" fill-rule="nonzero"/><path fill="#000000" d="M 111.988281 131.054688 L 111.988281 134.058594 C 111.988281 134.382812 112.273438 134.691406 112.605469 134.675781 C 112.773438 134.671875 112.917969 134.613281 113.039062 134.492188 C 113.160156 134.371094 113.21875 134.226562 113.222656 134.058594 L 113.222656 131.054688 C 113.222656 130.734375 112.9375 130.421875 112.605469 130.4375 C 112.4375 130.441406 112.292969 130.5 112.171875 130.621094 C 112.050781 130.742188 111.992188 130.886719 111.988281 131.054688 Z M 111.988281 131.054688 " fill-opacity="1" fill-rule="nonzero"/><path fill="#000000" d="M 115.5 142.484375 L 114.773438 145.25 C 114.691406 145.5625 114.878906 145.9375 115.207031 146.011719 C 115.371094 146.054688 115.527344 146.03125 115.675781 145.949219 C 115.820312 145.867188 115.917969 145.742188 115.96875 145.578125 L 116.691406 142.8125 C 116.773438 142.5 116.585938 142.128906 116.257812 142.054688 C 116.09375 142.011719 115.9375 142.03125 115.792969 142.113281 C 115.644531 142.199219 115.546875 142.320312 115.5 142.484375 Z M 115.5 142.484375 " fill-opacity="1" fill-rule="nonzero"/></svg>