<svg xmlns="http://www.w3.org/2000/svg" xmlns:xlink="http://www.w3.org/1999/xlink" width="50" zoomAndPan="magnify" viewBox="0 0 37.5 37.499999" height="50" preserveAspectRatio="xMidYMid meet" version="1.0"><defs><clipPath id="3cb9e4cb17"><path d="M 5.78125 2.605469 L 33.53125 2.605469 L 33.53125 34.855469 L 5.78125 34.855469 Z M 5.78125 2.605469 " clip-rule="nonzero"/></clipPath><clipPath id="6664eab698"><path d="M 5.78125 2.605469 L 33.53125 2.605469 L 33.53125 32 L 5.78125 32 Z M 5.78125 2.605469 " clip-rule="nonzero"/></clipPath><clipPath id="6c502cf108"><path d="M 13 31 L 33.53125 31 L 33.53125 34.855469 L 13 34.855469 Z M 13 31 " clip-rule="nonzero"/></clipPath><clipPath id="7748ae60e1"><path d="M 6 31 L 14 31 L 14 34.855469 L 6 34.855469 Z M 6 31 " clip-rule="nonzero"/></clipPath><clipPath id="d97eec4ff5"><path d="M 17 26 L 19 26 L 19 34.855469 L 17 34.855469 Z M 17 26 " clip-rule="nonzero"/></clipPath></defs><g clip-path="url(#3cb9e4cb17)"><path fill="#ffffff" d="M 33.117188 30.796875 C 33.113281 30.769531 33.113281 30.742188 33.121094 30.722656 C 32.625 29.058594 32.0625 27.414062 31.425781 25.800781 C 30.722656 24.011719 29.9375 22.257812 29.078125 20.539062 C 28.628906 19.640625 28.15625 18.75 27.695312 17.859375 C 27.195312 16.890625 26.695312 15.925781 26.160156 14.976562 C 26.09375 14.859375 26.027344 14.742188 25.960938 14.621094 C 25.9375 14.578125 25.914062 14.53125 25.890625 14.488281 C 25.890625 14.488281 25.886719 14.488281 25.886719 14.488281 C 24.894531 12.722656 23.90625 10.953125 22.90625 9.191406 C 21.835938 7.308594 20.75 5.429688 19.644531 3.566406 C 19.503906 3.328125 19.363281 3.09375 19.222656 2.855469 C 19.179688 2.78125 19.085938 2.824219 19.078125 2.894531 C 18.964844 3.757812 18.84375 4.621094 18.757812 5.484375 C 18.71875 5.84375 18.726562 6.207031 18.558594 6.539062 C 18.511719 6.632812 18.445312 6.730469 18.347656 6.78125 C 18.21875 6.847656 18.046875 6.792969 17.910156 6.777344 C 17.558594 6.738281 17.207031 6.703125 16.855469 6.675781 C 15.605469 6.574219 14.347656 6.566406 13.101562 6.65625 C 12.90625 6.664062 12.714844 6.675781 12.523438 6.691406 C 12.152344 6.722656 11.785156 6.765625 11.425781 6.835938 C 10.433594 6.980469 9.453125 7.1875 8.488281 7.464844 C 8.28125 7.523438 8.085938 7.617188 7.878906 7.515625 C 7.714844 7.4375 7.574219 7.292969 7.476562 7.140625 C 7.382812 6.988281 7.332031 6.816406 7.269531 6.652344 C 7.207031 6.484375 7.148438 6.316406 7.085938 6.148438 C 6.835938 5.460938 6.585938 4.773438 6.386719 4.074219 C 6.359375 3.984375 6.242188 4.007812 6.234375 4.09375 C 6.070312 6.101562 5.976562 8.117188 5.949219 10.132812 C 5.929688 11.738281 5.953125 13.34375 6.03125 14.945312 C 6.109375 16.566406 6.246094 18.179688 6.367188 19.796875 C 6.5 21.582031 6.597656 23.367188 6.632812 25.160156 C 6.671875 27.121094 6.644531 29.085938 6.5625 31.046875 C 6.558594 31.105469 6.554688 31.164062 6.554688 31.222656 C 6.632812 31.457031 6.675781 31.695312 6.695312 31.933594 C 6.816406 31.992188 6.933594 32.046875 7.054688 32.101562 C 7.757812 32.429688 8.464844 32.742188 9.175781 33.046875 C 9.871094 33.339844 10.570312 33.621094 11.277344 33.886719 C 11.929688 34.136719 12.585938 34.375 13.25 34.605469 C 13.273438 34.632812 13.304688 34.652344 13.34375 34.660156 C 13.4375 34.6875 13.53125 34.710938 13.625 34.734375 C 13.648438 34.746094 13.675781 34.75 13.707031 34.746094 C 15.082031 34.613281 16.453125 34.457031 17.824219 34.285156 C 19.265625 34.101562 20.707031 33.898438 22.144531 33.675781 C 23.640625 33.441406 25.132812 33.1875 26.617188 32.910156 C 28.070312 32.636719 29.519531 32.34375 30.964844 32.027344 C 31.714844 31.863281 32.464844 31.695312 33.210938 31.519531 C 33.183594 31.277344 33.152344 31.035156 33.117188 30.796875 Z M 33.117188 30.796875 " fill-opacity="1" fill-rule="nonzero"/></g><path fill="#ffffff" d="M 7.675781 10.699219 C 7.820312 10.582031 8.03125 10.429688 8.3125 10.292969 C 9.109375 9.90625 9.835938 9.953125 9.980469 9.960938 C 10.871094 10.027344 11.480469 10.457031 11.710938 10.636719 C 11.523438 10.863281 11.089844 11.308594 10.398438 11.496094 C 8.941406 11.890625 7.746094 10.765625 7.675781 10.699219 Z M 7.675781 10.699219 " fill-opacity="1" fill-rule="nonzero"/><path fill="#4e4e4e" d="M 21.164062 9.117188 C 20.425781 8.242188 19.1875 8.015625 18.113281 8.21875 C 17.496094 8.335938 16.90625 8.585938 16.355469 8.886719 C 15.847656 9.160156 15.203125 9.511719 15.191406 10.171875 C 15.1875 10.226562 15.195312 10.28125 15.207031 10.335938 C 15.203125 10.621094 15.296875 10.914062 15.449219 11.164062 C 15.746094 11.648438 16.246094 11.988281 16.761719 12.195312 C 17.949219 12.667969 19.273438 12.371094 20.386719 11.839844 C 20.863281 11.613281 21.34375 11.285156 21.554688 10.773438 C 21.789062 10.195312 21.542969 9.566406 21.164062 9.117188 Z M 21.164062 9.117188 " fill-opacity="1" fill-rule="nonzero"/><path fill="#ffffff" d="M 19.464844 10.871094 C 17.832031 11.710938 16.074219 10.652344 15.9375 10.566406 C 16.074219 10.429688 16.269531 10.253906 16.527344 10.082031 C 16.730469 9.945312 17.375 9.535156 18.304688 9.417969 C 19.40625 9.28125 20.265625 9.628906 20.628906 9.800781 C 20.421875 10.117188 20.054688 10.566406 19.464844 10.871094 Z M 19.464844 10.871094 " fill-opacity="1" fill-rule="nonzero"/><path fill="#4e4e4e" d="M 12.507812 6.707031 C 11.988281 6.75 11.472656 6.820312 10.964844 6.953125 C 10.722656 7.015625 10.464844 7.074219 10.238281 7.175781 C 10.140625 7.222656 10.054688 7.289062 9.972656 7.351562 C 10.484375 8.03125 11.058594 8.6875 11.882812 8.953125 C 12.316406 9.09375 12.808594 9.117188 13.238281 8.945312 C 13.683594 8.765625 14.011719 8.414062 14.257812 8.003906 C 14.488281 7.617188 14.640625 7.195312 14.84375 6.792969 C 14.078125 6.640625 13.289062 6.644531 12.507812 6.707031 Z M 12.507812 6.707031 " fill-opacity="1" fill-rule="nonzero"/><path fill="#4e4e4e" d="M 24.476562 33.066406 C 24.933594 33.019531 25.394531 32.976562 25.851562 32.886719 C 26.203125 32.8125 26.546875 32.71875 26.886719 32.605469 C 27.15625 31.691406 27.175781 30.710938 26.960938 29.78125 C 26.742188 28.851562 26.261719 27.988281 25.609375 27.296875 C 25.308594 26.976562 24.964844 26.695312 24.59375 26.457031 C 24.460938 26.648438 24.277344 26.808594 24.144531 27.003906 C 23.96875 27.273438 23.847656 27.570312 23.734375 27.871094 C 23.515625 28.449219 23.339844 29.039062 23.21875 29.640625 C 23.09375 30.25 22.996094 30.871094 22.992188 31.496094 C 22.992188 32.082031 23.089844 32.65625 23.175781 33.230469 C 23.609375 33.210938 24.042969 33.109375 24.476562 33.066406 Z M 24.476562 33.066406 " fill-opacity="1" fill-rule="nonzero"/><path fill="#b1b1b1" d="M 13.898438 13.550781 C 14.089844 13.386719 14.160156 13.117188 14.160156 12.875 C 14.160156 12.8125 14.15625 12.742188 14.132812 12.683594 C 14.097656 12.578125 14.019531 12.507812 13.917969 12.46875 C 13.835938 12.433594 13.734375 12.425781 13.644531 12.429688 C 13.492188 12.382812 13.328125 12.390625 13.175781 12.457031 C 13.082031 12.5 13.007812 12.566406 12.953125 12.648438 C 12.835938 12.757812 12.75 12.90625 12.710938 13.058594 C 12.65625 13.273438 12.683594 13.523438 12.84375 13.6875 C 13.039062 13.882812 13.347656 13.867188 13.582031 13.765625 C 13.675781 13.730469 13.757812 13.671875 13.832031 13.605469 C 13.84375 13.59375 13.855469 13.582031 13.871094 13.574219 C 13.878906 13.566406 13.890625 13.558594 13.898438 13.550781 Z M 13.898438 13.550781 " fill-opacity="1" fill-rule="nonzero"/><path fill="#b1b1b1" d="M 15.460938 12.78125 C 15.445312 12.675781 15.390625 12.582031 15.324219 12.5 C 15.195312 12.34375 14.984375 12.253906 14.78125 12.25 C 14.609375 12.242188 14.433594 12.308594 14.3125 12.429688 C 14.28125 12.441406 14.257812 12.457031 14.234375 12.480469 C 14.105469 12.632812 14.0625 12.820312 14.101562 13.015625 C 14.136719 13.191406 14.257812 13.355469 14.414062 13.4375 C 14.523438 13.496094 14.644531 13.519531 14.765625 13.519531 C 14.871094 13.523438 14.972656 13.5 15.0625 13.453125 C 15.210938 13.390625 15.339844 13.277344 15.410156 13.121094 C 15.460938 13.011719 15.476562 12.902344 15.460938 12.78125 Z M 15.460938 12.78125 " fill-opacity="1" fill-rule="nonzero"/><path fill="#b1b1b1" d="M 27.382812 17.355469 C 27.152344 17.039062 26.949219 16.703125 26.753906 16.363281 C 26.558594 16.023438 26.351562 15.664062 26.203125 15.300781 C 26.128906 15.121094 26.078125 14.929688 26 14.75 C 25.964844 14.664062 25.921875 14.585938 25.878906 14.503906 C 25.285156 14.308594 24.585938 14.195312 24.117188 14.699219 C 23.703125 15.140625 23.660156 15.808594 23.765625 16.378906 C 23.992188 17.601562 25.070312 18.847656 26.410156 18.675781 C 26.789062 18.628906 27.144531 18.457031 27.382812 18.148438 C 27.484375 18.023438 27.558594 17.882812 27.609375 17.738281 C 27.539062 17.605469 27.46875 17.472656 27.382812 17.355469 Z M 27.382812 17.355469 " fill-opacity="1" fill-rule="nonzero"/><path fill="#b1b1b1" d="M 25.457031 20.542969 C 25.441406 20.484375 25.414062 20.429688 25.382812 20.378906 C 25.339844 20.289062 25.277344 20.207031 25.1875 20.148438 C 25.074219 20.070312 24.9375 20.058594 24.804688 20.082031 C 24.789062 20.082031 24.773438 20.082031 24.761719 20.082031 C 24.527344 20.082031 24.316406 20.222656 24.203125 20.425781 C 24.09375 20.632812 24.078125 20.886719 24.199219 21.089844 C 24.3125 21.289062 24.527344 21.410156 24.753906 21.433594 C 25.222656 21.480469 25.578125 20.984375 25.457031 20.542969 Z M 25.457031 20.542969 " fill-opacity="1" fill-rule="nonzero"/><path fill="#b1b1b1" d="M 30.25 23.691406 C 29.933594 22.933594 29.621094 22.171875 29.296875 21.417969 C 29.070312 20.898438 28.828125 20.363281 28.496094 19.894531 C 26.894531 22.050781 28.359375 24.761719 30.273438 26.605469 C 30.804688 27.117188 31.398438 27.585938 32.039062 28.011719 C 31.496094 26.550781 30.851562 25.128906 30.25 23.691406 Z M 30.25 23.691406 " fill-opacity="1" fill-rule="nonzero"/><g clip-path="url(#6664eab698)"><path fill="#000000" d="M 6.8125 31.542969 C 6.902344 29.683594 6.9375 27.820312 6.917969 25.960938 C 6.898438 24.109375 6.816406 22.257812 6.683594 20.410156 C 6.570312 18.804688 6.429688 17.199219 6.339844 15.59375 C 6.25 13.984375 6.210938 12.375 6.21875 10.761719 C 6.226562 8.824219 6.304688 6.886719 6.441406 4.953125 C 6.464844 4.671875 6.484375 4.390625 6.507812 4.109375 C 6.371094 4.128906 6.234375 4.148438 6.09375 4.167969 C 6.28125 4.820312 6.511719 5.460938 6.746094 6.101562 C 6.859375 6.417969 6.96875 6.738281 7.09375 7.050781 C 7.210938 7.351562 7.425781 7.636719 7.722656 7.78125 C 8.074219 7.957031 8.410156 7.796875 8.765625 7.699219 C 9.125 7.601562 9.484375 7.507812 9.847656 7.429688 C 10.570312 7.265625 11.300781 7.140625 12.035156 7.054688 C 13.511719 6.878906 15.007812 6.855469 16.492188 6.953125 C 16.863281 6.980469 17.230469 7.011719 17.597656 7.050781 C 17.878906 7.082031 18.230469 7.191406 18.492188 7.039062 C 18.878906 6.816406 18.964844 6.273438 18.996094 5.867188 C 19.070312 4.878906 19.222656 3.894531 19.351562 2.910156 C 19.222656 2.945312 19.089844 2.980469 18.960938 3.015625 C 20.074219 4.878906 21.160156 6.75 22.234375 8.632812 C 23.320312 10.542969 24.394531 12.457031 25.46875 14.375 C 26.507812 16.238281 27.5 18.125 28.472656 20.023438 C 29.363281 21.757812 30.179688 23.523438 30.910156 25.332031 C 31.585938 27.003906 32.191406 28.707031 32.714844 30.429688 C 32.792969 30.6875 32.871094 30.945312 32.945312 31.203125 C 33.019531 31.464844 33.425781 31.351562 33.347656 31.089844 C 32.828125 29.292969 32.226562 27.523438 31.539062 25.78125 C 30.832031 23.984375 30.046875 22.214844 29.179688 20.488281 C 28.726562 19.589844 28.257812 18.699219 27.796875 17.808594 C 27.296875 16.839844 26.792969 15.875 26.261719 14.925781 C 25.179688 12.996094 24.097656 11.066406 23.007812 9.140625 C 21.9375 7.257812 20.851562 5.378906 19.746094 3.515625 C 19.605469 3.277344 19.464844 3.042969 19.324219 2.804688 C 19.207031 2.609375 18.957031 2.714844 18.933594 2.910156 C 18.816406 3.773438 18.699219 4.636719 18.609375 5.5 C 18.574219 5.851562 18.589844 6.171875 18.429688 6.488281 C 18.394531 6.558594 18.347656 6.648438 18.269531 6.683594 C 18.164062 6.726562 18.007812 6.675781 17.898438 6.660156 C 17.546875 6.621094 17.195312 6.585938 16.84375 6.558594 C 14.019531 6.335938 11.167969 6.570312 8.441406 7.351562 C 8.277344 7.398438 8.101562 7.492188 7.933594 7.417969 C 7.785156 7.351562 7.660156 7.222656 7.578125 7.089844 C 7.488281 6.945312 7.441406 6.789062 7.382812 6.632812 C 7.324219 6.464844 7.261719 6.296875 7.199219 6.128906 C 6.949219 5.441406 6.699219 4.753906 6.5 4.054688 C 6.429688 3.816406 6.105469 3.878906 6.085938 4.109375 C 5.925781 6.121094 5.828125 8.132812 5.804688 10.148438 C 5.785156 11.753906 5.808594 13.359375 5.886719 14.964844 C 5.964844 16.582031 6.101562 18.199219 6.21875 19.816406 C 6.355469 21.597656 6.453125 23.386719 6.488281 25.175781 C 6.527344 27.136719 6.5 29.101562 6.414062 31.066406 C 6.410156 31.222656 6.402344 31.382812 6.394531 31.542969 C 6.378906 31.8125 6.800781 31.8125 6.8125 31.542969 Z M 6.8125 31.542969 " fill-opacity="1" fill-rule="nonzero"/></g><g clip-path="url(#6c502cf108)"><path fill="#000000" d="M 13.695312 34.832031 C 15.070312 34.695312 16.445312 34.542969 17.816406 34.371094 C 19.253906 34.1875 20.691406 33.984375 22.125 33.761719 C 23.609375 33.53125 25.085938 33.273438 26.5625 33.003906 C 27.628906 32.808594 28.695312 32.605469 29.753906 32.375 C 30.773438 32.152344 31.785156 31.90625 32.796875 31.652344 C 32.953125 31.613281 33.109375 31.574219 33.265625 31.535156 C 33.527344 31.46875 33.417969 31.0625 33.15625 31.125 C 32.101562 31.390625 31.050781 31.65625 29.992188 31.890625 C 28.980469 32.117188 27.960938 32.316406 26.945312 32.503906 C 25.503906 32.773438 24.058594 33.027344 22.609375 33.261719 C 21.183594 33.488281 19.75 33.695312 18.316406 33.882812 C 16.941406 34.0625 15.566406 34.222656 14.1875 34.359375 C 14.023438 34.378906 13.859375 34.394531 13.695312 34.410156 C 13.582031 34.421875 13.484375 34.5 13.484375 34.621094 C 13.484375 34.726562 13.582031 34.84375 13.695312 34.832031 Z M 13.695312 34.832031 " fill-opacity="1" fill-rule="nonzero"/></g><g clip-path="url(#7748ae60e1)"><path fill="#000000" d="M 6.429688 31.875 C 6.890625 32.101562 7.359375 32.320312 7.828125 32.535156 C 8.28125 32.746094 8.738281 32.949219 9.195312 33.144531 C 9.664062 33.34375 10.132812 33.535156 10.605469 33.722656 C 11.066406 33.90625 11.535156 34.082031 12 34.253906 C 12.480469 34.429688 12.964844 34.597656 13.449219 34.761719 C 13.511719 34.78125 13.574219 34.804688 13.640625 34.824219 C 13.742188 34.859375 13.871094 34.785156 13.898438 34.675781 C 13.921875 34.5625 13.863281 34.453125 13.75 34.417969 C 13.261719 34.253906 12.777344 34.085938 12.292969 33.914062 C 11.824219 33.742188 11.359375 33.570312 10.894531 33.386719 C 10.4375 33.207031 9.984375 33.023438 9.53125 32.832031 C 9.515625 32.824219 9.5 32.820312 9.488281 32.8125 C 9.484375 32.8125 9.527344 32.828125 9.503906 32.820312 C 9.5 32.816406 9.492188 32.816406 9.484375 32.8125 C 9.457031 32.800781 9.425781 32.785156 9.394531 32.773438 C 9.339844 32.75 9.28125 32.726562 9.222656 32.699219 C 9.109375 32.652344 9 32.601562 8.886719 32.550781 C 8.660156 32.453125 8.433594 32.351562 8.207031 32.25 C 7.742188 32.035156 7.277344 31.820312 6.820312 31.597656 C 6.757812 31.566406 6.699219 31.539062 6.640625 31.507812 C 6.542969 31.460938 6.410156 31.480469 6.355469 31.585938 C 6.304688 31.679688 6.324219 31.820312 6.429688 31.875 Z M 6.429688 31.875 " fill-opacity="1" fill-rule="nonzero"/></g><path fill="#000000" d="M 7.824219 10.847656 C 7.835938 10.835938 7.847656 10.828125 7.859375 10.820312 C 7.890625 10.792969 7.816406 10.851562 7.847656 10.828125 C 7.855469 10.824219 7.859375 10.820312 7.863281 10.816406 C 7.894531 10.792969 7.929688 10.769531 7.960938 10.746094 C 8.027344 10.699219 8.097656 10.652344 8.167969 10.609375 C 8.253906 10.558594 8.339844 10.511719 8.429688 10.46875 C 8.453125 10.457031 8.476562 10.449219 8.5 10.4375 C 8.507812 10.433594 8.519531 10.429688 8.527344 10.425781 C 8.53125 10.425781 8.574219 10.402344 8.542969 10.417969 C 8.511719 10.429688 8.558594 10.414062 8.558594 10.410156 C 8.570312 10.40625 8.582031 10.402344 8.59375 10.398438 C 8.617188 10.386719 8.644531 10.378906 8.667969 10.371094 C 8.835938 10.308594 9.011719 10.257812 9.1875 10.222656 C 9.226562 10.214844 9.265625 10.207031 9.304688 10.203125 C 9.324219 10.199219 9.339844 10.195312 9.359375 10.195312 C 9.367188 10.191406 9.375 10.191406 9.382812 10.191406 C 9.308594 10.203125 9.363281 10.191406 9.378906 10.191406 C 9.445312 10.183594 9.511719 10.175781 9.578125 10.171875 C 9.675781 10.167969 9.777344 10.164062 9.878906 10.167969 C 9.90625 10.167969 9.9375 10.171875 9.964844 10.171875 C 9.988281 10.171875 10.011719 10.175781 10.035156 10.179688 C 10.058594 10.179688 10.082031 10.183594 10.105469 10.183594 C 10.117188 10.1875 10.132812 10.1875 10.144531 10.191406 C 10.1875 10.195312 10.097656 10.183594 10.140625 10.191406 C 10.3125 10.214844 10.480469 10.253906 10.640625 10.304688 C 10.714844 10.328125 10.785156 10.351562 10.855469 10.378906 C 10.871094 10.386719 10.886719 10.394531 10.90625 10.402344 C 10.941406 10.417969 10.855469 10.378906 10.894531 10.398438 C 10.898438 10.398438 10.90625 10.402344 10.914062 10.40625 C 10.949219 10.421875 10.980469 10.4375 11.015625 10.453125 C 11.136719 10.511719 11.253906 10.578125 11.371094 10.652344 C 11.414062 10.679688 11.457031 10.710938 11.5 10.738281 C 11.515625 10.753906 11.535156 10.765625 11.554688 10.78125 C 11.5625 10.785156 11.570312 10.792969 11.578125 10.800781 C 11.613281 10.828125 11.535156 10.765625 11.5625 10.785156 C 11.5625 10.6875 11.5625 10.585938 11.5625 10.488281 C 11.484375 10.582031 11.402344 10.667969 11.3125 10.75 C 11.289062 10.773438 11.261719 10.796875 11.234375 10.820312 C 11.21875 10.832031 11.203125 10.84375 11.1875 10.855469 C 11.175781 10.867188 11.109375 10.917969 11.167969 10.871094 C 11.097656 10.925781 11.027344 10.976562 10.953125 11.023438 C 10.871094 11.074219 10.785156 11.121094 10.699219 11.164062 C 10.675781 11.171875 10.652344 11.183594 10.632812 11.191406 C 10.589844 11.210938 10.679688 11.171875 10.636719 11.191406 C 10.625 11.195312 10.613281 11.199219 10.601562 11.203125 C 10.550781 11.226562 10.496094 11.242188 10.445312 11.261719 C 10.347656 11.292969 10.246094 11.316406 10.148438 11.335938 C 10.121094 11.339844 10.097656 11.34375 10.074219 11.347656 C 10.058594 11.347656 10.015625 11.351562 10.082031 11.347656 C 10.070312 11.347656 10.058594 11.347656 10.046875 11.351562 C 9.996094 11.355469 9.945312 11.359375 9.894531 11.363281 C 9.800781 11.367188 9.703125 11.367188 9.609375 11.363281 C 9.5625 11.359375 9.519531 11.355469 9.476562 11.351562 C 9.464844 11.347656 9.453125 11.347656 9.441406 11.347656 C 9.511719 11.351562 9.46875 11.347656 9.457031 11.347656 C 9.429688 11.34375 9.40625 11.339844 9.378906 11.335938 C 9.210938 11.304688 9.042969 11.257812 8.878906 11.199219 C 8.84375 11.183594 8.804688 11.171875 8.769531 11.15625 C 8.761719 11.152344 8.753906 11.148438 8.742188 11.144531 C 8.808594 11.171875 8.773438 11.15625 8.757812 11.148438 C 8.738281 11.140625 8.71875 11.132812 8.699219 11.121094 C 8.632812 11.09375 8.566406 11.058594 8.5 11.027344 C 8.382812 10.960938 8.269531 10.890625 8.160156 10.816406 C 8.109375 10.78125 8.058594 10.746094 8.011719 10.710938 C 8.007812 10.707031 8.003906 10.703125 7.996094 10.699219 C 7.964844 10.675781 8.042969 10.734375 8.019531 10.714844 C 8.007812 10.707031 8 10.699219 7.988281 10.691406 C 7.972656 10.675781 7.953125 10.664062 7.9375 10.648438 C 7.898438 10.617188 7.859375 10.585938 7.824219 10.550781 C 7.746094 10.472656 7.605469 10.464844 7.527344 10.550781 C 7.453125 10.632812 7.441406 10.765625 7.527344 10.847656 C 7.636719 10.953125 7.757812 11.046875 7.878906 11.132812 C 8.125 11.308594 8.386719 11.449219 8.664062 11.5625 C 9.011719 11.707031 9.386719 11.789062 9.761719 11.789062 C 10.207031 11.789062 10.648438 11.671875 11.042969 11.460938 C 11.328125 11.300781 11.59375 11.089844 11.8125 10.84375 C 11.828125 10.824219 11.84375 10.804688 11.859375 10.785156 C 11.894531 10.746094 11.921875 10.695312 11.921875 10.636719 C 11.917969 10.585938 11.902344 10.523438 11.859375 10.488281 C 11.425781 10.148438 10.914062 9.902344 10.371094 9.800781 C 9.804688 9.699219 9.222656 9.742188 8.675781 9.921875 C 8.257812 10.058594 7.871094 10.273438 7.527344 10.550781 C 7.488281 10.582031 7.464844 10.648438 7.464844 10.699219 C 7.464844 10.75 7.488281 10.8125 7.527344 10.847656 C 7.566406 10.882812 7.621094 10.910156 7.675781 10.910156 C 7.734375 10.90625 7.777344 10.882812 7.824219 10.847656 Z M 7.824219 10.847656 " fill-opacity="1" fill-rule="nonzero"/><path fill="#000000" d="M 9.449219 10.199219 C 9.453125 10.210938 9.460938 10.21875 9.464844 10.230469 C 9.484375 10.273438 9.445312 10.179688 9.460938 10.226562 C 9.472656 10.253906 9.484375 10.28125 9.492188 10.3125 C 9.503906 10.347656 9.511719 10.378906 9.519531 10.414062 C 9.523438 10.433594 9.523438 10.457031 9.527344 10.476562 C 9.523438 10.460938 9.523438 10.429688 9.527344 10.464844 C 9.527344 10.476562 9.527344 10.488281 9.53125 10.496094 C 9.53125 10.542969 9.535156 10.585938 9.53125 10.632812 C 9.53125 10.65625 9.527344 10.679688 9.523438 10.703125 C 9.523438 10.730469 9.535156 10.648438 9.527344 10.695312 C 9.523438 10.703125 9.523438 10.714844 9.523438 10.722656 C 9.507812 10.792969 9.488281 10.867188 9.457031 10.933594 C 9.441406 10.980469 9.457031 11.054688 9.480469 11.097656 C 9.503906 11.140625 9.554688 11.183594 9.605469 11.195312 C 9.660156 11.207031 9.71875 11.203125 9.765625 11.171875 C 9.816406 11.140625 9.839844 11.101562 9.863281 11.046875 C 10 10.703125 9.96875 10.316406 9.8125 9.988281 C 9.765625 9.886719 9.613281 9.851562 9.523438 9.910156 C 9.421875 9.976562 9.398438 10.09375 9.449219 10.199219 Z M 9.449219 10.199219 " fill-opacity="1" fill-rule="nonzero"/><path fill="#000000" d="M 19.359375 10.6875 C 19.320312 10.707031 19.28125 10.726562 19.242188 10.746094 C 19.222656 10.753906 19.203125 10.761719 19.1875 10.769531 C 19.144531 10.789062 19.222656 10.753906 19.191406 10.765625 C 19.179688 10.773438 19.167969 10.777344 19.15625 10.78125 C 19.078125 10.8125 18.996094 10.839844 18.914062 10.867188 C 18.835938 10.890625 18.757812 10.910156 18.679688 10.925781 C 18.644531 10.933594 18.605469 10.941406 18.570312 10.945312 C 18.550781 10.949219 18.53125 10.953125 18.507812 10.957031 C 18.5 10.957031 18.492188 10.957031 18.484375 10.960938 C 18.550781 10.949219 18.503906 10.957031 18.492188 10.957031 C 18.339844 10.976562 18.183594 10.984375 18.03125 10.980469 C 17.957031 10.980469 17.882812 10.976562 17.804688 10.96875 C 17.773438 10.96875 17.738281 10.964844 17.703125 10.960938 C 17.6875 10.957031 17.671875 10.957031 17.652344 10.953125 C 17.644531 10.953125 17.636719 10.953125 17.625 10.949219 C 17.636719 10.953125 17.648438 10.953125 17.660156 10.957031 C 17.652344 10.953125 17.644531 10.953125 17.636719 10.953125 C 17.375 10.914062 17.117188 10.851562 16.867188 10.765625 C 16.761719 10.730469 16.65625 10.6875 16.554688 10.644531 C 16.511719 10.628906 16.605469 10.667969 16.5625 10.648438 C 16.550781 10.644531 16.542969 10.640625 16.535156 10.636719 C 16.511719 10.625 16.488281 10.617188 16.464844 10.605469 C 16.425781 10.585938 16.386719 10.570312 16.34375 10.550781 C 16.242188 10.5 16.140625 10.445312 16.042969 10.382812 C 16.058594 10.496094 16.070312 10.605469 16.085938 10.714844 C 16.148438 10.65625 16.210938 10.597656 16.273438 10.539062 C 16.308594 10.507812 16.34375 10.480469 16.378906 10.449219 C 16.398438 10.4375 16.414062 10.421875 16.433594 10.410156 C 16.46875 10.378906 16.394531 10.4375 16.433594 10.410156 C 16.449219 10.398438 16.460938 10.386719 16.476562 10.375 C 16.574219 10.304688 16.671875 10.238281 16.773438 10.175781 C 16.875 10.113281 16.980469 10.054688 17.089844 10 C 17.15625 9.96875 17.222656 9.9375 17.292969 9.90625 C 17.222656 9.9375 17.292969 9.90625 17.308594 9.898438 C 17.324219 9.894531 17.34375 9.886719 17.359375 9.878906 C 17.402344 9.863281 17.441406 9.847656 17.484375 9.832031 C 17.667969 9.765625 17.855469 9.714844 18.046875 9.675781 C 18.097656 9.664062 18.144531 9.65625 18.195312 9.648438 C 18.222656 9.644531 18.25 9.636719 18.277344 9.632812 C 18.277344 9.632812 18.304688 9.628906 18.304688 9.628906 C 18.273438 9.632812 18.269531 9.636719 18.292969 9.632812 C 18.300781 9.632812 18.3125 9.628906 18.320312 9.628906 C 18.429688 9.613281 18.539062 9.605469 18.652344 9.601562 C 18.859375 9.59375 19.066406 9.601562 19.269531 9.625 C 19.292969 9.625 19.3125 9.628906 19.332031 9.632812 C 19.347656 9.632812 19.390625 9.640625 19.324219 9.628906 C 19.335938 9.632812 19.347656 9.632812 19.359375 9.636719 C 19.40625 9.640625 19.453125 9.648438 19.5 9.660156 C 19.585938 9.671875 19.667969 9.691406 19.75 9.710938 C 19.914062 9.75 20.070312 9.800781 20.226562 9.859375 C 20.261719 9.871094 20.292969 9.882812 20.324219 9.894531 C 20.34375 9.902344 20.359375 9.910156 20.375 9.917969 C 20.382812 9.917969 20.386719 9.921875 20.394531 9.925781 C 20.425781 9.9375 20.339844 9.902344 20.375 9.914062 C 20.425781 9.9375 20.476562 9.960938 20.523438 9.984375 C 20.5 9.886719 20.472656 9.792969 20.449219 9.695312 C 20.40625 9.761719 20.359375 9.824219 20.3125 9.886719 C 20.296875 9.90625 20.34375 9.847656 20.328125 9.867188 C 20.324219 9.871094 20.320312 9.875 20.320312 9.878906 C 20.3125 9.886719 20.304688 9.898438 20.296875 9.90625 C 20.285156 9.921875 20.269531 9.941406 20.253906 9.960938 C 20.222656 9.996094 20.191406 10.03125 20.160156 10.066406 C 20.089844 10.144531 20.019531 10.214844 19.941406 10.285156 C 19.902344 10.324219 19.859375 10.359375 19.816406 10.394531 C 19.804688 10.402344 19.796875 10.410156 19.785156 10.417969 C 19.757812 10.4375 19.824219 10.386719 19.785156 10.417969 C 19.761719 10.433594 19.738281 10.453125 19.714844 10.46875 C 19.601562 10.550781 19.480469 10.625 19.359375 10.6875 C 19.261719 10.738281 19.222656 10.882812 19.28125 10.976562 C 19.347656 11.078125 19.464844 11.105469 19.570312 11.050781 C 19.976562 10.839844 20.335938 10.535156 20.617188 10.175781 C 20.6875 10.085938 20.75 10 20.8125 9.90625 C 20.871094 9.820312 20.835938 9.664062 20.734375 9.621094 C 20.136719 9.335938 19.480469 9.175781 18.816406 9.175781 C 18.054688 9.175781 17.289062 9.386719 16.628906 9.769531 C 16.324219 9.949219 16.039062 10.167969 15.789062 10.417969 C 15.691406 10.515625 15.71875 10.679688 15.832031 10.75 C 16.097656 10.914062 16.390625 11.042969 16.683594 11.148438 C 17.230469 11.34375 17.828125 11.445312 18.40625 11.390625 C 18.8125 11.351562 19.203125 11.238281 19.570312 11.050781 C 19.667969 11 19.703125 10.855469 19.644531 10.761719 C 19.582031 10.664062 19.464844 10.632812 19.359375 10.6875 Z M 19.359375 10.6875 " fill-opacity="1" fill-rule="nonzero"/><path fill="#000000" d="M 18.238281 9.644531 C 18.28125 9.714844 18.308594 9.792969 18.347656 9.863281 C 18.324219 9.816406 18.339844 9.84375 18.347656 9.859375 C 18.351562 9.867188 18.355469 9.875 18.355469 9.882812 C 18.363281 9.902344 18.371094 9.921875 18.378906 9.941406 C 18.390625 9.980469 18.40625 10.023438 18.414062 10.066406 C 18.425781 10.105469 18.4375 10.144531 18.445312 10.183594 C 18.449219 10.203125 18.453125 10.222656 18.453125 10.246094 C 18.457031 10.253906 18.457031 10.261719 18.460938 10.273438 C 18.464844 10.3125 18.457031 10.234375 18.457031 10.261719 C 18.46875 10.347656 18.472656 10.429688 18.472656 10.515625 C 18.46875 10.625 18.570312 10.730469 18.679688 10.726562 C 18.796875 10.722656 18.886719 10.632812 18.890625 10.515625 C 18.894531 10.136719 18.792969 9.757812 18.597656 9.433594 C 18.542969 9.339844 18.410156 9.292969 18.3125 9.355469 C 18.21875 9.417969 18.175781 9.542969 18.238281 9.644531 Z M 18.238281 9.644531 " fill-opacity="1" fill-rule="nonzero"/><path fill="#000000" d="M 13.308594 11.753906 C 13.277344 12.066406 13.558594 12.347656 13.851562 12.394531 C 14.015625 12.421875 14.183594 12.394531 14.320312 12.292969 C 14.460938 12.195312 14.554688 12.058594 14.609375 11.898438 C 14.664062 11.738281 14.667969 11.550781 14.617188 11.390625 C 14.585938 11.285156 14.46875 11.207031 14.359375 11.242188 C 14.253906 11.277344 14.179688 11.390625 14.214844 11.503906 C 14.222656 11.527344 14.226562 11.550781 14.234375 11.578125 C 14.242188 11.625 14.230469 11.523438 14.230469 11.570312 C 14.234375 11.585938 14.234375 11.601562 14.234375 11.617188 C 14.234375 11.640625 14.234375 11.667969 14.230469 11.691406 C 14.230469 11.722656 14.234375 11.664062 14.234375 11.664062 C 14.234375 11.671875 14.234375 11.679688 14.230469 11.683594 C 14.230469 11.699219 14.226562 11.714844 14.222656 11.730469 C 14.214844 11.753906 14.207031 11.78125 14.199219 11.804688 C 14.195312 11.820312 14.183594 11.832031 14.207031 11.78125 C 14.207031 11.789062 14.203125 11.792969 14.199219 11.800781 C 14.195312 11.8125 14.1875 11.824219 14.183594 11.835938 C 14.175781 11.847656 14.167969 11.859375 14.160156 11.871094 C 14.15625 11.878906 14.128906 11.914062 14.152344 11.882812 C 14.179688 11.851562 14.148438 11.890625 14.140625 11.894531 C 14.132812 11.90625 14.121094 11.917969 14.109375 11.929688 C 14.105469 11.933594 14.070312 11.960938 14.101562 11.9375 C 14.132812 11.914062 14.097656 11.9375 14.089844 11.945312 C 14.078125 11.953125 14.066406 11.957031 14.054688 11.964844 C 14.050781 11.96875 14.042969 11.972656 14.039062 11.972656 C 14.007812 11.988281 14.078125 11.960938 14.054688 11.964844 C 14.03125 11.972656 14.011719 11.980469 13.984375 11.988281 C 13.953125 11.992188 14.042969 11.980469 13.992188 11.984375 C 13.980469 11.984375 13.96875 11.984375 13.957031 11.984375 C 13.949219 11.984375 13.921875 11.984375 13.917969 11.980469 C 13.914062 11.980469 13.976562 11.992188 13.945312 11.984375 C 13.941406 11.984375 13.933594 11.984375 13.929688 11.984375 C 13.914062 11.976562 13.863281 11.972656 13.851562 11.957031 C 13.847656 11.953125 13.898438 11.980469 13.878906 11.96875 C 13.875 11.964844 13.867188 11.964844 13.863281 11.960938 C 13.851562 11.957031 13.84375 11.949219 13.832031 11.945312 C 13.820312 11.9375 13.8125 11.929688 13.800781 11.921875 C 13.789062 11.914062 13.777344 11.898438 13.820312 11.9375 C 13.8125 11.933594 13.808594 11.929688 13.800781 11.921875 C 13.78125 11.90625 13.761719 11.886719 13.746094 11.863281 C 13.789062 11.914062 13.757812 11.882812 13.75 11.867188 C 13.742188 11.851562 13.734375 11.839844 13.730469 11.828125 C 13.71875 11.8125 13.726562 11.800781 13.738281 11.851562 C 13.738281 11.847656 13.734375 11.839844 13.730469 11.832031 C 13.730469 11.828125 13.722656 11.789062 13.722656 11.789062 C 13.722656 11.789062 13.726562 11.839844 13.726562 11.824219 C 13.726562 11.816406 13.726562 11.808594 13.722656 11.800781 C 13.722656 11.785156 13.726562 11.769531 13.726562 11.75 C 13.730469 11.703125 13.699219 11.636719 13.664062 11.601562 C 13.628906 11.566406 13.570312 11.539062 13.515625 11.539062 C 13.394531 11.546875 13.320312 11.632812 13.308594 11.753906 Z M 13.308594 11.753906 " fill-opacity="1" fill-rule="nonzero"/><path fill="#000000" d="M 13.820312 12.351562 C 13.824219 12.386719 13.832031 12.425781 13.835938 12.464844 C 13.835938 12.472656 13.847656 12.535156 13.839844 12.5 C 13.835938 12.464844 13.839844 12.496094 13.84375 12.503906 C 13.84375 12.515625 13.84375 12.527344 13.847656 12.539062 C 13.855469 12.617188 13.863281 12.699219 13.867188 12.78125 C 13.867188 12.855469 13.867188 12.933594 13.859375 13.011719 C 13.851562 13.0625 13.863281 12.96875 13.855469 13.019531 C 13.851562 13.039062 13.851562 13.058594 13.84375 13.078125 C 13.835938 13.117188 13.828125 13.15625 13.8125 13.195312 C 13.808594 13.210938 13.800781 13.230469 13.796875 13.246094 C 13.796875 13.242188 13.816406 13.199219 13.800781 13.234375 C 13.796875 13.242188 13.792969 13.246094 13.792969 13.253906 C 13.777344 13.28125 13.761719 13.308594 13.746094 13.335938 C 13.734375 13.351562 13.703125 13.382812 13.746094 13.332031 C 13.738281 13.34375 13.730469 13.355469 13.722656 13.363281 C 13.703125 13.386719 13.679688 13.410156 13.65625 13.429688 C 13.644531 13.441406 13.632812 13.449219 13.625 13.457031 C 13.671875 13.414062 13.640625 13.445312 13.625 13.457031 C 13.601562 13.472656 13.574219 13.488281 13.546875 13.503906 C 13.535156 13.511719 13.523438 13.515625 13.511719 13.523438 C 13.480469 13.535156 13.535156 13.511719 13.53125 13.511719 C 13.527344 13.515625 13.519531 13.519531 13.515625 13.519531 C 13.488281 13.53125 13.457031 13.539062 13.429688 13.546875 C 13.40625 13.550781 13.355469 13.550781 13.425781 13.546875 C 13.410156 13.546875 13.394531 13.550781 13.378906 13.550781 C 13.363281 13.550781 13.351562 13.550781 13.335938 13.550781 C 13.328125 13.550781 13.324219 13.550781 13.316406 13.550781 C 13.292969 13.546875 13.375 13.558594 13.339844 13.550781 C 13.324219 13.546875 13.308594 13.546875 13.292969 13.542969 C 13.285156 13.539062 13.257812 13.535156 13.25 13.527344 C 13.246094 13.523438 13.300781 13.550781 13.273438 13.535156 C 13.265625 13.53125 13.253906 13.527344 13.246094 13.519531 C 13.234375 13.511719 13.21875 13.503906 13.207031 13.492188 C 13.164062 13.464844 13.089844 13.460938 13.042969 13.472656 C 12.996094 13.484375 12.941406 13.523438 12.917969 13.570312 C 12.863281 13.679688 12.898438 13.789062 12.992188 13.859375 C 13.253906 14.046875 13.621094 13.984375 13.863281 13.800781 C 13.988281 13.707031 14.101562 13.585938 14.164062 13.441406 C 14.246094 13.257812 14.28125 13.066406 14.285156 12.867188 C 14.289062 12.65625 14.253906 12.445312 14.222656 12.238281 C 14.214844 12.1875 14.167969 12.136719 14.128906 12.113281 C 14.082031 12.085938 14.015625 12.074219 13.964844 12.089844 C 13.914062 12.105469 13.867188 12.136719 13.839844 12.1875 C 13.8125 12.242188 13.808594 12.289062 13.820312 12.351562 Z M 13.820312 12.351562 " fill-opacity="1" fill-rule="nonzero"/><path fill="#000000" d="M 13.867188 12.980469 C 13.894531 13.3125 14.097656 13.625 14.402344 13.765625 C 14.574219 13.84375 14.75 13.871094 14.9375 13.839844 C 15.101562 13.816406 15.25 13.734375 15.378906 13.632812 C 15.523438 13.515625 15.628906 13.355469 15.679688 13.179688 C 15.710938 13.070312 15.644531 12.945312 15.535156 12.917969 C 15.421875 12.894531 15.308594 12.953125 15.277344 13.066406 C 15.273438 13.078125 15.265625 13.09375 15.261719 13.109375 C 15.261719 13.113281 15.257812 13.121094 15.253906 13.128906 C 15.265625 13.082031 15.269531 13.09375 15.261719 13.109375 C 15.25 13.136719 15.234375 13.167969 15.214844 13.195312 C 15.207031 13.207031 15.199219 13.21875 15.191406 13.230469 C 15.183594 13.246094 15.167969 13.246094 15.203125 13.214844 C 15.199219 13.21875 15.195312 13.226562 15.191406 13.230469 C 15.171875 13.253906 15.148438 13.277344 15.125 13.296875 C 15.113281 13.308594 15.105469 13.316406 15.09375 13.328125 C 15.074219 13.34375 15.128906 13.300781 15.109375 13.3125 C 15.101562 13.316406 15.097656 13.324219 15.089844 13.328125 C 15.066406 13.34375 15.039062 13.359375 15.011719 13.375 C 15 13.382812 14.984375 13.390625 14.972656 13.394531 C 14.941406 13.410156 14.992188 13.386719 14.992188 13.386719 C 14.992188 13.386719 14.976562 13.394531 14.972656 13.394531 C 14.941406 13.40625 14.910156 13.417969 14.878906 13.425781 C 14.863281 13.425781 14.851562 13.429688 14.835938 13.433594 C 14.820312 13.433594 14.804688 13.429688 14.859375 13.429688 C 14.851562 13.429688 14.84375 13.429688 14.839844 13.433594 C 14.808594 13.433594 14.777344 13.433594 14.746094 13.433594 C 14.734375 13.433594 14.71875 13.429688 14.707031 13.429688 C 14.773438 13.433594 14.726562 13.433594 14.710938 13.429688 C 14.675781 13.421875 14.644531 13.414062 14.613281 13.402344 C 14.613281 13.402344 14.59375 13.394531 14.59375 13.394531 C 14.59375 13.394531 14.644531 13.417969 14.613281 13.402344 C 14.601562 13.394531 14.589844 13.390625 14.574219 13.382812 C 14.546875 13.367188 14.523438 13.351562 14.496094 13.335938 C 14.492188 13.328125 14.484375 13.324219 14.480469 13.320312 C 14.457031 13.304688 14.515625 13.351562 14.496094 13.335938 C 14.484375 13.324219 14.472656 13.316406 14.460938 13.304688 C 14.4375 13.285156 14.417969 13.261719 14.398438 13.238281 C 14.394531 13.234375 14.386719 13.226562 14.382812 13.222656 C 14.355469 13.191406 14.414062 13.261719 14.390625 13.230469 C 14.378906 13.214844 14.371094 13.203125 14.363281 13.1875 C 14.359375 13.179688 14.308594 13.097656 14.3125 13.097656 C 14.316406 13.09375 14.332031 13.148438 14.320312 13.117188 C 14.320312 13.105469 14.316406 13.097656 14.3125 13.089844 C 14.308594 13.074219 14.300781 13.058594 14.296875 13.042969 C 14.292969 13.027344 14.289062 13.007812 14.285156 12.988281 C 14.285156 12.984375 14.285156 12.972656 14.28125 12.96875 C 14.292969 12.980469 14.289062 13.023438 14.285156 12.980469 C 14.277344 12.871094 14.195312 12.765625 14.074219 12.769531 C 13.96875 12.773438 13.855469 12.863281 13.867188 12.980469 Z M 13.867188 12.980469 " fill-opacity="1" fill-rule="nonzero"/><path fill="#000000" d="M 8.996094 26.238281 C 9.097656 27.113281 9.144531 27.996094 9.15625 28.878906 C 9.167969 29.726562 9.148438 30.574219 9.125 31.421875 C 9.109375 31.894531 9.09375 32.371094 9.082031 32.84375 C 9.082031 32.953125 9.179688 33.058594 9.292969 33.054688 C 9.410156 33.050781 9.5 32.960938 9.503906 32.84375 C 9.523438 31.996094 9.554688 31.148438 9.570312 30.300781 C 9.585938 29.445312 9.585938 28.585938 9.539062 27.730469 C 9.511719 27.230469 9.472656 26.734375 9.414062 26.238281 C 9.40625 26.179688 9.394531 26.132812 9.351562 26.089844 C 9.316406 26.050781 9.257812 26.023438 9.203125 26.027344 C 9.152344 26.027344 9.09375 26.046875 9.058594 26.089844 C 9.023438 26.128906 8.988281 26.183594 8.996094 26.238281 Z M 8.996094 26.238281 " fill-opacity="1" fill-rule="nonzero"/><path fill="#000000" d="M 11.660156 33.6875 C 11.855469 32.824219 11.996094 31.949219 12.085938 31.070312 C 12.175781 30.203125 12.214844 29.332031 12.210938 28.457031 C 12.210938 27.972656 12.195312 27.484375 12.167969 26.996094 C 12.160156 26.886719 12.074219 26.78125 11.957031 26.785156 C 11.847656 26.792969 11.738281 26.878906 11.746094 26.996094 C 11.796875 27.863281 11.808594 28.730469 11.773438 29.59375 C 11.753906 30.027344 11.722656 30.460938 11.683594 30.894531 C 11.664062 31.113281 11.636719 31.332031 11.613281 31.546875 C 11.605469 31.597656 11.597656 31.648438 11.59375 31.703125 C 11.589844 31.714844 11.589844 31.730469 11.585938 31.746094 C 11.59375 31.691406 11.589844 31.722656 11.585938 31.734375 C 11.582031 31.765625 11.578125 31.796875 11.574219 31.828125 C 11.558594 31.9375 11.542969 32.046875 11.527344 32.15625 C 11.453125 32.632812 11.363281 33.105469 11.257812 33.574219 C 11.230469 33.683594 11.289062 33.808594 11.402344 33.835938 C 11.507812 33.859375 11.632812 33.800781 11.660156 33.6875 Z M 11.660156 33.6875 " fill-opacity="1" fill-rule="nonzero"/><g clip-path="url(#d97eec4ff5)"><path fill="#000000" d="M 17.523438 26.988281 C 17.550781 27.894531 17.589844 28.796875 17.640625 29.699219 C 17.6875 30.601562 17.746094 31.5 17.816406 32.402344 C 17.855469 32.90625 17.898438 33.410156 17.945312 33.914062 C 17.949219 33.972656 17.964844 34.023438 18.007812 34.0625 C 18.042969 34.101562 18.101562 34.128906 18.152344 34.125 C 18.257812 34.121094 18.375 34.03125 18.363281 33.914062 C 18.28125 33.015625 18.210938 32.113281 18.152344 31.214844 C 18.089844 30.3125 18.039062 29.410156 18 28.507812 C 17.976562 28 17.957031 27.496094 17.941406 26.988281 C 17.9375 26.878906 17.847656 26.773438 17.730469 26.777344 C 17.621094 26.785156 17.519531 26.871094 17.523438 26.988281 Z M 17.523438 26.988281 " fill-opacity="1" fill-rule="nonzero"/></g><path fill="#000000" d="M 21.273438 33.523438 C 21.253906 32.832031 21.238281 32.144531 21.21875 31.453125 C 21.203125 30.699219 21.183594 29.941406 21.164062 29.183594 C 21.152344 28.824219 21.144531 28.464844 21.136719 28.101562 C 21.132812 27.992188 21.042969 27.886719 20.925781 27.890625 C 20.816406 27.898438 20.714844 27.984375 20.714844 28.101562 C 20.734375 28.792969 20.75 29.480469 20.769531 30.171875 C 20.789062 30.925781 20.808594 31.683594 20.824219 32.441406 C 20.835938 32.800781 20.84375 33.160156 20.851562 33.523438 C 20.855469 33.632812 20.949219 33.738281 21.0625 33.734375 C 21.175781 33.726562 21.273438 33.640625 21.273438 33.523438 Z M 21.273438 33.523438 " fill-opacity="1" fill-rule="nonzero"/><path fill="#000000" d="M 13.601562 24.320312 C 13.601562 24.585938 13.601562 24.847656 13.601562 25.113281 C 13.601562 25.222656 13.699219 25.328125 13.8125 25.324219 C 13.925781 25.320312 14.019531 25.230469 14.019531 25.113281 C 14.019531 24.847656 14.019531 24.585938 14.019531 24.320312 C 14.019531 24.210938 13.925781 24.105469 13.8125 24.109375 C 13.699219 24.117188 13.601562 24.203125 13.601562 24.320312 Z M 13.601562 24.320312 " fill-opacity="1" fill-rule="nonzero"/><path fill="#000000" d="M 14.257812 22.738281 C 14.265625 22.785156 14.273438 22.828125 14.28125 22.875 C 14.28125 22.886719 14.285156 22.898438 14.285156 22.910156 C 14.289062 22.9375 14.285156 22.898438 14.28125 22.890625 C 14.285156 22.914062 14.289062 22.933594 14.289062 22.953125 C 14.296875 23.027344 14.304688 23.097656 14.304688 23.171875 C 14.308594 23.324219 14.296875 23.476562 14.285156 23.628906 C 14.277344 23.738281 14.386719 23.84375 14.496094 23.839844 C 14.617188 23.835938 14.695312 23.746094 14.707031 23.628906 C 14.714844 23.472656 14.726562 23.316406 14.722656 23.160156 C 14.71875 22.980469 14.695312 22.804688 14.660156 22.625 C 14.640625 22.519531 14.503906 22.445312 14.402344 22.480469 C 14.289062 22.515625 14.238281 22.621094 14.257812 22.738281 Z M 14.257812 22.738281 " fill-opacity="1" fill-rule="nonzero"/><path fill="#000000" d="M 15.566406 22.738281 C 15.566406 23.035156 15.566406 23.332031 15.566406 23.628906 C 15.566406 23.738281 15.664062 23.847656 15.777344 23.839844 C 15.890625 23.835938 15.988281 23.746094 15.988281 23.628906 C 15.988281 23.332031 15.988281 23.035156 15.988281 22.738281 C 15.988281 22.628906 15.890625 22.523438 15.777344 22.527344 C 15.664062 22.535156 15.566406 22.621094 15.566406 22.738281 Z M 15.566406 22.738281 " fill-opacity="1" fill-rule="nonzero"/><path fill="#000000" d="M 15.457031 25.863281 C 15.496094 26.160156 15.539062 26.457031 15.578125 26.75 C 15.585938 26.800781 15.636719 26.855469 15.675781 26.878906 C 15.722656 26.902344 15.789062 26.914062 15.835938 26.898438 C 15.886719 26.882812 15.9375 26.851562 15.960938 26.800781 C 15.992188 26.75 15.992188 26.699219 15.984375 26.640625 C 15.941406 26.34375 15.902344 26.046875 15.859375 25.753906 C 15.855469 25.703125 15.804688 25.648438 15.765625 25.625 C 15.71875 25.601562 15.652344 25.589844 15.601562 25.605469 C 15.550781 25.621094 15.503906 25.652344 15.476562 25.703125 C 15.449219 25.753906 15.449219 25.804688 15.457031 25.863281 Z M 15.457031 25.863281 " fill-opacity="1" fill-rule="nonzero"/><path fill="#000000" d="M 14.492188 28.121094 C 14.460938 28.277344 14.433594 28.433594 14.414062 28.589844 C 14.390625 28.746094 14.386719 28.910156 14.390625 29.070312 C 14.394531 29.179688 14.484375 29.285156 14.601562 29.28125 C 14.710938 29.273438 14.816406 29.1875 14.8125 29.070312 C 14.804688 28.910156 14.8125 28.753906 14.832031 28.597656 C 14.832031 28.574219 14.824219 28.648438 14.828125 28.625 C 14.828125 28.613281 14.828125 28.605469 14.832031 28.597656 C 14.832031 28.582031 14.835938 28.566406 14.839844 28.550781 C 14.84375 28.515625 14.847656 28.480469 14.855469 28.449219 C 14.867188 28.378906 14.882812 28.304688 14.894531 28.234375 C 14.90625 28.175781 14.902344 28.125 14.875 28.070312 C 14.847656 28.027344 14.796875 27.984375 14.75 27.976562 C 14.644531 27.953125 14.511719 28.007812 14.492188 28.121094 Z M 14.492188 28.121094 " fill-opacity="1" fill-rule="nonzero"/><path fill="#000000" d="M 13.402344 27.882812 C 13.402344 28.046875 13.402344 28.207031 13.382812 28.367188 C 13.375 28.417969 13.390625 28.316406 13.382812 28.363281 C 13.378906 28.378906 13.378906 28.394531 13.375 28.410156 C 13.371094 28.441406 13.363281 28.472656 13.359375 28.5 C 13.347656 28.574219 13.332031 28.644531 13.316406 28.71875 C 13.296875 28.824219 13.347656 28.949219 13.464844 28.976562 C 13.566406 29 13.699219 28.945312 13.722656 28.832031 C 13.75 28.679688 13.78125 28.53125 13.800781 28.378906 C 13.820312 28.214844 13.824219 28.046875 13.824219 27.882812 C 13.824219 27.773438 13.726562 27.667969 13.613281 27.671875 C 13.5 27.675781 13.402344 27.765625 13.402344 27.882812 Z M 13.402344 27.882812 " fill-opacity="1" fill-rule="nonzero"/><path fill="#000000" d="M 15.746094 30.0625 C 15.777344 30.324219 15.8125 30.589844 15.84375 30.851562 C 15.851562 30.910156 15.863281 30.957031 15.90625 31 C 15.941406 31.039062 16 31.066406 16.054688 31.0625 C 16.109375 31.0625 16.164062 31.042969 16.203125 31 C 16.238281 30.964844 16.269531 30.90625 16.261719 30.851562 C 16.230469 30.589844 16.199219 30.324219 16.164062 30.0625 C 16.160156 30.003906 16.148438 29.953125 16.105469 29.910156 C 16.066406 29.875 16.007812 29.847656 15.957031 29.851562 C 15.902344 29.851562 15.84375 29.871094 15.808594 29.910156 C 15.773438 29.949219 15.738281 30.007812 15.746094 30.0625 Z M 15.746094 30.0625 " fill-opacity="1" fill-rule="nonzero"/><path fill="#000000" d="M 14.09375 31.148438 C 14.09375 31.511719 14.09375 31.871094 14.09375 32.234375 C 14.09375 32.34375 14.191406 32.453125 14.304688 32.445312 C 14.417969 32.441406 14.511719 32.351562 14.511719 32.234375 C 14.511719 31.871094 14.511719 31.507812 14.511719 31.148438 C 14.511719 31.035156 14.417969 30.929688 14.304688 30.9375 C 14.1875 30.941406 14.09375 31.027344 14.09375 31.148438 Z M 14.09375 31.148438 " fill-opacity="1" fill-rule="nonzero"/><path fill="#000000" d="M 12.914062 31.839844 C 12.914062 32.039062 12.914062 32.234375 12.914062 32.433594 C 12.914062 32.542969 13.011719 32.648438 13.125 32.644531 C 13.238281 32.640625 13.332031 32.550781 13.332031 32.433594 C 13.332031 32.234375 13.332031 32.039062 13.332031 31.839844 C 13.332031 31.730469 13.238281 31.625 13.125 31.628906 C 13.011719 31.632812 12.914062 31.722656 12.914062 31.839844 Z M 12.914062 31.839844 " fill-opacity="1" fill-rule="nonzero"/><path fill="#000000" d="M 15.46875 32.628906 C 15.46875 32.992188 15.46875 33.355469 15.46875 33.71875 C 15.46875 33.828125 15.566406 33.933594 15.679688 33.929688 C 15.792969 33.925781 15.886719 33.835938 15.886719 33.71875 C 15.886719 33.355469 15.886719 32.992188 15.886719 32.628906 C 15.886719 32.519531 15.792969 32.414062 15.679688 32.417969 C 15.566406 32.425781 15.46875 32.511719 15.46875 32.628906 Z M 15.46875 32.628906 " fill-opacity="1" fill-rule="nonzero"/><path fill="#000000" d="M 12.914062 21.253906 C 12.914062 21.617188 12.914062 21.980469 12.914062 22.34375 C 12.914062 22.453125 13.011719 22.558594 13.125 22.554688 C 13.238281 22.550781 13.332031 22.460938 13.332031 22.34375 C 13.332031 21.980469 13.332031 21.617188 13.332031 21.253906 C 13.332031 21.144531 13.238281 21.039062 13.125 21.042969 C 13.011719 21.050781 12.914062 21.136719 12.914062 21.253906 Z M 12.914062 21.253906 " fill-opacity="1" fill-rule="nonzero"/><path fill="#000000" d="M 15.273438 18.78125 C 15.273438 19.011719 15.273438 19.246094 15.273438 19.476562 C 15.273438 19.585938 15.367188 19.691406 15.480469 19.6875 C 15.597656 19.679688 15.691406 19.59375 15.691406 19.476562 C 15.691406 19.246094 15.691406 19.011719 15.691406 18.78125 C 15.691406 18.671875 15.59375 18.566406 15.480469 18.570312 C 15.367188 18.578125 15.273438 18.664062 15.273438 18.78125 Z M 15.273438 18.78125 " fill-opacity="1" fill-rule="nonzero"/><path fill="#000000" d="M 16.839844 20.921875 C 16.871094 21.019531 16.902344 21.117188 16.933594 21.21875 C 16.949219 21.269531 16.984375 21.316406 17.03125 21.34375 C 17.054688 21.359375 17.082031 21.367188 17.109375 21.371094 C 17.136719 21.375 17.164062 21.375 17.191406 21.367188 C 17.242188 21.347656 17.292969 21.316406 17.316406 21.269531 C 17.34375 21.21875 17.355469 21.160156 17.339844 21.105469 C 17.304688 21.007812 17.273438 20.90625 17.242188 20.808594 C 17.226562 20.757812 17.195312 20.710938 17.144531 20.683594 C 17.121094 20.667969 17.097656 20.660156 17.070312 20.65625 C 17.039062 20.652344 17.011719 20.652344 16.984375 20.660156 C 16.933594 20.675781 16.886719 20.710938 16.859375 20.757812 C 16.832031 20.808594 16.820312 20.867188 16.839844 20.921875 Z M 16.839844 20.921875 " fill-opacity="1" fill-rule="nonzero"/><path fill="#000000" d="M 14.683594 20.5625 C 14.683594 20.792969 14.683594 21.023438 14.683594 21.253906 C 14.683594 21.367188 14.78125 21.472656 14.890625 21.464844 C 15.007812 21.460938 15.101562 21.375 15.101562 21.253906 C 15.101562 21.023438 15.101562 20.792969 15.101562 20.5625 C 15.101562 20.453125 15.003906 20.347656 14.890625 20.351562 C 14.777344 20.355469 14.683594 20.445312 14.683594 20.5625 Z M 14.683594 20.5625 " fill-opacity="1" fill-rule="nonzero"/><path fill="#000000" d="M 18.191406 14.632812 C 18.332031 14.703125 18.472656 14.773438 18.59375 14.871094 C 18.582031 14.859375 18.566406 14.847656 18.550781 14.835938 C 18.65625 14.917969 18.746094 15.007812 18.835938 15.101562 C 18.910156 15.179688 19.054688 15.183594 19.132812 15.101562 C 19.207031 15.015625 19.210938 14.886719 19.132812 14.804688 C 19.023438 14.691406 18.914062 14.585938 18.789062 14.492188 C 18.667969 14.402344 18.539062 14.335938 18.40625 14.269531 C 18.351562 14.246094 18.300781 14.234375 18.242188 14.25 C 18.195312 14.261719 18.140625 14.300781 18.117188 14.34375 C 18.066406 14.441406 18.085938 14.582031 18.191406 14.632812 Z M 18.191406 14.632812 " fill-opacity="1" fill-rule="nonzero"/><path fill="#000000" d="M 19.023438 13.660156 C 19.121094 13.699219 19.21875 13.734375 19.316406 13.773438 C 19.347656 13.789062 19.382812 13.800781 19.417969 13.8125 C 19.429688 13.820312 19.445312 13.828125 19.460938 13.832031 C 19.46875 13.835938 19.476562 13.839844 19.484375 13.84375 C 19.480469 13.839844 19.429688 13.816406 19.460938 13.832031 C 19.597656 13.890625 19.730469 13.957031 19.863281 14.023438 C 19.914062 14.046875 19.96875 14.058594 20.027344 14.042969 C 20.074219 14.03125 20.128906 13.992188 20.152344 13.945312 C 20.199219 13.851562 20.179688 13.707031 20.074219 13.65625 C 19.941406 13.59375 19.804688 13.523438 19.667969 13.464844 C 19.492188 13.390625 19.3125 13.324219 19.136719 13.253906 C 19.089844 13.234375 19.019531 13.25 18.976562 13.277344 C 18.933594 13.300781 18.890625 13.351562 18.878906 13.402344 C 18.851562 13.523438 18.914062 13.621094 19.023438 13.660156 Z M 19.023438 13.660156 " fill-opacity="1" fill-rule="nonzero"/><path fill="#000000" d="M 19.96875 12.707031 C 20.265625 12.675781 20.558594 12.640625 20.855469 12.609375 C 20.914062 12.605469 20.960938 12.589844 21.003906 12.546875 C 21.039062 12.511719 21.066406 12.453125 21.066406 12.398438 C 21.058594 12.296875 20.972656 12.175781 20.855469 12.1875 C 20.558594 12.21875 20.265625 12.253906 19.96875 12.285156 C 19.914062 12.289062 19.863281 12.304688 19.820312 12.347656 C 19.785156 12.382812 19.757812 12.441406 19.761719 12.496094 C 19.765625 12.597656 19.851562 12.71875 19.96875 12.707031 Z M 19.96875 12.707031 " fill-opacity="1" fill-rule="nonzero"/><path fill="#000000" d="M 8.4375 14.265625 C 8.703125 13.972656 8.96875 13.679688 9.234375 13.382812 C 9.304688 13.300781 9.320312 13.164062 9.234375 13.085938 C 9.152344 13.011719 9.015625 13 8.9375 13.085938 C 8.671875 13.378906 8.40625 13.671875 8.140625 13.96875 C 8.066406 14.050781 8.054688 14.1875 8.140625 14.265625 C 8.222656 14.339844 8.359375 14.355469 8.4375 14.265625 Z M 8.4375 14.265625 " fill-opacity="1" fill-rule="nonzero"/><path fill="#000000" d="M 9.542969 14.523438 C 9.617188 14.386719 9.695312 14.257812 9.78125 14.128906 C 9.824219 14.066406 9.867188 14.007812 9.910156 13.949219 C 9.917969 13.941406 9.921875 13.933594 9.929688 13.925781 C 9.921875 13.933594 9.90625 13.957031 9.921875 13.933594 C 9.933594 13.917969 9.949219 13.902344 9.960938 13.886719 C 9.984375 13.855469 10.011719 13.824219 10.035156 13.792969 C 10.074219 13.75 10.097656 13.703125 10.097656 13.644531 C 10.097656 13.59375 10.074219 13.53125 10.035156 13.496094 C 9.957031 13.425781 9.816406 13.40625 9.738281 13.496094 C 9.527344 13.746094 9.339844 14.019531 9.183594 14.308594 C 9.128906 14.40625 9.15625 14.542969 9.257812 14.597656 C 9.355469 14.652344 9.488281 14.625 9.542969 14.523438 Z M 9.542969 14.523438 " fill-opacity="1" fill-rule="nonzero"/><path fill="#000000" d="M 10.847656 15.328125 C 10.976562 15.09375 11.101562 14.863281 11.230469 14.628906 C 11.285156 14.535156 11.257812 14.394531 11.15625 14.339844 C 11.058594 14.289062 10.925781 14.3125 10.867188 14.417969 C 10.742188 14.648438 10.613281 14.882812 10.484375 15.117188 C 10.433594 15.210938 10.457031 15.351562 10.5625 15.402344 C 10.660156 15.457031 10.789062 15.429688 10.847656 15.328125 Z M 10.847656 15.328125 " fill-opacity="1" fill-rule="nonzero"/><path fill="#000000" d="M 23.375 32.984375 C 23.359375 32.910156 23.347656 32.839844 23.335938 32.765625 C 23.328125 32.730469 23.324219 32.691406 23.320312 32.65625 C 23.316406 32.640625 23.3125 32.625 23.3125 32.605469 C 23.308594 32.589844 23.300781 32.515625 23.308594 32.585938 C 23.292969 32.445312 23.273438 32.300781 23.261719 32.15625 C 23.238281 31.863281 23.230469 31.570312 23.234375 31.277344 C 23.242188 30.984375 23.261719 30.695312 23.292969 30.402344 C 23.296875 30.367188 23.304688 30.332031 23.308594 30.296875 C 23.308594 30.289062 23.316406 30.226562 23.3125 30.265625 C 23.304688 30.300781 23.308594 30.269531 23.3125 30.261719 C 23.3125 30.25 23.316406 30.238281 23.316406 30.226562 C 23.328125 30.152344 23.335938 30.082031 23.347656 30.011719 C 23.375 29.867188 23.402344 29.722656 23.429688 29.578125 C 23.492188 29.292969 23.566406 29.007812 23.65625 28.730469 C 23.699219 28.589844 23.746094 28.449219 23.796875 28.3125 C 23.820312 28.242188 23.847656 28.171875 23.875 28.105469 C 23.886719 28.070312 23.902344 28.039062 23.914062 28.007812 C 23.917969 27.992188 23.925781 27.976562 23.933594 27.960938 C 23.9375 27.953125 23.9375 27.945312 23.941406 27.9375 C 23.945312 27.929688 23.949219 27.921875 23.953125 27.914062 C 23.949219 27.925781 23.945312 27.933594 23.941406 27.941406 C 24.175781 27.402344 24.445312 26.886719 24.769531 26.398438 C 24.851562 26.277344 24.9375 26.15625 25.023438 26.039062 C 25.042969 26.011719 25.066406 25.980469 25.089844 25.953125 C 25.09375 25.945312 25.097656 25.941406 25.101562 25.933594 C 25.101562 25.9375 25.074219 25.972656 25.09375 25.945312 C 25.105469 25.929688 25.121094 25.910156 25.132812 25.894531 C 25.175781 25.839844 25.222656 25.78125 25.269531 25.726562 C 25.453125 25.5 25.652344 25.285156 25.859375 25.082031 C 25.910156 25.03125 25.960938 24.980469 26.015625 24.929688 C 26.09375 24.855469 26.097656 24.707031 26.015625 24.632812 C 25.929688 24.550781 25.804688 24.550781 25.71875 24.632812 C 25.277344 25.046875 24.878906 25.511719 24.53125 26.007812 C 24.191406 26.488281 23.902344 27.003906 23.660156 27.542969 C 23.410156 28.097656 23.210938 28.675781 23.070312 29.269531 C 22.933594 29.855469 22.847656 30.457031 22.824219 31.0625 C 22.796875 31.671875 22.835938 32.28125 22.933594 32.882812 C 22.945312 32.953125 22.957031 33.027344 22.96875 33.097656 C 22.988281 33.207031 23.125 33.277344 23.226562 33.242188 C 23.34375 33.207031 23.394531 33.101562 23.375 32.984375 Z M 23.375 32.984375 " fill-opacity="1" fill-rule="nonzero"/></svg>