<svg xmlns="http://www.w3.org/2000/svg" xmlns:xlink="http://www.w3.org/1999/xlink" width="150" zoomAndPan="magnify" viewBox="0 0 112.5 112.499997" height="150" preserveAspectRatio="xMidYMid meet" version="1.0"><defs><clipPath id="95f74008da"><path d="M 17.347656 8 L 101 8 L 101 104.570312 L 17.347656 104.570312 Z M 17.347656 8 " clip-rule="nonzero"/></clipPath><clipPath id="e8c5f342f5"><path d="M 17.347656 8 L 101 8 L 101 96 L 17.347656 96 Z M 17.347656 8 " clip-rule="nonzero"/></clipPath><clipPath id="ebb8b110e9"><path d="M 40 93 L 101 93 L 101 104.570312 L 40 104.570312 Z M 40 93 " clip-rule="nonzero"/></clipPath><clipPath id="f752477578"><path d="M 19 94 L 42 94 L 42 104.570312 L 19 104.570312 Z M 19 94 " clip-rule="nonzero"/></clipPath></defs><g clip-path="url(#95f74008da)"><path fill="#ffffff" d="M 100.078125 92.386719 C 100.066406 92.304688 100.074219 92.230469 100.09375 92.164062 C 98.59375 87.175781 96.890625 82.246094 94.964844 77.402344 C 92.835938 72.035156 90.464844 66.769531 87.859375 61.617188 C 86.496094 58.921875 85.070312 56.253906 83.675781 53.574219 C 82.164062 50.675781 80.644531 47.777344 79.03125 44.933594 C 78.832031 44.578125 78.628906 44.222656 78.425781 43.863281 C 78.355469 43.730469 78.285156 43.597656 78.210938 43.464844 C 78.207031 43.464844 78.203125 43.464844 78.199219 43.460938 C 75.199219 38.164062 72.207031 32.859375 69.175781 27.574219 C 65.9375 21.921875 62.660156 16.289062 59.3125 10.695312 C 58.886719 9.984375 58.457031 9.277344 58.03125 8.566406 C 57.898438 8.347656 57.621094 8.46875 57.59375 8.683594 C 57.246094 11.269531 56.890625 13.859375 56.621094 16.453125 C 56.507812 17.53125 56.523438 18.621094 56.019531 19.613281 C 55.875 19.902344 55.679688 20.195312 55.386719 20.34375 C 54.992188 20.542969 54.476562 20.382812 54.058594 20.335938 C 52.996094 20.210938 51.933594 20.109375 50.867188 20.027344 C 47.078125 19.726562 43.28125 19.699219 39.503906 19.96875 C 38.917969 19.988281 38.335938 20.023438 37.753906 20.070312 C 36.632812 20.164062 35.527344 20.296875 34.429688 20.507812 C 31.4375 20.9375 28.46875 21.558594 25.542969 22.390625 C 24.921875 22.566406 24.328125 22.847656 23.699219 22.546875 C 23.195312 22.308594 22.773438 21.882812 22.480469 21.417969 C 22.195312 20.964844 22.039062 20.449219 21.855469 19.953125 C 21.667969 19.449219 21.480469 18.945312 21.296875 18.441406 C 20.539062 16.386719 19.789062 14.324219 19.175781 12.21875 C 19.101562 11.957031 18.738281 12.023438 18.71875 12.28125 C 18.226562 18.308594 17.933594 24.351562 17.859375 30.402344 C 17.800781 35.214844 17.875 40.03125 18.109375 44.839844 C 18.34375 49.699219 18.753906 54.542969 19.121094 59.394531 C 19.523438 64.746094 19.824219 70.105469 19.929688 75.476562 C 20.042969 81.367188 19.960938 87.257812 19.707031 93.144531 C 19.703125 93.320312 19.691406 93.492188 19.683594 93.667969 C 19.925781 94.367188 20.054688 95.082031 20.121094 95.804688 C 20.480469 95.972656 20.839844 96.144531 21.199219 96.308594 C 23.328125 97.292969 25.46875 98.230469 27.628906 99.136719 C 29.730469 100.015625 31.847656 100.859375 33.980469 101.664062 C 35.957031 102.414062 37.949219 103.128906 39.953125 103.8125 C 40.023438 103.894531 40.121094 103.953125 40.238281 103.984375 C 40.523438 104.058594 40.804688 104.128906 41.085938 104.199219 C 41.085938 104.199219 41.085938 104.199219 41.085938 104.203125 C 41.164062 104.238281 41.246094 104.253906 41.332031 104.242188 C 45.492188 103.835938 49.648438 103.375 53.796875 102.855469 C 58.167969 102.308594 62.53125 101.699219 66.878906 101.027344 C 71.402344 100.328125 75.914062 99.5625 80.414062 98.726562 C 84.8125 97.910156 89.199219 97.03125 93.574219 96.085938 C 95.84375 95.59375 98.105469 95.085938 100.367188 94.5625 C 100.289062 93.835938 100.195312 93.109375 100.078125 92.386719 Z M 100.078125 92.386719 " fill-opacity="1" fill-rule="nonzero"/></g><path fill="#ffffff" d="M 23.082031 32.09375 C 23.523438 31.742188 24.164062 31.289062 25.007812 30.882812 C 27.417969 29.722656 29.621094 29.855469 30.0625 29.886719 C 32.757812 30.085938 34.597656 31.367188 35.296875 31.914062 C 34.726562 32.585938 33.417969 33.921875 31.320312 34.484375 C 26.914062 35.667969 23.289062 32.296875 23.082031 32.09375 Z M 23.082031 32.09375 " fill-opacity="1" fill-rule="nonzero"/><path fill="#4e4e4e" d="M 63.90625 27.347656 C 61.675781 24.730469 57.925781 24.046875 54.679688 24.65625 C 52.808594 25.003906 51.023438 25.757812 49.355469 26.65625 C 47.820312 27.484375 45.871094 28.53125 45.828125 30.515625 C 45.824219 30.679688 45.84375 30.84375 45.875 31.003906 C 45.863281 31.863281 46.152344 32.746094 46.609375 33.488281 C 47.507812 34.945312 49.023438 35.964844 50.589844 36.585938 C 54.175781 38.003906 58.183594 37.109375 61.554688 35.519531 C 63 34.835938 64.457031 33.855469 65.085938 32.324219 C 65.796875 30.589844 65.058594 28.699219 63.90625 27.347656 Z M 63.90625 27.347656 " fill-opacity="1" fill-rule="nonzero"/><path fill="#ffffff" d="M 58.761719 32.609375 C 53.828125 35.136719 48.503906 31.957031 48.089844 31.699219 C 48.5 31.292969 49.09375 30.765625 49.875 30.242188 C 50.484375 29.835938 52.441406 28.609375 55.257812 28.257812 C 58.582031 27.84375 61.1875 28.886719 62.292969 29.40625 C 61.660156 30.351562 60.550781 31.695312 58.761719 32.609375 Z M 58.761719 32.609375 " fill-opacity="1" fill-rule="nonzero"/><path fill="#4e4e4e" d="M 37.710938 20.121094 C 36.132812 20.25 34.574219 20.464844 33.039062 20.859375 C 32.304688 21.050781 31.523438 21.21875 30.835938 21.53125 C 30.539062 21.667969 30.289062 21.863281 30.039062 22.058594 C 31.578125 24.089844 33.316406 26.058594 35.820312 26.859375 C 37.128906 27.277344 38.621094 27.347656 39.917969 26.835938 C 41.269531 26.300781 42.265625 25.238281 43.003906 24.011719 C 43.703125 22.855469 44.167969 21.582031 44.78125 20.382812 C 42.464844 19.917969 40.066406 19.929688 37.710938 20.121094 Z M 37.710938 20.121094 " fill-opacity="1" fill-rule="nonzero"/><path fill="#4e4e4e" d="M 73.929688 99.199219 C 75.320312 99.0625 76.714844 98.933594 78.089844 98.65625 C 79.15625 98.441406 80.203125 98.15625 81.230469 97.816406 C 82.039062 95.074219 82.105469 92.128906 81.445312 89.34375 C 80.785156 86.550781 79.339844 83.96875 77.363281 81.890625 C 76.449219 80.925781 75.410156 80.082031 74.292969 79.367188 C 73.886719 79.949219 73.328125 80.425781 72.929688 81.015625 C 72.390625 81.824219 72.03125 82.714844 71.6875 83.617188 C 71.027344 85.34375 70.488281 87.113281 70.121094 88.925781 C 69.753906 90.753906 69.445312 92.617188 69.445312 94.488281 C 69.441406 96.246094 69.742188 97.964844 69.992188 99.695312 C 71.308594 99.636719 72.621094 99.332031 73.929688 99.199219 Z M 73.929688 99.199219 " fill-opacity="1" fill-rule="nonzero"/><path fill="#b1b1b1" d="M 41.921875 40.652344 C 42.492188 40.15625 42.707031 39.355469 42.707031 38.628906 C 42.707031 38.433594 42.695312 38.230469 42.628906 38.046875 C 42.519531 37.730469 42.285156 37.523438 41.980469 37.402344 C 41.722656 37.304688 41.425781 37.28125 41.144531 37.292969 C 40.691406 37.144531 40.1875 37.171875 39.730469 37.375 C 39.441406 37.5 39.21875 37.699219 39.054688 37.941406 C 38.703125 38.277344 38.4375 38.722656 38.320312 39.175781 C 38.15625 39.820312 38.234375 40.574219 38.722656 41.0625 C 39.3125 41.652344 40.25 41.601562 40.964844 41.300781 C 41.238281 41.1875 41.496094 41.019531 41.714844 40.816406 C 41.757812 40.785156 41.792969 40.75 41.828125 40.71875 C 41.859375 40.695312 41.890625 40.675781 41.921875 40.652344 Z M 41.921875 40.652344 " fill-opacity="1" fill-rule="nonzero"/><path fill="#b1b1b1" d="M 46.644531 38.339844 C 46.597656 38.023438 46.433594 37.742188 46.230469 37.5 C 45.835938 37.027344 45.203125 36.761719 44.59375 36.746094 C 44.074219 36.730469 43.539062 36.925781 43.167969 37.292969 C 43.082031 37.320312 43 37.367188 42.9375 37.441406 C 42.539062 37.894531 42.414062 38.464844 42.527344 39.050781 C 42.632812 39.578125 43 40.070312 43.480469 40.316406 C 43.804688 40.484375 44.175781 40.5625 44.546875 40.554688 C 44.855469 40.566406 45.167969 40.5 45.441406 40.359375 C 45.890625 40.167969 46.277344 39.832031 46.492188 39.367188 C 46.644531 39.03125 46.699219 38.703125 46.644531 38.339844 Z M 46.644531 38.339844 " fill-opacity="1" fill-rule="nonzero"/><path fill="#b1b1b1" d="M 82.730469 52.066406 C 82.027344 51.117188 81.417969 50.109375 80.824219 49.089844 C 80.230469 48.066406 79.609375 46.996094 79.15625 45.902344 C 78.933594 45.359375 78.78125 44.789062 78.550781 44.253906 C 78.4375 43.996094 78.300781 43.757812 78.171875 43.515625 C 76.378906 42.929688 74.269531 42.585938 72.839844 44.101562 C 71.589844 45.421875 71.460938 47.429688 71.777344 49.132812 C 72.460938 52.804688 75.726562 56.539062 79.785156 56.03125 C 80.933594 55.886719 82.011719 55.367188 82.734375 54.449219 C 83.035156 54.070312 83.265625 53.652344 83.414062 53.214844 C 83.195312 52.820312 82.992188 52.421875 82.730469 52.066406 Z M 82.730469 52.066406 " fill-opacity="1" fill-rule="nonzero"/><path fill="#b1b1b1" d="M 76.898438 61.632812 C 76.847656 61.457031 76.769531 61.292969 76.671875 61.140625 C 76.546875 60.867188 76.355469 60.621094 76.085938 60.441406 C 75.746094 60.214844 75.324219 60.171875 74.921875 60.25 C 74.878906 60.246094 74.835938 60.242188 74.792969 60.242188 C 74.089844 60.25 73.445312 60.671875 73.109375 61.28125 C 72.769531 61.894531 72.730469 62.65625 73.089844 63.269531 C 73.441406 63.871094 74.089844 64.230469 74.773438 64.300781 C 76.1875 64.445312 77.269531 62.949219 76.898438 61.632812 Z M 76.898438 61.632812 " fill-opacity="1" fill-rule="nonzero"/><path fill="#b1b1b1" d="M 91.40625 71.070312 C 90.449219 68.800781 89.507812 66.519531 88.523438 64.257812 C 87.839844 62.691406 87.105469 61.085938 86.097656 59.6875 C 81.246094 66.148438 85.691406 74.285156 91.480469 79.816406 C 93.082031 81.351562 94.882812 82.757812 96.824219 84.039062 C 95.175781 79.65625 93.222656 75.382812 91.40625 71.070312 Z M 91.40625 71.070312 " fill-opacity="1" fill-rule="nonzero"/><g clip-path="url(#e8c5f342f5)"><path fill="#000000" d="M 20.472656 94.625 C 20.738281 89.050781 20.847656 83.464844 20.792969 77.886719 C 20.734375 72.328125 20.480469 66.777344 20.082031 61.234375 C 19.734375 56.414062 19.308594 51.601562 19.035156 46.777344 C 18.761719 41.953125 18.648438 37.121094 18.671875 32.289062 C 18.703125 26.472656 18.933594 20.65625 19.351562 14.855469 C 19.414062 14.015625 19.476562 13.171875 19.546875 12.332031 C 19.132812 12.386719 18.714844 12.441406 18.300781 12.5 C 18.867188 14.460938 19.5625 16.382812 20.265625 18.300781 C 20.613281 19.25 20.9375 20.210938 21.316406 21.148438 C 21.679688 22.054688 22.324219 22.90625 23.21875 23.34375 C 24.292969 23.871094 25.308594 23.390625 26.378906 23.097656 C 27.464844 22.800781 28.558594 22.527344 29.660156 22.285156 C 31.84375 21.800781 34.050781 21.421875 36.273438 21.164062 C 40.75 20.640625 45.273438 20.566406 49.765625 20.863281 C 50.886719 20.9375 52 21.035156 53.113281 21.152344 C 53.96875 21.242188 55.027344 21.578125 55.824219 21.121094 C 56.992188 20.453125 57.253906 18.816406 57.34375 17.601562 C 57.566406 14.636719 58.027344 11.679688 58.421875 8.734375 C 58.027344 8.839844 57.632812 8.945312 57.238281 9.050781 C 60.605469 14.632812 63.894531 20.253906 67.144531 25.902344 C 70.4375 31.625 73.691406 37.375 76.933594 43.125 C 80.085938 48.710938 83.078125 54.375 86.027344 60.070312 C 88.722656 65.273438 91.199219 70.574219 93.410156 76 C 95.457031 81.011719 97.277344 86.117188 98.867188 91.292969 C 99.105469 92.0625 99.335938 92.835938 99.5625 93.609375 C 99.789062 94.390625 101.015625 94.058594 100.785156 93.273438 C 99.207031 87.882812 97.382812 82.566406 95.3125 77.347656 C 93.167969 71.949219 90.789062 66.648438 88.164062 61.464844 C 86.800781 58.769531 85.378906 56.101562 83.980469 53.421875 C 82.46875 50.523438 80.949219 47.628906 79.335938 44.78125 C 76.058594 38.992188 72.789062 33.195312 69.480469 27.425781 C 66.242188 21.769531 62.964844 16.136719 59.617188 10.546875 C 59.191406 9.835938 58.765625 9.125 58.335938 8.414062 C 57.980469 7.828125 57.230469 8.148438 57.152344 8.734375 C 56.804688 11.320312 56.449219 13.90625 56.179688 16.503906 C 56.070312 17.554688 56.113281 18.515625 55.632812 19.464844 C 55.527344 19.679688 55.378906 19.949219 55.144531 20.050781 C 54.824219 20.183594 54.351562 20.023438 54.019531 19.984375 C 52.957031 19.863281 51.890625 19.757812 50.824219 19.675781 C 42.277344 19.003906 33.65625 19.710938 25.398438 22.054688 C 24.902344 22.195312 24.367188 22.476562 23.859375 22.25 C 23.417969 22.054688 23.042969 21.671875 22.785156 21.265625 C 22.519531 20.839844 22.371094 20.363281 22.199219 19.894531 C 22.015625 19.390625 21.828125 18.890625 21.644531 18.386719 C 20.886719 16.328125 20.132812 14.265625 19.523438 12.160156 C 19.316406 11.449219 18.332031 11.636719 18.277344 12.328125 C 17.785156 18.359375 17.496094 24.402344 17.417969 30.449219 C 17.359375 35.265625 17.433594 40.082031 17.667969 44.890625 C 17.902344 49.75 18.3125 54.59375 18.679688 59.445312 C 19.082031 64.796875 19.386719 70.15625 19.488281 75.527344 C 19.601562 81.414062 19.519531 87.308594 19.269531 93.195312 C 19.246094 93.671875 19.226562 94.148438 19.203125 94.625 C 19.164062 95.4375 20.433594 95.4375 20.472656 94.625 Z M 20.472656 94.625 " fill-opacity="1" fill-rule="nonzero"/></g><g clip-path="url(#ebb8b110e9)"><path fill="#000000" d="M 41.300781 104.496094 C 45.464844 104.089844 49.621094 103.628906 53.773438 103.109375 C 58.128906 102.5625 62.480469 101.953125 66.820312 101.285156 C 71.304688 100.589844 75.777344 99.824219 80.246094 99.007812 C 83.472656 98.421875 86.703125 97.816406 89.910156 97.125 C 92.992188 96.460938 96.054688 95.714844 99.113281 94.957031 C 99.585938 94.839844 100.0625 94.71875 100.535156 94.601562 C 101.328125 94.402344 100.992188 93.183594 100.199219 93.378906 C 97.015625 94.175781 93.828125 94.964844 90.621094 95.675781 C 87.5625 96.351562 84.484375 96.945312 81.398438 97.515625 C 77.035156 98.320312 72.667969 99.085938 68.285156 99.78125 C 63.960938 100.464844 59.625 101.089844 55.285156 101.648438 C 51.128906 102.183594 46.964844 102.664062 42.792969 103.082031 C 42.296875 103.132812 41.796875 103.183594 41.300781 103.230469 C 40.960938 103.265625 40.664062 103.496094 40.664062 103.863281 C 40.664062 104.179688 40.957031 104.53125 41.300781 104.496094 Z M 41.300781 104.496094 " fill-opacity="1" fill-rule="nonzero"/></g><g clip-path="url(#f752477578)"><path fill="#000000" d="M 19.308594 95.621094 C 20.710938 96.300781 22.125 96.964844 23.542969 97.609375 C 24.917969 98.234375 26.296875 98.84375 27.6875 99.433594 C 29.101562 100.03125 30.519531 100.609375 31.945312 101.171875 C 33.347656 101.71875 34.757812 102.25 36.175781 102.761719 C 37.632812 103.289062 39.09375 103.792969 40.558594 104.285156 C 40.75 104.347656 40.941406 104.410156 41.132812 104.472656 C 41.445312 104.578125 41.839844 104.351562 41.910156 104.03125 C 41.992188 103.683594 41.804688 103.363281 41.46875 103.253906 C 39.992188 102.765625 38.523438 102.261719 37.058594 101.738281 C 35.640625 101.230469 34.230469 100.707031 32.828125 100.164062 C 31.445312 99.625 30.066406 99.070312 28.699219 98.496094 C 28.652344 98.476562 28.609375 98.457031 28.5625 98.4375 C 28.5625 98.4375 28.683594 98.488281 28.617188 98.460938 C 28.597656 98.453125 28.578125 98.445312 28.5625 98.4375 C 28.46875 98.398438 28.378906 98.359375 28.289062 98.324219 C 28.117188 98.25 27.941406 98.175781 27.769531 98.101562 C 27.425781 97.953125 27.085938 97.804688 26.746094 97.65625 C 26.058594 97.359375 25.375 97.054688 24.691406 96.746094 C 23.28125 96.109375 21.882812 95.457031 20.492188 94.789062 C 20.3125 94.703125 20.128906 94.613281 19.949219 94.527344 C 19.652344 94.382812 19.25 94.4375 19.082031 94.753906 C 18.929688 95.039062 18.992188 95.464844 19.308594 95.621094 Z M 19.308594 95.621094 " fill-opacity="1" fill-rule="nonzero"/></g><path fill="#000000" d="M 23.53125 32.542969 C 23.566406 32.511719 23.605469 32.484375 23.640625 32.457031 C 23.734375 32.382812 23.511719 32.554688 23.605469 32.480469 C 23.625 32.46875 23.640625 32.457031 23.65625 32.445312 C 23.75 32.375 23.847656 32.304688 23.945312 32.234375 C 24.152344 32.09375 24.359375 31.957031 24.574219 31.832031 C 24.832031 31.679688 25.097656 31.539062 25.367188 31.410156 C 25.4375 31.375 25.507812 31.34375 25.578125 31.3125 C 25.605469 31.300781 25.632812 31.289062 25.660156 31.273438 C 25.671875 31.273438 25.808594 31.210938 25.710938 31.253906 C 25.613281 31.292969 25.75 31.238281 25.757812 31.234375 C 25.792969 31.21875 25.828125 31.207031 25.863281 31.191406 C 25.9375 31.164062 26.011719 31.136719 26.085938 31.109375 C 26.601562 30.921875 27.128906 30.773438 27.664062 30.667969 C 27.78125 30.648438 27.898438 30.625 28.011719 30.605469 C 28.070312 30.597656 28.125 30.589844 28.183594 30.582031 C 28.203125 30.578125 28.226562 30.574219 28.246094 30.574219 C 28.027344 30.605469 28.191406 30.578125 28.242188 30.574219 C 28.4375 30.550781 28.636719 30.53125 28.835938 30.519531 C 29.140625 30.5 29.441406 30.492188 29.746094 30.503906 C 29.835938 30.507812 29.925781 30.511719 30.015625 30.515625 C 30.085938 30.519531 30.15625 30.527344 30.230469 30.535156 C 30.296875 30.539062 30.367188 30.546875 30.4375 30.554688 C 30.476562 30.558594 30.515625 30.566406 30.558594 30.570312 C 30.683594 30.585938 30.414062 30.546875 30.550781 30.570312 C 31.0625 30.644531 31.566406 30.757812 32.058594 30.914062 C 32.277344 30.980469 32.492188 31.058594 32.707031 31.140625 C 32.757812 31.164062 32.804688 31.183594 32.855469 31.203125 C 32.972656 31.25 32.710938 31.140625 32.824219 31.191406 C 32.84375 31.199219 32.863281 31.207031 32.882812 31.214844 C 32.984375 31.261719 33.089844 31.308594 33.191406 31.355469 C 33.558594 31.53125 33.917969 31.734375 34.261719 31.953125 C 34.394531 32.039062 34.527344 32.128906 34.652344 32.21875 C 34.710938 32.257812 34.765625 32.296875 34.820312 32.339844 C 34.84375 32.359375 34.871094 32.378906 34.894531 32.398438 C 35.007812 32.480469 34.761719 32.292969 34.847656 32.359375 C 34.847656 32.0625 34.847656 31.761719 34.847656 31.464844 C 34.613281 31.742188 34.363281 32 34.097656 32.246094 C 34.015625 32.320312 33.933594 32.390625 33.851562 32.460938 C 33.804688 32.5 33.761719 32.535156 33.71875 32.570312 C 33.671875 32.605469 33.472656 32.753906 33.660156 32.617188 C 33.445312 32.777344 33.230469 32.929688 33 33.070312 C 32.753906 33.222656 32.496094 33.363281 32.230469 33.488281 C 32.164062 33.519531 32.097656 33.546875 32.03125 33.578125 C 31.90625 33.632812 32.171875 33.519531 32.042969 33.570312 C 32.007812 33.585938 31.972656 33.601562 31.9375 33.613281 C 31.78125 33.675781 31.621094 33.730469 31.460938 33.78125 C 31.167969 33.875 30.867188 33.949219 30.5625 34.003906 C 30.488281 34.019531 30.417969 34.03125 30.34375 34.042969 C 30.300781 34.046875 30.167969 34.058594 30.367188 34.039062 C 30.332031 34.042969 30.296875 34.046875 30.261719 34.054688 C 30.105469 34.070312 29.953125 34.082031 29.796875 34.089844 C 29.507812 34.105469 29.222656 34.105469 28.933594 34.085938 C 28.796875 34.078125 28.664062 34.066406 28.53125 34.050781 C 28.5 34.046875 28.464844 34.039062 28.433594 34.039062 C 28.640625 34.058594 28.515625 34.046875 28.46875 34.042969 C 28.394531 34.03125 28.316406 34.019531 28.242188 34.003906 C 27.726562 33.914062 27.21875 33.773438 26.726562 33.59375 C 26.617188 33.554688 26.507812 33.511719 26.394531 33.464844 C 26.367188 33.453125 26.34375 33.441406 26.316406 33.433594 C 26.511719 33.511719 26.402344 33.46875 26.359375 33.449219 C 26.296875 33.425781 26.238281 33.398438 26.175781 33.367188 C 25.976562 33.277344 25.777344 33.179688 25.582031 33.078125 C 25.226562 32.886719 24.882812 32.675781 24.550781 32.449219 C 24.398438 32.347656 24.246094 32.238281 24.101562 32.128906 C 24.085938 32.117188 24.070312 32.109375 24.058594 32.097656 C 23.960938 32.023438 24.1875 32.199219 24.117188 32.144531 C 24.089844 32.121094 24.058594 32.097656 24.03125 32.074219 C 23.976562 32.03125 23.925781 31.992188 23.871094 31.949219 C 23.757812 31.851562 23.640625 31.753906 23.53125 31.648438 C 23.292969 31.417969 22.867188 31.390625 22.632812 31.648438 C 22.40625 31.894531 22.378906 32.296875 22.632812 32.542969 C 22.964844 32.859375 23.332031 33.136719 23.703125 33.402344 C 24.441406 33.925781 25.234375 34.351562 26.070312 34.691406 C 27.121094 35.121094 28.257812 35.363281 29.394531 35.367188 C 30.746094 35.371094 32.085938 35.019531 33.269531 34.378906 C 34.144531 33.90625 34.9375 33.265625 35.597656 32.527344 C 35.648438 32.472656 35.699219 32.417969 35.746094 32.359375 C 35.851562 32.234375 35.9375 32.082031 35.929688 31.914062 C 35.925781 31.757812 35.875 31.566406 35.746094 31.464844 C 34.429688 30.441406 32.890625 29.707031 31.238281 29.40625 C 29.53125 29.09375 27.765625 29.226562 26.113281 29.761719 C 24.839844 30.175781 23.675781 30.816406 22.632812 31.648438 C 22.515625 31.742188 22.449219 31.949219 22.449219 32.09375 C 22.449219 32.25 22.515625 32.4375 22.632812 32.542969 C 22.753906 32.652344 22.914062 32.734375 23.082031 32.726562 C 23.261719 32.71875 23.390625 32.652344 23.53125 32.542969 Z M 23.53125 32.542969 " fill-opacity="1" fill-rule="nonzero"/><path fill="#000000" d="M 28.453125 30.597656 C 28.46875 30.628906 28.480469 30.660156 28.496094 30.695312 C 28.554688 30.820312 28.433594 30.539062 28.488281 30.679688 C 28.523438 30.761719 28.554688 30.847656 28.582031 30.9375 C 28.613281 31.039062 28.636719 31.140625 28.660156 31.246094 C 28.671875 31.304688 28.671875 31.371094 28.691406 31.429688 C 28.675781 31.378906 28.675781 31.289062 28.6875 31.394531 C 28.6875 31.425781 28.691406 31.460938 28.695312 31.492188 C 28.703125 31.628906 28.707031 31.761719 28.699219 31.894531 C 28.695312 31.96875 28.6875 32.039062 28.679688 32.113281 C 28.671875 32.195312 28.707031 31.949219 28.683594 32.085938 C 28.679688 32.113281 28.675781 32.140625 28.667969 32.164062 C 28.628906 32.382812 28.5625 32.597656 28.480469 32.804688 C 28.421875 32.945312 28.46875 33.164062 28.542969 33.289062 C 28.621094 33.421875 28.773438 33.546875 28.921875 33.582031 C 29.085938 33.617188 29.269531 33.609375 29.414062 33.519531 C 29.558594 33.421875 29.640625 33.300781 29.703125 33.140625 C 30.121094 32.109375 30.023438 30.949219 29.546875 29.960938 C 29.402344 29.660156 28.953125 29.558594 28.679688 29.734375 C 28.371094 29.929688 28.296875 30.277344 28.453125 30.597656 Z M 28.453125 30.597656 " fill-opacity="1" fill-rule="nonzero"/><path fill="#000000" d="M 58.441406 32.0625 C 58.324219 32.121094 58.207031 32.179688 58.089844 32.234375 C 58.03125 32.261719 57.976562 32.285156 57.921875 32.308594 C 57.792969 32.363281 58.027344 32.265625 57.941406 32.300781 C 57.902344 32.316406 57.867188 32.332031 57.828125 32.34375 C 57.589844 32.441406 57.347656 32.523438 57.097656 32.597656 C 56.867188 32.667969 56.628906 32.726562 56.390625 32.773438 C 56.28125 32.796875 56.167969 32.820312 56.054688 32.839844 C 55.996094 32.847656 55.933594 32.859375 55.871094 32.867188 C 55.847656 32.871094 55.824219 32.875 55.796875 32.878906 C 55.996094 32.847656 55.859375 32.871094 55.820312 32.875 C 55.355469 32.933594 54.890625 32.953125 54.425781 32.945312 C 54.199219 32.941406 53.972656 32.929688 53.746094 32.910156 C 53.640625 32.902344 53.539062 32.890625 53.4375 32.878906 C 53.386719 32.875 53.335938 32.867188 53.285156 32.863281 C 53.257812 32.859375 53.226562 32.855469 53.199219 32.851562 C 53.234375 32.855469 53.269531 32.859375 53.300781 32.867188 C 53.28125 32.863281 53.257812 32.859375 53.234375 32.855469 C 52.441406 32.742188 51.660156 32.550781 50.902344 32.292969 C 50.582031 32.1875 50.269531 32.066406 49.960938 31.9375 C 49.824219 31.882812 50.113281 32.003906 49.980469 31.945312 C 49.949219 31.933594 49.921875 31.921875 49.890625 31.910156 C 49.824219 31.878906 49.753906 31.847656 49.6875 31.820312 C 49.5625 31.761719 49.441406 31.707031 49.320312 31.648438 C 49.011719 31.496094 48.703125 31.335938 48.410156 31.152344 C 48.453125 31.484375 48.496094 31.816406 48.539062 32.148438 C 48.722656 31.964844 48.914062 31.789062 49.109375 31.621094 C 49.214844 31.527344 49.320312 31.4375 49.429688 31.351562 C 49.480469 31.308594 49.53125 31.269531 49.585938 31.226562 C 49.699219 31.136719 49.46875 31.3125 49.585938 31.226562 C 49.632812 31.191406 49.675781 31.15625 49.722656 31.125 C 50.011719 30.910156 50.308594 30.710938 50.613281 30.523438 C 50.925781 30.335938 51.246094 30.164062 51.570312 30.003906 C 51.773438 29.902344 51.980469 29.8125 52.1875 29.722656 C 51.976562 29.816406 52.191406 29.722656 52.242188 29.699219 C 52.289062 29.679688 52.339844 29.660156 52.390625 29.640625 C 52.519531 29.589844 52.644531 29.542969 52.773438 29.5 C 53.328125 29.300781 53.898438 29.144531 54.476562 29.023438 C 54.625 28.996094 54.773438 28.96875 54.921875 28.941406 C 55.003906 28.929688 55.089844 28.914062 55.171875 28.902344 C 55.167969 28.902344 55.253906 28.886719 55.257812 28.890625 C 55.160156 28.902344 55.144531 28.90625 55.214844 28.894531 C 55.246094 28.894531 55.273438 28.890625 55.304688 28.886719 C 55.632812 28.84375 55.96875 28.820312 56.300781 28.804688 C 56.925781 28.78125 57.554688 28.804688 58.179688 28.871094 C 58.238281 28.878906 58.300781 28.886719 58.363281 28.894531 C 58.40625 28.898438 58.539062 28.925781 58.339844 28.890625 C 58.375 28.898438 58.414062 28.902344 58.449219 28.90625 C 58.589844 28.925781 58.730469 28.949219 58.871094 28.976562 C 59.125 29.019531 59.378906 29.074219 59.628906 29.136719 C 60.121094 29.253906 60.601562 29.402344 61.074219 29.574219 C 61.171875 29.613281 61.273438 29.648438 61.371094 29.6875 C 61.421875 29.707031 61.46875 29.730469 61.519531 29.75 C 61.539062 29.757812 61.558594 29.765625 61.582031 29.773438 C 61.671875 29.8125 61.410156 29.703125 61.519531 29.746094 C 61.671875 29.8125 61.820312 29.878906 61.972656 29.949219 C 61.894531 29.664062 61.820312 29.375 61.742188 29.085938 C 61.613281 29.28125 61.472656 29.476562 61.328125 29.664062 C 61.285156 29.722656 61.421875 29.546875 61.375 29.605469 C 61.367188 29.613281 61.359375 29.625 61.347656 29.636719 C 61.328125 29.664062 61.308594 29.691406 61.285156 29.71875 C 61.242188 29.769531 61.199219 29.824219 61.152344 29.878906 C 61.0625 29.988281 60.964844 30.097656 60.867188 30.203125 C 60.660156 30.433594 60.4375 30.648438 60.210938 30.855469 C 60.085938 30.96875 59.957031 31.074219 59.824219 31.179688 C 59.796875 31.203125 59.769531 31.226562 59.738281 31.25 C 59.652344 31.316406 59.855469 31.160156 59.734375 31.253906 C 59.664062 31.304688 59.59375 31.359375 59.519531 31.410156 C 59.175781 31.652344 58.816406 31.871094 58.441406 32.0625 C 58.148438 32.214844 58.035156 32.652344 58.214844 32.929688 C 58.410156 33.230469 58.765625 33.320312 59.082031 33.15625 C 60.3125 32.523438 61.402344 31.609375 62.253906 30.523438 C 62.460938 30.261719 62.65625 30 62.839844 29.722656 C 63.015625 29.457031 62.910156 28.996094 62.613281 28.859375 C 60.796875 28.003906 58.8125 27.53125 56.800781 27.53125 C 54.492188 27.527344 52.175781 28.15625 50.179688 29.308594 C 49.253906 29.84375 48.398438 30.503906 47.640625 31.253906 C 47.34375 31.546875 47.425781 32.035156 47.769531 32.246094 C 48.574219 32.746094 49.464844 33.125 50.351562 33.441406 C 52.007812 34.027344 53.808594 34.335938 55.5625 34.167969 C 56.796875 34.050781 57.976562 33.71875 59.082031 33.15625 C 59.378906 33.003906 59.488281 32.566406 59.308594 32.289062 C 59.117188 31.988281 58.757812 31.902344 58.441406 32.0625 Z M 58.441406 32.0625 " fill-opacity="1" fill-rule="nonzero"/><path fill="#000000" d="M 55.046875 28.9375 C 55.175781 29.148438 55.269531 29.375 55.390625 29.589844 C 55.3125 29.453125 55.363281 29.53125 55.378906 29.574219 C 55.390625 29.597656 55.402344 29.625 55.410156 29.648438 C 55.433594 29.707031 55.453125 29.765625 55.476562 29.820312 C 55.515625 29.945312 55.554688 30.070312 55.589844 30.195312 C 55.621094 30.3125 55.648438 30.433594 55.675781 30.554688 C 55.6875 30.613281 55.699219 30.671875 55.707031 30.734375 C 55.710938 30.761719 55.714844 30.789062 55.71875 30.816406 C 55.738281 30.933594 55.707031 30.707031 55.71875 30.789062 C 55.746094 31.042969 55.761719 31.292969 55.757812 31.546875 C 55.75 31.875 56.050781 32.195312 56.390625 32.179688 C 56.738281 32.164062 57.019531 31.902344 57.027344 31.546875 C 57.042969 30.410156 56.734375 29.269531 56.144531 28.296875 C 55.972656 28.015625 55.566406 27.882812 55.277344 28.070312 C 54.992188 28.253906 54.863281 28.632812 55.046875 28.9375 Z M 55.046875 28.9375 " fill-opacity="1" fill-rule="nonzero"/><path fill="#000000" d="M 40.128906 35.257812 C 40.03125 36.199219 40.882812 37.046875 41.777344 37.1875 C 42.277344 37.265625 42.78125 37.183594 43.199219 36.882812 C 43.617188 36.582031 43.90625 36.175781 44.074219 35.691406 C 44.238281 35.210938 44.246094 34.65625 44.097656 34.171875 C 44 33.855469 43.648438 33.621094 43.316406 33.726562 C 42.996094 33.832031 42.765625 34.167969 42.871094 34.507812 C 42.894531 34.582031 42.910156 34.65625 42.929688 34.730469 C 42.957031 34.871094 42.917969 34.574219 42.925781 34.714844 C 42.929688 34.761719 42.933594 34.808594 42.933594 34.855469 C 42.933594 34.925781 42.929688 35 42.925781 35.070312 C 42.917969 35.171875 42.9375 34.992188 42.9375 34.996094 C 42.9375 35.011719 42.929688 35.039062 42.925781 35.054688 C 42.917969 35.101562 42.910156 35.148438 42.898438 35.191406 C 42.878906 35.265625 42.851562 35.339844 42.828125 35.414062 C 42.8125 35.457031 42.773438 35.5 42.855469 35.347656 C 42.847656 35.363281 42.839844 35.382812 42.832031 35.402344 C 42.8125 35.4375 42.792969 35.476562 42.773438 35.511719 C 42.753906 35.546875 42.734375 35.582031 42.710938 35.613281 C 42.695312 35.640625 42.621094 35.738281 42.691406 35.648438 C 42.765625 35.550781 42.667969 35.671875 42.652344 35.6875 C 42.625 35.722656 42.589844 35.753906 42.558594 35.785156 C 42.539062 35.800781 42.4375 35.882812 42.53125 35.8125 C 42.625 35.738281 42.519531 35.816406 42.496094 35.832031 C 42.464844 35.855469 42.429688 35.875 42.394531 35.894531 C 42.375 35.902344 42.359375 35.914062 42.339844 35.921875 C 42.25 35.96875 42.464844 35.878906 42.394531 35.898438 C 42.324219 35.921875 42.253906 35.945312 42.183594 35.960938 C 42.082031 35.980469 42.359375 35.945312 42.207031 35.953125 C 42.167969 35.957031 42.128906 35.957031 42.089844 35.957031 C 42.078125 35.957031 41.984375 35.957031 41.972656 35.945312 C 41.96875 35.941406 42.15625 35.980469 42.054688 35.957031 C 42.042969 35.953125 42.027344 35.949219 42.011719 35.949219 C 41.957031 35.933594 41.816406 35.917969 41.777344 35.875 C 41.765625 35.863281 41.917969 35.941406 41.859375 35.910156 C 41.84375 35.898438 41.824219 35.890625 41.808594 35.882812 C 41.777344 35.867188 41.746094 35.851562 41.71875 35.835938 C 41.683594 35.8125 41.652344 35.792969 41.617188 35.769531 C 41.582031 35.746094 41.546875 35.699219 41.675781 35.816406 C 41.660156 35.800781 41.640625 35.785156 41.621094 35.769531 C 41.558594 35.71875 41.507812 35.65625 41.453125 35.59375 C 41.589844 35.742188 41.496094 35.652344 41.464844 35.597656 C 41.441406 35.558594 41.421875 35.523438 41.402344 35.484375 C 41.378906 35.4375 41.398438 35.40625 41.433594 35.558594 C 41.429688 35.539062 41.417969 35.515625 41.410156 35.492188 C 41.410156 35.480469 41.382812 35.371094 41.382812 35.371094 C 41.386719 35.371094 41.394531 35.523438 41.394531 35.46875 C 41.394531 35.445312 41.390625 35.421875 41.390625 35.398438 C 41.390625 35.351562 41.390625 35.304688 41.398438 35.253906 C 41.410156 35.105469 41.316406 34.910156 41.210938 34.808594 C 41.101562 34.699219 40.921875 34.617188 40.761719 34.621094 C 40.390625 34.640625 40.164062 34.902344 40.128906 35.257812 Z M 40.128906 35.257812 " fill-opacity="1" fill-rule="nonzero"/><path fill="#000000" d="M 41.679688 37.050781 C 41.695312 37.164062 41.714844 37.28125 41.730469 37.394531 C 41.734375 37.417969 41.761719 37.605469 41.746094 37.496094 C 41.730469 37.394531 41.742188 37.488281 41.746094 37.515625 C 41.75 37.546875 41.753906 37.582031 41.757812 37.617188 C 41.789062 37.855469 41.808594 38.097656 41.816406 38.339844 C 41.824219 38.570312 41.820312 38.800781 41.792969 39.03125 C 41.777344 39.191406 41.816406 38.902344 41.789062 39.0625 C 41.78125 39.121094 41.769531 39.179688 41.757812 39.238281 C 41.730469 39.355469 41.699219 39.472656 41.660156 39.585938 C 41.644531 39.636719 41.617188 39.6875 41.605469 39.738281 C 41.609375 39.726562 41.667969 39.601562 41.621094 39.699219 C 41.613281 39.722656 41.601562 39.742188 41.59375 39.765625 C 41.550781 39.847656 41.503906 39.925781 41.453125 40.003906 C 41.421875 40.050781 41.332031 40.148438 41.460938 40 C 41.433594 40.03125 41.410156 40.0625 41.382812 40.09375 C 41.320312 40.164062 41.253906 40.230469 41.183594 40.292969 C 41.152344 40.320312 41.117188 40.34375 41.089844 40.375 C 41.230469 40.242188 41.140625 40.335938 41.09375 40.367188 C 41.015625 40.421875 40.9375 40.46875 40.855469 40.511719 C 40.816406 40.53125 40.78125 40.546875 40.742188 40.566406 C 40.65625 40.609375 40.8125 40.539062 40.8125 40.539062 C 40.800781 40.546875 40.769531 40.554688 40.753906 40.558594 C 40.671875 40.589844 40.585938 40.617188 40.496094 40.636719 C 40.429688 40.652344 40.269531 40.652344 40.492188 40.644531 C 40.441406 40.644531 40.394531 40.652344 40.34375 40.652344 C 40.300781 40.65625 40.257812 40.652344 40.214844 40.652344 C 40.195312 40.648438 40.175781 40.648438 40.160156 40.648438 C 40.082031 40.644531 40.328125 40.675781 40.226562 40.65625 C 40.179688 40.644531 40.132812 40.636719 40.089844 40.625 C 40.054688 40.617188 39.972656 40.601562 39.953125 40.578125 C 39.949219 40.574219 40.109375 40.65625 40.023438 40.605469 C 39.996094 40.589844 39.972656 40.578125 39.945312 40.5625 C 39.902344 40.539062 39.859375 40.511719 39.820312 40.480469 C 39.695312 40.390625 39.476562 40.378906 39.332031 40.417969 C 39.183594 40.457031 39.023438 40.574219 38.953125 40.710938 C 38.777344 41.039062 38.890625 41.367188 39.179688 41.574219 C 39.960938 42.140625 41.074219 41.953125 41.808594 41.40625 C 42.191406 41.121094 42.53125 40.761719 42.726562 40.320312 C 42.96875 39.773438 43.078125 39.203125 43.089844 38.605469 C 43.097656 37.96875 43 37.339844 42.902344 36.714844 C 42.878906 36.566406 42.734375 36.40625 42.609375 36.335938 C 42.472656 36.253906 42.273438 36.222656 42.121094 36.269531 C 41.96875 36.320312 41.820312 36.414062 41.742188 36.5625 C 41.65625 36.722656 41.652344 36.871094 41.679688 37.050781 Z M 41.679688 37.050781 " fill-opacity="1" fill-rule="nonzero"/><path fill="#000000" d="M 41.820312 38.941406 C 41.90625 39.9375 42.519531 40.878906 43.445312 41.300781 C 43.964844 41.535156 44.496094 41.609375 45.0625 41.523438 C 45.558594 41.445312 46.011719 41.207031 46.402344 40.894531 C 46.835938 40.550781 47.15625 40.0625 47.308594 39.535156 C 47.402344 39.214844 47.195312 38.832031 46.867188 38.753906 C 46.527344 38.679688 46.1875 38.855469 46.085938 39.195312 C 46.074219 39.238281 46.0625 39.28125 46.046875 39.324219 C 46.039062 39.34375 46.027344 39.363281 46.023438 39.382812 C 46.058594 39.242188 46.070312 39.277344 46.046875 39.324219 C 46.003906 39.414062 45.957031 39.5 45.90625 39.582031 C 45.882812 39.621094 45.855469 39.65625 45.832031 39.691406 C 45.800781 39.734375 45.765625 39.742188 45.871094 39.640625 C 45.855469 39.65625 45.839844 39.675781 45.828125 39.691406 C 45.765625 39.761719 45.699219 39.832031 45.632812 39.894531 C 45.597656 39.921875 45.566406 39.949219 45.53125 39.980469 C 45.472656 40.03125 45.644531 39.898438 45.582031 39.941406 C 45.5625 39.953125 45.546875 39.96875 45.527344 39.980469 C 45.449219 40.035156 45.371094 40.082031 45.289062 40.128906 C 45.25 40.148438 45.210938 40.167969 45.167969 40.1875 C 45.074219 40.234375 45.230469 40.15625 45.230469 40.160156 C 45.230469 40.164062 45.175781 40.183594 45.167969 40.1875 C 45.078125 40.222656 44.980469 40.25 44.886719 40.273438 C 44.84375 40.28125 44.800781 40.289062 44.753906 40.296875 C 44.707031 40.304688 44.65625 40.292969 44.828125 40.289062 C 44.804688 40.289062 44.78125 40.292969 44.761719 40.296875 C 44.667969 40.304688 44.574219 40.304688 44.480469 40.300781 C 44.441406 40.296875 44.402344 40.292969 44.367188 40.289062 C 44.570312 40.304688 44.429688 40.296875 44.371094 40.285156 C 44.273438 40.265625 44.179688 40.238281 44.085938 40.207031 C 44.078125 40.203125 44.023438 40.183594 44.023438 40.183594 C 44.027344 40.179688 44.179688 40.253906 44.085938 40.207031 C 44.046875 40.1875 44.003906 40.167969 43.964844 40.148438 C 43.882812 40.105469 43.804688 40.054688 43.726562 40.003906 C 43.710938 39.988281 43.691406 39.976562 43.671875 39.964844 C 43.609375 39.917969 43.78125 40.050781 43.722656 40.003906 C 43.691406 39.972656 43.65625 39.945312 43.625 39.914062 C 43.554688 39.851562 43.488281 39.785156 43.429688 39.714844 C 43.414062 39.699219 43.398438 39.679688 43.386719 39.664062 C 43.304688 39.570312 43.472656 39.789062 43.402344 39.6875 C 43.375 39.644531 43.347656 39.605469 43.320312 39.5625 C 43.308594 39.542969 43.164062 39.292969 43.171875 39.289062 C 43.175781 39.285156 43.234375 39.445312 43.199219 39.347656 C 43.191406 39.320312 43.179688 39.296875 43.171875 39.269531 C 43.15625 39.222656 43.140625 39.175781 43.128906 39.128906 C 43.113281 39.078125 43.101562 39.023438 43.09375 38.96875 C 43.089844 38.957031 43.085938 38.914062 43.082031 38.902344 C 43.105469 38.9375 43.101562 39.070312 43.089844 38.941406 C 43.0625 38.613281 42.816406 38.292969 42.453125 38.308594 C 42.136719 38.324219 41.789062 38.585938 41.820312 38.941406 Z M 41.820312 38.941406 " fill-opacity="1" fill-rule="nonzero"/><path fill="#000000" d="M 27.078125 78.714844 C 27.386719 81.34375 27.53125 83.988281 27.566406 86.632812 C 27.601562 89.175781 27.542969 91.71875 27.464844 94.261719 C 27.425781 95.683594 27.378906 97.109375 27.34375 98.53125 C 27.335938 98.863281 27.640625 99.179688 27.976562 99.164062 C 28.328125 99.148438 28.601562 98.886719 28.613281 98.53125 C 28.675781 95.988281 28.773438 93.445312 28.820312 90.902344 C 28.867188 88.332031 28.859375 85.757812 28.722656 83.191406 C 28.644531 81.695312 28.523438 80.203125 28.347656 78.714844 C 28.328125 78.539062 28.289062 78.394531 28.160156 78.265625 C 28.050781 78.15625 27.871094 78.074219 27.710938 78.082031 C 27.546875 78.085938 27.378906 78.140625 27.261719 78.265625 C 27.15625 78.382812 27.058594 78.550781 27.078125 78.714844 Z M 27.078125 78.714844 " fill-opacity="1" fill-rule="nonzero"/><path fill="#000000" d="M 35.144531 101.0625 C 35.738281 98.476562 36.152344 95.851562 36.429688 93.210938 C 36.699219 90.609375 36.824219 87.992188 36.8125 85.375 C 36.808594 83.914062 36.761719 82.453125 36.675781 80.992188 C 36.652344 80.664062 36.394531 80.34375 36.039062 80.359375 C 35.710938 80.375 35.382812 80.640625 35.40625 80.992188 C 35.5625 83.585938 35.589844 86.1875 35.480469 88.785156 C 35.425781 90.085938 35.335938 91.386719 35.210938 92.683594 C 35.148438 93.335938 35.078125 93.992188 34.996094 94.644531 C 34.976562 94.796875 34.957031 94.949219 34.9375 95.105469 C 34.929688 95.148438 34.925781 95.191406 34.917969 95.234375 C 34.941406 95.074219 34.929688 95.164062 34.921875 95.199219 C 34.910156 95.292969 34.898438 95.386719 34.882812 95.484375 C 34.835938 95.8125 34.789062 96.140625 34.738281 96.464844 C 34.515625 97.894531 34.242188 99.316406 33.917969 100.726562 C 33.84375 101.046875 34.019531 101.425781 34.363281 101.503906 C 34.6875 101.578125 35.0625 101.40625 35.144531 101.0625 Z M 35.144531 101.0625 " fill-opacity="1" fill-rule="nonzero"/><path fill="#000000" d="M 52.882812 80.96875 C 52.96875 83.679688 53.089844 86.386719 53.238281 89.09375 C 53.386719 91.800781 53.566406 94.503906 53.777344 97.207031 C 53.898438 98.71875 54.023438 100.234375 54.164062 101.746094 C 54.179688 101.917969 54.222656 102.066406 54.347656 102.191406 C 54.457031 102.300781 54.640625 102.386719 54.796875 102.378906 C 55.117188 102.363281 55.464844 102.097656 55.433594 101.746094 C 55.1875 99.046875 54.96875 96.34375 54.785156 93.640625 C 54.601562 90.933594 54.449219 88.226562 54.328125 85.519531 C 54.257812 84.003906 54.199219 82.488281 54.152344 80.96875 C 54.140625 80.640625 53.867188 80.320312 53.515625 80.335938 C 53.183594 80.351562 52.871094 80.613281 52.882812 80.96875 Z M 52.882812 80.96875 " fill-opacity="1" fill-rule="nonzero"/><path fill="#000000" d="M 64.234375 100.566406 C 64.183594 98.496094 64.128906 96.429688 64.078125 94.363281 C 64.019531 92.09375 63.960938 89.824219 63.90625 87.554688 C 63.878906 86.472656 63.847656 85.390625 63.820312 84.308594 C 63.8125 83.980469 63.535156 83.660156 63.1875 83.675781 C 62.851562 83.691406 62.542969 83.957031 62.554688 84.308594 C 62.605469 86.378906 62.65625 88.445312 62.710938 90.511719 C 62.769531 92.78125 62.824219 95.050781 62.882812 97.320312 C 62.910156 98.402344 62.9375 99.484375 62.964844 100.566406 C 62.972656 100.894531 63.25 101.214844 63.601562 101.199219 C 63.9375 101.183594 64.242188 100.917969 64.234375 100.566406 Z M 64.234375 100.566406 " fill-opacity="1" fill-rule="nonzero"/><path fill="#000000" d="M 41.019531 72.964844 C 41.019531 73.757812 41.019531 74.546875 41.019531 75.339844 C 41.019531 75.671875 41.3125 75.988281 41.652344 75.972656 C 41.996094 75.957031 42.289062 75.695312 42.289062 75.339844 C 42.289062 74.546875 42.289062 73.757812 42.289062 72.964844 C 42.289062 72.636719 41.996094 72.316406 41.652344 72.332031 C 41.308594 72.347656 41.019531 72.609375 41.019531 72.964844 Z M 41.019531 72.964844 " fill-opacity="1" fill-rule="nonzero"/><path fill="#000000" d="M 43.003906 68.21875 C 43.027344 68.351562 43.050781 68.488281 43.074219 68.625 C 43.078125 68.660156 43.082031 68.691406 43.085938 68.726562 C 43.101562 68.8125 43.082031 68.699219 43.082031 68.675781 C 43.085938 68.738281 43.097656 68.800781 43.101562 68.859375 C 43.125 69.078125 43.140625 69.296875 43.148438 69.515625 C 43.15625 69.972656 43.125 70.429688 43.089844 70.886719 C 43.066406 71.21875 43.398438 71.535156 43.722656 71.519531 C 44.089844 71.503906 44.332031 71.242188 44.359375 70.886719 C 44.394531 70.421875 44.425781 69.953125 44.414062 69.484375 C 44.398438 68.945312 44.324219 68.410156 44.226562 67.878906 C 44.167969 67.554688 43.753906 67.339844 43.449219 67.4375 C 43.097656 67.550781 42.941406 67.867188 43.003906 68.21875 Z M 43.003906 68.21875 " fill-opacity="1" fill-rule="nonzero"/><path fill="#000000" d="M 46.96875 68.21875 C 46.96875 69.109375 46.96875 70 46.96875 70.890625 C 46.96875 71.21875 47.261719 71.539062 47.601562 71.523438 C 47.945312 71.507812 48.238281 71.242188 48.238281 70.890625 C 48.238281 70 48.238281 69.109375 48.238281 68.21875 C 48.238281 67.886719 47.945312 67.570312 47.601562 67.585938 C 47.257812 67.601562 46.96875 67.863281 46.96875 68.21875 Z M 46.96875 68.21875 " fill-opacity="1" fill-rule="nonzero"/><path fill="#000000" d="M 46.632812 77.59375 C 46.757812 78.480469 46.882812 79.367188 47.003906 80.253906 C 47.027344 80.398438 47.175781 80.5625 47.296875 80.632812 C 47.433594 80.710938 47.632812 80.746094 47.785156 80.695312 C 47.941406 80.648438 48.085938 80.550781 48.164062 80.40625 C 48.25 80.246094 48.253906 80.097656 48.230469 79.917969 C 48.105469 79.03125 47.980469 78.144531 47.859375 77.257812 C 47.835938 77.113281 47.6875 76.949219 47.566406 76.878906 C 47.429688 76.800781 47.230469 76.765625 47.078125 76.816406 C 46.925781 76.863281 46.777344 76.960938 46.699219 77.105469 C 46.613281 77.265625 46.609375 77.414062 46.632812 77.59375 Z M 46.632812 77.59375 " fill-opacity="1" fill-rule="nonzero"/><path fill="#000000" d="M 43.707031 84.367188 C 43.625 84.832031 43.535156 85.296875 43.472656 85.765625 C 43.410156 86.242188 43.394531 86.726562 43.410156 87.207031 C 43.421875 87.539062 43.695312 87.855469 44.046875 87.839844 C 44.378906 87.824219 44.691406 87.5625 44.679688 87.207031 C 44.664062 86.734375 44.683594 86.265625 44.738281 85.796875 C 44.746094 85.71875 44.71875 85.949219 44.730469 85.871094 C 44.734375 85.84375 44.734375 85.816406 44.738281 85.789062 C 44.746094 85.742188 44.753906 85.695312 44.761719 85.648438 C 44.777344 85.546875 44.796875 85.445312 44.8125 85.347656 C 44.851562 85.132812 44.894531 84.917969 44.933594 84.703125 C 44.964844 84.53125 44.957031 84.371094 44.867188 84.214844 C 44.792969 84.085938 44.640625 83.957031 44.488281 83.925781 C 44.179688 83.855469 43.773438 84.019531 43.707031 84.367188 Z M 43.707031 84.367188 " fill-opacity="1" fill-rule="nonzero"/><path fill="#000000" d="M 40.417969 83.648438 C 40.417969 84.136719 40.410156 84.625 40.351562 85.105469 C 40.332031 85.253906 40.375 84.949219 40.351562 85.09375 C 40.347656 85.140625 40.339844 85.1875 40.332031 85.234375 C 40.316406 85.324219 40.300781 85.414062 40.285156 85.503906 C 40.246094 85.722656 40.199219 85.9375 40.15625 86.152344 C 40.09375 86.476562 40.25 86.851562 40.601562 86.933594 C 40.914062 87.003906 41.3125 86.835938 41.382812 86.492188 C 41.46875 86.039062 41.558594 85.589844 41.617188 85.132812 C 41.679688 84.640625 41.6875 84.144531 41.6875 83.648438 C 41.6875 83.320312 41.394531 83 41.054688 83.015625 C 40.710938 83.03125 40.417969 83.292969 40.417969 83.648438 Z M 40.417969 83.648438 " fill-opacity="1" fill-rule="nonzero"/><path fill="#000000" d="M 47.507812 90.183594 C 47.609375 90.976562 47.707031 91.765625 47.804688 92.558594 C 47.824219 92.730469 47.859375 92.875 47.988281 93.003906 C 48.101562 93.117188 48.28125 93.199219 48.4375 93.191406 C 48.601562 93.183594 48.773438 93.128906 48.886719 93.003906 C 48.992188 92.890625 49.09375 92.71875 49.074219 92.558594 C 48.976562 91.765625 48.875 90.976562 48.777344 90.183594 C 48.757812 90.007812 48.722656 89.863281 48.59375 89.734375 C 48.484375 89.625 48.300781 89.542969 48.144531 89.550781 C 47.980469 89.558594 47.808594 89.613281 47.695312 89.734375 C 47.589844 89.851562 47.488281 90.019531 47.507812 90.183594 Z M 47.507812 90.183594 " fill-opacity="1" fill-rule="nonzero"/><path fill="#000000" d="M 42.507812 93.441406 C 42.507812 94.53125 42.507812 95.617188 42.507812 96.707031 C 42.507812 97.035156 42.796875 97.355469 43.140625 97.339844 C 43.484375 97.324219 43.777344 97.058594 43.777344 96.707031 C 43.777344 95.617188 43.777344 94.527344 43.777344 93.441406 C 43.777344 93.109375 43.484375 92.792969 43.140625 92.808594 C 42.796875 92.824219 42.507812 93.085938 42.507812 93.441406 Z M 42.507812 93.441406 " fill-opacity="1" fill-rule="nonzero"/><path fill="#000000" d="M 38.9375 95.519531 C 38.9375 96.113281 38.9375 96.707031 38.9375 97.300781 C 38.9375 97.628906 39.230469 97.945312 39.570312 97.933594 C 39.914062 97.917969 40.207031 97.652344 40.207031 97.300781 C 40.207031 96.707031 40.207031 96.113281 40.207031 95.519531 C 40.207031 95.1875 39.914062 94.871094 39.570312 94.886719 C 39.226562 94.902344 38.9375 95.164062 38.9375 95.519531 Z M 38.9375 95.519531 " fill-opacity="1" fill-rule="nonzero"/><path fill="#000000" d="M 46.671875 97.890625 C 46.671875 98.980469 46.671875 100.070312 46.671875 101.15625 C 46.671875 101.488281 46.960938 101.804688 47.304688 101.789062 C 47.648438 101.773438 47.941406 101.511719 47.941406 101.15625 C 47.941406 100.070312 47.941406 98.980469 47.941406 97.890625 C 47.941406 97.5625 47.648438 97.242188 47.304688 97.257812 C 46.960938 97.273438 46.671875 97.539062 46.671875 97.890625 Z M 46.671875 97.890625 " fill-opacity="1" fill-rule="nonzero"/><path fill="#000000" d="M 38.9375 63.765625 C 38.9375 64.855469 38.9375 65.941406 38.9375 67.03125 C 38.9375 67.363281 39.230469 67.679688 39.570312 67.664062 C 39.914062 67.648438 40.207031 67.386719 40.207031 67.03125 C 40.207031 65.941406 40.207031 64.855469 40.207031 63.765625 C 40.207031 63.4375 39.914062 63.117188 39.570312 63.132812 C 39.226562 63.148438 38.9375 63.414062 38.9375 63.765625 Z M 38.9375 63.765625 " fill-opacity="1" fill-rule="nonzero"/><path fill="#000000" d="M 46.074219 56.347656 C 46.074219 57.039062 46.074219 57.734375 46.074219 58.425781 C 46.074219 58.757812 46.367188 59.074219 46.710938 59.058594 C 47.054688 59.042969 47.34375 58.78125 47.34375 58.425781 C 47.34375 57.734375 47.34375 57.039062 47.34375 56.347656 C 47.34375 56.015625 47.054688 55.699219 46.710938 55.714844 C 46.367188 55.730469 46.074219 55.992188 46.074219 56.347656 Z M 46.074219 56.347656 " fill-opacity="1" fill-rule="nonzero"/><path fill="#000000" d="M 50.816406 62.761719 C 50.910156 63.058594 51.007812 63.355469 51.105469 63.65625 C 51.15625 63.8125 51.253906 63.949219 51.398438 64.03125 C 51.46875 64.078125 51.546875 64.105469 51.632812 64.109375 C 51.714844 64.128906 51.800781 64.125 51.886719 64.097656 C 52.039062 64.046875 52.1875 63.953125 52.265625 63.804688 C 52.34375 63.660156 52.382812 63.480469 52.328125 63.316406 C 52.230469 63.019531 52.136719 62.722656 52.039062 62.425781 C 51.988281 62.269531 51.890625 62.132812 51.746094 62.046875 C 51.675781 62 51.59375 61.976562 51.511719 61.972656 C 51.425781 61.953125 51.34375 61.957031 51.257812 61.984375 C 51.105469 62.03125 50.957031 62.128906 50.878906 62.273438 C 50.800781 62.421875 50.761719 62.597656 50.816406 62.761719 Z M 50.816406 62.761719 " fill-opacity="1" fill-rule="nonzero"/><path fill="#000000" d="M 44.292969 61.691406 C 44.292969 62.382812 44.292969 63.074219 44.292969 63.765625 C 44.292969 64.097656 44.582031 64.414062 44.925781 64.398438 C 45.269531 64.382812 45.558594 64.121094 45.558594 63.765625 C 45.558594 63.074219 45.558594 62.382812 45.558594 61.691406 C 45.558594 61.359375 45.269531 61.042969 44.925781 61.058594 C 44.582031 61.070312 44.292969 61.335938 44.292969 61.691406 Z M 44.292969 61.691406 " fill-opacity="1" fill-rule="nonzero"/><path fill="#000000" d="M 54.914062 43.902344 C 55.339844 44.105469 55.757812 44.324219 56.132812 44.609375 C 56.089844 44.574219 56.046875 44.542969 56.003906 44.511719 C 56.3125 44.75 56.585938 45.027344 56.855469 45.304688 C 57.085938 45.542969 57.523438 45.554688 57.753906 45.304688 C 57.988281 45.050781 58 44.664062 57.753906 44.410156 C 57.425781 44.074219 57.09375 43.753906 56.714844 43.472656 C 56.355469 43.207031 55.957031 43.003906 55.554688 42.808594 C 55.402344 42.734375 55.238281 42.699219 55.066406 42.746094 C 54.921875 42.785156 54.761719 42.898438 54.6875 43.035156 C 54.539062 43.320312 54.597656 43.746094 54.914062 43.902344 Z M 54.914062 43.902344 " fill-opacity="1" fill-rule="nonzero"/><path fill="#000000" d="M 57.433594 40.984375 C 57.726562 41.097656 58.019531 41.207031 58.3125 41.320312 C 58.414062 41.363281 58.515625 41.402344 58.617188 41.441406 C 58.664062 41.460938 58.710938 41.480469 58.757812 41.5 C 58.78125 41.507812 58.804688 41.515625 58.828125 41.527344 C 58.808594 41.519531 58.65625 41.453125 58.753906 41.496094 C 59.167969 41.675781 59.570312 41.871094 59.972656 42.066406 C 60.128906 42.140625 60.292969 42.175781 60.464844 42.128906 C 60.609375 42.089844 60.769531 41.976562 60.84375 41.839844 C 60.992188 41.554688 60.933594 41.125 60.613281 40.972656 C 60.203125 40.777344 59.792969 40.574219 59.375 40.394531 C 58.847656 40.171875 58.308594 39.96875 57.769531 39.761719 C 57.625 39.707031 57.410156 39.753906 57.28125 39.828125 C 57.152344 39.90625 57.023438 40.054688 56.992188 40.207031 C 56.90625 40.566406 57.101562 40.859375 57.433594 40.984375 Z M 57.433594 40.984375 " fill-opacity="1" fill-rule="nonzero"/><path fill="#000000" d="M 60.292969 38.121094 C 61.1875 38.023438 62.078125 37.925781 62.972656 37.832031 C 63.144531 37.8125 63.292969 37.773438 63.421875 37.644531 C 63.53125 37.535156 63.613281 37.355469 63.605469 37.199219 C 63.59375 36.886719 63.324219 36.527344 62.972656 36.566406 C 62.078125 36.660156 61.1875 36.757812 60.292969 36.851562 C 60.121094 36.871094 59.972656 36.910156 59.84375 37.039062 C 59.734375 37.148438 59.652344 37.328125 59.660156 37.484375 C 59.671875 37.796875 59.941406 38.15625 60.292969 38.121094 Z M 60.292969 38.121094 " fill-opacity="1" fill-rule="nonzero"/><path fill="#000000" d="M 25.390625 42.800781 C 26.191406 41.917969 26.996094 41.035156 27.796875 40.152344 C 28.019531 39.90625 28.058594 39.496094 27.796875 39.257812 C 27.554688 39.035156 27.136719 38.996094 26.898438 39.257812 C 26.097656 40.140625 25.296875 41.019531 24.492188 41.902344 C 24.269531 42.148438 24.230469 42.558594 24.492188 42.800781 C 24.738281 43.023438 25.152344 43.0625 25.390625 42.800781 Z M 25.390625 42.800781 " fill-opacity="1" fill-rule="nonzero"/><path fill="#000000" d="M 28.738281 43.570312 C 28.957031 43.164062 29.199219 42.769531 29.457031 42.386719 C 29.585938 42.203125 29.714844 42.019531 29.851562 41.84375 C 29.867188 41.820312 29.886719 41.800781 29.902344 41.777344 C 29.882812 41.804688 29.828125 41.867188 29.878906 41.804688 C 29.917969 41.757812 29.957031 41.707031 29.996094 41.65625 C 30.074219 41.566406 30.148438 41.472656 30.226562 41.382812 C 30.335938 41.253906 30.410156 41.113281 30.410156 40.9375 C 30.410156 40.78125 30.34375 40.59375 30.226562 40.488281 C 29.988281 40.273438 29.558594 40.21875 29.328125 40.488281 C 28.6875 41.242188 28.117188 42.058594 27.640625 42.929688 C 27.484375 43.21875 27.558594 43.632812 27.871094 43.796875 C 28.164062 43.953125 28.570312 43.878906 28.738281 43.570312 Z M 28.738281 43.570312 " fill-opacity="1" fill-rule="nonzero"/><path fill="#000000" d="M 32.683594 45.984375 C 33.070312 45.285156 33.457031 44.589844 33.84375 43.890625 C 34.003906 43.601562 33.921875 43.1875 33.617188 43.023438 C 33.316406 42.867188 32.917969 42.941406 32.746094 43.253906 C 32.359375 43.949219 31.972656 44.648438 31.585938 45.347656 C 31.425781 45.636719 31.507812 46.050781 31.816406 46.210938 C 32.113281 46.367188 32.511719 46.292969 32.683594 45.984375 Z M 32.683594 45.984375 " fill-opacity="1" fill-rule="nonzero"/><path fill="#000000" d="M 70.59375 98.953125 C 70.554688 98.734375 70.515625 98.515625 70.480469 98.292969 C 70.460938 98.1875 70.445312 98.078125 70.429688 97.972656 C 70.421875 97.921875 70.414062 97.871094 70.40625 97.820312 C 70.398438 97.773438 70.375 97.550781 70.398438 97.761719 C 70.351562 97.332031 70.296875 96.902344 70.261719 96.46875 C 70.1875 95.59375 70.160156 94.714844 70.175781 93.835938 C 70.195312 92.957031 70.253906 92.082031 70.355469 91.207031 C 70.367188 91.101562 70.378906 90.992188 70.394531 90.886719 C 70.398438 90.863281 70.421875 90.679688 70.40625 90.800781 C 70.390625 90.902344 70.402344 90.8125 70.40625 90.789062 C 70.410156 90.75 70.417969 90.710938 70.421875 90.675781 C 70.453125 90.460938 70.488281 90.246094 70.523438 90.03125 C 70.59375 89.597656 70.675781 89.167969 70.769531 88.738281 C 70.953125 87.875 71.179688 87.023438 71.445312 86.1875 C 71.578125 85.765625 71.722656 85.351562 71.875 84.9375 C 71.953125 84.726562 72.03125 84.519531 72.113281 84.3125 C 72.152344 84.214844 72.1875 84.121094 72.226562 84.027344 C 72.246094 83.980469 72.265625 83.933594 72.285156 83.886719 C 72.296875 83.863281 72.304688 83.839844 72.316406 83.816406 C 72.324219 83.792969 72.335938 83.769531 72.34375 83.746094 C 72.332031 83.773438 72.324219 83.796875 72.3125 83.824219 C 73.019531 82.210938 73.835938 80.65625 74.824219 79.191406 C 75.070312 78.828125 75.324219 78.46875 75.585938 78.117188 C 75.652344 78.03125 75.71875 77.945312 75.785156 77.859375 C 75.800781 77.839844 75.816406 77.820312 75.832031 77.796875 C 75.824219 77.808594 75.734375 77.917969 75.800781 77.835938 C 75.839844 77.785156 75.878906 77.734375 75.917969 77.683594 C 76.054688 77.515625 76.191406 77.347656 76.328125 77.179688 C 76.890625 76.503906 77.488281 75.855469 78.117188 75.242188 C 78.273438 75.089844 78.429688 74.9375 78.589844 74.789062 C 78.832031 74.566406 78.835938 74.121094 78.589844 73.894531 C 78.328125 73.65625 77.949219 73.652344 77.691406 73.894531 C 76.351562 75.140625 75.15625 76.53125 74.097656 78.019531 C 73.070312 79.464844 72.1875 81.011719 71.460938 82.625 C 70.710938 84.292969 70.105469 86.023438 69.679688 87.804688 C 69.261719 89.566406 69.003906 91.375 68.929688 93.1875 C 68.851562 95.015625 68.964844 96.84375 69.257812 98.648438 C 69.292969 98.863281 69.332031 99.078125 69.371094 99.289062 C 69.433594 99.617188 69.84375 99.832031 70.152344 99.730469 C 70.5 99.621094 70.660156 99.304688 70.59375 98.953125 Z M 70.59375 98.953125 " fill-opacity="1" fill-rule="nonzero"/></svg>