<svg xmlns="http://www.w3.org/2000/svg" xmlns:xlink="http://www.w3.org/1999/xlink" width="50" zoomAndPan="magnify" viewBox="0 0 37.5 37.499999" height="50" preserveAspectRatio="xMidYMid meet" version="1.0"><defs><clipPath id="a73af3afbd"><path d="M 2.121094 5 L 35 5 L 35 32.449219 L 2.121094 32.449219 Z M 2.121094 5 " clip-rule="nonzero"/></clipPath><clipPath id="84581dc9c4"><path d="M 2.121094 4.699219 L 35.121094 4.699219 L 35.121094 32.449219 L 2.121094 32.449219 Z M 2.121094 4.699219 " clip-rule="nonzero"/></clipPath><clipPath id="761d84a728"><path d="M 2.121094 9 L 6 9 L 6 11 L 2.121094 11 Z M 2.121094 9 " clip-rule="nonzero"/></clipPath><clipPath id="c065e880d2"><path d="M 11 4.699219 L 13 4.699219 L 13 9 L 11 9 Z M 11 4.699219 " clip-rule="nonzero"/></clipPath></defs><g clip-path="url(#a73af3afbd)"><path fill="#ffffff" d="M 2.402344 9.398438 C 2.402344 9.398438 4.078125 10.632812 4.410156 10.644531 C 4.738281 10.660156 5.054688 10.644531 5.054688 10.644531 C 5.054688 10.644531 6.777344 9.582031 7.570312 9.289062 C 8.363281 9 10.039062 8.34375 10.742188 8.257812 C 11.445312 8.171875 12.152344 8.089844 12.152344 8.089844 L 12.152344 5.277344 C 12.152344 5.277344 14.066406 7.050781 14.609375 7.507812 C 15.148438 7.964844 17.398438 10.023438 19.148438 10.652344 C 20.898438 11.28125 25.402344 12.757812 27.355469 13.800781 C 29.308594 14.84375 33.410156 16.429688 34.242188 17.65625 C 35.074219 18.878906 34.804688 19.292969 34.769531 21.234375 C 34.734375 23.234375 34.175781 24.148438 33.691406 25.210938 C 33.207031 26.277344 32.15625 28.175781 31.402344 28.90625 C 30.648438 29.640625 29.046875 30.949219 28.03125 31.265625 C 27.015625 31.582031 24.296875 32.300781 23.09375 32.292969 C 21.894531 32.28125 18.664062 32.113281 18.105469 31.972656 C 17.550781 31.832031 15.636719 31.082031 13.789062 29.78125 C 11.941406 28.480469 10.484375 26.78125 9.527344 25.703125 C 8.570312 24.628906 7.5625 23.0625 6.652344 21.335938 C 5.738281 19.613281 4.171875 15.871094 4.171875 15.871094 L 3.089844 12.652344 Z M 2.402344 9.398438 " fill-opacity="1" fill-rule="nonzero"/></g><path fill="#ffa400" d="M 12.550781 16.355469 C 12.335938 16.308594 12.117188 16.285156 11.898438 16.285156 C 10.9375 16.285156 11.394531 17.554688 12.09375 17.648438 C 12.429688 17.691406 12.929688 17.554688 13.070312 17.234375 C 13.273438 16.78125 12.972656 16.445312 12.550781 16.355469 Z M 12.550781 16.355469 " fill-opacity="1" fill-rule="nonzero"/><path fill="#ff7900" d="M 12.390625 15.984375 C 12.449219 15.800781 12.527344 15.621094 12.667969 15.488281 C 12.769531 15.390625 12.914062 15.320312 13.058594 15.347656 C 13.222656 15.378906 13.339844 15.535156 13.382812 15.695312 C 13.425781 15.855469 13.414062 16.027344 13.410156 16.195312 C 13.40625 16.445312 13.4375 16.695312 13.503906 16.9375 C 13.515625 16.988281 13.613281 17.082031 13.664062 17.085938 C 13.636719 17.085938 13.542969 17.234375 13.515625 17.253906 C 13.441406 17.304688 13.3125 17.425781 13.234375 17.460938 C 13.070312 17.535156 12.8125 17.617188 12.636719 17.628906 C 12.546875 17.636719 12.363281 17.640625 12.292969 17.605469 C 12.183594 17.554688 12.175781 17.414062 12.183594 17.3125 C 12.199219 17.101562 12.238281 16.890625 12.253906 16.679688 C 12.273438 16.441406 12.320312 16.210938 12.390625 15.984375 Z M 12.390625 15.984375 " fill-opacity="1" fill-rule="nonzero"/><path fill="#000000" d="M 12.566406 16.03125 C 12.582031 15.984375 12.597656 15.941406 12.613281 15.894531 C 12.617188 15.890625 12.621094 15.882812 12.621094 15.875 C 12.621094 15.875 12.605469 15.910156 12.613281 15.894531 C 12.621094 15.882812 12.625 15.871094 12.628906 15.863281 C 12.640625 15.839844 12.652344 15.816406 12.664062 15.792969 C 12.6875 15.753906 12.710938 15.710938 12.738281 15.671875 C 12.75 15.65625 12.726562 15.6875 12.726562 15.6875 C 12.730469 15.683594 12.734375 15.679688 12.738281 15.675781 C 12.746094 15.667969 12.753906 15.65625 12.761719 15.648438 C 12.777344 15.628906 12.796875 15.613281 12.8125 15.597656 C 12.816406 15.59375 12.820312 15.589844 12.824219 15.585938 C 12.847656 15.566406 12.820312 15.59375 12.816406 15.59375 C 12.824219 15.589844 12.832031 15.582031 12.84375 15.574219 C 12.863281 15.5625 12.886719 15.550781 12.910156 15.539062 C 12.9375 15.523438 12.875 15.550781 12.90625 15.539062 C 12.914062 15.535156 12.925781 15.53125 12.9375 15.53125 C 12.949219 15.527344 12.960938 15.523438 12.972656 15.519531 C 12.992188 15.515625 12.949219 15.523438 12.949219 15.523438 C 12.957031 15.523438 12.964844 15.523438 12.972656 15.523438 C 12.984375 15.519531 12.992188 15.519531 13.003906 15.519531 C 13.007812 15.523438 13.015625 15.523438 13.019531 15.523438 C 13.042969 15.523438 12.980469 15.515625 13.003906 15.519531 C 13.007812 15.519531 13.0625 15.535156 13.0625 15.535156 C 13.0625 15.535156 13.027344 15.519531 13.042969 15.527344 C 13.046875 15.53125 13.054688 15.53125 13.058594 15.535156 C 13.066406 15.539062 13.074219 15.542969 13.082031 15.550781 C 13.089844 15.554688 13.117188 15.574219 13.089844 15.554688 C 13.066406 15.535156 13.101562 15.5625 13.105469 15.566406 C 13.117188 15.578125 13.132812 15.59375 13.144531 15.605469 C 13.167969 15.636719 13.125 15.582031 13.140625 15.605469 C 13.148438 15.613281 13.15625 15.625 13.160156 15.632812 C 13.171875 15.652344 13.179688 15.667969 13.191406 15.6875 C 13.191406 15.691406 13.195312 15.695312 13.195312 15.699219 C 13.203125 15.71875 13.1875 15.679688 13.1875 15.679688 C 13.191406 15.679688 13.199219 15.707031 13.199219 15.710938 C 13.207031 15.734375 13.210938 15.757812 13.21875 15.78125 C 13.21875 15.792969 13.222656 15.804688 13.226562 15.816406 C 13.226562 15.824219 13.226562 15.828125 13.226562 15.835938 C 13.230469 15.859375 13.222656 15.789062 13.226562 15.832031 C 13.230469 15.882812 13.234375 15.9375 13.234375 15.992188 C 13.234375 16.101562 13.230469 16.210938 13.230469 16.320312 C 13.234375 16.441406 13.246094 16.566406 13.265625 16.6875 C 13.273438 16.75 13.285156 16.808594 13.300781 16.871094 C 13.308594 16.933594 13.328125 16.992188 13.355469 17.050781 C 13.382812 17.097656 13.417969 17.136719 13.457031 17.171875 C 13.5 17.207031 13.554688 17.25 13.613281 17.261719 L 13.664062 16.910156 C 13.59375 16.910156 13.535156 16.941406 13.492188 16.996094 C 13.472656 17.019531 13.457031 17.042969 13.4375 17.070312 C 13.425781 17.082031 13.378906 17.140625 13.421875 17.085938 C 13.414062 17.097656 13.402344 17.109375 13.394531 17.117188 C 13.382812 17.136719 13.445312 17.082031 13.414062 17.105469 C 13.394531 17.121094 13.375 17.132812 13.355469 17.148438 C 13.316406 17.179688 13.28125 17.210938 13.242188 17.242188 C 13.234375 17.246094 13.203125 17.273438 13.230469 17.253906 C 13.253906 17.230469 13.222656 17.257812 13.21875 17.261719 C 13.199219 17.273438 13.179688 17.289062 13.160156 17.296875 C 13.140625 17.308594 13.121094 17.316406 13.101562 17.324219 C 13.15625 17.300781 13.113281 17.320312 13.101562 17.324219 C 13.085938 17.328125 13.074219 17.335938 13.058594 17.339844 C 12.953125 17.378906 12.847656 17.410156 12.738281 17.433594 C 12.710938 17.441406 12.6875 17.445312 12.660156 17.449219 C 12.628906 17.453125 12.703125 17.441406 12.667969 17.449219 C 12.652344 17.449219 12.640625 17.449219 12.628906 17.453125 C 12.585938 17.453125 12.542969 17.457031 12.5 17.457031 C 12.476562 17.457031 12.453125 17.453125 12.429688 17.453125 C 12.417969 17.453125 12.40625 17.453125 12.394531 17.449219 C 12.355469 17.449219 12.441406 17.460938 12.398438 17.453125 C 12.390625 17.449219 12.378906 17.449219 12.371094 17.445312 C 12.359375 17.441406 12.332031 17.429688 12.367188 17.445312 C 12.414062 17.464844 12.339844 17.421875 12.375 17.449219 C 12.398438 17.46875 12.382812 17.457031 12.378906 17.453125 C 12.363281 17.4375 12.371094 17.433594 12.386719 17.464844 C 12.382812 17.457031 12.375 17.449219 12.371094 17.441406 C 12.367188 17.433594 12.359375 17.414062 12.371094 17.445312 C 12.382812 17.472656 12.375 17.453125 12.375 17.445312 C 12.371094 17.4375 12.367188 17.425781 12.367188 17.417969 C 12.363281 17.414062 12.363281 17.40625 12.363281 17.402344 C 12.355469 17.371094 12.367188 17.441406 12.367188 17.421875 C 12.363281 17.375 12.363281 17.328125 12.367188 17.28125 C 12.378906 17.144531 12.398438 17.011719 12.414062 16.875 C 12.421875 16.800781 12.429688 16.730469 12.4375 16.65625 C 12.441406 16.617188 12.445312 16.582031 12.449219 16.542969 C 12.449219 16.53125 12.449219 16.511719 12.445312 16.554688 C 12.449219 16.542969 12.449219 16.53125 12.449219 16.523438 C 12.453125 16.503906 12.457031 16.484375 12.460938 16.46875 C 12.484375 16.320312 12.519531 16.175781 12.566406 16.03125 C 12.597656 15.917969 12.554688 15.84375 12.441406 15.808594 C 12.324219 15.78125 12.25 15.824219 12.21875 15.9375 C 12.175781 16.066406 12.144531 16.199219 12.117188 16.335938 C 12.09375 16.484375 12.078125 16.636719 12.0625 16.785156 C 12.046875 16.925781 12.027344 17.066406 12.011719 17.207031 C 12 17.320312 11.988281 17.441406 12.03125 17.554688 C 12.078125 17.695312 12.175781 17.78125 12.324219 17.800781 C 12.433594 17.816406 12.539062 17.820312 12.644531 17.808594 C 12.769531 17.796875 12.890625 17.773438 13.007812 17.734375 C 13.125 17.703125 13.238281 17.660156 13.34375 17.605469 C 13.402344 17.570312 13.457031 17.527344 13.511719 17.484375 C 13.535156 17.464844 13.554688 17.449219 13.578125 17.429688 C 13.589844 17.417969 13.601562 17.410156 13.613281 17.402344 C 13.613281 17.402344 13.570312 17.433594 13.59375 17.417969 C 13.597656 17.414062 13.601562 17.410156 13.605469 17.40625 C 13.65625 17.367188 13.695312 17.324219 13.730469 17.269531 L 13.742188 17.257812 C 13.757812 17.238281 13.714844 17.289062 13.730469 17.273438 C 13.734375 17.265625 13.742188 17.257812 13.75 17.25 C 13.753906 17.242188 13.761719 17.234375 13.765625 17.230469 C 13.769531 17.226562 13.773438 17.226562 13.773438 17.222656 L 13.742188 17.246094 C 13.769531 17.230469 13.746094 17.238281 13.660156 17.269531 C 13.765625 17.265625 13.824219 17.214844 13.839844 17.109375 C 13.851562 17.03125 13.796875 16.929688 13.710938 16.914062 C 13.703125 16.914062 13.679688 16.902344 13.710938 16.917969 C 13.742188 16.929688 13.71875 16.917969 13.710938 16.914062 C 13.707031 16.910156 13.703125 16.910156 13.699219 16.90625 C 13.683594 16.898438 13.722656 16.921875 13.71875 16.921875 C 13.710938 16.921875 13.695312 16.902344 13.695312 16.898438 C 13.6875 16.894531 13.679688 16.886719 13.675781 16.882812 C 13.671875 16.878906 13.667969 16.875 13.664062 16.867188 C 13.664062 16.867188 13.691406 16.902344 13.679688 16.890625 C 13.675781 16.882812 13.671875 16.878906 13.667969 16.871094 C 13.664062 16.867188 13.660156 16.847656 13.671875 16.878906 C 13.683594 16.914062 13.675781 16.894531 13.675781 16.886719 C 13.660156 16.828125 13.644531 16.773438 13.632812 16.714844 C 13.628906 16.6875 13.625 16.660156 13.621094 16.632812 C 13.617188 16.621094 13.617188 16.609375 13.613281 16.597656 C 13.613281 16.585938 13.609375 16.5625 13.617188 16.605469 C 13.613281 16.597656 13.613281 16.589844 13.613281 16.582031 C 13.597656 16.46875 13.589844 16.351562 13.589844 16.238281 C 13.589844 16.121094 13.597656 16.007812 13.59375 15.890625 C 13.578125 15.667969 13.511719 15.429688 13.328125 15.285156 C 13.226562 15.199219 13.109375 15.160156 12.976562 15.164062 C 12.851562 15.167969 12.734375 15.210938 12.632812 15.285156 C 12.417969 15.445312 12.300781 15.683594 12.21875 15.933594 C 12.1875 16.050781 12.230469 16.125 12.34375 16.15625 C 12.457031 16.183594 12.53125 16.144531 12.566406 16.03125 Z M 12.566406 16.03125 " fill-opacity="1" fill-rule="nonzero"/><path fill="#ffa400" d="M 11.425781 13.855469 C 11.636719 13.101562 12.210938 12.460938 12.929688 12.148438 C 13.648438 11.832031 14.496094 11.835938 15.222656 12.136719 C 15.535156 12.265625 15.851562 12.4375 16.042969 12.714844 C 16.589844 13.5 15.121094 14.34375 14.238281 14.667969 C 13.449219 14.957031 10.992188 15.417969 11.425781 13.855469 Z M 11.425781 13.855469 " fill-opacity="1" fill-rule="nonzero"/><path fill="#ffa400" d="M 11.269531 17.132812 C 11.160156 16.929688 10.871094 16.855469 10.667969 16.960938 C 10.460938 17.070312 10.355469 17.324219 10.398438 17.550781 C 10.445312 17.777344 10.625 17.960938 10.84375 18.042969 C 11.074219 18.125 11.363281 18.082031 11.527344 17.902344 C 11.695312 17.71875 11.703125 17.398438 11.515625 17.238281 C 11.410156 17.148438 11.265625 17.117188 11.136719 17.0625 " fill-opacity="1" fill-rule="nonzero"/><path fill="#ffffff" d="M 12.3125 13.574219 C 12.449219 13.464844 12.585938 13.351562 12.726562 13.246094 C 12.914062 13.097656 13.105469 12.953125 13.328125 12.871094 C 13.824219 12.683594 14.378906 12.828125 14.886719 12.976562 C 14.96875 13 15.050781 13.023438 15.113281 13.078125 C 15.175781 13.132812 15.21875 13.222656 15.191406 13.296875 C 15.164062 13.371094 15.085938 13.410156 15.015625 13.445312 C 14.488281 13.695312 13.957031 13.945312 13.390625 14.097656 C 12.980469 14.207031 12.558594 14.261719 12.140625 14.316406 C 12.082031 14.324219 12.011719 14.328125 11.972656 14.285156 C 11.902344 14.210938 11.988281 14.097656 12.066406 14.03125 C 12.273438 13.839844 12.441406 13.621094 12.5625 13.367188 " fill-opacity="1" fill-rule="nonzero"/><path fill="#ff7900" d="M 5.410156 10.398438 C 5.277344 10.988281 5.691406 11.59375 6.230469 11.867188 C 6.769531 12.144531 7.402344 12.15625 8.007812 12.117188 C 8.523438 12.085938 9.042969 12.023438 9.515625 11.820312 C 9.964844 11.632812 10.359375 11.328125 10.742188 11.027344 C 10.972656 10.847656 11.179688 10.648438 11.34375 10.410156 C 11.542969 10.125 11.769531 9.683594 11.824219 9.421875 C 11.902344 9.023438 11.882812 8.617188 11.863281 8.222656 C 11.859375 8.128906 11.535156 8.257812 11.46875 8.1875 C 11.367188 8.082031 11.199219 8.109375 11.058594 8.148438 C 9.652344 8.519531 8.300781 9.058594 6.949219 9.597656 C 6.222656 9.886719 5.480469 10.183594 4.890625 10.695312 " fill-opacity="1" fill-rule="nonzero"/><path fill="#ff7900" d="M 21.457031 11.496094 C 21.738281 11.789062 21.824219 12.222656 21.828125 12.632812 C 21.832031 13.039062 21.765625 13.449219 21.808594 13.855469 C 21.875 14.523438 22.175781 15.074219 22.703125 15.5 C 23.058594 15.78125 23.507812 15.964844 23.960938 15.9375 C 24.679688 15.894531 25.289062 15.324219 25.554688 14.65625 C 25.730469 14.199219 25.769531 13.664062 25.523438 13.242188 C 25.28125 12.835938 24.832031 12.609375 24.394531 12.429688 C 23.59375 12.09375 22.769531 11.832031 21.921875 11.640625 " fill-opacity="1" fill-rule="nonzero"/><path fill="#ff7900" d="M 28.570312 16.097656 C 28.761719 16.402344 29.0625 16.613281 29.375 16.796875 C 29.59375 16.925781 29.828125 17.042969 30.078125 17.085938 C 30.332031 17.125 30.605469 17.082031 30.800781 16.917969 C 30.996094 16.75 31.523438 15.929688 31.394531 15.710938 C 31.347656 15.621094 31.085938 15.625 31.011719 15.558594 C 30.691406 15.273438 30.335938 15.265625 29.972656 15.035156 C 29.667969 14.839844 29.304688 14.730469 28.976562 14.578125 C 28.78125 14.488281 28.410156 14.257812 28.203125 14.222656 C 28.039062 14.59375 28.394531 15.746094 28.570312 16.097656 Z M 28.570312 16.097656 " fill-opacity="1" fill-rule="nonzero"/><g clip-path="url(#84581dc9c4)"><path fill="#000000" d="M 2.179688 9.449219 C 2.535156 10.957031 2.738281 12.5 3.25 13.96875 C 3.6875 15.234375 4.164062 16.488281 4.675781 17.722656 C 5.621094 20 6.824219 22.171875 8.195312 24.222656 C 8.925781 25.316406 9.75 26.335938 10.667969 27.277344 C 11.644531 28.277344 12.6875 29.203125 13.800781 30.046875 C 14.800781 30.804688 15.894531 31.453125 17.082031 31.871094 C 18.457031 32.355469 19.917969 32.449219 21.367188 32.441406 C 22.796875 32.4375 24.214844 32.3125 25.621094 32.066406 C 26.269531 31.953125 26.914062 31.808594 27.535156 31.585938 C 28.195312 31.339844 28.824219 31.03125 29.421875 30.660156 C 30.269531 30.140625 31.097656 29.527344 31.726562 28.75 C 32.488281 27.8125 33.125 26.757812 33.664062 25.679688 C 33.921875 25.160156 34.140625 24.628906 34.324219 24.078125 C 34.570312 23.351562 34.792969 22.617188 34.925781 21.867188 C 35.0625 21.105469 35.117188 20.332031 35.023438 19.5625 C 34.976562 19.160156 34.890625 18.765625 34.765625 18.382812 C 34.675781 18.113281 34.582031 17.835938 34.421875 17.597656 C 34.15625 17.210938 33.78125 16.910156 33.398438 16.640625 C 32.886719 16.28125 32.332031 15.984375 31.773438 15.699219 C 30.382812 14.992188 28.945312 14.382812 27.539062 13.710938 C 26.140625 13.042969 24.726562 12.417969 23.265625 11.882812 C 22.679688 11.664062 22.085938 11.460938 21.492188 11.261719 C 20.953125 11.082031 20.40625 10.914062 19.875 10.710938 C 18.5 10.179688 17.222656 9.398438 15.992188 8.59375 C 15.441406 8.238281 14.933594 7.824219 14.476562 7.355469 C 14.046875 6.917969 13.652344 6.445312 13.222656 6.007812 C 12.867188 5.648438 12.476562 5.296875 12.183594 4.886719 C 12.050781 4.699219 11.738281 4.878906 11.871094 5.066406 C 12.171875 5.488281 12.558594 5.847656 12.917969 6.214844 C 13.347656 6.648438 13.742188 7.109375 14.164062 7.550781 C 15.074219 8.503906 16.214844 9.191406 17.34375 9.851562 C 17.996094 10.234375 18.664062 10.589844 19.359375 10.886719 C 19.917969 11.121094 20.492188 11.308594 21.070312 11.5 C 22.296875 11.90625 23.515625 12.335938 24.710938 12.824219 C 26.195312 13.433594 27.628906 14.15625 29.085938 14.824219 C 30.359375 15.40625 31.664062 15.964844 32.851562 16.710938 C 33.269531 16.972656 33.683594 17.261719 34.003906 17.640625 C 34.136719 17.804688 34.242188 17.984375 34.3125 18.183594 C 34.460938 18.5625 34.566406 18.953125 34.632812 19.351562 C 34.882812 20.867188 34.507812 22.394531 34.03125 23.828125 C 33.84375 24.378906 33.640625 24.917969 33.382812 25.441406 C 33.109375 25.996094 32.800781 26.539062 32.476562 27.0625 C 31.941406 27.917969 31.363281 28.746094 30.582031 29.394531 C 29.628906 30.183594 28.535156 30.851562 27.359375 31.265625 C 26.117188 31.707031 24.761719 31.875 23.453125 31.984375 C 22.039062 32.105469 20.605469 32.132812 19.191406 31.984375 C 17.796875 31.839844 16.472656 31.335938 15.277344 30.617188 C 14.242188 30 13.300781 29.226562 12.398438 28.433594 C 11.328125 27.488281 10.300781 26.464844 9.425781 25.332031 C 8.664062 24.34375 7.992188 23.28125 7.355469 22.210938 C 6.757812 21.203125 6.1875 20.175781 5.679688 19.121094 C 5.097656 17.902344 4.609375 16.632812 4.136719 15.367188 C 3.9375 14.84375 3.746094 14.316406 3.5625 13.785156 C 3.320312 13.078125 3.148438 12.355469 2.996094 11.625 C 2.839844 10.867188 2.703125 10.105469 2.527344 9.351562 C 2.472656 9.128906 2.125 9.222656 2.179688 9.449219 Z M 2.179688 9.449219 " fill-opacity="1" fill-rule="nonzero"/></g><g clip-path="url(#761d84a728)"><path fill="#000000" d="M 2.261719 9.554688 C 2.585938 9.785156 2.910156 10.007812 3.25 10.207031 C 3.542969 10.378906 3.847656 10.535156 4.160156 10.675781 C 4.367188 10.765625 4.578125 10.851562 4.789062 10.933594 C 4.835938 10.949219 4.882812 10.941406 4.925781 10.917969 C 5.03125 10.855469 5.054688 10.773438 4.992188 10.671875 C 4.964844 10.632812 4.929688 10.605469 4.882812 10.589844 C 4.792969 10.554688 4.703125 10.515625 4.613281 10.480469 C 4.589844 10.472656 4.570312 10.460938 4.546875 10.453125 C 4.542969 10.449219 4.507812 10.4375 4.535156 10.449219 C 4.5625 10.460938 4.523438 10.445312 4.519531 10.441406 C 4.476562 10.421875 4.433594 10.40625 4.390625 10.386719 C 4.234375 10.316406 4.078125 10.246094 3.925781 10.167969 C 3.613281 10.007812 3.3125 9.832031 3.023438 9.640625 C 2.828125 9.515625 2.636719 9.378906 2.445312 9.246094 C 2.402344 9.21875 2.355469 9.214844 2.304688 9.226562 C 2.257812 9.242188 2.222656 9.269531 2.199219 9.308594 C 2.148438 9.402344 2.179688 9.496094 2.261719 9.554688 Z M 2.261719 9.554688 " fill-opacity="1" fill-rule="nonzero"/></g><path fill="#000000" d="M 4.925781 10.917969 C 5.332031 10.636719 5.753906 10.378906 6.183594 10.140625 C 6.632812 9.886719 7.097656 9.65625 7.570312 9.449219 C 7.628906 9.421875 7.691406 9.394531 7.75 9.367188 C 7.777344 9.355469 7.808594 9.34375 7.835938 9.332031 C 7.84375 9.328125 7.898438 9.304688 7.851562 9.328125 C 7.867188 9.320312 7.882812 9.3125 7.902344 9.304688 C 8.023438 9.253906 8.144531 9.207031 8.265625 9.160156 C 8.511719 9.0625 8.757812 8.972656 9.011719 8.890625 C 9.5 8.726562 9.996094 8.589844 10.503906 8.480469 C 10.746094 8.425781 10.992188 8.382812 11.242188 8.347656 C 11.269531 8.34375 11.296875 8.339844 11.328125 8.335938 L 11.351562 8.332031 C 11.382812 8.328125 11.339844 8.332031 11.335938 8.332031 C 11.351562 8.332031 11.371094 8.328125 11.386719 8.324219 C 11.449219 8.316406 11.507812 8.3125 11.570312 8.304688 C 11.6875 8.292969 11.808594 8.28125 11.925781 8.273438 C 11.988281 8.269531 12.046875 8.265625 12.105469 8.261719 C 12.199219 8.257812 12.289062 8.183594 12.285156 8.082031 C 12.28125 7.988281 12.207031 7.898438 12.105469 7.902344 C 11.601562 7.929688 11.101562 7.992188 10.605469 8.09375 C 10.097656 8.195312 9.597656 8.324219 9.101562 8.484375 C 8.585938 8.648438 8.082031 8.839844 7.585938 9.050781 C 7.105469 9.257812 6.632812 9.484375 6.175781 9.734375 C 5.734375 9.972656 5.308594 10.226562 4.894531 10.507812 C 4.84375 10.539062 4.792969 10.574219 4.746094 10.609375 C 4.667969 10.660156 4.625 10.765625 4.679688 10.851562 C 4.730469 10.929688 4.84375 10.972656 4.925781 10.917969 Z M 4.925781 10.917969 " fill-opacity="1" fill-rule="nonzero"/><g clip-path="url(#c065e880d2)"><path fill="#000000" d="M 12.285156 8.082031 C 12.242188 7.277344 12.214844 6.472656 12.207031 5.664062 C 12.207031 5.433594 12.207031 5.207031 12.207031 4.976562 C 12.207031 4.882812 12.125 4.792969 12.027344 4.796875 C 11.910156 4.800781 11.847656 4.859375 11.847656 4.976562 C 11.84375 5.78125 11.859375 6.589844 11.890625 7.394531 C 11.902344 7.625 11.914062 7.851562 11.925781 8.082031 C 11.929688 8.175781 12.003906 8.265625 12.105469 8.261719 C 12.199219 8.257812 12.292969 8.183594 12.285156 8.082031 Z M 12.285156 8.082031 " fill-opacity="1" fill-rule="nonzero"/></g><path fill="#000000" d="M 12.144531 14.285156 C 12.253906 14.074219 12.382812 13.871094 12.523438 13.679688 C 12.53125 13.667969 12.542969 13.652344 12.550781 13.640625 C 12.558594 13.632812 12.578125 13.613281 12.546875 13.648438 C 12.550781 13.644531 12.554688 13.640625 12.558594 13.632812 C 12.578125 13.609375 12.597656 13.585938 12.617188 13.5625 C 12.65625 13.515625 12.699219 13.46875 12.742188 13.421875 C 12.785156 13.378906 12.828125 13.335938 12.875 13.296875 C 12.894531 13.277344 12.917969 13.261719 12.9375 13.242188 C 12.945312 13.238281 12.949219 13.230469 12.957031 13.226562 C 12.957031 13.230469 12.921875 13.253906 12.945312 13.238281 C 12.957031 13.230469 12.96875 13.21875 12.980469 13.210938 C 13.027344 13.175781 13.078125 13.148438 13.125 13.121094 C 13.152344 13.105469 13.175781 13.09375 13.199219 13.082031 C 13.207031 13.082031 13.210938 13.078125 13.21875 13.074219 C 13.246094 13.0625 13.179688 13.089844 13.203125 13.082031 C 13.21875 13.074219 13.230469 13.070312 13.246094 13.066406 C 13.316406 13.039062 13.386719 13.019531 13.457031 13.007812 C 13.476562 13.003906 13.492188 13 13.507812 12.996094 C 13.515625 12.996094 13.523438 12.996094 13.53125 12.992188 C 13.535156 12.992188 13.574219 12.988281 13.542969 12.992188 C 13.511719 12.996094 13.554688 12.992188 13.558594 12.988281 C 13.566406 12.988281 13.574219 12.988281 13.582031 12.988281 C 13.601562 12.984375 13.621094 12.984375 13.640625 12.980469 C 13.714844 12.976562 13.789062 12.976562 13.863281 12.980469 C 13.898438 12.980469 13.9375 12.984375 13.972656 12.988281 C 13.988281 12.988281 14.007812 12.992188 14.023438 12.992188 C 14.035156 12.992188 14.042969 12.996094 14.054688 12.996094 C 14.058594 12.996094 14.105469 13.003906 14.074219 13 C 14.046875 12.992188 14.074219 13 14.082031 13 C 14.089844 13 14.101562 13.003906 14.109375 13.003906 C 14.128906 13.007812 14.144531 13.007812 14.160156 13.011719 C 14.199219 13.019531 14.238281 13.027344 14.277344 13.035156 C 14.355469 13.050781 14.433594 13.066406 14.511719 13.085938 C 14.652344 13.121094 14.796875 13.15625 14.933594 13.207031 C 14.964844 13.214844 14.996094 13.226562 15.027344 13.238281 C 15.035156 13.242188 15.054688 13.253906 15.011719 13.230469 C 15.019531 13.234375 15.027344 13.238281 15.035156 13.242188 C 15.050781 13.25 15.066406 13.257812 15.078125 13.265625 C 15.105469 13.277344 15.132812 13.292969 15.15625 13.308594 C 15.164062 13.3125 15.167969 13.316406 15.175781 13.320312 C 15.191406 13.332031 15.136719 13.289062 15.164062 13.3125 C 15.175781 13.320312 15.183594 13.332031 15.195312 13.339844 C 15.277344 13.425781 15.363281 13.425781 15.449219 13.339844 C 15.53125 13.257812 15.53125 13.171875 15.449219 13.085938 C 15.355469 12.988281 15.21875 12.929688 15.09375 12.882812 C 14.976562 12.839844 14.855469 12.800781 14.730469 12.773438 C 14.414062 12.6875 14.089844 12.617188 13.757812 12.621094 C 13.457031 12.621094 13.148438 12.683594 12.886719 12.84375 C 12.664062 12.980469 12.472656 13.167969 12.308594 13.371094 C 12.128906 13.601562 11.96875 13.84375 11.835938 14.105469 C 11.789062 14.1875 11.808594 14.304688 11.898438 14.351562 C 11.980469 14.394531 12.097656 14.375 12.144531 14.285156 Z M 12.144531 14.285156 " fill-opacity="1" fill-rule="nonzero"/><path fill="#000000" d="M 5.835938 16.289062 C 5.832031 16.261719 5.839844 16.351562 5.839844 16.320312 C 5.839844 16.3125 5.839844 16.308594 5.839844 16.304688 C 5.839844 16.300781 5.839844 16.292969 5.839844 16.289062 C 5.839844 16.269531 5.835938 16.332031 5.835938 16.324219 C 5.835938 16.320312 5.835938 16.316406 5.839844 16.3125 C 5.84375 16.28125 5.851562 16.253906 5.863281 16.226562 C 5.867188 16.21875 5.867188 16.210938 5.871094 16.203125 C 5.875 16.195312 5.875 16.191406 5.875 16.1875 C 5.886719 16.167969 5.863281 16.222656 5.863281 16.21875 C 5.875 16.199219 5.882812 16.179688 5.890625 16.160156 C 5.910156 16.117188 5.933594 16.078125 5.957031 16.039062 C 5.984375 15.996094 6.007812 15.957031 6.039062 15.914062 C 6.054688 15.894531 6.070312 15.871094 6.085938 15.851562 C 6.089844 15.84375 6.09375 15.839844 6.097656 15.832031 C 6.0625 15.878906 6.078125 15.859375 6.085938 15.847656 C 6.097656 15.835938 6.105469 15.824219 6.117188 15.8125 C 6.195312 15.71875 6.277344 15.628906 6.367188 15.550781 C 6.390625 15.527344 6.414062 15.507812 6.4375 15.488281 C 6.449219 15.480469 6.460938 15.472656 6.46875 15.460938 C 6.476562 15.457031 6.484375 15.453125 6.492188 15.445312 C 6.445312 15.484375 6.472656 15.460938 6.484375 15.449219 C 6.535156 15.414062 6.589844 15.375 6.648438 15.339844 C 6.703125 15.304688 6.765625 15.273438 6.824219 15.246094 C 6.839844 15.238281 6.851562 15.234375 6.867188 15.226562 C 6.878906 15.222656 6.910156 15.210938 6.855469 15.230469 C 6.859375 15.230469 6.867188 15.226562 6.871094 15.226562 C 6.90625 15.210938 6.9375 15.199219 6.972656 15.1875 C 7.039062 15.167969 7.105469 15.152344 7.171875 15.140625 C 7.199219 15.132812 7.148438 15.144531 7.148438 15.140625 C 7.15625 15.140625 7.164062 15.140625 7.171875 15.140625 C 7.191406 15.136719 7.207031 15.136719 7.222656 15.136719 C 7.253906 15.136719 7.289062 15.136719 7.320312 15.136719 C 7.339844 15.140625 7.355469 15.140625 7.375 15.144531 C 7.378906 15.144531 7.386719 15.144531 7.390625 15.144531 C 7.332031 15.140625 7.367188 15.140625 7.382812 15.144531 C 7.417969 15.148438 7.457031 15.15625 7.492188 15.164062 C 7.5625 15.183594 7.632812 15.203125 7.703125 15.226562 C 7.746094 15.242188 7.789062 15.257812 7.832031 15.273438 C 7.851562 15.28125 7.867188 15.289062 7.890625 15.296875 C 7.839844 15.277344 7.875 15.289062 7.882812 15.296875 C 7.898438 15.300781 7.910156 15.304688 7.921875 15.3125 C 8.003906 15.347656 8.082031 15.386719 8.160156 15.425781 C 8.3125 15.503906 8.457031 15.585938 8.601562 15.671875 C 8.707031 15.730469 8.789062 15.710938 8.847656 15.605469 C 8.910156 15.503906 8.886719 15.421875 8.785156 15.359375 C 8.5 15.191406 8.207031 15.035156 7.898438 14.914062 C 7.753906 14.859375 7.601562 14.816406 7.449219 14.792969 C 7.367188 14.78125 7.285156 14.777344 7.203125 14.777344 C 7.121094 14.785156 7.042969 14.796875 6.964844 14.816406 C 6.671875 14.894531 6.40625 15.046875 6.175781 15.242188 C 5.980469 15.40625 5.8125 15.59375 5.675781 15.8125 C 5.613281 15.90625 5.5625 16.007812 5.519531 16.113281 C 5.484375 16.203125 5.472656 16.289062 5.488281 16.382812 C 5.503906 16.476562 5.621094 16.535156 5.710938 16.507812 C 5.808594 16.476562 5.851562 16.386719 5.835938 16.289062 Z M 5.835938 16.289062 " fill-opacity="1" fill-rule="nonzero"/><path fill="#000000" d="M 5.671875 16.59375 C 6.539062 16.542969 7.367188 16.339844 8.15625 15.988281 C 8.371094 15.890625 8.582031 15.785156 8.785156 15.671875 C 8.886719 15.609375 8.910156 15.527344 8.847656 15.425781 C 8.789062 15.320312 8.707031 15.300781 8.601562 15.359375 C 8.425781 15.460938 8.242188 15.554688 8.058594 15.640625 C 8.011719 15.660156 7.960938 15.683594 7.914062 15.703125 C 7.90625 15.707031 7.894531 15.710938 7.882812 15.71875 C 7.878906 15.71875 7.871094 15.722656 7.867188 15.722656 C 7.90625 15.707031 7.886719 15.714844 7.875 15.71875 C 7.851562 15.730469 7.828125 15.738281 7.804688 15.75 C 7.710938 15.789062 7.613281 15.824219 7.515625 15.859375 C 7.128906 15.996094 6.734375 16.097656 6.328125 16.164062 C 6.273438 16.171875 6.214844 16.179688 6.15625 16.1875 L 6.140625 16.191406 C 6.117188 16.195312 6.175781 16.1875 6.152344 16.1875 C 6.136719 16.191406 6.121094 16.191406 6.105469 16.195312 C 6.078125 16.199219 6.050781 16.203125 6.023438 16.203125 C 5.90625 16.21875 5.789062 16.226562 5.671875 16.234375 C 5.578125 16.238281 5.488281 16.3125 5.492188 16.414062 C 5.496094 16.503906 5.570312 16.597656 5.671875 16.59375 Z M 5.671875 16.59375 " fill-opacity="1" fill-rule="nonzero"/><path fill="#000000" d="M 11.988281 14.488281 C 12.941406 14.417969 13.847656 14.191406 14.71875 13.800781 C 14.953125 13.695312 15.1875 13.578125 15.414062 13.449219 C 15.515625 13.386719 15.539062 13.308594 15.476562 13.203125 C 15.417969 13.101562 15.335938 13.078125 15.230469 13.140625 C 15.035156 13.25 14.832031 13.355469 14.628906 13.449219 C 14.574219 13.472656 14.523438 13.496094 14.46875 13.519531 C 14.457031 13.523438 14.445312 13.53125 14.429688 13.535156 C 14.425781 13.539062 14.382812 13.554688 14.410156 13.546875 C 14.4375 13.535156 14.390625 13.550781 14.386719 13.554688 C 14.371094 13.5625 14.359375 13.566406 14.34375 13.574219 C 14.238281 13.613281 14.132812 13.65625 14.027344 13.695312 C 13.597656 13.847656 13.160156 13.960938 12.714844 14.039062 C 12.652344 14.050781 12.589844 14.0625 12.527344 14.070312 C 12.496094 14.074219 12.464844 14.078125 12.433594 14.085938 C 12.425781 14.085938 12.421875 14.085938 12.414062 14.085938 C 12.464844 14.078125 12.433594 14.085938 12.421875 14.085938 C 12.40625 14.085938 12.390625 14.089844 12.375 14.089844 C 12.246094 14.109375 12.117188 14.121094 11.988281 14.128906 C 11.894531 14.136719 11.804688 14.207031 11.808594 14.308594 C 11.8125 14.398438 11.890625 14.496094 11.988281 14.488281 Z M 11.988281 14.488281 " fill-opacity="1" fill-rule="nonzero"/><path fill="#000000" d="M 9.886719 15.910156 C 9.945312 16.0625 10.046875 16.179688 10.1875 16.257812 C 10.320312 16.332031 10.460938 16.367188 10.613281 16.363281 C 10.941406 16.351562 11.21875 16.144531 11.363281 15.863281 C 11.449219 15.695312 11.496094 15.519531 11.507812 15.328125 C 11.503906 15.210938 11.445312 15.152344 11.324219 15.152344 C 11.207031 15.152344 11.148438 15.214844 11.144531 15.328125 C 11.144531 15.347656 11.144531 15.363281 11.140625 15.378906 C 11.140625 15.394531 11.128906 15.449219 11.140625 15.386719 C 11.136719 15.421875 11.132812 15.453125 11.125 15.484375 C 11.117188 15.515625 11.109375 15.542969 11.097656 15.574219 C 11.09375 15.585938 11.089844 15.601562 11.085938 15.613281 C 11.082031 15.625 11.078125 15.632812 11.074219 15.640625 C 11.0625 15.671875 11.089844 15.601562 11.078125 15.632812 C 11.050781 15.691406 11.019531 15.746094 10.984375 15.796875 C 10.976562 15.804688 10.972656 15.808594 10.96875 15.816406 C 10.996094 15.777344 10.988281 15.792969 10.980469 15.800781 C 10.96875 15.8125 10.957031 15.828125 10.949219 15.835938 C 10.925781 15.859375 10.902344 15.882812 10.878906 15.902344 C 10.867188 15.914062 10.84375 15.929688 10.886719 15.898438 C 10.882812 15.902344 10.875 15.90625 10.871094 15.910156 C 10.859375 15.917969 10.84375 15.929688 10.832031 15.9375 C 10.804688 15.953125 10.777344 15.964844 10.75 15.980469 C 10.804688 15.949219 10.761719 15.972656 10.746094 15.980469 C 10.734375 15.984375 10.722656 15.988281 10.710938 15.988281 C 10.699219 15.992188 10.6875 15.996094 10.675781 16 C 10.667969 16 10.65625 16 10.648438 16.003906 C 10.621094 16.007812 10.699219 16 10.664062 16 C 10.640625 16.003906 10.613281 16.003906 10.589844 16.003906 C 10.574219 16.003906 10.5625 16.003906 10.546875 16.003906 C 10.542969 16.003906 10.535156 16.003906 10.53125 16 C 10.488281 15.996094 10.554688 16.007812 10.542969 16.003906 C 10.515625 16 10.488281 15.992188 10.464844 15.988281 C 10.449219 15.984375 10.4375 15.980469 10.425781 15.972656 C 10.417969 15.972656 10.414062 15.972656 10.410156 15.96875 C 10.375 15.957031 10.410156 15.976562 10.421875 15.972656 C 10.410156 15.976562 10.386719 15.957031 10.378906 15.953125 C 10.367188 15.945312 10.355469 15.9375 10.34375 15.933594 C 10.328125 15.921875 10.289062 15.886719 10.332031 15.925781 C 10.324219 15.917969 10.3125 15.910156 10.300781 15.902344 C 10.289062 15.890625 10.28125 15.878906 10.269531 15.867188 C 10.265625 15.863281 10.261719 15.859375 10.257812 15.855469 C 10.296875 15.894531 10.273438 15.875 10.265625 15.859375 C 10.257812 15.847656 10.25 15.835938 10.242188 15.824219 C 10.238281 15.820312 10.238281 15.8125 10.234375 15.808594 C 10.214844 15.769531 10.246094 15.84375 10.234375 15.8125 C 10.222656 15.769531 10.195312 15.734375 10.152344 15.707031 C 10.109375 15.683594 10.0625 15.675781 10.015625 15.6875 C 9.929688 15.714844 9.851562 15.816406 9.890625 15.910156 Z M 9.886719 15.910156 " fill-opacity="1" fill-rule="nonzero"/><path fill="#000000" d="M 10.691406 16.40625 C 10.71875 16.605469 10.824219 16.78125 10.949219 16.933594 C 11.070312 17.089844 11.226562 17.21875 11.382812 17.339844 C 11.464844 17.402344 11.550781 17.464844 11.636719 17.523438 C 11.714844 17.574219 11.839844 17.539062 11.882812 17.457031 C 11.941406 17.355469 11.917969 17.273438 11.820312 17.214844 C 11.746094 17.164062 11.675781 17.113281 11.605469 17.0625 C 11.597656 17.054688 11.589844 17.046875 11.582031 17.042969 C 11.550781 17.019531 11.605469 17.0625 11.582031 17.042969 C 11.5625 17.027344 11.546875 17.015625 11.527344 17 C 11.492188 16.972656 11.457031 16.941406 11.421875 16.910156 C 11.355469 16.851562 11.292969 16.789062 11.234375 16.71875 C 11.21875 16.703125 11.207031 16.6875 11.191406 16.671875 C 11.191406 16.667969 11.21875 16.703125 11.207031 16.6875 C 11.203125 16.683594 11.199219 16.679688 11.199219 16.675781 C 11.191406 16.667969 11.183594 16.65625 11.175781 16.648438 C 11.152344 16.613281 11.128906 16.574219 11.109375 16.539062 C 11.097656 16.515625 11.089844 16.496094 11.078125 16.476562 C 11.070312 16.460938 11.089844 16.496094 11.089844 16.496094 C 11.089844 16.496094 11.082031 16.480469 11.082031 16.480469 C 11.078125 16.46875 11.074219 16.460938 11.070312 16.449219 C 11.054688 16.402344 11.042969 16.359375 11.039062 16.308594 C 11.023438 16.261719 10.996094 16.226562 10.953125 16.203125 C 10.851562 16.144531 10.769531 16.164062 10.707031 16.269531 C 10.6875 16.3125 10.679688 16.359375 10.691406 16.40625 Z M 10.691406 16.40625 " fill-opacity="1" fill-rule="nonzero"/><path fill="#000000" d="M 10.546875 18.039062 C 10.769531 18.21875 11.039062 18.308594 11.324219 18.269531 C 11.578125 18.230469 11.792969 18.050781 11.890625 17.816406 C 11.949219 17.679688 11.960938 17.539062 11.921875 17.394531 C 11.894531 17.304688 11.792969 17.238281 11.699219 17.269531 C 11.585938 17.300781 11.542969 17.375 11.574219 17.488281 C 11.578125 17.5 11.578125 17.507812 11.582031 17.519531 C 11.582031 17.523438 11.582031 17.53125 11.585938 17.539062 C 11.589844 17.554688 11.578125 17.507812 11.582031 17.511719 C 11.585938 17.535156 11.585938 17.554688 11.585938 17.578125 C 11.582031 17.589844 11.582031 17.601562 11.582031 17.609375 C 11.585938 17.554688 11.585938 17.585938 11.582031 17.601562 C 11.578125 17.625 11.574219 17.644531 11.566406 17.667969 C 11.558594 17.679688 11.542969 17.71875 11.566406 17.667969 C 11.5625 17.675781 11.558594 17.683594 11.554688 17.691406 C 11.542969 17.714844 11.53125 17.734375 11.519531 17.753906 C 11.511719 17.765625 11.507812 17.773438 11.5 17.78125 C 11.488281 17.796875 11.515625 17.761719 11.515625 17.761719 C 11.511719 17.769531 11.507812 17.773438 11.503906 17.777344 C 11.488281 17.792969 11.472656 17.8125 11.453125 17.828125 C 11.445312 17.835938 11.4375 17.839844 11.429688 17.847656 C 11.40625 17.867188 11.464844 17.820312 11.433594 17.84375 C 11.414062 17.859375 11.394531 17.871094 11.375 17.882812 C 11.363281 17.886719 11.355469 17.890625 11.34375 17.894531 C 11.324219 17.90625 11.382812 17.878906 11.363281 17.886719 C 11.359375 17.890625 11.351562 17.890625 11.347656 17.894531 C 11.324219 17.902344 11.300781 17.910156 11.273438 17.914062 C 11.261719 17.917969 11.25 17.917969 11.238281 17.921875 C 11.289062 17.90625 11.257812 17.917969 11.242188 17.921875 C 11.214844 17.921875 11.1875 17.921875 11.164062 17.921875 C 11.148438 17.921875 11.136719 17.921875 11.121094 17.917969 C 11.117188 17.917969 11.113281 17.917969 11.105469 17.917969 C 11.085938 17.917969 11.132812 17.921875 11.128906 17.921875 C 11.101562 17.917969 11.074219 17.914062 11.046875 17.90625 C 11.019531 17.898438 10.992188 17.890625 10.96875 17.878906 C 10.960938 17.878906 10.953125 17.875 10.949219 17.871094 C 10.925781 17.863281 10.957031 17.875 10.960938 17.878906 C 10.949219 17.871094 10.9375 17.867188 10.921875 17.859375 C 10.898438 17.847656 10.871094 17.832031 10.847656 17.816406 C 10.835938 17.808594 10.824219 17.800781 10.8125 17.792969 C 10.808594 17.789062 10.804688 17.789062 10.796875 17.785156 C 10.769531 17.761719 10.832031 17.8125 10.800781 17.785156 C 10.765625 17.753906 10.722656 17.734375 10.675781 17.734375 C 10.625 17.734375 10.582031 17.75 10.546875 17.785156 C 10.488281 17.851562 10.46875 17.976562 10.546875 18.039062 Z M 10.546875 18.039062 " fill-opacity="1" fill-rule="nonzero"/><path fill="#000000" d="M 11.636719 17.523438 C 12.003906 17.789062 12.492188 17.871094 12.929688 17.769531 C 13.355469 17.671875 13.722656 17.378906 13.933594 17 C 14.054688 16.78125 14.125 16.546875 14.132812 16.296875 C 14.132812 16.175781 14.074219 16.117188 13.953125 16.117188 C 13.835938 16.117188 13.777344 16.179688 13.773438 16.296875 C 13.773438 16.320312 13.769531 16.339844 13.769531 16.363281 C 13.769531 16.375 13.765625 16.386719 13.765625 16.398438 C 13.761719 16.4375 13.773438 16.359375 13.765625 16.398438 C 13.757812 16.445312 13.75 16.488281 13.738281 16.53125 C 13.726562 16.578125 13.710938 16.625 13.695312 16.667969 C 13.691406 16.675781 13.6875 16.6875 13.683594 16.695312 C 13.683594 16.699219 13.679688 16.707031 13.675781 16.714844 C 13.675781 16.714844 13.695312 16.675781 13.683594 16.691406 C 13.675781 16.714844 13.664062 16.738281 13.65625 16.757812 C 13.613281 16.84375 13.5625 16.921875 13.507812 16.996094 C 13.496094 17.011719 13.523438 16.976562 13.519531 16.980469 C 13.515625 16.984375 13.511719 16.988281 13.507812 16.996094 C 13.503906 17.003906 13.496094 17.007812 13.488281 17.015625 C 13.472656 17.035156 13.457031 17.054688 13.441406 17.070312 C 13.410156 17.105469 13.375 17.140625 13.339844 17.171875 C 13.320312 17.1875 13.304688 17.199219 13.285156 17.214844 C 13.261719 17.234375 13.316406 17.191406 13.292969 17.210938 C 13.28125 17.21875 13.269531 17.226562 13.257812 17.234375 C 13.222656 17.261719 13.179688 17.285156 13.140625 17.308594 C 13.121094 17.320312 13.101562 17.328125 13.082031 17.339844 C 13.070312 17.34375 13.0625 17.347656 13.050781 17.351562 C 13.042969 17.355469 13.039062 17.359375 13.03125 17.363281 C 13.011719 17.371094 13.066406 17.347656 13.046875 17.355469 C 13 17.375 12.953125 17.390625 12.902344 17.40625 C 12.859375 17.417969 12.8125 17.429688 12.761719 17.4375 C 12.75 17.4375 12.738281 17.441406 12.726562 17.441406 C 12.6875 17.449219 12.761719 17.4375 12.730469 17.441406 C 12.703125 17.445312 12.675781 17.449219 12.652344 17.449219 C 12.601562 17.453125 12.554688 17.453125 12.507812 17.453125 C 12.484375 17.449219 12.457031 17.449219 12.433594 17.445312 C 12.421875 17.445312 12.410156 17.445312 12.398438 17.445312 C 12.394531 17.441406 12.386719 17.441406 12.382812 17.441406 C 12.359375 17.4375 12.429688 17.449219 12.394531 17.441406 C 12.285156 17.425781 12.183594 17.398438 12.078125 17.359375 C 12.074219 17.359375 12.066406 17.355469 12.0625 17.351562 C 12.039062 17.34375 12.097656 17.367188 12.074219 17.359375 C 12.0625 17.351562 12.050781 17.347656 12.039062 17.339844 C 12.011719 17.328125 11.988281 17.316406 11.964844 17.304688 C 11.914062 17.277344 11.867188 17.246094 11.820312 17.214844 C 11.777344 17.1875 11.730469 17.183594 11.679688 17.195312 C 11.632812 17.207031 11.597656 17.234375 11.574219 17.277344 C 11.523438 17.371094 11.554688 17.464844 11.636719 17.523438 Z M 11.636719 17.523438 " fill-opacity="1" fill-rule="nonzero"/><path fill="#000000" d="M 6.882812 16.042969 C 6.871094 16.003906 6.863281 15.964844 6.859375 15.925781 L 6.867188 15.976562 C 6.855469 15.886719 6.851562 15.796875 6.863281 15.707031 C 6.863281 15.65625 6.847656 15.613281 6.8125 15.578125 C 6.726562 15.492188 6.640625 15.492188 6.554688 15.578125 L 6.527344 15.613281 C 6.511719 15.644531 6.503906 15.671875 6.503906 15.707031 C 6.488281 15.851562 6.496094 15.996094 6.535156 16.136719 C 6.566406 16.253906 6.640625 16.292969 6.753906 16.261719 C 6.871094 16.230469 6.914062 16.15625 6.882812 16.042969 Z M 6.882812 16.042969 " fill-opacity="1" fill-rule="nonzero"/><path fill="#000000" d="M 13.398438 13.777344 C 13.386719 13.757812 13.378906 13.738281 13.371094 13.71875 L 13.386719 13.761719 C 13.355469 13.683594 13.332031 13.601562 13.320312 13.515625 L 13.328125 13.566406 C 13.324219 13.542969 13.320312 13.519531 13.320312 13.5 C 13.320312 13.449219 13.300781 13.40625 13.269531 13.371094 C 13.183594 13.285156 13.097656 13.285156 13.011719 13.371094 C 12.976562 13.40625 12.960938 13.449219 12.960938 13.5 C 12.972656 13.660156 13.011719 13.816406 13.085938 13.960938 C 13.128906 14.027344 13.1875 14.058594 13.265625 14.046875 C 13.34375 14.035156 13.394531 13.992188 13.417969 13.917969 C 13.429688 13.867188 13.421875 13.820312 13.398438 13.777344 Z M 13.398438 13.777344 " fill-opacity="1" fill-rule="nonzero"/><path fill="#000000" d="M 6.191406 9.984375 C 6.148438 10.402344 6.222656 10.796875 6.414062 11.171875 C 6.457031 11.257812 6.582031 11.285156 6.660156 11.234375 C 6.761719 11.175781 6.78125 11.09375 6.726562 10.992188 C 6.714844 10.96875 6.703125 10.949219 6.695312 10.925781 C 6.691406 10.917969 6.683594 10.90625 6.679688 10.894531 C 6.664062 10.855469 6.695312 10.933594 6.679688 10.894531 C 6.664062 10.851562 6.648438 10.8125 6.632812 10.769531 C 6.605469 10.679688 6.582031 10.589844 6.566406 10.5 C 6.5625 10.488281 6.5625 10.476562 6.558594 10.464844 C 6.558594 10.453125 6.558594 10.441406 6.554688 10.429688 C 6.5625 10.441406 6.558594 10.46875 6.554688 10.4375 C 6.554688 10.425781 6.550781 10.414062 6.550781 10.402344 C 6.546875 10.359375 6.542969 10.3125 6.542969 10.269531 C 6.539062 10.171875 6.542969 10.078125 6.554688 9.984375 C 6.554688 9.9375 6.535156 9.894531 6.5 9.859375 C 6.414062 9.773438 6.332031 9.773438 6.246094 9.859375 C 6.214844 9.894531 6.195312 9.9375 6.191406 9.984375 Z M 6.191406 9.984375 " fill-opacity="1" fill-rule="nonzero"/><path fill="#000000" d="M 7.421875 9.332031 C 7.410156 9.957031 7.523438 10.558594 7.761719 11.136719 C 7.828125 11.304688 7.910156 11.46875 7.996094 11.628906 C 8.058594 11.730469 8.140625 11.75 8.242188 11.691406 C 8.34375 11.628906 8.363281 11.550781 8.308594 11.445312 C 8.234375 11.316406 8.171875 11.183594 8.109375 11.046875 C 8.101562 11.023438 8.128906 11.089844 8.113281 11.050781 C 8.109375 11.046875 8.105469 11.039062 8.105469 11.03125 C 8.097656 11.015625 8.089844 10.996094 8.082031 10.980469 C 8.070312 10.945312 8.054688 10.910156 8.042969 10.875 C 8.015625 10.804688 7.992188 10.734375 7.972656 10.664062 C 7.925781 10.523438 7.890625 10.382812 7.863281 10.238281 C 7.847656 10.164062 7.832031 10.089844 7.824219 10.015625 C 7.820312 10 7.816406 9.980469 7.816406 9.964844 C 7.8125 9.9375 7.820312 10.011719 7.816406 9.96875 C 7.816406 9.960938 7.8125 9.953125 7.8125 9.945312 C 7.808594 9.90625 7.804688 9.867188 7.800781 9.828125 C 7.785156 9.664062 7.777344 9.5 7.78125 9.332031 C 7.785156 9.210938 7.722656 9.152344 7.601562 9.152344 C 7.480469 9.152344 7.421875 9.210938 7.421875 9.332031 Z M 7.421875 9.332031 " fill-opacity="1" fill-rule="nonzero"/><path fill="#000000" d="M 8.433594 8.988281 C 8.492188 9.566406 8.597656 10.136719 8.753906 10.699219 C 8.796875 10.851562 8.84375 11.003906 8.894531 11.15625 C 8.925781 11.246094 9.019531 11.3125 9.117188 11.28125 C 9.207031 11.253906 9.273438 11.15625 9.242188 11.0625 C 9.066406 10.527344 8.933594 9.984375 8.847656 9.429688 C 8.84375 9.390625 8.835938 9.351562 8.832031 9.308594 C 8.832031 9.300781 8.828125 9.292969 8.828125 9.285156 C 8.824219 9.261719 8.832031 9.324219 8.828125 9.289062 C 8.824219 9.269531 8.824219 9.246094 8.820312 9.226562 C 8.8125 9.148438 8.800781 9.066406 8.792969 8.988281 C 8.792969 8.9375 8.773438 8.894531 8.742188 8.859375 C 8.707031 8.824219 8.664062 8.808594 8.613281 8.808594 C 8.523438 8.8125 8.421875 8.886719 8.433594 8.988281 Z M 8.433594 8.988281 " fill-opacity="1" fill-rule="nonzero"/><path fill="#000000" d="M 9.40625 8.664062 C 9.503906 9.109375 9.625 9.546875 9.769531 9.980469 C 9.808594 10.101562 9.851562 10.226562 9.898438 10.347656 C 9.929688 10.4375 10.019531 10.503906 10.117188 10.472656 C 10.207031 10.445312 10.277344 10.347656 10.242188 10.253906 C 10.089844 9.824219 9.957031 9.390625 9.84375 8.949219 C 9.8125 8.824219 9.78125 8.699219 9.753906 8.570312 C 9.722656 8.457031 9.648438 8.414062 9.53125 8.445312 C 9.417969 8.480469 9.378906 8.550781 9.40625 8.664062 Z M 9.40625 8.664062 " fill-opacity="1" fill-rule="nonzero"/><path fill="#000000" d="M 10.417969 8.414062 L 10.640625 9.253906 C 10.671875 9.367188 10.746094 9.410156 10.863281 9.378906 C 10.976562 9.347656 11.019531 9.273438 10.988281 9.15625 L 10.765625 8.320312 C 10.734375 8.203125 10.660156 8.160156 10.546875 8.191406 C 10.429688 8.226562 10.386719 8.296875 10.417969 8.414062 Z M 10.417969 8.414062 " fill-opacity="1" fill-rule="nonzero"/><path fill="#000000" d="M 23.234375 14.847656 C 23.363281 14.859375 23.492188 14.871094 23.621094 14.886719 C 23.652344 14.890625 23.683594 14.894531 23.714844 14.898438 C 23.722656 14.898438 23.78125 14.910156 23.730469 14.902344 C 23.742188 14.902344 23.753906 14.902344 23.769531 14.90625 C 23.832031 14.914062 23.898438 14.925781 23.960938 14.933594 C 24.214844 14.972656 24.464844 15.023438 24.714844 15.078125 C 24.804688 15.101562 24.914062 15.050781 24.9375 14.953125 C 24.957031 14.863281 24.910156 14.757812 24.808594 14.734375 C 24.289062 14.617188 23.765625 14.535156 23.234375 14.488281 C 23.140625 14.480469 23.050781 14.578125 23.054688 14.667969 C 23.058594 14.773438 23.132812 14.839844 23.234375 14.847656 Z M 23.234375 14.847656 " fill-opacity="1" fill-rule="nonzero"/><path fill="#000000" d="M 22.515625 14.179688 C 22.675781 14.175781 22.832031 14.175781 22.992188 14.183594 C 23.074219 14.1875 23.15625 14.191406 23.238281 14.199219 C 23.273438 14.203125 23.308594 14.207031 23.347656 14.210938 C 23.367188 14.210938 23.386719 14.214844 23.40625 14.21875 C 23.414062 14.21875 23.425781 14.21875 23.433594 14.21875 C 23.445312 14.222656 23.484375 14.222656 23.433594 14.21875 C 23.472656 14.222656 23.507812 14.230469 23.546875 14.238281 C 23.589844 14.242188 23.628906 14.25 23.667969 14.257812 C 23.746094 14.269531 23.824219 14.285156 23.902344 14.304688 C 24.058594 14.339844 24.210938 14.378906 24.363281 14.425781 C 24.449219 14.453125 24.535156 14.484375 24.617188 14.515625 C 24.660156 14.527344 24.699219 14.542969 24.738281 14.558594 C 24.757812 14.566406 24.78125 14.578125 24.800781 14.585938 L 24.824219 14.59375 C 24.832031 14.597656 24.839844 14.601562 24.847656 14.605469 C 24.820312 14.59375 24.820312 14.59375 24.835938 14.601562 C 24.882812 14.625 24.925781 14.628906 24.976562 14.617188 C 25.023438 14.605469 25.058594 14.578125 25.082031 14.535156 C 25.109375 14.492188 25.113281 14.445312 25.101562 14.398438 C 25.089844 14.355469 25.0625 14.308594 25.019531 14.289062 C 24.394531 14.023438 23.742188 13.871094 23.066406 13.828125 C 22.882812 13.816406 22.699219 13.816406 22.515625 13.820312 C 22.421875 13.824219 22.332031 13.902344 22.335938 14 C 22.339844 14.09375 22.414062 14.183594 22.515625 14.179688 Z M 22.515625 14.179688 " fill-opacity="1" fill-rule="nonzero"/><path fill="#000000" d="M 22.359375 13.132812 C 22.441406 13.144531 22.527344 13.152344 22.609375 13.164062 C 22.605469 13.164062 22.566406 13.160156 22.601562 13.164062 L 22.632812 13.167969 C 22.652344 13.171875 22.671875 13.171875 22.6875 13.175781 C 22.730469 13.179688 22.773438 13.1875 22.816406 13.195312 C 22.980469 13.21875 23.144531 13.246094 23.304688 13.277344 C 23.632812 13.339844 23.953125 13.414062 24.273438 13.503906 C 24.457031 13.550781 24.636719 13.605469 24.8125 13.660156 C 24.929688 13.691406 25.003906 13.652344 25.035156 13.535156 C 25.0625 13.421875 25.023438 13.347656 24.910156 13.316406 C 24.269531 13.113281 23.617188 12.957031 22.957031 12.855469 C 22.757812 12.824219 22.558594 12.796875 22.359375 12.773438 C 22.308594 12.773438 22.265625 12.792969 22.230469 12.828125 C 22.144531 12.910156 22.144531 12.996094 22.230469 13.082031 C 22.265625 13.113281 22.308594 13.128906 22.359375 13.132812 Z M 22.359375 13.132812 " fill-opacity="1" fill-rule="nonzero"/><path fill="#000000" d="M 28.886719 15.863281 L 29.699219 16.421875 C 29.777344 16.476562 29.90625 16.4375 29.949219 16.355469 C 30.003906 16.253906 29.984375 16.171875 29.882812 16.113281 L 29.070312 15.554688 C 28.992188 15.5 28.867188 15.539062 28.824219 15.617188 C 28.765625 15.722656 28.789062 15.800781 28.886719 15.863281 Z M 28.886719 15.863281 " fill-opacity="1" fill-rule="nonzero"/><path fill="#ffa400" d="M 13.226562 22.28125 C 13.34375 22.738281 13.554688 23.148438 13.855469 23.515625 C 13.933594 23.613281 14.019531 23.703125 14.109375 23.792969 C 14.175781 23.859375 14.296875 23.863281 14.363281 23.792969 C 14.445312 23.707031 14.445312 23.625 14.363281 23.539062 C 14.285156 23.464844 14.210938 23.386719 14.144531 23.304688 C 14.125 23.28125 14.109375 23.261719 14.089844 23.238281 C 14.089844 23.234375 14.085938 23.230469 14.082031 23.226562 C 14.066406 23.207031 14.105469 23.257812 14.089844 23.238281 C 14.082031 23.226562 14.070312 23.214844 14.0625 23.203125 C 14.03125 23.160156 14 23.117188 13.972656 23.074219 C 13.910156 22.984375 13.855469 22.890625 13.804688 22.792969 C 13.78125 22.746094 13.757812 22.699219 13.734375 22.648438 C 13.722656 22.628906 13.714844 22.605469 13.703125 22.582031 C 13.695312 22.558594 13.71875 22.613281 13.710938 22.59375 C 13.707031 22.589844 13.703125 22.582031 13.703125 22.578125 C 13.695312 22.5625 13.691406 22.546875 13.683594 22.53125 C 13.640625 22.417969 13.601562 22.304688 13.570312 22.183594 C 13.539062 22.070312 13.464844 22.03125 13.351562 22.0625 C 13.238281 22.09375 13.195312 22.167969 13.226562 22.28125 Z M 13.226562 22.28125 " fill-opacity="1" fill-rule="nonzero"/><path fill="#ffa400" d="M 15.054688 23.191406 C 15.167969 23.316406 15.277344 23.441406 15.378906 23.574219 L 15.351562 23.539062 C 15.375 23.570312 15.398438 23.601562 15.421875 23.632812 C 15.449219 23.671875 15.484375 23.699219 15.53125 23.714844 C 15.578125 23.726562 15.625 23.722656 15.667969 23.695312 C 15.710938 23.671875 15.738281 23.636719 15.75 23.589844 C 15.765625 23.542969 15.757812 23.496094 15.734375 23.453125 C 15.601562 23.273438 15.460938 23.101562 15.3125 22.9375 C 15.226562 22.855469 15.140625 22.855469 15.054688 22.9375 C 14.972656 23.023438 14.972656 23.109375 15.054688 23.191406 Z M 15.054688 23.191406 " fill-opacity="1" fill-rule="nonzero"/><path fill="#ffa400" d="M 16.671875 23.167969 L 16.828125 23.324219 C 16.914062 23.402344 17 23.402344 17.082031 23.324219 L 17.109375 23.289062 C 17.128906 23.261719 17.136719 23.230469 17.136719 23.195312 L 17.128906 23.148438 C 17.121094 23.117188 17.105469 23.09375 17.082031 23.070312 L 16.925781 22.914062 C 16.84375 22.835938 16.757812 22.835938 16.671875 22.914062 L 16.644531 22.953125 C 16.628906 22.980469 16.621094 23.007812 16.621094 23.042969 L 16.625 23.089844 C 16.632812 23.121094 16.648438 23.144531 16.671875 23.167969 Z M 16.671875 23.167969 " fill-opacity="1" fill-rule="nonzero"/><path fill="#ffa400" d="M 16.765625 20.867188 L 17.046875 21.085938 C 17.082031 21.117188 17.125 21.136719 17.175781 21.136719 C 17.222656 21.136719 17.265625 21.121094 17.300781 21.085938 C 17.335938 21.050781 17.355469 21.007812 17.355469 20.957031 L 17.347656 20.910156 C 17.339844 20.878906 17.324219 20.855469 17.300781 20.832031 L 17.019531 20.613281 C 16.984375 20.582031 16.941406 20.5625 16.894531 20.5625 C 16.84375 20.5625 16.800781 20.578125 16.765625 20.613281 C 16.730469 20.648438 16.714844 20.691406 16.714844 20.742188 L 16.71875 20.789062 C 16.726562 20.820312 16.742188 20.847656 16.765625 20.867188 Z M 16.765625 20.867188 " fill-opacity="1" fill-rule="nonzero"/><path fill="#ffa400" d="M 18.472656 24.332031 L 18.503906 24.488281 C 18.539062 24.597656 18.613281 24.640625 18.726562 24.613281 L 18.769531 24.59375 C 18.796875 24.578125 18.816406 24.558594 18.832031 24.53125 L 18.851562 24.488281 C 18.859375 24.457031 18.859375 24.425781 18.851562 24.390625 L 18.820312 24.238281 C 18.804688 24.191406 18.777344 24.15625 18.738281 24.128906 C 18.714844 24.117188 18.695312 24.109375 18.667969 24.109375 C 18.644531 24.101562 18.621094 24.105469 18.597656 24.113281 L 18.554688 24.128906 C 18.527344 24.144531 18.507812 24.167969 18.488281 24.195312 L 18.472656 24.238281 C 18.464844 24.269531 18.464844 24.300781 18.472656 24.332031 Z M 18.472656 24.332031 " fill-opacity="1" fill-rule="nonzero"/><path fill="#ffa400" d="M 14.042969 25.476562 L 14.679688 25.992188 C 14.714844 26.023438 14.757812 26.042969 14.804688 26.042969 C 14.855469 26.042969 14.898438 26.027344 14.933594 25.992188 C 14.992188 25.925781 15.011719 25.800781 14.933594 25.738281 L 14.296875 25.222656 C 14.261719 25.1875 14.21875 25.171875 14.167969 25.171875 C 14.121094 25.171875 14.078125 25.1875 14.042969 25.222656 C 13.980469 25.289062 13.964844 25.414062 14.042969 25.476562 Z M 14.042969 25.476562 " fill-opacity="1" fill-rule="nonzero"/><path fill="#ffa400" d="M 17.863281 26.550781 L 18.113281 26.675781 C 18.136719 26.691406 18.15625 26.695312 18.183594 26.699219 C 18.261719 26.707031 18.320312 26.679688 18.363281 26.613281 C 18.386719 26.570312 18.394531 26.523438 18.378906 26.472656 C 18.367188 26.425781 18.339844 26.390625 18.296875 26.367188 L 18.046875 26.242188 C 18.027344 26.230469 18.003906 26.222656 17.980469 26.222656 C 17.902344 26.210938 17.84375 26.242188 17.800781 26.308594 C 17.773438 26.351562 17.769531 26.398438 17.78125 26.445312 C 17.796875 26.492188 17.824219 26.527344 17.863281 26.550781 Z M 17.863281 26.550781 " fill-opacity="1" fill-rule="nonzero"/><path fill="#ffa400" d="M 19.328125 25.964844 L 19.804688 26.488281 C 19.886719 26.570312 19.972656 26.570312 20.058594 26.488281 C 20.140625 26.402344 20.140625 26.320312 20.058594 26.234375 L 19.582031 25.710938 C 19.496094 25.628906 19.414062 25.628906 19.328125 25.710938 C 19.246094 25.796875 19.246094 25.882812 19.328125 25.964844 Z M 19.328125 25.964844 " fill-opacity="1" fill-rule="nonzero"/><path fill="#ffa400" d="M 16.804688 28.070312 L 17.703125 28.671875 C 17.78125 28.726562 17.90625 28.691406 17.949219 28.609375 C 18.003906 28.507812 17.984375 28.425781 17.882812 28.363281 L 16.988281 27.761719 C 16.910156 27.710938 16.785156 27.746094 16.742188 27.828125 C 16.683594 27.929688 16.707031 28.011719 16.804688 28.070312 Z M 16.804688 28.070312 " fill-opacity="1" fill-rule="nonzero"/><path fill="#ffa400" d="M 18.460938 30.421875 C 18.507812 30.457031 18.546875 30.5 18.585938 30.542969 L 18.554688 30.507812 C 18.59375 30.554688 18.625 30.609375 18.648438 30.664062 L 18.628906 30.621094 C 18.648438 30.667969 18.664062 30.71875 18.671875 30.769531 C 18.6875 30.816406 18.714844 30.851562 18.757812 30.875 C 18.859375 30.9375 18.941406 30.914062 19.003906 30.8125 C 19.027344 30.765625 19.03125 30.722656 19.019531 30.671875 C 18.980469 30.46875 18.878906 30.300781 18.714844 30.167969 C 18.679688 30.136719 18.636719 30.117188 18.589844 30.117188 C 18.539062 30.117188 18.496094 30.132812 18.460938 30.167969 C 18.425781 30.203125 18.40625 30.246094 18.40625 30.296875 C 18.410156 30.339844 18.421875 30.394531 18.460938 30.421875 Z M 18.460938 30.421875 " fill-opacity="1" fill-rule="nonzero"/><path fill="#ffa400" d="M 19.351562 28.253906 C 19.363281 28.269531 19.378906 28.285156 19.390625 28.300781 L 19.363281 28.265625 C 19.449219 28.378906 19.519531 28.5 19.574219 28.628906 L 19.554688 28.585938 C 19.570312 28.613281 19.582031 28.644531 19.589844 28.675781 C 19.605469 28.722656 19.632812 28.757812 19.675781 28.78125 C 19.71875 28.808594 19.765625 28.8125 19.8125 28.800781 C 19.898438 28.773438 19.972656 28.675781 19.9375 28.578125 C 19.863281 28.367188 19.753906 28.171875 19.605469 28 C 19.570312 27.964844 19.527344 27.945312 19.480469 27.945312 C 19.429688 27.949219 19.386719 27.964844 19.351562 28 C 19.316406 28.035156 19.300781 28.078125 19.300781 28.125 C 19.300781 28.175781 19.320312 28.21875 19.351562 28.253906 Z M 19.351562 28.253906 " fill-opacity="1" fill-rule="nonzero"/><path fill="#ffa400" d="M 21.121094 26.988281 C 21.265625 27.203125 21.410156 27.421875 21.546875 27.640625 C 21.597656 27.71875 21.710938 27.757812 21.792969 27.703125 C 21.875 27.652344 21.914062 27.542969 21.859375 27.457031 C 21.71875 27.238281 21.578125 27.023438 21.433594 26.808594 C 21.382812 26.730469 21.273438 26.6875 21.1875 26.742188 C 21.109375 26.792969 21.066406 26.90625 21.121094 26.988281 Z M 21.121094 26.988281 " fill-opacity="1" fill-rule="nonzero"/><path fill="#ffa400" d="M 23.113281 28.824219 L 23.488281 29.070312 C 23.554688 29.113281 23.625 29.109375 23.6875 29.058594 C 23.75 29.011719 23.773438 28.945312 23.75 28.871094 C 23.738281 28.824219 23.710938 28.789062 23.667969 28.761719 L 23.292969 28.515625 C 23.222656 28.472656 23.15625 28.476562 23.09375 28.527344 C 23.027344 28.574219 23.007812 28.636719 23.027344 28.714844 C 23.042969 28.761719 23.070312 28.796875 23.113281 28.824219 Z M 23.113281 28.824219 " fill-opacity="1" fill-rule="nonzero"/><path fill="#ffa400" d="M 25.484375 30.109375 L 25.59375 30.164062 C 25.613281 30.179688 25.636719 30.183594 25.660156 30.1875 C 25.738281 30.195312 25.796875 30.167969 25.839844 30.101562 L 25.859375 30.058594 C 25.867188 30.027344 25.867188 29.992188 25.859375 29.960938 L 25.839844 29.917969 C 25.824219 29.890625 25.800781 29.871094 25.773438 29.855469 L 25.667969 29.800781 C 25.648438 29.785156 25.625 29.777344 25.601562 29.777344 C 25.523438 29.769531 25.460938 29.796875 25.421875 29.863281 L 25.402344 29.90625 C 25.394531 29.9375 25.394531 29.96875 25.402344 30 L 25.421875 30.042969 C 25.4375 30.070312 25.457031 30.09375 25.484375 30.109375 Z M 25.484375 30.109375 " fill-opacity="1" fill-rule="nonzero"/><path fill="#ffa400" d="M 21.195312 29.402344 L 21.363281 29.507812 C 21.382812 29.519531 21.40625 29.527344 21.429688 29.527344 C 21.507812 29.539062 21.566406 29.507812 21.609375 29.441406 L 21.628906 29.398438 C 21.636719 29.367188 21.636719 29.335938 21.628906 29.304688 L 21.609375 29.261719 C 21.59375 29.234375 21.570312 29.214844 21.542969 29.199219 L 21.378906 29.09375 C 21.355469 29.082031 21.335938 29.074219 21.3125 29.074219 C 21.234375 29.0625 21.171875 29.09375 21.132812 29.160156 L 21.113281 29.199219 C 21.105469 29.234375 21.105469 29.265625 21.113281 29.296875 L 21.132812 29.339844 C 21.148438 29.367188 21.167969 29.386719 21.195312 29.402344 Z M 21.195312 29.402344 " fill-opacity="1" fill-rule="nonzero"/><path fill="#ffa400" d="M 22.304688 24.878906 L 22.660156 25.207031 C 22.695312 25.242188 22.738281 25.261719 22.789062 25.261719 C 22.835938 25.261719 22.878906 25.242188 22.914062 25.207031 C 23 25.125 23 25.039062 22.914062 24.957031 L 22.558594 24.625 C 22.523438 24.589844 22.480469 24.574219 22.429688 24.574219 C 22.382812 24.574219 22.339844 24.589844 22.304688 24.625 C 22.21875 24.710938 22.21875 24.792969 22.304688 24.878906 Z M 22.304688 24.878906 " fill-opacity="1" fill-rule="nonzero"/><path fill="#ffa400" d="M 24.96875 27.632812 L 25.261719 27.964844 C 25.320312 28.023438 25.382812 28.035156 25.457031 28.003906 C 25.53125 27.976562 25.570312 27.917969 25.570312 27.839844 C 25.566406 27.789062 25.550781 27.75 25.515625 27.710938 L 25.226562 27.382812 C 25.167969 27.324219 25.101562 27.3125 25.027344 27.34375 C 24.953125 27.371094 24.917969 27.429688 24.917969 27.507812 C 24.917969 27.558594 24.9375 27.597656 24.96875 27.632812 Z M 24.96875 27.632812 " fill-opacity="1" fill-rule="nonzero"/><path fill="#ffa400" d="M 19.894531 23.78125 C 19.960938 23.917969 20.0625 24.023438 20.195312 24.101562 C 20.238281 24.125 20.285156 24.132812 20.332031 24.121094 C 20.449219 24.089844 20.492188 24.015625 20.457031 23.898438 C 20.445312 23.851562 20.417969 23.816406 20.375 23.792969 C 20.355469 23.78125 20.332031 23.765625 20.3125 23.75 L 20.347656 23.777344 C 20.308594 23.746094 20.273438 23.710938 20.246094 23.671875 L 20.273438 23.710938 C 20.246094 23.675781 20.222656 23.636719 20.203125 23.597656 C 20.164062 23.527344 20.105469 23.5 20.023438 23.511719 C 20 23.515625 19.976562 23.519531 19.957031 23.535156 C 19.914062 23.558594 19.886719 23.59375 19.875 23.640625 L 19.867188 23.6875 C 19.867188 23.722656 19.875 23.75 19.894531 23.78125 Z M 19.894531 23.78125 " fill-opacity="1" fill-rule="nonzero"/><path fill="#ffa400" d="M 15.671875 25.660156 L 16.042969 25.914062 C 16.113281 25.953125 16.179688 25.949219 16.246094 25.902344 C 16.308594 25.851562 16.328125 25.789062 16.308594 25.710938 C 16.292969 25.664062 16.265625 25.628906 16.226562 25.605469 L 15.855469 25.351562 C 15.785156 25.3125 15.71875 25.316406 15.652344 25.363281 C 15.589844 25.414062 15.566406 25.476562 15.589844 25.554688 C 15.601562 25.601562 15.632812 25.636719 15.671875 25.660156 Z M 15.671875 25.660156 " fill-opacity="1" fill-rule="nonzero"/><path fill="#ffa400" d="M 26.988281 29.972656 C 27.003906 30.300781 27.238281 30.539062 27.476562 30.738281 C 27.511719 30.769531 27.554688 30.789062 27.601562 30.789062 C 27.652344 30.789062 27.695312 30.773438 27.730469 30.738281 C 27.792969 30.671875 27.808594 30.546875 27.730469 30.484375 C 27.632812 30.40625 27.542969 30.320312 27.460938 30.226562 C 27.457031 30.222656 27.453125 30.214844 27.449219 30.210938 C 27.429688 30.1875 27.46875 30.238281 27.457031 30.21875 C 27.449219 30.207031 27.441406 30.195312 27.433594 30.183594 C 27.414062 30.160156 27.402344 30.136719 27.386719 30.109375 C 27.378906 30.097656 27.363281 30.046875 27.382812 30.101562 C 27.378906 30.089844 27.371094 30.074219 27.367188 30.0625 C 27.359375 30.03125 27.351562 30.003906 27.347656 29.972656 L 27.355469 30.019531 C 27.351562 30.003906 27.351562 29.988281 27.351562 29.972656 C 27.34375 29.878906 27.269531 29.789062 27.167969 29.792969 C 27.074219 29.796875 26.984375 29.871094 26.988281 29.972656 Z M 26.988281 29.972656 " fill-opacity="1" fill-rule="nonzero"/><path fill="#ffa400" d="M 15.027344 29.023438 C 15.039062 29.152344 15.078125 29.269531 15.140625 29.382812 C 15.195312 29.480469 15.265625 29.570312 15.351562 29.648438 C 15.523438 29.8125 15.734375 29.925781 15.945312 30.035156 C 16.03125 30.078125 16.144531 30.058594 16.191406 29.96875 C 16.238281 29.886719 16.21875 29.769531 16.128906 29.726562 C 16.035156 29.675781 15.9375 29.628906 15.847656 29.574219 C 15.804688 29.546875 15.757812 29.519531 15.714844 29.488281 C 15.703125 29.480469 15.691406 29.472656 15.683594 29.464844 C 15.648438 29.4375 15.714844 29.488281 15.679688 29.460938 C 15.660156 29.445312 15.640625 29.429688 15.621094 29.410156 C 15.585938 29.378906 15.554688 29.347656 15.523438 29.3125 C 15.519531 29.308594 15.515625 29.300781 15.511719 29.296875 C 15.5 29.28125 15.503906 29.285156 15.519531 29.308594 C 15.515625 29.296875 15.507812 29.289062 15.5 29.28125 C 15.488281 29.261719 15.472656 29.242188 15.460938 29.21875 C 15.449219 29.203125 15.441406 29.183594 15.429688 29.164062 C 15.425781 29.152344 15.410156 29.105469 15.425781 29.160156 C 15.421875 29.148438 15.417969 29.140625 15.414062 29.128906 C 15.40625 29.105469 15.398438 29.082031 15.394531 29.058594 C 15.390625 29.050781 15.390625 29.039062 15.386719 29.03125 C 15.386719 29.023438 15.386719 29.015625 15.382812 29.007812 C 15.386719 29.039062 15.390625 29.042969 15.386719 29.023438 C 15.382812 28.976562 15.367188 28.933594 15.332031 28.898438 C 15.296875 28.863281 15.253906 28.847656 15.207031 28.847656 C 15.117188 28.851562 15.015625 28.925781 15.027344 29.023438 Z M 15.027344 29.023438 " fill-opacity="1" fill-rule="nonzero"/><path fill="#ffa400" d="M 22.632812 31.289062 C 22.351562 31.128906 22.078125 30.957031 21.8125 30.773438 C 21.738281 30.71875 21.609375 30.753906 21.566406 30.835938 C 21.511719 30.9375 21.53125 31.019531 21.632812 31.082031 C 21.898438 31.265625 22.171875 31.4375 22.449219 31.597656 C 22.53125 31.644531 22.652344 31.621094 22.699219 31.535156 C 22.753906 31.433594 22.734375 31.351562 22.632812 31.289062 Z M 22.632812 31.289062 " fill-opacity="1" fill-rule="nonzero"/><path fill="#ffa400" d="M 24.253906 31.144531 C 24.339844 31.21875 24.441406 31.273438 24.546875 31.308594 C 24.644531 31.339844 24.746094 31.355469 24.847656 31.355469 C 24.898438 31.351562 24.941406 31.335938 24.976562 31.300781 C 25.011719 31.265625 25.027344 31.222656 25.027344 31.175781 C 25.023438 31.078125 24.949219 30.992188 24.847656 30.996094 C 24.808594 30.996094 24.769531 30.992188 24.730469 30.988281 L 24.777344 30.996094 C 24.714844 30.984375 24.65625 30.96875 24.597656 30.945312 L 24.640625 30.964844 C 24.582031 30.9375 24.53125 30.910156 24.484375 30.871094 L 24.519531 30.902344 C 24.515625 30.898438 24.511719 30.894531 24.507812 30.890625 C 24.472656 30.859375 24.429688 30.839844 24.378906 30.839844 C 24.328125 30.839844 24.289062 30.855469 24.253906 30.890625 C 24.21875 30.925781 24.199219 30.96875 24.199219 31.019531 C 24.199219 31.066406 24.214844 31.109375 24.253906 31.144531 Z M 24.253906 31.144531 " fill-opacity="1" fill-rule="nonzero"/><path fill="#000000" d="M 29.023438 15.261719 C 29.046875 15.273438 29.074219 15.285156 29.101562 15.296875 L 29.136719 15.308594 C 29.15625 15.316406 29.125 15.304688 29.121094 15.304688 C 29.128906 15.308594 29.140625 15.3125 29.148438 15.316406 C 29.199219 15.335938 29.253906 15.359375 29.308594 15.382812 C 29.410156 15.425781 29.515625 15.472656 29.621094 15.519531 C 29.828125 15.613281 30.035156 15.707031 30.242188 15.804688 C 30.359375 15.859375 30.476562 15.917969 30.589844 15.972656 C 30.675781 16.015625 30.789062 16 30.839844 15.910156 C 30.882812 15.828125 30.863281 15.707031 30.773438 15.664062 C 30.359375 15.460938 29.9375 15.265625 29.511719 15.082031 C 29.382812 15.027344 29.25 14.972656 29.117188 14.917969 C 29.070312 14.902344 29.023438 14.910156 28.980469 14.933594 C 28.875 14.996094 28.855469 15.078125 28.914062 15.179688 C 28.941406 15.21875 28.976562 15.246094 29.023438 15.261719 Z M 29.023438 15.261719 " fill-opacity="1" fill-rule="nonzero"/></svg>