<svg xmlns="http://www.w3.org/2000/svg" xmlns:xlink="http://www.w3.org/1999/xlink" width="150" zoomAndPan="magnify" viewBox="0 0 112.5 112.499997" height="150" preserveAspectRatio="xMidYMid meet" version="1.0"><defs><clipPath id="24a633c4c7"><path d="M 6.367188 14.097656 L 106 14.097656 L 106 98.097656 L 6.367188 98.097656 Z M 6.367188 14.097656 " clip-rule="nonzero"/></clipPath><clipPath id="b607448efe"><path d="M 6.367188 27 L 16 27 L 16 33 L 6.367188 33 Z M 6.367188 27 " clip-rule="nonzero"/></clipPath><clipPath id="8db58e3a4d"><path d="M 35 14.097656 L 38 14.097656 L 38 25 L 35 25 Z M 35 14.097656 " clip-rule="nonzero"/></clipPath></defs><path fill="#ffffff" d="M 7.207031 28.328125 C 7.207031 28.328125 12.277344 32.058594 13.277344 32.097656 C 14.273438 32.136719 15.230469 32.097656 15.230469 32.097656 C 15.230469 32.097656 20.441406 28.875 22.832031 27.996094 C 25.226562 27.117188 30.300781 25.132812 32.421875 24.871094 C 34.542969 24.609375 36.6875 24.367188 36.6875 24.367188 L 36.6875 15.847656 C 36.6875 15.847656 42.472656 21.222656 44.109375 22.601562 C 45.746094 23.980469 52.542969 30.210938 57.832031 32.117188 C 63.117188 34.019531 76.734375 38.492188 82.640625 41.652344 C 88.550781 44.808594 100.945312 49.609375 103.457031 53.3125 C 105.96875 57.015625 105.160156 58.277344 105.054688 64.15625 C 104.953125 70.210938 103.261719 72.964844 101.796875 76.1875 C 100.328125 79.410156 97.160156 85.160156 94.878906 87.375 C 92.597656 89.59375 87.75 93.554688 84.683594 94.515625 C 81.617188 95.476562 73.394531 97.648438 69.761719 97.621094 C 66.132812 97.589844 56.367188 97.082031 54.683594 96.65625 C 52.996094 96.230469 47.210938 93.960938 41.632812 90.027344 C 36.050781 86.089844 31.644531 80.945312 28.75 77.683594 C 25.855469 74.421875 22.8125 69.683594 20.054688 64.460938 C 17.292969 59.238281 12.5625 47.914062 12.5625 47.914062 L 9.292969 38.175781 Z M 7.207031 28.328125 " fill-opacity="1" fill-rule="nonzero"/><path fill="#ffa400" d="M 37.894531 49.378906 C 37.242188 49.238281 36.582031 49.167969 35.917969 49.167969 C 33.015625 49.171875 34.398438 53.015625 36.5 53.289062 C 37.519531 53.421875 39.03125 53.007812 39.464844 52.035156 C 40.070312 50.675781 39.167969 49.660156 37.894531 49.378906 Z M 37.894531 49.378906 " fill-opacity="1" fill-rule="nonzero"/><path fill="#ff7900" d="M 37.410156 48.253906 C 37.585938 47.707031 37.824219 47.15625 38.238281 46.757812 C 38.550781 46.457031 38.992188 46.25 39.417969 46.332031 C 39.917969 46.429688 40.269531 46.894531 40.402344 47.382812 C 40.535156 47.871094 40.496094 48.386719 40.488281 48.890625 C 40.472656 49.65625 40.566406 50.410156 40.769531 51.148438 C 40.808594 51.292969 41.097656 51.578125 41.25 51.597656 C 41.171875 51.585938 40.890625 52.035156 40.800781 52.101562 C 40.582031 52.253906 40.195312 52.617188 39.953125 52.726562 C 39.464844 52.953125 38.679688 53.195312 38.144531 53.238281 C 37.878906 53.261719 37.324219 53.273438 37.109375 53.171875 C 36.78125 53.011719 36.761719 52.582031 36.78125 52.277344 C 36.820312 51.640625 36.941406 50.996094 36.992188 50.363281 C 37.050781 49.644531 37.1875 48.941406 37.410156 48.253906 Z M 37.410156 48.253906 " fill-opacity="1" fill-rule="nonzero"/><path fill="#000000" d="M 37.933594 48.398438 C 37.976562 48.261719 38.027344 48.125 38.078125 47.988281 C 38.085938 47.96875 38.097656 47.949219 38.105469 47.929688 C 38.105469 47.925781 38.058594 48.035156 38.082031 47.980469 C 38.09375 47.949219 38.109375 47.917969 38.121094 47.890625 C 38.15625 47.820312 38.191406 47.75 38.226562 47.679688 C 38.296875 47.554688 38.375 47.433594 38.457031 47.316406 C 38.492188 47.269531 38.421875 47.363281 38.421875 47.363281 C 38.433594 47.351562 38.445312 47.335938 38.453125 47.324219 C 38.480469 47.292969 38.503906 47.265625 38.53125 47.238281 C 38.578125 47.183594 38.628906 47.132812 38.683594 47.085938 C 38.695312 47.078125 38.707031 47.066406 38.71875 47.054688 C 38.789062 46.996094 38.699219 47.074219 38.6875 47.078125 C 38.714844 47.0625 38.742188 47.039062 38.769531 47.023438 C 38.835938 46.980469 38.902344 46.941406 38.96875 46.910156 C 39.058594 46.863281 38.867188 46.945312 38.960938 46.914062 C 38.992188 46.902344 39.023438 46.890625 39.054688 46.882812 C 39.089844 46.871094 39.128906 46.867188 39.164062 46.855469 C 39.222656 46.839844 39.089844 46.867188 39.097656 46.863281 C 39.121094 46.859375 39.140625 46.855469 39.164062 46.859375 C 39.195312 46.855469 39.226562 46.855469 39.257812 46.855469 C 39.273438 46.855469 39.289062 46.859375 39.308594 46.859375 C 39.378906 46.859375 39.1875 46.835938 39.257812 46.851562 C 39.273438 46.855469 39.441406 46.898438 39.4375 46.902344 C 39.4375 46.902344 39.328125 46.851562 39.371094 46.875 C 39.390625 46.882812 39.40625 46.890625 39.421875 46.898438 C 39.449219 46.910156 39.472656 46.925781 39.496094 46.941406 C 39.515625 46.953125 39.59375 47.011719 39.519531 46.953125 C 39.441406 46.894531 39.546875 46.976562 39.5625 46.992188 C 39.605469 47.03125 39.644531 47.074219 39.683594 47.117188 C 39.757812 47.207031 39.628906 47.035156 39.675781 47.109375 C 39.695312 47.136719 39.714844 47.164062 39.734375 47.195312 C 39.765625 47.246094 39.792969 47.304688 39.820312 47.359375 C 39.828125 47.371094 39.832031 47.386719 39.839844 47.398438 C 39.863281 47.449219 39.808594 47.335938 39.8125 47.335938 C 39.824219 47.339844 39.84375 47.417969 39.847656 47.433594 C 39.871094 47.5 39.890625 47.570312 39.902344 47.640625 C 39.910156 47.675781 39.917969 47.710938 39.925781 47.75 C 39.929688 47.769531 39.929688 47.785156 39.933594 47.804688 C 39.949219 47.878906 39.921875 47.667969 39.933594 47.792969 C 39.945312 47.957031 39.953125 48.121094 39.953125 48.285156 C 39.953125 48.613281 39.9375 48.945312 39.949219 49.273438 C 39.960938 49.644531 39.996094 50.015625 40.050781 50.382812 C 40.078125 50.570312 40.109375 50.757812 40.152344 50.945312 C 40.183594 51.132812 40.242188 51.3125 40.324219 51.484375 C 40.40625 51.625 40.507812 51.746094 40.628906 51.847656 C 40.761719 51.960938 40.925781 52.089844 41.105469 52.121094 L 41.25 51.054688 C 41.035156 51.066406 40.867188 51.152344 40.738281 51.320312 C 40.679688 51.390625 40.621094 51.464844 40.566406 51.539062 C 40.53125 51.585938 40.386719 51.761719 40.523438 51.59375 C 40.496094 51.628906 40.46875 51.660156 40.441406 51.691406 C 40.398438 51.75 40.585938 51.585938 40.5 51.652344 C 40.441406 51.695312 40.382812 51.738281 40.324219 51.785156 C 40.207031 51.875 40.09375 51.972656 39.976562 52.066406 C 39.960938 52.078125 39.859375 52.15625 39.9375 52.09375 C 40.015625 52.035156 39.921875 52.109375 39.902344 52.121094 C 39.847656 52.164062 39.785156 52.203125 39.726562 52.238281 C 39.667969 52.265625 39.609375 52.289062 39.554688 52.316406 C 39.714844 52.242188 39.59375 52.300781 39.550781 52.316406 C 39.507812 52.332031 39.464844 52.347656 39.421875 52.363281 C 39.109375 52.484375 38.785156 52.578125 38.457031 52.648438 C 38.375 52.664062 38.296875 52.675781 38.21875 52.691406 C 38.125 52.707031 38.351562 52.675781 38.238281 52.6875 C 38.199219 52.691406 38.164062 52.695312 38.125 52.699219 C 37.996094 52.707031 37.863281 52.710938 37.734375 52.710938 C 37.664062 52.710938 37.59375 52.710938 37.523438 52.707031 C 37.488281 52.703125 37.453125 52.699219 37.417969 52.699219 C 37.300781 52.6875 37.558594 52.722656 37.425781 52.699219 C 37.398438 52.695312 37.371094 52.6875 37.339844 52.679688 C 37.316406 52.671875 37.230469 52.636719 37.335938 52.683594 C 37.476562 52.742188 37.246094 52.609375 37.351562 52.691406 C 37.425781 52.746094 37.382812 52.714844 37.371094 52.703125 C 37.324219 52.652344 37.339844 52.640625 37.390625 52.738281 C 37.378906 52.714844 37.359375 52.691406 37.347656 52.667969 C 37.335938 52.648438 37.3125 52.589844 37.347656 52.675781 C 37.386719 52.761719 37.359375 52.707031 37.355469 52.683594 C 37.347656 52.65625 37.335938 52.625 37.332031 52.597656 C 37.328125 52.582031 37.324219 52.566406 37.320312 52.550781 C 37.300781 52.453125 37.332031 52.664062 37.328125 52.605469 C 37.320312 52.464844 37.324219 52.324219 37.332031 52.183594 C 37.363281 51.773438 37.421875 51.363281 37.472656 50.957031 C 37.5 50.734375 37.523438 50.511719 37.542969 50.289062 C 37.550781 50.175781 37.566406 50.0625 37.578125 49.949219 C 37.582031 49.917969 37.578125 49.847656 37.574219 49.980469 C 37.578125 49.949219 37.582031 49.917969 37.585938 49.886719 C 37.59375 49.832031 37.605469 49.777344 37.613281 49.71875 C 37.6875 49.273438 37.792969 48.832031 37.933594 48.398438 C 37.972656 48.253906 37.953125 48.117188 37.878906 47.988281 C 37.804688 47.859375 37.695312 47.773438 37.554688 47.730469 C 37.410156 47.695312 37.269531 47.714844 37.140625 47.785156 C 37.011719 47.859375 36.925781 47.96875 36.882812 48.109375 C 36.757812 48.507812 36.65625 48.910156 36.582031 49.320312 C 36.5 49.773438 36.464844 50.230469 36.414062 50.6875 C 36.371094 51.109375 36.304688 51.53125 36.261719 51.953125 C 36.226562 52.300781 36.195312 52.671875 36.316406 53.007812 C 36.378906 53.207031 36.492188 53.375 36.65625 53.507812 C 36.816406 53.644531 37 53.726562 37.210938 53.757812 C 37.527344 53.800781 37.847656 53.808594 38.171875 53.78125 C 38.546875 53.742188 38.914062 53.671875 39.273438 53.558594 C 39.625 53.464844 39.960938 53.335938 40.285156 53.167969 C 40.464844 53.058594 40.632812 52.933594 40.792969 52.796875 C 40.859375 52.742188 40.925781 52.6875 40.992188 52.632812 C 41.027344 52.601562 41.058594 52.574219 41.09375 52.550781 C 41.097656 52.550781 40.976562 52.640625 41.039062 52.59375 C 41.050781 52.585938 41.066406 52.578125 41.078125 52.566406 C 41.226562 52.449219 41.351562 52.308594 41.457031 52.152344 L 41.484375 52.113281 C 41.535156 52.050781 41.410156 52.210938 41.449219 52.164062 C 41.46875 52.140625 41.488281 52.113281 41.507812 52.089844 C 41.527344 52.066406 41.546875 52.046875 41.566406 52.027344 C 41.570312 52.019531 41.585938 52.011719 41.585938 52.007812 L 41.496094 52.078125 C 41.578125 52.03125 41.496094 52.050781 41.246094 52.144531 C 41.382812 52.140625 41.503906 52.09375 41.605469 52.003906 C 41.707031 51.914062 41.765625 51.804688 41.785156 51.667969 C 41.816406 51.421875 41.660156 51.121094 41.394531 51.074219 C 41.367188 51.070312 41.296875 51.039062 41.394531 51.082031 C 41.492188 51.121094 41.417969 51.089844 41.394531 51.074219 C 41.382812 51.066406 41.371094 51.054688 41.355469 51.046875 C 41.3125 51.019531 41.429688 51.097656 41.417969 51.09375 C 41.402344 51.09375 41.355469 51.039062 41.34375 51.027344 C 41.324219 51.007812 41.304688 50.992188 41.289062 50.972656 C 41.277344 50.960938 41.265625 50.949219 41.257812 50.933594 C 41.257812 50.925781 41.332031 51.039062 41.304688 51 C 41.296875 50.980469 41.28125 50.960938 41.269531 50.945312 C 41.257812 50.925781 41.238281 50.875 41.277344 50.96875 C 41.320312 51.070312 41.292969 51.007812 41.289062 50.984375 C 41.246094 50.8125 41.199219 50.644531 41.164062 50.46875 C 41.148438 50.386719 41.132812 50.304688 41.121094 50.226562 C 41.113281 50.1875 41.109375 50.148438 41.101562 50.113281 C 41.097656 50.082031 41.09375 50.007812 41.105469 50.144531 C 41.105469 50.117188 41.101562 50.09375 41.097656 50.070312 C 41.054688 49.722656 41.035156 49.375 41.035156 49.023438 C 41.03125 48.675781 41.054688 48.328125 41.035156 47.980469 C 41 47.300781 40.796875 46.578125 40.234375 46.144531 C 39.929688 45.886719 39.578125 45.761719 39.179688 45.769531 C 38.792969 45.789062 38.449219 45.914062 38.136719 46.140625 C 37.480469 46.625 37.128906 47.351562 36.882812 48.109375 C 36.84375 48.253906 36.863281 48.390625 36.9375 48.519531 C 37.011719 48.652344 37.121094 48.738281 37.261719 48.777344 C 37.40625 48.8125 37.546875 48.796875 37.675781 48.722656 C 37.804688 48.648438 37.890625 48.539062 37.933594 48.398438 Z M 37.933594 48.398438 " fill-opacity="1" fill-rule="nonzero"/><path fill="#ffa400" d="M 34.492188 41.808594 C 35.121094 39.527344 36.855469 37.59375 39.03125 36.640625 C 41.203125 35.6875 43.769531 35.703125 45.964844 36.609375 C 46.910156 37 47.863281 37.523438 48.449219 38.363281 C 50.105469 40.730469 45.664062 43.285156 42.984375 44.273438 C 40.605469 45.148438 33.183594 46.546875 34.492188 41.808594 Z M 34.492188 41.808594 " fill-opacity="1" fill-rule="nonzero"/><path fill="#ffa400" d="M 34.015625 51.730469 C 33.683594 51.117188 32.8125 50.898438 32.191406 51.21875 C 31.570312 51.539062 31.246094 52.3125 31.382812 52.996094 C 31.519531 53.679688 32.070312 54.246094 32.726562 54.484375 C 33.429688 54.738281 34.292969 54.605469 34.800781 54.058594 C 35.308594 53.511719 35.328125 52.542969 34.765625 52.054688 C 34.441406 51.777344 34.003906 51.683594 33.613281 51.519531 " fill-opacity="1" fill-rule="nonzero"/><path fill="#ffffff" d="M 37.171875 40.964844 C 37.582031 40.628906 37.996094 40.292969 38.417969 39.964844 C 38.980469 39.523438 39.566406 39.085938 40.238281 38.835938 C 41.738281 38.269531 43.414062 38.707031 44.953125 39.152344 C 45.195312 39.222656 45.445312 39.300781 45.636719 39.460938 C 45.828125 39.621094 45.953125 39.894531 45.863281 40.128906 C 45.78125 40.347656 45.550781 40.46875 45.335938 40.570312 C 43.742188 41.324219 42.132812 42.085938 40.425781 42.542969 C 39.191406 42.875 37.914062 43.042969 36.644531 43.210938 C 36.464844 43.234375 36.257812 43.246094 36.136719 43.117188 C 35.929688 42.890625 36.1875 42.546875 36.417969 42.34375 C 37.050781 41.773438 37.554688 41.101562 37.921875 40.335938 " fill-opacity="1" fill-rule="nonzero"/><path fill="#ff7900" d="M 16.300781 31.351562 C 15.902344 33.132812 17.148438 34.96875 18.78125 35.796875 C 20.414062 36.628906 22.328125 36.664062 24.15625 36.554688 C 25.710938 36.457031 27.28125 36.261719 28.714844 35.660156 C 30.078125 35.082031 31.257812 34.164062 32.421875 33.253906 C 33.113281 32.714844 33.746094 32.105469 34.242188 31.382812 C 34.839844 30.519531 35.53125 29.1875 35.6875 28.394531 C 35.929688 27.179688 35.867188 25.957031 35.8125 24.765625 C 35.800781 24.476562 34.816406 24.867188 34.617188 24.65625 C 34.3125 24.34375 33.800781 24.425781 33.378906 24.539062 C 29.128906 25.664062 25.035156 27.292969 20.953125 28.921875 C 18.757812 29.796875 16.519531 30.703125 14.734375 32.246094 " fill-opacity="1" fill-rule="nonzero"/><path fill="#ff7900" d="M 64.804688 34.667969 C 65.660156 35.5625 65.917969 36.871094 65.929688 38.109375 C 65.941406 39.34375 65.746094 40.582031 65.867188 41.808594 C 65.96875 42.785156 66.253906 43.703125 66.722656 44.566406 C 67.191406 45.429688 67.808594 46.167969 68.574219 46.785156 C 69.648438 47.644531 71.011719 48.195312 72.382812 48.113281 C 74.558594 47.980469 76.398438 46.257812 77.191406 44.234375 C 77.730469 42.859375 77.84375 41.230469 77.097656 39.957031 C 76.375 38.726562 75.011719 38.042969 73.695312 37.492188 C 71.273438 36.476562 68.777344 35.683594 66.210938 35.113281 " fill-opacity="1" fill-rule="nonzero"/><path fill="#ff7900" d="M 86.3125 48.597656 C 86.886719 49.519531 87.804688 50.167969 88.742188 50.714844 C 89.410156 51.105469 90.109375 51.460938 90.871094 51.589844 C 91.632812 51.714844 92.46875 51.582031 93.054688 51.082031 C 93.640625 50.582031 95.234375 48.09375 94.851562 47.425781 C 94.703125 47.164062 93.921875 47.171875 93.695312 46.96875 C 92.730469 46.105469 91.644531 46.078125 90.550781 45.378906 C 89.632812 44.792969 88.539062 44.457031 87.546875 44 C 86.953125 43.726562 85.835938 43.035156 85.207031 42.921875 C 84.707031 44.054688 85.777344 47.535156 86.3125 48.597656 Z M 86.3125 48.597656 " fill-opacity="1" fill-rule="nonzero"/><g clip-path="url(#24a633c4c7)"><path fill="#000000" d="M 6.539062 28.472656 C 7.613281 33.042969 8.226562 37.707031 9.769531 42.160156 C 11.09375 45.988281 12.535156 49.777344 14.085938 53.523438 C 16.945312 60.414062 20.578125 66.992188 24.71875 73.195312 C 26.929688 76.507812 29.421875 79.59375 32.195312 82.445312 C 35.144531 85.472656 38.304688 88.265625 41.671875 90.824219 C 44.695312 93.125 47.992188 95.078125 51.585938 96.347656 C 55.746094 97.820312 60.160156 98.101562 64.539062 98.074219 C 68.859375 98.058594 73.144531 97.679688 77.402344 96.9375 C 79.359375 96.589844 81.308594 96.160156 83.179688 95.480469 C 85.179688 94.738281 87.082031 93.808594 88.890625 92.683594 C 91.453125 91.105469 93.957031 89.253906 95.855469 86.902344 C 98.152344 84.058594 100.085938 80.875 101.714844 77.609375 C 102.492188 76.039062 103.15625 74.421875 103.710938 72.757812 C 104.453125 70.566406 105.121094 68.339844 105.527344 66.058594 C 105.941406 63.765625 106.105469 61.414062 105.820312 59.09375 C 105.675781 57.875 105.417969 56.683594 105.039062 55.511719 C 104.773438 54.699219 104.484375 53.859375 104 53.144531 C 103.199219 51.96875 102.066406 51.054688 100.910156 50.246094 C 99.355469 49.160156 97.683594 48.253906 95.996094 47.394531 C 91.796875 45.25 87.449219 43.410156 83.199219 41.378906 C 78.964844 39.351562 74.691406 37.460938 70.285156 35.839844 C 68.503906 35.183594 66.710938 34.566406 64.914062 33.964844 C 63.285156 33.417969 61.636719 32.914062 60.03125 32.292969 C 55.875 30.6875 52.007812 28.324219 48.292969 25.886719 C 46.625 24.808594 45.097656 23.558594 43.707031 22.144531 C 42.410156 20.8125 41.21875 19.390625 39.917969 18.0625 C 38.851562 16.976562 37.660156 15.910156 36.777344 14.664062 C 36.375 14.101562 35.429688 14.640625 35.835938 15.214844 C 36.738281 16.484375 37.914062 17.574219 39.003906 18.683594 C 40.292969 20 41.488281 21.398438 42.761719 22.730469 C 45.511719 25.613281 48.960938 27.695312 52.375 29.699219 C 54.34375 30.855469 56.367188 31.925781 58.472656 32.824219 C 60.15625 33.542969 61.898438 34.101562 63.636719 34.679688 C 67.347656 35.917969 71.035156 37.210938 74.652344 38.695312 C 79.140625 40.535156 83.46875 42.726562 87.875 44.746094 C 91.722656 46.507812 95.664062 48.203125 99.253906 50.457031 C 100.515625 51.246094 101.773438 52.125 102.734375 53.269531 C 103.140625 53.769531 103.453125 54.316406 103.671875 54.917969 C 104.113281 56.0625 104.4375 57.238281 104.636719 58.449219 C 105.394531 63.035156 104.257812 67.660156 102.816406 71.996094 C 102.257812 73.671875 101.644531 75.300781 100.859375 76.886719 C 100.03125 78.566406 99.105469 80.203125 98.117188 81.792969 C 96.503906 84.375 94.757812 86.890625 92.394531 88.847656 C 89.507812 91.242188 86.203125 93.257812 82.660156 94.515625 C 78.902344 95.847656 74.800781 96.355469 70.84375 96.695312 C 66.566406 97.0625 62.230469 97.144531 57.957031 96.695312 C 53.746094 96.253906 49.742188 94.726562 46.132812 92.558594 C 43.003906 90.679688 40.15625 88.347656 37.433594 85.9375 C 34.199219 83.074219 31.082031 79.976562 28.441406 76.558594 C 26.132812 73.5625 24.105469 70.351562 22.183594 67.101562 C 20.375 64.054688 18.65625 60.945312 17.125 57.75 C 15.355469 54.0625 13.878906 50.222656 12.449219 46.394531 C 11.855469 44.804688 11.273438 43.207031 10.722656 41.597656 C 9.988281 39.460938 9.464844 37.273438 9.007812 35.0625 C 8.535156 32.769531 8.125 30.464844 7.589844 28.183594 C 7.429688 27.503906 6.378906 27.792969 6.539062 28.472656 Z M 6.539062 28.472656 " fill-opacity="1" fill-rule="nonzero"/></g><g clip-path="url(#b607448efe)"><path fill="#000000" d="M 6.789062 28.796875 C 7.761719 29.488281 8.746094 30.160156 9.773438 30.769531 C 10.664062 31.292969 11.582031 31.765625 12.527344 32.1875 C 13.152344 32.464844 13.785156 32.722656 14.425781 32.972656 C 14.574219 33.015625 14.710938 32.996094 14.84375 32.917969 C 14.972656 32.84375 15.058594 32.734375 15.097656 32.589844 C 15.132812 32.445312 15.117188 32.304688 15.039062 32.175781 C 14.960938 32.054688 14.851562 31.972656 14.714844 31.925781 C 14.441406 31.820312 14.164062 31.710938 13.894531 31.597656 C 13.828125 31.570312 13.761719 31.542969 13.695312 31.515625 C 13.675781 31.507812 13.574219 31.464844 13.65625 31.5 C 13.742188 31.535156 13.625 31.488281 13.605469 31.476562 C 13.476562 31.421875 13.347656 31.367188 13.21875 31.308594 C 12.742188 31.101562 12.277344 30.882812 11.8125 30.648438 C 10.875 30.171875 9.96875 29.640625 9.089844 29.058594 C 8.496094 28.671875 7.914062 28.269531 7.339844 27.859375 C 7.207031 27.78125 7.066406 27.765625 6.921875 27.804688 C 6.777344 27.84375 6.667969 27.929688 6.59375 28.054688 C 6.445312 28.332031 6.542969 28.621094 6.789062 28.796875 Z M 6.789062 28.796875 " fill-opacity="1" fill-rule="nonzero"/></g><path fill="#000000" d="M 14.84375 32.917969 C 16.070312 32.074219 17.335938 31.289062 18.636719 30.566406 C 20.003906 29.804688 21.398438 29.105469 22.828125 28.472656 C 23.011719 28.390625 23.195312 28.3125 23.378906 28.230469 C 23.464844 28.195312 23.550781 28.160156 23.636719 28.121094 C 23.664062 28.109375 23.820312 28.042969 23.679688 28.105469 C 23.730469 28.082031 23.78125 28.058594 23.835938 28.039062 C 24.199219 27.886719 24.5625 27.738281 24.933594 27.597656 C 25.675781 27.308594 26.429688 27.035156 27.1875 26.78125 C 28.667969 26.285156 30.171875 25.871094 31.699219 25.542969 C 32.4375 25.382812 33.179688 25.25 33.929688 25.136719 C 34.015625 25.125 34.101562 25.113281 34.1875 25.101562 L 34.257812 25.089844 C 34.351562 25.078125 34.226562 25.09375 34.21875 25.097656 C 34.269531 25.089844 34.320312 25.082031 34.375 25.074219 C 34.558594 25.050781 34.742188 25.03125 34.925781 25.011719 C 35.285156 24.972656 35.644531 24.9375 36.003906 24.914062 C 36.183594 24.898438 36.363281 24.890625 36.542969 24.878906 C 36.828125 24.867188 37.101562 24.640625 37.085938 24.335938 C 37.074219 24.054688 36.847656 23.777344 36.542969 23.792969 C 35.019531 23.878906 33.507812 24.070312 32.007812 24.371094 C 30.472656 24.679688 28.957031 25.070312 27.464844 25.550781 C 25.910156 26.046875 24.382812 26.628906 22.878906 27.273438 C 21.425781 27.894531 20.003906 28.585938 18.613281 29.339844 C 17.289062 30.058594 15.992188 30.835938 14.742188 31.675781 C 14.59375 31.777344 14.445312 31.878906 14.292969 31.980469 C 14.0625 32.144531 13.929688 32.464844 14.097656 32.726562 C 14.25 32.957031 14.59375 33.09375 14.84375 32.917969 Z M 14.84375 32.917969 " fill-opacity="1" fill-rule="nonzero"/><g clip-path="url(#8db58e3a4d)"><path fill="#000000" d="M 37.085938 24.335938 C 36.953125 21.898438 36.875 19.460938 36.855469 17.019531 C 36.847656 16.324219 36.847656 15.632812 36.851562 14.9375 C 36.851562 14.652344 36.597656 14.382812 36.304688 14.394531 C 36.15625 14.398438 36.03125 14.453125 35.925781 14.554688 C 35.816406 14.660156 35.765625 14.789062 35.761719 14.9375 C 35.75 17.378906 35.796875 19.820312 35.898438 22.257812 C 35.925781 22.953125 35.960938 23.644531 36 24.335938 C 36.011719 24.621094 36.238281 24.894531 36.542969 24.878906 C 36.824219 24.867188 37.105469 24.640625 37.085938 24.335938 Z M 37.085938 24.335938 " fill-opacity="1" fill-rule="nonzero"/></g><path fill="#000000" d="M 36.664062 43.117188 C 36.996094 42.476562 37.378906 41.863281 37.804688 41.277344 C 37.835938 41.242188 37.863281 41.203125 37.890625 41.167969 C 37.914062 41.136719 37.96875 41.078125 37.871094 41.191406 C 37.882812 41.175781 37.898438 41.160156 37.910156 41.140625 C 37.96875 41.070312 38.027344 40.996094 38.085938 40.925781 C 38.207031 40.78125 38.332031 40.640625 38.464844 40.503906 C 38.59375 40.371094 38.726562 40.242188 38.867188 40.121094 C 38.929688 40.066406 38.992188 40.011719 39.058594 39.960938 C 39.078125 39.945312 39.097656 39.925781 39.117188 39.914062 C 39.113281 39.917969 39.007812 39.996094 39.074219 39.945312 C 39.113281 39.917969 39.152344 39.886719 39.191406 39.859375 C 39.332031 39.761719 39.476562 39.667969 39.628906 39.585938 C 39.699219 39.546875 39.777344 39.511719 39.851562 39.476562 C 39.867188 39.46875 39.886719 39.460938 39.902344 39.453125 C 39.996094 39.410156 39.796875 39.496094 39.863281 39.46875 C 39.90625 39.453125 39.945312 39.4375 39.992188 39.421875 C 40.199219 39.347656 40.414062 39.285156 40.632812 39.242188 C 40.679688 39.234375 40.730469 39.226562 40.78125 39.214844 C 40.804688 39.210938 40.828125 39.207031 40.851562 39.203125 C 40.863281 39.203125 40.988281 39.183594 40.890625 39.199219 C 40.796875 39.214844 40.917969 39.195312 40.929688 39.195312 C 40.953125 39.191406 40.980469 39.1875 41.003906 39.1875 C 41.066406 39.179688 41.125 39.175781 41.1875 39.171875 C 41.410156 39.15625 41.632812 39.15625 41.855469 39.164062 C 41.96875 39.167969 42.078125 39.175781 42.191406 39.1875 C 42.238281 39.191406 42.289062 39.195312 42.339844 39.203125 C 42.371094 39.203125 42.402344 39.207031 42.433594 39.210938 C 42.449219 39.214844 42.582031 39.234375 42.492188 39.21875 C 42.40625 39.207031 42.492188 39.21875 42.511719 39.222656 C 42.542969 39.226562 42.574219 39.230469 42.605469 39.238281 C 42.65625 39.246094 42.707031 39.253906 42.753906 39.261719 C 42.875 39.28125 42.992188 39.304688 43.113281 39.328125 C 43.347656 39.375 43.582031 39.429688 43.8125 39.484375 C 44.242188 39.59375 44.675781 39.699219 45.097656 39.84375 C 45.1875 39.878906 45.28125 39.910156 45.371094 39.949219 C 45.402344 39.960938 45.460938 39.992188 45.324219 39.925781 C 45.347656 39.9375 45.375 39.949219 45.402344 39.960938 C 45.445312 39.980469 45.488281 40.003906 45.53125 40.023438 C 45.613281 40.066406 45.691406 40.109375 45.769531 40.160156 C 45.785156 40.171875 45.804688 40.183594 45.820312 40.195312 C 45.871094 40.226562 45.707031 40.097656 45.789062 40.171875 C 45.820312 40.199219 45.851562 40.226562 45.878906 40.257812 C 45.984375 40.363281 46.113281 40.414062 46.265625 40.414062 C 46.414062 40.414062 46.542969 40.363281 46.648438 40.257812 C 46.753906 40.148438 46.804688 40.023438 46.804688 39.875 C 46.804688 39.726562 46.753906 39.597656 46.648438 39.488281 C 46.363281 39.1875 45.957031 39.015625 45.578125 38.867188 C 45.21875 38.738281 44.855469 38.625 44.484375 38.535156 C 43.523438 38.285156 42.535156 38.066406 41.539062 38.074219 C 40.628906 38.078125 39.691406 38.269531 38.90625 38.75 C 38.226562 39.160156 37.652344 39.730469 37.160156 40.347656 C 36.609375 41.042969 36.132812 41.785156 35.722656 42.570312 C 35.589844 42.820312 35.648438 43.171875 35.917969 43.3125 C 36.167969 43.445312 36.519531 43.386719 36.664062 43.117188 Z M 36.664062 43.117188 " fill-opacity="1" fill-rule="nonzero"/><path fill="#000000" d="M 17.589844 49.175781 C 17.574219 49.097656 17.601562 49.363281 17.601562 49.269531 C 17.601562 49.257812 17.601562 49.242188 17.601562 49.230469 C 17.601562 49.210938 17.605469 49.191406 17.605469 49.175781 C 17.605469 49.121094 17.585938 49.308594 17.589844 49.289062 C 17.59375 49.277344 17.59375 49.261719 17.597656 49.25 C 17.613281 49.160156 17.640625 49.074219 17.671875 48.988281 C 17.679688 48.964844 17.6875 48.9375 17.699219 48.914062 C 17.703125 48.902344 17.710938 48.886719 17.714844 48.875 C 17.738281 48.808594 17.667969 48.976562 17.675781 48.960938 C 17.707031 48.90625 17.730469 48.84375 17.757812 48.789062 C 17.816406 48.664062 17.886719 48.542969 17.957031 48.421875 C 18.035156 48.296875 18.117188 48.171875 18.203125 48.050781 C 18.246094 47.984375 18.292969 47.917969 18.34375 47.855469 C 18.355469 47.835938 18.371094 47.820312 18.382812 47.800781 C 18.277344 47.941406 18.320312 47.882812 18.347656 47.851562 C 18.378906 47.8125 18.410156 47.773438 18.441406 47.734375 C 18.671875 47.453125 18.925781 47.1875 19.195312 46.941406 C 19.265625 46.878906 19.335938 46.820312 19.410156 46.757812 C 19.441406 46.730469 19.476562 46.703125 19.507812 46.679688 C 19.527344 46.664062 19.550781 46.644531 19.570312 46.628906 C 19.429688 46.742188 19.519531 46.667969 19.550781 46.644531 C 19.710938 46.527344 19.871094 46.414062 20.039062 46.3125 C 20.214844 46.207031 20.394531 46.109375 20.582031 46.023438 C 20.621094 46.003906 20.660156 45.984375 20.703125 45.96875 C 20.738281 45.949219 20.835938 45.914062 20.671875 45.980469 C 20.6875 45.972656 20.703125 45.964844 20.722656 45.960938 C 20.820312 45.917969 20.925781 45.882812 21.027344 45.847656 C 21.222656 45.785156 21.421875 45.734375 21.628906 45.699219 C 21.710938 45.683594 21.554688 45.710938 21.554688 45.707031 C 21.582031 45.703125 21.605469 45.699219 21.632812 45.699219 C 21.683594 45.695312 21.734375 45.691406 21.785156 45.691406 C 21.882812 45.6875 21.980469 45.691406 22.078125 45.699219 C 22.132812 45.703125 22.183594 45.707031 22.238281 45.710938 C 22.257812 45.714844 22.277344 45.71875 22.292969 45.71875 C 22.113281 45.703125 22.21875 45.707031 22.261719 45.714844 C 22.375 45.734375 22.488281 45.753906 22.597656 45.78125 C 22.816406 45.832031 23.027344 45.890625 23.238281 45.964844 C 23.367188 46.007812 23.492188 46.054688 23.621094 46.105469 C 23.679688 46.128906 23.734375 46.15625 23.796875 46.175781 C 23.644531 46.125 23.75 46.15625 23.78125 46.171875 C 23.820312 46.1875 23.859375 46.207031 23.898438 46.222656 C 24.144531 46.332031 24.382812 46.445312 24.621094 46.566406 C 25.074219 46.796875 25.515625 47.050781 25.953125 47.308594 C 26.082031 47.382812 26.21875 47.402344 26.363281 47.363281 C 26.511719 47.328125 26.621094 47.242188 26.695312 47.113281 C 26.773438 46.984375 26.792969 46.847656 26.753906 46.703125 C 26.714844 46.558594 26.632812 46.445312 26.5 46.371094 C 25.640625 45.859375 24.757812 45.382812 23.820312 45.023438 C 23.382812 44.851562 22.933594 44.726562 22.46875 44.65625 C 22.21875 44.617188 21.972656 44.601562 21.722656 44.609375 C 21.476562 44.621094 21.234375 44.660156 21 44.726562 C 20.113281 44.957031 19.316406 45.425781 18.617188 46.007812 C 18.027344 46.507812 17.519531 47.082031 17.105469 47.734375 C 16.917969 48.023438 16.761719 48.332031 16.636719 48.652344 C 16.527344 48.914062 16.496094 49.1875 16.539062 49.464844 C 16.589844 49.746094 16.945312 49.929688 17.207031 49.84375 C 17.511719 49.75 17.644531 49.476562 17.589844 49.175781 Z M 17.589844 49.175781 " fill-opacity="1" fill-rule="nonzero"/><path fill="#000000" d="M 17.097656 50.101562 C 19.714844 49.949219 22.21875 49.335938 24.609375 48.265625 C 25.253906 47.980469 25.886719 47.660156 26.5 47.308594 C 26.632812 47.234375 26.714844 47.121094 26.753906 46.976562 C 26.792969 46.832031 26.773438 46.695312 26.695312 46.566406 C 26.621094 46.4375 26.511719 46.351562 26.363281 46.316406 C 26.21875 46.277344 26.082031 46.296875 25.953125 46.371094 C 25.414062 46.675781 24.867188 46.960938 24.304688 47.21875 C 24.164062 47.28125 24.019531 47.34375 23.875 47.40625 C 23.84375 47.421875 23.808594 47.4375 23.777344 47.449219 C 23.761719 47.457031 23.742188 47.464844 23.726562 47.472656 C 23.851562 47.414062 23.785156 47.445312 23.757812 47.457031 C 23.6875 47.488281 23.613281 47.515625 23.542969 47.546875 C 23.253906 47.664062 22.960938 47.773438 22.667969 47.878906 C 21.5 48.289062 20.300781 48.59375 19.078125 48.796875 C 18.910156 48.824219 18.734375 48.851562 18.5625 48.875 L 18.511719 48.882812 C 18.4375 48.890625 18.621094 48.867188 18.546875 48.875 C 18.5 48.882812 18.453125 48.890625 18.40625 48.894531 C 18.320312 48.90625 18.238281 48.914062 18.15625 48.925781 C 17.804688 48.964844 17.449219 48.992188 17.097656 49.015625 C 16.8125 49.03125 16.539062 49.25 16.550781 49.558594 C 16.566406 49.835938 16.792969 50.117188 17.097656 50.101562 Z M 17.097656 50.101562 " fill-opacity="1" fill-rule="nonzero"/><path fill="#000000" d="M 36.191406 43.730469 C 39.0625 43.519531 41.8125 42.828125 44.4375 41.648438 C 45.15625 41.328125 45.855469 40.972656 46.539062 40.582031 C 46.667969 40.507812 46.753906 40.398438 46.789062 40.253906 C 46.828125 40.105469 46.808594 39.96875 46.734375 39.839844 C 46.65625 39.710938 46.546875 39.628906 46.402344 39.589844 C 46.257812 39.550781 46.117188 39.570312 45.988281 39.644531 C 45.394531 39.984375 44.785156 40.296875 44.164062 40.582031 C 44.007812 40.65625 43.847656 40.726562 43.691406 40.796875 C 43.652344 40.8125 43.613281 40.828125 43.574219 40.847656 C 43.554688 40.855469 43.425781 40.910156 43.507812 40.875 C 43.585938 40.839844 43.453125 40.894531 43.4375 40.902344 C 43.394531 40.921875 43.351562 40.941406 43.304688 40.957031 C 42.988281 41.085938 42.667969 41.207031 42.347656 41.324219 C 41.058594 41.785156 39.738281 42.136719 38.386719 42.371094 C 38.195312 42.40625 38.007812 42.4375 37.816406 42.464844 C 37.722656 42.480469 37.628906 42.492188 37.53125 42.507812 C 37.515625 42.507812 37.496094 42.511719 37.480469 42.511719 C 37.628906 42.492188 37.53125 42.507812 37.5 42.511719 C 37.453125 42.515625 37.402344 42.523438 37.355469 42.527344 C 36.96875 42.578125 36.582031 42.613281 36.191406 42.644531 C 35.910156 42.664062 35.632812 42.878906 35.648438 43.1875 C 35.660156 43.460938 35.886719 43.753906 36.191406 43.730469 Z M 36.191406 43.730469 " fill-opacity="1" fill-rule="nonzero"/><path fill="#000000" d="M 29.839844 48.03125 C 30.015625 48.492188 30.316406 48.84375 30.746094 49.089844 C 31.148438 49.3125 31.578125 49.417969 32.035156 49.40625 C 33.019531 49.375 33.859375 48.75 34.304688 47.890625 C 34.5625 47.382812 34.707031 46.847656 34.730469 46.277344 C 34.730469 46.128906 34.675781 46 34.570312 45.894531 C 34.464844 45.789062 34.335938 45.734375 34.1875 45.734375 C 34.039062 45.738281 33.910156 45.792969 33.804688 45.898438 C 33.699219 46.003906 33.644531 46.128906 33.640625 46.277344 C 33.640625 46.324219 33.636719 46.375 33.632812 46.421875 C 33.628906 46.46875 33.589844 46.640625 33.628906 46.453125 C 33.609375 46.550781 33.597656 46.648438 33.574219 46.742188 C 33.554688 46.835938 33.527344 46.925781 33.5 47.011719 C 33.484375 47.054688 33.472656 47.097656 33.457031 47.136719 C 33.445312 47.164062 33.433594 47.191406 33.425781 47.21875 C 33.386719 47.3125 33.476562 47.101562 33.433594 47.199219 C 33.351562 47.371094 33.257812 47.535156 33.148438 47.691406 C 33.136719 47.710938 33.121094 47.726562 33.105469 47.75 C 33.1875 47.628906 33.160156 47.679688 33.136719 47.707031 C 33.105469 47.742188 33.078125 47.78125 33.042969 47.816406 C 32.980469 47.886719 32.910156 47.949219 32.835938 48.011719 C 32.804688 48.039062 32.722656 48.085938 32.855469 48 C 32.839844 48.011719 32.824219 48.023438 32.8125 48.035156 C 32.773438 48.0625 32.730469 48.089844 32.691406 48.113281 C 32.613281 48.164062 32.53125 48.199219 32.449219 48.242188 C 32.617188 48.15625 32.484375 48.226562 32.4375 48.242188 C 32.402344 48.253906 32.363281 48.265625 32.328125 48.273438 C 32.292969 48.285156 32.253906 48.292969 32.21875 48.300781 C 32.191406 48.304688 32.167969 48.308594 32.144531 48.3125 C 32.050781 48.332031 32.285156 48.300781 32.1875 48.308594 C 32.109375 48.316406 32.035156 48.320312 31.960938 48.320312 C 31.917969 48.320312 31.875 48.316406 31.832031 48.316406 C 31.816406 48.3125 31.796875 48.3125 31.78125 48.308594 C 31.652344 48.296875 31.855469 48.324219 31.8125 48.316406 C 31.734375 48.300781 31.65625 48.285156 31.578125 48.265625 C 31.539062 48.253906 31.5 48.242188 31.460938 48.226562 C 31.445312 48.222656 31.429688 48.214844 31.414062 48.210938 C 31.3125 48.171875 31.421875 48.230469 31.449219 48.226562 C 31.421875 48.230469 31.34375 48.175781 31.316406 48.164062 C 31.28125 48.144531 31.246094 48.121094 31.210938 48.101562 C 31.164062 48.070312 31.050781 47.957031 31.183594 48.085938 C 31.15625 48.058594 31.121094 48.03125 31.09375 48.003906 C 31.058594 47.972656 31.023438 47.9375 30.992188 47.898438 C 30.980469 47.886719 30.972656 47.875 30.960938 47.863281 C 31.078125 47.984375 31.007812 47.925781 30.980469 47.882812 C 30.957031 47.847656 30.933594 47.808594 30.910156 47.769531 C 30.902344 47.753906 30.894531 47.742188 30.886719 47.726562 C 30.828125 47.605469 30.925781 47.828125 30.890625 47.742188 C 30.847656 47.605469 30.765625 47.496094 30.640625 47.417969 C 30.507812 47.34375 30.371094 47.324219 30.222656 47.363281 C 29.964844 47.445312 29.730469 47.75 29.839844 48.03125 Z M 29.839844 48.03125 " fill-opacity="1" fill-rule="nonzero"/><path fill="#000000" d="M 32.265625 49.535156 C 32.347656 50.136719 32.667969 50.667969 33.042969 51.136719 C 33.417969 51.609375 33.882812 51.996094 34.359375 52.359375 C 34.609375 52.554688 34.867188 52.734375 35.128906 52.914062 C 35.363281 53.078125 35.742188 52.964844 35.871094 52.71875 C 35.945312 52.589844 35.960938 52.453125 35.925781 52.308594 C 35.886719 52.167969 35.804688 52.054688 35.675781 51.976562 C 35.460938 51.828125 35.242188 51.675781 35.03125 51.515625 C 35.007812 51.5 34.980469 51.480469 34.957031 51.460938 C 34.863281 51.390625 35.03125 51.519531 34.957031 51.460938 C 34.902344 51.417969 34.851562 51.378906 34.800781 51.335938 C 34.691406 51.246094 34.582031 51.15625 34.476562 51.0625 C 34.273438 50.882812 34.085938 50.691406 33.90625 50.484375 C 33.863281 50.433594 33.824219 50.382812 33.785156 50.335938 C 33.78125 50.328125 33.859375 50.433594 33.824219 50.386719 C 33.816406 50.375 33.808594 50.363281 33.796875 50.351562 C 33.777344 50.320312 33.757812 50.292969 33.738281 50.265625 C 33.664062 50.160156 33.59375 50.046875 33.535156 49.933594 C 33.5 49.871094 33.472656 49.808594 33.441406 49.742188 C 33.417969 49.695312 33.46875 49.808594 33.46875 49.808594 C 33.46875 49.808594 33.449219 49.761719 33.449219 49.757812 C 33.4375 49.726562 33.425781 49.695312 33.414062 49.664062 C 33.367188 49.527344 33.335938 49.386719 33.316406 49.246094 C 33.277344 49.101562 33.191406 48.996094 33.066406 48.921875 C 32.933594 48.84375 32.796875 48.828125 32.652344 48.863281 C 32.507812 48.902344 32.394531 48.984375 32.320312 49.117188 C 32.253906 49.25 32.234375 49.386719 32.265625 49.535156 Z M 32.265625 49.535156 " fill-opacity="1" fill-rule="nonzero"/><path fill="#000000" d="M 31.832031 54.480469 C 32.5 55.023438 33.320312 55.296875 34.179688 55.171875 C 34.949219 55.058594 35.59375 54.515625 35.894531 53.808594 C 36.074219 53.390625 36.105469 52.960938 35.984375 52.523438 C 35.90625 52.25 35.597656 52.050781 35.3125 52.144531 C 35.171875 52.183594 35.0625 52.269531 34.988281 52.402344 C 34.914062 52.53125 34.894531 52.667969 34.933594 52.8125 C 34.941406 52.84375 34.949219 52.875 34.957031 52.90625 C 34.960938 52.921875 34.964844 52.941406 34.96875 52.957031 C 34.980469 53.015625 34.953125 52.871094 34.957031 52.882812 C 34.972656 52.949219 34.976562 53.015625 34.964844 53.085938 C 34.964844 53.117188 34.960938 53.148438 34.960938 53.179688 C 34.964844 53.007812 34.972656 53.105469 34.960938 53.15625 C 34.949219 53.222656 34.929688 53.289062 34.910156 53.351562 C 34.894531 53.394531 34.839844 53.511719 34.914062 53.351562 C 34.902344 53.375 34.890625 53.402344 34.878906 53.425781 C 34.847656 53.492188 34.808594 53.554688 34.769531 53.617188 C 34.75 53.644531 34.730469 53.671875 34.714844 53.699219 C 34.679688 53.746094 34.757812 53.632812 34.753906 53.640625 C 34.746094 53.65625 34.734375 53.671875 34.71875 53.683594 C 34.675781 53.738281 34.625 53.789062 34.574219 53.835938 C 34.550781 53.855469 34.523438 53.878906 34.5 53.898438 C 34.433594 53.957031 34.609375 53.820312 34.511719 53.890625 C 34.453125 53.929688 34.394531 53.964844 34.332031 54 C 34.304688 54.015625 34.273438 54.027344 34.246094 54.042969 C 34.183594 54.070312 34.359375 53.996094 34.296875 54.019531 C 34.28125 54.023438 34.269531 54.03125 34.253906 54.035156 C 34.179688 54.0625 34.105469 54.082031 34.03125 54.097656 C 33.996094 54.109375 33.957031 54.109375 33.921875 54.121094 C 34.082031 54.082031 33.976562 54.113281 33.929688 54.117188 C 33.851562 54.125 33.773438 54.125 33.695312 54.125 C 33.652344 54.121094 33.613281 54.121094 33.570312 54.117188 C 33.554688 54.113281 33.539062 54.113281 33.523438 54.113281 C 33.460938 54.109375 33.597656 54.121094 33.589844 54.121094 C 33.503906 54.117188 33.421875 54.097656 33.34375 54.070312 C 33.261719 54.050781 33.179688 54.027344 33.101562 53.996094 C 33.082031 53.988281 33.0625 53.980469 33.042969 53.972656 C 32.972656 53.945312 33.070312 53.980469 33.085938 53.992188 C 33.046875 53.96875 33.011719 53.953125 32.96875 53.9375 C 32.890625 53.898438 32.8125 53.851562 32.734375 53.804688 C 32.699219 53.78125 32.664062 53.757812 32.628906 53.734375 C 32.617188 53.722656 32.605469 53.714844 32.59375 53.707031 C 32.5 53.636719 32.691406 53.785156 32.601562 53.714844 C 32.496094 53.613281 32.367188 53.558594 32.21875 53.554688 C 32.066406 53.554688 31.9375 53.609375 31.832031 53.714844 C 31.648438 53.910156 31.597656 54.289062 31.832031 54.480469 Z M 31.832031 54.480469 " fill-opacity="1" fill-rule="nonzero"/><path fill="#000000" d="M 35.128906 52.914062 C 36.238281 53.714844 37.710938 53.964844 39.035156 53.660156 C 40.320312 53.363281 41.433594 52.480469 42.070312 51.335938 C 42.441406 50.671875 42.640625 49.960938 42.675781 49.199219 C 42.671875 49.050781 42.621094 48.921875 42.515625 48.816406 C 42.40625 48.710938 42.28125 48.660156 42.128906 48.65625 C 41.980469 48.660156 41.855469 48.714844 41.75 48.820312 C 41.644531 48.925781 41.589844 49.050781 41.585938 49.199219 C 41.582031 49.269531 41.578125 49.339844 41.570312 49.40625 C 41.570312 49.441406 41.566406 49.476562 41.5625 49.511719 C 41.546875 49.632812 41.578125 49.386719 41.558594 49.511719 C 41.539062 49.648438 41.511719 49.785156 41.476562 49.917969 C 41.441406 50.054688 41.398438 50.191406 41.347656 50.328125 C 41.335938 50.355469 41.324219 50.382812 41.316406 50.410156 C 41.308594 50.425781 41.300781 50.445312 41.292969 50.464844 C 41.289062 50.472656 41.34375 50.347656 41.320312 50.402344 C 41.289062 50.46875 41.257812 50.539062 41.226562 50.605469 C 41.097656 50.855469 40.949219 51.09375 40.78125 51.320312 C 40.746094 51.367188 40.824219 51.265625 40.820312 51.269531 C 40.808594 51.285156 40.796875 51.300781 40.785156 51.316406 C 40.765625 51.339844 40.746094 51.363281 40.726562 51.382812 C 40.679688 51.441406 40.628906 51.496094 40.578125 51.550781 C 40.480469 51.65625 40.378906 51.753906 40.269531 51.847656 C 40.21875 51.894531 40.164062 51.9375 40.109375 51.980469 C 40.039062 52.039062 40.203125 51.914062 40.128906 51.96875 C 40.09375 51.992188 40.0625 52.015625 40.03125 52.039062 C 39.914062 52.121094 39.792969 52.195312 39.667969 52.265625 C 39.609375 52.296875 39.554688 52.328125 39.496094 52.355469 C 39.464844 52.371094 39.429688 52.386719 39.398438 52.402344 C 39.378906 52.410156 39.359375 52.417969 39.339844 52.425781 C 39.277344 52.457031 39.449219 52.382812 39.386719 52.410156 C 39.246094 52.464844 39.101562 52.515625 38.957031 52.558594 C 38.816406 52.597656 38.675781 52.628906 38.53125 52.65625 C 38.496094 52.664062 38.457031 52.667969 38.421875 52.671875 C 38.300781 52.691406 38.523438 52.664062 38.429688 52.671875 C 38.351562 52.679688 38.273438 52.6875 38.195312 52.695312 C 38.046875 52.703125 37.902344 52.703125 37.753906 52.699219 C 37.683594 52.695312 37.609375 52.691406 37.535156 52.683594 C 37.5 52.683594 37.464844 52.679688 37.425781 52.675781 C 37.410156 52.671875 37.394531 52.671875 37.378906 52.667969 C 37.3125 52.664062 37.527344 52.691406 37.417969 52.675781 C 37.089844 52.625 36.773438 52.542969 36.464844 52.421875 C 36.445312 52.414062 36.425781 52.40625 36.40625 52.398438 C 36.34375 52.375 36.515625 52.445312 36.449219 52.417969 C 36.414062 52.402344 36.375 52.382812 36.335938 52.367188 C 36.261719 52.332031 36.1875 52.292969 36.113281 52.253906 C 35.960938 52.171875 35.816406 52.078125 35.679688 51.976562 C 35.546875 51.902344 35.40625 51.882812 35.257812 51.921875 C 35.117188 51.964844 35.007812 52.046875 34.933594 52.171875 C 34.785156 52.453125 34.882812 52.738281 35.128906 52.914062 Z M 35.128906 52.914062 " fill-opacity="1" fill-rule="nonzero"/><path fill="#000000" d="M 20.75 48.433594 C 20.722656 48.320312 20.699219 48.203125 20.683594 48.085938 L 20.703125 48.230469 C 20.667969 47.957031 20.667969 47.6875 20.699219 47.414062 C 20.699219 47.261719 20.644531 47.136719 20.539062 47.03125 C 20.433594 46.921875 20.304688 46.871094 20.152344 46.871094 C 20.003906 46.871094 19.875 46.921875 19.769531 47.03125 L 19.683594 47.140625 C 19.632812 47.222656 19.609375 47.316406 19.609375 47.414062 C 19.5625 47.855469 19.589844 48.292969 19.699219 48.722656 C 19.738281 48.867188 19.824219 48.976562 19.957031 49.050781 C 20.085938 49.125 20.222656 49.140625 20.371094 49.101562 C 20.515625 49.0625 20.625 48.976562 20.699219 48.847656 C 20.773438 48.714844 20.789062 48.578125 20.75 48.433594 Z M 20.75 48.433594 " fill-opacity="1" fill-rule="nonzero"/><path fill="#000000" d="M 40.449219 41.582031 C 40.421875 41.519531 40.390625 41.460938 40.367188 41.398438 L 40.421875 41.527344 C 40.320312 41.289062 40.253906 41.042969 40.214844 40.789062 L 40.234375 40.933594 C 40.226562 40.867188 40.21875 40.800781 40.214844 40.734375 C 40.210938 40.585938 40.160156 40.457031 40.054688 40.347656 C 39.949219 40.242188 39.820312 40.191406 39.671875 40.191406 C 39.519531 40.191406 39.390625 40.242188 39.285156 40.347656 C 39.179688 40.453125 39.125 40.582031 39.125 40.734375 C 39.160156 41.222656 39.285156 41.691406 39.511719 42.128906 C 39.632812 42.335938 39.8125 42.425781 40.050781 42.394531 C 40.289062 42.363281 40.441406 42.230469 40.507812 42 C 40.539062 41.851562 40.523438 41.714844 40.449219 41.582031 Z M 40.449219 41.582031 " fill-opacity="1" fill-rule="nonzero"/><path fill="#000000" d="M 18.671875 30.101562 C 18.539062 31.363281 18.761719 32.558594 19.339844 33.691406 C 19.464844 33.945312 19.847656 34.039062 20.082031 33.886719 C 20.210938 33.808594 20.292969 33.695312 20.332031 33.554688 C 20.367188 33.410156 20.351562 33.273438 20.277344 33.140625 C 20.246094 33.078125 20.214844 33.015625 20.1875 32.949219 C 20.171875 32.917969 20.15625 32.886719 20.140625 32.851562 C 20.089844 32.738281 20.1875 32.96875 20.140625 32.851562 C 20.089844 32.726562 20.042969 32.597656 20 32.46875 C 19.910156 32.203125 19.84375 31.933594 19.792969 31.65625 C 19.789062 31.621094 19.78125 31.585938 19.777344 31.550781 C 19.777344 31.515625 19.769531 31.480469 19.761719 31.445312 C 19.78125 31.480469 19.773438 31.5625 19.761719 31.46875 C 19.757812 31.433594 19.753906 31.398438 19.75 31.363281 C 19.738281 31.226562 19.730469 31.089844 19.722656 30.953125 C 19.714844 30.667969 19.726562 30.382812 19.761719 30.101562 C 19.761719 29.949219 19.707031 29.824219 19.601562 29.71875 C 19.496094 29.609375 19.367188 29.558594 19.214844 29.558594 C 19.066406 29.558594 18.9375 29.609375 18.832031 29.71875 C 18.730469 29.828125 18.679688 29.953125 18.671875 30.101562 Z M 18.671875 30.101562 " fill-opacity="1" fill-rule="nonzero"/><path fill="#000000" d="M 22.382812 28.121094 C 22.34375 30.011719 22.6875 31.835938 23.410156 33.585938 C 23.617188 34.09375 23.855469 34.589844 24.121094 35.070312 C 24.199219 35.199219 24.308594 35.28125 24.453125 35.320312 C 24.597656 35.355469 24.738281 35.339844 24.867188 35.265625 C 24.996094 35.1875 25.078125 35.078125 25.113281 34.933594 C 25.152344 34.789062 25.136719 34.652344 25.0625 34.523438 C 24.84375 34.128906 24.648438 33.726562 24.46875 33.316406 C 24.4375 33.242188 24.519531 33.441406 24.472656 33.328125 C 24.464844 33.308594 24.457031 33.285156 24.445312 33.261719 C 24.425781 33.214844 24.40625 33.164062 24.386719 33.113281 C 24.34375 33.007812 24.304688 32.902344 24.265625 32.796875 C 24.183594 32.582031 24.113281 32.367188 24.046875 32.148438 C 23.914062 31.726562 23.804688 31.300781 23.714844 30.863281 C 23.667969 30.640625 23.628906 30.417969 23.597656 30.195312 C 23.589844 30.140625 23.582031 30.085938 23.574219 30.035156 C 23.5625 29.953125 23.589844 30.175781 23.578125 30.054688 C 23.574219 30.03125 23.570312 30.007812 23.566406 29.984375 C 23.554688 29.863281 23.539062 29.746094 23.527344 29.625 C 23.480469 29.125 23.460938 28.625 23.472656 28.121094 C 23.476562 27.96875 23.421875 27.839844 23.316406 27.734375 C 23.210938 27.625 23.078125 27.574219 22.929688 27.574219 C 22.777344 27.574219 22.648438 27.625 22.539062 27.734375 C 22.433594 27.839844 22.382812 27.96875 22.382812 28.121094 Z M 22.382812 28.121094 " fill-opacity="1" fill-rule="nonzero"/><path fill="#000000" d="M 25.441406 27.078125 C 25.617188 28.832031 25.941406 30.558594 26.410156 32.257812 C 26.542969 32.722656 26.683594 33.1875 26.835938 33.648438 C 26.925781 33.914062 27.214844 34.121094 27.507812 34.027344 C 27.777344 33.9375 27.980469 33.648438 27.886719 33.359375 C 27.351562 31.742188 26.953125 30.097656 26.699219 28.414062 C 26.679688 28.292969 26.664062 28.175781 26.644531 28.054688 C 26.640625 28.03125 26.640625 28.003906 26.636719 27.980469 C 26.625 27.910156 26.652344 28.09375 26.636719 27.992188 C 26.628906 27.925781 26.621094 27.863281 26.613281 27.800781 C 26.582031 27.558594 26.554688 27.320312 26.53125 27.078125 C 26.527344 26.929688 26.472656 26.800781 26.371094 26.695312 C 26.265625 26.589844 26.136719 26.535156 25.984375 26.535156 C 25.714844 26.546875 25.410156 26.777344 25.441406 27.078125 Z M 25.441406 27.078125 " fill-opacity="1" fill-rule="nonzero"/><path fill="#000000" d="M 28.382812 26.105469 C 28.683594 27.449219 29.046875 28.773438 29.480469 30.082031 C 29.601562 30.457031 29.730469 30.828125 29.863281 31.199219 C 29.960938 31.464844 30.238281 31.671875 30.535156 31.578125 C 30.796875 31.492188 31.019531 31.195312 30.914062 30.910156 C 30.449219 29.617188 30.046875 28.300781 29.707031 26.964844 C 29.609375 26.585938 29.519531 26.199219 29.433594 25.816406 C 29.394531 25.671875 29.308594 25.5625 29.175781 25.488281 C 29.046875 25.417969 28.910156 25.398438 28.765625 25.4375 C 28.621094 25.480469 28.511719 25.566406 28.441406 25.695312 C 28.367188 25.824219 28.347656 25.960938 28.382812 26.105469 Z M 28.382812 26.105469 " fill-opacity="1" fill-rule="nonzero"/><path fill="#000000" d="M 31.445312 25.34375 L 32.117188 27.878906 C 32.15625 28.023438 32.242188 28.132812 32.371094 28.207031 C 32.503906 28.28125 32.640625 28.300781 32.785156 28.257812 C 32.929688 28.21875 33.039062 28.136719 33.113281 28.003906 C 33.1875 27.875 33.207031 27.738281 33.167969 27.59375 L 32.496094 25.054688 C 32.457031 24.910156 32.371094 24.800781 32.242188 24.726562 C 32.109375 24.652344 31.972656 24.632812 31.828125 24.675781 C 31.679688 24.714844 31.570312 24.800781 31.496094 24.929688 C 31.421875 25.058594 31.40625 25.199219 31.445312 25.34375 Z M 31.445312 25.34375 " fill-opacity="1" fill-rule="nonzero"/><path fill="#000000" d="M 70.183594 44.816406 C 70.578125 44.851562 70.96875 44.890625 71.359375 44.9375 C 71.449219 44.949219 71.539062 44.960938 71.628906 44.972656 C 71.664062 44.976562 71.839844 45.003906 71.679688 44.976562 C 71.71875 44.984375 71.757812 44.988281 71.796875 44.992188 C 71.992188 45.019531 72.1875 45.050781 72.378906 45.078125 C 73.144531 45.199219 73.902344 45.347656 74.65625 45.519531 C 74.933594 45.582031 75.261719 45.433594 75.328125 45.140625 C 75.390625 44.863281 75.242188 44.539062 74.945312 44.472656 C 73.375 44.113281 71.789062 43.867188 70.183594 43.730469 C 69.898438 43.707031 69.628906 44 69.640625 44.273438 C 69.652344 44.589844 69.878906 44.792969 70.183594 44.816406 Z M 70.183594 44.816406 " fill-opacity="1" fill-rule="nonzero"/><path fill="#000000" d="M 68.011719 42.796875 C 68.492188 42.78125 68.972656 42.78125 69.453125 42.804688 C 69.699219 42.816406 69.945312 42.832031 70.191406 42.855469 C 70.304688 42.863281 70.414062 42.875 70.523438 42.886719 C 70.585938 42.894531 70.644531 42.902344 70.707031 42.910156 C 70.730469 42.914062 70.757812 42.914062 70.78125 42.917969 C 70.816406 42.921875 70.933594 42.921875 70.78125 42.917969 C 70.898438 42.929688 71.015625 42.945312 71.128906 42.96875 C 71.253906 42.988281 71.375 43.007812 71.496094 43.03125 C 71.734375 43.074219 71.96875 43.121094 72.203125 43.171875 C 72.671875 43.277344 73.136719 43.402344 73.597656 43.546875 C 73.855469 43.625 74.113281 43.714844 74.367188 43.808594 C 74.488281 43.851562 74.609375 43.898438 74.730469 43.945312 C 74.792969 43.972656 74.855469 43.996094 74.917969 44.023438 L 74.988281 44.050781 C 75.011719 44.058594 75.03125 44.070312 75.054688 44.078125 C 74.984375 44.046875 74.972656 44.042969 75.027344 44.066406 C 75.160156 44.136719 75.300781 44.15625 75.449219 44.121094 C 75.589844 44.082031 75.699219 44 75.773438 43.871094 C 75.851562 43.742188 75.867188 43.601562 75.828125 43.453125 C 75.789062 43.328125 75.703125 43.183594 75.578125 43.128906 C 73.691406 42.324219 71.722656 41.855469 69.675781 41.730469 C 69.121094 41.695312 68.566406 41.691406 68.011719 41.710938 C 67.726562 41.722656 67.453125 41.953125 67.464844 42.253906 C 67.480469 42.539062 67.707031 42.808594 68.011719 42.796875 Z M 68.011719 42.796875 " fill-opacity="1" fill-rule="nonzero"/><path fill="#000000" d="M 67.53125 39.628906 C 67.789062 39.65625 68.042969 39.683594 68.296875 39.722656 C 68.285156 39.71875 68.167969 39.703125 68.269531 39.71875 L 68.363281 39.730469 C 68.421875 39.738281 68.476562 39.746094 68.535156 39.753906 C 68.664062 39.773438 68.789062 39.792969 68.917969 39.8125 C 69.414062 39.886719 69.90625 39.972656 70.398438 40.066406 C 71.382812 40.257812 72.359375 40.484375 73.328125 40.746094 C 73.875 40.894531 74.417969 41.054688 74.957031 41.226562 C 75.101562 41.265625 75.238281 41.25 75.367188 41.175781 C 75.5 41.101562 75.585938 40.992188 75.625 40.847656 C 75.664062 40.703125 75.644531 40.566406 75.570312 40.4375 C 75.496094 40.308594 75.386719 40.222656 75.246094 40.179688 C 73.3125 39.566406 71.34375 39.101562 69.339844 38.785156 C 68.738281 38.691406 68.136719 38.609375 67.53125 38.542969 C 67.382812 38.542969 67.253906 38.59375 67.148438 38.699219 C 67.042969 38.808594 66.988281 38.933594 66.988281 39.085938 C 66.988281 39.234375 67.042969 39.363281 67.148438 39.46875 C 67.257812 39.566406 67.386719 39.621094 67.53125 39.628906 Z M 67.53125 39.628906 " fill-opacity="1" fill-rule="nonzero"/><path fill="#000000" d="M 87.273438 47.894531 L 89.730469 49.582031 C 89.964844 49.742188 90.347656 49.632812 90.476562 49.386719 C 90.546875 49.257812 90.566406 49.121094 90.527344 48.976562 C 90.488281 48.832031 90.40625 48.722656 90.28125 48.644531 L 87.820312 46.957031 C 87.585938 46.792969 87.207031 46.90625 87.078125 47.152344 C 87.003906 47.28125 86.988281 47.417969 87.027344 47.5625 C 87.0625 47.703125 87.144531 47.816406 87.273438 47.894531 Z M 87.273438 47.894531 " fill-opacity="1" fill-rule="nonzero"/><path fill="#ffa400" d="M 39.925781 67.316406 C 40.289062 68.699219 40.921875 69.945312 41.828125 71.054688 C 42.066406 71.347656 42.324219 71.628906 42.597656 71.890625 C 42.804688 72.089844 43.167969 72.109375 43.371094 71.890625 C 43.472656 71.785156 43.523438 71.65625 43.523438 71.507812 C 43.523438 71.359375 43.472656 71.230469 43.371094 71.125 C 43.132812 70.898438 42.914062 70.660156 42.703125 70.414062 C 42.648438 70.351562 42.597656 70.285156 42.546875 70.222656 C 42.535156 70.207031 42.527344 70.195312 42.515625 70.183594 C 42.472656 70.128906 42.582031 70.269531 42.539062 70.214844 C 42.511719 70.179688 42.488281 70.144531 42.460938 70.109375 C 42.363281 69.980469 42.273438 69.851562 42.183594 69.71875 C 42 69.441406 41.832031 69.160156 41.679688 68.867188 C 41.605469 68.722656 41.535156 68.582031 41.46875 68.4375 C 41.433594 68.367188 41.40625 68.296875 41.375 68.226562 C 41.34375 68.160156 41.417969 68.328125 41.390625 68.261719 C 41.382812 68.246094 41.378906 68.234375 41.371094 68.21875 C 41.351562 68.171875 41.332031 68.125 41.316406 68.078125 C 41.179688 67.734375 41.066406 67.386719 40.976562 67.027344 C 40.933594 66.886719 40.847656 66.777344 40.71875 66.703125 C 40.589844 66.632812 40.453125 66.613281 40.308594 66.65625 C 40.164062 66.695312 40.054688 66.777344 39.980469 66.90625 C 39.90625 67.035156 39.886719 67.171875 39.925781 67.316406 Z M 39.925781 67.316406 " fill-opacity="1" fill-rule="nonzero"/><path fill="#ffa400" d="M 45.460938 70.078125 C 45.800781 70.449219 46.125 70.835938 46.4375 71.234375 L 46.351562 71.125 C 46.421875 71.21875 46.496094 71.3125 46.566406 71.410156 C 46.644531 71.53125 46.753906 71.617188 46.894531 71.660156 C 47.039062 71.699219 47.179688 71.679688 47.3125 71.605469 C 47.441406 71.53125 47.523438 71.421875 47.5625 71.28125 C 47.605469 71.132812 47.585938 70.992188 47.507812 70.863281 C 47.105469 70.324219 46.683594 69.804688 46.230469 69.308594 C 46.125 69.203125 45.996094 69.152344 45.847656 69.152344 C 45.695312 69.152344 45.566406 69.203125 45.460938 69.308594 C 45.359375 69.417969 45.304688 69.542969 45.304688 69.691406 C 45.304688 69.839844 45.359375 69.96875 45.460938 70.078125 Z M 45.460938 70.078125 " fill-opacity="1" fill-rule="nonzero"/><path fill="#ffa400" d="M 50.347656 70.003906 L 50.820312 70.476562 C 50.925781 70.578125 51.054688 70.628906 51.203125 70.628906 C 51.351562 70.628906 51.480469 70.578125 51.589844 70.476562 L 51.675781 70.367188 C 51.722656 70.28125 51.75 70.191406 51.75 70.089844 L 51.730469 69.949219 C 51.703125 69.855469 51.65625 69.773438 51.589844 69.707031 L 51.117188 69.238281 C 51.007812 69.136719 50.878906 69.085938 50.730469 69.085938 C 50.582031 69.085938 50.453125 69.136719 50.347656 69.238281 L 50.261719 69.347656 C 50.210938 69.433594 50.1875 69.523438 50.1875 69.621094 L 50.207031 69.765625 C 50.230469 69.859375 50.277344 69.9375 50.347656 70.003906 Z M 50.347656 70.003906 " fill-opacity="1" fill-rule="nonzero"/><path fill="#ffa400" d="M 50.628906 63.042969 L 51.480469 63.699219 C 51.589844 63.800781 51.71875 63.851562 51.863281 63.859375 C 52.015625 63.859375 52.144531 63.804688 52.25 63.699219 C 52.355469 63.59375 52.410156 63.464844 52.410156 63.316406 L 52.390625 63.171875 C 52.363281 63.078125 52.316406 63 52.25 62.933594 L 51.398438 62.273438 C 51.292969 62.171875 51.164062 62.121094 51.015625 62.113281 C 50.863281 62.117188 50.738281 62.167969 50.628906 62.273438 C 50.523438 62.378906 50.46875 62.507812 50.46875 62.65625 L 50.488281 62.800781 C 50.515625 62.894531 50.5625 62.972656 50.628906 63.042969 Z M 50.628906 63.042969 " fill-opacity="1" fill-rule="nonzero"/><path fill="#ffa400" d="M 55.785156 73.527344 L 55.886719 73.996094 C 55.929688 74.140625 56.015625 74.246094 56.144531 74.320312 C 56.273438 74.390625 56.410156 74.410156 56.554688 74.375 L 56.683594 74.320312 C 56.765625 74.273438 56.832031 74.207031 56.878906 74.125 L 56.933594 73.996094 C 56.960938 73.902344 56.960938 73.804688 56.933594 73.707031 L 56.835938 73.238281 C 56.792969 73.101562 56.710938 72.992188 56.585938 72.914062 C 56.527344 72.875 56.457031 72.851562 56.382812 72.851562 C 56.3125 72.832031 56.238281 72.835938 56.167969 72.859375 L 56.039062 72.914062 C 55.957031 72.960938 55.890625 73.027344 55.84375 73.109375 L 55.789062 73.238281 C 55.761719 73.335938 55.761719 73.429688 55.789062 73.527344 Z M 55.785156 73.527344 " fill-opacity="1" fill-rule="nonzero"/><path fill="#ffa400" d="M 42.398438 76.992188 L 44.320312 78.546875 C 44.429688 78.648438 44.554688 78.703125 44.707031 78.707031 C 44.855469 78.707031 44.984375 78.652344 45.089844 78.546875 C 45.273438 78.351562 45.328125 77.972656 45.089844 77.78125 L 43.167969 76.222656 C 43.058594 76.121094 42.929688 76.070312 42.78125 76.0625 C 42.632812 76.066406 42.503906 76.117188 42.398438 76.222656 C 42.214844 76.421875 42.160156 76.800781 42.398438 76.992188 Z M 42.398438 76.992188 " fill-opacity="1" fill-rule="nonzero"/><path fill="#ffa400" d="M 53.953125 80.25 L 54.707031 80.625 C 54.769531 80.664062 54.835938 80.683594 54.910156 80.6875 C 55.148438 80.71875 55.328125 80.628906 55.453125 80.429688 C 55.53125 80.296875 55.546875 80.15625 55.507812 80.011719 C 55.46875 79.867188 55.386719 79.761719 55.257812 79.6875 L 54.503906 79.3125 C 54.441406 79.269531 54.375 79.25 54.300781 79.246094 C 54.0625 79.21875 53.882812 79.304688 53.757812 79.503906 C 53.679688 79.636719 53.664062 79.777344 53.703125 79.925781 C 53.742188 80.066406 53.824219 80.175781 53.953125 80.25 Z M 53.953125 80.25 " fill-opacity="1" fill-rule="nonzero"/><path fill="#ffa400" d="M 58.375 78.472656 L 59.8125 80.050781 C 59.917969 80.15625 60.046875 80.210938 60.195312 80.210938 C 60.347656 80.210938 60.476562 80.15625 60.582031 80.050781 C 60.683594 79.945312 60.738281 79.816406 60.738281 79.667969 C 60.738281 79.519531 60.683594 79.390625 60.582031 79.285156 L 59.144531 77.707031 C 59.039062 77.601562 58.910156 77.546875 58.757812 77.546875 C 58.609375 77.546875 58.480469 77.601562 58.375 77.707031 C 58.269531 77.8125 58.21875 77.941406 58.21875 78.089844 C 58.21875 78.238281 58.269531 78.367188 58.375 78.472656 Z M 58.375 78.472656 " fill-opacity="1" fill-rule="nonzero"/><path fill="#ffa400" d="M 50.75 84.847656 L 53.457031 86.667969 C 53.695312 86.824219 54.070312 86.71875 54.203125 86.472656 C 54.277344 86.339844 54.292969 86.203125 54.253906 86.0625 C 54.21875 85.917969 54.136719 85.808594 54.007812 85.730469 L 51.300781 83.910156 C 51.0625 83.75 50.6875 83.855469 50.554688 84.105469 C 50.484375 84.234375 50.464844 84.371094 50.503906 84.515625 C 50.542969 84.660156 50.625 84.769531 50.75 84.847656 Z M 50.75 84.847656 " fill-opacity="1" fill-rule="nonzero"/><path fill="#ffa400" d="M 55.753906 91.960938 C 55.894531 92.070312 56.015625 92.195312 56.125 92.332031 L 56.042969 92.222656 C 56.152344 92.367188 56.246094 92.523438 56.320312 92.695312 L 56.261719 92.5625 C 56.324219 92.707031 56.367188 92.855469 56.394531 93.011719 C 56.4375 93.152344 56.519531 93.261719 56.648438 93.335938 C 56.777344 93.410156 56.914062 93.429688 57.058594 93.390625 C 57.207031 93.351562 57.316406 93.269531 57.390625 93.140625 C 57.460938 93.007812 57.480469 92.867188 57.445312 92.722656 C 57.324219 92.101562 57.019531 91.589844 56.523438 91.195312 C 56.414062 91.09375 56.285156 91.039062 56.136719 91.035156 C 55.988281 91.035156 55.859375 91.089844 55.753906 91.195312 C 55.648438 91.300781 55.59375 91.425781 55.59375 91.578125 C 55.597656 91.710938 55.640625 91.875 55.753906 91.960938 Z M 55.753906 91.960938 " fill-opacity="1" fill-rule="nonzero"/><path fill="#ffa400" d="M 58.445312 85.398438 C 58.488281 85.445312 58.523438 85.492188 58.5625 85.542969 L 58.476562 85.433594 C 58.738281 85.769531 58.953125 86.136719 59.121094 86.53125 L 59.066406 86.402344 C 59.101562 86.492188 59.136719 86.582031 59.171875 86.675781 C 59.214844 86.8125 59.296875 86.921875 59.421875 87 C 59.554688 87.074219 59.695312 87.09375 59.839844 87.054688 C 60.105469 86.96875 60.324219 86.671875 60.222656 86.386719 C 59.992188 85.738281 59.65625 85.15625 59.21875 84.628906 C 59.109375 84.523438 58.980469 84.46875 58.832031 84.46875 C 58.683594 84.472656 58.554688 84.523438 58.445312 84.628906 C 58.339844 84.734375 58.289062 84.863281 58.289062 85.011719 C 58.292969 85.160156 58.347656 85.289062 58.445312 85.398438 Z M 58.445312 85.398438 " fill-opacity="1" fill-rule="nonzero"/><path fill="#ffa400" d="M 63.800781 81.570312 C 64.238281 82.222656 64.664062 82.878906 65.085938 83.539062 C 65.238281 83.777344 65.578125 83.898438 65.832031 83.734375 C 66.074219 83.578125 66.1875 83.25 66.027344 82.992188 C 65.605469 82.328125 65.179688 81.671875 64.742188 81.023438 C 64.582031 80.785156 64.253906 80.660156 63.996094 80.828125 C 63.761719 80.980469 63.632812 81.316406 63.800781 81.570312 Z M 63.800781 81.570312 " fill-opacity="1" fill-rule="nonzero"/><path fill="#ffa400" d="M 69.8125 87.121094 L 70.945312 87.875 C 71.15625 87.996094 71.359375 87.984375 71.550781 87.835938 C 71.746094 87.6875 71.8125 87.496094 71.746094 87.261719 C 71.703125 87.125 71.617188 87.015625 71.496094 86.9375 L 70.363281 86.183594 C 70.152344 86.0625 69.949219 86.074219 69.753906 86.222656 C 69.5625 86.371094 69.496094 86.5625 69.5625 86.796875 C 69.605469 86.9375 69.691406 87.042969 69.8125 87.121094 Z M 69.8125 87.121094 " fill-opacity="1" fill-rule="nonzero"/><path fill="#ffa400" d="M 76.988281 91.011719 L 77.3125 91.183594 C 77.375 91.222656 77.441406 91.242188 77.515625 91.246094 C 77.75 91.273438 77.933594 91.1875 78.058594 90.988281 L 78.113281 90.859375 C 78.140625 90.761719 78.140625 90.664062 78.113281 90.570312 L 78.058594 90.441406 C 78.007812 90.359375 77.945312 90.292969 77.863281 90.246094 L 77.539062 90.074219 C 77.476562 90.035156 77.410156 90.015625 77.335938 90.011719 C 77.097656 89.984375 76.917969 90.070312 76.792969 90.269531 L 76.738281 90.398438 C 76.710938 90.496094 76.710938 90.59375 76.738281 90.6875 L 76.792969 90.820312 C 76.839844 90.898438 76.90625 90.964844 76.988281 91.011719 Z M 76.988281 91.011719 " fill-opacity="1" fill-rule="nonzero"/><path fill="#ffa400" d="M 64.023438 88.878906 L 64.523438 89.191406 C 64.585938 89.230469 64.65625 89.253906 64.726562 89.257812 C 64.964844 89.285156 65.144531 89.199219 65.269531 88.996094 L 65.324219 88.867188 C 65.351562 88.769531 65.351562 88.675781 65.324219 88.578125 L 65.269531 88.449219 C 65.222656 88.367188 65.15625 88.300781 65.074219 88.253906 L 64.570312 87.941406 C 64.507812 87.902344 64.441406 87.878906 64.367188 87.875 C 64.132812 87.847656 63.953125 87.933594 63.824219 88.136719 L 63.769531 88.265625 C 63.746094 88.363281 63.746094 88.457031 63.769531 88.554688 L 63.824219 88.683594 C 63.875 88.765625 63.9375 88.832031 64.023438 88.878906 Z M 64.023438 88.878906 " fill-opacity="1" fill-rule="nonzero"/><path fill="#ffa400" d="M 67.371094 75.183594 L 68.445312 76.179688 C 68.554688 76.285156 68.683594 76.335938 68.832031 76.339844 C 68.980469 76.339844 69.109375 76.285156 69.21875 76.179688 C 69.324219 76.074219 69.375 75.945312 69.375 75.796875 C 69.375 75.648438 69.324219 75.519531 69.21875 75.414062 L 68.140625 74.414062 C 68.035156 74.3125 67.90625 74.257812 67.757812 74.253906 C 67.605469 74.257812 67.476562 74.308594 67.371094 74.414062 C 67.265625 74.519531 67.210938 74.648438 67.210938 74.796875 C 67.210938 74.949219 67.265625 75.078125 67.371094 75.183594 Z M 67.371094 75.183594 " fill-opacity="1" fill-rule="nonzero"/><path fill="#ffa400" d="M 75.429688 83.523438 L 76.3125 84.527344 C 76.484375 84.699219 76.679688 84.738281 76.90625 84.644531 C 77.128906 84.554688 77.242188 84.386719 77.242188 84.144531 C 77.234375 83.996094 77.183594 83.867188 77.082031 83.761719 L 76.199219 82.757812 C 76.027344 82.585938 75.832031 82.546875 75.605469 82.640625 C 75.382812 82.730469 75.269531 82.898438 75.269531 83.140625 C 75.277344 83.289062 75.328125 83.414062 75.429688 83.523438 Z M 75.429688 83.523438 " fill-opacity="1" fill-rule="nonzero"/><path fill="#ffa400" d="M 60.085938 71.855469 C 60.289062 72.273438 60.589844 72.597656 60.992188 72.832031 C 61.125 72.90625 61.265625 72.921875 61.414062 72.886719 C 61.558594 72.84375 61.667969 72.761719 61.742188 72.628906 C 61.816406 72.5 61.832031 72.363281 61.792969 72.21875 C 61.75 72.078125 61.667969 71.96875 61.542969 71.894531 C 61.476562 71.855469 61.410156 71.808594 61.347656 71.761719 L 61.457031 71.847656 C 61.339844 71.753906 61.238281 71.652344 61.144531 71.535156 L 61.230469 71.644531 C 61.148438 71.539062 61.082031 71.425781 61.023438 71.308594 C 60.90625 71.09375 60.722656 71.007812 60.480469 71.046875 C 60.410156 71.050781 60.339844 71.070312 60.28125 71.113281 C 60.152344 71.1875 60.070312 71.292969 60.027344 71.4375 L 60.011719 71.582031 C 60.007812 71.679688 60.035156 71.769531 60.085938 71.855469 Z M 60.085938 71.855469 " fill-opacity="1" fill-rule="nonzero"/><path fill="#ffa400" d="M 47.324219 77.550781 L 48.449219 78.316406 C 48.660156 78.4375 48.859375 78.425781 49.054688 78.277344 C 49.25 78.128906 49.3125 77.9375 49.246094 77.703125 C 49.203125 77.5625 49.121094 77.457031 48.996094 77.378906 L 47.871094 76.613281 C 47.660156 76.488281 47.460938 76.503906 47.265625 76.652344 C 47.070312 76.800781 47.007812 76.992188 47.070312 77.226562 C 47.117188 77.363281 47.199219 77.472656 47.324219 77.550781 Z M 47.324219 77.550781 " fill-opacity="1" fill-rule="nonzero"/><path fill="#ffa400" d="M 81.535156 90.601562 C 81.582031 91.59375 82.285156 92.308594 83.003906 92.914062 C 83.109375 93.015625 83.238281 93.070312 83.386719 93.074219 C 83.539062 93.074219 83.664062 93.019531 83.773438 92.914062 C 83.957031 92.714844 84.003906 92.34375 83.773438 92.148438 C 83.480469 91.914062 83.210938 91.652344 82.964844 91.371094 C 82.953125 91.355469 82.941406 91.339844 82.929688 91.324219 C 82.871094 91.25 82.988281 91.40625 82.949219 91.351562 C 82.925781 91.316406 82.898438 91.28125 82.871094 91.242188 C 82.824219 91.171875 82.78125 91.09375 82.738281 91.015625 C 82.71875 90.972656 82.664062 90.824219 82.722656 90.992188 C 82.707031 90.949219 82.691406 90.910156 82.679688 90.871094 C 82.652344 90.78125 82.628906 90.695312 82.617188 90.601562 L 82.636719 90.746094 C 82.628906 90.699219 82.625 90.652344 82.625 90.601562 C 82.609375 90.320312 82.382812 90.046875 82.078125 90.058594 C 81.796875 90.070312 81.519531 90.296875 81.535156 90.601562 Z M 81.535156 90.601562 " fill-opacity="1" fill-rule="nonzero"/><path fill="#ffa400" d="M 45.371094 87.734375 C 45.410156 88.117188 45.523438 88.476562 45.710938 88.8125 C 45.882812 89.117188 46.097656 89.386719 46.351562 89.625 C 46.875 90.121094 47.515625 90.460938 48.152344 90.789062 C 48.40625 90.917969 48.757812 90.863281 48.898438 90.59375 C 49.03125 90.34375 48.972656 89.988281 48.703125 89.851562 C 48.417969 89.703125 48.132812 89.558594 47.855469 89.394531 C 47.71875 89.3125 47.585938 89.226562 47.453125 89.132812 C 47.421875 89.109375 47.386719 89.085938 47.355469 89.058594 C 47.253906 88.984375 47.449219 89.136719 47.351562 89.058594 C 47.289062 89.007812 47.226562 88.957031 47.167969 88.902344 C 47.066406 88.808594 46.96875 88.707031 46.878906 88.601562 C 46.863281 88.585938 46.851562 88.570312 46.835938 88.550781 C 46.800781 88.507812 46.808594 88.519531 46.863281 88.585938 C 46.84375 88.558594 46.828125 88.535156 46.804688 88.507812 C 46.761719 88.449219 46.722656 88.386719 46.683594 88.320312 C 46.652344 88.265625 46.621094 88.210938 46.59375 88.152344 C 46.574219 88.117188 46.527344 87.976562 46.582031 88.136719 C 46.574219 88.109375 46.558594 88.078125 46.546875 88.050781 C 46.523438 87.980469 46.503906 87.910156 46.484375 87.839844 C 46.476562 87.808594 46.46875 87.777344 46.464844 87.746094 C 46.460938 87.726562 46.457031 87.703125 46.453125 87.683594 C 46.464844 87.777344 46.46875 87.792969 46.460938 87.734375 C 46.457031 87.585938 46.402344 87.457031 46.300781 87.347656 C 46.195312 87.246094 46.066406 87.191406 45.914062 87.191406 C 45.648438 87.203125 45.335938 87.429688 45.371094 87.734375 Z M 45.371094 87.734375 " fill-opacity="1" fill-rule="nonzero"/><path fill="#ffa400" d="M 68.363281 94.585938 C 67.519531 94.097656 66.695312 93.578125 65.890625 93.019531 C 65.65625 92.859375 65.273438 92.96875 65.144531 93.214844 C 65.074219 93.34375 65.054688 93.480469 65.09375 93.625 C 65.132812 93.769531 65.214844 93.878906 65.339844 93.957031 C 66.144531 94.515625 66.96875 95.035156 67.816406 95.523438 C 68.0625 95.667969 68.421875 95.589844 68.5625 95.328125 C 68.632812 95.199219 68.652344 95.0625 68.613281 94.917969 C 68.574219 94.773438 68.492188 94.664062 68.363281 94.585938 Z M 68.363281 94.585938 " fill-opacity="1" fill-rule="nonzero"/><path fill="#ffa400" d="M 73.261719 94.148438 C 73.53125 94.367188 73.828125 94.535156 74.15625 94.644531 C 74.449219 94.746094 74.75 94.789062 75.0625 94.78125 C 75.210938 94.78125 75.339844 94.726562 75.445312 94.621094 C 75.550781 94.515625 75.605469 94.386719 75.605469 94.238281 C 75.59375 93.949219 75.367188 93.6875 75.0625 93.695312 C 74.941406 93.699219 74.824219 93.691406 74.707031 93.675781 L 74.851562 93.695312 C 74.660156 93.667969 74.476562 93.617188 74.300781 93.542969 L 74.429688 93.597656 C 74.261719 93.527344 74.105469 93.4375 73.957031 93.324219 L 74.066406 93.410156 C 74.054688 93.402344 74.042969 93.390625 74.03125 93.382812 C 73.921875 93.28125 73.792969 93.226562 73.644531 93.222656 C 73.496094 93.222656 73.367188 93.277344 73.261719 93.382812 C 73.15625 93.488281 73.101562 93.617188 73.101562 93.765625 C 73.097656 93.914062 73.152344 94.042969 73.261719 94.148438 Z M 73.261719 94.148438 " fill-opacity="1" fill-rule="nonzero"/><path fill="#000000" d="M 87.679688 46.074219 C 87.757812 46.105469 87.835938 46.140625 87.914062 46.171875 L 88.023438 46.21875 C 88.082031 46.242188 87.984375 46.199219 87.984375 46.199219 C 88.007812 46.210938 88.03125 46.21875 88.054688 46.230469 C 88.21875 46.296875 88.378906 46.367188 88.539062 46.4375 C 88.859375 46.574219 89.171875 46.710938 89.488281 46.851562 C 90.117188 47.132812 90.746094 47.417969 91.371094 47.714844 C 91.722656 47.882812 92.074219 48.050781 92.425781 48.226562 C 92.679688 48.351562 93.023438 48.300781 93.167969 48.03125 C 93.300781 47.785156 93.246094 47.421875 92.972656 47.289062 C 91.71875 46.671875 90.449219 46.085938 89.160156 45.53125 C 88.765625 45.359375 88.371094 45.191406 87.972656 45.027344 C 87.824219 44.988281 87.683594 45.003906 87.550781 45.082031 C 87.421875 45.15625 87.335938 45.269531 87.300781 45.414062 C 87.261719 45.558594 87.28125 45.695312 87.355469 45.824219 C 87.4375 45.945312 87.542969 46.027344 87.679688 46.074219 Z M 87.679688 46.074219 " fill-opacity="1" fill-rule="nonzero"/></svg>