<svg xmlns="http://www.w3.org/2000/svg" xmlns:xlink="http://www.w3.org/1999/xlink" width="250" zoomAndPan="magnify" viewBox="0 0 187.5 187.499992" height="250" preserveAspectRatio="xMidYMid meet" version="1.0"><defs><clipPath id="44530eff7e"><path d="M 55.070312 62 L 132 62 L 132 126 L 55.070312 126 Z M 55.070312 62 " clip-rule="nonzero"/></clipPath><clipPath id="d89876af69"><path d="M 55.070312 61.0625 L 132.320312 61.0625 L 132.320312 126.3125 L 55.070312 126.3125 Z M 55.070312 61.0625 " clip-rule="nonzero"/></clipPath><clipPath id="51f718204f"><path d="M 55.070312 71 L 62 71 L 62 76 L 55.070312 76 Z M 55.070312 71 " clip-rule="nonzero"/></clipPath><clipPath id="298b6948a2"><path d="M 77 61.0625 L 79 61.0625 L 79 70 L 77 70 Z M 77 61.0625 " clip-rule="nonzero"/></clipPath></defs><g clip-path="url(#44530eff7e)"><path fill="#ffffff" d="M 55.71875 72.117188 C 55.71875 72.117188 59.644531 75.015625 60.417969 75.046875 C 61.1875 75.078125 61.933594 75.046875 61.933594 75.046875 C 61.933594 75.046875 65.964844 72.542969 67.820312 71.859375 C 69.671875 71.179688 73.601562 69.636719 75.246094 69.433594 C 76.886719 69.230469 78.546875 69.039062 78.546875 69.039062 L 78.546875 62.425781 C 78.546875 62.425781 83.03125 66.597656 84.296875 67.667969 C 85.566406 68.742188 90.828125 73.582031 94.925781 75.058594 C 99.019531 76.539062 109.566406 80.011719 114.140625 82.464844 C 118.714844 84.921875 128.316406 88.648438 130.261719 91.527344 C 132.207031 94.402344 131.582031 95.382812 131.5 99.949219 C 131.421875 104.648438 130.113281 106.792969 128.976562 109.296875 C 127.839844 111.800781 125.382812 116.261719 123.617188 117.984375 C 121.851562 119.707031 118.097656 122.785156 115.722656 123.53125 C 113.347656 124.277344 106.980469 125.964844 104.167969 125.941406 C 101.351562 125.921875 93.789062 125.523438 92.484375 125.195312 C 91.179688 124.863281 86.699219 123.101562 82.378906 120.042969 C 78.058594 116.984375 74.644531 112.988281 72.402344 110.457031 C 70.160156 107.921875 67.804688 104.242188 65.664062 100.183594 C 63.527344 96.128906 59.867188 87.332031 59.867188 87.332031 L 57.332031 79.769531 Z M 55.71875 72.117188 " fill-opacity="1" fill-rule="nonzero"/></g><path fill="#ffa400" d="M 79.484375 88.472656 C 78.980469 88.359375 78.46875 88.304688 77.953125 88.308594 C 75.707031 88.308594 76.777344 91.296875 78.40625 91.507812 C 79.195312 91.609375 80.363281 91.289062 80.699219 90.535156 C 81.171875 89.476562 80.472656 88.6875 79.484375 88.472656 Z M 79.484375 88.472656 " fill-opacity="1" fill-rule="nonzero"/><path fill="#ff7900" d="M 79.105469 87.597656 C 79.242188 87.171875 79.429688 86.746094 79.75 86.433594 C 79.992188 86.199219 80.332031 86.039062 80.664062 86.101562 C 81.050781 86.175781 81.324219 86.542969 81.425781 86.921875 C 81.527344 87.300781 81.496094 87.699219 81.492188 88.089844 C 81.480469 88.6875 81.554688 89.269531 81.710938 89.84375 C 81.742188 89.957031 81.964844 90.179688 82.082031 90.191406 C 82.023438 90.1875 81.804688 90.535156 81.734375 90.582031 C 81.566406 90.703125 81.265625 90.984375 81.078125 91.070312 C 80.699219 91.246094 80.09375 91.433594 79.675781 91.46875 C 79.472656 91.484375 79.042969 91.496094 78.875 91.414062 C 78.621094 91.292969 78.605469 90.957031 78.621094 90.722656 C 78.652344 90.226562 78.746094 89.726562 78.785156 89.234375 C 78.828125 88.675781 78.9375 88.128906 79.105469 87.597656 Z M 79.105469 87.597656 " fill-opacity="1" fill-rule="nonzero"/><path fill="#000000" d="M 79.515625 87.707031 C 79.546875 87.601562 79.585938 87.496094 79.625 87.390625 C 79.632812 87.375 79.640625 87.359375 79.644531 87.34375 C 79.648438 87.339844 79.609375 87.425781 79.628906 87.382812 C 79.640625 87.359375 79.648438 87.335938 79.660156 87.3125 C 79.6875 87.257812 79.710938 87.203125 79.742188 87.152344 C 79.796875 87.054688 79.855469 86.960938 79.921875 86.867188 C 79.945312 86.832031 79.890625 86.90625 79.894531 86.902344 C 79.902344 86.894531 79.910156 86.882812 79.917969 86.875 C 79.9375 86.851562 79.957031 86.828125 79.976562 86.804688 C 80.015625 86.765625 80.054688 86.726562 80.09375 86.691406 C 80.105469 86.679688 80.113281 86.671875 80.125 86.664062 C 80.175781 86.617188 80.105469 86.679688 80.097656 86.683594 C 80.121094 86.671875 80.140625 86.652344 80.160156 86.640625 C 80.210938 86.605469 80.265625 86.578125 80.316406 86.550781 C 80.382812 86.515625 80.238281 86.578125 80.308594 86.554688 C 80.335938 86.546875 80.359375 86.539062 80.382812 86.53125 C 80.410156 86.523438 80.4375 86.519531 80.46875 86.511719 C 80.511719 86.496094 80.410156 86.519531 80.417969 86.515625 C 80.433594 86.511719 80.449219 86.511719 80.464844 86.511719 C 80.492188 86.511719 80.515625 86.511719 80.539062 86.511719 C 80.554688 86.511719 80.566406 86.511719 80.578125 86.511719 C 80.632812 86.511719 80.484375 86.496094 80.539062 86.507812 C 80.550781 86.507812 80.679688 86.542969 80.679688 86.546875 C 80.679688 86.546875 80.59375 86.503906 80.628906 86.523438 C 80.640625 86.53125 80.65625 86.535156 80.667969 86.542969 C 80.6875 86.554688 80.707031 86.5625 80.722656 86.574219 C 80.738281 86.585938 80.800781 86.632812 80.742188 86.585938 C 80.683594 86.539062 80.765625 86.605469 80.777344 86.617188 C 80.808594 86.648438 80.839844 86.679688 80.867188 86.710938 C 80.925781 86.78125 80.824219 86.648438 80.863281 86.707031 C 80.878906 86.730469 80.894531 86.75 80.90625 86.773438 C 80.933594 86.8125 80.957031 86.855469 80.976562 86.902344 C 80.980469 86.910156 80.984375 86.921875 80.992188 86.933594 C 81.007812 86.972656 80.964844 86.882812 80.96875 86.882812 C 80.980469 86.886719 80.992188 86.945312 80.996094 86.957031 C 81.015625 87.011719 81.027344 87.0625 81.039062 87.117188 C 81.046875 87.148438 81.050781 87.175781 81.058594 87.203125 C 81.058594 87.21875 81.0625 87.234375 81.0625 87.246094 C 81.074219 87.304688 81.054688 87.140625 81.0625 87.238281 C 81.074219 87.363281 81.078125 87.492188 81.078125 87.621094 C 81.078125 87.875 81.066406 88.132812 81.074219 88.386719 C 81.085938 88.675781 81.109375 88.964844 81.152344 89.25 C 81.175781 89.394531 81.199219 89.542969 81.234375 89.6875 C 81.257812 89.832031 81.300781 89.972656 81.367188 90.105469 C 81.429688 90.214844 81.507812 90.308594 81.601562 90.386719 C 81.703125 90.476562 81.832031 90.574219 81.96875 90.601562 L 82.082031 89.773438 C 81.917969 89.78125 81.785156 89.847656 81.6875 89.980469 C 81.640625 90.035156 81.597656 90.089844 81.554688 90.148438 C 81.527344 90.183594 81.414062 90.320312 81.519531 90.191406 C 81.5 90.214844 81.476562 90.242188 81.457031 90.265625 C 81.421875 90.3125 81.570312 90.183594 81.5 90.234375 C 81.457031 90.269531 81.410156 90.304688 81.367188 90.335938 C 81.273438 90.410156 81.1875 90.484375 81.097656 90.554688 C 81.082031 90.566406 81.007812 90.625 81.066406 90.578125 C 81.128906 90.53125 81.054688 90.589844 81.039062 90.601562 C 80.996094 90.632812 80.949219 90.664062 80.902344 90.691406 C 80.859375 90.710938 80.8125 90.730469 80.769531 90.75 C 80.894531 90.691406 80.796875 90.738281 80.765625 90.75 C 80.734375 90.761719 80.703125 90.777344 80.667969 90.789062 C 80.425781 90.878906 80.171875 90.953125 79.917969 91.007812 C 79.855469 91.019531 79.796875 91.03125 79.734375 91.042969 C 79.660156 91.054688 79.839844 91.03125 79.75 91.039062 C 79.71875 91.042969 79.691406 91.046875 79.664062 91.046875 C 79.5625 91.054688 79.460938 91.058594 79.359375 91.058594 C 79.304688 91.058594 79.25 91.058594 79.199219 91.054688 C 79.171875 91.050781 79.144531 91.050781 79.113281 91.046875 C 79.023438 91.039062 79.222656 91.066406 79.121094 91.046875 C 79.101562 91.042969 79.078125 91.039062 79.054688 91.035156 C 79.035156 91.027344 78.96875 91 79.050781 91.035156 C 79.160156 91.082031 78.980469 90.980469 79.0625 91.042969 C 79.121094 91.085938 79.085938 91.0625 79.078125 91.050781 C 79.042969 91.011719 79.054688 91.003906 79.09375 91.078125 C 79.085938 91.0625 79.070312 91.042969 79.058594 91.023438 C 79.050781 91.007812 79.03125 90.964844 79.0625 91.03125 C 79.089844 91.097656 79.070312 91.054688 79.066406 91.035156 C 79.058594 91.015625 79.050781 90.992188 79.046875 90.96875 C 79.042969 90.957031 79.042969 90.945312 79.039062 90.933594 C 79.023438 90.859375 79.046875 91.019531 79.046875 90.976562 C 79.039062 90.867188 79.042969 90.757812 79.046875 90.648438 C 79.074219 90.328125 79.117188 90.011719 79.15625 89.695312 C 79.179688 89.523438 79.195312 89.347656 79.210938 89.175781 C 79.21875 89.089844 79.230469 89 79.238281 88.914062 C 79.242188 88.886719 79.238281 88.835938 79.234375 88.9375 C 79.238281 88.914062 79.242188 88.890625 79.246094 88.867188 C 79.253906 88.820312 79.257812 88.777344 79.265625 88.734375 C 79.324219 88.386719 79.40625 88.042969 79.515625 87.707031 C 79.542969 87.597656 79.53125 87.488281 79.472656 87.390625 C 79.414062 87.289062 79.332031 87.222656 79.21875 87.191406 C 79.105469 87.160156 79 87.175781 78.902344 87.234375 C 78.800781 87.289062 78.734375 87.375 78.699219 87.484375 C 78.601562 87.792969 78.523438 88.105469 78.46875 88.425781 C 78.40625 88.777344 78.378906 89.132812 78.339844 89.488281 C 78.300781 89.816406 78.253906 90.140625 78.21875 90.46875 C 78.191406 90.738281 78.167969 91.027344 78.261719 91.289062 C 78.371094 91.625 78.601562 91.820312 78.953125 91.871094 C 79.199219 91.90625 79.449219 91.910156 79.699219 91.890625 C 79.988281 91.859375 80.273438 91.804688 80.550781 91.714844 C 80.824219 91.644531 81.085938 91.542969 81.335938 91.414062 C 81.472656 91.328125 81.605469 91.230469 81.730469 91.125 C 81.78125 91.082031 81.832031 91.039062 81.882812 90.996094 C 81.910156 90.972656 81.933594 90.953125 81.964844 90.933594 C 81.964844 90.933594 81.871094 91.003906 81.921875 90.96875 C 81.929688 90.960938 81.941406 90.953125 81.949219 90.945312 C 82.0625 90.855469 82.164062 90.746094 82.246094 90.625 L 82.265625 90.59375 C 82.304688 90.542969 82.207031 90.671875 82.238281 90.632812 C 82.253906 90.613281 82.265625 90.59375 82.28125 90.574219 C 82.296875 90.558594 82.3125 90.542969 82.328125 90.527344 C 82.332031 90.523438 82.34375 90.515625 82.34375 90.511719 L 82.273438 90.566406 C 82.335938 90.527344 82.273438 90.546875 82.082031 90.617188 C 82.1875 90.617188 82.277344 90.578125 82.355469 90.511719 C 82.4375 90.441406 82.480469 90.351562 82.496094 90.25 C 82.523438 90.058594 82.402344 89.824219 82.195312 89.785156 C 82.171875 89.78125 82.117188 89.761719 82.195312 89.792969 C 82.269531 89.824219 82.214844 89.796875 82.195312 89.785156 C 82.183594 89.78125 82.175781 89.773438 82.164062 89.765625 C 82.128906 89.746094 82.222656 89.804688 82.214844 89.804688 C 82.199219 89.800781 82.164062 89.757812 82.15625 89.75 C 82.140625 89.738281 82.125 89.722656 82.113281 89.707031 C 82.105469 89.699219 82.097656 89.6875 82.089844 89.679688 C 82.089844 89.671875 82.144531 89.761719 82.125 89.726562 C 82.117188 89.714844 82.109375 89.699219 82.097656 89.6875 C 82.085938 89.671875 82.074219 89.628906 82.105469 89.707031 C 82.136719 89.78125 82.117188 89.738281 82.113281 89.71875 C 82.082031 89.582031 82.042969 89.453125 82.015625 89.316406 C 82.003906 89.253906 81.992188 89.191406 81.980469 89.128906 C 81.976562 89.097656 81.972656 89.070312 81.96875 89.039062 C 81.964844 89.015625 81.960938 88.957031 81.972656 89.0625 C 81.96875 89.042969 81.964844 89.023438 81.964844 89.003906 C 81.933594 88.734375 81.914062 88.464844 81.914062 88.195312 C 81.914062 87.925781 81.933594 87.652344 81.917969 87.382812 C 81.890625 86.855469 81.730469 86.292969 81.296875 85.957031 C 81.058594 85.757812 80.785156 85.660156 80.476562 85.667969 C 80.179688 85.683594 79.914062 85.777344 79.671875 85.953125 C 79.164062 86.332031 78.890625 86.894531 78.699219 87.484375 C 78.671875 87.597656 78.683594 87.703125 78.742188 87.804688 C 78.800781 87.90625 78.882812 87.972656 78.996094 88.003906 C 79.105469 88.03125 79.214844 88.015625 79.3125 87.960938 C 79.414062 87.902344 79.480469 87.820312 79.515625 87.707031 Z M 79.515625 87.707031 " fill-opacity="1" fill-rule="nonzero"/><path fill="#ffa400" d="M 76.847656 82.589844 C 77.335938 80.816406 78.679688 79.316406 80.363281 78.574219 C 82.046875 77.835938 84.035156 77.847656 85.734375 78.550781 C 86.46875 78.855469 87.203125 79.261719 87.660156 79.914062 C 88.941406 81.753906 85.5 83.738281 83.425781 84.503906 C 81.585938 85.183594 75.832031 86.269531 76.847656 82.589844 Z M 76.847656 82.589844 " fill-opacity="1" fill-rule="nonzero"/><path fill="#ffa400" d="M 76.480469 90.296875 C 76.222656 89.820312 75.546875 89.648438 75.066406 89.898438 C 74.585938 90.148438 74.335938 90.75 74.441406 91.28125 C 74.546875 91.8125 74.972656 92.25 75.480469 92.433594 C 76.027344 92.632812 76.695312 92.53125 77.085938 92.105469 C 77.480469 91.679688 77.496094 90.929688 77.058594 90.550781 C 76.8125 90.332031 76.472656 90.261719 76.167969 90.132812 " fill-opacity="1" fill-rule="nonzero"/><path fill="#ffffff" d="M 78.921875 81.933594 C 79.242188 81.671875 79.5625 81.414062 79.886719 81.15625 C 80.324219 80.816406 80.777344 80.476562 81.296875 80.28125 C 82.460938 79.839844 83.757812 80.179688 84.949219 80.527344 C 85.136719 80.582031 85.332031 80.640625 85.480469 80.765625 C 85.628906 80.890625 85.726562 81.101562 85.65625 81.285156 C 85.59375 81.453125 85.414062 81.546875 85.25 81.628906 C 84.011719 82.214844 82.765625 82.804688 81.445312 83.160156 C 80.488281 83.417969 79.5 83.546875 78.515625 83.679688 C 78.378906 83.695312 78.214844 83.707031 78.121094 83.605469 C 77.960938 83.429688 78.164062 83.164062 78.339844 83.003906 C 78.832031 82.5625 79.21875 82.042969 79.507812 81.445312 " fill-opacity="1" fill-rule="nonzero"/><path fill="#ff7900" d="M 62.757812 74.464844 C 62.453125 75.851562 63.417969 77.277344 64.679688 77.921875 C 65.945312 78.566406 67.429688 78.59375 68.84375 78.507812 C 70.046875 78.433594 71.265625 78.28125 72.375 77.8125 C 73.429688 77.367188 74.34375 76.652344 75.246094 75.945312 C 75.78125 75.523438 76.269531 75.050781 76.65625 74.492188 C 77.117188 73.820312 77.652344 72.785156 77.773438 72.167969 C 77.960938 71.226562 77.914062 70.273438 77.871094 69.351562 C 77.863281 69.125 77.097656 69.429688 76.945312 69.265625 C 76.710938 69.023438 76.3125 69.085938 75.984375 69.171875 C 72.695312 70.046875 69.523438 71.316406 66.363281 72.578125 C 64.664062 73.261719 62.929688 73.960938 61.546875 75.160156 " fill-opacity="1" fill-rule="nonzero"/><path fill="#ff7900" d="M 100.328125 77.042969 C 100.988281 77.738281 101.1875 78.753906 101.199219 79.714844 C 101.207031 80.675781 101.058594 81.636719 101.148438 82.589844 C 101.230469 83.347656 101.449219 84.0625 101.8125 84.730469 C 102.175781 85.402344 102.652344 85.976562 103.246094 86.457031 C 104.078125 87.121094 105.132812 87.550781 106.195312 87.488281 C 107.878906 87.386719 109.304688 86.042969 109.921875 84.472656 C 110.339844 83.40625 110.425781 82.140625 109.847656 81.148438 C 109.289062 80.195312 108.230469 79.664062 107.210938 79.238281 C 105.335938 78.449219 103.402344 77.832031 101.417969 77.386719 " fill-opacity="1" fill-rule="nonzero"/><path fill="#ff7900" d="M 116.984375 87.863281 C 117.429688 88.578125 118.140625 89.082031 118.867188 89.507812 C 119.382812 89.808594 119.925781 90.085938 120.515625 90.1875 C 121.105469 90.285156 121.753906 90.179688 122.207031 89.792969 C 122.660156 89.402344 123.894531 87.472656 123.597656 86.953125 C 123.484375 86.746094 122.875 86.753906 122.703125 86.597656 C 121.953125 85.925781 121.113281 85.90625 120.269531 85.363281 C 119.554688 84.90625 118.707031 84.648438 117.941406 84.292969 C 117.480469 84.078125 116.613281 83.542969 116.128906 83.453125 C 115.742188 84.332031 116.570312 87.035156 116.984375 87.863281 Z M 116.984375 87.863281 " fill-opacity="1" fill-rule="nonzero"/><g clip-path="url(#d89876af69)"><path fill="#000000" d="M 55.199219 72.230469 C 56.03125 75.78125 56.507812 79.40625 57.699219 82.863281 C 58.726562 85.835938 59.839844 88.78125 61.046875 91.691406 C 63.257812 97.042969 66.070312 102.152344 69.28125 106.972656 C 70.992188 109.542969 72.921875 111.9375 75.070312 114.15625 C 77.355469 116.507812 79.800781 118.675781 82.410156 120.664062 C 84.75 122.449219 87.304688 123.96875 90.089844 124.957031 C 93.308594 126.097656 96.726562 126.316406 100.121094 126.296875 C 103.464844 126.28125 106.785156 125.988281 110.082031 125.410156 C 111.597656 125.144531 113.109375 124.808594 114.558594 124.28125 C 116.105469 123.707031 117.582031 122.980469 118.980469 122.109375 C 120.964844 120.882812 122.90625 119.445312 124.375 117.617188 C 126.15625 115.410156 127.652344 112.9375 128.914062 110.398438 C 129.515625 109.179688 130.03125 107.921875 130.460938 106.628906 C 131.035156 104.925781 131.550781 103.199219 131.867188 101.425781 C 132.1875 99.644531 132.3125 97.820312 132.09375 96.015625 C 131.984375 95.070312 131.78125 94.144531 131.488281 93.234375 C 131.28125 92.601562 131.058594 91.949219 130.683594 91.394531 C 130.0625 90.484375 129.183594 89.773438 128.289062 89.144531 C 127.085938 88.300781 125.789062 87.59375 124.484375 86.925781 C 121.234375 85.265625 117.867188 83.832031 114.574219 82.253906 C 111.292969 80.683594 107.984375 79.210938 104.570312 77.953125 C 103.191406 77.445312 101.800781 76.964844 100.410156 76.496094 C 99.148438 76.070312 97.871094 75.679688 96.628906 75.199219 C 93.410156 73.949219 90.414062 72.113281 87.539062 70.21875 C 86.246094 69.382812 85.0625 68.414062 83.984375 67.3125 C 82.984375 66.277344 82.058594 65.175781 81.050781 64.144531 C 80.222656 63.296875 79.304688 62.472656 78.617188 61.503906 C 78.304688 61.066406 77.574219 61.488281 77.890625 61.929688 C 78.589844 62.917969 79.5 63.765625 80.34375 64.625 C 81.34375 65.648438 82.269531 66.734375 83.253906 67.769531 C 85.382812 70.007812 88.054688 71.625 90.699219 73.183594 C 92.226562 74.078125 93.792969 74.914062 95.421875 75.609375 C 96.726562 76.167969 98.074219 76.601562 99.421875 77.054688 C 102.292969 78.011719 105.152344 79.019531 107.953125 80.171875 C 111.429688 81.597656 114.78125 83.304688 118.195312 84.871094 C 121.171875 86.242188 124.226562 87.554688 127.007812 89.304688 C 127.984375 89.921875 128.957031 90.601562 129.703125 91.492188 C 130.019531 91.878906 130.261719 92.304688 130.429688 92.773438 C 130.773438 93.660156 131.019531 94.574219 131.175781 95.515625 C 131.765625 99.078125 130.882812 102.671875 129.765625 106.039062 C 129.335938 107.339844 128.859375 108.605469 128.25 109.835938 C 127.609375 111.140625 126.894531 112.414062 126.125 113.648438 C 124.878906 115.65625 123.523438 117.609375 121.695312 119.128906 C 119.460938 120.988281 116.898438 122.554688 114.152344 123.53125 C 111.242188 124.566406 108.066406 124.960938 105.003906 125.226562 C 101.691406 125.507812 98.332031 125.570312 95.023438 125.226562 C 91.761719 124.882812 88.660156 123.695312 85.863281 122.011719 C 83.441406 120.550781 81.234375 118.738281 79.125 116.867188 C 76.621094 114.644531 74.207031 112.238281 72.164062 109.582031 C 70.375 107.257812 68.804688 104.761719 67.3125 102.238281 C 65.914062 99.871094 64.585938 97.453125 63.398438 94.972656 C 62.027344 92.105469 60.882812 89.125 59.777344 86.152344 C 59.316406 84.914062 58.867188 83.675781 58.4375 82.425781 C 57.871094 80.765625 57.464844 79.066406 57.113281 77.347656 C 56.746094 75.566406 56.425781 73.777344 56.011719 72.007812 C 55.886719 71.476562 55.074219 71.703125 55.199219 72.230469 Z M 55.199219 72.230469 " fill-opacity="1" fill-rule="nonzero"/></g><g clip-path="url(#51f718204f)"><path fill="#000000" d="M 55.394531 72.480469 C 56.144531 73.019531 56.910156 73.542969 57.703125 74.015625 C 58.394531 74.421875 59.105469 74.789062 59.835938 75.113281 C 60.320312 75.332031 60.8125 75.53125 61.304688 75.726562 C 61.421875 75.757812 61.527344 75.746094 61.632812 75.683594 C 61.730469 75.625 61.796875 75.539062 61.828125 75.425781 C 61.855469 75.316406 61.839844 75.207031 61.78125 75.109375 C 61.722656 75.015625 61.636719 74.949219 61.53125 74.914062 C 61.316406 74.832031 61.105469 74.746094 60.894531 74.65625 C 60.84375 74.636719 60.792969 74.617188 60.742188 74.59375 C 60.726562 74.589844 60.648438 74.554688 60.710938 74.582031 C 60.777344 74.609375 60.6875 74.570312 60.671875 74.566406 C 60.570312 74.523438 60.472656 74.480469 60.371094 74.433594 C 60.003906 74.273438 59.640625 74.101562 59.285156 73.921875 C 58.558594 73.550781 57.855469 73.136719 57.171875 72.6875 C 56.714844 72.386719 56.265625 72.070312 55.820312 71.753906 C 55.714844 71.695312 55.609375 71.679688 55.492188 71.710938 C 55.382812 71.742188 55.300781 71.808594 55.242188 71.90625 C 55.125 72.121094 55.199219 72.34375 55.394531 72.480469 Z M 55.394531 72.480469 " fill-opacity="1" fill-rule="nonzero"/></g><path fill="#000000" d="M 61.632812 75.683594 C 62.578125 75.027344 63.5625 74.417969 64.570312 73.855469 C 65.625 73.265625 66.707031 72.722656 67.816406 72.230469 C 67.957031 72.167969 68.097656 72.105469 68.242188 72.042969 C 68.308594 72.015625 68.375 71.984375 68.441406 71.957031 C 68.464844 71.949219 68.582031 71.894531 68.472656 71.945312 C 68.515625 71.925781 68.554688 71.910156 68.59375 71.894531 C 68.875 71.773438 69.160156 71.660156 69.445312 71.550781 C 70.019531 71.324219 70.601562 71.113281 71.191406 70.917969 C 72.335938 70.53125 73.503906 70.210938 74.683594 69.953125 C 75.257812 69.832031 75.832031 69.726562 76.410156 69.640625 C 76.480469 69.628906 76.546875 69.621094 76.613281 69.609375 L 76.667969 69.601562 C 76.742188 69.59375 76.644531 69.605469 76.636719 69.605469 C 76.675781 69.601562 76.714844 69.597656 76.757812 69.589844 C 76.898438 69.574219 77.042969 69.554688 77.183594 69.539062 C 77.460938 69.511719 77.738281 69.484375 78.019531 69.464844 C 78.15625 69.453125 78.296875 69.445312 78.4375 69.4375 C 78.65625 69.429688 78.871094 69.253906 78.859375 69.019531 C 78.847656 68.800781 78.671875 68.582031 78.4375 68.597656 C 77.253906 68.660156 76.085938 68.8125 74.925781 69.042969 C 73.734375 69.28125 72.5625 69.585938 71.40625 69.960938 C 70.199219 70.347656 69.019531 70.796875 67.855469 71.296875 C 66.730469 71.78125 65.628906 72.316406 64.550781 72.902344 C 63.523438 73.460938 62.519531 74.066406 61.550781 74.71875 C 61.4375 74.796875 61.320312 74.875 61.207031 74.957031 C 61.023438 75.082031 60.925781 75.332031 61.054688 75.535156 C 61.171875 75.714844 61.4375 75.820312 61.632812 75.683594 Z M 61.632812 75.683594 " fill-opacity="1" fill-rule="nonzero"/><g clip-path="url(#298b6948a2)"><path fill="#000000" d="M 78.859375 69.019531 C 78.753906 67.125 78.695312 65.230469 78.679688 63.332031 C 78.675781 62.792969 78.671875 62.253906 78.675781 61.714844 C 78.675781 61.496094 78.480469 61.285156 78.253906 61.292969 C 78.136719 61.296875 78.039062 61.339844 77.957031 61.421875 C 77.875 61.503906 77.835938 61.601562 77.832031 61.714844 C 77.824219 63.613281 77.859375 65.507812 77.9375 67.402344 C 77.960938 67.941406 77.984375 68.480469 78.015625 69.015625 C 78.027344 69.238281 78.199219 69.449219 78.4375 69.4375 C 78.65625 69.429688 78.871094 69.253906 78.859375 69.015625 Z M 78.859375 69.019531 " fill-opacity="1" fill-rule="nonzero"/></g><path fill="#000000" d="M 78.53125 83.605469 C 78.789062 83.105469 79.082031 82.632812 79.414062 82.175781 C 79.4375 82.148438 79.457031 82.121094 79.480469 82.089844 C 79.5 82.066406 79.542969 82.023438 79.464844 82.109375 C 79.476562 82.097656 79.484375 82.085938 79.496094 82.070312 C 79.539062 82.015625 79.585938 81.960938 79.632812 81.90625 C 79.726562 81.792969 79.824219 81.683594 79.925781 81.578125 C 80.023438 81.472656 80.128906 81.375 80.238281 81.277344 C 80.285156 81.234375 80.335938 81.195312 80.386719 81.152344 C 80.402344 81.140625 80.414062 81.128906 80.429688 81.117188 C 80.425781 81.121094 80.34375 81.183594 80.398438 81.140625 C 80.429688 81.121094 80.460938 81.097656 80.488281 81.074219 C 80.597656 81 80.710938 80.929688 80.828125 80.863281 C 80.882812 80.832031 80.941406 80.804688 81 80.777344 C 81.011719 80.769531 81.027344 80.765625 81.039062 80.757812 C 81.113281 80.726562 80.957031 80.792969 81.007812 80.773438 C 81.039062 80.757812 81.074219 80.746094 81.105469 80.734375 C 81.269531 80.675781 81.433594 80.628906 81.605469 80.597656 C 81.640625 80.589844 81.679688 80.582031 81.71875 80.574219 C 81.738281 80.574219 81.757812 80.570312 81.777344 80.566406 C 81.785156 80.566406 81.878906 80.550781 81.804688 80.5625 C 81.730469 80.574219 81.824219 80.558594 81.835938 80.558594 C 81.855469 80.554688 81.871094 80.554688 81.890625 80.550781 C 81.9375 80.546875 81.988281 80.542969 82.035156 80.539062 C 82.207031 80.53125 82.378906 80.527344 82.550781 80.535156 C 82.636719 80.539062 82.722656 80.546875 82.8125 80.554688 C 82.847656 80.554688 82.886719 80.558594 82.925781 80.5625 C 82.949219 80.566406 82.976562 80.570312 83 80.574219 C 83.011719 80.574219 83.113281 80.589844 83.042969 80.578125 C 82.980469 80.566406 83.042969 80.578125 83.058594 80.582031 C 83.085938 80.585938 83.109375 80.585938 83.132812 80.589844 C 83.171875 80.597656 83.210938 80.605469 83.25 80.609375 C 83.339844 80.625 83.433594 80.644531 83.527344 80.660156 C 83.707031 80.699219 83.886719 80.738281 84.066406 80.785156 C 84.402344 80.867188 84.738281 80.953125 85.0625 81.0625 C 85.132812 81.089844 85.203125 81.117188 85.273438 81.144531 C 85.300781 81.152344 85.34375 81.175781 85.238281 81.128906 C 85.257812 81.136719 85.277344 81.144531 85.300781 81.15625 C 85.332031 81.171875 85.367188 81.1875 85.398438 81.203125 C 85.460938 81.234375 85.523438 81.269531 85.582031 81.308594 C 85.597656 81.316406 85.609375 81.328125 85.625 81.335938 C 85.660156 81.359375 85.535156 81.261719 85.597656 81.316406 C 85.621094 81.339844 85.644531 81.359375 85.667969 81.382812 C 85.75 81.464844 85.851562 81.507812 85.964844 81.507812 C 86.082031 81.507812 86.183594 81.464844 86.265625 81.382812 C 86.34375 81.300781 86.386719 81.203125 86.386719 81.085938 C 86.386719 80.96875 86.34375 80.871094 86.265625 80.789062 C 86.042969 80.554688 85.730469 80.417969 85.433594 80.304688 C 85.15625 80.203125 84.875 80.117188 84.585938 80.046875 C 83.84375 79.851562 83.078125 79.683594 82.308594 79.6875 C 81.601562 79.691406 80.878906 79.839844 80.269531 80.210938 C 79.742188 80.53125 79.296875 80.976562 78.914062 81.457031 C 78.488281 81.996094 78.117188 82.570312 77.800781 83.179688 C 77.699219 83.375 77.746094 83.648438 77.953125 83.757812 C 78.148438 83.859375 78.421875 83.8125 78.53125 83.605469 Z M 78.53125 83.605469 " fill-opacity="1" fill-rule="nonzero"/><path fill="#000000" d="M 63.757812 88.3125 C 63.746094 88.253906 63.765625 88.457031 63.769531 88.386719 C 63.769531 88.375 63.765625 88.363281 63.769531 88.351562 C 63.769531 88.339844 63.769531 88.324219 63.769531 88.3125 C 63.769531 88.269531 63.753906 88.414062 63.757812 88.402344 C 63.761719 88.390625 63.761719 88.378906 63.761719 88.371094 C 63.777344 88.300781 63.796875 88.230469 63.820312 88.164062 C 63.828125 88.148438 63.835938 88.128906 63.839844 88.109375 C 63.847656 88.097656 63.851562 88.089844 63.855469 88.078125 C 63.875 88.027344 63.820312 88.15625 63.824219 88.144531 C 63.847656 88.101562 63.867188 88.054688 63.886719 88.011719 C 63.933594 87.914062 63.988281 87.820312 64.042969 87.726562 C 64.101562 87.628906 64.164062 87.53125 64.230469 87.4375 C 64.265625 87.386719 64.304688 87.335938 64.339844 87.285156 C 64.351562 87.273438 64.363281 87.257812 64.371094 87.246094 C 64.289062 87.351562 64.324219 87.308594 64.34375 87.28125 C 64.367188 87.253906 64.390625 87.222656 64.417969 87.191406 C 64.597656 86.972656 64.792969 86.769531 65 86.578125 C 65.054688 86.527344 65.109375 86.480469 65.167969 86.433594 C 65.191406 86.414062 65.21875 86.394531 65.242188 86.371094 C 65.257812 86.359375 65.277344 86.347656 65.292969 86.335938 C 65.183594 86.421875 65.253906 86.363281 65.277344 86.34375 C 65.398438 86.253906 65.527344 86.167969 65.65625 86.085938 C 65.792969 86.003906 65.929688 85.929688 66.074219 85.863281 C 66.105469 85.847656 66.136719 85.832031 66.167969 85.820312 C 66.195312 85.808594 66.273438 85.78125 66.144531 85.828125 C 66.15625 85.824219 66.171875 85.820312 66.183594 85.8125 C 66.261719 85.78125 66.339844 85.753906 66.421875 85.726562 C 66.570312 85.679688 66.726562 85.640625 66.882812 85.613281 C 66.949219 85.601562 66.828125 85.621094 66.832031 85.617188 C 66.847656 85.613281 66.867188 85.613281 66.886719 85.613281 C 66.929688 85.609375 66.96875 85.605469 67.007812 85.605469 C 67.082031 85.601562 67.15625 85.605469 67.234375 85.609375 C 67.273438 85.613281 67.316406 85.617188 67.359375 85.621094 C 67.375 85.625 67.386719 85.625 67.402344 85.625 C 67.261719 85.613281 67.34375 85.617188 67.375 85.625 C 67.464844 85.636719 67.550781 85.65625 67.636719 85.675781 C 67.804688 85.714844 67.96875 85.761719 68.132812 85.816406 C 68.230469 85.851562 68.328125 85.886719 68.429688 85.925781 C 68.472656 85.945312 68.519531 85.964844 68.5625 85.980469 C 68.445312 85.941406 68.527344 85.96875 68.554688 85.976562 C 68.585938 85.992188 68.613281 86.003906 68.644531 86.019531 C 68.832031 86.101562 69.019531 86.191406 69.203125 86.285156 C 69.554688 86.464844 69.894531 86.660156 70.234375 86.863281 C 70.335938 86.921875 70.441406 86.933594 70.554688 86.90625 C 70.667969 86.875 70.753906 86.8125 70.8125 86.710938 C 70.871094 86.609375 70.882812 86.503906 70.855469 86.390625 C 70.824219 86.277344 70.761719 86.191406 70.660156 86.132812 C 69.992188 85.738281 69.308594 85.363281 68.582031 85.085938 C 68.246094 84.953125 67.894531 84.855469 67.535156 84.800781 C 67.34375 84.769531 67.152344 84.757812 66.957031 84.765625 C 66.769531 84.773438 66.582031 84.804688 66.398438 84.855469 C 65.710938 85.035156 65.09375 85.398438 64.554688 85.851562 C 64.09375 86.238281 63.703125 86.683594 63.382812 87.191406 C 63.238281 87.417969 63.117188 87.65625 63.019531 87.90625 C 62.933594 88.109375 62.910156 88.320312 62.945312 88.539062 C 62.984375 88.753906 63.257812 88.898438 63.460938 88.832031 C 63.695312 88.757812 63.800781 88.546875 63.757812 88.3125 Z M 63.757812 88.3125 " fill-opacity="1" fill-rule="nonzero"/><path fill="#000000" d="M 63.375 89.03125 C 65.402344 88.910156 67.339844 88.4375 69.191406 87.605469 C 69.695312 87.382812 70.183594 87.132812 70.660156 86.863281 C 70.761719 86.804688 70.824219 86.71875 70.855469 86.605469 C 70.882812 86.492188 70.871094 86.386719 70.8125 86.285156 C 70.753906 86.183594 70.667969 86.117188 70.554688 86.089844 C 70.441406 86.058594 70.335938 86.074219 70.234375 86.132812 C 69.820312 86.371094 69.394531 86.589844 68.957031 86.789062 C 68.847656 86.839844 68.738281 86.890625 68.625 86.9375 C 68.601562 86.949219 68.574219 86.960938 68.550781 86.972656 C 68.539062 86.976562 68.523438 86.980469 68.511719 86.988281 C 68.609375 86.945312 68.558594 86.96875 68.535156 86.976562 C 68.480469 87 68.421875 87.023438 68.367188 87.046875 C 68.144531 87.136719 67.917969 87.222656 67.691406 87.304688 C 66.785156 87.625 65.859375 87.859375 64.910156 88.015625 C 64.777344 88.039062 64.644531 88.058594 64.511719 88.078125 L 64.472656 88.082031 C 64.414062 88.089844 64.558594 88.074219 64.5 88.078125 C 64.464844 88.085938 64.425781 88.089844 64.390625 88.09375 C 64.324219 88.101562 64.261719 88.109375 64.195312 88.117188 C 63.921875 88.148438 63.648438 88.171875 63.375 88.1875 C 63.15625 88.199219 62.945312 88.371094 62.953125 88.609375 C 62.964844 88.824219 63.140625 89.042969 63.375 89.03125 Z M 63.375 89.03125 " fill-opacity="1" fill-rule="nonzero"/><path fill="#000000" d="M 78.164062 84.082031 C 80.390625 83.917969 82.519531 83.378906 84.550781 82.464844 C 85.105469 82.214844 85.648438 81.941406 86.179688 81.636719 C 86.28125 81.578125 86.34375 81.492188 86.375 81.378906 C 86.402344 81.269531 86.390625 81.160156 86.332031 81.0625 C 86.269531 80.960938 86.1875 80.894531 86.074219 80.867188 C 85.960938 80.835938 85.855469 80.851562 85.753906 80.910156 C 85.292969 81.171875 84.820312 81.414062 84.339844 81.636719 C 84.21875 81.695312 84.097656 81.75 83.972656 81.804688 C 83.941406 81.816406 83.914062 81.828125 83.882812 81.839844 C 83.867188 81.847656 83.765625 81.890625 83.832031 81.863281 C 83.894531 81.835938 83.789062 81.878906 83.777344 81.886719 C 83.742188 81.898438 83.710938 81.914062 83.675781 81.929688 C 83.429688 82.027344 83.183594 82.125 82.933594 82.210938 C 81.933594 82.570312 80.910156 82.84375 79.863281 83.027344 C 79.71875 83.054688 79.570312 83.078125 79.425781 83.097656 C 79.351562 83.109375 79.277344 83.121094 79.203125 83.132812 C 79.191406 83.132812 79.175781 83.132812 79.164062 83.136719 C 79.277344 83.117188 79.203125 83.132812 79.175781 83.132812 C 79.140625 83.140625 79.105469 83.144531 79.066406 83.148438 C 78.765625 83.1875 78.464844 83.214844 78.164062 83.238281 C 77.945312 83.253906 77.734375 83.421875 77.742188 83.660156 C 77.753906 83.875 77.929688 84.097656 78.164062 84.082031 Z M 78.164062 84.082031 " fill-opacity="1" fill-rule="nonzero"/><path fill="#000000" d="M 73.246094 87.421875 C 73.382812 87.78125 73.617188 88.054688 73.949219 88.242188 C 74.257812 88.417969 74.589844 88.5 74.945312 88.488281 C 75.707031 88.464844 76.359375 87.980469 76.703125 87.316406 C 76.902344 86.921875 77.015625 86.503906 77.035156 86.0625 C 77.03125 85.945312 76.992188 85.84375 76.910156 85.761719 C 76.828125 85.679688 76.726562 85.640625 76.613281 85.640625 C 76.496094 85.640625 76.398438 85.683594 76.316406 85.765625 C 76.234375 85.847656 76.191406 85.945312 76.191406 86.0625 C 76.1875 86.097656 76.1875 86.136719 76.183594 86.175781 C 76.179688 86.210938 76.152344 86.339844 76.179688 86.199219 C 76.164062 86.273438 76.15625 86.347656 76.140625 86.421875 C 76.121094 86.492188 76.101562 86.5625 76.082031 86.632812 C 76.070312 86.664062 76.058594 86.695312 76.046875 86.730469 C 76.039062 86.75 76.03125 86.773438 76.023438 86.792969 C 75.992188 86.863281 76.0625 86.703125 76.027344 86.777344 C 75.964844 86.910156 75.894531 87.039062 75.808594 87.15625 C 75.796875 87.171875 75.785156 87.1875 75.777344 87.203125 C 75.839844 87.109375 75.816406 87.148438 75.800781 87.171875 C 75.777344 87.199219 75.753906 87.226562 75.726562 87.253906 C 75.675781 87.308594 75.625 87.359375 75.566406 87.410156 C 75.542969 87.429688 75.476562 87.46875 75.582031 87.398438 C 75.570312 87.40625 75.558594 87.417969 75.546875 87.425781 C 75.515625 87.445312 75.484375 87.46875 75.453125 87.488281 C 75.394531 87.523438 75.328125 87.554688 75.265625 87.585938 C 75.394531 87.519531 75.292969 87.574219 75.257812 87.585938 C 75.230469 87.597656 75.199219 87.605469 75.171875 87.613281 C 75.144531 87.621094 75.117188 87.625 75.085938 87.632812 C 75.066406 87.636719 75.046875 87.640625 75.027344 87.644531 C 74.957031 87.65625 75.140625 87.632812 75.0625 87.636719 C 75.003906 87.644531 74.945312 87.648438 74.886719 87.648438 C 74.855469 87.648438 74.820312 87.644531 74.789062 87.644531 C 74.777344 87.640625 74.761719 87.640625 74.75 87.640625 C 74.652344 87.628906 74.808594 87.652344 74.773438 87.644531 C 74.714844 87.632812 74.652344 87.621094 74.59375 87.605469 C 74.5625 87.597656 74.53125 87.585938 74.5 87.574219 C 74.488281 87.570312 74.476562 87.566406 74.464844 87.5625 C 74.386719 87.535156 74.472656 87.578125 74.492188 87.574219 C 74.46875 87.578125 74.410156 87.535156 74.390625 87.523438 C 74.363281 87.507812 74.335938 87.492188 74.308594 87.476562 C 74.273438 87.453125 74.183594 87.367188 74.285156 87.464844 C 74.265625 87.441406 74.238281 87.425781 74.214844 87.402344 C 74.1875 87.375 74.164062 87.347656 74.136719 87.320312 C 74.128906 87.3125 74.121094 87.300781 74.113281 87.292969 C 74.203125 87.386719 74.152344 87.339844 74.128906 87.308594 C 74.109375 87.28125 74.089844 87.25 74.074219 87.21875 C 74.070312 87.210938 74.0625 87.199219 74.058594 87.1875 C 74.007812 87.089844 74.085938 87.265625 74.058594 87.199219 C 74.027344 87.089844 73.960938 87.007812 73.867188 86.945312 C 73.765625 86.886719 73.65625 86.875 73.542969 86.902344 C 73.34375 86.96875 73.160156 87.203125 73.246094 87.421875 Z M 73.246094 87.421875 " fill-opacity="1" fill-rule="nonzero"/><path fill="#000000" d="M 75.125 88.589844 C 75.1875 89.058594 75.4375 89.472656 75.726562 89.835938 C 76.015625 90.203125 76.375 90.503906 76.746094 90.785156 C 76.9375 90.9375 77.140625 91.078125 77.339844 91.214844 C 77.523438 91.34375 77.816406 91.257812 77.917969 91.066406 C 77.972656 90.964844 77.988281 90.859375 77.957031 90.746094 C 77.929688 90.636719 77.863281 90.546875 77.765625 90.488281 C 77.597656 90.371094 77.429688 90.253906 77.265625 90.128906 C 77.246094 90.117188 77.226562 90.101562 77.207031 90.085938 C 77.136719 90.03125 77.265625 90.132812 77.207031 90.085938 C 77.167969 90.054688 77.125 90.023438 77.085938 89.988281 C 77.003906 89.921875 76.917969 89.851562 76.839844 89.777344 C 76.679688 89.636719 76.53125 89.488281 76.394531 89.328125 C 76.363281 89.289062 76.332031 89.25 76.300781 89.210938 C 76.296875 89.207031 76.359375 89.289062 76.332031 89.25 C 76.324219 89.242188 76.316406 89.234375 76.3125 89.222656 C 76.296875 89.203125 76.28125 89.179688 76.265625 89.160156 C 76.207031 89.078125 76.152344 88.988281 76.105469 88.902344 C 76.082031 88.851562 76.058594 88.804688 76.035156 88.753906 C 76.015625 88.714844 76.054688 88.804688 76.054688 88.804688 C 76.054688 88.800781 76.039062 88.765625 76.039062 88.761719 C 76.03125 88.738281 76.023438 88.714844 76.015625 88.691406 C 75.976562 88.585938 75.953125 88.476562 75.9375 88.367188 C 75.90625 88.253906 75.84375 88.171875 75.742188 88.113281 C 75.644531 88.054688 75.535156 88.039062 75.421875 88.070312 C 75.3125 88.097656 75.226562 88.164062 75.167969 88.265625 C 75.113281 88.367188 75.101562 88.476562 75.125 88.589844 Z M 75.125 88.589844 " fill-opacity="1" fill-rule="nonzero"/><path fill="#000000" d="M 74.789062 92.433594 C 75.304688 92.855469 75.941406 93.066406 76.609375 92.96875 C 77.203125 92.882812 77.703125 92.457031 77.933594 91.910156 C 78.074219 91.585938 78.097656 91.253906 78.003906 90.910156 C 77.945312 90.699219 77.703125 90.546875 77.484375 90.617188 C 77.375 90.648438 77.289062 90.714844 77.234375 90.816406 C 77.175781 90.917969 77.160156 91.023438 77.191406 91.136719 C 77.199219 91.160156 77.203125 91.183594 77.210938 91.207031 C 77.210938 91.222656 77.214844 91.238281 77.21875 91.25 C 77.226562 91.296875 77.207031 91.183594 77.210938 91.191406 C 77.222656 91.242188 77.222656 91.296875 77.214844 91.347656 C 77.214844 91.371094 77.210938 91.398438 77.210938 91.421875 C 77.214844 91.289062 77.21875 91.367188 77.210938 91.402344 C 77.203125 91.457031 77.1875 91.507812 77.171875 91.554688 C 77.160156 91.589844 77.117188 91.679688 77.175781 91.554688 C 77.167969 91.574219 77.160156 91.59375 77.148438 91.613281 C 77.125 91.664062 77.09375 91.714844 77.0625 91.761719 C 77.050781 91.785156 77.035156 91.804688 77.019531 91.824219 C 76.992188 91.859375 77.054688 91.773438 77.054688 91.78125 C 77.042969 91.792969 77.035156 91.804688 77.023438 91.816406 C 76.988281 91.855469 76.953125 91.894531 76.910156 91.929688 C 76.894531 91.949219 76.875 91.964844 76.855469 91.980469 C 76.800781 92.027344 76.941406 91.917969 76.863281 91.972656 C 76.820312 92.003906 76.773438 92.035156 76.722656 92.058594 C 76.703125 92.070312 76.679688 92.082031 76.65625 92.09375 C 76.609375 92.113281 76.746094 92.058594 76.699219 92.074219 C 76.6875 92.078125 76.675781 92.082031 76.664062 92.085938 C 76.609375 92.105469 76.550781 92.125 76.492188 92.136719 C 76.464844 92.144531 76.433594 92.144531 76.40625 92.152344 C 76.53125 92.121094 76.449219 92.148438 76.410156 92.152344 C 76.351562 92.15625 76.292969 92.15625 76.230469 92.15625 C 76.199219 92.15625 76.167969 92.152344 76.132812 92.148438 C 76.121094 92.148438 76.109375 92.148438 76.097656 92.144531 C 76.050781 92.144531 76.15625 92.152344 76.148438 92.152344 C 76.085938 92.148438 76.019531 92.136719 75.960938 92.117188 C 75.894531 92.097656 75.832031 92.078125 75.773438 92.058594 C 75.757812 92.050781 75.742188 92.046875 75.726562 92.039062 C 75.671875 92.019531 75.746094 92.042969 75.757812 92.054688 C 75.730469 92.035156 75.699219 92.023438 75.671875 92.011719 C 75.609375 91.980469 75.546875 91.945312 75.488281 91.90625 C 75.460938 91.890625 75.433594 91.871094 75.40625 91.851562 C 75.398438 91.84375 75.386719 91.839844 75.378906 91.832031 C 75.304688 91.777344 75.453125 91.894531 75.386719 91.835938 C 75.300781 91.757812 75.203125 91.714844 75.085938 91.714844 C 74.972656 91.714844 74.871094 91.753906 74.789062 91.835938 C 74.648438 91.992188 74.605469 92.285156 74.789062 92.433594 Z M 74.789062 92.433594 " fill-opacity="1" fill-rule="nonzero"/><path fill="#000000" d="M 77.339844 91.214844 C 78.199219 91.839844 79.339844 92.03125 80.367188 91.792969 C 81.363281 91.566406 82.222656 90.878906 82.71875 89.988281 C 83.003906 89.472656 83.160156 88.921875 83.1875 88.332031 C 83.183594 88.214844 83.144531 88.117188 83.0625 88.035156 C 82.980469 87.953125 82.878906 87.910156 82.765625 87.910156 C 82.648438 87.914062 82.550781 87.953125 82.46875 88.035156 C 82.386719 88.117188 82.34375 88.214844 82.34375 88.332031 C 82.339844 88.386719 82.335938 88.4375 82.332031 88.492188 C 82.328125 88.519531 82.328125 88.546875 82.324219 88.570312 C 82.3125 88.667969 82.339844 88.476562 82.324219 88.574219 C 82.308594 88.679688 82.285156 88.785156 82.257812 88.886719 C 82.230469 88.996094 82.195312 89.101562 82.15625 89.207031 C 82.148438 89.226562 82.140625 89.25 82.132812 89.269531 C 82.128906 89.285156 82.121094 89.300781 82.117188 89.3125 C 82.113281 89.316406 82.15625 89.222656 82.136719 89.265625 C 82.113281 89.316406 82.089844 89.371094 82.0625 89.421875 C 81.964844 89.617188 81.851562 89.804688 81.71875 89.976562 C 81.691406 90.015625 81.753906 89.933594 81.75 89.9375 C 81.738281 89.949219 81.730469 89.960938 81.722656 89.972656 C 81.707031 89.992188 81.691406 90.011719 81.675781 90.027344 C 81.640625 90.070312 81.601562 90.113281 81.5625 90.15625 C 81.488281 90.238281 81.40625 90.316406 81.324219 90.386719 C 81.285156 90.421875 81.242188 90.457031 81.199219 90.492188 C 81.144531 90.539062 81.273438 90.4375 81.214844 90.480469 C 81.1875 90.5 81.164062 90.519531 81.140625 90.535156 C 81.046875 90.597656 80.953125 90.660156 80.855469 90.710938 C 80.8125 90.738281 80.769531 90.761719 80.722656 90.78125 C 80.699219 90.792969 80.675781 90.804688 80.648438 90.816406 C 80.632812 90.824219 80.621094 90.832031 80.605469 90.839844 C 80.554688 90.859375 80.6875 90.804688 80.636719 90.824219 C 80.53125 90.867188 80.417969 90.90625 80.308594 90.9375 C 80.199219 90.96875 80.089844 90.996094 79.976562 91.015625 C 79.949219 91.019531 79.921875 91.023438 79.894531 91.027344 C 79.800781 91.042969 79.972656 91.019531 79.898438 91.027344 C 79.835938 91.035156 79.777344 91.039062 79.714844 91.042969 C 79.601562 91.050781 79.488281 91.054688 79.375 91.046875 C 79.320312 91.046875 79.261719 91.042969 79.207031 91.039062 C 79.179688 91.035156 79.148438 91.03125 79.121094 91.03125 C 79.109375 91.027344 79.097656 91.027344 79.085938 91.027344 C 79.035156 91.019531 79.199219 91.042969 79.113281 91.03125 C 78.859375 90.992188 78.617188 90.925781 78.378906 90.835938 C 78.363281 90.828125 78.347656 90.820312 78.332031 90.816406 C 78.28125 90.796875 78.414062 90.851562 78.367188 90.832031 C 78.335938 90.816406 78.308594 90.804688 78.277344 90.789062 C 78.21875 90.761719 78.160156 90.734375 78.105469 90.703125 C 77.988281 90.636719 77.875 90.566406 77.765625 90.488281 C 77.664062 90.429688 77.554688 90.414062 77.441406 90.445312 C 77.332031 90.476562 77.25 90.542969 77.191406 90.640625 C 77.074219 90.859375 77.148438 91.078125 77.339844 91.214844 Z M 77.339844 91.214844 " fill-opacity="1" fill-rule="nonzero"/><path fill="#000000" d="M 66.207031 87.734375 C 66.183594 87.644531 66.167969 87.554688 66.152344 87.464844 L 66.167969 87.578125 C 66.140625 87.367188 66.140625 87.15625 66.164062 86.941406 C 66.164062 86.828125 66.125 86.726562 66.042969 86.644531 C 65.960938 86.5625 65.859375 86.519531 65.742188 86.519531 C 65.628906 86.519531 65.527344 86.5625 65.445312 86.644531 L 65.378906 86.730469 C 65.339844 86.796875 65.320312 86.867188 65.320312 86.941406 C 65.285156 87.285156 65.308594 87.625 65.390625 87.960938 C 65.421875 88.070312 65.488281 88.15625 65.589844 88.214844 C 65.691406 88.273438 65.796875 88.285156 65.910156 88.253906 C 66.023438 88.222656 66.109375 88.15625 66.164062 88.054688 C 66.222656 87.953125 66.234375 87.847656 66.207031 87.734375 Z M 66.207031 87.734375 " fill-opacity="1" fill-rule="nonzero"/><path fill="#000000" d="M 81.464844 82.414062 C 81.441406 82.367188 81.417969 82.316406 81.398438 82.269531 L 81.441406 82.371094 C 81.363281 82.1875 81.308594 81.996094 81.28125 81.796875 L 81.296875 81.910156 C 81.289062 81.859375 81.285156 81.804688 81.28125 81.753906 C 81.277344 81.636719 81.238281 81.539062 81.160156 81.457031 C 81.074219 81.375 80.976562 81.332031 80.859375 81.332031 C 80.742188 81.332031 80.644531 81.375 80.5625 81.457031 C 80.480469 81.539062 80.4375 81.636719 80.4375 81.753906 C 80.460938 82.136719 80.5625 82.496094 80.734375 82.839844 C 80.828125 83 80.96875 83.066406 81.15625 83.042969 C 81.339844 83.019531 81.457031 82.917969 81.507812 82.738281 C 81.535156 82.625 81.519531 82.515625 81.464844 82.414062 Z M 81.464844 82.414062 " fill-opacity="1" fill-rule="nonzero"/><path fill="#000000" d="M 64.59375 73.496094 C 64.492188 74.476562 64.664062 75.40625 65.113281 76.285156 C 65.210938 76.480469 65.507812 76.550781 65.6875 76.433594 C 65.789062 76.375 65.851562 76.289062 65.878906 76.175781 C 65.910156 76.066406 65.894531 75.957031 65.839844 75.859375 C 65.816406 75.808594 65.792969 75.757812 65.769531 75.707031 C 65.757812 75.683594 65.746094 75.65625 65.734375 75.632812 C 65.695312 75.542969 65.769531 75.722656 65.734375 75.632812 C 65.695312 75.53125 65.65625 75.433594 65.625 75.332031 C 65.554688 75.128906 65.503906 74.917969 65.464844 74.703125 C 65.460938 74.675781 65.457031 74.648438 65.449219 74.621094 C 65.453125 74.59375 65.445312 74.566406 65.4375 74.539062 C 65.457031 74.566406 65.449219 74.632812 65.441406 74.554688 C 65.4375 74.527344 65.433594 74.5 65.433594 74.472656 C 65.421875 74.367188 65.414062 74.261719 65.410156 74.15625 C 65.402344 73.9375 65.414062 73.714844 65.4375 73.496094 C 65.4375 73.378906 65.398438 73.277344 65.316406 73.195312 C 65.234375 73.113281 65.132812 73.074219 65.015625 73.074219 C 64.898438 73.074219 64.800781 73.113281 64.71875 73.195312 C 64.640625 73.28125 64.601562 73.382812 64.59375 73.496094 Z M 64.59375 73.496094 " fill-opacity="1" fill-rule="nonzero"/><path fill="#000000" d="M 67.472656 71.957031 C 67.441406 73.425781 67.707031 74.84375 68.265625 76.203125 C 68.425781 76.597656 68.609375 76.980469 68.816406 77.355469 C 68.875 77.453125 68.960938 77.519531 69.074219 77.546875 C 69.1875 77.578125 69.292969 77.5625 69.394531 77.507812 C 69.492188 77.445312 69.554688 77.359375 69.585938 77.25 C 69.613281 77.136719 69.601562 77.03125 69.546875 76.929688 C 69.375 76.625 69.226562 76.3125 69.085938 75.992188 C 69.058594 75.933594 69.125 76.089844 69.089844 76.003906 C 69.082031 75.984375 69.074219 75.96875 69.066406 75.953125 C 69.050781 75.914062 69.035156 75.875 69.019531 75.835938 C 68.988281 75.753906 68.957031 75.671875 68.925781 75.589844 C 68.867188 75.421875 68.808594 75.253906 68.757812 75.085938 C 68.65625 74.757812 68.570312 74.425781 68.503906 74.089844 C 68.46875 73.914062 68.4375 73.742188 68.410156 73.566406 C 68.402344 73.527344 68.398438 73.484375 68.390625 73.441406 C 68.382812 73.378906 68.40625 73.554688 68.394531 73.457031 C 68.390625 73.441406 68.390625 73.421875 68.386719 73.402344 C 68.375 73.3125 68.367188 73.21875 68.359375 73.125 C 68.320312 72.738281 68.304688 72.347656 68.3125 71.957031 C 68.316406 71.839844 68.273438 71.738281 68.191406 71.65625 C 68.109375 71.574219 68.011719 71.53125 67.890625 71.53125 C 67.773438 71.53125 67.675781 71.574219 67.59375 71.65625 C 67.511719 71.738281 67.46875 71.839844 67.46875 71.957031 Z M 67.472656 71.957031 " fill-opacity="1" fill-rule="nonzero"/><path fill="#000000" d="M 69.839844 71.148438 C 69.976562 72.507812 70.226562 73.851562 70.589844 75.167969 C 70.691406 75.53125 70.800781 75.890625 70.917969 76.25 C 70.988281 76.457031 71.214844 76.617188 71.4375 76.542969 C 71.648438 76.476562 71.808594 76.25 71.734375 76.023438 C 71.316406 74.769531 71.011719 73.492188 70.8125 72.183594 C 70.796875 72.09375 70.785156 72 70.773438 71.90625 C 70.769531 71.886719 70.765625 71.867188 70.765625 71.847656 C 70.757812 71.792969 70.777344 71.9375 70.765625 71.855469 C 70.757812 71.808594 70.753906 71.757812 70.746094 71.707031 C 70.722656 71.523438 70.703125 71.335938 70.683594 71.148438 C 70.679688 71.03125 70.636719 70.933594 70.558594 70.847656 C 70.476562 70.765625 70.375 70.726562 70.261719 70.726562 C 70.050781 70.734375 69.816406 70.914062 69.839844 71.148438 Z M 69.839844 71.148438 " fill-opacity="1" fill-rule="nonzero"/><path fill="#000000" d="M 72.117188 70.390625 C 72.351562 71.433594 72.632812 72.464844 72.964844 73.480469 C 73.0625 73.769531 73.160156 74.058594 73.265625 74.347656 C 73.339844 74.554688 73.554688 74.714844 73.785156 74.640625 C 73.988281 74.578125 74.160156 74.347656 74.078125 74.125 C 73.714844 73.117188 73.40625 72.097656 73.144531 71.058594 C 73.066406 70.761719 72.996094 70.464844 72.929688 70.167969 C 72.898438 70.054688 72.832031 69.96875 72.730469 69.914062 C 72.632812 69.855469 72.523438 69.84375 72.414062 69.871094 C 72.300781 69.90625 72.21875 69.972656 72.160156 70.074219 C 72.105469 70.171875 72.089844 70.277344 72.117188 70.390625 Z M 72.117188 70.390625 " fill-opacity="1" fill-rule="nonzero"/><path fill="#000000" d="M 74.488281 69.796875 L 75.007812 71.769531 C 75.039062 71.882812 75.105469 71.96875 75.207031 72.023438 C 75.308594 72.082031 75.414062 72.097656 75.527344 72.066406 C 75.640625 72.035156 75.722656 71.96875 75.78125 71.867188 C 75.839844 71.765625 75.851562 71.660156 75.820312 71.546875 L 75.304688 69.574219 C 75.273438 69.460938 75.207031 69.378906 75.105469 69.320312 C 75.003906 69.261719 74.898438 69.25 74.785156 69.28125 C 74.671875 69.3125 74.585938 69.375 74.53125 69.476562 C 74.472656 69.578125 74.457031 69.6875 74.488281 69.796875 Z M 74.488281 69.796875 " fill-opacity="1" fill-rule="nonzero"/><path fill="#000000" d="M 104.492188 84.925781 C 104.796875 84.953125 105.097656 84.984375 105.402344 85.019531 C 105.472656 85.027344 105.542969 85.039062 105.613281 85.046875 C 105.636719 85.050781 105.777344 85.070312 105.652344 85.050781 C 105.683594 85.054688 105.710938 85.058594 105.742188 85.0625 C 105.894531 85.085938 106.042969 85.105469 106.195312 85.128906 C 106.785156 85.222656 107.371094 85.335938 107.957031 85.472656 C 108.171875 85.519531 108.425781 85.40625 108.476562 85.175781 C 108.523438 84.960938 108.410156 84.710938 108.179688 84.660156 C 106.964844 84.378906 105.734375 84.1875 104.492188 84.082031 C 104.273438 84.0625 104.0625 84.289062 104.070312 84.503906 C 104.082031 84.75 104.257812 84.90625 104.492188 84.925781 Z M 104.492188 84.925781 " fill-opacity="1" fill-rule="nonzero"/><path fill="#000000" d="M 102.808594 83.359375 C 103.183594 83.34375 103.554688 83.34375 103.925781 83.363281 C 104.117188 83.371094 104.308594 83.382812 104.5 83.402344 C 104.585938 83.410156 104.671875 83.417969 104.753906 83.429688 C 104.804688 83.433594 104.851562 83.4375 104.898438 83.445312 C 104.917969 83.445312 104.9375 83.449219 104.953125 83.453125 C 104.984375 83.457031 105.074219 83.453125 104.957031 83.453125 C 105.046875 83.460938 105.136719 83.472656 105.226562 83.492188 C 105.320312 83.503906 105.414062 83.523438 105.507812 83.539062 C 105.691406 83.570312 105.875 83.609375 106.054688 83.648438 C 106.421875 83.730469 106.78125 83.828125 107.136719 83.9375 C 107.335938 84 107.535156 84.070312 107.734375 84.140625 C 107.828125 84.175781 107.921875 84.210938 108.011719 84.25 C 108.0625 84.269531 108.109375 84.289062 108.160156 84.308594 L 108.210938 84.332031 C 108.230469 84.335938 108.25 84.34375 108.265625 84.351562 C 108.210938 84.328125 108.203125 84.324219 108.242188 84.34375 C 108.347656 84.398438 108.457031 84.414062 108.570312 84.386719 C 108.679688 84.355469 108.761719 84.289062 108.820312 84.191406 C 108.878906 84.089844 108.894531 83.980469 108.863281 83.867188 C 108.832031 83.769531 108.769531 83.65625 108.671875 83.617188 C 107.210938 82.988281 105.6875 82.625 104.097656 82.527344 C 103.667969 82.503906 103.238281 82.5 102.808594 82.515625 C 102.589844 82.523438 102.378906 82.703125 102.386719 82.9375 C 102.398438 83.15625 102.574219 83.367188 102.808594 83.359375 Z M 102.808594 83.359375 " fill-opacity="1" fill-rule="nonzero"/><path fill="#000000" d="M 102.4375 80.894531 C 102.636719 80.917969 102.835938 80.9375 103.03125 80.96875 C 103.019531 80.964844 102.933594 80.953125 103.007812 80.964844 L 103.082031 80.976562 C 103.128906 80.980469 103.171875 80.988281 103.214844 80.992188 C 103.3125 81.007812 103.414062 81.023438 103.511719 81.039062 C 103.894531 81.097656 104.277344 81.164062 104.660156 81.238281 C 105.421875 81.382812 106.179688 81.558594 106.929688 81.765625 C 107.351562 81.878906 107.769531 82.003906 108.1875 82.136719 C 108.300781 82.167969 108.40625 82.15625 108.507812 82.097656 C 108.609375 82.039062 108.675781 81.957031 108.707031 81.84375 C 108.734375 81.730469 108.722656 81.625 108.664062 81.523438 C 108.605469 81.425781 108.523438 81.359375 108.414062 81.324219 C 106.914062 80.847656 105.390625 80.484375 103.839844 80.242188 C 103.375 80.167969 102.90625 80.105469 102.4375 80.050781 C 102.324219 80.050781 102.222656 80.09375 102.140625 80.175781 C 102.058594 80.257812 102.015625 80.355469 102.015625 80.472656 C 102.015625 80.589844 102.058594 80.6875 102.140625 80.773438 C 102.226562 80.847656 102.324219 80.890625 102.4375 80.894531 Z M 102.4375 80.894531 " fill-opacity="1" fill-rule="nonzero"/><path fill="#000000" d="M 117.726562 87.316406 L 119.632812 88.628906 C 119.8125 88.753906 120.109375 88.667969 120.210938 88.476562 C 120.265625 88.375 120.277344 88.269531 120.25 88.15625 C 120.21875 88.046875 120.15625 87.960938 120.058594 87.898438 L 118.152344 86.585938 C 117.972656 86.460938 117.675781 86.546875 117.578125 86.738281 C 117.519531 86.839844 117.507812 86.945312 117.535156 87.058594 C 117.566406 87.167969 117.628906 87.253906 117.726562 87.316406 Z M 117.726562 87.316406 " fill-opacity="1" fill-rule="nonzero"/><path fill="#ffa400" d="M 81.058594 102.402344 C 81.339844 103.476562 81.828125 104.445312 82.53125 105.304688 C 82.714844 105.535156 82.914062 105.753906 83.128906 105.957031 C 83.285156 106.113281 83.566406 106.128906 83.722656 105.957031 C 83.804688 105.875 83.84375 105.777344 83.84375 105.660156 C 83.84375 105.542969 83.804688 105.445312 83.722656 105.363281 C 83.542969 105.1875 83.371094 105.003906 83.207031 104.808594 C 83.167969 104.757812 83.125 104.710938 83.085938 104.660156 C 83.078125 104.648438 83.070312 104.640625 83.0625 104.628906 C 83.027344 104.585938 83.113281 104.699219 83.082031 104.65625 C 83.0625 104.628906 83.039062 104.601562 83.019531 104.574219 C 82.945312 104.472656 82.875 104.371094 82.804688 104.269531 C 82.664062 104.054688 82.535156 103.835938 82.414062 103.605469 C 82.355469 103.496094 82.304688 103.386719 82.25 103.273438 C 82.226562 103.21875 82.203125 103.164062 82.179688 103.109375 C 82.15625 103.058594 82.210938 103.191406 82.191406 103.140625 C 82.1875 103.128906 82.179688 103.113281 82.175781 103.101562 C 82.160156 103.066406 82.148438 103.03125 82.132812 102.996094 C 82.03125 102.730469 81.941406 102.457031 81.871094 102.179688 C 81.839844 102.066406 81.773438 101.984375 81.671875 101.929688 C 81.570312 101.871094 81.464844 101.859375 81.351562 101.890625 C 81.242188 101.921875 81.15625 101.984375 81.101562 102.085938 C 81.042969 102.1875 81.027344 102.292969 81.058594 102.402344 Z M 81.058594 102.402344 " fill-opacity="1" fill-rule="nonzero"/><path fill="#ffa400" d="M 85.34375 104.546875 C 85.609375 104.835938 85.859375 105.136719 86.097656 105.445312 L 86.035156 105.363281 C 86.089844 105.433594 86.144531 105.507812 86.199219 105.582031 C 86.261719 105.679688 86.34375 105.742188 86.453125 105.777344 C 86.566406 105.808594 86.675781 105.792969 86.777344 105.734375 C 86.875 105.675781 86.941406 105.59375 86.972656 105.480469 C 87.003906 105.367188 86.992188 105.257812 86.929688 105.15625 C 86.617188 104.738281 86.289062 104.335938 85.941406 103.953125 C 85.859375 103.871094 85.757812 103.828125 85.644531 103.828125 C 85.527344 103.828125 85.425781 103.871094 85.34375 103.953125 C 85.265625 104.035156 85.222656 104.132812 85.222656 104.25 C 85.222656 104.363281 85.265625 104.464844 85.34375 104.546875 Z M 85.34375 104.546875 " fill-opacity="1" fill-rule="nonzero"/><path fill="#ffa400" d="M 89.128906 104.492188 L 89.492188 104.855469 C 89.578125 104.9375 89.675781 104.976562 89.792969 104.976562 C 89.90625 104.976562 90.007812 104.9375 90.089844 104.855469 L 90.15625 104.773438 C 90.195312 104.707031 90.214844 104.636719 90.214844 104.558594 L 90.199219 104.445312 C 90.179688 104.375 90.144531 104.3125 90.089844 104.261719 L 89.726562 103.894531 C 89.640625 103.816406 89.542969 103.777344 89.425781 103.777344 C 89.3125 103.777344 89.210938 103.816406 89.128906 103.894531 L 89.0625 103.980469 C 89.023438 104.046875 89.003906 104.117188 89.003906 104.195312 L 89.019531 104.304688 C 89.039062 104.378906 89.074219 104.4375 89.128906 104.492188 Z M 89.128906 104.492188 " fill-opacity="1" fill-rule="nonzero"/><path fill="#ffa400" d="M 89.347656 99.082031 L 90.003906 99.59375 C 90.089844 99.671875 90.191406 99.714844 90.304688 99.71875 C 90.421875 99.71875 90.519531 99.675781 90.601562 99.59375 C 90.683594 99.511719 90.726562 99.414062 90.726562 99.296875 L 90.710938 99.183594 C 90.691406 99.113281 90.65625 99.050781 90.601562 98.996094 L 89.945312 98.488281 C 89.859375 98.410156 89.761719 98.367188 89.644531 98.363281 C 89.53125 98.363281 89.429688 98.40625 89.347656 98.488281 C 89.265625 98.570312 89.222656 98.667969 89.222656 98.785156 L 89.238281 98.898438 C 89.257812 98.96875 89.296875 99.03125 89.347656 99.082031 Z M 89.347656 99.082031 " fill-opacity="1" fill-rule="nonzero"/><path fill="#ffa400" d="M 93.34375 107.226562 L 93.417969 107.59375 C 93.453125 107.703125 93.519531 107.785156 93.617188 107.84375 C 93.71875 107.898438 93.824219 107.914062 93.9375 107.886719 L 94.039062 107.84375 C 94.101562 107.808594 94.152344 107.757812 94.1875 107.695312 L 94.230469 107.59375 C 94.25 107.519531 94.25 107.445312 94.230469 107.367188 L 94.15625 107.003906 C 94.121094 106.898438 94.054688 106.8125 93.960938 106.75 C 93.914062 106.722656 93.863281 106.703125 93.804688 106.703125 C 93.75 106.6875 93.691406 106.691406 93.636719 106.710938 L 93.535156 106.753906 C 93.472656 106.789062 93.421875 106.839844 93.382812 106.902344 L 93.34375 107.003906 C 93.320312 107.078125 93.320312 107.152344 93.34375 107.226562 Z M 93.34375 107.226562 " fill-opacity="1" fill-rule="nonzero"/><path fill="#ffa400" d="M 82.972656 109.917969 L 84.460938 111.128906 C 84.542969 111.207031 84.644531 111.25 84.757812 111.25 C 84.875 111.25 84.972656 111.210938 85.058594 111.128906 C 85.199219 110.972656 85.238281 110.679688 85.058594 110.53125 L 83.566406 109.320312 C 83.484375 109.242188 83.382812 109.203125 83.269531 109.199219 C 83.152344 109.199219 83.054688 109.242188 82.972656 109.320312 C 82.828125 109.476562 82.789062 109.769531 82.972656 109.917969 Z M 82.972656 109.917969 " fill-opacity="1" fill-rule="nonzero"/><path fill="#ffa400" d="M 91.921875 112.449219 L 92.507812 112.742188 C 92.554688 112.773438 92.605469 112.789062 92.664062 112.789062 C 92.847656 112.8125 92.988281 112.746094 93.082031 112.589844 C 93.144531 112.488281 93.15625 112.378906 93.125 112.265625 C 93.097656 112.152344 93.03125 112.070312 92.933594 112.011719 L 92.347656 111.71875 C 92.300781 111.691406 92.246094 111.671875 92.191406 111.671875 C 92.007812 111.648438 91.867188 111.714844 91.769531 111.871094 C 91.710938 111.972656 91.695312 112.082031 91.726562 112.195312 C 91.757812 112.308594 91.824219 112.390625 91.921875 112.449219 Z M 91.921875 112.449219 " fill-opacity="1" fill-rule="nonzero"/><path fill="#ffa400" d="M 95.34375 111.070312 L 96.460938 112.296875 C 96.542969 112.378906 96.640625 112.417969 96.757812 112.417969 C 96.875 112.417969 96.972656 112.378906 97.054688 112.296875 C 97.136719 112.214844 97.175781 112.113281 97.175781 112 C 97.175781 111.882812 97.136719 111.785156 97.054688 111.699219 L 95.941406 110.472656 C 95.859375 110.390625 95.757812 110.351562 95.644531 110.351562 C 95.527344 110.351562 95.429688 110.390625 95.34375 110.472656 C 95.265625 110.558594 95.226562 110.65625 95.226562 110.773438 C 95.226562 110.886719 95.265625 110.988281 95.34375 111.070312 Z M 95.34375 111.070312 " fill-opacity="1" fill-rule="nonzero"/><path fill="#ffa400" d="M 89.441406 116.019531 L 91.539062 117.433594 C 91.722656 117.558594 92.011719 117.476562 92.117188 117.28125 C 92.171875 117.183594 92.183594 117.074219 92.15625 116.964844 C 92.125 116.851562 92.0625 116.765625 91.964844 116.707031 L 89.867188 115.292969 C 89.683594 115.167969 89.390625 115.25 89.289062 115.445312 C 89.234375 115.546875 89.222656 115.652344 89.25 115.761719 C 89.28125 115.875 89.34375 115.960938 89.441406 116.019531 Z M 89.441406 116.019531 " fill-opacity="1" fill-rule="nonzero"/><path fill="#ffa400" d="M 93.316406 121.546875 C 93.425781 121.632812 93.519531 121.726562 93.605469 121.835938 L 93.539062 121.75 C 93.625 121.863281 93.695312 121.984375 93.753906 122.117188 L 93.710938 122.015625 C 93.757812 122.128906 93.792969 122.242188 93.8125 122.363281 C 93.84375 122.472656 93.910156 122.554688 94.007812 122.613281 C 94.109375 122.671875 94.214844 122.6875 94.328125 122.65625 C 94.441406 122.628906 94.527344 122.5625 94.585938 122.460938 C 94.640625 122.359375 94.652344 122.25 94.628906 122.136719 C 94.535156 121.65625 94.296875 121.257812 93.914062 120.949219 C 93.828125 120.875 93.726562 120.832031 93.613281 120.828125 C 93.496094 120.828125 93.398438 120.871094 93.316406 120.949219 C 93.234375 121.035156 93.191406 121.132812 93.191406 121.25 C 93.195312 121.351562 93.230469 121.480469 93.316406 121.546875 Z M 93.316406 121.546875 " fill-opacity="1" fill-rule="nonzero"/><path fill="#ffa400" d="M 95.402344 116.449219 C 95.433594 116.484375 95.460938 116.523438 95.492188 116.5625 L 95.425781 116.476562 C 95.628906 116.738281 95.792969 117.023438 95.921875 117.328125 L 95.882812 117.226562 C 95.910156 117.296875 95.9375 117.367188 95.960938 117.441406 C 95.996094 117.546875 96.058594 117.632812 96.15625 117.691406 C 96.257812 117.75 96.367188 117.765625 96.480469 117.734375 C 96.6875 117.667969 96.855469 117.4375 96.777344 117.214844 C 96.597656 116.714844 96.339844 116.261719 96 115.851562 C 95.917969 115.769531 95.816406 115.726562 95.699219 115.726562 C 95.585938 115.730469 95.484375 115.769531 95.402344 115.851562 C 95.320312 115.933594 95.277344 116.035156 95.277344 116.148438 C 95.285156 116.265625 95.324219 116.363281 95.402344 116.449219 Z M 95.402344 116.449219 " fill-opacity="1" fill-rule="nonzero"/><path fill="#ffa400" d="M 99.546875 113.476562 C 99.886719 113.980469 100.21875 114.492188 100.542969 115.003906 C 100.660156 115.191406 100.925781 115.28125 101.121094 115.15625 C 101.308594 115.035156 101.398438 114.777344 101.273438 114.578125 C 100.949219 114.066406 100.617188 113.554688 100.277344 113.050781 C 100.15625 112.867188 99.898438 112.769531 99.699219 112.898438 C 99.515625 113.015625 99.417969 113.28125 99.546875 113.476562 Z M 99.546875 113.476562 " fill-opacity="1" fill-rule="nonzero"/><path fill="#ffa400" d="M 104.203125 117.789062 L 105.082031 118.375 C 105.246094 118.46875 105.402344 118.457031 105.550781 118.34375 C 105.703125 118.226562 105.753906 118.078125 105.703125 117.898438 C 105.667969 117.789062 105.601562 117.707031 105.507812 117.644531 L 104.628906 117.058594 C 104.46875 116.964844 104.3125 116.972656 104.160156 117.089844 C 104.011719 117.203125 103.960938 117.355469 104.011719 117.535156 C 104.042969 117.644531 104.109375 117.726562 104.203125 117.789062 Z M 104.203125 117.789062 " fill-opacity="1" fill-rule="nonzero"/><path fill="#ffa400" d="M 109.761719 120.808594 L 110.011719 120.941406 C 110.0625 120.972656 110.113281 120.988281 110.171875 120.992188 C 110.351562 121.015625 110.492188 120.949219 110.589844 120.792969 L 110.632812 120.691406 C 110.652344 120.617188 110.652344 120.539062 110.632812 120.464844 L 110.589844 120.367188 C 110.554688 120.300781 110.503906 120.25 110.441406 120.214844 L 110.1875 120.082031 C 110.140625 120.050781 110.089844 120.035156 110.03125 120.03125 C 109.847656 120.011719 109.707031 120.078125 109.609375 120.234375 L 109.570312 120.335938 C 109.546875 120.410156 109.546875 120.484375 109.570312 120.558594 L 109.609375 120.660156 C 109.648438 120.722656 109.699219 120.773438 109.761719 120.8125 Z M 109.761719 120.808594 " fill-opacity="1" fill-rule="nonzero"/><path fill="#ffa400" d="M 99.71875 119.152344 L 100.109375 119.394531 C 100.15625 119.425781 100.210938 119.445312 100.265625 119.445312 C 100.449219 119.46875 100.589844 119.402344 100.6875 119.246094 L 100.730469 119.144531 C 100.75 119.070312 100.75 118.996094 100.730469 118.921875 L 100.6875 118.820312 C 100.648438 118.753906 100.597656 118.707031 100.535156 118.667969 L 100.144531 118.425781 C 100.097656 118.394531 100.046875 118.375 99.988281 118.375 C 99.804688 118.351562 99.664062 118.417969 99.566406 118.574219 L 99.527344 118.675781 C 99.503906 118.75 99.503906 118.824219 99.527344 118.902344 L 99.566406 119 C 99.605469 119.066406 99.65625 119.117188 99.71875 119.152344 Z M 99.71875 119.152344 " fill-opacity="1" fill-rule="nonzero"/><path fill="#ffa400" d="M 102.3125 108.511719 L 103.148438 109.289062 C 103.230469 109.371094 103.328125 109.410156 103.445312 109.414062 C 103.5625 109.410156 103.660156 109.371094 103.742188 109.289062 C 103.824219 109.207031 103.867188 109.105469 103.867188 108.992188 C 103.867188 108.875 103.824219 108.773438 103.742188 108.691406 L 102.910156 107.917969 C 102.828125 107.835938 102.726562 107.796875 102.613281 107.792969 C 102.496094 107.792969 102.398438 107.835938 102.3125 107.917969 C 102.230469 108 102.191406 108.097656 102.191406 108.214844 C 102.191406 108.332031 102.230469 108.429688 102.3125 108.511719 Z M 102.3125 108.511719 " fill-opacity="1" fill-rule="nonzero"/><path fill="#ffa400" d="M 108.554688 114.992188 L 109.238281 115.773438 C 109.371094 115.90625 109.523438 115.9375 109.699219 115.863281 C 109.871094 115.792969 109.957031 115.664062 109.957031 115.476562 C 109.953125 115.359375 109.914062 115.261719 109.835938 115.175781 L 109.152344 114.398438 C 109.019531 114.265625 108.867188 114.234375 108.691406 114.304688 C 108.519531 114.378906 108.433594 114.507812 108.433594 114.695312 C 108.4375 114.808594 108.476562 114.910156 108.554688 114.992188 Z M 108.554688 114.992188 " fill-opacity="1" fill-rule="nonzero"/><path fill="#ffa400" d="M 96.671875 105.929688 C 96.828125 106.253906 97.0625 106.503906 97.375 106.6875 C 97.476562 106.746094 97.585938 106.757812 97.699219 106.730469 C 97.8125 106.699219 97.894531 106.632812 97.953125 106.53125 C 98.011719 106.429688 98.023438 106.324219 97.992188 106.210938 C 97.960938 106.101562 97.898438 106.019531 97.800781 105.957031 C 97.746094 105.929688 97.695312 105.894531 97.648438 105.855469 L 97.734375 105.921875 C 97.644531 105.851562 97.5625 105.769531 97.492188 105.679688 L 97.558594 105.765625 C 97.496094 105.683594 97.441406 105.597656 97.398438 105.503906 C 97.304688 105.339844 97.164062 105.269531 96.976562 105.300781 C 96.921875 105.304688 96.871094 105.320312 96.820312 105.351562 C 96.722656 105.410156 96.660156 105.492188 96.628906 105.605469 L 96.613281 105.714844 C 96.613281 105.792969 96.632812 105.863281 96.671875 105.929688 Z M 96.671875 105.929688 " fill-opacity="1" fill-rule="nonzero"/><path fill="#ffa400" d="M 86.785156 110.351562 L 87.65625 110.949219 C 87.820312 111.042969 87.976562 111.03125 88.128906 110.917969 C 88.277344 110.800781 88.328125 110.652344 88.277344 110.472656 C 88.242188 110.363281 88.179688 110.28125 88.082031 110.21875 L 87.210938 109.625 C 87.046875 109.53125 86.890625 109.539062 86.742188 109.65625 C 86.589844 109.769531 86.542969 109.917969 86.59375 110.101562 C 86.625 110.207031 86.691406 110.292969 86.785156 110.351562 Z M 86.785156 110.351562 " fill-opacity="1" fill-rule="nonzero"/><path fill="#ffa400" d="M 113.285156 120.492188 C 113.320312 121.261719 113.863281 121.816406 114.421875 122.289062 C 114.503906 122.367188 114.605469 122.410156 114.71875 122.410156 C 114.835938 122.410156 114.933594 122.371094 115.015625 122.289062 C 115.160156 122.132812 115.195312 121.84375 115.015625 121.691406 C 114.789062 121.507812 114.582031 121.308594 114.390625 121.089844 C 114.382812 121.078125 114.371094 121.0625 114.363281 121.050781 C 114.316406 120.996094 114.410156 121.113281 114.378906 121.074219 C 114.359375 121.046875 114.339844 121.019531 114.320312 120.988281 C 114.28125 120.933594 114.246094 120.875 114.214844 120.8125 C 114.199219 120.78125 114.160156 120.664062 114.203125 120.792969 C 114.191406 120.761719 114.179688 120.730469 114.167969 120.699219 C 114.148438 120.632812 114.132812 120.5625 114.121094 120.492188 L 114.136719 120.605469 C 114.132812 120.566406 114.128906 120.527344 114.128906 120.492188 C 114.117188 120.269531 113.941406 120.058594 113.707031 120.070312 C 113.484375 120.078125 113.273438 120.253906 113.285156 120.492188 Z M 113.285156 120.492188 " fill-opacity="1" fill-rule="nonzero"/><path fill="#ffa400" d="M 85.273438 118.261719 C 85.304688 118.5625 85.394531 118.839844 85.539062 119.101562 C 85.671875 119.335938 85.835938 119.546875 86.035156 119.734375 C 86.441406 120.117188 86.9375 120.382812 87.429688 120.636719 C 87.625 120.738281 87.898438 120.695312 88.007812 120.484375 C 88.109375 120.292969 88.066406 120.015625 87.855469 119.90625 C 87.632812 119.792969 87.414062 119.679688 87.199219 119.554688 C 87.09375 119.488281 86.988281 119.421875 86.886719 119.351562 C 86.863281 119.332031 86.835938 119.3125 86.808594 119.292969 C 86.734375 119.234375 86.882812 119.355469 86.808594 119.292969 C 86.761719 119.25 86.714844 119.210938 86.667969 119.171875 C 86.585938 119.097656 86.511719 119.019531 86.441406 118.9375 C 86.429688 118.925781 86.421875 118.910156 86.410156 118.898438 C 86.382812 118.863281 86.390625 118.875 86.429688 118.925781 C 86.417969 118.90625 86.402344 118.882812 86.386719 118.863281 C 86.351562 118.816406 86.320312 118.769531 86.292969 118.71875 C 86.265625 118.675781 86.242188 118.632812 86.222656 118.589844 C 86.207031 118.5625 86.167969 118.453125 86.214844 118.578125 C 86.207031 118.554688 86.195312 118.53125 86.1875 118.507812 C 86.167969 118.457031 86.152344 118.402344 86.136719 118.34375 C 86.132812 118.320312 86.125 118.296875 86.121094 118.273438 C 86.117188 118.257812 86.117188 118.242188 86.113281 118.222656 C 86.121094 118.296875 86.125 118.308594 86.117188 118.261719 C 86.113281 118.148438 86.074219 118.046875 85.996094 117.964844 C 85.910156 117.882812 85.8125 117.84375 85.695312 117.839844 C 85.488281 117.851562 85.246094 118.027344 85.273438 118.261719 Z M 85.273438 118.261719 " fill-opacity="1" fill-rule="nonzero"/><path fill="#ffa400" d="M 103.082031 123.585938 C 102.429688 123.207031 101.789062 122.800781 101.167969 122.371094 C 100.984375 122.242188 100.691406 122.332031 100.589844 122.519531 C 100.535156 122.621094 100.519531 122.726562 100.550781 122.839844 C 100.578125 122.953125 100.644531 123.039062 100.742188 123.097656 C 101.363281 123.53125 102 123.9375 102.65625 124.316406 C 102.847656 124.425781 103.128906 124.367188 103.234375 124.164062 C 103.292969 124.0625 103.304688 123.957031 103.277344 123.84375 C 103.246094 123.734375 103.183594 123.648438 103.082031 123.585938 Z M 103.082031 123.585938 " fill-opacity="1" fill-rule="nonzero"/><path fill="#ffa400" d="M 106.875 123.246094 C 107.082031 123.417969 107.316406 123.546875 107.570312 123.632812 C 107.796875 123.710938 108.03125 123.746094 108.269531 123.738281 C 108.386719 123.734375 108.484375 123.695312 108.570312 123.613281 C 108.648438 123.53125 108.691406 123.433594 108.691406 123.316406 C 108.683594 123.09375 108.507812 122.890625 108.269531 122.894531 C 108.179688 122.898438 108.085938 122.890625 107.996094 122.878906 L 108.105469 122.894531 C 107.960938 122.875 107.816406 122.835938 107.679688 122.777344 L 107.78125 122.820312 C 107.652344 122.761719 107.527344 122.691406 107.414062 122.605469 L 107.5 122.671875 C 107.492188 122.664062 107.480469 122.65625 107.472656 122.648438 C 107.386719 122.570312 107.289062 122.53125 107.171875 122.527344 C 107.058594 122.527344 106.957031 122.570312 106.875 122.648438 C 106.792969 122.734375 106.753906 122.832031 106.75 122.949219 C 106.75 123.066406 106.792969 123.164062 106.875 123.246094 Z M 106.875 123.246094 " fill-opacity="1" fill-rule="nonzero"/><path fill="#000000" d="M 118.042969 85.902344 C 118.105469 85.929688 118.164062 85.953125 118.226562 85.976562 L 118.308594 86.011719 C 118.355469 86.03125 118.28125 86 118.277344 86 C 118.296875 86.007812 118.316406 86.015625 118.335938 86.023438 C 118.460938 86.078125 118.585938 86.128906 118.710938 86.183594 C 118.957031 86.289062 119.199219 86.398438 119.445312 86.507812 C 119.933594 86.722656 120.417969 86.949219 120.902344 87.175781 C 121.175781 87.308594 121.445312 87.441406 121.71875 87.574219 C 121.914062 87.671875 122.183594 87.632812 122.292969 87.421875 C 122.394531 87.230469 122.355469 86.949219 122.144531 86.84375 C 121.171875 86.367188 120.1875 85.910156 119.191406 85.480469 C 118.882812 85.347656 118.578125 85.21875 118.269531 85.089844 C 118.152344 85.058594 118.046875 85.070312 117.945312 85.132812 C 117.84375 85.191406 117.777344 85.277344 117.75 85.390625 C 117.71875 85.5 117.734375 85.609375 117.792969 85.707031 C 117.855469 85.800781 117.9375 85.867188 118.042969 85.902344 Z M 118.042969 85.902344 " fill-opacity="1" fill-rule="nonzero"/></svg>