<svg xmlns="http://www.w3.org/2000/svg" xmlns:xlink="http://www.w3.org/1999/xlink" width="250" zoomAndPan="magnify" viewBox="0 0 187.5 187.499992" height="250" preserveAspectRatio="xMidYMid meet" version="1.0"><defs><clipPath id="c9045f33c7"><path d="M 61.546875 57 L 126 57 L 126 130.824219 L 61.546875 130.824219 Z M 61.546875 57 " clip-rule="nonzero"/></clipPath><clipPath id="cdacdb4890"><path d="M 61.546875 56.574219 L 126 56.574219 L 126 124 L 61.546875 124 Z M 61.546875 56.574219 " clip-rule="nonzero"/></clipPath><clipPath id="47b60e1a33"><path d="M 79 122 L 126 122 L 126 130.824219 L 79 130.824219 Z M 79 122 " clip-rule="nonzero"/></clipPath><clipPath id="a434b0503c"><path d="M 62 123 L 81 123 L 81 130.824219 L 62 130.824219 Z M 62 123 " clip-rule="nonzero"/></clipPath></defs><g clip-path="url(#c9045f33c7)"><path fill="#ffffff" d="M 125.074219 121.472656 C 125.0625 121.410156 125.070312 121.355469 125.085938 121.304688 C 123.933594 117.472656 122.625 113.691406 121.148438 109.972656 C 119.511719 105.855469 117.691406 101.816406 115.691406 97.859375 C 114.644531 95.789062 113.550781 93.742188 112.476562 91.6875 C 111.316406 89.460938 110.148438 87.242188 108.910156 85.058594 C 108.757812 84.785156 108.601562 84.507812 108.445312 84.234375 C 108.394531 84.132812 108.335938 84.03125 108.28125 83.929688 C 108.277344 83.929688 108.273438 83.929688 108.269531 83.925781 C 105.96875 79.859375 103.671875 75.789062 101.34375 71.734375 C 98.855469 67.394531 96.339844 63.074219 93.769531 58.78125 C 93.441406 58.234375 93.113281 57.691406 92.785156 57.144531 C 92.683594 56.980469 92.472656 57.070312 92.449219 57.238281 C 92.183594 59.222656 91.910156 61.207031 91.703125 63.199219 C 91.617188 64.027344 91.628906 64.863281 91.242188 65.625 C 91.128906 65.84375 90.980469 66.070312 90.753906 66.183594 C 90.453125 66.335938 90.054688 66.214844 89.734375 66.179688 C 88.921875 66.085938 88.101562 66.003906 87.285156 65.941406 C 84.375 65.710938 81.460938 65.691406 78.558594 65.894531 C 78.109375 65.914062 77.660156 65.941406 77.214844 65.976562 C 76.355469 66.046875 75.503906 66.148438 74.664062 66.3125 C 72.363281 66.640625 70.085938 67.117188 67.839844 67.753906 C 67.363281 67.890625 66.90625 68.105469 66.421875 67.875 C 66.039062 67.691406 65.714844 67.367188 65.488281 67.007812 C 65.269531 66.660156 65.148438 66.265625 65.007812 65.882812 C 64.863281 65.5 64.722656 65.113281 64.578125 64.726562 C 64 63.148438 63.421875 61.566406 62.953125 59.949219 C 62.894531 59.746094 62.613281 59.800781 62.597656 59.996094 C 62.222656 64.625 61.996094 69.261719 61.941406 73.902344 C 61.894531 77.597656 61.949219 81.292969 62.128906 84.984375 C 62.3125 88.714844 62.625 92.433594 62.90625 96.152344 C 63.21875 100.261719 63.449219 104.375 63.527344 108.496094 C 63.617188 113.015625 63.554688 117.539062 63.359375 122.054688 C 63.355469 122.1875 63.347656 122.320312 63.339844 122.457031 C 63.527344 122.992188 63.625 123.542969 63.675781 124.097656 C 63.953125 124.226562 64.226562 124.355469 64.503906 124.484375 C 66.136719 125.238281 67.78125 125.960938 69.441406 126.652344 C 71.054688 127.328125 72.679688 127.976562 74.316406 128.59375 C 75.835938 129.167969 77.367188 129.71875 78.902344 130.242188 C 78.960938 130.304688 79.035156 130.351562 79.125 130.375 C 79.339844 130.429688 79.558594 130.484375 79.773438 130.539062 C 79.773438 130.539062 79.773438 130.539062 79.777344 130.542969 C 79.832031 130.566406 79.898438 130.582031 79.964844 130.574219 C 83.160156 130.261719 86.351562 129.90625 89.535156 129.507812 C 92.890625 129.085938 96.238281 128.621094 99.582031 128.105469 C 103.054688 127.566406 106.519531 126.980469 109.972656 126.339844 C 113.351562 125.714844 116.71875 125.039062 120.078125 124.3125 C 121.820312 123.9375 123.558594 123.546875 125.296875 123.144531 C 125.234375 122.585938 125.160156 122.027344 125.074219 121.472656 Z M 125.074219 121.472656 " fill-opacity="1" fill-rule="nonzero"/></g><path fill="#ffffff" d="M 65.949219 75.203125 C 66.289062 74.933594 66.78125 74.585938 67.429688 74.273438 C 69.277344 73.382812 70.96875 73.484375 71.308594 73.507812 C 73.378906 73.660156 74.792969 74.644531 75.328125 75.0625 C 74.890625 75.578125 73.886719 76.605469 72.277344 77.035156 C 68.890625 77.945312 66.109375 75.355469 65.949219 75.203125 Z M 65.949219 75.203125 " fill-opacity="1" fill-rule="nonzero"/><path fill="#4e4e4e" d="M 97.296875 71.558594 C 95.585938 69.550781 92.707031 69.027344 90.210938 69.492188 C 88.773438 69.761719 87.40625 70.339844 86.125 71.03125 C 84.945312 71.664062 83.449219 72.46875 83.414062 73.992188 C 83.414062 74.117188 83.429688 74.242188 83.453125 74.367188 C 83.441406 75.023438 83.664062 75.703125 84.015625 76.273438 C 84.703125 77.390625 85.867188 78.171875 87.070312 78.648438 C 89.824219 79.738281 92.902344 79.050781 95.492188 77.832031 C 96.601562 77.308594 97.71875 76.554688 98.203125 75.378906 C 98.75 74.046875 98.183594 72.597656 97.296875 71.558594 Z M 97.296875 71.558594 " fill-opacity="1" fill-rule="nonzero"/><path fill="#ffffff" d="M 93.347656 75.597656 C 89.558594 77.539062 85.472656 75.097656 85.152344 74.902344 C 85.46875 74.589844 85.925781 74.183594 86.523438 73.78125 C 86.992188 73.472656 88.496094 72.527344 90.65625 72.257812 C 93.210938 71.941406 95.210938 72.738281 96.058594 73.140625 C 95.574219 73.867188 94.71875 74.894531 93.347656 75.597656 Z M 93.347656 75.597656 " fill-opacity="1" fill-rule="nonzero"/><path fill="#4e4e4e" d="M 77.183594 66.015625 C 75.96875 66.113281 74.777344 66.277344 73.59375 66.582031 C 73.03125 66.726562 72.433594 66.855469 71.902344 67.097656 C 71.675781 67.199219 71.484375 67.351562 71.292969 67.5 C 72.472656 69.058594 73.808594 70.570312 75.730469 71.183594 C 76.734375 71.507812 77.882812 71.5625 78.875 71.167969 C 79.914062 70.757812 80.679688 69.941406 81.25 69 C 81.785156 68.113281 82.140625 67.136719 82.613281 66.214844 C 80.835938 65.855469 78.992188 65.867188 77.183594 66.015625 Z M 77.183594 66.015625 " fill-opacity="1" fill-rule="nonzero"/><path fill="#4e4e4e" d="M 104.992188 126.703125 C 106.0625 126.597656 107.132812 126.5 108.1875 126.285156 C 109.007812 126.121094 109.808594 125.902344 110.597656 125.640625 C 111.222656 123.535156 111.269531 121.277344 110.765625 119.136719 C 110.257812 116.992188 109.148438 115.015625 107.632812 113.417969 C 106.929688 112.679688 106.132812 112.03125 105.269531 111.484375 C 104.960938 111.929688 104.53125 112.296875 104.226562 112.75 C 103.8125 113.367188 103.535156 114.050781 103.273438 114.742188 C 102.765625 116.070312 102.351562 117.425781 102.070312 118.816406 C 101.785156 120.222656 101.550781 121.648438 101.550781 123.085938 C 101.546875 124.4375 101.777344 125.753906 101.972656 127.082031 C 102.980469 127.039062 103.988281 126.800781 104.992188 126.703125 Z M 104.992188 126.703125 " fill-opacity="1" fill-rule="nonzero"/><path fill="#b1b1b1" d="M 80.414062 81.769531 C 80.851562 81.390625 81.019531 80.777344 81.019531 80.21875 C 81.019531 80.070312 81.007812 79.910156 80.960938 79.769531 C 80.875 79.53125 80.695312 79.367188 80.460938 79.277344 C 80.265625 79.203125 80.035156 79.183594 79.820312 79.191406 C 79.46875 79.078125 79.082031 79.097656 78.730469 79.253906 C 78.511719 79.351562 78.339844 79.503906 78.214844 79.6875 C 77.945312 79.945312 77.738281 80.289062 77.652344 80.636719 C 77.527344 81.132812 77.585938 81.710938 77.960938 82.085938 C 78.410156 82.539062 79.132812 82.5 79.679688 82.269531 C 79.890625 82.179688 80.089844 82.054688 80.257812 81.898438 C 80.289062 81.875 80.316406 81.847656 80.34375 81.820312 C 80.367188 81.804688 80.394531 81.789062 80.414062 81.769531 Z M 80.414062 81.769531 " fill-opacity="1" fill-rule="nonzero"/><path fill="#b1b1b1" d="M 84.042969 79.996094 C 84.007812 79.753906 83.878906 79.539062 83.726562 79.351562 C 83.421875 78.988281 82.933594 78.785156 82.464844 78.773438 C 82.066406 78.761719 81.65625 78.910156 81.371094 79.191406 C 81.308594 79.214844 81.246094 79.25 81.195312 79.304688 C 80.890625 79.65625 80.792969 80.089844 80.882812 80.542969 C 80.960938 80.949219 81.242188 81.324219 81.613281 81.511719 C 81.863281 81.644531 82.148438 81.703125 82.429688 81.695312 C 82.667969 81.703125 82.910156 81.652344 83.117188 81.546875 C 83.464844 81.398438 83.761719 81.140625 83.925781 80.78125 C 84.042969 80.527344 84.082031 80.273438 84.042969 79.996094 Z M 84.042969 79.996094 " fill-opacity="1" fill-rule="nonzero"/><path fill="#b1b1b1" d="M 111.753906 90.53125 C 111.214844 89.804688 110.746094 89.027344 110.289062 88.246094 C 109.832031 87.460938 109.355469 86.640625 109.007812 85.800781 C 108.835938 85.382812 108.71875 84.945312 108.539062 84.535156 C 108.457031 84.339844 108.351562 84.15625 108.25 83.96875 C 106.875 83.519531 105.253906 83.253906 104.15625 84.417969 C 103.199219 85.433594 103.097656 86.972656 103.339844 88.277344 C 103.867188 91.097656 106.375 93.964844 109.488281 93.574219 C 110.371094 93.460938 111.199219 93.066406 111.753906 92.359375 C 111.984375 92.066406 112.164062 91.746094 112.277344 91.410156 C 112.109375 91.109375 111.953125 90.800781 111.753906 90.53125 Z M 111.753906 90.53125 " fill-opacity="1" fill-rule="nonzero"/><path fill="#b1b1b1" d="M 107.273438 97.875 C 107.234375 97.734375 107.175781 97.609375 107.097656 97.496094 C 107.003906 97.285156 106.855469 97.097656 106.648438 96.957031 C 106.386719 96.785156 106.0625 96.75 105.753906 96.808594 C 105.722656 96.808594 105.691406 96.804688 105.65625 96.804688 C 105.117188 96.808594 104.621094 97.132812 104.363281 97.601562 C 104.105469 98.074219 104.074219 98.65625 104.347656 99.128906 C 104.617188 99.589844 105.117188 99.867188 105.644531 99.917969 C 106.726562 100.03125 107.558594 98.882812 107.273438 97.875 Z M 107.273438 97.875 " fill-opacity="1" fill-rule="nonzero"/><path fill="#b1b1b1" d="M 118.414062 105.117188 C 117.679688 103.371094 116.957031 101.621094 116.199219 99.886719 C 115.675781 98.683594 115.109375 97.453125 114.335938 96.378906 C 110.613281 101.339844 114.023438 107.582031 118.46875 111.828125 C 119.703125 113.003906 121.082031 114.082031 122.574219 115.066406 C 121.308594 111.703125 119.808594 108.425781 118.414062 105.117188 Z M 118.414062 105.117188 " fill-opacity="1" fill-rule="nonzero"/><g clip-path="url(#cdacdb4890)"><path fill="#000000" d="M 63.945312 123.191406 C 64.152344 118.914062 64.234375 114.628906 64.191406 110.347656 C 64.148438 106.082031 63.949219 101.820312 63.644531 97.566406 C 63.378906 93.867188 63.050781 90.171875 62.84375 86.472656 C 62.632812 82.769531 62.542969 79.058594 62.5625 75.351562 C 62.585938 70.886719 62.765625 66.425781 63.085938 61.972656 C 63.132812 61.328125 63.183594 60.679688 63.234375 60.035156 C 62.914062 60.078125 62.597656 60.121094 62.277344 60.164062 C 62.714844 61.667969 63.246094 63.144531 63.785156 64.617188 C 64.054688 65.34375 64.304688 66.082031 64.59375 66.800781 C 64.875 67.496094 65.367188 68.152344 66.054688 68.488281 C 66.878906 68.894531 67.660156 68.523438 68.480469 68.296875 C 69.316406 68.070312 70.15625 67.863281 71 67.675781 C 72.675781 67.304688 74.371094 67.015625 76.078125 66.8125 C 79.515625 66.414062 82.988281 66.355469 86.441406 66.585938 C 87.296875 66.640625 88.15625 66.714844 89.011719 66.804688 C 89.667969 66.875 90.480469 67.132812 91.089844 66.78125 C 91.988281 66.269531 92.191406 65.011719 92.257812 64.082031 C 92.429688 61.804688 92.78125 59.535156 93.085938 57.273438 C 92.785156 57.355469 92.480469 57.4375 92.179688 57.519531 C 94.761719 61.800781 97.289062 66.117188 99.785156 70.449219 C 102.3125 74.84375 104.808594 79.253906 107.300781 83.667969 C 109.71875 87.957031 112.019531 92.304688 114.285156 96.675781 C 116.351562 100.664062 118.253906 104.734375 119.953125 108.898438 C 121.523438 112.746094 122.921875 116.660156 124.140625 120.632812 C 124.324219 121.226562 124.5 121.816406 124.675781 122.414062 C 124.851562 123.011719 125.792969 122.757812 125.617188 122.152344 C 124.402344 118.019531 123.003906 113.9375 121.414062 109.929688 C 119.765625 105.789062 117.9375 101.722656 115.925781 97.746094 C 114.878906 95.675781 113.785156 93.625 112.710938 91.570312 C 111.550781 89.34375 110.382812 87.125 109.144531 84.941406 C 106.628906 80.496094 104.117188 76.050781 101.578125 71.617188 C 99.089844 67.28125 96.574219 62.957031 94.003906 58.664062 C 93.675781 58.121094 93.347656 57.574219 93.019531 57.03125 C 92.746094 56.578125 92.171875 56.824219 92.113281 57.273438 C 91.84375 59.257812 91.570312 61.246094 91.363281 63.238281 C 91.277344 64.042969 91.3125 64.78125 90.945312 65.507812 C 90.863281 65.675781 90.75 65.882812 90.570312 65.960938 C 90.324219 66.0625 89.960938 65.9375 89.703125 65.910156 C 88.890625 65.816406 88.070312 65.738281 87.253906 65.671875 C 80.691406 65.15625 74.070312 65.699219 67.726562 67.496094 C 67.347656 67.605469 66.9375 67.824219 66.546875 67.648438 C 66.207031 67.496094 65.917969 67.203125 65.722656 66.890625 C 65.515625 66.566406 65.40625 66.199219 65.273438 65.839844 C 65.128906 65.453125 64.988281 65.070312 64.84375 64.683594 C 64.265625 63.105469 63.6875 61.523438 63.21875 59.90625 C 63.058594 59.359375 62.304688 59.5 62.261719 60.035156 C 61.882812 64.660156 61.660156 69.300781 61.601562 73.941406 C 61.554688 77.636719 61.613281 81.332031 61.792969 85.023438 C 61.972656 88.75 62.289062 92.46875 62.570312 96.191406 C 62.878906 100.300781 63.109375 104.414062 63.191406 108.535156 C 63.277344 113.054688 63.214844 117.578125 63.019531 122.09375 C 63.003906 122.460938 62.988281 122.824219 62.972656 123.191406 C 62.941406 123.816406 63.914062 123.8125 63.945312 123.191406 Z M 63.945312 123.191406 " fill-opacity="1" fill-rule="nonzero"/></g><g clip-path="url(#47b60e1a33)"><path fill="#000000" d="M 79.9375 130.765625 C 83.136719 130.457031 86.328125 130.101562 89.515625 129.703125 C 92.863281 129.28125 96.203125 128.816406 99.535156 128.300781 C 102.980469 127.769531 106.414062 127.179688 109.84375 126.554688 C 112.324219 126.105469 114.800781 125.640625 117.265625 125.109375 C 119.628906 124.601562 121.980469 124.027344 124.332031 123.445312 C 124.695312 123.355469 125.058594 123.265625 125.425781 123.171875 C 126.03125 123.023438 125.773438 122.085938 125.164062 122.238281 C 122.71875 122.847656 120.273438 123.453125 117.8125 123.996094 C 115.460938 124.519531 113.097656 124.972656 110.730469 125.410156 C 107.378906 126.027344 104.023438 126.617188 100.660156 127.148438 C 97.339844 127.675781 94.011719 128.152344 90.675781 128.582031 C 87.484375 128.992188 84.289062 129.359375 81.085938 129.683594 C 80.703125 129.722656 80.320312 129.757812 79.9375 129.796875 C 79.675781 129.820312 79.453125 130 79.453125 130.28125 C 79.453125 130.523438 79.675781 130.792969 79.9375 130.765625 Z M 79.9375 130.765625 " fill-opacity="1" fill-rule="nonzero"/></g><g clip-path="url(#a434b0503c)"><path fill="#000000" d="M 63.050781 123.957031 C 64.128906 124.476562 65.214844 124.984375 66.304688 125.480469 C 67.359375 125.960938 68.417969 126.429688 69.488281 126.878906 C 70.570312 127.339844 71.660156 127.785156 72.757812 128.214844 C 73.832031 128.636719 74.917969 129.042969 76.003906 129.4375 C 77.121094 129.839844 78.242188 130.226562 79.371094 130.605469 C 79.515625 130.652344 79.664062 130.703125 79.808594 130.75 C 80.050781 130.832031 80.351562 130.65625 80.410156 130.410156 C 80.46875 130.144531 80.328125 129.898438 80.070312 129.8125 C 78.933594 129.4375 77.804688 129.050781 76.679688 128.648438 C 75.59375 128.261719 74.511719 127.859375 73.433594 127.441406 C 72.371094 127.027344 71.3125 126.601562 70.261719 126.160156 C 70.226562 126.148438 70.191406 126.132812 70.160156 126.117188 C 70.15625 126.117188 70.25 126.15625 70.199219 126.136719 C 70.1875 126.128906 70.171875 126.125 70.15625 126.117188 C 70.085938 126.085938 70.019531 126.058594 69.949219 126.027344 C 69.816406 125.972656 69.683594 125.914062 69.546875 125.859375 C 69.285156 125.746094 69.023438 125.632812 68.761719 125.519531 C 68.234375 125.289062 67.710938 125.054688 67.183594 124.820312 C 66.105469 124.332031 65.03125 123.832031 63.960938 123.316406 C 63.820312 123.25 63.683594 123.183594 63.542969 123.117188 C 63.316406 123.003906 63.007812 123.046875 62.878906 123.289062 C 62.761719 123.507812 62.808594 123.835938 63.050781 123.957031 Z M 63.050781 123.957031 " fill-opacity="1" fill-rule="nonzero"/></g><path fill="#000000" d="M 66.292969 75.546875 C 66.324219 75.523438 66.351562 75.503906 66.378906 75.480469 C 66.449219 75.425781 66.28125 75.554688 66.351562 75.5 C 66.363281 75.492188 66.378906 75.480469 66.390625 75.472656 C 66.464844 75.417969 66.539062 75.363281 66.613281 75.3125 C 66.769531 75.203125 66.929688 75.097656 67.09375 75 C 67.292969 74.882812 67.496094 74.777344 67.707031 74.675781 C 67.757812 74.652344 67.8125 74.625 67.867188 74.601562 C 67.886719 74.59375 67.910156 74.582031 67.929688 74.574219 C 67.9375 74.570312 68.042969 74.527344 67.96875 74.558594 C 67.894531 74.589844 68 74.546875 68.003906 74.542969 C 68.03125 74.53125 68.058594 74.523438 68.085938 74.511719 C 68.140625 74.488281 68.199219 74.46875 68.257812 74.445312 C 68.652344 74.300781 69.054688 74.191406 69.46875 74.109375 C 69.558594 74.09375 69.648438 74.074219 69.738281 74.0625 C 69.78125 74.054688 69.824219 74.046875 69.867188 74.042969 C 69.882812 74.039062 69.898438 74.039062 69.917969 74.035156 C 69.746094 74.0625 69.875 74.039062 69.910156 74.035156 C 70.0625 74.019531 70.214844 74.003906 70.367188 73.992188 C 70.601562 73.980469 70.832031 73.972656 71.066406 73.980469 C 71.136719 73.984375 71.203125 73.988281 71.273438 73.992188 C 71.328125 73.996094 71.382812 74 71.4375 74.003906 C 71.492188 74.011719 71.542969 74.015625 71.597656 74.019531 C 71.628906 74.023438 71.660156 74.027344 71.691406 74.03125 C 71.785156 74.042969 71.578125 74.015625 71.683594 74.03125 C 72.078125 74.089844 72.464844 74.175781 72.84375 74.296875 C 73.011719 74.347656 73.175781 74.40625 73.339844 74.472656 C 73.378906 74.488281 73.417969 74.503906 73.457031 74.519531 C 73.542969 74.554688 73.34375 74.46875 73.429688 74.507812 C 73.445312 74.515625 73.460938 74.519531 73.472656 74.527344 C 73.554688 74.5625 73.632812 74.597656 73.710938 74.636719 C 73.996094 74.773438 74.269531 74.925781 74.535156 75.09375 C 74.636719 75.160156 74.738281 75.226562 74.835938 75.296875 C 74.878906 75.328125 74.921875 75.359375 74.960938 75.390625 C 74.980469 75.40625 75 75.421875 75.019531 75.433594 C 75.105469 75.5 74.917969 75.355469 74.984375 75.40625 C 74.984375 75.179688 74.984375 74.949219 74.984375 74.71875 C 74.804688 74.929688 74.613281 75.132812 74.40625 75.320312 C 74.34375 75.375 74.28125 75.429688 74.21875 75.484375 C 74.183594 75.511719 74.148438 75.542969 74.117188 75.570312 C 74.082031 75.597656 73.929688 75.710938 74.070312 75.605469 C 73.90625 75.726562 73.742188 75.84375 73.566406 75.953125 C 73.375 76.070312 73.179688 76.175781 72.976562 76.273438 C 72.925781 76.296875 72.871094 76.320312 72.820312 76.339844 C 72.722656 76.382812 72.929688 76.296875 72.832031 76.335938 C 72.804688 76.347656 72.777344 76.359375 72.75 76.371094 C 72.628906 76.417969 72.507812 76.460938 72.382812 76.5 C 72.15625 76.570312 71.925781 76.628906 71.695312 76.667969 C 71.636719 76.679688 71.582031 76.6875 71.527344 76.699219 C 71.492188 76.703125 71.390625 76.710938 71.542969 76.695312 C 71.515625 76.699219 71.488281 76.703125 71.460938 76.707031 C 71.34375 76.71875 71.226562 76.730469 71.105469 76.734375 C 70.886719 76.746094 70.664062 76.746094 70.441406 76.730469 C 70.339844 76.726562 70.238281 76.714844 70.132812 76.703125 C 70.109375 76.699219 70.082031 76.695312 70.058594 76.695312 C 70.21875 76.710938 70.121094 76.703125 70.085938 76.699219 C 70.027344 76.6875 69.96875 76.679688 69.914062 76.667969 C 69.515625 76.601562 69.128906 76.492188 68.75 76.355469 C 68.664062 76.324219 68.578125 76.289062 68.496094 76.253906 C 68.472656 76.246094 68.453125 76.238281 68.433594 76.230469 C 68.582031 76.289062 68.5 76.257812 68.464844 76.242188 C 68.417969 76.222656 68.371094 76.203125 68.324219 76.179688 C 68.171875 76.109375 68.019531 76.035156 67.871094 75.957031 C 67.597656 75.8125 67.332031 75.648438 67.074219 75.476562 C 66.960938 75.398438 66.84375 75.316406 66.730469 75.230469 C 66.722656 75.222656 66.710938 75.214844 66.699219 75.207031 C 66.625 75.148438 66.800781 75.285156 66.746094 75.242188 C 66.722656 75.222656 66.699219 75.207031 66.679688 75.1875 C 66.636719 75.15625 66.597656 75.125 66.558594 75.089844 C 66.46875 75.015625 66.378906 74.941406 66.292969 74.859375 C 66.109375 74.683594 65.785156 74.664062 65.605469 74.859375 C 65.429688 75.050781 65.410156 75.359375 65.605469 75.546875 C 65.859375 75.789062 66.144531 76.003906 66.425781 76.207031 C 66.992188 76.609375 67.601562 76.933594 68.246094 77.195312 C 69.050781 77.523438 69.925781 77.710938 70.796875 77.714844 C 71.835938 77.71875 72.863281 77.449219 73.773438 76.957031 C 74.441406 76.59375 75.054688 76.101562 75.5625 75.535156 C 75.597656 75.492188 75.636719 75.449219 75.671875 75.40625 C 75.753906 75.3125 75.824219 75.195312 75.816406 75.0625 C 75.8125 74.945312 75.773438 74.796875 75.671875 74.71875 C 74.660156 73.933594 73.480469 73.371094 72.214844 73.140625 C 70.902344 72.898438 69.546875 73.003906 68.277344 73.414062 C 67.300781 73.730469 66.40625 74.222656 65.605469 74.859375 C 65.515625 74.933594 65.464844 75.09375 65.464844 75.203125 C 65.464844 75.324219 65.515625 75.464844 65.605469 75.546875 C 65.699219 75.632812 65.820312 75.695312 65.949219 75.6875 C 66.085938 75.683594 66.1875 75.632812 66.292969 75.546875 Z M 66.292969 75.546875 " fill-opacity="1" fill-rule="nonzero"/><path fill="#000000" d="M 70.074219 74.054688 C 70.085938 74.078125 70.097656 74.105469 70.105469 74.128906 C 70.152344 74.222656 70.058594 74.011719 70.101562 74.117188 C 70.128906 74.179688 70.152344 74.246094 70.171875 74.316406 C 70.195312 74.394531 70.214844 74.472656 70.230469 74.550781 C 70.242188 74.597656 70.242188 74.648438 70.257812 74.691406 C 70.246094 74.65625 70.242188 74.585938 70.253906 74.664062 C 70.253906 74.691406 70.257812 74.714844 70.257812 74.742188 C 70.265625 74.84375 70.269531 74.949219 70.261719 75.050781 C 70.261719 75.105469 70.253906 75.160156 70.25 75.214844 C 70.242188 75.28125 70.269531 75.089844 70.25 75.195312 C 70.246094 75.21875 70.242188 75.238281 70.242188 75.257812 C 70.207031 75.425781 70.160156 75.589844 70.09375 75.746094 C 70.050781 75.855469 70.085938 76.023438 70.144531 76.121094 C 70.203125 76.222656 70.320312 76.316406 70.433594 76.34375 C 70.558594 76.371094 70.699219 76.367188 70.8125 76.296875 C 70.925781 76.222656 70.984375 76.128906 71.035156 76.003906 C 71.355469 75.214844 71.28125 74.324219 70.914062 73.566406 C 70.804688 73.335938 70.457031 73.257812 70.246094 73.390625 C 70.011719 73.542969 69.953125 73.808594 70.074219 74.054688 Z M 70.074219 74.054688 " fill-opacity="1" fill-rule="nonzero"/><path fill="#000000" d="M 93.101562 75.179688 C 93.011719 75.226562 92.921875 75.269531 92.828125 75.308594 C 92.785156 75.328125 92.742188 75.347656 92.699219 75.367188 C 92.601562 75.410156 92.78125 75.335938 92.714844 75.359375 C 92.6875 75.371094 92.660156 75.382812 92.628906 75.394531 C 92.445312 75.46875 92.261719 75.53125 92.070312 75.589844 C 91.890625 75.640625 91.710938 75.6875 91.527344 75.726562 C 91.441406 75.742188 91.355469 75.757812 91.269531 75.773438 C 91.222656 75.78125 91.175781 75.789062 91.128906 75.796875 C 91.109375 75.800781 91.089844 75.800781 91.070312 75.804688 C 91.222656 75.78125 91.121094 75.796875 91.085938 75.800781 C 90.734375 75.84375 90.375 75.863281 90.019531 75.855469 C 89.84375 75.851562 89.667969 75.84375 89.496094 75.828125 C 89.414062 75.824219 89.335938 75.816406 89.257812 75.804688 C 89.21875 75.800781 89.179688 75.796875 89.140625 75.792969 C 89.121094 75.789062 89.097656 75.789062 89.078125 75.785156 C 89.101562 75.789062 89.128906 75.792969 89.15625 75.792969 C 89.136719 75.792969 89.121094 75.789062 89.101562 75.789062 C 88.492188 75.699219 87.894531 75.550781 87.3125 75.355469 C 87.066406 75.273438 86.828125 75.183594 86.589844 75.085938 C 86.484375 75.042969 86.707031 75.132812 86.601562 75.089844 C 86.582031 75.082031 86.558594 75.070312 86.535156 75.0625 C 86.484375 75.039062 86.429688 75.015625 86.378906 74.992188 C 86.285156 74.949219 86.191406 74.90625 86.097656 74.859375 C 85.859375 74.742188 85.625 74.621094 85.398438 74.480469 C 85.429688 74.734375 85.464844 74.988281 85.496094 75.246094 C 85.640625 75.105469 85.785156 74.96875 85.933594 74.839844 C 86.015625 74.769531 86.097656 74.699219 86.179688 74.632812 C 86.21875 74.601562 86.261719 74.570312 86.300781 74.539062 C 86.386719 74.46875 86.210938 74.605469 86.300781 74.535156 C 86.335938 74.511719 86.371094 74.484375 86.40625 74.457031 C 86.625 74.292969 86.855469 74.140625 87.089844 74 C 87.328125 73.855469 87.574219 73.71875 87.828125 73.597656 C 87.980469 73.523438 88.140625 73.453125 88.296875 73.382812 C 88.136719 73.453125 88.300781 73.382812 88.339844 73.367188 C 88.378906 73.351562 88.417969 73.335938 88.457031 73.320312 C 88.550781 73.28125 88.648438 73.246094 88.746094 73.210938 C 89.175781 73.058594 89.613281 72.9375 90.058594 72.847656 C 90.171875 72.824219 90.285156 72.804688 90.398438 72.785156 C 90.460938 72.773438 90.527344 72.761719 90.589844 72.753906 C 90.589844 72.753906 90.652344 72.742188 90.65625 72.746094 C 90.582031 72.753906 90.570312 72.757812 90.625 72.75 C 90.644531 72.746094 90.667969 72.742188 90.691406 72.742188 C 90.945312 72.710938 91.203125 72.6875 91.457031 72.679688 C 91.9375 72.660156 92.421875 72.675781 92.898438 72.730469 C 92.945312 72.734375 92.992188 72.742188 93.042969 72.746094 C 93.074219 72.75 93.175781 72.769531 93.023438 72.746094 C 93.050781 72.75 93.078125 72.753906 93.105469 72.757812 C 93.214844 72.773438 93.324219 72.789062 93.429688 72.808594 C 93.625 72.84375 93.820312 72.886719 94.015625 72.933594 C 94.390625 73.023438 94.761719 73.136719 95.121094 73.269531 C 95.199219 73.296875 95.273438 73.328125 95.351562 73.355469 C 95.386719 73.371094 95.425781 73.386719 95.464844 73.402344 C 95.480469 73.410156 95.496094 73.417969 95.511719 73.421875 C 95.582031 73.453125 95.378906 73.367188 95.464844 73.402344 C 95.582031 73.453125 95.695312 73.503906 95.8125 73.558594 C 95.753906 73.335938 95.695312 73.113281 95.636719 72.894531 C 95.535156 73.046875 95.429688 73.191406 95.316406 73.339844 C 95.285156 73.382812 95.390625 73.246094 95.355469 73.292969 C 95.347656 73.300781 95.339844 73.308594 95.332031 73.316406 C 95.316406 73.339844 95.300781 73.359375 95.285156 73.378906 C 95.25 73.417969 95.21875 73.460938 95.183594 73.5 C 95.113281 73.585938 95.039062 73.671875 94.964844 73.753906 C 94.804688 73.925781 94.636719 74.09375 94.457031 74.25 C 94.363281 74.335938 94.265625 74.421875 94.164062 74.503906 C 94.140625 74.519531 94.121094 74.539062 94.097656 74.554688 C 94.03125 74.605469 94.1875 74.488281 94.09375 74.558594 C 94.039062 74.597656 93.984375 74.636719 93.929688 74.675781 C 93.664062 74.863281 93.390625 75.03125 93.101562 75.179688 C 92.875 75.296875 92.789062 75.632812 92.925781 75.84375 C 93.074219 76.074219 93.351562 76.144531 93.59375 76.019531 C 94.539062 75.53125 95.375 74.828125 96.03125 73.996094 C 96.1875 73.796875 96.335938 73.59375 96.476562 73.382812 C 96.613281 73.179688 96.53125 72.828125 96.304688 72.71875 C 94.910156 72.0625 93.386719 71.699219 91.84375 71.699219 C 90.070312 71.699219 88.289062 72.179688 86.753906 73.066406 C 86.046875 73.476562 85.390625 73.984375 84.808594 74.558594 C 84.578125 74.78125 84.640625 75.15625 84.90625 75.320312 C 85.523438 75.703125 86.207031 75.996094 86.890625 76.234375 C 88.160156 76.6875 89.542969 76.925781 90.890625 76.796875 C 91.835938 76.703125 92.746094 76.449219 93.59375 76.019531 C 93.820312 75.902344 93.90625 75.566406 93.769531 75.351562 C 93.617188 75.121094 93.34375 75.054688 93.101562 75.179688 Z M 93.101562 75.179688 " fill-opacity="1" fill-rule="nonzero"/><path fill="#000000" d="M 90.496094 72.78125 C 90.59375 72.941406 90.667969 73.117188 90.757812 73.28125 C 90.699219 73.175781 90.738281 73.238281 90.75 73.269531 C 90.757812 73.289062 90.765625 73.308594 90.773438 73.328125 C 90.789062 73.371094 90.808594 73.414062 90.824219 73.460938 C 90.855469 73.554688 90.886719 73.648438 90.910156 73.746094 C 90.9375 73.835938 90.957031 73.925781 90.976562 74.019531 C 90.984375 74.066406 90.996094 74.113281 91 74.160156 C 91.003906 74.179688 91.007812 74.199219 91.011719 74.222656 C 91.027344 74.3125 91.003906 74.140625 91.007812 74.203125 C 91.03125 74.394531 91.042969 74.585938 91.039062 74.78125 C 91.035156 75.035156 91.265625 75.28125 91.527344 75.269531 C 91.792969 75.253906 92.011719 75.054688 92.015625 74.78125 C 92.027344 73.910156 91.789062 73.035156 91.335938 72.289062 C 91.207031 72.074219 90.894531 71.972656 90.671875 72.117188 C 90.453125 72.257812 90.355469 72.546875 90.496094 72.78125 Z M 90.496094 72.78125 " fill-opacity="1" fill-rule="nonzero"/><path fill="#000000" d="M 79.039062 77.628906 C 78.964844 78.355469 79.621094 79.003906 80.304688 79.109375 C 80.6875 79.171875 81.078125 79.109375 81.398438 78.878906 C 81.71875 78.648438 81.9375 78.335938 82.066406 77.964844 C 82.195312 77.59375 82.203125 77.167969 82.085938 76.796875 C 82.011719 76.554688 81.742188 76.375 81.488281 76.457031 C 81.242188 76.535156 81.066406 76.792969 81.144531 77.054688 C 81.164062 77.109375 81.175781 77.167969 81.1875 77.226562 C 81.210938 77.332031 81.179688 77.105469 81.1875 77.214844 C 81.1875 77.25 81.191406 77.285156 81.191406 77.320312 C 81.195312 77.375 81.1875 77.433594 81.1875 77.488281 C 81.183594 77.566406 81.195312 77.429688 81.195312 77.429688 C 81.195312 77.441406 81.191406 77.460938 81.1875 77.476562 C 81.179688 77.511719 81.171875 77.546875 81.164062 77.582031 C 81.152344 77.636719 81.132812 77.695312 81.113281 77.75 C 81.101562 77.78125 81.070312 77.816406 81.132812 77.699219 C 81.125 77.710938 81.121094 77.726562 81.113281 77.742188 C 81.101562 77.769531 81.085938 77.796875 81.070312 77.824219 C 81.054688 77.851562 81.039062 77.878906 81.023438 77.902344 C 81.011719 77.921875 80.953125 78 81.007812 77.929688 C 81.066406 77.855469 80.992188 77.945312 80.976562 77.960938 C 80.953125 77.988281 80.929688 78.011719 80.90625 78.035156 C 80.890625 78.050781 80.8125 78.113281 80.882812 78.054688 C 80.957031 78 80.875 78.058594 80.859375 78.070312 C 80.832031 78.089844 80.804688 78.105469 80.777344 78.117188 C 80.765625 78.125 80.75 78.132812 80.738281 78.140625 C 80.667969 78.175781 80.832031 78.105469 80.777344 78.125 C 80.722656 78.140625 80.671875 78.15625 80.617188 78.167969 C 80.539062 78.1875 80.753906 78.160156 80.636719 78.164062 C 80.605469 78.167969 80.574219 78.167969 80.546875 78.167969 C 80.535156 78.167969 80.464844 78.167969 80.457031 78.160156 C 80.453125 78.15625 80.59375 78.183594 80.519531 78.167969 C 80.507812 78.164062 80.496094 78.164062 80.488281 78.160156 C 80.445312 78.152344 80.332031 78.136719 80.304688 78.105469 C 80.296875 78.09375 80.414062 78.15625 80.367188 78.128906 C 80.355469 78.125 80.339844 78.117188 80.328125 78.109375 C 80.304688 78.097656 80.28125 78.085938 80.257812 78.074219 C 80.234375 78.058594 80.207031 78.039062 80.183594 78.023438 C 80.152344 78.003906 80.128906 77.96875 80.226562 78.058594 C 80.214844 78.046875 80.199219 78.035156 80.1875 78.023438 C 80.136719 77.984375 80.097656 77.9375 80.054688 77.890625 C 80.160156 78.003906 80.089844 77.933594 80.0625 77.890625 C 80.046875 77.863281 80.03125 77.835938 80.019531 77.804688 C 80 77.769531 80.011719 77.746094 80.042969 77.863281 C 80.039062 77.84375 80.03125 77.828125 80.023438 77.8125 C 80.023438 77.804688 80.003906 77.71875 80 77.71875 C 80.003906 77.71875 80.011719 77.835938 80.011719 77.792969 C 80.011719 77.777344 80.007812 77.757812 80.007812 77.738281 C 80.007812 77.703125 80.007812 77.664062 80.011719 77.628906 C 80.023438 77.511719 79.949219 77.367188 79.871094 77.285156 C 79.785156 77.203125 79.648438 77.136719 79.527344 77.144531 C 79.238281 77.15625 79.066406 77.359375 79.039062 77.628906 Z M 79.039062 77.628906 " fill-opacity="1" fill-rule="nonzero"/><path fill="#000000" d="M 80.230469 79.003906 C 80.242188 79.09375 80.257812 79.183594 80.269531 79.269531 C 80.269531 79.289062 80.292969 79.433594 80.28125 79.347656 C 80.269531 79.273438 80.28125 79.34375 80.28125 79.363281 C 80.285156 79.386719 80.289062 79.414062 80.292969 79.441406 C 80.3125 79.625 80.328125 79.808594 80.335938 79.996094 C 80.339844 80.171875 80.335938 80.347656 80.316406 80.527344 C 80.304688 80.648438 80.335938 80.425781 80.316406 80.550781 C 80.308594 80.59375 80.300781 80.640625 80.289062 80.6875 C 80.269531 80.777344 80.246094 80.867188 80.214844 80.953125 C 80.203125 80.992188 80.179688 81.03125 80.171875 81.070312 C 80.175781 81.058594 80.222656 80.964844 80.1875 81.039062 C 80.179688 81.054688 80.171875 81.074219 80.164062 81.089844 C 80.132812 81.152344 80.097656 81.214844 80.058594 81.273438 C 80.03125 81.308594 79.960938 81.386719 80.0625 81.269531 C 80.042969 81.292969 80.023438 81.320312 80 81.34375 C 79.953125 81.398438 79.902344 81.449219 79.851562 81.496094 C 79.824219 81.515625 79.800781 81.535156 79.777344 81.558594 C 79.886719 81.457031 79.816406 81.527344 79.777344 81.550781 C 79.71875 81.59375 79.660156 81.628906 79.597656 81.664062 C 79.570312 81.675781 79.539062 81.691406 79.511719 81.703125 C 79.441406 81.738281 79.5625 81.683594 79.5625 81.683594 C 79.554688 81.691406 79.53125 81.695312 79.519531 81.699219 C 79.457031 81.722656 79.390625 81.742188 79.320312 81.757812 C 79.273438 81.769531 79.148438 81.769531 79.316406 81.761719 C 79.28125 81.765625 79.242188 81.769531 79.207031 81.769531 C 79.171875 81.773438 79.140625 81.773438 79.105469 81.769531 C 79.089844 81.769531 79.078125 81.765625 79.0625 81.765625 C 79.003906 81.761719 79.191406 81.789062 79.117188 81.773438 C 79.078125 81.765625 79.042969 81.757812 79.007812 81.75 C 78.984375 81.742188 78.921875 81.734375 78.902344 81.714844 C 78.902344 81.710938 79.023438 81.773438 78.957031 81.734375 C 78.9375 81.722656 78.917969 81.714844 78.898438 81.703125 C 78.867188 81.683594 78.832031 81.664062 78.800781 81.640625 C 78.707031 81.570312 78.539062 81.5625 78.425781 81.589844 C 78.3125 81.621094 78.191406 81.710938 78.136719 81.8125 C 78.003906 82.066406 78.089844 82.320312 78.308594 82.480469 C 78.910156 82.910156 79.765625 82.769531 80.328125 82.347656 C 80.625 82.128906 80.882812 81.855469 81.035156 81.515625 C 81.21875 81.097656 81.304688 80.65625 81.3125 80.199219 C 81.320312 79.710938 81.242188 79.226562 81.167969 78.746094 C 81.152344 78.636719 81.039062 78.511719 80.945312 78.457031 C 80.839844 78.394531 80.6875 78.371094 80.570312 78.410156 C 80.453125 78.445312 80.335938 78.519531 80.277344 78.632812 C 80.214844 78.753906 80.207031 78.871094 80.230469 79.003906 Z M 80.230469 79.003906 " fill-opacity="1" fill-rule="nonzero"/><path fill="#000000" d="M 80.339844 80.457031 C 80.402344 81.222656 80.875 81.945312 81.585938 82.269531 C 81.984375 82.449219 82.390625 82.507812 82.828125 82.4375 C 83.210938 82.378906 83.558594 82.195312 83.855469 81.957031 C 84.1875 81.691406 84.433594 81.316406 84.554688 80.914062 C 84.625 80.667969 84.46875 80.371094 84.214844 80.316406 C 83.953125 80.253906 83.691406 80.394531 83.613281 80.652344 C 83.605469 80.6875 83.59375 80.71875 83.582031 80.75 C 83.578125 80.765625 83.570312 80.78125 83.566406 80.796875 C 83.59375 80.6875 83.601562 80.714844 83.585938 80.75 C 83.550781 80.820312 83.515625 80.886719 83.476562 80.949219 C 83.457031 80.980469 83.4375 81.007812 83.417969 81.035156 C 83.394531 81.066406 83.367188 81.070312 83.449219 80.996094 C 83.4375 81.007812 83.425781 81.023438 83.414062 81.035156 C 83.367188 81.089844 83.316406 81.140625 83.265625 81.1875 C 83.238281 81.210938 83.214844 81.234375 83.1875 81.253906 C 83.140625 81.292969 83.273438 81.191406 83.226562 81.226562 C 83.210938 81.234375 83.199219 81.246094 83.183594 81.253906 C 83.125 81.296875 83.066406 81.332031 83 81.367188 C 82.972656 81.382812 82.941406 81.398438 82.910156 81.414062 C 82.835938 81.449219 82.957031 81.390625 82.957031 81.394531 C 82.957031 81.394531 82.914062 81.410156 82.910156 81.414062 C 82.839844 81.441406 82.765625 81.460938 82.691406 81.480469 C 82.660156 81.488281 82.625 81.492188 82.59375 81.5 C 82.554688 81.503906 82.515625 81.496094 82.648438 81.492188 C 82.628906 81.492188 82.613281 81.496094 82.597656 81.496094 C 82.523438 81.503906 82.453125 81.503906 82.382812 81.5 C 82.351562 81.5 82.320312 81.496094 82.292969 81.492188 C 82.449219 81.503906 82.339844 81.5 82.296875 81.488281 C 82.222656 81.472656 82.148438 81.453125 82.078125 81.425781 C 82.070312 81.425781 82.03125 81.410156 82.03125 81.410156 C 82.03125 81.40625 82.148438 81.464844 82.078125 81.429688 C 82.046875 81.414062 82.015625 81.398438 81.984375 81.382812 C 81.921875 81.351562 81.863281 81.3125 81.800781 81.273438 C 81.789062 81.261719 81.773438 81.253906 81.761719 81.242188 C 81.714844 81.207031 81.84375 81.308594 81.800781 81.273438 C 81.773438 81.25 81.746094 81.226562 81.722656 81.207031 C 81.667969 81.15625 81.621094 81.105469 81.574219 81.050781 C 81.5625 81.039062 81.550781 81.023438 81.539062 81.011719 C 81.476562 80.941406 81.605469 81.109375 81.554688 81.03125 C 81.53125 81 81.511719 80.96875 81.492188 80.933594 C 81.480469 80.917969 81.371094 80.726562 81.378906 80.722656 C 81.378906 80.722656 81.425781 80.84375 81.398438 80.769531 C 81.390625 80.75 81.382812 80.730469 81.375 80.710938 C 81.363281 80.675781 81.351562 80.636719 81.34375 80.601562 C 81.332031 80.5625 81.320312 80.519531 81.316406 80.480469 C 81.3125 80.46875 81.3125 80.433594 81.304688 80.429688 C 81.324219 80.453125 81.320312 80.558594 81.3125 80.457031 C 81.289062 80.203125 81.105469 79.960938 80.824219 79.972656 C 80.578125 79.984375 80.316406 80.1875 80.339844 80.457031 Z M 80.339844 80.457031 " fill-opacity="1" fill-rule="nonzero"/><path fill="#000000" d="M 69.019531 110.980469 C 69.253906 112.996094 69.367188 115.027344 69.394531 117.058594 C 69.421875 119.007812 69.375 120.960938 69.316406 122.914062 C 69.285156 124.003906 69.25 125.097656 69.222656 126.191406 C 69.214844 126.445312 69.449219 126.6875 69.707031 126.675781 C 69.976562 126.664062 70.1875 126.460938 70.195312 126.191406 C 70.242188 124.238281 70.320312 122.285156 70.355469 120.335938 C 70.390625 118.363281 70.386719 116.386719 70.28125 114.417969 C 70.222656 113.269531 70.125 112.121094 69.992188 110.980469 C 69.976562 110.847656 69.949219 110.734375 69.847656 110.636719 C 69.765625 110.550781 69.625 110.488281 69.503906 110.496094 C 69.378906 110.5 69.25 110.542969 69.160156 110.636719 C 69.078125 110.726562 69.003906 110.855469 69.019531 110.980469 Z M 69.019531 110.980469 " fill-opacity="1" fill-rule="nonzero"/><path fill="#000000" d="M 75.210938 128.132812 C 75.667969 126.148438 75.988281 124.132812 76.199219 122.109375 C 76.40625 120.109375 76.5 118.101562 76.496094 116.09375 C 76.492188 114.972656 76.453125 113.851562 76.386719 112.730469 C 76.371094 112.476562 76.171875 112.230469 75.898438 112.246094 C 75.648438 112.253906 75.394531 112.457031 75.410156 112.730469 C 75.53125 114.722656 75.554688 116.71875 75.46875 118.710938 C 75.429688 119.707031 75.359375 120.707031 75.265625 121.699219 C 75.214844 122.203125 75.160156 122.703125 75.097656 123.207031 C 75.082031 123.324219 75.066406 123.441406 75.050781 123.558594 C 75.046875 123.59375 75.042969 123.625 75.039062 123.660156 C 75.054688 123.539062 75.046875 123.605469 75.042969 123.632812 C 75.03125 123.703125 75.023438 123.777344 75.011719 123.851562 C 74.976562 124.101562 74.9375 124.351562 74.898438 124.605469 C 74.726562 125.699219 74.519531 126.792969 74.269531 127.875 C 74.214844 128.121094 74.347656 128.410156 74.613281 128.472656 C 74.859375 128.527344 75.148438 128.398438 75.210938 128.132812 Z M 75.210938 128.132812 " fill-opacity="1" fill-rule="nonzero"/><path fill="#000000" d="M 88.832031 112.710938 C 88.898438 114.792969 88.992188 116.871094 89.105469 118.945312 C 89.21875 121.023438 89.359375 123.097656 89.519531 125.171875 C 89.613281 126.335938 89.710938 127.496094 89.816406 128.65625 C 89.828125 128.785156 89.863281 128.902344 89.957031 129 C 90.042969 129.082031 90.179688 129.148438 90.304688 129.140625 C 90.546875 129.128906 90.816406 128.925781 90.789062 128.65625 C 90.601562 126.585938 90.4375 124.511719 90.292969 122.433594 C 90.152344 120.359375 90.035156 118.28125 89.941406 116.203125 C 89.890625 115.039062 89.84375 113.875 89.808594 112.710938 C 89.796875 112.457031 89.589844 112.214844 89.320312 112.226562 C 89.0625 112.238281 88.824219 112.441406 88.832031 112.710938 Z M 88.832031 112.710938 " fill-opacity="1" fill-rule="nonzero"/><path fill="#000000" d="M 97.550781 127.75 C 97.507812 126.164062 97.46875 124.578125 97.429688 122.988281 C 97.382812 121.25 97.339844 119.507812 97.296875 117.765625 C 97.273438 116.9375 97.253906 116.105469 97.234375 115.277344 C 97.226562 115.023438 97.011719 114.777344 96.746094 114.789062 C 96.488281 114.800781 96.25 115.003906 96.257812 115.277344 C 96.296875 116.863281 96.339844 118.449219 96.378906 120.035156 C 96.421875 121.777344 96.46875 123.519531 96.511719 125.257812 C 96.53125 126.089844 96.554688 126.917969 96.574219 127.75 C 96.582031 128.003906 96.792969 128.246094 97.0625 128.234375 C 97.320312 128.222656 97.558594 128.023438 97.550781 127.75 Z M 97.550781 127.75 " fill-opacity="1" fill-rule="nonzero"/><path fill="#000000" d="M 79.722656 106.570312 C 79.722656 107.175781 79.722656 107.785156 79.722656 108.390625 C 79.722656 108.644531 79.949219 108.890625 80.210938 108.878906 C 80.472656 108.867188 80.699219 108.664062 80.699219 108.390625 C 80.699219 107.785156 80.699219 107.175781 80.699219 106.570312 C 80.699219 106.316406 80.472656 106.070312 80.210938 106.082031 C 79.945312 106.09375 79.722656 106.296875 79.722656 106.570312 Z M 79.722656 106.570312 " fill-opacity="1" fill-rule="nonzero"/><path fill="#000000" d="M 81.246094 102.925781 C 81.265625 103.03125 81.285156 103.132812 81.300781 103.238281 C 81.304688 103.265625 81.308594 103.289062 81.3125 103.316406 C 81.320312 103.382812 81.308594 103.296875 81.304688 103.277344 C 81.3125 103.324219 81.316406 103.371094 81.324219 103.417969 C 81.339844 103.585938 81.351562 103.753906 81.355469 103.921875 C 81.363281 104.273438 81.339844 104.625 81.3125 104.972656 C 81.292969 105.226562 81.550781 105.472656 81.800781 105.460938 C 82.082031 105.449219 82.265625 105.246094 82.289062 104.972656 C 82.3125 104.617188 82.339844 104.257812 82.332031 103.898438 C 82.320312 103.484375 82.261719 103.074219 82.1875 102.667969 C 82.140625 102.417969 81.824219 102.25 81.585938 102.328125 C 81.316406 102.414062 81.199219 102.65625 81.246094 102.925781 Z M 81.246094 102.925781 " fill-opacity="1" fill-rule="nonzero"/><path fill="#000000" d="M 84.292969 102.925781 C 84.292969 103.609375 84.292969 104.292969 84.292969 104.976562 C 84.292969 105.230469 84.515625 105.472656 84.777344 105.460938 C 85.042969 105.449219 85.265625 105.246094 85.265625 104.976562 C 85.265625 104.292969 85.265625 103.609375 85.265625 102.925781 C 85.265625 102.671875 85.042969 102.429688 84.777344 102.441406 C 84.515625 102.453125 84.292969 102.652344 84.292969 102.925781 Z M 84.292969 102.925781 " fill-opacity="1" fill-rule="nonzero"/><path fill="#000000" d="M 84.035156 110.121094 C 84.128906 110.800781 84.226562 111.480469 84.320312 112.164062 C 84.335938 112.273438 84.453125 112.398438 84.542969 112.453125 C 84.648438 112.515625 84.800781 112.539062 84.917969 112.503906 C 85.035156 112.464844 85.152344 112.390625 85.210938 112.277344 C 85.277344 112.15625 85.277344 112.042969 85.257812 111.90625 C 85.164062 111.222656 85.070312 110.542969 84.972656 109.863281 C 84.957031 109.75 84.84375 109.625 84.75 109.574219 C 84.644531 109.511719 84.492188 109.484375 84.375 109.523438 C 84.257812 109.5625 84.144531 109.632812 84.082031 109.746094 C 84.019531 109.871094 84.015625 109.984375 84.035156 110.121094 Z M 84.035156 110.121094 " fill-opacity="1" fill-rule="nonzero"/><path fill="#000000" d="M 81.789062 115.320312 C 81.722656 115.675781 81.65625 116.03125 81.609375 116.390625 C 81.558594 116.761719 81.546875 117.128906 81.558594 117.5 C 81.566406 117.753906 81.777344 117.996094 82.046875 117.984375 C 82.304688 117.972656 82.542969 117.773438 82.535156 117.5 C 82.523438 117.136719 82.535156 116.777344 82.578125 116.417969 C 82.585938 116.355469 82.5625 116.53125 82.570312 116.472656 C 82.574219 116.453125 82.578125 116.429688 82.582031 116.410156 C 82.585938 116.375 82.589844 116.339844 82.597656 116.300781 C 82.609375 116.226562 82.621094 116.148438 82.636719 116.070312 C 82.667969 115.90625 82.699219 115.742188 82.726562 115.578125 C 82.75 115.445312 82.75 115.320312 82.679688 115.203125 C 82.621094 115.101562 82.503906 115.007812 82.386719 114.980469 C 82.148438 114.925781 81.835938 115.050781 81.789062 115.320312 Z M 81.789062 115.320312 " fill-opacity="1" fill-rule="nonzero"/><path fill="#000000" d="M 79.261719 114.769531 C 79.261719 115.140625 79.257812 115.515625 79.210938 115.886719 C 79.195312 116 79.226562 115.765625 79.210938 115.878906 C 79.207031 115.914062 79.199219 115.949219 79.195312 115.984375 C 79.183594 116.054688 79.171875 116.125 79.160156 116.191406 C 79.128906 116.359375 79.09375 116.523438 79.0625 116.691406 C 79.011719 116.9375 79.132812 117.226562 79.402344 117.289062 C 79.644531 117.34375 79.949219 117.214844 80 116.949219 C 80.070312 116.601562 80.136719 116.257812 80.183594 115.90625 C 80.230469 115.53125 80.238281 115.148438 80.238281 114.769531 C 80.234375 114.515625 80.011719 114.269531 79.75 114.28125 C 79.484375 114.292969 79.261719 114.496094 79.261719 114.769531 Z M 79.261719 114.769531 " fill-opacity="1" fill-rule="nonzero"/><path fill="#000000" d="M 84.707031 119.78125 C 84.78125 120.390625 84.859375 120.996094 84.933594 121.605469 C 84.949219 121.738281 84.976562 121.851562 85.074219 121.949219 C 85.160156 122.03125 85.300781 122.097656 85.421875 122.089844 C 85.546875 122.085938 85.675781 122.042969 85.765625 121.949219 C 85.847656 121.859375 85.921875 121.730469 85.90625 121.605469 C 85.832031 120.996094 85.757812 120.390625 85.679688 119.78125 C 85.664062 119.648438 85.636719 119.539062 85.539062 119.441406 C 85.453125 119.355469 85.316406 119.292969 85.195312 119.296875 C 85.066406 119.304688 84.9375 119.34375 84.847656 119.441406 C 84.769531 119.527344 84.691406 119.660156 84.707031 119.78125 Z M 84.707031 119.78125 " fill-opacity="1" fill-rule="nonzero"/><path fill="#000000" d="M 80.867188 122.28125 C 80.867188 123.117188 80.867188 123.953125 80.867188 124.789062 C 80.867188 125.042969 81.089844 125.285156 81.351562 125.273438 C 81.617188 125.261719 81.839844 125.058594 81.839844 124.789062 C 81.839844 123.953125 81.839844 123.117188 81.839844 122.28125 C 81.839844 122.027344 81.617188 121.785156 81.351562 121.796875 C 81.089844 121.808594 80.867188 122.011719 80.867188 122.28125 Z M 80.867188 122.28125 " fill-opacity="1" fill-rule="nonzero"/><path fill="#000000" d="M 78.125 123.878906 C 78.125 124.332031 78.125 124.789062 78.125 125.242188 C 78.125 125.496094 78.347656 125.742188 78.613281 125.730469 C 78.875 125.71875 79.097656 125.515625 79.097656 125.242188 C 79.097656 124.789062 79.097656 124.332031 79.097656 123.878906 C 79.097656 123.625 78.875 123.378906 78.613281 123.390625 C 78.347656 123.402344 78.125 123.605469 78.125 123.878906 Z M 78.125 123.878906 " fill-opacity="1" fill-rule="nonzero"/><path fill="#000000" d="M 84.0625 125.699219 C 84.0625 126.535156 84.0625 127.371094 84.0625 128.203125 C 84.0625 128.457031 84.285156 128.703125 84.550781 128.691406 C 84.8125 128.679688 85.039062 128.476562 85.039062 128.203125 C 85.039062 127.367188 85.039062 126.535156 85.039062 125.699219 C 85.039062 125.445312 84.8125 125.203125 84.550781 125.214844 C 84.285156 125.226562 84.0625 125.425781 84.0625 125.699219 Z M 84.0625 125.699219 " fill-opacity="1" fill-rule="nonzero"/><path fill="#000000" d="M 78.125 99.511719 C 78.125 100.34375 78.125 101.179688 78.125 102.015625 C 78.125 102.269531 78.347656 102.511719 78.613281 102.5 C 78.875 102.488281 79.097656 102.289062 79.097656 102.015625 C 79.097656 101.179688 79.097656 100.34375 79.097656 99.511719 C 79.097656 99.253906 78.875 99.011719 78.613281 99.023438 C 78.347656 99.035156 78.125 99.238281 78.125 99.511719 Z M 78.125 99.511719 " fill-opacity="1" fill-rule="nonzero"/><path fill="#000000" d="M 83.605469 93.816406 C 83.605469 94.347656 83.605469 94.878906 83.605469 95.410156 C 83.605469 95.664062 83.832031 95.910156 84.09375 95.898438 C 84.355469 95.886719 84.582031 95.683594 84.582031 95.410156 C 84.582031 94.878906 84.582031 94.347656 84.582031 93.816406 C 84.582031 93.5625 84.355469 93.320312 84.09375 93.332031 C 83.828125 93.34375 83.605469 93.542969 83.605469 93.816406 Z M 83.605469 93.816406 " fill-opacity="1" fill-rule="nonzero"/><path fill="#000000" d="M 87.246094 98.738281 C 87.320312 98.96875 87.394531 99.195312 87.46875 99.421875 C 87.507812 99.542969 87.582031 99.648438 87.691406 99.714844 C 87.746094 99.75 87.808594 99.769531 87.871094 99.773438 C 87.9375 99.785156 88.003906 99.785156 88.066406 99.761719 C 88.183594 99.726562 88.296875 99.652344 88.359375 99.539062 C 88.417969 99.425781 88.449219 99.289062 88.40625 99.164062 C 88.332031 98.9375 88.257812 98.707031 88.183594 98.480469 C 88.144531 98.359375 88.070312 98.253906 87.960938 98.191406 C 87.90625 98.15625 87.84375 98.136719 87.78125 98.132812 C 87.714844 98.117188 87.648438 98.121094 87.585938 98.140625 C 87.46875 98.179688 87.355469 98.253906 87.292969 98.363281 C 87.234375 98.476562 87.203125 98.613281 87.246094 98.738281 Z M 87.246094 98.738281 " fill-opacity="1" fill-rule="nonzero"/><path fill="#000000" d="M 82.234375 97.914062 C 82.234375 98.445312 82.234375 98.980469 82.234375 99.511719 C 82.234375 99.765625 82.460938 100.007812 82.722656 99.996094 C 82.988281 99.984375 83.210938 99.78125 83.210938 99.511719 C 83.210938 98.976562 83.210938 98.445312 83.210938 97.914062 C 83.210938 97.660156 82.984375 97.417969 82.722656 97.429688 C 82.457031 97.441406 82.234375 97.644531 82.234375 97.914062 Z M 82.234375 97.914062 " fill-opacity="1" fill-rule="nonzero"/><path fill="#000000" d="M 90.394531 84.265625 C 90.71875 84.421875 91.039062 84.585938 91.328125 84.808594 C 91.292969 84.78125 91.261719 84.757812 91.230469 84.730469 C 91.464844 84.914062 91.675781 85.128906 91.882812 85.339844 C 92.0625 85.523438 92.398438 85.53125 92.574219 85.339844 C 92.753906 85.144531 92.761719 84.851562 92.574219 84.65625 C 92.320312 84.394531 92.066406 84.152344 91.773438 83.933594 C 91.5 83.730469 91.191406 83.574219 90.886719 83.425781 C 90.765625 83.367188 90.640625 83.339844 90.511719 83.375 C 90.398438 83.40625 90.273438 83.496094 90.21875 83.597656 C 90.101562 83.816406 90.148438 84.144531 90.394531 84.265625 Z M 90.394531 84.265625 " fill-opacity="1" fill-rule="nonzero"/><path fill="#000000" d="M 92.328125 82.027344 C 92.550781 82.113281 92.777344 82.195312 93.003906 82.285156 C 93.082031 82.316406 93.160156 82.34375 93.238281 82.375 C 93.273438 82.390625 93.308594 82.40625 93.34375 82.421875 C 93.359375 82.425781 93.378906 82.433594 93.398438 82.441406 C 93.382812 82.433594 93.265625 82.386719 93.339844 82.417969 C 93.65625 82.554688 93.96875 82.707031 94.277344 82.855469 C 94.398438 82.914062 94.519531 82.941406 94.652344 82.90625 C 94.765625 82.875 94.890625 82.785156 94.945312 82.679688 C 95.058594 82.464844 95.015625 82.136719 94.769531 82.015625 C 94.453125 81.867188 94.140625 81.710938 93.816406 81.574219 C 93.410156 81.402344 93 81.246094 92.585938 81.089844 C 92.476562 81.046875 92.308594 81.078125 92.210938 81.136719 C 92.109375 81.195312 92.011719 81.3125 91.988281 81.429688 C 91.921875 81.707031 92.070312 81.929688 92.328125 82.027344 Z M 92.328125 82.027344 " fill-opacity="1" fill-rule="nonzero"/><path fill="#000000" d="M 94.523438 79.828125 C 95.207031 79.753906 95.894531 79.679688 96.578125 79.605469 C 96.710938 79.589844 96.828125 79.5625 96.925781 79.464844 C 97.007812 79.378906 97.074219 79.242188 97.066406 79.121094 C 97.054688 78.878906 96.851562 78.605469 96.578125 78.632812 C 95.894531 78.707031 95.207031 78.78125 94.523438 78.855469 C 94.390625 78.871094 94.277344 78.898438 94.179688 78.996094 C 94.09375 79.082031 94.03125 79.21875 94.035156 79.339844 C 94.046875 79.582031 94.253906 79.855469 94.523438 79.828125 Z M 94.523438 79.828125 " fill-opacity="1" fill-rule="nonzero"/><path fill="#000000" d="M 67.722656 83.417969 C 68.339844 82.742188 68.953125 82.0625 69.570312 81.386719 C 69.742188 81.199219 69.769531 80.882812 69.570312 80.699219 C 69.382812 80.527344 69.0625 80.5 68.878906 80.699219 C 68.265625 81.375 67.648438 82.054688 67.035156 82.730469 C 66.863281 82.917969 66.832031 83.234375 67.035156 83.417969 C 67.21875 83.589844 67.539062 83.621094 67.722656 83.417969 Z M 67.722656 83.417969 " fill-opacity="1" fill-rule="nonzero"/><path fill="#000000" d="M 70.292969 84.007812 C 70.460938 83.699219 70.644531 83.394531 70.847656 83.101562 C 70.941406 82.960938 71.042969 82.820312 71.148438 82.683594 C 71.160156 82.667969 71.175781 82.652344 71.1875 82.632812 C 71.171875 82.65625 71.132812 82.703125 71.171875 82.65625 C 71.199219 82.617188 71.230469 82.578125 71.261719 82.542969 C 71.316406 82.472656 71.375 82.402344 71.433594 82.332031 C 71.519531 82.230469 71.578125 82.125 71.578125 81.988281 C 71.578125 81.867188 71.523438 81.726562 71.433594 81.644531 C 71.253906 81.476562 70.921875 81.4375 70.746094 81.644531 C 70.253906 82.222656 69.816406 82.847656 69.449219 83.519531 C 69.328125 83.742188 69.386719 84.058594 69.625 84.183594 C 69.851562 84.304688 70.164062 84.246094 70.292969 84.007812 Z M 70.292969 84.007812 " fill-opacity="1" fill-rule="nonzero"/><path fill="#000000" d="M 73.320312 85.863281 C 73.617188 85.328125 73.914062 84.792969 74.214844 84.257812 C 74.335938 84.035156 74.273438 83.714844 74.039062 83.59375 C 73.808594 83.472656 73.503906 83.527344 73.371094 83.765625 C 73.074219 84.300781 72.777344 84.835938 72.480469 85.371094 C 72.355469 85.59375 72.417969 85.914062 72.65625 86.039062 C 72.882812 86.15625 73.191406 86.101562 73.320312 85.863281 Z M 73.320312 85.863281 " fill-opacity="1" fill-rule="nonzero"/><path fill="#000000" d="M 102.433594 126.511719 C 102.402344 126.34375 102.371094 126.175781 102.34375 126.007812 C 102.332031 125.925781 102.316406 125.84375 102.304688 125.761719 C 102.300781 125.722656 102.292969 125.683594 102.289062 125.644531 C 102.285156 125.605469 102.265625 125.4375 102.28125 125.597656 C 102.246094 125.269531 102.203125 124.941406 102.175781 124.609375 C 102.121094 123.9375 102.101562 123.261719 102.113281 122.585938 C 102.125 121.914062 102.171875 121.238281 102.25 120.570312 C 102.257812 120.488281 102.269531 120.402344 102.277344 120.320312 C 102.28125 120.304688 102.300781 120.164062 102.289062 120.253906 C 102.277344 120.335938 102.285156 120.265625 102.289062 120.246094 C 102.292969 120.21875 102.296875 120.1875 102.300781 120.160156 C 102.324219 119.996094 102.351562 119.832031 102.378906 119.667969 C 102.433594 119.335938 102.496094 119.003906 102.566406 118.671875 C 102.710938 118.011719 102.882812 117.359375 103.085938 116.714844 C 103.1875 116.394531 103.296875 116.074219 103.414062 115.757812 C 103.476562 115.597656 103.535156 115.4375 103.597656 115.277344 C 103.628906 115.203125 103.65625 115.132812 103.6875 115.058594 C 103.703125 115.023438 103.71875 114.984375 103.730469 114.949219 C 103.738281 114.933594 103.746094 114.914062 103.753906 114.894531 C 103.761719 114.878906 103.769531 114.859375 103.777344 114.839844 C 103.769531 114.863281 103.757812 114.882812 103.75 114.902344 C 104.296875 113.664062 104.921875 112.472656 105.679688 111.347656 C 105.867188 111.070312 106.0625 110.792969 106.265625 110.523438 C 106.316406 110.457031 106.367188 110.390625 106.417969 110.324219 C 106.429688 110.308594 106.441406 110.292969 106.453125 110.277344 C 106.449219 110.285156 106.382812 110.371094 106.429688 110.308594 C 106.460938 110.269531 106.492188 110.230469 106.523438 110.191406 C 106.625 110.0625 106.730469 109.933594 106.835938 109.804688 C 107.269531 109.285156 107.726562 108.789062 108.210938 108.316406 C 108.328125 108.199219 108.449219 108.082031 108.570312 107.96875 C 108.757812 107.796875 108.761719 107.457031 108.570312 107.28125 C 108.371094 107.101562 108.082031 107.097656 107.882812 107.28125 C 106.855469 108.238281 105.933594 109.304688 105.121094 110.449219 C 104.335938 111.558594 103.65625 112.742188 103.097656 113.984375 C 102.519531 115.261719 102.058594 116.589844 101.730469 117.957031 C 101.410156 119.308594 101.214844 120.699219 101.152344 122.089844 C 101.09375 123.492188 101.183594 124.894531 101.40625 126.28125 C 101.433594 126.445312 101.460938 126.609375 101.492188 126.773438 C 101.539062 127.023438 101.855469 127.1875 102.09375 127.109375 C 102.359375 127.023438 102.484375 126.78125 102.433594 126.511719 Z M 102.433594 126.511719 " fill-opacity="1" fill-rule="nonzero"/></svg>