<svg xmlns="http://www.w3.org/2000/svg" xmlns:xlink="http://www.w3.org/1999/xlink" width="250" zoomAndPan="magnify" viewBox="0 0 187.5 187.499992" height="250" preserveAspectRatio="xMidYMid meet" version="1.0"><defs><clipPath id="5314452294"><path d="M 31.109375 22 L 155 22 L 155 166 L 31.109375 166 Z M 31.109375 22 " clip-rule="nonzero"/></clipPath><clipPath id="2f49c7e2e3"><path d="M 31.109375 21.4375 L 156 21.4375 L 156 153 L 31.109375 153 Z M 31.109375 21.4375 " clip-rule="nonzero"/></clipPath><clipPath id="ea69dc1314"><path d="M 65 149 L 156 149 L 156 166.1875 L 65 166.1875 Z M 65 149 " clip-rule="nonzero"/></clipPath><clipPath id="c1f1f72292"><path d="M 33 151 L 68 151 L 68 166.1875 L 33 166.1875 Z M 33 151 " clip-rule="nonzero"/></clipPath></defs><g clip-path="url(#5314452294)"><path fill="#ffffff" d="M 154.464844 147.957031 C 154.449219 147.835938 154.457031 147.726562 154.488281 147.628906 C 152.253906 140.160156 149.710938 132.789062 146.84375 125.539062 C 143.667969 117.511719 140.132812 109.632812 136.246094 101.925781 C 134.210938 97.890625 132.089844 93.898438 130.003906 89.886719 C 127.753906 85.550781 125.484375 81.21875 123.082031 76.964844 C 122.78125 76.429688 122.480469 75.894531 122.179688 75.363281 C 122.078125 75.164062 121.96875 74.964844 121.863281 74.769531 C 121.855469 74.765625 121.847656 74.761719 121.839844 74.761719 C 117.367188 66.832031 112.90625 58.898438 108.390625 50.992188 C 103.558594 42.535156 98.671875 34.105469 93.679688 25.742188 C 93.046875 24.675781 92.410156 23.613281 91.769531 22.550781 C 91.578125 22.226562 91.164062 22.402344 91.121094 22.730469 C 90.601562 26.597656 90.070312 30.46875 89.667969 34.351562 C 89.5 35.96875 89.527344 37.59375 88.773438 39.082031 C 88.558594 39.511719 88.269531 39.953125 87.828125 40.175781 C 87.238281 40.46875 86.46875 40.230469 85.847656 40.160156 C 84.265625 39.976562 82.679688 39.824219 81.089844 39.695312 C 75.441406 39.253906 69.777344 39.210938 64.148438 39.609375 C 63.273438 39.640625 62.402344 39.695312 61.535156 39.765625 C 59.867188 39.902344 58.214844 40.101562 56.582031 40.421875 C 52.117188 41.058594 47.691406 41.992188 43.335938 43.234375 C 42.40625 43.5 41.519531 43.917969 40.582031 43.46875 C 39.832031 43.109375 39.203125 42.476562 38.765625 41.777344 C 38.339844 41.101562 38.105469 40.332031 37.832031 39.585938 C 37.554688 38.835938 37.277344 38.082031 37 37.328125 C 35.875 34.25 34.75 31.167969 33.839844 28.015625 C 33.726562 27.625 33.1875 27.726562 33.15625 28.109375 C 32.425781 37.128906 31.988281 46.171875 31.875 55.222656 C 31.785156 62.421875 31.894531 69.628906 32.246094 76.824219 C 32.597656 84.089844 33.210938 91.34375 33.753906 98.597656 C 34.355469 106.605469 34.808594 114.625 34.960938 122.65625 C 35.132812 131.46875 35.011719 140.289062 34.632812 149.09375 C 34.621094 149.351562 34.609375 149.613281 34.597656 149.871094 C 34.957031 150.917969 35.148438 151.988281 35.246094 153.074219 C 35.78125 153.328125 36.316406 153.578125 36.855469 153.828125 C 40.027344 155.296875 43.222656 156.703125 46.441406 158.054688 C 49.574219 159.375 52.730469 160.632812 55.910156 161.839844 C 58.859375 162.957031 61.832031 164.027344 64.816406 165.050781 C 64.925781 165.171875 65.070312 165.265625 65.242188 165.308594 C 65.664062 165.417969 66.085938 165.527344 66.507812 165.632812 C 66.507812 165.632812 66.507812 165.632812 66.507812 165.636719 C 66.621094 165.6875 66.746094 165.710938 66.875 165.699219 C 73.078125 165.089844 79.273438 164.398438 85.460938 163.621094 C 91.972656 162.800781 98.476562 161.890625 104.964844 160.882812 C 111.707031 159.839844 118.4375 158.691406 125.144531 157.445312 C 131.703125 156.222656 138.246094 154.90625 144.765625 153.492188 C 148.148438 152.757812 151.527344 152 154.894531 151.214844 C 154.777344 150.125 154.636719 149.039062 154.464844 147.957031 Z M 154.464844 147.957031 " fill-opacity="1" fill-rule="nonzero"/></g><path fill="#ffffff" d="M 39.664062 57.753906 C 40.316406 57.226562 41.277344 56.546875 42.53125 55.941406 C 46.125 54.203125 49.410156 54.402344 50.070312 54.449219 C 54.085938 54.75 56.835938 56.667969 57.875 57.480469 C 57.023438 58.488281 55.074219 60.484375 51.945312 61.328125 C 45.375 63.097656 39.972656 58.054688 39.664062 57.753906 Z M 39.664062 57.753906 " fill-opacity="1" fill-rule="nonzero"/><path fill="#4e4e4e" d="M 100.53125 50.652344 C 97.207031 46.734375 91.613281 45.714844 86.773438 46.625 C 83.984375 47.144531 81.324219 48.273438 78.835938 49.621094 C 76.550781 50.855469 73.640625 52.421875 73.574219 55.390625 C 73.570312 55.636719 73.601562 55.882812 73.644531 56.121094 C 73.628906 57.40625 74.058594 58.730469 74.742188 59.839844 C 76.082031 62.019531 78.339844 63.542969 80.675781 64.472656 C 86.023438 66.59375 92 65.257812 97.023438 62.878906 C 99.183594 61.855469 101.351562 60.386719 102.289062 58.097656 C 103.351562 55.5 102.25 52.671875 100.53125 50.652344 Z M 100.53125 50.652344 " fill-opacity="1" fill-rule="nonzero"/><path fill="#ffffff" d="M 92.863281 58.523438 C 85.503906 62.304688 77.566406 57.550781 76.949219 57.164062 C 77.5625 56.554688 78.449219 55.765625 79.613281 54.984375 C 80.519531 54.375 83.4375 52.539062 87.636719 52.015625 C 92.59375 51.390625 96.480469 52.953125 98.125 53.730469 C 97.183594 55.144531 95.527344 57.15625 92.863281 58.523438 Z M 92.863281 58.523438 " fill-opacity="1" fill-rule="nonzero"/><path fill="#4e4e4e" d="M 61.476562 39.839844 C 59.117188 40.035156 56.800781 40.351562 54.507812 40.945312 C 53.414062 41.230469 52.25 41.480469 51.222656 41.949219 C 50.777344 42.152344 50.40625 42.449219 50.035156 42.738281 C 52.332031 45.777344 54.925781 48.722656 58.652344 49.921875 C 60.605469 50.546875 62.832031 50.65625 64.761719 49.886719 C 66.78125 49.085938 68.265625 47.496094 69.367188 45.660156 C 70.410156 43.933594 71.101562 42.027344 72.015625 40.234375 C 68.5625 39.535156 64.988281 39.554688 61.476562 39.839844 Z M 61.476562 39.839844 " fill-opacity="1" fill-rule="nonzero"/><path fill="#4e4e4e" d="M 115.472656 158.152344 C 117.550781 157.945312 119.628906 157.753906 121.679688 157.335938 C 123.265625 157.015625 124.828125 156.59375 126.359375 156.082031 C 127.566406 151.976562 127.664062 147.574219 126.683594 143.40625 C 125.699219 139.222656 123.542969 135.367188 120.597656 132.253906 C 119.234375 130.8125 117.6875 129.550781 116.015625 128.480469 C 115.414062 129.351562 114.578125 130.066406 113.988281 130.949219 C 113.179688 132.152344 112.648438 133.488281 112.132812 134.835938 C 111.148438 137.421875 110.34375 140.066406 109.800781 142.78125 C 109.25 145.515625 108.792969 148.300781 108.789062 151.101562 C 108.785156 153.734375 109.230469 156.300781 109.605469 158.894531 C 111.566406 158.804688 113.523438 158.347656 115.472656 158.152344 Z M 115.472656 158.152344 " fill-opacity="1" fill-rule="nonzero"/><path fill="#b1b1b1" d="M 67.75 70.554688 C 68.601562 69.816406 68.925781 68.617188 68.921875 67.527344 C 68.921875 67.238281 68.90625 66.933594 68.808594 66.660156 C 68.640625 66.1875 68.296875 65.875 67.839844 65.699219 C 67.457031 65.550781 67.011719 65.511719 66.59375 65.53125 C 65.914062 65.308594 65.164062 65.347656 64.484375 65.652344 C 64.054688 65.839844 63.722656 66.140625 63.480469 66.5 C 62.953125 67.003906 62.554688 67.667969 62.382812 68.347656 C 62.140625 69.308594 62.253906 70.441406 62.984375 71.171875 C 63.859375 72.054688 65.261719 71.976562 66.324219 71.527344 C 66.734375 71.355469 67.117188 71.105469 67.445312 70.804688 C 67.503906 70.757812 67.558594 70.707031 67.617188 70.65625 C 67.660156 70.621094 67.707031 70.59375 67.75 70.554688 Z M 67.75 70.554688 " fill-opacity="1" fill-rule="nonzero"/><path fill="#b1b1b1" d="M 74.792969 67.097656 C 74.722656 66.625 74.480469 66.207031 74.179688 65.84375 C 73.589844 65.132812 72.640625 64.738281 71.734375 64.710938 C 70.960938 64.691406 70.164062 64.984375 69.609375 65.53125 C 69.480469 65.574219 69.363281 65.644531 69.265625 65.753906 C 68.671875 66.433594 68.488281 67.28125 68.65625 68.160156 C 68.8125 68.953125 69.359375 69.683594 70.074219 70.054688 C 70.5625 70.308594 71.113281 70.421875 71.664062 70.410156 C 72.125 70.425781 72.59375 70.328125 73 70.121094 C 73.671875 69.828125 74.25 69.328125 74.566406 68.632812 C 74.792969 68.132812 74.875 67.640625 74.792969 67.097656 Z M 74.792969 67.097656 " fill-opacity="1" fill-rule="nonzero"/><path fill="#b1b1b1" d="M 128.601562 87.636719 C 127.550781 86.21875 126.644531 84.707031 125.757812 83.179688 C 124.871094 81.648438 123.945312 80.050781 123.269531 78.410156 C 122.9375 77.601562 122.710938 76.746094 122.363281 75.945312 C 122.199219 75.5625 121.996094 75.207031 121.800781 74.84375 C 119.128906 73.96875 115.984375 73.449219 113.851562 75.714844 C 111.988281 77.695312 111.796875 80.699219 112.269531 83.242188 C 113.285156 88.742188 118.15625 94.328125 124.207031 93.566406 C 125.917969 93.347656 127.527344 92.574219 128.605469 91.203125 C 129.050781 90.632812 129.394531 90.007812 129.617188 89.351562 C 129.292969 88.765625 128.988281 88.164062 128.601562 87.636719 Z M 128.601562 87.636719 " fill-opacity="1" fill-rule="nonzero"/><path fill="#b1b1b1" d="M 119.902344 101.949219 C 119.828125 101.683594 119.710938 101.4375 119.5625 101.214844 C 119.375 100.800781 119.09375 100.433594 118.6875 100.164062 C 118.183594 99.824219 117.554688 99.757812 116.957031 99.875 C 116.890625 99.871094 116.828125 99.863281 116.765625 99.863281 C 115.714844 99.878906 114.75 100.507812 114.25 101.421875 C 113.75 102.339844 113.691406 103.476562 114.222656 104.394531 C 114.75 105.296875 115.714844 105.832031 116.738281 105.9375 C 118.84375 106.152344 120.457031 103.917969 119.902344 101.949219 Z M 119.902344 101.949219 " fill-opacity="1" fill-rule="nonzero"/><path fill="#b1b1b1" d="M 141.535156 116.070312 C 140.109375 112.667969 138.703125 109.257812 137.234375 105.875 C 136.214844 103.53125 135.117188 101.128906 133.617188 99.035156 C 126.386719 108.703125 133.011719 120.875 141.640625 129.152344 C 144.035156 131.445312 146.71875 133.550781 149.613281 135.46875 C 147.152344 128.910156 144.242188 122.519531 141.535156 116.070312 Z M 141.535156 116.070312 " fill-opacity="1" fill-rule="nonzero"/><g clip-path="url(#2f49c7e2e3)"><path fill="#000000" d="M 35.769531 151.304688 C 36.167969 142.964844 36.332031 134.613281 36.25 126.265625 C 36.164062 117.949219 35.78125 109.644531 35.1875 101.351562 C 34.667969 94.140625 34.035156 86.9375 33.628906 79.71875 C 33.222656 72.5 33.050781 65.273438 33.085938 58.042969 C 33.132812 49.339844 33.476562 40.644531 34.101562 31.964844 C 34.191406 30.703125 34.289062 29.445312 34.390625 28.183594 C 33.769531 28.269531 33.152344 28.351562 32.53125 28.433594 C 33.378906 31.371094 34.414062 34.25 35.460938 37.117188 C 35.980469 38.535156 36.46875 39.972656 37.03125 41.375 C 37.574219 42.730469 38.53125 44.003906 39.867188 44.664062 C 41.46875 45.453125 42.980469 44.730469 44.574219 44.292969 C 46.195312 43.847656 47.828125 43.441406 49.46875 43.078125 C 52.726562 42.355469 56.019531 41.789062 59.332031 41.398438 C 66.003906 40.617188 72.746094 40.507812 79.449219 40.953125 C 81.117188 41.0625 82.78125 41.207031 84.441406 41.382812 C 85.714844 41.515625 87.292969 42.019531 88.480469 41.335938 C 90.226562 40.335938 90.613281 37.886719 90.75 36.070312 C 91.078125 31.632812 91.765625 27.210938 92.355469 22.800781 C 91.765625 22.960938 91.179688 23.121094 90.59375 23.28125 C 95.609375 31.628906 100.515625 40.039062 105.359375 48.488281 C 110.273438 57.050781 115.117188 65.652344 119.957031 74.257812 C 124.652344 82.617188 129.121094 91.089844 133.515625 99.613281 C 137.53125 107.390625 141.222656 115.328125 144.523438 123.4375 C 147.574219 130.941406 150.289062 138.578125 152.65625 146.320312 C 153.011719 147.472656 153.355469 148.628906 153.695312 149.789062 C 154.035156 150.957031 155.863281 150.457031 155.519531 149.285156 C 153.164062 141.222656 150.449219 133.265625 147.359375 125.457031 C 144.164062 117.378906 140.609375 109.453125 136.703125 101.699219 C 134.667969 97.660156 132.542969 93.671875 130.460938 89.660156 C 128.207031 85.324219 125.941406 80.992188 123.539062 76.738281 C 118.652344 68.074219 113.777344 59.402344 108.84375 50.765625 C 104.015625 42.308594 99.128906 33.878906 94.136719 25.515625 C 93.5 24.449219 92.863281 23.386719 92.226562 22.324219 C 91.699219 21.445312 90.582031 21.925781 90.464844 22.800781 C 89.945312 26.671875 89.410156 30.542969 89.007812 34.425781 C 88.847656 36 88.914062 37.4375 88.199219 38.855469 C 88.035156 39.179688 87.816406 39.582031 87.464844 39.734375 C 86.988281 39.933594 86.285156 39.691406 85.789062 39.636719 C 84.203125 39.453125 82.617188 39.300781 81.027344 39.171875 C 68.285156 38.167969 55.429688 39.222656 43.117188 42.734375 C 42.375 42.945312 41.578125 43.367188 40.824219 43.027344 C 40.160156 42.730469 39.601562 42.15625 39.222656 41.550781 C 38.824219 40.917969 38.605469 40.199219 38.347656 39.503906 C 38.070312 38.75 37.792969 37.996094 37.515625 37.242188 C 36.386719 34.167969 35.265625 31.082031 34.355469 27.933594 C 34.046875 26.867188 32.582031 27.144531 32.5 28.183594 C 31.765625 37.203125 31.332031 46.246094 31.21875 55.292969 C 31.128906 62.496094 31.238281 69.703125 31.589844 76.898438 C 31.941406 84.164062 32.550781 91.417969 33.097656 98.671875 C 33.699219 106.683594 34.148438 114.699219 34.304688 122.734375 C 34.472656 131.542969 34.351562 140.363281 33.976562 149.167969 C 33.945312 149.878906 33.914062 150.59375 33.878906 151.304688 C 33.820312 152.523438 35.710938 152.519531 35.769531 151.304688 Z M 35.769531 151.304688 " fill-opacity="1" fill-rule="nonzero"/></g><g clip-path="url(#ea69dc1314)"><path fill="#000000" d="M 66.824219 166.078125 C 73.035156 165.46875 79.234375 164.777344 85.421875 163.996094 C 91.917969 163.179688 98.402344 162.273438 104.875 161.269531 C 111.5625 160.234375 118.234375 159.082031 124.894531 157.867188 C 129.707031 156.988281 134.519531 156.082031 139.304688 155.046875 C 143.898438 154.054688 148.460938 152.9375 153.023438 151.800781 C 153.730469 151.625 154.441406 151.449219 155.148438 151.273438 C 156.328125 150.976562 155.828125 149.148438 154.644531 149.445312 C 149.894531 150.632812 145.144531 151.816406 140.367188 152.878906 C 135.800781 153.894531 131.210938 154.78125 126.617188 155.632812 C 120.109375 156.835938 113.59375 157.980469 107.058594 159.023438 C 100.613281 160.046875 94.152344 160.980469 87.675781 161.816406 C 81.480469 162.617188 75.269531 163.332031 69.054688 163.960938 C 68.3125 164.035156 67.566406 164.109375 66.824219 164.183594 C 66.316406 164.230469 65.878906 164.582031 65.878906 165.128906 C 65.878906 165.601562 66.3125 166.125 66.824219 166.078125 Z M 66.824219 166.078125 " fill-opacity="1" fill-rule="nonzero"/></g><g clip-path="url(#c1f1f72292)"><path fill="#000000" d="M 34.035156 152.796875 C 36.128906 153.8125 38.234375 154.804688 40.347656 155.773438 C 42.398438 156.707031 44.457031 157.617188 46.53125 158.5 C 48.632812 159.394531 50.75 160.261719 52.878906 161.097656 C 54.96875 161.921875 57.074219 162.714844 59.1875 163.480469 C 61.355469 164.269531 63.535156 165.023438 65.722656 165.757812 C 66.003906 165.851562 66.289062 165.949219 66.574219 166.042969 C 67.042969 166.199219 67.628906 165.863281 67.738281 165.382812 C 67.855469 164.859375 67.582031 164.382812 67.078125 164.214844 C 64.875 163.484375 62.683594 162.730469 60.5 161.949219 C 58.390625 161.191406 56.289062 160.40625 54.195312 159.589844 C 52.132812 158.789062 50.078125 157.957031 48.035156 157.097656 C 47.96875 157.066406 47.902344 157.042969 47.835938 157.011719 C 47.832031 157.011719 48.015625 157.085938 47.917969 157.046875 C 47.886719 157.035156 47.859375 157.023438 47.832031 157.011719 C 47.695312 156.953125 47.5625 156.894531 47.429688 156.839844 C 47.167969 156.726562 46.910156 156.617188 46.652344 156.507812 C 46.140625 156.289062 45.632812 156.066406 45.125 155.84375 C 44.101562 155.398438 43.078125 154.941406 42.058594 154.480469 C 39.960938 153.53125 37.875 152.550781 35.800781 151.550781 C 35.53125 151.421875 35.261719 151.289062 34.992188 151.160156 C 34.546875 150.945312 33.949219 151.023438 33.699219 151.5 C 33.472656 151.925781 33.5625 152.566406 34.035156 152.796875 Z M 34.035156 152.796875 " fill-opacity="1" fill-rule="nonzero"/></g><path fill="#000000" d="M 40.332031 58.425781 C 40.386719 58.378906 40.441406 58.335938 40.496094 58.292969 C 40.632812 58.1875 40.300781 58.441406 40.445312 58.332031 C 40.46875 58.316406 40.492188 58.296875 40.515625 58.277344 C 40.660156 58.171875 40.804688 58.066406 40.953125 57.964844 C 41.253906 57.75 41.566406 57.550781 41.886719 57.359375 C 42.273438 57.132812 42.667969 56.921875 43.070312 56.726562 C 43.175781 56.679688 43.28125 56.628906 43.382812 56.582031 C 43.425781 56.566406 43.46875 56.546875 43.507812 56.527344 C 43.519531 56.523438 43.726562 56.433594 43.582031 56.496094 C 43.4375 56.558594 43.640625 56.472656 43.652344 56.464844 C 43.703125 56.445312 43.757812 56.425781 43.808594 56.40625 C 43.917969 56.363281 44.03125 56.320312 44.140625 56.277344 C 44.90625 55.996094 45.695312 55.777344 46.496094 55.621094 C 46.667969 55.585938 46.839844 55.558594 47.015625 55.527344 C 47.097656 55.515625 47.183594 55.503906 47.265625 55.492188 C 47.296875 55.484375 47.332031 55.480469 47.363281 55.476562 C 47.035156 55.527344 47.28125 55.488281 47.355469 55.480469 C 47.648438 55.441406 47.945312 55.414062 48.242188 55.394531 C 48.691406 55.367188 49.144531 55.355469 49.597656 55.371094 C 49.730469 55.378906 49.867188 55.382812 50 55.394531 C 50.105469 55.398438 50.210938 55.410156 50.320312 55.417969 C 50.421875 55.429688 50.523438 55.4375 50.625 55.449219 C 50.6875 55.457031 50.746094 55.464844 50.808594 55.472656 C 50.996094 55.496094 50.59375 55.441406 50.796875 55.472656 C 51.558594 55.585938 52.3125 55.753906 53.046875 55.988281 C 53.371094 56.089844 53.695312 56.203125 54.011719 56.328125 C 54.085938 56.359375 54.160156 56.390625 54.234375 56.421875 C 54.410156 56.492188 54.015625 56.324219 54.1875 56.398438 C 54.214844 56.414062 54.246094 56.425781 54.273438 56.4375 C 54.429688 56.503906 54.582031 56.574219 54.734375 56.648438 C 55.285156 56.914062 55.820312 57.210938 56.332031 57.542969 C 56.53125 57.671875 56.726562 57.800781 56.917969 57.941406 C 57 58 57.082031 58.058594 57.164062 58.121094 C 57.199219 58.148438 57.238281 58.175781 57.277344 58.207031 C 57.441406 58.332031 57.074219 58.050781 57.207031 58.152344 C 57.207031 57.703125 57.207031 57.257812 57.207031 56.8125 C 56.855469 57.222656 56.480469 57.613281 56.082031 57.980469 C 55.964844 58.089844 55.839844 58.199219 55.71875 58.304688 C 55.652344 58.359375 55.585938 58.414062 55.519531 58.464844 C 55.453125 58.519531 55.152344 58.742188 55.433594 58.539062 C 55.113281 58.773438 54.789062 59.003906 54.453125 59.214844 C 54.082031 59.441406 53.699219 59.652344 53.304688 59.835938 C 53.203125 59.882812 53.101562 59.929688 53.003906 59.972656 C 52.816406 60.054688 53.214844 59.886719 53.023438 59.964844 C 52.96875 59.984375 52.917969 60.007812 52.867188 60.027344 C 52.632812 60.121094 52.394531 60.203125 52.15625 60.28125 C 51.714844 60.417969 51.269531 60.53125 50.816406 60.613281 C 50.707031 60.632812 50.597656 60.652344 50.488281 60.667969 C 50.425781 60.675781 50.226562 60.691406 50.527344 60.664062 C 50.472656 60.667969 50.417969 60.675781 50.363281 60.683594 C 50.136719 60.710938 49.90625 60.730469 49.675781 60.742188 C 49.246094 60.765625 48.816406 60.761719 48.386719 60.734375 C 48.1875 60.71875 47.984375 60.703125 47.785156 60.679688 C 47.738281 60.671875 47.6875 60.664062 47.640625 60.660156 C 47.949219 60.691406 47.765625 60.675781 47.695312 60.667969 C 47.582031 60.652344 47.46875 60.632812 47.355469 60.613281 C 46.585938 60.476562 45.832031 60.269531 45.097656 60 C 44.933594 59.9375 44.765625 59.871094 44.601562 59.804688 C 44.5625 59.789062 44.523438 59.773438 44.480469 59.753906 C 44.773438 59.875 44.613281 59.808594 44.546875 59.78125 C 44.457031 59.742188 44.367188 59.703125 44.273438 59.660156 C 43.976562 59.523438 43.683594 59.378906 43.390625 59.222656 C 42.863281 58.9375 42.347656 58.625 41.847656 58.285156 C 41.621094 58.132812 41.398438 57.972656 41.179688 57.804688 C 41.160156 57.789062 41.136719 57.773438 41.117188 57.757812 C 40.972656 57.648438 41.3125 57.910156 41.207031 57.828125 C 41.164062 57.792969 41.121094 57.757812 41.074219 57.722656 C 40.996094 57.660156 40.917969 57.597656 40.839844 57.535156 C 40.667969 57.390625 40.496094 57.242188 40.332031 57.085938 C 39.976562 56.742188 39.34375 56.703125 38.992188 57.085938 C 38.652344 57.457031 38.613281 58.058594 38.992188 58.425781 C 39.484375 58.898438 40.035156 59.3125 40.589844 59.710938 C 41.6875 60.492188 42.871094 61.128906 44.121094 61.640625 C 45.6875 62.28125 47.382812 62.644531 49.074219 62.652344 C 51.089844 62.65625 53.085938 62.132812 54.855469 61.171875 C 56.152344 60.464844 57.339844 59.507812 58.324219 58.402344 C 58.398438 58.320312 58.472656 58.238281 58.542969 58.152344 C 58.703125 57.964844 58.832031 57.738281 58.820312 57.480469 C 58.808594 57.25 58.738281 56.960938 58.542969 56.8125 C 56.578125 55.28125 54.285156 54.179688 51.824219 53.730469 C 49.277344 53.265625 46.644531 53.464844 44.179688 54.265625 C 42.285156 54.878906 40.546875 55.839844 38.992188 57.085938 C 38.816406 57.226562 38.71875 57.539062 38.71875 57.753906 C 38.71875 57.988281 38.820312 58.265625 38.992188 58.425781 C 39.175781 58.589844 39.410156 58.714844 39.664062 58.703125 C 39.929688 58.6875 40.125 58.589844 40.332031 58.425781 Z M 40.332031 58.425781 " fill-opacity="1" fill-rule="nonzero"/><path fill="#000000" d="M 47.667969 55.515625 C 47.691406 55.5625 47.714844 55.609375 47.734375 55.660156 C 47.820312 55.84375 47.644531 55.429688 47.726562 55.632812 C 47.773438 55.761719 47.820312 55.890625 47.859375 56.023438 C 47.90625 56.175781 47.945312 56.328125 47.976562 56.484375 C 47.996094 56.570312 47.996094 56.671875 48.027344 56.757812 C 48 56.683594 48 56.546875 48.015625 56.707031 C 48.023438 56.753906 48.027344 56.804688 48.03125 56.855469 C 48.046875 57.054688 48.046875 57.253906 48.039062 57.457031 C 48.03125 57.5625 48.019531 57.671875 48.011719 57.78125 C 48 57.90625 48.050781 57.535156 48.015625 57.742188 C 48.007812 57.78125 48 57.820312 47.992188 57.859375 C 47.933594 58.1875 47.835938 58.503906 47.710938 58.8125 C 47.625 59.027344 47.695312 59.355469 47.804688 59.542969 C 47.921875 59.742188 48.148438 59.925781 48.371094 59.980469 C 48.613281 60.035156 48.886719 60.023438 49.101562 59.882812 C 49.320312 59.742188 49.4375 59.558594 49.535156 59.316406 C 50.160156 57.773438 50.011719 56.042969 49.300781 54.558594 C 49.089844 54.113281 48.414062 53.957031 48.007812 54.21875 C 47.550781 54.515625 47.4375 55.035156 47.667969 55.515625 Z M 47.667969 55.515625 " fill-opacity="1" fill-rule="nonzero"/><path fill="#000000" d="M 92.382812 57.707031 C 92.210938 57.796875 92.035156 57.882812 91.855469 57.964844 C 91.773438 58 91.691406 58.039062 91.605469 58.074219 C 91.417969 58.15625 91.765625 58.011719 91.636719 58.0625 C 91.582031 58.085938 91.527344 58.105469 91.46875 58.128906 C 91.113281 58.269531 90.75 58.398438 90.382812 58.507812 C 90.035156 58.609375 89.679688 58.699219 89.324219 58.773438 C 89.160156 58.808594 88.992188 58.839844 88.828125 58.867188 C 88.734375 58.882812 88.644531 58.898438 88.550781 58.910156 C 88.515625 58.914062 88.476562 58.921875 88.441406 58.925781 C 88.738281 58.878906 88.535156 58.914062 88.472656 58.921875 C 87.785156 59.007812 87.089844 59.039062 86.398438 59.027344 C 86.058594 59.019531 85.71875 59.003906 85.378906 58.972656 C 85.226562 58.960938 85.074219 58.945312 84.921875 58.929688 C 84.84375 58.921875 84.769531 58.914062 84.695312 58.902344 C 84.652344 58.898438 84.609375 58.894531 84.566406 58.886719 C 84.617188 58.894531 84.667969 58.898438 84.71875 58.90625 C 84.6875 58.902344 84.652344 58.898438 84.621094 58.894531 C 83.4375 58.722656 82.273438 58.433594 81.140625 58.050781 C 80.667969 57.890625 80.199219 57.714844 79.738281 57.523438 C 79.539062 57.4375 79.964844 57.621094 79.765625 57.535156 C 79.722656 57.515625 79.679688 57.496094 79.636719 57.476562 C 79.535156 57.433594 79.429688 57.386719 79.328125 57.339844 C 79.148438 57.257812 78.964844 57.171875 78.785156 57.085938 C 78.324219 56.859375 77.863281 56.617188 77.425781 56.347656 C 77.492188 56.84375 77.554688 57.339844 77.617188 57.835938 C 77.894531 57.5625 78.175781 57.296875 78.46875 57.042969 C 78.625 56.90625 78.785156 56.773438 78.945312 56.644531 C 79.023438 56.578125 79.101562 56.519531 79.179688 56.457031 C 79.347656 56.320312 79.007812 56.585938 79.179688 56.453125 C 79.25 56.402344 79.316406 56.351562 79.382812 56.300781 C 79.8125 55.984375 80.253906 55.683594 80.710938 55.40625 C 81.175781 55.125 81.652344 54.863281 82.140625 54.625 C 82.441406 54.476562 82.75 54.339844 83.058594 54.203125 C 82.742188 54.34375 83.0625 54.203125 83.136719 54.171875 C 83.210938 54.140625 83.289062 54.113281 83.363281 54.082031 C 83.550781 54.007812 83.742188 53.9375 83.929688 53.871094 C 84.761719 53.574219 85.609375 53.339844 86.472656 53.160156 C 86.691406 53.117188 86.914062 53.074219 87.136719 53.039062 C 87.261719 53.015625 87.382812 52.996094 87.507812 52.980469 C 87.503906 52.980469 87.628906 52.957031 87.636719 52.960938 C 87.488281 52.980469 87.46875 52.984375 87.574219 52.96875 C 87.617188 52.964844 87.660156 52.957031 87.703125 52.953125 C 88.199219 52.890625 88.695312 52.851562 89.191406 52.832031 C 90.125 52.796875 91.0625 52.828125 91.992188 52.933594 C 92.082031 52.941406 92.175781 52.953125 92.265625 52.964844 C 92.332031 52.972656 92.53125 53.011719 92.234375 52.960938 C 92.285156 52.96875 92.339844 52.976562 92.394531 52.984375 C 92.605469 53.015625 92.816406 53.050781 93.023438 53.085938 C 93.40625 53.15625 93.78125 53.234375 94.15625 53.328125 C 94.886719 53.503906 95.605469 53.726562 96.308594 53.984375 C 96.457031 54.039062 96.605469 54.097656 96.75 54.15625 C 96.824219 54.183594 96.898438 54.214844 96.972656 54.246094 C 97.003906 54.257812 97.035156 54.269531 97.0625 54.28125 C 97.203125 54.339844 96.808594 54.171875 96.96875 54.242188 C 97.195312 54.339844 97.421875 54.441406 97.644531 54.546875 C 97.53125 54.113281 97.417969 53.683594 97.304688 53.25 C 97.109375 53.546875 96.902344 53.835938 96.6875 54.117188 C 96.621094 54.207031 96.828125 53.941406 96.757812 54.027344 C 96.746094 54.042969 96.730469 54.0625 96.71875 54.078125 C 96.6875 54.117188 96.65625 54.15625 96.625 54.195312 C 96.558594 54.277344 96.492188 54.359375 96.425781 54.4375 C 96.289062 54.601562 96.144531 54.765625 96 54.925781 C 95.6875 55.265625 95.363281 55.589844 95.019531 55.898438 C 94.832031 56.066406 94.644531 56.230469 94.449219 56.386719 C 94.40625 56.421875 94.363281 56.457031 94.316406 56.488281 C 94.191406 56.589844 94.492188 56.355469 94.3125 56.496094 C 94.207031 56.574219 94.097656 56.652344 93.992188 56.730469 C 93.480469 57.09375 92.941406 57.417969 92.382812 57.707031 C 91.945312 57.933594 91.777344 58.589844 92.042969 59.003906 C 92.335938 59.453125 92.867188 59.585938 93.339844 59.34375 C 95.171875 58.394531 96.796875 57.023438 98.070312 55.402344 C 98.375 55.011719 98.667969 54.617188 98.941406 54.207031 C 99.207031 53.808594 99.042969 53.121094 98.601562 52.910156 C 95.894531 51.632812 92.933594 50.925781 89.9375 50.921875 C 86.496094 50.921875 83.042969 51.859375 80.0625 53.589844 C 78.683594 54.386719 77.410156 55.375 76.28125 56.496094 C 75.835938 56.933594 75.957031 57.664062 76.472656 57.984375 C 77.671875 58.726562 78.996094 59.296875 80.320312 59.769531 C 82.789062 60.644531 85.472656 61.109375 88.089844 60.855469 C 89.929688 60.679688 91.691406 60.183594 93.339844 59.34375 C 93.78125 59.117188 93.945312 58.460938 93.679688 58.046875 C 93.386719 57.59375 92.855469 57.464844 92.382812 57.707031 Z M 92.382812 57.707031 " fill-opacity="1" fill-rule="nonzero"/><path fill="#000000" d="M 87.324219 53.03125 C 87.515625 53.347656 87.65625 53.6875 87.832031 54.007812 C 87.71875 53.800781 87.796875 53.921875 87.820312 53.980469 C 87.835938 54.019531 87.851562 54.058594 87.863281 54.09375 C 87.898438 54.179688 87.929688 54.265625 87.960938 54.355469 C 88.023438 54.539062 88.082031 54.722656 88.132812 54.910156 C 88.179688 55.089844 88.222656 55.265625 88.257812 55.449219 C 88.277344 55.539062 88.292969 55.628906 88.308594 55.71875 C 88.3125 55.757812 88.320312 55.800781 88.328125 55.839844 C 88.355469 56.015625 88.308594 55.679688 88.320312 55.800781 C 88.363281 56.179688 88.386719 56.554688 88.378906 56.933594 C 88.371094 57.429688 88.820312 57.902344 89.328125 57.878906 C 89.84375 57.855469 90.265625 57.464844 90.273438 56.933594 C 90.296875 55.234375 89.835938 53.527344 88.957031 52.074219 C 88.703125 51.652344 88.097656 51.453125 87.664062 51.734375 C 87.238281 52.007812 87.050781 52.578125 87.324219 53.03125 Z M 87.324219 53.03125 " fill-opacity="1" fill-rule="nonzero"/><path fill="#000000" d="M 65.078125 62.484375 C 64.933594 63.898438 66.207031 65.164062 67.535156 65.371094 C 68.28125 65.488281 69.035156 65.367188 69.65625 64.917969 C 70.28125 64.46875 70.707031 63.859375 70.957031 63.136719 C 71.207031 62.417969 71.21875 61.585938 70.996094 60.859375 C 70.847656 60.386719 70.328125 60.035156 69.832031 60.199219 C 69.355469 60.351562 69.011719 60.855469 69.171875 61.363281 C 69.203125 61.472656 69.226562 61.585938 69.253906 61.699219 C 69.296875 61.90625 69.238281 61.460938 69.25 61.675781 C 69.253906 61.746094 69.257812 61.8125 69.261719 61.882812 C 69.261719 61.992188 69.253906 62.097656 69.246094 62.207031 C 69.238281 62.359375 69.265625 62.089844 69.265625 62.09375 C 69.265625 62.117188 69.253906 62.160156 69.25 62.183594 C 69.238281 62.253906 69.222656 62.320312 69.207031 62.386719 C 69.179688 62.5 69.140625 62.609375 69.101562 62.71875 C 69.082031 62.785156 69.023438 62.847656 69.144531 62.621094 C 69.132812 62.644531 69.121094 62.675781 69.109375 62.703125 C 69.082031 62.757812 69.054688 62.8125 69.023438 62.863281 C 68.996094 62.917969 68.960938 62.96875 68.929688 63.019531 C 68.90625 63.054688 68.792969 63.207031 68.898438 63.070312 C 69.011719 62.925781 68.867188 63.101562 68.84375 63.128906 C 68.796875 63.179688 68.75 63.226562 68.703125 63.273438 C 68.671875 63.300781 68.519531 63.425781 68.660156 63.316406 C 68.800781 63.207031 68.644531 63.324219 68.609375 63.347656 C 68.5625 63.378906 68.507812 63.410156 68.457031 63.4375 C 68.429688 63.453125 68.402344 63.464844 68.375 63.480469 C 68.242188 63.550781 68.5625 63.414062 68.457031 63.449219 C 68.351562 63.480469 68.25 63.511719 68.140625 63.535156 C 67.992188 63.570312 68.40625 63.515625 68.175781 63.527344 C 68.121094 63.53125 68.0625 63.53125 68.003906 63.53125 C 67.984375 63.53125 67.84375 63.535156 67.832031 63.515625 C 67.824219 63.507812 68.101562 63.566406 67.953125 63.53125 C 67.933594 63.527344 67.910156 63.523438 67.890625 63.519531 C 67.808594 63.5 67.59375 63.472656 67.535156 63.410156 C 67.519531 63.390625 67.746094 63.507812 67.660156 63.460938 C 67.632812 63.445312 67.605469 63.4375 67.582031 63.421875 C 67.535156 63.398438 67.492188 63.375 67.445312 63.347656 C 67.398438 63.320312 67.347656 63.285156 67.300781 63.253906 C 67.242188 63.21875 67.195312 63.144531 67.386719 63.324219 C 67.363281 63.300781 67.332031 63.277344 67.304688 63.253906 C 67.210938 63.171875 67.136719 63.082031 67.054688 62.992188 C 67.257812 63.210938 67.117188 63.074219 67.070312 62.992188 C 67.035156 62.9375 67.007812 62.882812 66.980469 62.828125 C 66.941406 62.757812 66.96875 62.707031 67.027344 62.9375 C 67.019531 62.90625 67.003906 62.871094 66.992188 62.839844 C 66.988281 62.824219 66.949219 62.65625 66.949219 62.65625 C 66.953125 62.65625 66.96875 62.886719 66.96875 62.804688 C 66.964844 62.769531 66.960938 62.734375 66.960938 62.699219 C 66.957031 62.625 66.960938 62.554688 66.96875 62.484375 C 66.992188 62.257812 66.847656 61.96875 66.691406 61.8125 C 66.527344 61.648438 66.257812 61.527344 66.023438 61.535156 C 65.46875 61.5625 65.128906 61.953125 65.078125 62.484375 Z M 65.078125 62.484375 " fill-opacity="1" fill-rule="nonzero"/><path fill="#000000" d="M 67.390625 65.167969 C 67.414062 65.339844 67.441406 65.511719 67.46875 65.683594 C 67.472656 65.714844 67.515625 66 67.488281 65.832031 C 67.464844 65.6875 67.488281 65.824219 67.492188 65.863281 C 67.496094 65.914062 67.503906 65.964844 67.511719 66.015625 C 67.554688 66.375 67.585938 66.734375 67.597656 67.09375 C 67.605469 67.441406 67.597656 67.785156 67.5625 68.128906 C 67.535156 68.371094 67.59375 67.9375 67.554688 68.175781 C 67.542969 68.265625 67.523438 68.355469 67.507812 68.441406 C 67.46875 68.617188 67.421875 68.792969 67.363281 68.964844 C 67.339844 69.039062 67.296875 69.117188 67.28125 69.191406 C 67.285156 69.171875 67.375 68.984375 67.304688 69.132812 C 67.289062 69.164062 67.277344 69.195312 67.261719 69.230469 C 67.199219 69.351562 67.132812 69.472656 67.054688 69.585938 C 67.007812 69.65625 66.871094 69.804688 67.066406 69.582031 C 67.027344 69.628906 66.988281 69.675781 66.949219 69.722656 C 66.855469 69.828125 66.757812 69.929688 66.652344 70.019531 C 66.605469 70.0625 66.554688 70.097656 66.511719 70.140625 C 66.722656 69.941406 66.585938 70.082031 66.515625 70.132812 C 66.402344 70.210938 66.28125 70.28125 66.160156 70.347656 C 66.105469 70.375 66.050781 70.402344 65.996094 70.429688 C 65.863281 70.492188 66.097656 70.386719 66.097656 70.386719 C 66.078125 70.398438 66.035156 70.410156 66.011719 70.417969 C 65.886719 70.464844 65.757812 70.503906 65.628906 70.535156 C 65.53125 70.554688 65.289062 70.558594 65.617188 70.542969 C 65.546875 70.546875 65.472656 70.558594 65.402344 70.558594 C 65.335938 70.558594 65.273438 70.558594 65.207031 70.554688 C 65.179688 70.554688 65.152344 70.550781 65.125 70.550781 C 65.007812 70.542969 65.375 70.59375 65.226562 70.5625 C 65.15625 70.546875 65.085938 70.535156 65.019531 70.515625 C 64.96875 70.5 64.847656 70.484375 64.816406 70.445312 C 64.808594 70.4375 65.050781 70.558594 64.921875 70.488281 C 64.882812 70.464844 64.84375 70.449219 64.804688 70.425781 C 64.742188 70.386719 64.679688 70.347656 64.617188 70.304688 C 64.429688 70.167969 64.105469 70.148438 63.890625 70.207031 C 63.671875 70.269531 63.433594 70.4375 63.324219 70.640625 C 63.066406 71.132812 63.234375 71.628906 63.664062 71.9375 C 64.828125 72.78125 66.484375 72.503906 67.582031 71.683594 C 68.15625 71.257812 68.660156 70.722656 68.953125 70.0625 C 69.3125 69.242188 69.480469 68.386719 69.492188 67.492188 C 69.507812 66.542969 69.359375 65.597656 69.214844 64.664062 C 69.179688 64.445312 68.960938 64.203125 68.777344 64.097656 C 68.578125 63.980469 68.277344 63.929688 68.050781 64.003906 C 67.820312 64.078125 67.601562 64.21875 67.484375 64.4375 C 67.359375 64.675781 67.347656 64.902344 67.390625 65.167969 Z M 67.390625 65.167969 " fill-opacity="1" fill-rule="nonzero"/><path fill="#000000" d="M 67.601562 67.996094 C 67.726562 69.488281 68.640625 70.898438 70.023438 71.527344 C 70.800781 71.878906 71.589844 71.992188 72.433594 71.859375 C 73.175781 71.746094 73.851562 71.386719 74.433594 70.921875 C 75.078125 70.40625 75.554688 69.675781 75.785156 68.882812 C 75.925781 68.410156 75.617188 67.832031 75.125 67.71875 C 74.617188 67.601562 74.109375 67.871094 73.960938 68.378906 C 73.941406 68.445312 73.921875 68.507812 73.902344 68.570312 C 73.890625 68.597656 73.875 68.628906 73.867188 68.660156 C 73.921875 68.445312 73.9375 68.5 73.902344 68.570312 C 73.839844 68.703125 73.773438 68.832031 73.691406 68.957031 C 73.65625 69.011719 73.617188 69.066406 73.582031 69.121094 C 73.535156 69.179688 73.480469 69.195312 73.636719 69.046875 C 73.617188 69.066406 73.59375 69.097656 73.574219 69.121094 C 73.484375 69.226562 73.386719 69.328125 73.285156 69.421875 C 73.234375 69.464844 73.183594 69.507812 73.132812 69.550781 C 73.046875 69.625 73.304688 69.425781 73.207031 69.492188 C 73.183594 69.511719 73.15625 69.53125 73.128906 69.550781 C 73.015625 69.632812 72.894531 69.707031 72.773438 69.773438 C 72.714844 69.804688 72.652344 69.832031 72.59375 69.859375 C 72.453125 69.929688 72.683594 69.816406 72.6875 69.824219 C 72.6875 69.828125 72.605469 69.855469 72.59375 69.859375 C 72.457031 69.910156 72.3125 69.953125 72.171875 69.988281 C 72.105469 70.003906 72.042969 70.015625 71.976562 70.027344 C 71.90625 70.039062 71.832031 70.019531 72.082031 70.011719 C 72.050781 70.015625 72.015625 70.019531 71.984375 70.023438 C 71.847656 70.035156 71.707031 70.039062 71.566406 70.03125 C 71.511719 70.027344 71.453125 70.019531 71.394531 70.015625 C 71.703125 70.035156 71.488281 70.027344 71.402344 70.007812 C 71.257812 69.980469 71.117188 69.9375 70.980469 69.886719 C 70.96875 69.882812 70.886719 69.855469 70.886719 69.851562 C 70.890625 69.847656 71.117188 69.960938 70.976562 69.890625 C 70.917969 69.863281 70.859375 69.835938 70.800781 69.804688 C 70.679688 69.738281 70.558594 69.664062 70.445312 69.585938 C 70.417969 69.566406 70.390625 69.546875 70.363281 69.527344 C 70.269531 69.460938 70.527344 69.660156 70.4375 69.585938 C 70.390625 69.542969 70.339844 69.5 70.289062 69.457031 C 70.1875 69.359375 70.089844 69.261719 69.996094 69.152344 C 69.976562 69.128906 69.957031 69.101562 69.933594 69.078125 C 69.816406 68.9375 70.066406 69.265625 69.960938 69.113281 C 69.921875 69.050781 69.878906 68.992188 69.839844 68.929688 C 69.816406 68.894531 69.605469 68.523438 69.617188 68.515625 C 69.625 68.511719 69.710938 68.753906 69.65625 68.605469 C 69.644531 68.566406 69.628906 68.527344 69.617188 68.492188 C 69.589844 68.421875 69.570312 68.351562 69.550781 68.277344 C 69.53125 68.199219 69.511719 68.121094 69.496094 68.039062 C 69.492188 68.019531 69.492188 67.953125 69.480469 67.941406 C 69.519531 67.992188 69.507812 68.191406 69.492188 67.996094 C 69.449219 67.503906 69.085938 67.027344 68.546875 67.050781 C 68.070312 67.070312 67.554688 67.46875 67.601562 67.996094 Z M 67.601562 67.996094 " fill-opacity="1" fill-rule="nonzero"/><path fill="#000000" d="M 45.621094 127.5 C 46.082031 131.433594 46.292969 135.390625 46.347656 139.347656 C 46.402344 143.152344 46.3125 146.960938 46.199219 150.761719 C 46.136719 152.894531 46.066406 155.023438 46.015625 157.152344 C 46.003906 157.648438 46.457031 158.121094 46.960938 158.097656 C 47.484375 158.074219 47.894531 157.683594 47.90625 157.152344 C 48 153.347656 48.144531 149.542969 48.214844 145.738281 C 48.285156 141.890625 48.277344 138.042969 48.074219 134.199219 C 47.957031 131.960938 47.773438 129.726562 47.511719 127.5 C 47.480469 127.242188 47.425781 127.023438 47.234375 126.832031 C 47.070312 126.667969 46.800781 126.542969 46.566406 126.554688 C 46.320312 126.566406 46.066406 126.644531 45.898438 126.832031 C 45.738281 127.003906 45.589844 127.257812 45.621094 127.5 Z M 45.621094 127.5 " fill-opacity="1" fill-rule="nonzero"/><path fill="#000000" d="M 57.644531 160.9375 C 58.53125 157.070312 59.152344 153.140625 59.5625 149.195312 C 59.964844 145.300781 60.148438 141.382812 60.136719 137.46875 C 60.128906 135.28125 60.058594 133.097656 59.929688 130.914062 C 59.898438 130.417969 59.515625 129.941406 58.980469 129.964844 C 58.496094 129.988281 58.003906 130.382812 58.035156 130.914062 C 58.269531 134.792969 58.308594 138.6875 58.148438 142.570312 C 58.066406 144.515625 57.933594 146.460938 57.746094 148.402344 C 57.652344 149.378906 57.546875 150.359375 57.425781 151.335938 C 57.394531 151.566406 57.367188 151.792969 57.335938 152.023438 C 57.328125 152.089844 57.320312 152.15625 57.308594 152.222656 C 57.34375 151.980469 57.324219 152.113281 57.316406 152.164062 C 57.296875 152.308594 57.277344 152.449219 57.257812 152.589844 C 57.191406 153.082031 57.117188 153.570312 57.042969 154.0625 C 56.707031 156.199219 56.304688 158.324219 55.820312 160.433594 C 55.710938 160.917969 55.96875 161.480469 56.480469 161.597656 C 56.964844 161.710938 57.527344 161.453125 57.644531 160.9375 Z M 57.644531 160.9375 " fill-opacity="1" fill-rule="nonzero"/><path fill="#000000" d="M 84.09375 130.878906 C 84.226562 134.929688 84.402344 138.980469 84.625 143.03125 C 84.847656 147.082031 85.117188 151.128906 85.429688 155.171875 C 85.605469 157.433594 85.796875 159.699219 86.003906 161.960938 C 86.027344 162.214844 86.09375 162.441406 86.28125 162.628906 C 86.445312 162.792969 86.714844 162.917969 86.949219 162.90625 C 87.425781 162.886719 87.945312 162.488281 87.894531 161.960938 C 87.53125 157.921875 87.207031 153.878906 86.933594 149.832031 C 86.660156 145.785156 86.429688 141.738281 86.25 137.683594 C 86.148438 135.417969 86.058594 133.148438 85.988281 130.878906 C 85.972656 130.382812 85.5625 129.90625 85.042969 129.929688 C 84.542969 129.953125 84.078125 130.347656 84.09375 130.878906 Z M 84.09375 130.878906 " fill-opacity="1" fill-rule="nonzero"/><path fill="#000000" d="M 101.023438 160.195312 C 100.941406 157.101562 100.863281 154.007812 100.785156 150.914062 C 100.699219 147.519531 100.613281 144.125 100.527344 140.730469 C 100.488281 139.113281 100.445312 137.492188 100.40625 135.875 C 100.394531 135.378906 99.980469 134.90625 99.460938 134.929688 C 98.957031 134.949219 98.5 135.34375 98.515625 135.875 C 98.59375 138.96875 98.671875 142.0625 98.75 145.15625 C 98.835938 148.550781 98.921875 151.945312 99.007812 155.339844 C 99.046875 156.957031 99.089844 158.574219 99.128906 160.195312 C 99.140625 160.6875 99.554688 161.164062 100.074219 161.140625 C 100.578125 161.117188 101.035156 160.722656 101.023438 160.195312 Z M 101.023438 160.195312 " fill-opacity="1" fill-rule="nonzero"/><path fill="#000000" d="M 66.40625 118.902344 C 66.40625 120.085938 66.40625 121.269531 66.40625 122.453125 C 66.40625 122.949219 66.84375 123.425781 67.351562 123.402344 C 67.867188 123.378906 68.300781 122.984375 68.300781 122.453125 C 68.300781 121.269531 68.300781 120.085938 68.300781 118.902344 C 68.300781 118.40625 67.863281 117.933594 67.351562 117.957031 C 66.839844 117.976562 66.40625 118.371094 66.40625 118.902344 Z M 66.40625 118.902344 " fill-opacity="1" fill-rule="nonzero"/><path fill="#000000" d="M 69.367188 111.796875 C 69.402344 112 69.4375 112.203125 69.46875 112.410156 C 69.476562 112.457031 69.484375 112.507812 69.492188 112.558594 C 69.507812 112.691406 69.484375 112.523438 69.480469 112.480469 C 69.488281 112.574219 69.503906 112.667969 69.511719 112.761719 C 69.550781 113.085938 69.570312 113.414062 69.578125 113.742188 C 69.59375 114.425781 69.542969 115.109375 69.496094 115.792969 C 69.457031 116.289062 69.957031 116.761719 70.441406 116.738281 C 70.984375 116.714844 71.347656 116.324219 71.386719 115.792969 C 71.4375 115.09375 71.488281 114.394531 71.46875 113.691406 C 71.449219 112.886719 71.332031 112.085938 71.191406 111.292969 C 71.101562 110.804688 70.484375 110.484375 70.027344 110.632812 C 69.503906 110.800781 69.273438 111.273438 69.367188 111.796875 Z M 69.367188 111.796875 " fill-opacity="1" fill-rule="nonzero"/><path fill="#000000" d="M 75.277344 111.800781 C 75.277344 113.132812 75.277344 114.464844 75.277344 115.796875 C 75.277344 116.289062 75.710938 116.765625 76.222656 116.742188 C 76.734375 116.71875 77.167969 116.324219 77.167969 115.796875 C 77.167969 114.464844 77.167969 113.132812 77.167969 111.800781 C 77.167969 111.304688 76.734375 110.828125 76.222656 110.851562 C 75.710938 110.875 75.277344 111.269531 75.277344 111.800781 Z M 75.277344 111.800781 " fill-opacity="1" fill-rule="nonzero"/><path fill="#000000" d="M 74.777344 125.828125 C 74.964844 127.152344 75.148438 128.480469 75.332031 129.804688 C 75.363281 130.023438 75.585938 130.265625 75.765625 130.371094 C 75.96875 130.492188 76.269531 130.542969 76.496094 130.46875 C 76.726562 130.394531 76.945312 130.25 77.0625 130.03125 C 77.1875 129.792969 77.195312 129.570312 77.15625 129.304688 C 76.972656 127.976562 76.789062 126.648438 76.601562 125.324219 C 76.574219 125.105469 76.347656 124.863281 76.167969 124.757812 C 75.964844 124.636719 75.667969 124.585938 75.4375 124.660156 C 75.210938 124.734375 74.988281 124.878906 74.875 125.097656 C 74.746094 125.335938 74.742188 125.558594 74.777344 125.828125 Z M 74.777344 125.828125 " fill-opacity="1" fill-rule="nonzero"/><path fill="#000000" d="M 70.417969 135.960938 C 70.289062 136.65625 70.15625 137.347656 70.066406 138.050781 C 69.972656 138.769531 69.949219 139.488281 69.972656 140.210938 C 69.988281 140.703125 70.398438 141.179688 70.917969 141.15625 C 71.417969 141.136719 71.882812 140.742188 71.863281 140.210938 C 71.84375 139.503906 71.871094 138.800781 71.953125 138.101562 C 71.964844 137.980469 71.921875 138.324219 71.9375 138.207031 C 71.941406 138.167969 71.949219 138.128906 71.953125 138.089844 C 71.964844 138.019531 71.976562 137.945312 71.988281 137.875 C 72.011719 137.726562 72.039062 137.574219 72.0625 137.425781 C 72.121094 137.105469 72.183594 136.785156 72.242188 136.464844 C 72.285156 136.207031 72.28125 135.964844 72.144531 135.734375 C 72.03125 135.535156 71.804688 135.347656 71.582031 135.296875 C 71.117188 135.191406 70.511719 135.4375 70.417969 135.960938 Z M 70.417969 135.960938 " fill-opacity="1" fill-rule="nonzero"/><path fill="#000000" d="M 65.511719 134.886719 C 65.511719 135.613281 65.5 136.34375 65.410156 137.066406 C 65.382812 137.289062 65.445312 136.828125 65.414062 137.046875 C 65.402344 137.117188 65.394531 137.1875 65.382812 137.257812 C 65.359375 137.394531 65.335938 137.527344 65.3125 137.664062 C 65.25 137.988281 65.183594 138.308594 65.121094 138.632812 C 65.027344 139.117188 65.257812 139.679688 65.78125 139.796875 C 66.25 139.90625 66.84375 139.65625 66.945312 139.136719 C 67.078125 138.460938 67.210938 137.789062 67.296875 137.105469 C 67.390625 136.371094 67.40625 135.628906 67.402344 134.886719 C 67.402344 134.390625 66.96875 133.917969 66.457031 133.9375 C 65.945312 133.960938 65.511719 134.355469 65.511719 134.886719 Z M 65.511719 134.886719 " fill-opacity="1" fill-rule="nonzero"/><path fill="#000000" d="M 76.082031 144.664062 C 76.230469 145.847656 76.375 147.03125 76.523438 148.214844 C 76.554688 148.476562 76.605469 148.691406 76.800781 148.882812 C 76.964844 149.046875 77.234375 149.171875 77.46875 149.160156 C 77.714844 149.152344 77.96875 149.070312 78.136719 148.882812 C 78.296875 148.710938 78.445312 148.457031 78.414062 148.214844 C 78.269531 147.03125 78.121094 145.847656 77.976562 144.664062 C 77.945312 144.402344 77.890625 144.1875 77.699219 143.992188 C 77.535156 143.828125 77.265625 143.703125 77.03125 143.714844 C 76.785156 143.726562 76.53125 143.808594 76.359375 143.992188 C 76.203125 144.164062 76.054688 144.417969 76.082031 144.664062 Z M 76.082031 144.664062 " fill-opacity="1" fill-rule="nonzero"/><path fill="#000000" d="M 68.625 149.535156 C 68.625 151.164062 68.625 152.792969 68.625 154.417969 C 68.625 154.914062 69.058594 155.390625 69.570312 155.367188 C 70.082031 155.34375 70.515625 154.949219 70.515625 154.417969 C 70.515625 152.792969 70.515625 151.164062 70.515625 149.535156 C 70.515625 149.039062 70.082031 148.566406 69.570312 148.589844 C 69.058594 148.613281 68.625 149.003906 68.625 149.535156 Z M 68.625 149.535156 " fill-opacity="1" fill-rule="nonzero"/><path fill="#000000" d="M 63.304688 152.644531 C 63.304688 153.53125 63.304688 154.417969 63.304688 155.308594 C 63.304688 155.804688 63.738281 156.277344 64.25 156.253906 C 64.761719 156.230469 65.195312 155.839844 65.195312 155.308594 C 65.195312 154.417969 65.195312 153.53125 65.195312 152.644531 C 65.195312 152.148438 64.761719 151.675781 64.25 151.695312 C 63.734375 151.71875 63.304688 152.113281 63.304688 152.644531 Z M 63.304688 152.644531 " fill-opacity="1" fill-rule="nonzero"/><path fill="#000000" d="M 74.832031 156.195312 C 74.832031 157.824219 74.832031 159.453125 74.832031 161.078125 C 74.832031 161.574219 75.269531 162.050781 75.78125 162.027344 C 76.292969 162.003906 76.726562 161.609375 76.726562 161.078125 C 76.726562 159.449219 76.726562 157.824219 76.726562 156.195312 C 76.726562 155.699219 76.289062 155.226562 75.78125 155.25 C 75.265625 155.269531 74.832031 155.664062 74.832031 156.195312 Z M 74.832031 156.195312 " fill-opacity="1" fill-rule="nonzero"/><path fill="#000000" d="M 63.304688 105.140625 C 63.304688 106.769531 63.304688 108.394531 63.304688 110.023438 C 63.304688 110.519531 63.738281 110.992188 64.25 110.96875 C 64.761719 110.949219 65.195312 110.554688 65.195312 110.023438 C 65.195312 108.394531 65.195312 106.765625 65.195312 105.140625 C 65.195312 104.644531 64.761719 104.167969 64.25 104.191406 C 63.734375 104.214844 63.304688 104.609375 63.304688 105.140625 Z M 63.304688 105.140625 " fill-opacity="1" fill-rule="nonzero"/><path fill="#000000" d="M 73.945312 94.039062 C 73.945312 95.078125 73.945312 96.113281 73.945312 97.148438 C 73.945312 97.644531 74.382812 98.117188 74.890625 98.09375 C 75.40625 98.074219 75.839844 97.679688 75.839844 97.148438 C 75.839844 96.113281 75.839844 95.078125 75.839844 94.039062 C 75.839844 93.546875 75.402344 93.070312 74.890625 93.09375 C 74.378906 93.117188 73.945312 93.511719 73.945312 94.039062 Z M 73.945312 94.039062 " fill-opacity="1" fill-rule="nonzero"/><path fill="#000000" d="M 81.011719 103.636719 C 81.15625 104.082031 81.300781 104.527344 81.445312 104.972656 C 81.519531 105.203125 81.664062 105.410156 81.878906 105.539062 C 81.988281 105.605469 82.105469 105.644531 82.230469 105.648438 C 82.355469 105.679688 82.484375 105.671875 82.609375 105.632812 C 82.835938 105.558594 83.058594 105.417969 83.171875 105.199219 C 83.289062 104.976562 83.347656 104.710938 83.269531 104.46875 C 83.125 104.023438 82.980469 103.578125 82.835938 103.132812 C 82.761719 102.898438 82.617188 102.691406 82.402344 102.566406 C 82.292969 102.496094 82.175781 102.460938 82.050781 102.453125 C 81.925781 102.425781 81.800781 102.433594 81.671875 102.472656 C 81.445312 102.546875 81.222656 102.6875 81.109375 102.90625 C 80.992188 103.125 80.933594 103.394531 81.011719 103.636719 Z M 81.011719 103.636719 " fill-opacity="1" fill-rule="nonzero"/><path fill="#000000" d="M 71.285156 102.03125 C 71.285156 103.066406 71.285156 104.105469 71.285156 105.140625 C 71.285156 105.636719 71.71875 106.109375 72.230469 106.085938 C 72.742188 106.0625 73.175781 105.671875 73.175781 105.140625 C 73.175781 104.105469 73.175781 103.066406 73.175781 102.03125 C 73.175781 101.535156 72.742188 101.0625 72.230469 101.085938 C 71.71875 101.109375 71.285156 101.5 71.285156 102.03125 Z M 71.285156 102.03125 " fill-opacity="1" fill-rule="nonzero"/><path fill="#000000" d="M 87.125 75.417969 C 87.757812 75.726562 88.382812 76.046875 88.9375 76.476562 C 88.875 76.425781 88.8125 76.378906 88.746094 76.328125 C 89.207031 76.683594 89.617188 77.101562 90.019531 77.519531 C 90.363281 77.875 91.015625 77.890625 91.359375 77.519531 C 91.710938 77.136719 91.726562 76.558594 91.359375 76.179688 C 90.871094 75.675781 90.371094 75.195312 89.808594 74.777344 C 89.273438 74.378906 88.679688 74.074219 88.082031 73.78125 C 87.851562 73.671875 87.609375 73.617188 87.351562 73.6875 C 87.132812 73.746094 86.894531 73.917969 86.785156 74.121094 C 86.5625 74.546875 86.652344 75.1875 87.125 75.417969 Z M 87.125 75.417969 " fill-opacity="1" fill-rule="nonzero"/><path fill="#000000" d="M 90.882812 71.054688 C 91.320312 71.222656 91.757812 71.386719 92.191406 71.558594 C 92.34375 71.617188 92.496094 71.679688 92.644531 71.738281 C 92.714844 71.765625 92.785156 71.792969 92.851562 71.824219 C 92.886719 71.835938 92.925781 71.851562 92.957031 71.867188 C 92.929688 71.851562 92.703125 71.757812 92.851562 71.820312 C 93.464844 72.085938 94.066406 72.382812 94.667969 72.671875 C 94.902344 72.785156 95.140625 72.839844 95.398438 72.769531 C 95.617188 72.707031 95.855469 72.539062 95.960938 72.332031 C 96.1875 71.910156 96.097656 71.265625 95.625 71.039062 C 95.011719 70.742188 94.402344 70.441406 93.777344 70.175781 C 92.988281 69.835938 92.183594 69.535156 91.382812 69.226562 C 91.167969 69.144531 90.847656 69.210938 90.65625 69.324219 C 90.460938 69.4375 90.273438 69.664062 90.21875 69.890625 C 90.097656 70.429688 90.386719 70.863281 90.882812 71.054688 Z M 90.882812 71.054688 " fill-opacity="1" fill-rule="nonzero"/><path fill="#000000" d="M 95.144531 66.765625 C 96.476562 66.625 97.808594 66.480469 99.136719 66.335938 C 99.394531 66.308594 99.617188 66.25 99.808594 66.058594 C 99.972656 65.894531 100.09375 65.625 100.085938 65.386719 C 100.0625 64.921875 99.664062 64.382812 99.136719 64.441406 C 97.808594 64.585938 96.476562 64.730469 95.144531 64.875 C 94.886719 64.902344 94.667969 64.960938 94.476562 65.152344 C 94.3125 65.316406 94.1875 65.585938 94.199219 65.820312 C 94.21875 66.289062 94.617188 66.824219 95.144531 66.765625 Z M 95.144531 66.765625 " fill-opacity="1" fill-rule="nonzero"/><path fill="#000000" d="M 43.105469 73.769531 C 44.300781 72.449219 45.496094 71.128906 46.691406 69.808594 C 47.023438 69.441406 47.078125 68.828125 46.691406 68.46875 C 46.328125 68.136719 45.707031 68.078125 45.351562 68.46875 C 44.15625 69.789062 42.960938 71.109375 41.765625 72.429688 C 41.433594 72.796875 41.378906 73.410156 41.765625 73.769531 C 42.128906 74.101562 42.75 74.160156 43.105469 73.769531 Z M 43.105469 73.769531 " fill-opacity="1" fill-rule="nonzero"/><path fill="#000000" d="M 48.09375 74.921875 C 48.421875 74.3125 48.78125 73.722656 49.167969 73.152344 C 49.359375 72.875 49.554688 72.605469 49.753906 72.339844 C 49.78125 72.304688 49.808594 72.273438 49.832031 72.238281 C 49.800781 72.28125 49.722656 72.378906 49.796875 72.28125 C 49.855469 72.207031 49.914062 72.132812 49.972656 72.0625 C 50.085938 71.921875 50.199219 71.785156 50.3125 71.652344 C 50.480469 71.457031 50.589844 71.246094 50.589844 70.980469 C 50.589844 70.75 50.488281 70.472656 50.3125 70.3125 C 49.960938 69.988281 49.316406 69.90625 48.976562 70.3125 C 48.015625 71.441406 47.167969 72.660156 46.460938 73.964844 C 46.226562 74.398438 46.339844 75.015625 46.800781 75.261719 C 47.242188 75.492188 47.84375 75.386719 48.09375 74.921875 Z M 48.09375 74.921875 " fill-opacity="1" fill-rule="nonzero"/><path fill="#000000" d="M 53.976562 78.535156 C 54.554688 77.492188 55.128906 76.449219 55.707031 75.402344 C 55.945312 74.96875 55.828125 74.351562 55.367188 74.109375 C 54.921875 73.871094 54.328125 73.984375 54.074219 74.449219 C 53.496094 75.492188 52.921875 76.535156 52.34375 77.578125 C 52.105469 78.011719 52.222656 78.632812 52.683594 78.875 C 53.128906 79.109375 53.722656 79 53.976562 78.535156 Z M 53.976562 78.535156 " fill-opacity="1" fill-rule="nonzero"/><path fill="#000000" d="M 110.503906 157.78125 C 110.441406 157.453125 110.382812 157.125 110.332031 156.796875 C 110.304688 156.636719 110.28125 156.476562 110.257812 156.316406 C 110.246094 156.238281 110.234375 156.164062 110.222656 156.089844 C 110.214844 156.015625 110.175781 155.6875 110.210938 156 C 110.140625 155.355469 110.058594 154.714844 110.003906 154.066406 C 109.898438 152.757812 109.859375 151.441406 109.882812 150.128906 C 109.90625 148.8125 109.996094 147.5 110.144531 146.195312 C 110.164062 146.035156 110.183594 145.871094 110.203125 145.710938 C 110.210938 145.679688 110.246094 145.40625 110.222656 145.582031 C 110.199219 145.738281 110.21875 145.605469 110.222656 145.566406 C 110.230469 145.511719 110.238281 145.453125 110.246094 145.398438 C 110.292969 145.078125 110.34375 144.757812 110.394531 144.4375 C 110.503906 143.789062 110.625 143.140625 110.765625 142.496094 C 111.042969 141.210938 111.378906 139.9375 111.773438 138.679688 C 111.972656 138.054688 112.183594 137.429688 112.410156 136.8125 C 112.527344 136.5 112.644531 136.1875 112.769531 135.875 C 112.824219 135.734375 112.882812 135.59375 112.9375 135.453125 C 112.96875 135.382812 112.996094 135.3125 113.027344 135.242188 C 113.039062 135.207031 113.054688 135.167969 113.070312 135.132812 C 113.085938 135.097656 113.097656 135.0625 113.113281 135.027344 C 113.097656 135.070312 113.078125 135.109375 113.0625 135.148438 C 114.121094 132.734375 115.335938 130.410156 116.808594 128.21875 C 117.175781 127.671875 117.554688 127.136719 117.949219 126.609375 C 118.042969 126.480469 118.140625 126.351562 118.242188 126.222656 C 118.261719 126.191406 118.285156 126.164062 118.308594 126.132812 C 118.300781 126.144531 118.167969 126.3125 118.265625 126.1875 C 118.324219 126.113281 118.382812 126.039062 118.441406 125.964844 C 118.644531 125.710938 118.847656 125.457031 119.054688 125.207031 C 119.890625 124.195312 120.78125 123.226562 121.71875 122.304688 C 121.953125 122.078125 122.1875 121.855469 122.421875 121.632812 C 122.785156 121.292969 122.789062 120.632812 122.421875 120.292969 C 122.035156 119.9375 121.472656 119.933594 121.085938 120.292969 C 119.089844 122.15625 117.304688 124.234375 115.726562 126.464844 C 114.195312 128.625 112.882812 130.9375 111.796875 133.355469 C 110.675781 135.847656 109.773438 138.4375 109.140625 141.101562 C 108.515625 143.738281 108.132812 146.445312 108.019531 149.15625 C 107.902344 151.890625 108.074219 154.628906 108.511719 157.328125 C 108.5625 157.648438 108.617188 157.96875 108.679688 158.285156 C 108.769531 158.773438 109.382812 159.097656 109.84375 158.949219 C 110.363281 158.78125 110.601562 158.304688 110.503906 157.78125 Z M 110.503906 157.78125 " fill-opacity="1" fill-rule="nonzero"/></svg>