<svg xmlns="http://www.w3.org/2000/svg" xmlns:xlink="http://www.w3.org/1999/xlink" width="250" zoomAndPan="magnify" viewBox="0 0 187.5 187.499992" height="250" preserveAspectRatio="xMidYMid meet" version="1.0"><defs><clipPath id="766638ce64"><path d="M 17 31 L 170 31 L 170 158.878906 L 17 158.878906 Z M 17 31 " clip-rule="nonzero"/></clipPath><clipPath id="afcbe15328"><path d="M 16.386719 28.378906 L 170.886719 28.378906 L 170.886719 158.878906 L 16.386719 158.878906 Z M 16.386719 28.378906 " clip-rule="nonzero"/></clipPath><clipPath id="9e9e8c0706"><path d="M 16.386719 49 L 30 49 L 30 58 L 16.386719 58 Z M 16.386719 49 " clip-rule="nonzero"/></clipPath><clipPath id="f28fb020b8"><path d="M 61 28.378906 L 64 28.378906 L 64 46 L 61 46 Z M 61 28.378906 " clip-rule="nonzero"/></clipPath></defs><g clip-path="url(#766638ce64)"><path fill="#ffffff" d="M 17.691406 50.484375 C 17.691406 50.484375 25.542969 56.28125 27.089844 56.34375 C 28.632812 56.402344 30.117188 56.34375 30.117188 56.34375 C 30.117188 56.34375 38.1875 51.335938 41.890625 49.972656 C 45.597656 48.605469 53.457031 45.523438 56.742188 45.113281 C 60.027344 44.707031 63.351562 44.332031 63.351562 44.332031 L 63.351562 31.097656 C 63.351562 31.097656 72.3125 39.445312 74.847656 41.589844 C 77.382812 43.734375 87.910156 53.410156 96.101562 56.371094 C 104.289062 59.328125 125.382812 66.277344 134.53125 71.183594 C 143.679688 76.089844 162.875 83.550781 166.769531 89.304688 C 170.660156 95.054688 169.40625 97.015625 169.246094 106.144531 C 169.085938 115.550781 166.46875 119.832031 164.199219 124.839844 C 161.925781 129.847656 157.015625 138.777344 153.484375 142.222656 C 149.953125 145.667969 142.4375 151.820312 137.691406 153.3125 C 132.945312 154.804688 120.207031 158.179688 114.582031 158.132812 C 108.957031 158.089844 93.832031 157.296875 91.222656 156.636719 C 88.613281 155.976562 79.652344 152.453125 71.007812 146.339844 C 62.367188 140.222656 55.542969 132.230469 51.054688 127.160156 C 46.570312 122.09375 41.859375 114.734375 37.585938 106.621094 C 33.3125 98.507812 25.984375 80.914062 25.984375 80.914062 L 20.921875 65.785156 Z M 17.691406 50.484375 " fill-opacity="1" fill-rule="nonzero"/></g><path fill="#ffa400" d="M 65.21875 83.191406 C 64.210938 82.972656 63.1875 82.863281 62.15625 82.863281 C 57.664062 82.871094 59.804688 88.839844 63.0625 89.265625 C 64.640625 89.472656 66.980469 88.828125 67.652344 87.316406 C 68.59375 85.203125 67.195312 83.625 65.21875 83.191406 Z M 65.21875 83.191406 " fill-opacity="1" fill-rule="nonzero"/><path fill="#ff7900" d="M 64.46875 81.441406 C 64.738281 80.589844 65.109375 79.738281 65.75 79.117188 C 66.238281 78.648438 66.917969 78.324219 67.582031 78.453125 C 68.351562 78.605469 68.898438 79.332031 69.105469 80.089844 C 69.308594 80.847656 69.246094 81.648438 69.238281 82.433594 C 69.214844 83.621094 69.359375 84.792969 69.671875 85.941406 C 69.734375 86.164062 70.179688 86.605469 70.414062 86.636719 C 70.300781 86.621094 69.859375 87.320312 69.71875 87.417969 C 69.382812 87.652344 68.78125 88.21875 68.410156 88.394531 C 67.652344 88.742188 66.4375 89.121094 65.605469 89.1875 C 65.195312 89.21875 64.335938 89.242188 64.003906 89.078125 C 63.496094 88.832031 63.464844 88.164062 63.496094 87.691406 C 63.558594 86.703125 63.742188 85.703125 63.820312 84.71875 C 63.910156 83.601562 64.125 82.507812 64.46875 81.441406 Z M 64.46875 81.441406 " fill-opacity="1" fill-rule="nonzero"/><path fill="#000000" d="M 65.28125 81.667969 C 65.347656 81.453125 65.421875 81.242188 65.503906 81.03125 C 65.519531 81 65.535156 80.96875 65.542969 80.933594 C 65.546875 80.929688 65.472656 81.101562 65.511719 81.015625 C 65.53125 80.96875 65.550781 80.921875 65.574219 80.875 C 65.625 80.765625 65.679688 80.65625 65.734375 80.550781 C 65.84375 80.355469 65.960938 80.167969 66.09375 79.988281 C 66.144531 79.914062 66.035156 80.058594 66.039062 80.058594 C 66.054688 80.039062 66.070312 80.015625 66.085938 79.996094 C 66.125 79.953125 66.164062 79.90625 66.207031 79.863281 C 66.28125 79.78125 66.359375 79.703125 66.441406 79.628906 C 66.460938 79.613281 66.480469 79.597656 66.5 79.578125 C 66.605469 79.488281 66.464844 79.609375 66.449219 79.617188 C 66.492188 79.589844 66.535156 79.554688 66.574219 79.527344 C 66.675781 79.464844 66.78125 79.40625 66.886719 79.351562 C 67.019531 79.28125 66.730469 79.40625 66.871094 79.359375 C 66.921875 79.34375 66.96875 79.324219 67.015625 79.3125 C 67.070312 79.296875 67.128906 79.285156 67.1875 79.269531 C 67.277344 79.246094 67.074219 79.285156 67.085938 79.28125 C 67.117188 79.273438 67.148438 79.273438 67.183594 79.273438 C 67.234375 79.269531 67.285156 79.269531 67.332031 79.269531 C 67.359375 79.273438 67.382812 79.273438 67.40625 79.277344 C 67.519531 79.277344 67.222656 79.238281 67.332031 79.265625 C 67.355469 79.269531 67.613281 79.335938 67.609375 79.339844 C 67.609375 79.34375 67.4375 79.261719 67.507812 79.296875 C 67.535156 79.3125 67.5625 79.324219 67.585938 79.335938 C 67.625 79.355469 67.664062 79.378906 67.699219 79.402344 C 67.730469 79.421875 67.855469 79.511719 67.738281 79.421875 C 67.617188 79.328125 67.78125 79.460938 67.804688 79.484375 C 67.871094 79.542969 67.933594 79.609375 67.988281 79.675781 C 68.105469 79.8125 67.902344 79.550781 67.980469 79.664062 C 68.007812 79.707031 68.039062 79.75 68.066406 79.796875 C 68.117188 79.878906 68.164062 79.964844 68.203125 80.050781 C 68.214844 80.074219 68.222656 80.09375 68.234375 80.113281 C 68.269531 80.191406 68.183594 80.015625 68.191406 80.015625 C 68.210938 80.023438 68.238281 80.144531 68.246094 80.164062 C 68.28125 80.269531 68.308594 80.378906 68.332031 80.484375 C 68.34375 80.542969 68.355469 80.601562 68.367188 80.660156 C 68.371094 80.6875 68.375 80.714844 68.378906 80.746094 C 68.398438 80.859375 68.359375 80.527344 68.375 80.726562 C 68.398438 80.980469 68.410156 81.234375 68.410156 81.488281 C 68.410156 82 68.386719 82.511719 68.402344 83.027344 C 68.421875 83.605469 68.472656 84.179688 68.558594 84.75 C 68.601562 85.042969 68.652344 85.332031 68.71875 85.621094 C 68.765625 85.914062 68.855469 86.195312 68.984375 86.464844 C 69.109375 86.675781 69.265625 86.863281 69.457031 87.027344 C 69.660156 87.203125 69.914062 87.402344 70.191406 87.449219 L 70.414062 85.792969 C 70.085938 85.808594 69.824219 85.949219 69.625 86.207031 C 69.53125 86.316406 69.445312 86.433594 69.359375 86.546875 C 69.304688 86.617188 69.078125 86.890625 69.292969 86.632812 C 69.253906 86.683594 69.207031 86.730469 69.167969 86.785156 C 69.097656 86.875 69.390625 86.617188 69.253906 86.71875 C 69.164062 86.785156 69.074219 86.855469 68.984375 86.925781 C 68.800781 87.066406 68.625 87.21875 68.445312 87.363281 C 68.417969 87.382812 68.265625 87.503906 68.386719 87.410156 C 68.507812 87.316406 68.359375 87.429688 68.332031 87.449219 C 68.242188 87.515625 68.152344 87.574219 68.054688 87.628906 C 67.96875 87.675781 67.878906 87.710938 67.789062 87.75 C 68.039062 87.636719 67.847656 87.726562 67.785156 87.75 C 67.722656 87.777344 67.65625 87.800781 67.589844 87.828125 C 67.101562 88.011719 66.597656 88.160156 66.089844 88.265625 C 65.964844 88.292969 65.84375 88.316406 65.722656 88.335938 C 65.574219 88.359375 65.929688 88.308594 65.75 88.332031 C 65.691406 88.335938 65.636719 88.34375 65.578125 88.347656 C 65.375 88.363281 65.171875 88.367188 64.96875 88.367188 C 64.863281 88.367188 64.753906 88.363281 64.648438 88.359375 C 64.59375 88.355469 64.539062 88.351562 64.484375 88.347656 C 64.300781 88.332031 64.703125 88.382812 64.496094 88.347656 C 64.453125 88.339844 64.40625 88.328125 64.363281 88.316406 C 64.324219 88.304688 64.191406 88.253906 64.351562 88.320312 C 64.574219 88.414062 64.214844 88.207031 64.378906 88.335938 C 64.492188 88.421875 64.425781 88.375 64.40625 88.351562 C 64.339844 88.273438 64.359375 88.253906 64.441406 88.410156 C 64.421875 88.371094 64.394531 88.332031 64.371094 88.296875 C 64.351562 88.265625 64.316406 88.175781 64.375 88.3125 C 64.429688 88.445312 64.390625 88.359375 64.382812 88.324219 C 64.371094 88.277344 64.355469 88.234375 64.347656 88.191406 C 64.339844 88.167969 64.335938 88.140625 64.332031 88.113281 C 64.300781 87.96875 64.347656 88.292969 64.34375 88.203125 C 64.332031 87.984375 64.335938 87.765625 64.347656 87.546875 C 64.398438 86.90625 64.488281 86.273438 64.566406 85.640625 C 64.609375 85.292969 64.644531 84.949219 64.675781 84.601562 C 64.691406 84.425781 64.710938 84.25 64.730469 84.078125 C 64.738281 84.023438 64.730469 83.921875 64.722656 84.125 C 64.726562 84.078125 64.734375 84.027344 64.742188 83.980469 C 64.757812 83.894531 64.769531 83.808594 64.785156 83.71875 C 64.902344 83.023438 65.066406 82.339844 65.28125 81.667969 C 65.339844 81.445312 65.3125 81.230469 65.199219 81.027344 C 65.082031 80.828125 64.914062 80.695312 64.691406 80.628906 C 64.46875 80.574219 64.253906 80.601562 64.054688 80.714844 C 63.851562 80.832031 63.71875 80.996094 63.652344 81.21875 C 63.457031 81.835938 63.300781 82.460938 63.1875 83.097656 C 63.0625 83.804688 63.007812 84.511719 62.929688 85.222656 C 62.859375 85.878906 62.757812 86.53125 62.691406 87.1875 C 62.640625 87.726562 62.585938 88.304688 62.773438 88.824219 C 62.875 89.136719 63.050781 89.394531 63.300781 89.605469 C 63.550781 89.816406 63.835938 89.945312 64.160156 89.992188 C 64.652344 90.0625 65.148438 90.074219 65.648438 90.027344 C 66.230469 89.972656 66.796875 89.855469 67.355469 89.683594 C 67.898438 89.535156 68.421875 89.335938 68.921875 89.078125 C 69.199219 88.90625 69.464844 88.714844 69.710938 88.5 C 69.8125 88.414062 69.917969 88.328125 70.019531 88.242188 C 70.070312 88.199219 70.121094 88.15625 70.175781 88.117188 C 70.183594 88.117188 69.992188 88.257812 70.09375 88.1875 C 70.113281 88.171875 70.132812 88.15625 70.148438 88.144531 C 70.378906 87.957031 70.578125 87.742188 70.742188 87.496094 L 70.785156 87.441406 C 70.859375 87.339844 70.664062 87.589844 70.726562 87.515625 C 70.753906 87.476562 70.785156 87.4375 70.816406 87.402344 C 70.847656 87.367188 70.878906 87.335938 70.90625 87.300781 C 70.914062 87.292969 70.9375 87.28125 70.9375 87.273438 L 70.796875 87.382812 C 70.925781 87.308594 70.800781 87.339844 70.414062 87.484375 C 70.625 87.480469 70.808594 87.410156 70.964844 87.269531 C 71.125 87.128906 71.214844 86.957031 71.242188 86.746094 C 71.292969 86.367188 71.054688 85.898438 70.640625 85.824219 C 70.597656 85.816406 70.488281 85.769531 70.640625 85.832031 C 70.789062 85.894531 70.679688 85.84375 70.640625 85.824219 C 70.621094 85.808594 70.601562 85.792969 70.582031 85.78125 C 70.511719 85.738281 70.695312 85.855469 70.679688 85.855469 C 70.652344 85.855469 70.578125 85.769531 70.5625 85.75 C 70.53125 85.722656 70.503906 85.695312 70.476562 85.664062 C 70.460938 85.648438 70.441406 85.628906 70.429688 85.605469 C 70.429688 85.59375 70.542969 85.769531 70.503906 85.707031 C 70.488281 85.679688 70.46875 85.648438 70.449219 85.625 C 70.425781 85.59375 70.398438 85.511719 70.460938 85.660156 C 70.523438 85.8125 70.484375 85.722656 70.476562 85.6875 C 70.414062 85.417969 70.339844 85.152344 70.285156 84.882812 C 70.257812 84.757812 70.238281 84.628906 70.214844 84.503906 C 70.207031 84.445312 70.199219 84.386719 70.191406 84.328125 C 70.183594 84.28125 70.171875 84.167969 70.195312 84.378906 C 70.191406 84.339844 70.183594 84.300781 70.179688 84.261719 C 70.117188 83.722656 70.082031 83.183594 70.082031 82.640625 C 70.082031 82.097656 70.117188 81.554688 70.085938 81.015625 C 70.027344 79.960938 69.714844 78.839844 68.847656 78.160156 C 68.371094 77.765625 67.824219 77.574219 67.207031 77.585938 C 66.613281 77.613281 66.078125 77.804688 65.597656 78.160156 C 64.578125 78.910156 64.035156 80.039062 63.652344 81.21875 C 63.59375 81.441406 63.621094 81.65625 63.734375 81.855469 C 63.851562 82.058594 64.019531 82.191406 64.242188 82.253906 C 64.464844 82.3125 64.679688 82.28125 64.878906 82.167969 C 65.082031 82.054688 65.214844 81.886719 65.28125 81.667969 Z M 65.28125 81.667969 " fill-opacity="1" fill-rule="nonzero"/><path fill="#ffa400" d="M 59.949219 71.429688 C 60.925781 67.886719 63.613281 64.882812 66.980469 63.402344 C 70.347656 61.917969 74.316406 61.945312 77.71875 63.351562 C 79.1875 63.957031 80.660156 64.773438 81.570312 66.078125 C 84.132812 69.757812 77.253906 73.726562 73.101562 75.257812 C 69.421875 76.621094 57.921875 78.792969 59.949219 71.429688 Z M 59.949219 71.429688 " fill-opacity="1" fill-rule="nonzero"/><path fill="#ffa400" d="M 59.210938 86.84375 C 58.695312 85.894531 57.351562 85.550781 56.386719 86.050781 C 55.425781 86.546875 54.925781 87.746094 55.136719 88.808594 C 55.347656 89.871094 56.199219 90.75 57.21875 91.121094 C 58.304688 91.515625 59.644531 91.3125 60.429688 90.460938 C 61.214844 89.609375 61.246094 88.105469 60.371094 87.347656 C 59.875 86.914062 59.195312 86.773438 58.589844 86.515625 " fill-opacity="1" fill-rule="nonzero"/><path fill="#ffffff" d="M 64.097656 70.121094 C 64.734375 69.59375 65.378906 69.074219 66.027344 68.566406 C 66.902344 67.878906 67.808594 67.199219 68.847656 66.808594 C 71.171875 65.929688 73.765625 66.609375 76.152344 67.304688 C 76.527344 67.414062 76.914062 67.53125 77.210938 67.78125 C 77.511719 68.03125 77.703125 68.453125 77.566406 68.816406 C 77.4375 69.160156 77.078125 69.347656 76.746094 69.503906 C 74.273438 70.675781 71.785156 71.859375 69.144531 72.570312 C 67.226562 73.082031 65.25 73.347656 63.285156 73.605469 C 63.007812 73.644531 62.6875 73.664062 62.5 73.460938 C 62.175781 73.105469 62.578125 72.578125 62.933594 72.257812 C 63.914062 71.371094 64.691406 70.332031 65.265625 69.140625 " fill-opacity="1" fill-rule="nonzero"/><path fill="#ff7900" d="M 31.769531 55.183594 C 31.160156 57.953125 33.089844 60.800781 35.617188 62.089844 C 38.144531 63.382812 41.109375 63.4375 43.941406 63.261719 C 46.347656 63.117188 48.78125 62.8125 51.003906 61.875 C 53.113281 60.980469 54.941406 59.550781 56.746094 58.136719 C 57.816406 57.300781 58.796875 56.351562 59.566406 55.230469 C 60.488281 53.886719 61.558594 51.820312 61.800781 50.589844 C 62.175781 48.703125 62.082031 46.800781 61.996094 44.953125 C 61.976562 44.503906 60.453125 45.105469 60.140625 44.78125 C 59.675781 44.292969 58.878906 44.421875 58.226562 44.597656 C 51.644531 46.34375 45.304688 48.878906 38.980469 51.410156 C 35.582031 52.769531 32.113281 54.171875 29.347656 56.574219 " fill-opacity="1" fill-rule="nonzero"/><path fill="#ff7900" d="M 106.902344 60.335938 C 108.226562 61.726562 108.625 63.761719 108.644531 65.679688 C 108.664062 67.597656 108.363281 69.519531 108.550781 71.429688 C 108.707031 72.945312 109.148438 74.375 109.875 75.714844 C 110.601562 77.054688 111.554688 78.203125 112.738281 79.160156 C 114.402344 80.496094 116.511719 81.351562 118.640625 81.222656 C 122.007812 81.019531 124.859375 78.339844 126.085938 75.199219 C 126.925781 73.0625 127.101562 70.53125 125.941406 68.550781 C 124.824219 66.644531 122.710938 65.582031 120.671875 64.722656 C 116.917969 63.144531 113.054688 61.914062 109.082031 61.027344 " fill-opacity="1" fill-rule="nonzero"/><path fill="#ff7900" d="M 140.214844 81.976562 C 141.105469 83.40625 142.527344 84.414062 143.980469 85.265625 C 145.011719 85.871094 146.097656 86.425781 147.277344 86.621094 C 148.457031 86.816406 149.75 86.613281 150.660156 85.835938 C 151.566406 85.054688 154.035156 81.191406 153.445312 80.152344 C 153.210938 79.746094 152 79.761719 151.648438 79.449219 C 150.152344 78.105469 148.476562 78.0625 146.78125 76.976562 C 145.355469 76.0625 143.664062 75.542969 142.128906 74.832031 C 141.207031 74.40625 139.472656 73.332031 138.503906 73.15625 C 137.730469 74.917969 139.386719 80.324219 140.214844 81.976562 Z M 140.214844 81.976562 " fill-opacity="1" fill-rule="nonzero"/><g clip-path="url(#afcbe15328)"><path fill="#000000" d="M 16.652344 50.710938 C 18.316406 57.8125 19.269531 65.058594 21.65625 71.976562 C 23.707031 77.925781 25.9375 83.808594 28.34375 89.632812 C 32.773438 100.332031 38.394531 110.554688 44.816406 120.191406 C 48.234375 125.335938 52.09375 130.128906 56.394531 134.5625 C 60.960938 139.265625 65.851562 143.605469 71.066406 147.578125 C 75.75 151.148438 80.859375 154.1875 86.429688 156.160156 C 92.867188 158.445312 99.707031 158.882812 106.488281 158.84375 C 113.179688 158.816406 119.820312 158.226562 126.414062 157.074219 C 129.445312 156.535156 132.46875 155.871094 135.363281 154.808594 C 138.460938 153.660156 141.410156 152.214844 144.210938 150.46875 C 148.179688 148.015625 152.058594 145.140625 154.996094 141.488281 C 158.554688 137.070312 161.550781 132.121094 164.070312 127.050781 C 165.273438 124.605469 166.304688 122.09375 167.164062 119.507812 C 168.3125 116.101562 169.34375 112.648438 169.980469 109.105469 C 170.617188 105.539062 170.871094 101.886719 170.433594 98.28125 C 170.210938 96.390625 169.804688 94.535156 169.222656 92.71875 C 168.808594 91.457031 168.363281 90.148438 167.609375 89.042969 C 166.371094 87.214844 164.613281 85.796875 162.824219 84.539062 C 160.417969 82.851562 157.828125 81.441406 155.214844 80.105469 C 148.710938 76.777344 141.976562 73.917969 135.390625 70.757812 C 128.832031 67.613281 122.21875 64.671875 115.386719 62.15625 C 112.628906 61.140625 109.855469 60.179688 107.070312 59.242188 C 104.546875 58.394531 101.992188 57.613281 99.511719 56.648438 C 93.070312 54.148438 87.082031 50.476562 81.328125 46.691406 C 78.746094 45.015625 76.375 43.078125 74.222656 40.878906 C 72.21875 38.808594 70.367188 36.597656 68.351562 34.535156 C 66.699219 32.847656 64.859375 31.191406 63.488281 29.257812 C 62.863281 28.382812 61.402344 29.222656 62.03125 30.109375 C 63.429688 32.082031 65.25 33.777344 66.9375 35.5 C 68.9375 37.546875 70.785156 39.71875 72.757812 41.789062 C 77.015625 46.265625 82.359375 49.5 87.648438 52.613281 C 90.699219 54.410156 93.832031 56.078125 97.089844 57.46875 C 99.703125 58.585938 102.402344 59.457031 105.09375 60.355469 C 110.835938 62.277344 116.550781 64.285156 122.15625 66.589844 C 129.105469 69.449219 135.808594 72.855469 142.636719 75.992188 C 148.59375 78.730469 154.699219 81.363281 160.257812 84.863281 C 162.210938 86.089844 164.160156 87.457031 165.652344 89.238281 C 166.28125 90.007812 166.765625 90.859375 167.105469 91.796875 C 167.789062 93.574219 168.285156 95.402344 168.597656 97.277344 C 169.773438 104.40625 168.011719 111.589844 165.777344 118.328125 C 164.914062 120.933594 163.960938 123.457031 162.75 125.925781 C 161.464844 128.535156 160.03125 131.074219 158.496094 133.546875 C 156 137.5625 153.292969 141.464844 149.636719 144.507812 C 145.164062 148.222656 140.042969 151.359375 134.554688 153.3125 C 128.734375 155.382812 122.382812 156.171875 116.257812 156.699219 C 109.632812 157.269531 102.914062 157.394531 96.296875 156.699219 C 89.773438 156.015625 83.574219 153.640625 77.980469 150.269531 C 73.136719 147.351562 68.722656 143.730469 64.503906 139.984375 C 59.492188 135.539062 54.667969 130.726562 50.582031 125.414062 C 47.003906 120.761719 43.863281 115.773438 40.882812 110.726562 C 38.085938 105.988281 35.421875 101.15625 33.046875 96.191406 C 30.308594 90.464844 28.019531 84.503906 25.808594 78.554688 C 24.886719 76.082031 23.988281 73.597656 23.132812 71.101562 C 21.996094 67.785156 21.183594 64.378906 20.480469 60.949219 C 19.75 57.386719 19.109375 53.804688 18.277344 50.261719 C 18.03125 49.207031 16.40625 49.652344 16.652344 50.710938 Z M 16.652344 50.710938 " fill-opacity="1" fill-rule="nonzero"/></g><g clip-path="url(#9e9e8c0706)"><path fill="#000000" d="M 17.042969 51.214844 C 18.546875 52.285156 20.074219 53.332031 21.664062 54.277344 C 23.042969 55.09375 24.460938 55.828125 25.925781 56.480469 C 26.898438 56.910156 27.878906 57.316406 28.867188 57.703125 C 29.097656 57.765625 29.3125 57.738281 29.519531 57.621094 C 29.71875 57.5 29.847656 57.332031 29.910156 57.105469 C 29.96875 56.878906 29.9375 56.667969 29.820312 56.464844 C 29.695312 56.277344 29.527344 56.148438 29.316406 56.078125 C 28.890625 55.910156 28.464844 55.738281 28.042969 55.566406 C 27.941406 55.523438 27.839844 55.480469 27.742188 55.441406 C 27.710938 55.425781 27.550781 55.359375 27.679688 55.414062 C 27.808594 55.46875 27.632812 55.394531 27.597656 55.378906 C 27.398438 55.292969 27.195312 55.207031 26.996094 55.117188 C 26.261719 54.796875 25.539062 54.453125 24.824219 54.09375 C 23.371094 53.347656 21.964844 52.523438 20.601562 51.621094 C 19.6875 51.019531 18.785156 50.394531 17.894531 49.757812 C 17.6875 49.636719 17.472656 49.609375 17.242188 49.671875 C 17.023438 49.734375 16.855469 49.863281 16.738281 50.058594 C 16.507812 50.496094 16.65625 50.9375 17.042969 51.214844 Z M 17.042969 51.214844 " fill-opacity="1" fill-rule="nonzero"/></g><path fill="#000000" d="M 29.519531 57.621094 C 31.414062 56.304688 33.378906 55.085938 35.394531 53.960938 C 37.507812 52.777344 39.671875 51.695312 41.886719 50.710938 C 42.167969 50.582031 42.453125 50.460938 42.734375 50.335938 C 42.867188 50.277344 43.003906 50.222656 43.136719 50.164062 C 43.179688 50.144531 43.421875 50.039062 43.203125 50.136719 C 43.28125 50.101562 43.363281 50.070312 43.441406 50.035156 C 44.007812 49.800781 44.574219 49.574219 45.140625 49.351562 C 46.296875 48.902344 47.460938 48.480469 48.636719 48.085938 C 50.929688 47.3125 53.257812 46.671875 55.621094 46.15625 C 56.765625 45.910156 57.917969 45.703125 59.074219 45.527344 C 59.210938 45.507812 59.34375 45.488281 59.480469 45.472656 L 59.585938 45.457031 C 59.734375 45.4375 59.539062 45.460938 59.523438 45.464844 C 59.605469 45.453125 59.6875 45.441406 59.765625 45.433594 C 60.050781 45.394531 60.335938 45.363281 60.621094 45.332031 C 61.175781 45.269531 61.730469 45.21875 62.289062 45.179688 C 62.566406 45.160156 62.847656 45.144531 63.128906 45.128906 C 63.566406 45.105469 63.992188 44.757812 63.96875 44.285156 C 63.949219 43.847656 63.597656 43.417969 63.128906 43.441406 C 60.765625 43.570312 58.421875 43.871094 56.101562 44.339844 C 53.722656 44.816406 51.378906 45.425781 49.066406 46.171875 C 46.65625 46.941406 44.289062 47.84375 41.964844 48.84375 C 39.714844 49.816406 37.511719 50.882812 35.355469 52.054688 C 33.300781 53.171875 31.296875 54.378906 29.359375 55.6875 C 29.128906 55.84375 28.898438 56.003906 28.667969 56.164062 C 28.304688 56.414062 28.105469 56.914062 28.363281 57.316406 C 28.597656 57.675781 29.128906 57.886719 29.519531 57.617188 Z M 29.519531 57.621094 " fill-opacity="1" fill-rule="nonzero"/><g clip-path="url(#f28fb020b8)"><path fill="#000000" d="M 63.96875 44.285156 C 63.761719 40.5 63.640625 36.707031 63.609375 32.914062 C 63.601562 31.835938 63.597656 30.761719 63.605469 29.683594 C 63.605469 29.242188 63.214844 28.820312 62.761719 28.839844 C 62.527344 28.84375 62.332031 28.925781 62.167969 29.089844 C 62.003906 29.253906 61.921875 29.453125 61.917969 29.683594 C 61.898438 33.476562 61.96875 37.265625 62.125 41.054688 C 62.171875 42.132812 62.222656 43.207031 62.28125 44.285156 C 62.308594 44.726562 62.652344 45.148438 63.125 45.128906 C 63.5625 45.109375 63.996094 44.757812 63.96875 44.285156 Z M 63.96875 44.285156 " fill-opacity="1" fill-rule="nonzero"/></g><path fill="#000000" d="M 63.3125 73.464844 C 63.828125 72.464844 64.417969 71.511719 65.082031 70.605469 C 65.125 70.546875 65.167969 70.488281 65.214844 70.433594 C 65.25 70.386719 65.335938 70.296875 65.183594 70.46875 C 65.203125 70.445312 65.222656 70.417969 65.242188 70.394531 C 65.332031 70.28125 65.421875 70.167969 65.515625 70.058594 C 65.703125 69.835938 65.898438 69.617188 66.101562 69.402344 C 66.300781 69.195312 66.511719 68.996094 66.726562 68.804688 C 66.824219 68.71875 66.921875 68.636719 67.023438 68.554688 C 67.054688 68.53125 67.082031 68.507812 67.113281 68.484375 C 67.105469 68.488281 66.941406 68.613281 67.050781 68.535156 C 67.109375 68.488281 67.171875 68.445312 67.230469 68.402344 C 67.449219 68.246094 67.671875 68.105469 67.90625 67.976562 C 68.019531 67.917969 68.132812 67.859375 68.253906 67.804688 C 68.277344 67.792969 68.304688 67.78125 68.332031 67.769531 C 68.476562 67.703125 68.164062 67.835938 68.265625 67.792969 C 68.332031 67.769531 68.398438 67.742188 68.464844 67.71875 C 68.792969 67.601562 69.121094 67.511719 69.460938 67.445312 C 69.535156 67.429688 69.613281 67.414062 69.6875 67.402344 C 69.726562 67.394531 69.765625 67.390625 69.804688 67.382812 C 69.820312 67.378906 70.011719 67.351562 69.863281 67.371094 C 69.714844 67.394531 69.902344 67.367188 69.921875 67.367188 C 69.960938 67.363281 69.996094 67.359375 70.035156 67.355469 C 70.128906 67.34375 70.226562 67.335938 70.320312 67.332031 C 70.667969 67.308594 71.011719 67.304688 71.355469 67.320312 C 71.527344 67.328125 71.699219 67.339844 71.875 67.355469 C 71.949219 67.363281 72.027344 67.371094 72.105469 67.378906 C 72.152344 67.382812 72.199219 67.390625 72.25 67.394531 C 72.277344 67.398438 72.480469 67.425781 72.339844 67.40625 C 72.210938 67.386719 72.339844 67.40625 72.371094 67.410156 C 72.421875 67.417969 72.46875 67.425781 72.515625 67.433594 C 72.59375 67.445312 72.671875 67.457031 72.75 67.46875 C 72.933594 67.5 73.117188 67.535156 73.300781 67.574219 C 73.664062 67.648438 74.027344 67.730469 74.386719 67.820312 C 75.054688 67.984375 75.726562 68.152344 76.375 68.378906 C 76.519531 68.429688 76.660156 68.480469 76.800781 68.539062 C 76.851562 68.558594 76.941406 68.605469 76.726562 68.503906 C 76.765625 68.523438 76.808594 68.542969 76.851562 68.558594 C 76.917969 68.589844 76.984375 68.625 77.050781 68.65625 C 77.175781 68.71875 77.296875 68.789062 77.417969 68.867188 C 77.445312 68.886719 77.46875 68.90625 77.496094 68.921875 C 77.574219 68.972656 77.320312 68.773438 77.445312 68.886719 C 77.496094 68.929688 77.542969 68.972656 77.585938 69.019531 C 77.753906 69.179688 77.953125 69.261719 78.183594 69.261719 C 78.417969 69.261719 78.613281 69.179688 78.78125 69.019531 C 78.941406 68.851562 79.019531 68.652344 79.019531 68.421875 C 79.019531 68.191406 78.941406 67.992188 78.78125 67.824219 C 78.339844 67.355469 77.710938 67.089844 77.121094 66.859375 C 76.566406 66.65625 76 66.484375 75.425781 66.34375 C 73.941406 65.953125 72.410156 65.617188 70.867188 65.625 C 69.453125 65.632812 68.007812 65.933594 66.789062 66.675781 C 65.738281 67.316406 64.84375 68.203125 64.082031 69.160156 C 63.230469 70.242188 62.488281 71.390625 61.855469 72.609375 C 61.648438 73 61.742188 73.542969 62.15625 73.765625 C 62.546875 73.96875 63.09375 73.878906 63.3125 73.460938 Z M 63.3125 73.464844 " fill-opacity="1" fill-rule="nonzero"/><path fill="#000000" d="M 33.769531 82.875 C 33.746094 82.753906 33.789062 83.167969 33.789062 83.019531 C 33.789062 83 33.789062 82.976562 33.789062 82.957031 C 33.789062 82.929688 33.796875 82.902344 33.796875 82.871094 C 33.796875 82.785156 33.765625 83.082031 33.769531 83.050781 C 33.777344 83.03125 33.777344 83.011719 33.78125 82.988281 C 33.808594 82.851562 33.847656 82.714844 33.894531 82.582031 C 33.910156 82.542969 33.921875 82.507812 33.9375 82.46875 C 33.945312 82.449219 33.953125 82.425781 33.960938 82.40625 C 34 82.304688 33.894531 82.5625 33.90625 82.542969 C 33.949219 82.457031 33.984375 82.359375 34.027344 82.273438 C 34.125 82.078125 34.226562 81.890625 34.339844 81.707031 C 34.457031 81.507812 34.585938 81.3125 34.71875 81.125 C 34.789062 81.023438 34.859375 80.921875 34.9375 80.824219 C 34.957031 80.796875 34.976562 80.769531 35 80.742188 C 34.835938 80.957031 34.902344 80.863281 34.941406 80.8125 C 34.988281 80.753906 35.039062 80.695312 35.085938 80.632812 C 35.445312 80.195312 35.835938 79.785156 36.257812 79.40625 C 36.367188 79.308594 36.476562 79.214844 36.585938 79.121094 C 36.636719 79.078125 36.691406 79.035156 36.742188 78.992188 C 36.773438 78.96875 36.804688 78.945312 36.835938 78.917969 C 36.621094 79.09375 36.757812 78.980469 36.808594 78.941406 C 37.054688 78.757812 37.304688 78.585938 37.566406 78.425781 C 37.835938 78.261719 38.113281 78.109375 38.402344 77.972656 C 38.464844 77.945312 38.527344 77.917969 38.589844 77.890625 C 38.648438 77.863281 38.796875 77.808594 38.542969 77.910156 C 38.570312 77.898438 38.59375 77.886719 38.621094 77.875 C 38.777344 77.816406 38.933594 77.757812 39.09375 77.707031 C 39.398438 77.605469 39.707031 77.527344 40.023438 77.472656 C 40.152344 77.449219 39.910156 77.492188 39.914062 77.488281 C 39.953125 77.476562 39.992188 77.472656 40.03125 77.476562 C 40.109375 77.46875 40.1875 77.464844 40.269531 77.460938 C 40.417969 77.457031 40.570312 77.460938 40.71875 77.46875 C 40.804688 77.476562 40.886719 77.484375 40.972656 77.492188 C 41 77.496094 41.027344 77.5 41.058594 77.503906 C 40.78125 77.480469 40.941406 77.488281 41.003906 77.496094 C 41.179688 77.523438 41.355469 77.558594 41.53125 77.601562 C 41.863281 77.679688 42.191406 77.773438 42.519531 77.886719 C 42.71875 77.953125 42.914062 78.027344 43.109375 78.105469 C 43.199219 78.140625 43.289062 78.183594 43.382812 78.214844 C 43.144531 78.132812 43.3125 78.183594 43.363281 78.207031 C 43.421875 78.234375 43.484375 78.257812 43.542969 78.285156 C 43.921875 78.453125 44.292969 78.632812 44.660156 78.820312 C 45.359375 79.179688 46.042969 79.570312 46.722656 79.972656 C 46.921875 80.089844 47.136719 80.121094 47.363281 80.0625 C 47.585938 80.003906 47.757812 79.871094 47.875 79.671875 C 47.992188 79.46875 48.023438 79.257812 47.964844 79.03125 C 47.90625 78.804688 47.773438 78.632812 47.574219 78.515625 C 46.238281 77.722656 44.871094 76.980469 43.421875 76.421875 C 42.746094 76.152344 42.046875 75.960938 41.324219 75.851562 C 40.941406 75.789062 40.558594 75.765625 40.167969 75.777344 C 39.789062 75.800781 39.417969 75.859375 39.050781 75.960938 C 37.679688 76.316406 36.441406 77.046875 35.363281 77.953125 C 34.445312 78.726562 33.664062 79.621094 33.019531 80.632812 C 32.726562 81.085938 32.488281 81.5625 32.292969 82.0625 C 32.125 82.46875 32.074219 82.890625 32.140625 83.324219 C 32.21875 83.761719 32.773438 84.046875 33.179688 83.914062 C 33.648438 83.761719 33.851562 83.34375 33.769531 82.878906 Z M 33.769531 82.875 " fill-opacity="1" fill-rule="nonzero"/><path fill="#000000" d="M 33.007812 84.308594 C 37.058594 84.074219 40.9375 83.125 44.640625 81.460938 C 45.644531 81.015625 46.621094 80.519531 47.574219 79.972656 C 47.773438 79.855469 47.902344 79.683594 47.964844 79.457031 C 48.023438 79.234375 47.992188 79.019531 47.875 78.820312 C 47.757812 78.617188 47.585938 78.488281 47.359375 78.429688 C 47.136719 78.371094 46.921875 78.398438 46.722656 78.515625 C 45.890625 78.992188 45.039062 79.429688 44.167969 79.832031 C 43.949219 79.933594 43.730469 80.03125 43.507812 80.125 C 43.457031 80.148438 43.40625 80.171875 43.355469 80.191406 C 43.328125 80.203125 43.300781 80.214844 43.277344 80.226562 C 43.46875 80.140625 43.367188 80.1875 43.324219 80.207031 C 43.210938 80.25 43.101562 80.296875 42.988281 80.34375 C 42.542969 80.523438 42.089844 80.695312 41.632812 80.855469 C 39.824219 81.496094 37.972656 81.972656 36.078125 82.285156 C 35.8125 82.328125 35.546875 82.367188 35.277344 82.40625 L 35.195312 82.417969 C 35.082031 82.433594 35.371094 82.394531 35.253906 82.410156 C 35.179688 82.417969 35.105469 82.429688 35.03125 82.4375 C 34.902344 82.453125 34.773438 82.46875 34.644531 82.484375 C 34.101562 82.542969 33.554688 82.589844 33.007812 82.625 C 32.566406 82.648438 32.140625 82.992188 32.164062 83.464844 C 32.183594 83.902344 32.535156 84.339844 33.007812 84.308594 Z M 33.007812 84.308594 " fill-opacity="1" fill-rule="nonzero"/><path fill="#000000" d="M 62.582031 74.414062 C 67.03125 74.089844 71.289062 73.011719 75.355469 71.175781 C 76.464844 70.679688 77.550781 70.128906 78.609375 69.523438 C 78.808594 69.40625 78.941406 69.234375 79 69.011719 C 79.058594 68.785156 79.027344 68.574219 78.910156 68.371094 C 78.792969 68.171875 78.621094 68.039062 78.398438 67.980469 C 78.171875 67.921875 77.957031 67.949219 77.757812 68.066406 C 76.835938 68.59375 75.894531 69.078125 74.933594 69.523438 C 74.6875 69.636719 74.441406 69.746094 74.195312 69.855469 C 74.136719 69.882812 74.078125 69.90625 74.015625 69.933594 C 73.988281 69.945312 73.785156 70.03125 73.914062 69.976562 C 74.039062 69.925781 73.832031 70.011719 73.808594 70.023438 C 73.738281 70.050781 73.671875 70.078125 73.601562 70.105469 C 73.109375 70.308594 72.617188 70.496094 72.117188 70.675781 C 70.117188 71.394531 68.074219 71.9375 65.980469 72.304688 C 65.6875 72.355469 65.394531 72.402344 65.101562 72.449219 C 64.953125 72.46875 64.804688 72.492188 64.660156 72.511719 C 64.632812 72.515625 64.605469 72.519531 64.578125 72.523438 C 64.808594 72.488281 64.660156 72.511719 64.605469 72.519531 C 64.535156 72.527344 64.460938 72.539062 64.386719 72.546875 C 63.785156 72.621094 63.183594 72.683594 62.582031 72.726562 C 62.144531 72.757812 61.71875 73.089844 61.738281 73.570312 C 61.757812 74 62.113281 74.449219 62.582031 74.414062 Z M 62.582031 74.414062 " fill-opacity="1" fill-rule="nonzero"/><path fill="#000000" d="M 52.746094 81.097656 C 53.015625 81.8125 53.484375 82.359375 54.148438 82.738281 C 54.769531 83.085938 55.433594 83.25 56.144531 83.230469 C 57.667969 83.183594 58.96875 82.210938 59.65625 80.878906 C 60.058594 80.089844 60.28125 79.253906 60.320312 78.371094 C 60.320312 78.140625 60.234375 77.941406 60.070312 77.777344 C 59.90625 77.613281 59.710938 77.53125 59.476562 77.527344 C 59.246094 77.53125 59.046875 77.617188 58.886719 77.78125 C 58.722656 77.945312 58.636719 78.140625 58.632812 78.371094 C 58.628906 78.445312 58.625 78.523438 58.617188 78.597656 C 58.609375 78.667969 58.554688 78.933594 58.617188 78.644531 C 58.585938 78.796875 58.566406 78.945312 58.53125 79.09375 C 58.496094 79.238281 58.457031 79.375 58.414062 79.515625 C 58.390625 79.578125 58.371094 79.644531 58.34375 79.707031 C 58.328125 79.75 58.3125 79.792969 58.296875 79.835938 C 58.238281 79.980469 58.378906 79.65625 58.308594 79.800781 C 58.1875 80.070312 58.039062 80.324219 57.871094 80.566406 C 57.847656 80.597656 57.824219 80.625 57.804688 80.65625 C 57.929688 80.46875 57.890625 80.546875 57.851562 80.589844 C 57.804688 80.648438 57.757812 80.703125 57.707031 80.757812 C 57.605469 80.867188 57.5 80.972656 57.386719 81.066406 C 57.335938 81.109375 57.210938 81.183594 57.417969 81.046875 C 57.390625 81.0625 57.371094 81.082031 57.34375 81.101562 C 57.285156 81.144531 57.222656 81.183594 57.160156 81.226562 C 57.039062 81.300781 56.910156 81.359375 56.785156 81.425781 C 57.042969 81.292969 56.839844 81.398438 56.765625 81.421875 C 56.710938 81.441406 56.65625 81.457031 56.597656 81.472656 C 56.542969 81.488281 56.484375 81.503906 56.425781 81.515625 C 56.386719 81.523438 56.347656 81.527344 56.3125 81.535156 C 56.167969 81.5625 56.535156 81.511719 56.378906 81.527344 C 56.261719 81.535156 56.144531 81.542969 56.027344 81.542969 C 55.960938 81.542969 55.894531 81.539062 55.832031 81.535156 C 55.804688 81.535156 55.777344 81.53125 55.753906 81.53125 C 55.554688 81.511719 55.867188 81.550781 55.800781 81.539062 C 55.679688 81.511719 55.558594 81.492188 55.4375 81.460938 C 55.375 81.441406 55.316406 81.421875 55.253906 81.402344 C 55.230469 81.394531 55.203125 81.382812 55.179688 81.375 C 55.027344 81.316406 55.195312 81.40625 55.238281 81.402344 C 55.191406 81.40625 55.078125 81.324219 55.035156 81.300781 C 54.976562 81.269531 54.921875 81.238281 54.871094 81.203125 C 54.796875 81.15625 54.617188 80.984375 54.824219 81.179688 C 54.78125 81.136719 54.730469 81.097656 54.683594 81.054688 C 54.628906 81.003906 54.578125 80.949219 54.527344 80.890625 C 54.511719 80.875 54.496094 80.851562 54.480469 80.832031 C 54.660156 81.023438 54.554688 80.929688 54.511719 80.867188 C 54.472656 80.8125 54.4375 80.75 54.402344 80.691406 C 54.390625 80.667969 54.378906 80.644531 54.367188 80.621094 C 54.273438 80.433594 54.425781 80.78125 54.375 80.648438 C 54.304688 80.433594 54.175781 80.265625 53.984375 80.144531 C 53.78125 80.027344 53.566406 79.996094 53.335938 80.058594 C 52.941406 80.1875 52.570312 80.65625 52.746094 81.097656 Z M 52.746094 81.097656 " fill-opacity="1" fill-rule="nonzero"/><path fill="#000000" d="M 56.5 83.429688 C 56.632812 84.367188 57.125 85.195312 57.703125 85.921875 C 58.285156 86.652344 59.003906 87.253906 59.742188 87.824219 C 60.132812 88.121094 60.53125 88.40625 60.933594 88.683594 C 61.300781 88.933594 61.886719 88.761719 62.089844 88.378906 C 62.199219 88.179688 62.226562 87.964844 62.167969 87.742188 C 62.109375 87.519531 61.980469 87.347656 61.785156 87.226562 C 61.449219 86.996094 61.113281 86.757812 60.785156 86.511719 C 60.746094 86.484375 60.707031 86.453125 60.671875 86.425781 C 60.523438 86.3125 60.785156 86.515625 60.671875 86.425781 C 60.589844 86.359375 60.507812 86.296875 60.425781 86.230469 C 60.257812 86.09375 60.089844 85.949219 59.929688 85.804688 C 59.613281 85.527344 59.320312 85.226562 59.042969 84.90625 C 58.980469 84.832031 58.917969 84.75 58.855469 84.675781 C 58.847656 84.664062 58.96875 84.828125 58.914062 84.753906 C 58.902344 84.734375 58.886719 84.714844 58.875 84.699219 C 58.84375 84.65625 58.8125 84.613281 58.78125 84.566406 C 58.667969 84.402344 58.5625 84.230469 58.464844 84.050781 C 58.414062 83.953125 58.367188 83.855469 58.320312 83.753906 C 58.289062 83.683594 58.363281 83.855469 58.363281 83.855469 C 58.367188 83.855469 58.335938 83.78125 58.332031 83.777344 C 58.3125 83.730469 58.296875 83.679688 58.28125 83.632812 C 58.210938 83.421875 58.15625 83.203125 58.128906 82.980469 C 58.066406 82.761719 57.9375 82.59375 57.738281 82.476562 C 57.539062 82.359375 57.324219 82.332031 57.097656 82.390625 C 56.875 82.449219 56.703125 82.578125 56.585938 82.78125 C 56.480469 82.988281 56.453125 83.203125 56.5 83.429688 Z M 56.5 83.429688 " fill-opacity="1" fill-rule="nonzero"/><path fill="#000000" d="M 55.828125 91.117188 C 56.863281 91.957031 58.132812 92.386719 59.46875 92.1875 C 60.660156 92.011719 61.65625 91.167969 62.121094 90.074219 C 62.402344 89.421875 62.449219 88.757812 62.261719 88.074219 C 62.140625 87.648438 61.660156 87.34375 61.222656 87.484375 C 61 87.550781 60.832031 87.683594 60.71875 87.882812 C 60.605469 88.085938 60.578125 88.296875 60.632812 88.523438 C 60.648438 88.570312 60.660156 88.617188 60.671875 88.667969 C 60.675781 88.695312 60.679688 88.722656 60.6875 88.75 C 60.707031 88.84375 60.664062 88.613281 60.671875 88.632812 C 60.695312 88.734375 60.699219 88.839844 60.683594 88.945312 C 60.683594 88.996094 60.675781 89.042969 60.675781 89.09375 C 60.683594 88.828125 60.691406 88.980469 60.675781 89.054688 C 60.65625 89.160156 60.628906 89.261719 60.597656 89.363281 C 60.574219 89.429688 60.488281 89.609375 60.605469 89.359375 C 60.585938 89.398438 60.570312 89.4375 60.550781 89.476562 C 60.5 89.582031 60.441406 89.679688 60.378906 89.773438 C 60.351562 89.816406 60.320312 89.859375 60.292969 89.898438 C 60.242188 89.972656 60.363281 89.800781 60.359375 89.8125 C 60.34375 89.835938 60.324219 89.859375 60.300781 89.878906 C 60.230469 89.960938 60.15625 90.039062 60.078125 90.113281 C 60.039062 90.148438 60 90.179688 59.960938 90.210938 C 59.859375 90.304688 60.132812 90.089844 59.976562 90.199219 C 59.890625 90.261719 59.796875 90.316406 59.703125 90.367188 C 59.65625 90.390625 59.613281 90.410156 59.566406 90.433594 C 59.472656 90.480469 59.746094 90.363281 59.648438 90.398438 C 59.625 90.40625 59.605469 90.414062 59.582031 90.421875 C 59.46875 90.464844 59.351562 90.496094 59.234375 90.523438 C 59.179688 90.535156 59.121094 90.542969 59.066406 90.554688 C 59.3125 90.492188 59.152344 90.542969 59.078125 90.550781 C 58.957031 90.5625 58.835938 90.5625 58.714844 90.5625 C 58.652344 90.558594 58.585938 90.554688 58.523438 90.550781 C 58.496094 90.546875 58.472656 90.542969 58.449219 90.542969 C 58.355469 90.535156 58.566406 90.558594 58.554688 90.558594 C 58.421875 90.550781 58.292969 90.523438 58.171875 90.480469 C 58.042969 90.449219 57.917969 90.410156 57.796875 90.363281 C 57.765625 90.351562 57.734375 90.339844 57.707031 90.328125 C 57.597656 90.285156 57.746094 90.339844 57.769531 90.355469 C 57.714844 90.324219 57.65625 90.292969 57.59375 90.273438 C 57.46875 90.210938 57.347656 90.140625 57.230469 90.066406 C 57.175781 90.03125 57.121094 89.992188 57.066406 89.957031 C 57.046875 89.941406 57.027344 89.925781 57.007812 89.910156 C 56.863281 89.808594 57.164062 90.035156 57.023438 89.921875 C 56.855469 89.765625 56.65625 89.683594 56.425781 89.675781 C 56.195312 89.679688 55.996094 89.761719 55.832031 89.921875 C 55.546875 90.230469 55.464844 90.820312 55.832031 91.117188 Z M 55.828125 91.117188 " fill-opacity="1" fill-rule="nonzero"/><path fill="#000000" d="M 60.933594 88.683594 C 62.652344 89.925781 64.933594 90.3125 66.984375 89.839844 C 68.980469 89.378906 70.699219 88.011719 71.6875 86.230469 C 72.261719 85.199219 72.574219 84.09375 72.625 82.914062 C 72.621094 82.679688 72.539062 82.484375 72.375 82.316406 C 72.210938 82.152344 72.011719 82.070312 71.78125 82.070312 C 71.550781 82.074219 71.351562 82.160156 71.1875 82.320312 C 71.027344 82.484375 70.941406 82.683594 70.9375 82.914062 C 70.933594 83.019531 70.925781 83.128906 70.914062 83.234375 C 70.910156 83.289062 70.90625 83.339844 70.898438 83.394531 C 70.875 83.585938 70.929688 83.203125 70.898438 83.398438 C 70.867188 83.609375 70.820312 83.820312 70.769531 84.027344 C 70.710938 84.242188 70.644531 84.453125 70.566406 84.660156 C 70.550781 84.703125 70.535156 84.746094 70.515625 84.789062 C 70.507812 84.816406 70.496094 84.847656 70.484375 84.875 C 70.476562 84.886719 70.5625 84.695312 70.523438 84.78125 C 70.476562 84.886719 70.429688 84.988281 70.378906 85.09375 C 70.183594 85.484375 69.953125 85.855469 69.691406 86.207031 C 69.636719 86.277344 69.757812 86.117188 69.75 86.125 C 69.730469 86.148438 69.714844 86.175781 69.695312 86.199219 C 69.664062 86.234375 69.636719 86.269531 69.605469 86.304688 C 69.535156 86.394531 69.457031 86.480469 69.378906 86.5625 C 69.226562 86.726562 69.066406 86.878906 68.902344 87.027344 C 68.820312 87.097656 68.738281 87.164062 68.652344 87.234375 C 68.539062 87.324219 68.796875 87.125 68.679688 87.214844 C 68.628906 87.25 68.578125 87.285156 68.53125 87.320312 C 68.347656 87.449219 68.160156 87.566406 67.964844 87.675781 C 67.878906 87.722656 67.789062 87.769531 67.699219 87.8125 C 67.652344 87.839844 67.601562 87.863281 67.550781 87.886719 C 67.519531 87.898438 67.492188 87.910156 67.460938 87.925781 C 67.363281 87.972656 67.628906 87.859375 67.527344 87.898438 C 67.3125 87.984375 67.089844 88.0625 66.867188 88.128906 C 66.648438 88.191406 66.429688 88.242188 66.207031 88.28125 C 66.148438 88.289062 66.09375 88.300781 66.039062 88.308594 C 65.851562 88.335938 66.195312 88.289062 66.046875 88.308594 C 65.925781 88.320312 65.804688 88.332031 65.683594 88.339844 C 65.457031 88.351562 65.230469 88.355469 65.003906 88.347656 C 64.890625 88.34375 64.777344 88.335938 64.664062 88.328125 C 64.609375 88.320312 64.550781 88.316406 64.496094 88.308594 C 64.472656 88.308594 64.449219 88.304688 64.425781 88.300781 C 64.320312 88.289062 64.652344 88.335938 64.480469 88.308594 C 63.972656 88.234375 63.484375 88.101562 63.007812 87.917969 C 62.976562 87.90625 62.945312 87.894531 62.917969 87.882812 C 62.816406 87.84375 63.082031 87.957031 62.984375 87.910156 C 62.925781 87.882812 62.867188 87.859375 62.808594 87.832031 C 62.691406 87.777344 62.574219 87.71875 62.460938 87.65625 C 62.226562 87.527344 62.003906 87.382812 61.785156 87.226562 C 61.582031 87.109375 61.363281 87.078125 61.136719 87.140625 C 60.917969 87.203125 60.75 87.332031 60.632812 87.53125 C 60.402344 87.96875 60.550781 88.40625 60.933594 88.683594 Z M 60.933594 88.683594 " fill-opacity="1" fill-rule="nonzero"/><path fill="#000000" d="M 38.664062 81.722656 C 38.621094 81.542969 38.585938 81.363281 38.5625 81.179688 L 38.59375 81.40625 C 38.539062 80.980469 38.535156 80.558594 38.585938 80.136719 C 38.585938 79.902344 38.503906 79.703125 38.339844 79.539062 C 38.171875 79.375 37.972656 79.292969 37.742188 79.292969 C 37.507812 79.292969 37.308594 79.375 37.144531 79.539062 L 37.011719 79.710938 C 36.9375 79.84375 36.898438 79.984375 36.898438 80.136719 C 36.824219 80.824219 36.871094 81.5 37.039062 82.167969 C 37.101562 82.394531 37.230469 82.5625 37.433594 82.679688 C 37.636719 82.792969 37.851562 82.820312 38.074219 82.757812 C 38.300781 82.695312 38.46875 82.5625 38.585938 82.363281 C 38.699219 82.160156 38.726562 81.945312 38.664062 81.722656 Z M 38.664062 81.722656 " fill-opacity="1" fill-rule="nonzero"/><path fill="#000000" d="M 69.179688 71.074219 C 69.132812 70.980469 69.089844 70.886719 69.046875 70.789062 L 69.132812 70.992188 C 68.976562 70.625 68.871094 70.242188 68.816406 69.84375 L 68.847656 70.070312 C 68.832031 69.964844 68.824219 69.863281 68.816406 69.757812 C 68.808594 69.527344 68.726562 69.328125 68.570312 69.160156 C 68.402344 68.996094 68.207031 68.914062 67.972656 68.914062 C 67.738281 68.914062 67.539062 68.996094 67.375 69.160156 C 67.210938 69.324219 67.128906 69.523438 67.128906 69.757812 C 67.175781 70.519531 67.375 71.242188 67.722656 71.925781 C 67.910156 72.25 68.191406 72.386719 68.5625 72.335938 C 68.929688 72.289062 69.164062 72.085938 69.265625 71.722656 C 69.320312 71.496094 69.289062 71.28125 69.179688 71.074219 Z M 69.179688 71.074219 " fill-opacity="1" fill-rule="nonzero"/><path fill="#000000" d="M 35.445312 53.238281 C 35.238281 55.199219 35.582031 57.058594 36.476562 58.816406 C 36.675781 59.210938 37.265625 59.355469 37.632812 59.121094 C 37.828125 59 37.957031 58.824219 38.015625 58.601562 C 38.074219 58.378906 38.046875 58.167969 37.933594 57.964844 C 37.886719 57.867188 37.835938 57.765625 37.792969 57.667969 C 37.769531 57.617188 37.746094 57.566406 37.722656 57.515625 C 37.644531 57.335938 37.792969 57.695312 37.722656 57.511719 C 37.644531 57.316406 37.570312 57.117188 37.503906 56.917969 C 37.367188 56.503906 37.261719 56.085938 37.183594 55.660156 C 37.175781 55.605469 37.164062 55.550781 37.15625 55.496094 C 37.15625 55.4375 37.148438 55.382812 37.132812 55.332031 C 37.164062 55.382812 37.15625 55.511719 37.136719 55.363281 C 37.128906 55.308594 37.125 55.253906 37.117188 55.199219 C 37.097656 54.988281 37.082031 54.777344 37.078125 54.5625 C 37.0625 54.121094 37.082031 53.679688 37.132812 53.238281 C 37.132812 53.007812 37.050781 52.808594 36.882812 52.644531 C 36.71875 52.480469 36.519531 52.394531 36.289062 52.394531 C 36.054688 52.394531 35.855469 52.480469 35.691406 52.644531 C 35.539062 52.8125 35.457031 53.011719 35.445312 53.238281 Z M 35.445312 53.238281 " fill-opacity="1" fill-rule="nonzero"/><path fill="#000000" d="M 41.195312 50.164062 C 41.136719 53.105469 41.664062 55.933594 42.785156 58.652344 C 43.109375 59.441406 43.476562 60.210938 43.886719 60.960938 C 44.007812 61.160156 44.179688 61.289062 44.402344 61.347656 C 44.625 61.40625 44.839844 61.378906 45.042969 61.261719 C 45.238281 61.140625 45.367188 60.96875 45.425781 60.746094 C 45.484375 60.523438 45.457031 60.308594 45.34375 60.109375 C 45.003906 59.5 44.703125 58.871094 44.421875 58.234375 C 44.375 58.121094 44.503906 58.429688 44.433594 58.253906 C 44.417969 58.222656 44.402344 58.1875 44.390625 58.152344 C 44.359375 58.074219 44.328125 57.996094 44.296875 57.921875 C 44.230469 57.757812 44.167969 57.589844 44.109375 57.425781 C 43.984375 57.09375 43.871094 56.761719 43.769531 56.421875 C 43.566406 55.765625 43.394531 55.101562 43.257812 54.425781 C 43.1875 54.082031 43.125 53.734375 43.074219 53.382812 C 43.0625 53.300781 43.050781 53.21875 43.039062 53.136719 C 43.019531 53.011719 43.066406 53.355469 43.042969 53.167969 C 43.039062 53.128906 43.035156 53.09375 43.027344 53.054688 C 43.007812 52.871094 42.984375 52.6875 42.96875 52.503906 C 42.894531 51.726562 42.867188 50.945312 42.882812 50.164062 C 42.886719 49.929688 42.804688 49.730469 42.640625 49.5625 C 42.472656 49.394531 42.273438 49.3125 42.039062 49.3125 C 41.804688 49.3125 41.605469 49.394531 41.4375 49.5625 C 41.273438 49.730469 41.191406 49.929688 41.195312 50.164062 Z M 41.195312 50.164062 " fill-opacity="1" fill-rule="nonzero"/><path fill="#000000" d="M 45.929688 48.542969 C 46.203125 51.269531 46.703125 53.949219 47.433594 56.585938 C 47.636719 57.3125 47.855469 58.035156 48.089844 58.75 C 48.230469 59.167969 48.679688 59.484375 49.128906 59.335938 C 49.546875 59.203125 49.867188 58.75 49.71875 58.300781 C 48.890625 55.792969 48.273438 53.230469 47.878906 50.621094 C 47.851562 50.433594 47.824219 50.246094 47.796875 50.0625 C 47.792969 50.023438 47.785156 49.984375 47.78125 49.945312 C 47.765625 49.835938 47.804688 50.125 47.785156 49.960938 C 47.769531 49.863281 47.757812 49.765625 47.746094 49.667969 C 47.699219 49.292969 47.65625 48.917969 47.617188 48.542969 C 47.613281 48.316406 47.527344 48.117188 47.371094 47.949219 C 47.207031 47.785156 47.007812 47.703125 46.773438 47.699219 C 46.355469 47.71875 45.882812 48.074219 45.929688 48.542969 Z M 45.929688 48.542969 " fill-opacity="1" fill-rule="nonzero"/><path fill="#000000" d="M 50.488281 47.03125 C 50.953125 49.117188 51.519531 51.175781 52.183594 53.210938 C 52.375 53.792969 52.574219 54.371094 52.785156 54.945312 C 52.933594 55.359375 53.363281 55.683594 53.820312 55.535156 C 54.230469 55.402344 54.570312 54.941406 54.410156 54.496094 C 53.6875 52.488281 53.0625 50.445312 52.539062 48.371094 C 52.390625 47.777344 52.25 47.179688 52.117188 46.582031 C 52.054688 46.359375 51.921875 46.191406 51.71875 46.078125 C 51.515625 45.960938 51.300781 45.933594 51.078125 45.996094 C 50.855469 46.0625 50.6875 46.195312 50.574219 46.394531 C 50.460938 46.597656 50.433594 46.808594 50.488281 47.03125 Z M 50.488281 47.03125 " fill-opacity="1" fill-rule="nonzero"/><path fill="#000000" d="M 55.230469 45.847656 L 56.269531 49.789062 C 56.332031 50.015625 56.464844 50.183594 56.664062 50.300781 C 56.867188 50.414062 57.082031 50.441406 57.308594 50.378906 C 57.53125 50.316406 57.703125 50.183594 57.816406 49.984375 C 57.929688 49.78125 57.957031 49.566406 57.894531 49.34375 L 56.859375 45.398438 C 56.796875 45.171875 56.664062 45.003906 56.460938 44.890625 C 56.261719 44.773438 56.046875 44.746094 55.820312 44.808594 C 55.597656 44.871094 55.425781 45.003906 55.3125 45.207031 C 55.195312 45.410156 55.171875 45.621094 55.230469 45.847656 Z M 55.230469 45.847656 " fill-opacity="1" fill-rule="nonzero"/><path fill="#000000" d="M 115.234375 76.101562 C 115.839844 76.15625 116.445312 76.21875 117.050781 76.289062 C 117.191406 76.308594 117.332031 76.324219 117.472656 76.34375 C 117.523438 76.347656 117.800781 76.390625 117.550781 76.351562 C 117.613281 76.363281 117.671875 76.367188 117.730469 76.378906 C 118.035156 76.417969 118.335938 76.464844 118.636719 76.511719 C 119.820312 76.699219 120.992188 76.925781 122.160156 77.195312 C 122.589844 77.292969 123.09375 77.0625 123.199219 76.605469 C 123.296875 76.175781 123.070312 75.671875 122.609375 75.566406 C 120.179688 75.011719 117.71875 74.625 115.234375 74.414062 C 114.792969 74.378906 114.371094 74.832031 114.390625 75.257812 C 114.414062 75.75 114.761719 76.0625 115.234375 76.101562 Z M 115.234375 76.101562 " fill-opacity="1" fill-rule="nonzero"/><path fill="#000000" d="M 111.867188 72.964844 C 112.613281 72.9375 113.355469 72.941406 114.101562 72.976562 C 114.484375 72.992188 114.867188 73.019531 115.246094 73.054688 C 115.417969 73.070312 115.589844 73.085938 115.757812 73.105469 C 115.855469 73.117188 115.949219 73.128906 116.042969 73.140625 C 116.082031 73.144531 116.121094 73.148438 116.15625 73.152344 C 116.214844 73.160156 116.394531 73.160156 116.160156 73.152344 C 116.34375 73.167969 116.523438 73.195312 116.699219 73.230469 C 116.886719 73.261719 117.078125 73.292969 117.265625 73.328125 C 117.632812 73.394531 117.996094 73.464844 118.363281 73.546875 C 119.089844 73.710938 119.808594 73.902344 120.519531 74.125 C 120.921875 74.253906 121.320312 74.390625 121.714844 74.535156 C 121.902344 74.605469 122.089844 74.675781 122.273438 74.75 C 122.371094 74.789062 122.46875 74.828125 122.566406 74.867188 L 122.671875 74.910156 C 122.707031 74.925781 122.746094 74.941406 122.78125 74.953125 C 122.664062 74.90625 122.652344 74.902344 122.734375 74.9375 C 122.941406 75.046875 123.160156 75.074219 123.386719 75.023438 C 123.605469 74.960938 123.773438 74.832031 123.890625 74.632812 C 124.007812 74.429688 124.039062 74.214844 123.976562 73.984375 C 123.914062 73.789062 123.785156 73.5625 123.585938 73.480469 C 120.667969 72.226562 117.621094 71.503906 114.445312 71.308594 C 113.589844 71.253906 112.726562 71.246094 111.867188 71.28125 C 111.425781 71.296875 111.003906 71.65625 111.023438 72.125 C 111.042969 72.566406 111.394531 72.984375 111.867188 72.964844 Z M 111.867188 72.964844 " fill-opacity="1" fill-rule="nonzero"/><path fill="#000000" d="M 111.128906 68.039062 C 111.523438 68.085938 111.917969 68.125 112.3125 68.1875 C 112.292969 68.183594 112.113281 68.160156 112.265625 68.179688 L 112.414062 68.199219 C 112.503906 68.214844 112.589844 68.226562 112.679688 68.238281 C 112.878906 68.265625 113.074219 68.296875 113.269531 68.324219 C 114.039062 68.445312 114.804688 68.578125 115.566406 68.722656 C 117.09375 69.019531 118.605469 69.371094 120.105469 69.777344 C 120.949219 70.011719 121.789062 70.257812 122.625 70.527344 C 122.847656 70.585938 123.0625 70.558594 123.265625 70.445312 C 123.464844 70.328125 123.597656 70.160156 123.664062 69.9375 C 123.71875 69.714844 123.691406 69.5 123.574219 69.300781 C 123.460938 69.097656 123.292969 68.964844 123.074219 68.898438 C 120.078125 67.941406 117.03125 67.21875 113.925781 66.730469 C 112.996094 66.585938 112.0625 66.460938 111.128906 66.351562 C 110.894531 66.351562 110.695312 66.4375 110.53125 66.601562 C 110.367188 66.765625 110.285156 66.964844 110.285156 67.195312 C 110.285156 67.429688 110.367188 67.628906 110.53125 67.792969 C 110.699219 67.945312 110.898438 68.027344 111.128906 68.039062 Z M 111.128906 68.039062 " fill-opacity="1" fill-rule="nonzero"/><path fill="#000000" d="M 141.703125 80.882812 L 145.507812 83.503906 C 145.875 83.753906 146.460938 83.582031 146.664062 83.203125 C 146.777344 83 146.800781 82.789062 146.742188 82.5625 C 146.683594 82.339844 146.558594 82.167969 146.363281 82.046875 L 142.554688 79.425781 C 142.1875 79.175781 141.601562 79.34375 141.398438 79.726562 C 141.289062 79.929688 141.261719 80.140625 141.320312 80.367188 C 141.378906 80.589844 141.503906 80.761719 141.703125 80.882812 Z M 141.703125 80.882812 " fill-opacity="1" fill-rule="nonzero"/><path fill="#ffa400" d="M 68.367188 111.054688 C 68.929688 113.203125 69.910156 115.140625 71.3125 116.863281 C 71.683594 117.320312 72.082031 117.757812 72.507812 118.167969 C 72.824219 118.472656 73.386719 118.503906 73.699219 118.167969 C 73.859375 118 73.941406 117.800781 73.941406 117.570312 C 73.941406 117.339844 73.859375 117.140625 73.699219 116.972656 C 73.335938 116.625 72.992188 116.253906 72.667969 115.867188 C 72.585938 115.769531 72.503906 115.671875 72.425781 115.570312 C 72.410156 115.550781 72.394531 115.527344 72.378906 115.507812 C 72.308594 115.421875 72.480469 115.644531 72.414062 115.558594 C 72.375 115.503906 72.332031 115.449219 72.292969 115.394531 C 72.144531 115.195312 72 114.992188 71.863281 114.789062 C 71.578125 114.359375 71.320312 113.917969 71.082031 113.464844 C 70.964844 113.246094 70.855469 113.023438 70.753906 112.796875 C 70.703125 112.6875 70.65625 112.578125 70.609375 112.46875 C 70.566406 112.367188 70.675781 112.628906 70.632812 112.527344 C 70.625 112.503906 70.613281 112.480469 70.605469 112.457031 C 70.574219 112.386719 70.546875 112.3125 70.519531 112.242188 C 70.3125 111.707031 70.136719 111.164062 69.992188 110.609375 C 69.929688 110.386719 69.796875 110.21875 69.59375 110.105469 C 69.394531 109.992188 69.179688 109.96875 68.957031 110.027344 C 68.734375 110.089844 68.566406 110.222656 68.449219 110.421875 C 68.335938 110.621094 68.308594 110.832031 68.367188 111.054688 Z M 68.367188 111.054688 " fill-opacity="1" fill-rule="nonzero"/><path fill="#ffa400" d="M 76.941406 115.34375 C 77.464844 115.925781 77.96875 116.523438 78.449219 117.144531 L 78.316406 116.972656 C 78.429688 117.121094 78.542969 117.265625 78.652344 117.414062 C 78.773438 117.605469 78.941406 117.734375 79.15625 117.804688 C 79.386719 117.863281 79.601562 117.835938 79.808594 117.71875 C 80.003906 117.601562 80.132812 117.433594 80.195312 117.214844 C 80.261719 116.984375 80.234375 116.769531 80.109375 116.5625 C 79.488281 115.730469 78.832031 114.921875 78.132812 114.152344 C 77.96875 113.988281 77.769531 113.910156 77.535156 113.910156 C 77.304688 113.910156 77.105469 113.988281 76.941406 114.152344 C 76.78125 114.320312 76.699219 114.519531 76.699219 114.75 C 76.699219 114.980469 76.78125 115.179688 76.941406 115.34375 Z M 76.941406 115.34375 " fill-opacity="1" fill-rule="nonzero"/><path fill="#ffa400" d="M 84.507812 115.234375 L 85.238281 115.964844 C 85.40625 116.121094 85.605469 116.203125 85.835938 116.203125 C 86.066406 116.203125 86.265625 116.121094 86.429688 115.964844 L 86.5625 115.792969 C 86.640625 115.664062 86.679688 115.519531 86.679688 115.367188 L 86.648438 115.144531 C 86.609375 115 86.535156 114.878906 86.429688 114.773438 L 85.699219 114.042969 C 85.53125 113.882812 85.335938 113.804688 85.105469 113.804688 C 84.875 113.804688 84.675781 113.882812 84.507812 114.042969 L 84.375 114.210938 C 84.296875 114.34375 84.257812 114.484375 84.261719 114.636719 L 84.289062 114.863281 C 84.328125 115.003906 84.402344 115.128906 84.507812 115.234375 Z M 84.507812 115.234375 " fill-opacity="1" fill-rule="nonzero"/><path fill="#ffa400" d="M 84.945312 104.414062 L 86.261719 105.4375 C 86.429688 105.59375 86.628906 105.675781 86.859375 105.6875 C 87.089844 105.683594 87.289062 105.601562 87.457031 105.4375 C 87.621094 105.273438 87.703125 105.074219 87.703125 104.84375 L 87.671875 104.617188 C 87.632812 104.476562 87.558594 104.351562 87.457031 104.246094 L 86.140625 103.222656 C 85.96875 103.066406 85.773438 102.984375 85.542969 102.976562 C 85.308594 102.976562 85.109375 103.058594 84.945312 103.222656 C 84.78125 103.386719 84.699219 103.585938 84.699219 103.820312 L 84.730469 104.042969 C 84.769531 104.1875 84.839844 104.308594 84.945312 104.414062 Z M 84.945312 104.414062 " fill-opacity="1" fill-rule="nonzero"/><path fill="#ffa400" d="M 92.933594 120.707031 L 93.085938 121.4375 C 93.152344 121.65625 93.289062 121.824219 93.488281 121.9375 C 93.6875 122.050781 93.898438 122.078125 94.125 122.023438 L 94.324219 121.941406 C 94.453125 121.867188 94.554688 121.765625 94.628906 121.636719 L 94.710938 121.4375 C 94.753906 121.285156 94.753906 121.136719 94.710938 120.988281 L 94.5625 120.257812 C 94.492188 120.042969 94.363281 119.875 94.171875 119.753906 C 94.078125 119.691406 93.972656 119.660156 93.859375 119.652344 C 93.746094 119.628906 93.632812 119.632812 93.523438 119.667969 L 93.320312 119.753906 C 93.195312 119.828125 93.09375 119.929688 93.019531 120.058594 L 92.933594 120.257812 C 92.894531 120.40625 92.894531 120.558594 92.933594 120.707031 Z M 92.933594 120.707031 " fill-opacity="1" fill-rule="nonzero"/><path fill="#ffa400" d="M 72.195312 126.085938 L 75.171875 128.507812 C 75.339844 128.664062 75.539062 128.746094 75.769531 128.753906 C 76 128.75 76.199219 128.667969 76.367188 128.507812 C 76.648438 128.199219 76.730469 127.609375 76.367188 127.3125 L 73.386719 124.894531 C 73.21875 124.738281 73.019531 124.65625 72.789062 124.648438 C 72.558594 124.648438 72.359375 124.730469 72.195312 124.894531 C 71.910156 125.203125 71.828125 125.789062 72.195312 126.085938 Z M 72.195312 126.085938 " fill-opacity="1" fill-rule="nonzero"/><path fill="#ffa400" d="M 90.09375 131.148438 L 91.261719 131.730469 C 91.359375 131.792969 91.464844 131.828125 91.578125 131.832031 C 91.941406 131.875 92.222656 131.742188 92.417969 131.429688 C 92.535156 131.222656 92.566406 131.007812 92.503906 130.777344 C 92.441406 130.558594 92.3125 130.390625 92.113281 130.273438 L 90.945312 129.691406 C 90.847656 129.628906 90.746094 129.597656 90.628906 129.589844 C 90.265625 129.546875 89.984375 129.679688 89.789062 129.992188 C 89.671875 130.199219 89.644531 130.414062 89.707031 130.644531 C 89.765625 130.863281 89.894531 131.03125 90.09375 131.148438 Z M 90.09375 131.148438 " fill-opacity="1" fill-rule="nonzero"/><path fill="#ffa400" d="M 96.941406 128.390625 L 99.167969 130.84375 C 99.332031 131.007812 99.53125 131.089844 99.765625 131.089844 C 99.996094 131.089844 100.195312 131.007812 100.359375 130.84375 C 100.519531 130.675781 100.601562 130.476562 100.601562 130.246094 C 100.601562 130.015625 100.519531 129.816406 100.359375 129.652344 L 98.132812 127.195312 C 97.96875 127.035156 97.769531 126.953125 97.535156 126.953125 C 97.304688 126.953125 97.105469 127.035156 96.941406 127.195312 C 96.78125 127.363281 96.699219 127.5625 96.699219 127.792969 C 96.699219 128.023438 96.78125 128.222656 96.941406 128.390625 Z M 96.941406 128.390625 " fill-opacity="1" fill-rule="nonzero"/><path fill="#ffa400" d="M 85.132812 138.292969 L 89.328125 141.117188 C 89.695312 141.367188 90.277344 141.199219 90.480469 140.816406 C 90.59375 140.613281 90.621094 140.402344 90.5625 140.179688 C 90.503906 139.953125 90.375 139.78125 90.179688 139.660156 L 85.984375 136.835938 C 85.617188 136.589844 85.035156 136.753906 84.832031 137.136719 C 84.71875 137.339844 84.691406 137.554688 84.75 137.777344 C 84.808594 138 84.9375 138.171875 85.132812 138.292969 Z M 85.132812 138.292969 " fill-opacity="1" fill-rule="nonzero"/><path fill="#ffa400" d="M 92.882812 149.34375 C 93.097656 149.511719 93.289062 149.703125 93.460938 149.921875 L 93.328125 149.75 C 93.5 149.976562 93.644531 150.21875 93.757812 150.480469 L 93.671875 150.28125 C 93.765625 150.503906 93.835938 150.734375 93.878906 150.972656 C 93.9375 151.195312 94.066406 151.363281 94.265625 151.476562 C 94.464844 151.59375 94.679688 151.625 94.90625 151.566406 C 95.128906 151.507812 95.300781 151.375 95.417969 151.175781 C 95.527344 150.96875 95.554688 150.753906 95.503906 150.527344 C 95.316406 149.558594 94.839844 148.769531 94.074219 148.152344 C 93.90625 147.996094 93.707031 147.914062 93.476562 147.90625 C 93.246094 147.90625 93.046875 147.988281 92.882812 148.152344 C 92.71875 148.316406 92.632812 148.515625 92.632812 148.746094 C 92.644531 148.953125 92.707031 149.210938 92.882812 149.34375 Z M 92.882812 149.34375 " fill-opacity="1" fill-rule="nonzero"/><path fill="#ffa400" d="M 97.054688 139.144531 C 97.113281 139.21875 97.175781 139.296875 97.234375 139.371094 L 97.101562 139.199219 C 97.507812 139.726562 97.835938 140.296875 98.097656 140.910156 L 98.011719 140.707031 C 98.070312 140.847656 98.125 140.988281 98.175781 141.128906 C 98.242188 141.347656 98.371094 141.515625 98.5625 141.632812 C 98.769531 141.75 98.984375 141.78125 99.210938 141.71875 C 99.621094 141.585938 99.960938 141.128906 99.800781 140.683594 C 99.445312 139.679688 98.929688 138.769531 98.246094 137.953125 C 98.082031 137.789062 97.882812 137.707031 97.648438 137.707031 C 97.417969 137.707031 97.21875 137.789062 97.054688 137.953125 C 96.890625 138.117188 96.808594 138.316406 96.804688 138.550781 C 96.816406 138.777344 96.898438 138.976562 97.054688 139.144531 Z M 97.054688 139.144531 " fill-opacity="1" fill-rule="nonzero"/><path fill="#ffa400" d="M 105.347656 133.199219 C 106.023438 134.210938 106.6875 135.230469 107.335938 136.261719 C 107.570312 136.632812 108.097656 136.816406 108.492188 136.5625 C 108.863281 136.324219 109.046875 135.808594 108.792969 135.410156 C 108.144531 134.378906 107.480469 133.359375 106.804688 132.347656 C 106.558594 131.984375 106.046875 131.789062 105.648438 132.046875 C 105.285156 132.28125 105.082031 132.808594 105.347656 133.199219 Z M 105.347656 133.199219 " fill-opacity="1" fill-rule="nonzero"/><path fill="#ffa400" d="M 114.65625 141.828125 L 116.414062 142.996094 C 116.738281 143.1875 117.054688 143.167969 117.351562 142.9375 C 117.652344 142.707031 117.753906 142.410156 117.652344 142.042969 C 117.585938 141.828125 117.457031 141.660156 117.265625 141.539062 L 115.507812 140.371094 C 115.183594 140.179688 114.871094 140.199219 114.570312 140.429688 C 114.269531 140.660156 114.167969 140.957031 114.269531 141.324219 C 114.339844 141.539062 114.46875 141.707031 114.65625 141.828125 Z M 114.65625 141.828125 " fill-opacity="1" fill-rule="nonzero"/><path fill="#ffa400" d="M 125.773438 147.871094 L 126.273438 148.132812 C 126.371094 148.195312 126.476562 148.230469 126.589844 148.234375 C 126.953125 148.277344 127.234375 148.144531 127.429688 147.832031 L 127.515625 147.628906 C 127.554688 147.480469 127.554688 147.332031 127.515625 147.183594 L 127.429688 146.980469 C 127.355469 146.855469 127.253906 146.753906 127.125 146.679688 L 126.625 146.414062 C 126.527344 146.351562 126.425781 146.320312 126.308594 146.316406 C 125.945312 146.269531 125.664062 146.40625 125.46875 146.71875 L 125.382812 146.917969 C 125.34375 147.070312 125.34375 147.21875 125.382812 147.367188 L 125.46875 147.570312 C 125.542969 147.695312 125.644531 147.796875 125.773438 147.871094 Z M 125.773438 147.871094 " fill-opacity="1" fill-rule="nonzero"/><path fill="#ffa400" d="M 105.6875 144.554688 L 106.46875 145.042969 C 106.5625 145.105469 106.667969 145.136719 106.78125 145.140625 C 107.148438 145.1875 107.429688 145.050781 107.621094 144.738281 L 107.707031 144.539062 C 107.75 144.390625 107.75 144.238281 107.707031 144.089844 L 107.621094 143.886719 C 107.546875 143.761719 107.445312 143.660156 107.320312 143.585938 L 106.539062 143.097656 C 106.445312 143.035156 106.339844 143.003906 106.226562 143 C 105.859375 142.953125 105.582031 143.089844 105.386719 143.402344 L 105.300781 143.601562 C 105.257812 143.753906 105.257812 143.902344 105.300781 144.050781 L 105.386719 144.253906 C 105.460938 144.378906 105.5625 144.480469 105.6875 144.554688 Z M 105.6875 144.554688 " fill-opacity="1" fill-rule="nonzero"/><path fill="#ffa400" d="M 110.878906 123.277344 L 112.542969 124.828125 C 112.710938 124.988281 112.90625 125.070312 113.140625 125.074219 C 113.371094 125.074219 113.570312 124.992188 113.734375 124.828125 C 113.902344 124.664062 113.984375 124.464844 113.984375 124.230469 C 113.984375 124 113.902344 123.800781 113.734375 123.636719 L 112.070312 122.085938 C 111.902344 121.925781 111.703125 121.839844 111.472656 121.835938 C 111.242188 121.839844 111.042969 121.921875 110.878906 122.085938 C 110.710938 122.25 110.628906 122.449219 110.628906 122.679688 C 110.628906 122.914062 110.710938 123.113281 110.878906 123.277344 Z M 110.878906 123.277344 " fill-opacity="1" fill-rule="nonzero"/><path fill="#ffa400" d="M 123.359375 136.238281 L 124.722656 137.796875 C 124.988281 138.0625 125.296875 138.121094 125.644531 137.980469 C 125.992188 137.835938 126.164062 137.574219 126.164062 137.199219 C 126.15625 136.96875 126.074219 136.773438 125.917969 136.601562 L 124.550781 135.042969 C 124.285156 134.777344 123.980469 134.71875 123.632812 134.859375 C 123.285156 135.003906 123.113281 135.265625 123.113281 135.640625 C 123.121094 135.871094 123.203125 136.070312 123.359375 136.238281 Z M 123.359375 136.238281 " fill-opacity="1" fill-rule="nonzero"/><path fill="#ffa400" d="M 99.589844 118.109375 C 99.90625 118.753906 100.375 119.261719 100.996094 119.625 C 101.203125 119.738281 101.417969 119.769531 101.648438 119.707031 C 101.871094 119.648438 102.042969 119.515625 102.15625 119.3125 C 102.273438 119.109375 102.300781 118.894531 102.238281 118.671875 C 102.171875 118.453125 102.042969 118.285156 101.847656 118.167969 C 101.746094 118.105469 101.644531 118.039062 101.546875 117.964844 L 101.71875 118.097656 C 101.535156 117.953125 101.375 117.792969 101.234375 117.609375 L 101.363281 117.78125 C 101.238281 117.617188 101.132812 117.441406 101.046875 117.257812 C 100.964844 117.109375 100.84375 116.996094 100.691406 116.921875 C 100.535156 116.847656 100.375 116.824219 100.207031 116.855469 C 100.09375 116.859375 99.988281 116.890625 99.890625 116.953125 C 99.695312 117.070312 99.566406 117.238281 99.503906 117.457031 L 99.472656 117.679688 C 99.472656 117.832031 99.511719 117.976562 99.589844 118.105469 Z M 99.589844 118.109375 " fill-opacity="1" fill-rule="nonzero"/><path fill="#ffa400" d="M 79.824219 126.957031 L 81.566406 128.144531 C 81.890625 128.335938 82.207031 128.316406 82.503906 128.085938 C 82.804688 127.855469 82.90625 127.558594 82.804688 127.191406 C 82.734375 126.976562 82.605469 126.808594 82.417969 126.6875 L 80.675781 125.5 C 80.347656 125.308594 80.035156 125.328125 79.734375 125.558594 C 79.433594 125.789062 79.335938 126.085938 79.433594 126.453125 C 79.503906 126.667969 79.632812 126.835938 79.824219 126.957031 Z M 79.824219 126.957031 " fill-opacity="1" fill-rule="nonzero"/><path fill="#ffa400" d="M 132.8125 147.230469 C 132.890625 148.769531 133.976562 149.886719 135.085938 150.828125 C 135.253906 150.984375 135.453125 151.066406 135.683594 151.074219 C 135.917969 151.070312 136.117188 150.988281 136.28125 150.828125 C 136.570312 150.511719 136.640625 149.9375 136.28125 149.632812 C 135.828125 149.269531 135.410156 148.867188 135.03125 148.425781 C 135.011719 148.402344 134.992188 148.378906 134.972656 148.355469 C 134.882812 148.242188 135.066406 148.480469 135.007812 148.398438 C 134.964844 148.339844 134.925781 148.285156 134.886719 148.226562 C 134.8125 148.117188 134.742188 148 134.679688 147.878906 C 134.644531 147.8125 134.566406 147.578125 134.652344 147.835938 C 134.632812 147.773438 134.605469 147.710938 134.585938 147.648438 C 134.542969 147.511719 134.511719 147.375 134.492188 147.234375 L 134.523438 147.457031 C 134.511719 147.382812 134.503906 147.308594 134.5 147.230469 C 134.480469 146.792969 134.128906 146.367188 133.65625 146.390625 C 133.21875 146.410156 132.789062 146.761719 132.8125 147.230469 Z M 132.8125 147.230469 " fill-opacity="1" fill-rule="nonzero"/><path fill="#ffa400" d="M 76.800781 142.777344 C 76.863281 143.371094 77.039062 143.929688 77.328125 144.457031 C 77.59375 144.925781 77.925781 145.34375 78.320312 145.714844 C 79.128906 146.484375 80.121094 147.015625 81.109375 147.523438 C 81.5 147.722656 82.042969 147.636719 82.265625 147.21875 C 82.46875 146.832031 82.378906 146.28125 81.960938 146.066406 C 81.519531 145.839844 81.078125 145.609375 80.648438 145.355469 C 80.4375 145.226562 80.230469 145.09375 80.027344 144.949219 C 79.976562 144.914062 79.921875 144.875 79.871094 144.835938 C 79.714844 144.722656 80.019531 144.957031 79.871094 144.832031 C 79.773438 144.753906 79.675781 144.675781 79.585938 144.589844 C 79.425781 144.445312 79.273438 144.289062 79.136719 144.125 C 79.113281 144.101562 79.09375 144.074219 79.070312 144.046875 C 79.015625 143.980469 79.03125 143.996094 79.109375 144.101562 C 79.085938 144.058594 79.054688 144.019531 79.023438 143.980469 C 78.957031 143.886719 78.894531 143.789062 78.832031 143.6875 C 78.785156 143.605469 78.738281 143.515625 78.691406 143.429688 C 78.664062 143.371094 78.589844 143.15625 78.675781 143.40625 C 78.660156 143.359375 78.640625 143.3125 78.625 143.269531 C 78.585938 143.160156 78.550781 143.050781 78.527344 142.941406 C 78.515625 142.890625 78.503906 142.84375 78.496094 142.796875 C 78.488281 142.761719 78.480469 142.730469 78.476562 142.699219 C 78.496094 142.839844 78.5 142.867188 78.488281 142.777344 C 78.480469 142.546875 78.398438 142.347656 78.242188 142.179688 C 78.074219 142.015625 77.875 141.933594 77.644531 141.933594 C 77.230469 141.949219 76.746094 142.304688 76.800781 142.777344 Z M 76.800781 142.777344 " fill-opacity="1" fill-rule="nonzero"/><path fill="#ffa400" d="M 112.417969 153.421875 C 111.105469 152.664062 109.828125 151.855469 108.582031 150.988281 C 108.21875 150.738281 107.628906 150.910156 107.429688 151.292969 C 107.316406 151.492188 107.289062 151.707031 107.347656 151.929688 C 107.40625 152.152344 107.535156 152.324219 107.730469 152.445312 C 108.976562 153.308594 110.253906 154.121094 111.566406 154.878906 C 111.945312 155.101562 112.503906 154.980469 112.71875 154.578125 C 112.832031 154.375 112.859375 154.164062 112.800781 153.941406 C 112.742188 153.714844 112.613281 153.542969 112.417969 153.421875 Z M 112.417969 153.421875 " fill-opacity="1" fill-rule="nonzero"/><path fill="#ffa400" d="M 120 152.742188 C 120.414062 153.082031 120.878906 153.339844 121.386719 153.515625 C 121.839844 153.667969 122.308594 153.738281 122.789062 153.726562 C 123.019531 153.722656 123.21875 153.640625 123.386719 153.480469 C 123.546875 153.3125 123.628906 153.113281 123.632812 152.882812 C 123.613281 152.433594 123.261719 152.027344 122.789062 152.039062 C 122.605469 152.042969 122.417969 152.035156 122.238281 152.007812 L 122.460938 152.039062 C 122.167969 151.996094 121.882812 151.917969 121.609375 151.804688 L 121.8125 151.890625 C 121.550781 151.777344 121.304688 151.636719 121.078125 151.464844 L 121.25 151.597656 C 121.230469 151.582031 121.210938 151.566406 121.191406 151.550781 C 121.023438 151.394531 120.824219 151.3125 120.59375 151.304688 C 120.363281 151.304688 120.164062 151.386719 120 151.550781 C 119.835938 151.714844 119.75 151.914062 119.75 152.148438 C 119.75 152.382812 119.832031 152.578125 120 152.742188 Z M 120 152.742188 " fill-opacity="1" fill-rule="nonzero"/><path fill="#000000" d="M 142.335938 78.054688 C 142.457031 78.105469 142.578125 78.15625 142.699219 78.207031 L 142.867188 78.277344 C 142.953125 78.316406 142.804688 78.253906 142.804688 78.25 C 142.839844 78.265625 142.878906 78.28125 142.914062 78.296875 C 143.164062 78.40625 143.414062 78.511719 143.664062 78.617188 C 144.15625 78.832031 144.644531 79.046875 145.132812 79.261719 C 146.109375 79.699219 147.082031 80.144531 148.046875 80.605469 C 148.59375 80.863281 149.136719 81.128906 149.679688 81.398438 C 150.074219 81.589844 150.613281 81.515625 150.835938 81.09375 C 151.035156 80.714844 150.953125 80.148438 150.53125 79.941406 C 148.585938 78.980469 146.621094 78.070312 144.628906 77.210938 C 144.015625 76.945312 143.402344 76.683594 142.785156 76.429688 C 142.554688 76.367188 142.339844 76.394531 142.132812 76.515625 C 141.933594 76.632812 141.800781 76.804688 141.742188 77.027344 C 141.683594 77.253906 141.714844 77.464844 141.832031 77.667969 C 141.957031 77.855469 142.125 77.984375 142.335938 78.054688 Z M 142.335938 78.054688 " fill-opacity="1" fill-rule="nonzero"/></svg>